<?xml version="1.0" encoding="UTF-8"?>
<!DOCTYPE svg PUBLIC "-//W3C//DTD SVG 1.1//EN" "http://www.w3.org/Graphics/SVG/1.1/DTD/svg11.dtd">
<!-- Creator: CorelDRAW 2017 -->
<svg xmlns="http://www.w3.org/2000/svg" xml:space="preserve" width="42.3332mm" height="42.3332mm" version="1.1" style="shape-rendering:geometricPrecision; text-rendering:geometricPrecision; image-rendering:optimizeQuality; fill-rule:evenodd; clip-rule:evenodd"
viewBox="0 0 4233 4233"
 xmlns:xlink="http://www.w3.org/1999/xlink">
 <defs>
  <style type="text/css">
   <![CDATA[
    .fil0 {fill:none}
    .fil1 {fill:black}
    .fil2 {fill:white;fill-rule:nonzero}
   ]]>
  </style>
 </defs>
 <g id="Layer_x0020_1">
  <metadata id="CorelCorpID_0Corel-Layer"/>
  <rect class="fil0" width="4233" height="4233"/>
  <g id="_1960610030592">
   <path class="fil1" d="M823 353l2587 0c259,0 470,212 470,470l0 2587c0,259 -212,470 -470,470l-2587 0c-259,0 -470,-212 -470,-470l0 -2587c0,-259 212,-470 470,-470z"/>
   <g>
    <path class="fil2" d="M1568 2591l0 0 237 -956c-142,-13 -163,-28 -163,-28l-5 -49 -70 0 93 -668c74,-42 190,-33 190,-33l7 243c0,0 76,-12 141,-8l27 -250c19,-13 156,-15 180,0l27 250c65,-4 141,8 141,8l7 -243c0,0 116,-9 190,33l93 668 -70 0 -5 49c0,0 -21,15 -163,28l237 956 195 37 181 249 364 64 -2579 13 0 -13 364 -64 181 -249 195 -37zm694 0l249 18 167 3c-99,-27 -416,-21 -416,-21zm-428 -983c43,-12 21,-4 119,-29 91,-23 208,-15 208,-15l6 -8c-229,-15 -456,37 -456,37l91 0 93 -10 -61 26zm-123 -63c427,-80 834,0 834,0 -420,-126 -834,0 -834,0zm128 1326l-228 -10 59 -175 84 -16 24 -37 67 0 9 -10 117 -34c-223,-5 -398,23 -398,23 0,0 -54,39 -61,42 -7,3 -140,203 -140,203l-113 7 -9 14 587 0 3 -8zm749 -1642c-475,-152 -942,0 -942,0 482,-97 942,0 942,0z"/>
    <path class="fil2" d="M884 3296l0 101 -61 0 0 -301 117 0c71,0 106,33 106,99 0,39 -15,68 -44,87l43 115 -67 0 -35 -101 -59 0zm57 -52c14,0 25,-4 32,-13 7,-9 11,-20 11,-35 0,-14 -4,-26 -11,-34 -8,-9 -18,-13 -32,-13l-56 0 0 95 57 0zm329 153l0 -125 -112 0 0 125 -61 0 0 -301 61 0 0 123 112 0 0 -123 61 0 0 301 -61 0zm189 -71c9,15 25,23 49,23 24,0 40,-8 49,-23 9,-15 13,-41 13,-78 0,-36 -4,-63 -13,-79 -9,-17 -25,-25 -49,-25 -24,0 -40,8 -49,25 -9,17 -13,43 -13,79 0,36 4,62 13,78zm145 39c-19,25 -51,37 -97,37 -46,0 -78,-12 -97,-37 -19,-25 -28,-64 -28,-117 0,-53 9,-92 28,-118 19,-26 51,-39 97,-39 46,0 78,13 97,39 19,26 28,65 28,118 0,53 -9,92 -28,117zm181 32l-101 0 0 -301 101 0c26,0 47,3 64,8 17,5 30,14 39,27 9,13 16,27 19,44 4,17 5,39 5,66 0,27 -2,50 -5,67 -3,18 -9,34 -18,48 -9,14 -22,24 -39,31 -17,6 -39,10 -65,10zm64 -119c1,-9 1,-22 1,-39 0,-17 -1,-30 -2,-40 -1,-10 -4,-19 -8,-27 -4,-8 -11,-14 -20,-17 -9,-3 -20,-5 -35,-5l-40 0 0 195 40 0c22,0 38,-6 48,-17 9,-9 14,-26 16,-50zm117 119l0 -301 195 0 0 53 -134 0 0 70 107 0 0 52 -107 0 0 72 134 0 0 53 -195 0zm337 -253c-32,0 -48,11 -48,32 0,9 4,17 12,22 8,5 27,12 56,22 29,9 50,20 62,32 12,12 18,30 18,55 0,32 -10,55 -29,72 -19,16 -44,24 -75,24 -23,0 -51,-4 -84,-11l-16 -3 6 -47c39,5 70,8 91,8 31,0 47,-13 47,-39 0,-9 -4,-17 -11,-22 -7,-5 -22,-11 -43,-17 -34,-10 -58,-21 -72,-35 -14,-13 -21,-32 -21,-56 0,-30 9,-52 27,-67 18,-15 43,-22 75,-22 22,0 50,3 83,9l16 3 -5 48c-42,-5 -71,-7 -88,-7zm221 -48l64 0 37 248 7 0 54 -248 71 0 54 248 7 0 37 -248 64 0 -57 301 -92 0 -47 -229 -47 229 -92 0 -57 -301zm435 301l0 -301 61 0 0 301 -61 0zm187 0l-61 0 0 -301 61 0 0 132 41 -4 50 -128 69 0 -65 151 67 150 -70 0 -50 -120 -41 4 0 115zm201 0l0 -301 61 0 0 301 -61 0z"/>
   </g>
  </g>
 </g>
</svg>
