<?xml version="1.0" encoding="UTF-8"?>
<!DOCTYPE svg PUBLIC "-//W3C//DTD SVG 1.1//EN" "http://www.w3.org/Graphics/SVG/1.1/DTD/svg11.dtd">
<!-- Creator: CorelDRAW 2017 -->
<svg xmlns="http://www.w3.org/2000/svg" xml:space="preserve" width="451.555mm" height="254mm" version="1.1" style="shape-rendering:geometricPrecision; text-rendering:geometricPrecision; image-rendering:optimizeQuality; fill-rule:evenodd; clip-rule:evenodd"
viewBox="0 0 45156 25400"
 xmlns:xlink="http://www.w3.org/1999/xlink">
 <defs>
  <style type="text/css">
   <![CDATA[
    .fil0 {fill:black}
    .fil1 {fill:white;fill-rule:nonzero}
   ]]>
  </style>
 </defs>
 <g id="Layer_x0020_1">
  <metadata id="CorelCorpID_0Corel-Layer"/>
  <rect class="fil0" x="8855" y="6526" width="4233" height="4233" rx="564" ry="564"/>
  <g id="_1960613758976">
   <path class="fil1" d="M10314 9213l0 0 285 -1147c-170,-15 -195,-33 -195,-33l-6 -59 -84 0 112 -801c89,-50 228,-40 228,-40l9 291c0,0 91,-14 169,-10l32 -300c22,-16 187,-18 216,0l32 300c78,-4 169,10 169,10l9 -291c0,0 139,-10 228,40l112 801 -84 0 -6 59c0,0 -25,18 -195,33l285 1147 234 45 218 299 437 76 -3095 16 0 -16 437 -76 218 -299 234 -45zm832 0l299 22 201 4c-119,-33 -499,-25 -499,-25zm-514 -1180c52,-15 25,-4 143,-35 109,-28 250,-18 250,-18l7 -10c-274,-18 -547,45 -547,45l109 0 111 -12 -73 31zm-147 -75c513,-96 1001,0 1001,0 -505,-151 -1001,0 -1001,0zm153 1591l-274 -11 70 -210 101 -20 29 -44 81 0 10 -11 141 -41c-267,-6 -478,28 -478,28 0,0 -65,47 -74,50 -9,3 -168,244 -168,244l-135 8 -10 16 704 0 3 -10zm899 -1970c-570,-182 -1131,0 -1131,0 579,-116 1131,0 1131,0z"/>
   <path class="fil1" d="M9492 10058l0 121 -73 0 0 -361 140 0c85,0 127,40 127,119 0,47 -18,82 -53,104l51 138 -80 0 -42 -121 -71 0zm68 -63c17,0 30,-5 39,-16 8,-11 13,-25 13,-42 0,-17 -5,-31 -14,-41 -9,-10 -22,-15 -39,-15l-67 0 0 115 68 0zm395 184l0 -150 -134 0 0 150 -73 0 0 -361 73 0 0 147 134 0 0 -147 73 0 0 361 -73 0zm227 -85c10,19 30,28 59,28 29,0 48,-9 59,-28 10,-19 16,-50 16,-93 0,-44 -5,-75 -16,-95 -11,-20 -30,-30 -58,-30 -28,0 -48,10 -58,30 -11,20 -16,52 -16,95 0,44 5,75 16,93zm175 47c-22,30 -61,45 -116,45 -55,0 -93,-15 -116,-45 -22,-30 -34,-77 -34,-140 0,-64 11,-111 34,-142 22,-31 61,-46 116,-46 55,0 93,15 116,46 22,31 34,78 34,142 0,64 -11,110 -34,140zm218 38l-121 0 0 -361 121 0c31,0 57,3 77,10 20,7 36,17 47,32 11,15 19,33 23,53 4,20 6,47 6,79 0,33 -2,60 -6,81 -4,21 -11,40 -22,57 -11,17 -26,29 -47,37 -21,8 -47,11 -79,11zm77 -143c1,-11 1,-27 1,-47 0,-20 -1,-36 -2,-48 -1,-12 -5,-23 -10,-33 -5,-10 -13,-17 -24,-20 -10,-4 -24,-6 -42,-6l-48 0 0 233 48 0c27,0 46,-7 58,-20 10,-11 17,-31 19,-59zm140 143l0 -361 233 0 0 64 -160 0 0 84 128 0 0 63 -128 0 0 86 160 0 0 64 -233 0zm405 -303c-39,0 -58,13 -58,38 0,11 5,20 14,26 10,6 32,15 67,26 35,11 60,24 74,38 14,14 21,36 21,66 0,38 -11,66 -34,86 -23,19 -53,29 -90,29 -28,0 -61,-4 -101,-13l-19 -4 7 -57c47,6 84,10 109,10 37,0 56,-16 56,-47 0,-11 -4,-20 -13,-27 -9,-6 -26,-13 -52,-21 -41,-12 -70,-26 -87,-42 -17,-16 -25,-38 -25,-67 0,-36 11,-63 33,-81 22,-18 52,-27 90,-27 26,0 59,4 100,11l19 4 -6 58c-50,-6 -85,-8 -106,-8zm265 -57l77 0 45 298 8 0 65 -298 85 0 65 298 8 0 45 -298 77 0 -69 361 -111 0 -57 -274 -57 274 -111 0 -69 -361zm523 361l0 -361 73 0 0 361 -73 0zm225 0l-73 0 0 -361 73 0 0 159 49 -5 59 -153 83 0 -79 181 81 180 -84 0 -60 -144 -49 5 0 138zm241 0l0 -361 73 0 0 361 -73 0z"/>
  </g>
 </g>
</svg>
