<?xml version="1.0" encoding="UTF-8"?>
<!DOCTYPE svg PUBLIC "-//W3C//DTD SVG 1.1//EN" "http://www.w3.org/Graphics/SVG/1.1/DTD/svg11.dtd">
<!-- Creator: CorelDRAW 2017 -->
<svg xmlns="http://www.w3.org/2000/svg" xml:space="preserve" width="94.8266mm" height="15.2398mm" version="1.1" style="shape-rendering:geometricPrecision; text-rendering:geometricPrecision; image-rendering:optimizeQuality; fill-rule:evenodd; clip-rule:evenodd"
viewBox="0 0 9483 1524"
 xmlns:xlink="http://www.w3.org/1999/xlink">
 <defs>
  <style type="text/css">
   <![CDATA[
    .fil0 {fill:black;fill-rule:nonzero}
   ]]>
  </style>
 </defs>
 <g id="Layer_x0020_1">
  <metadata id="CorelCorpID_0Corel-Layer"/>
  <g id="_2415874933936">
   <g>
    <g>
     <path class="fil0" d="M938 1399l0 125 1460 0 0 -125 -1460 0zm456 24l0 0 2 0 25 61c2,5 4,8 6,10 2,1 4,2 7,2l2 0c3,0 5,-1 7,-3 1,-1 1,-4 1,-8l0 -47c0,-5 -1,-7 -2,-9 -1,-2 -3,-2 -6,-2l-3 0 0 -2 27 0c8,0 13,1 17,2 4,1 7,3 9,6 3,3 4,7 4,11 0,4 -1,8 -4,12 -3,3 -7,6 -14,7l15 21c3,5 6,8 9,10 2,2 6,3 10,3l0 0c3,0 5,-1 7,-3 1,-1 1,-4 1,-8l0 -47c0,-4 0,-6 -1,-7 0,-1 -1,-2 -2,-2 -2,-1 -3,-1 -5,-1l-3 0 0 -2 31 0 0 2 -2 0c-2,0 -3,0 -5,1 -1,1 -2,1 -2,3 0,1 -1,4 -1,7l0 22c1,-1 3,-3 7,-7 11,-10 17,-16 19,-20 1,-1 1,-3 1,-4 0,-1 0,-2 -1,-2 -1,-1 -2,-1 -4,-1l-2 0 0 -2 27 0 0 2c-2,0 -3,0 -4,1 -1,0 -3,1 -5,2 -2,1 -4,3 -7,5 -1,1 -4,4 -11,11l-11 11 27 27c4,4 8,7 11,9 3,2 6,2 9,3l1 0c3,0 5,-1 7,-3 1,-1 1,-4 1,-8l0 -51c-2,-2 -4,-4 -5,-5 -1,-1 -3,-2 -5,-2 -1,0 -3,0 -5,0l0 -2 20 0 45 55 0 -42c0,-4 -1,-7 -2,-8 -1,-2 -3,-2 -6,-2l-3 0 0 -2 25 0 0 2 -3 0c-3,0 -5,1 -7,3 -1,1 -1,4 -1,8l0 61 -2 0 -48 -59 0 45c0,4 0,7 1,8 1,2 3,2 6,2l3 0 0 2 -24 0 -35 0 0 -2c2,0 4,0 4,-1 1,-1 1,-2 1,-2 0,-1 0,-2 -1,-2 0,-1 -1,-2 -3,-4l-25 -25 0 23c0,4 0,6 1,7 0,1 1,2 2,2 2,1 3,1 5,1l2 0 0 2 -29 0 -19 0 -25 -34c-2,0 -3,0 -4,0l-2 0c-1,0 -1,0 -2,0l0 21c0,5 1,7 2,9 1,2 3,2 6,2l3 0 0 2 -31 0 -29 0 0 -2c3,0 5,-1 6,-1 1,-1 2,-2 2,-3 0,-2 -1,-4 -2,-7l-4 -10 -28 0 -5 12c-1,3 -2,5 -2,6 0,1 1,2 2,3 1,1 3,1 7,2l0 2 -23 0 0 -2c3,-1 5,-1 6,-2 2,-2 4,-5 6,-10l26 -60zm336 0l0 0c3,0 5,0 7,1 2,0 5,1 9,3 2,1 3,1 4,1 1,0 1,0 2,-1 1,-1 1,-2 1,-4l2 0 2 23 -2 0c-2,-6 -4,-10 -7,-13 -4,-4 -10,-6 -17,-6 -9,0 -16,4 -21,11 -4,6 -6,14 -6,22 0,7 1,13 4,19 3,6 6,10 11,13 4,3 9,4 13,4 3,0 5,0 8,-1 3,-1 5,-2 7,-3l0 -21c0,-4 0,-6 -1,-7 -1,-1 -1,-2 -3,-3 -1,-1 -3,-1 -6,-1l0 -2 28 0 0 2 -1 0c-3,0 -5,1 -6,3 -1,1 -1,4 -1,8l0 22c-4,2 -8,4 -12,5 -4,1 -8,2 -13,2 -14,0 -25,-5 -32,-14 -5,-7 -8,-15 -8,-23 0,-6 2,-13 5,-18 4,-7 9,-12 15,-16 5,-3 12,-5 19,-5l0 0zm202 0l0 0c4,0 8,1 12,3 2,1 3,1 4,1 1,0 2,0 2,-1 1,-1 1,-2 1,-3l2 0 0 25 -2 0c-1,-5 -2,-9 -4,-12 -2,-3 -4,-5 -7,-7 -3,-2 -6,-3 -10,-3 -4,0 -7,1 -9,3 -2,2 -4,5 -4,8 0,2 1,4 2,6 2,3 8,6 16,11 7,4 11,6 14,8 3,2 4,4 6,7 1,3 2,5 2,8 0,6 -2,10 -6,14 -4,4 -10,6 -17,6 -2,0 -4,0 -6,0 -1,0 -3,-1 -7,-2 -3,-1 -6,-2 -7,-2 -1,0 -2,0 -2,1 -1,1 -1,2 -1,3l-2 0 0 -25 2 0c1,5 2,9 4,12 2,3 4,5 7,6 3,2 7,3 11,3 4,0 8,-1 11,-4 3,-2 4,-5 4,-8 0,-2 -1,-4 -2,-5 -1,-2 -2,-4 -5,-5 -1,-1 -5,-3 -11,-7 -6,-4 -11,-6 -13,-8 -3,-2 -5,-4 -6,-7 -1,-3 -2,-5 -2,-8 0,-5 2,-10 6,-14 4,-4 9,-6 15,-6l0 0zm-275 2l0 0 31 0 0 2 -3 0c-3,0 -5,1 -7,3 -1,1 -1,4 -1,8l0 47c0,4 0,6 1,7 0,1 1,2 2,2 2,1 3,1 5,1l3 0 0 2 -31 0 0 -2 3 0c3,0 5,-1 7,-3 1,-1 1,-4 1,-8l0 -47c0,-4 0,-6 -1,-7 0,-1 -1,-2 -2,-2 -2,-1 -3,-1 -5,-1l-3 0 0 -2zm109 0l0 0 31 0 0 2 -3 0c-2,0 -3,0 -5,1 -1,1 -2,1 -2,3 0,1 -1,4 -1,7l0 21 34 0 0 -21c0,-4 0,-6 -1,-7 0,-1 -1,-2 -2,-2 -2,-1 -3,-1 -5,-1l-3 0 0 -2 31 0 0 2 -3 0c-2,0 -3,0 -5,1 -1,1 -2,1 -2,3 0,1 -1,4 -1,7l0 47c0,4 0,6 1,7 0,1 1,2 2,2 2,1 3,1 5,1l3 0 0 2 -31 0 0 -2 3 0c3,0 5,-1 7,-3 1,-1 1,-4 1,-8l0 -22 -34 0 0 22c0,4 0,6 1,7 0,1 1,2 2,2 2,1 3,1 5,1l3 0 0 2 -31 0 0 -2 3 0c3,0 5,-1 7,-3 1,-1 1,-4 1,-8l0 -47c0,-4 0,-6 -1,-7 0,-1 -1,-2 -2,-2 -2,-1 -3,-1 -5,-1l-3 0 0 -2zm78 0l0 0 60 0 1 17 -2 0c0,-3 -1,-5 -2,-6 -1,-2 -3,-4 -4,-5 -2,-1 -4,-2 -7,-2l-10 0 0 56c0,4 0,7 1,8 1,2 3,2 6,2l3 0 0 2 -31 0 0 -2 3 0c3,0 5,-1 7,-3 1,-1 1,-4 1,-8l0 -56 -9 0c-3,0 -6,0 -7,1 -2,1 -3,2 -5,4 -1,2 -2,5 -2,8l-2 0 1 -17zm-381 4l0 0c-2,0 -5,0 -8,1l0 30c1,0 1,0 2,0l1 0c7,0 12,-2 16,-5 4,-3 5,-7 5,-12 0,-5 -1,-8 -4,-11 -3,-3 -7,-4 -11,-4l0 0zm-71 11l0 0 -13 29 25 0 -12 -29zm-194 28l0 0 33 0 0 10 -33 0 0 -10zm890 0l0 0 33 0 0 10 -33 0 0 -10zm443 -797l0 0c0,0 49,73 59,129 10,56 17,125 52,115 35,-10 80,-38 63,-90 -17,-52 -28,-66 -52,-83 -24,-17 -122,-70 -122,-70zm0 -317l0 0c0,0 49,73 59,129 10,56 17,125 52,115 35,-10 80,-38 63,-90 -17,-52 -28,-66 -52,-83 -24,-17 -122,-70 -122,-70zm379 233l0 0 0 38 313 101 0 -42 -313 -97zm-431 -313l0 0 -83 -104 0 355c0,0 7,35 -24,28 -31,-7 -76,-28 -76,-28l3 28 73 28c0,0 35,0 28,49 -7,49 -3,202 -42,282 -38,80 -45,108 -45,108 0,0 97,-56 118,-90 21,-35 52,-118 59,-149 7,-31 3,-136 3,-136 0,0 0,-35 42,-21 42,14 222,80 222,80 0,0 14,-7 10,52 -3,59 0,257 0,257 0,0 10,24 -35,17 -45,-7 -111,-49 -111,-49 0,0 97,94 101,122 3,28 0,45 0,45l160 -195 0 -573 10 -21 -139 14 17 309 -247 -80c0,0 -31,-7 -31,-49 0,-42 7,-226 7,-226 0,0 10,-24 49,-10 38,14 188,59 188,59l0 -17 -153 -52c0,0 -21,-10 7,-31 28,-21 70,-52 70,-52 0,0 31,-24 -3,-42 -35,-17 -129,-80 -129,-80l14 156c0,0 17,10 -17,21 -35,10 -45,-3 -45,-3zm-337 587l0 0c0,0 -3,-38 21,-38 24,0 111,3 111,3 0,0 -14,10 -10,38 3,28 0,250 0,250l-202 226c0,0 17,-21 3,-42 -14,-21 -111,-136 -111,-136 0,0 118,70 146,56 28,-14 31,-63 31,-63l10 -295zm-285 -288l0 0 -181 -63 0 -42 254 90c0,0 24,0 28,-14 3,-14 -52,-219 -52,-219 0,0 94,49 122,87 28,38 52,94 21,132 -31,38 -45,35 -45,35l243 76 10 -38c0,0 104,70 97,80 -7,10 -355,-108 -355,-108 0,0 -28,0 -24,38 3,38 -7,146 -7,146l156 56 -3 17 -132 -45c0,0 -28,0 -35,45 -7,45 -56,243 -122,292 -66,49 -156,90 -156,90 0,0 132,-163 153,-330 21,-167 28,-327 28,-327zm-768 -573l0 0 0 1018 101 -83c0,0 28,-24 49,-17 21,7 63,17 63,17l7 -24 -73 -21c0,0 -24,10 -21,-28 3,-38 0,-334 0,-334 0,0 21,-17 42,-10 21,7 236,80 236,80 0,0 24,7 24,59l0 275 -176 -47 0 23 103 35c0,0 31,0 42,28 10,28 7,49 7,49l139 -188 0 -612 -115 0 -299 -83 -129 -136zm139 156l0 0c1,0 2,0 4,0 21,3 254,80 254,80 0,0 31,0 31,49 0,49 3,278 3,278 0,0 10,17 -35,10 -45,-7 -250,-70 -250,-70l-24 -24 0 -306c0,0 0,-18 17,-18l0 0zm-577 7l0 0 0 549c0,0 -10,156 -52,240 -42,83 -73,149 -73,149 0,0 76,-38 129,-97 52,-59 83,-191 83,-191 0,0 3,-28 28,-24 24,3 90,24 90,24 0,0 24,0 24,49l0 191c0,0 7,35 -31,21 -38,-14 -108,-38 -108,-38 0,0 83,70 90,90 7,21 7,56 7,56l149 -188 0 -674 -101 0 -132 -42 -104 -115zm129 134l0 0c3,0 6,0 10,2 17,7 73,28 73,28 0,0 21,3 21,45 0,42 -3,181 -3,181 0,0 3,3 -24,-3 -28,-7 -101,-38 -101,-38l0 -202c0,0 11,-11 25,-12l0 0zm0 248l0 0c3,0 6,0 10,2 17,7 73,28 73,28 0,0 21,3 21,45 0,42 -3,181 -3,181 0,0 3,3 -24,-3 -28,-7 -101,-38 -101,-38l0 -202c0,0 11,-11 25,-12l0 0zm-463 -472l0 0 0 654 -319 -108 0 39 585 199 0 -651 -96 15 -30 -22 -2 22 30 22 0 248c-24,5 -41,-2 -66,-23l0 -256c18,-23 19,-19 -101,-139l0 0zm104 431l0 0c22,3 44,1 66,26l0 240c-28,7 -45,-4 -64,-19l-2 -247z"/>
    </g>
   </g>
   <path class="fil0" d="M7211 1202c0,0 23,35 28,62 5,27 8,60 25,55 17,-5 38,-18 30,-43 -8,-25 -13,-32 -25,-40 -12,-8 -59,-33 -59,-33zm0 -152l0 0c0,0 23,35 28,62 5,27 8,60 25,55 17,-5 38,-18 30,-43 -8,-25 -13,-32 -25,-40 -12,-8 -59,-33 -59,-33zm182 112l0 0 0 18 150 48 0 -20 -150 -47zm-207 -150l0 0 -40 -50 0 170c0,0 3,17 -12,13 -15,-3 -22,-13 -22,-13l2 13 21 13c0,0 17,0 13,23 -3,23 -2,97 -20,135 -18,38 -22,52 -22,52 0,0 47,-27 57,-43 10,-17 25,-57 28,-72 3,-15 2,-65 2,-65 0,0 0,-17 20,-10 20,7 107,38 107,38 0,0 7,-3 5,25 -2,28 0,124 0,124 0,0 5,12 -17,8 -22,-3 -53,-23 -53,-23 0,0 47,45 48,59 2,13 0,22 0,22l77 -94 0 -276 5 -10 -67 7 8 149 -119 -38c0,0 -15,-3 -15,-23 0,-20 3,-109 3,-109 0,0 5,-12 23,-5 18,7 90,28 90,28l0 -8 -74 -25c0,0 -10,-5 3,-15 13,-10 33,-25 33,-25 0,0 15,-12 -2,-20 -17,-8 -62,-38 -62,-38l7 75c0,0 8,5 -8,10 -17,5 -22,-2 -22,-2l0 0zm-148 282l0 0c0,0 -2,-18 10,-18 12,0 53,2 53,2 0,0 -7,5 -5,18 2,13 0,120 0,120l-97 109c0,0 8,-10 2,-20 -7,-10 -53,-65 -53,-65 0,0 57,33 70,27 13,-7 15,-30 15,-30l5 -142zm-137 -139l0 0 -87 -30 0 -20 122 43c0,0 12,0 13,-7 2,-7 -25,-105 -25,-105 0,0 45,23 59,42 13,18 25,45 10,64 -15,18 -22,17 -22,17l117 37 5 -18c0,0 36,33 32,38 -3,5 -156,-52 -156,-52 0,0 -13,0 -12,18 2,18 -3,70 -3,70l75 27 -2 8 -64 -22c0,0 -13,0 -17,22 -3,22 -27,117 -59,140 -32,23 -75,43 -75,43 0,0 64,-79 74,-159 10,-80 13,-157 13,-157l0 0zm-355 -276l0 0 0 490 48 -40c0,0 13,-12 23,-8 10,3 30,8 30,8l3 -12 -35 -10c0,0 -12,5 -10,-13 2,-18 0,-160 0,-160 0,0 10,-8 20,-5 10,3 114,38 114,38 0,0 12,3 12,28l0 132 -85 -23 0 11 50 17c0,0 15,0 20,13 5,13 3,23 3,23l67 -90 0 -294 -55 0 -144 -40 -62 -65zm67 75l0 0c1,0 1,0 2,0 10,2 122,38 122,38 0,0 15,0 15,23 0,23 2,134 2,134 0,0 5,8 -17,5 -22,-3 -120,-33 -120,-33l-12 -12 0 -147c0,0 0,-9 8,-9l0 0zm-277 4l0 0 0 264c0,0 -5,75 -25,115 -20,40 -35,72 -35,72 0,0 37,-18 62,-47 25,-28 40,-92 40,-92 0,0 2,-13 13,-12 12,2 43,12 43,12 0,0 12,0 12,23l0 92c0,0 3,17 -15,10 -18,-7 -52,-18 -52,-18 0,0 40,33 43,43 3,10 3,27 3,27l72 -90 0 -324 -48 0 -64 -20 -50 -55zm62 64l0 0c2,0 3,0 5,1 8,3 35,13 35,13 0,0 10,2 10,22 0,20 -2,87 -2,87 0,0 2,2 -12,-2 -13,-3 -48,-18 -48,-18l0 -97c0,0 6,-6 12,-6l0 0zm0 119l0 0c2,0 3,0 5,1 8,3 35,13 35,13 0,0 10,2 10,22 0,20 -2,87 -2,87 0,0 2,2 -12,-2 -13,-3 -48,-18 -48,-18l0 -97c0,0 6,-6 12,-6l0 0zm-223 -227l0 0 0 314 -154 -52 0 19 281 96 0 -313 -46 7 -14 -11 -1 11 14 11 0 119c-12,2 -20,-1 -32,-11l0 -123c8,-11 9,-9 -49,-67l0 0zm50 207l0 0c11,2 21,0 32,13l0 115c-13,3 -22,-2 -31,-9l-1 -119zm2967 -1085l0 0c0,0 -192,45 -143,228 49,183 192,102 287,266 95,165 -26,202 -26,202 0,0 210,-44 169,-197 -41,-153 -291,-222 -323,-341 -32,-119 36,-159 36,-159zm59 696l0 0c0,0 -99,-11 -138,-80 -40,-69 -77,-138 -77,-138l0 192c0,0 154,49 172,44 18,-5 44,-18 44,-18zm-5 -683l0 0c0,0 99,11 138,80 40,69 77,138 77,138l0 -192c0,0 -154,-49 -172,-44 -18,5 -44,18 -44,18zm-870 -4l0 0 558 0 18 219c0,0 -50,-129 -115,-166 -65,-38 -131,-18 -131,-18l0 643c0,0 15,54 -26,95 -41,41 -90,105 -90,105l0 -842c0,0 -86,-24 -143,33 -58,58 -100,154 -100,154l28 -221zm-713 0l0 0 248 0 -2 18c0,0 -30,-4 -46,12 -16,16 -19,35 -19,35l0 259 277 0 0 -263c0,0 11,-15 -9,-27 -20,-12 -51,-16 -51,-16l2 -18 246 0c0,0 -4,14 -16,20 -13,5 -54,11 -54,36l0 570c0,0 20,25 34,31 14,5 36,25 36,25l-248 0c0,0 -4,-13 5,-18 9,-5 45,-13 54,-36 9,-24 0,-266 0,-266l-277 0 0 250c0,0 2,25 21,36 19,11 27,5 35,13 8,8 16,22 16,22l-255 0c0,0 0,-18 14,-23 14,-5 37,-7 47,-25 11,-18 0,-563 0,-563 0,0 8,-29 -18,-43 -26,-15 -42,-11 -42,-11l0 -16zm-263 382l0 0 205 0 0 177 -40 36c0,0 -87,101 -208,101 -121,0 -192,-54 -243,-105 -51,-51 -87,-132 -87,-237 0,-105 43,-215 89,-261 45,-45 110,-109 230,-109 119,0 253,103 253,103l0 157 -24 -24c0,0 -5,-91 -62,-133 -58,-42 -100,-67 -163,-67 -63,0 -135,44 -159,136 -24,91 -34,107 -34,203 0,96 56,210 74,228 18,18 63,72 123,72 60,0 119,-38 119,-38l5 -156c0,0 2,-24 -25,-45 -27,-22 -56,-27 -56,-27l4 -13zm-668 300l0 0c0,0 7,-22 22,-25 14,-4 24,5 34,-18 11,-24 0,-545 0,-545l121 -139 0 655c0,0 2,25 20,36 18,11 40,11 43,18 4,7 5,18 5,18l-246 0zm-696 -682l0 0 166 0 376 492 0 -376c0,0 -8,-37 -40,-60 -32,-23 -68,-36 -68,-36l-3 -19 253 0 0 19c0,0 -63,8 -79,38 -17,31 -28,51 -28,51l-6 574 -49 0c0,0 -467,-640 -484,-653 -17,-13 -29,-14 -29,-14l-10 -15zm1 682l0 0c0,0 99,-38 99,-111 0,-73 0,-247 0,-247l23 36c0,0 13,15 13,38 0,23 0,163 0,163 0,0 -3,40 32,60 36,20 54,23 54,23l28 16 1 22 -250 0zm-650 0l0 0c0,0 13,-27 35,-28 22,-1 51,-3 51,-36 0,-33 0,-556 0,-556 0,0 -1,-19 -24,-31 -23,-12 -58,-12 -58,-12l0 -20 268 0 -5 20c0,0 -62,4 -62,50 0,46 0,248 0,248 0,0 58,-18 100,-64 42,-46 154,-174 154,-174 0,0 22,-20 0,-44 -22,-23 -58,-19 -58,-19l0 -19 215 0c0,0 -41,14 -64,42 -23,28 -213,241 -213,252 0,12 183,338 207,351 24,13 55,38 55,38l-178 0 -184 -329c0,0 -5,-13 -20,-13 -15,0 -17,12 -17,12l0 271c0,0 23,33 46,33 23,0 41,26 41,26l-288 0zm-635 -668l0 0c0,0 82,5 82,77l0 786 90 -120c0,0 20,-10 20,-82l0 -604c0,0 10,-41 41,-38 31,3 149,-13 151,118 3,131 -115,182 -115,182l-36 3 -13 31c0,0 15,-23 36,18 20,41 169,300 169,300l174 0c0,0 0,-15 -18,-20 -18,-5 -31,-3 -46,-19 -15,-17 -180,-310 -180,-310 0,0 157,-55 157,-148 0,-93 -36,-184 -219,-184l-294 0 1 14zm-475 304l0 0 85 -145c0,0 14,-20 24,10 9,30 81,198 81,198l-208 0 -19 34 236 0 73 168c0,0 24,51 -14,71 -38,20 -43,28 -43,28l259 0c0,0 -30,-21 -36,-28 -6,-7 -292,-654 -292,-654l-145 319zm-125 291l0 0c-28,37 -94,74 -94,74l264 0 -25 -25c0,0 -51,9 -69,-38 -18,-47 -9,-157 -9,-157 -15,50 -31,98 -67,146z"/>
  </g>
 </g>
</svg>
