<?xml version="1.0" encoding="UTF-8"?>
<!DOCTYPE svg PUBLIC "-//W3C//DTD SVG 1.1//EN" "http://www.w3.org/Graphics/SVG/1.1/DTD/svg11.dtd">
<!-- Creator: CorelDRAW 2017 -->
<svg xmlns="http://www.w3.org/2000/svg" xml:space="preserve" width="210mm" height="297mm" version="1.1" style="shape-rendering:geometricPrecision; text-rendering:geometricPrecision; image-rendering:optimizeQuality; fill-rule:evenodd; clip-rule:evenodd"
viewBox="0 0 21000 29700"
 xmlns:xlink="http://www.w3.org/1999/xlink">
 <defs>
  <style type="text/css">
   <![CDATA[
    .fil0 {fill:black;fill-rule:nonzero}
   ]]>
  </style>
 </defs>
 <g id="Layer_x0020_1">
  <metadata id="CorelCorpID_0Corel-Layer"/>
  <path class="fil0" d="M10436 4813c0,0 23,35 28,62 5,27 8,60 25,55 17,-5 38,-18 30,-43 -8,-25 -13,-32 -25,-40 -12,-8 -59,-33 -59,-33zm0 -152l0 0c0,0 23,35 28,62 5,27 8,60 25,55 17,-5 38,-18 30,-43 -8,-25 -13,-32 -25,-40 -12,-8 -59,-33 -59,-33zm182 112l0 0 0 18 150 48 0 -20 -150 -47zm-207 -150l0 0 -40 -50 0 170c0,0 3,17 -12,13 -15,-3 -22,-13 -22,-13l2 13 21 13c0,0 17,0 13,23 -3,23 -2,97 -20,135 -18,38 -22,52 -22,52 0,0 47,-27 57,-43 10,-17 25,-57 28,-72 3,-15 2,-65 2,-65 0,0 0,-17 20,-10 20,7 107,38 107,38 0,0 7,-3 5,25 -2,28 0,124 0,124 0,0 5,12 -17,8 -22,-3 -53,-23 -53,-23 0,0 47,45 48,59 2,13 0,22 0,22l77 -94 0 -276 5 -10 -67 7 8 149 -119 -38c0,0 -15,-3 -15,-23 0,-20 3,-109 3,-109 0,0 5,-12 23,-5 18,7 90,28 90,28l0 -8 -74 -25c0,0 -10,-5 3,-15 13,-10 33,-25 33,-25 0,0 15,-12 -2,-20 -17,-8 -62,-38 -62,-38l7 75c0,0 8,5 -8,10 -17,5 -22,-2 -22,-2l0 0zm-148 282l0 0c0,0 -2,-18 10,-18 12,0 53,2 53,2 0,0 -7,5 -5,18 2,13 0,120 0,120l-97 109c0,0 8,-10 2,-20 -7,-10 -53,-65 -53,-65 0,0 57,33 70,27 13,-7 15,-30 15,-30l5 -142zm-137 -139l0 0 -87 -30 0 -20 122 43c0,0 12,0 13,-7 2,-7 -25,-105 -25,-105 0,0 45,23 59,42 13,18 25,45 10,64 -15,18 -22,17 -22,17l117 37 5 -18c0,0 36,33 32,38 -3,5 -156,-52 -156,-52 0,0 -13,0 -12,18 2,18 -3,70 -3,70l75 27 -2 8 -64 -22c0,0 -13,0 -17,22 -3,22 -27,117 -59,140 -32,23 -75,43 -75,43 0,0 64,-79 74,-159 10,-80 13,-157 13,-157l0 0zm-355 -276l0 0 0 490 48 -40c0,0 13,-12 23,-8 10,3 30,8 30,8l3 -12 -35 -10c0,0 -12,5 -10,-13 2,-18 0,-160 0,-160 0,0 10,-8 20,-5 10,3 114,38 114,38 0,0 12,3 12,28l0 132 -85 -23 0 11 50 17c0,0 15,0 20,13 5,13 3,23 3,23l67 -90 0 -294 -55 0 -144 -40 -62 -65zm67 75l0 0c1,0 1,0 2,0 10,2 122,38 122,38 0,0 15,0 15,23 0,23 2,134 2,134 0,0 5,8 -17,5 -22,-3 -120,-33 -120,-33l-12 -12 0 -147c0,0 0,-9 8,-9l0 0zm-277 4l0 0 0 264c0,0 -5,75 -25,115 -20,40 -35,72 -35,72 0,0 37,-18 62,-47 25,-28 40,-92 40,-92 0,0 2,-13 13,-12 12,2 43,12 43,12 0,0 12,0 12,23l0 92c0,0 3,17 -15,10 -18,-7 -52,-18 -52,-18 0,0 40,33 43,43 3,10 3,27 3,27l72 -90 0 -324 -48 0 -64 -20 -50 -55zm62 64l0 0c2,0 3,0 5,1 8,3 35,13 35,13 0,0 10,2 10,22 0,20 -2,87 -2,87 0,0 2,2 -12,-2 -13,-3 -48,-18 -48,-18l0 -97c0,0 6,-6 12,-6l0 0zm0 119l0 0c2,0 3,0 5,1 8,3 35,13 35,13 0,0 10,2 10,22 0,20 -2,87 -2,87 0,0 2,2 -12,-2 -13,-3 -48,-18 -48,-18l0 -97c0,0 6,-6 12,-6l0 0zm-223 -227l0 0 0 314 -154 -52 0 19 281 96 0 -313 -46 7 -14 -11 -1 11 14 11 0 119c-12,2 -20,-1 -32,-11l0 -123c8,-11 9,-9 -49,-67l0 0zm50 207l0 0c11,2 21,0 32,13l0 115c-13,3 -22,-2 -31,-9l-1 -119zm2967 -1085l0 0c0,0 -192,45 -143,228 49,183 192,102 287,266 95,165 -26,202 -26,202 0,0 210,-44 169,-197 -41,-153 -291,-222 -323,-341 -32,-119 36,-159 36,-159zm59 696l0 0c0,0 -99,-11 -138,-80 -40,-69 -77,-138 -77,-138l0 192c0,0 154,49 172,44 18,-5 44,-18 44,-18zm-5 -683l0 0c0,0 99,11 138,80 40,69 77,138 77,138l0 -192c0,0 -154,-49 -172,-44 -18,5 -44,18 -44,18zm-870 -4l0 0 558 0 18 219c0,0 -50,-129 -115,-166 -65,-38 -131,-18 -131,-18l0 643c0,0 15,54 -26,95 -41,41 -90,105 -90,105l0 -842c0,0 -86,-24 -143,33 -58,58 -100,154 -100,154l28 -221zm-713 0l0 0 248 0 -2 18c0,0 -30,-4 -46,12 -16,16 -19,35 -19,35l0 259 277 0 0 -263c0,0 11,-15 -9,-27 -20,-12 -51,-16 -51,-16l2 -18 246 0c0,0 -4,14 -16,20 -13,5 -54,11 -54,36l0 570c0,0 20,25 34,31 14,5 36,25 36,25l-248 0c0,0 -4,-13 5,-18 9,-5 45,-13 54,-36 9,-24 0,-266 0,-266l-277 0 0 250c0,0 2,25 21,36 19,11 27,5 35,13 8,8 16,22 16,22l-255 0c0,0 0,-18 14,-23 14,-5 37,-7 47,-25 11,-18 0,-563 0,-563 0,0 8,-29 -18,-43 -26,-15 -42,-11 -42,-11l0 -16zm-263 382l0 0 205 0 0 177 -40 36c0,0 -87,101 -208,101 -121,0 -192,-54 -243,-105 -51,-51 -87,-132 -87,-237 0,-105 43,-215 89,-261 45,-45 110,-109 230,-109 119,0 253,103 253,103l0 158 -24 -24c0,0 -5,-91 -62,-133 -58,-42 -100,-67 -163,-67 -63,0 -135,44 -159,136 -24,91 -34,107 -34,203 0,96 56,210 74,228 18,18 63,72 123,72 60,0 119,-38 119,-38l5 -156c0,0 2,-24 -25,-45 -27,-22 -56,-27 -56,-27l4 -13zm-668 300l0 0c0,0 7,-22 22,-25 14,-4 24,5 34,-18 11,-24 0,-545 0,-545l121 -139 0 655c0,0 2,25 20,36 18,11 40,11 43,18 4,7 5,18 5,18l-246 0zm-696 -682l0 0 166 0 376 492 0 -376c0,0 -8,-37 -40,-60 -32,-23 -68,-36 -68,-36l-3 -19 253 0 0 19c0,0 -63,8 -79,38 -17,31 -28,51 -28,51l-6 574 -49 0c0,0 -467,-640 -484,-653 -17,-13 -29,-14 -29,-14l-10 -15zm1 682l0 0c0,0 99,-38 99,-111 0,-73 0,-247 0,-247l23 36c0,0 13,15 13,38 0,23 0,163 0,163 0,0 -3,40 32,60 36,20 54,23 54,23l28 16 1 22 -250 0zm-650 0l0 0c0,0 13,-27 35,-28 22,-1 51,-3 51,-36 0,-33 0,-556 0,-556 0,0 -1,-19 -24,-31 -23,-12 -58,-12 -58,-12l0 -20 268 0 -5 20c0,0 -62,4 -62,50 0,46 0,248 0,248 0,0 58,-18 100,-64 42,-46 154,-174 154,-174 0,0 22,-20 0,-44 -22,-23 -58,-19 -58,-19l0 -19 215 0c0,0 -41,14 -64,42 -23,28 -213,241 -213,252 0,12 183,338 207,351 24,13 55,38 55,38l-178 0 -184 -329c0,0 -5,-13 -20,-13 -15,0 -17,12 -17,12l0 271c0,0 23,33 46,33 23,0 41,26 41,26l-288 0zm-635 -668l0 0c0,0 82,5 82,77l0 786 90 -120c0,0 20,-10 20,-82l0 -604c0,0 10,-41 41,-38 31,3 149,-13 151,118 3,131 -115,182 -115,182l-36 3 -13 31c0,0 15,-23 36,18 20,41 169,300 169,300l174 0c0,0 0,-15 -18,-20 -18,-5 -31,-3 -46,-19 -15,-17 -180,-310 -180,-310 0,0 157,-55 157,-148 0,-93 -36,-184 -219,-184l-294 0 1 14zm-475 304l0 0 85 -145c0,0 14,-20 24,10 9,30 81,198 81,198l-208 0 -19 34 236 0 73 168c0,0 24,51 -14,71 -38,20 -43,28 -43,28l259 0c0,0 -30,-21 -36,-28 -6,-7 -292,-654 -292,-654l-145 319zm-125 291l0 0c-28,37 -94,74 -94,74l264 0 -25 -25c0,0 -51,9 -69,-38 -18,-47 -9,-157 -9,-157 -15,50 -31,98 -67,146z"/>
 </g>
</svg>
