<?xml version="1.0" encoding="UTF-8"?>
<!DOCTYPE svg PUBLIC "-//W3C//DTD SVG 1.1//EN" "http://www.w3.org/Graphics/SVG/1.1/DTD/svg11.dtd">
<!-- Creator: CorelDRAW 2017 -->
<svg xmlns="http://www.w3.org/2000/svg" xml:space="preserve" width="210mm" height="297mm" version="1.1" style="shape-rendering:geometricPrecision; text-rendering:geometricPrecision; image-rendering:optimizeQuality; fill-rule:evenodd; clip-rule:evenodd"
viewBox="0 0 21000 29700"
 xmlns:xlink="http://www.w3.org/1999/xlink">
 <defs>
  <style type="text/css">
   <![CDATA[
    .fil0 {fill:black;fill-rule:nonzero}
   ]]>
  </style>
 </defs>
 <g id="Layer_x0020_1">
  <metadata id="CorelCorpID_0Corel-Layer"/>
  <g id="_2415832346640">
   <g>
    <path class="fil0" d="M3276 4937l0 125 1460 0 0 -125 -1460 0zm456 24l0 0 2 0 25 61c2,5 4,8 6,10 2,1 4,2 7,2l2 0c3,0 5,-1 7,-3 1,-1 1,-4 1,-8l0 -47c0,-5 -1,-7 -2,-9 -1,-2 -3,-2 -6,-2l-3 0 0 -2 27 0c8,0 13,1 17,2 4,1 7,3 9,6 3,3 4,7 4,11 0,4 -1,8 -4,12 -3,3 -7,6 -14,7l15 21c3,5 6,8 9,10 2,2 6,3 10,3l0 0c3,0 5,-1 7,-3 1,-1 1,-4 1,-8l0 -47c0,-4 0,-6 -1,-7 0,-1 -1,-2 -2,-2 -2,-1 -3,-1 -5,-1l-3 0 0 -2 31 0 0 2 -2 0c-2,0 -3,0 -5,1 -1,1 -2,1 -2,3 0,1 -1,4 -1,7l0 22c1,-1 3,-3 7,-7 11,-10 17,-16 19,-20 1,-1 1,-3 1,-4 0,-1 0,-2 -1,-2 -1,-1 -2,-1 -4,-1l-2 0 0 -2 27 0 0 2c-2,0 -3,0 -4,1 -1,0 -3,1 -5,2 -2,1 -4,3 -7,5 -1,1 -4,4 -11,11l-11 11 27 27c4,4 8,7 11,9 3,2 6,2 9,3l1 0c3,0 5,-1 7,-3 1,-1 1,-4 1,-8l0 -51c-2,-2 -4,-4 -5,-5 -1,-1 -3,-2 -5,-2 -1,0 -3,0 -5,0l0 -2 20 0 45 55 0 -42c0,-4 -1,-7 -2,-8 -1,-2 -3,-2 -6,-2l-3 0 0 -2 25 0 0 2 -3 0c-3,0 -5,1 -7,3 -1,1 -1,4 -1,8l0 61 -2 0 -48 -59 0 45c0,4 0,7 1,8 1,2 3,2 6,2l3 0 0 2 -24 0 -35 0 0 -2c2,0 4,0 4,-1 1,-1 1,-2 1,-2 0,-1 0,-2 -1,-2 0,-1 -1,-2 -3,-4l-25 -25 0 23c0,4 0,6 1,7 0,1 1,2 2,2 2,1 3,1 5,1l2 0 0 2 -29 0 -19 0 -25 -34c-2,0 -3,0 -4,0l-2 0c-1,0 -1,0 -2,0l0 21c0,5 1,7 2,9 1,2 3,2 6,2l3 0 0 2 -31 0 -29 0 0 -2c3,0 5,-1 6,-1 1,-1 2,-2 2,-3 0,-2 -1,-4 -2,-7l-4 -10 -28 0 -5 12c-1,3 -2,5 -2,6 0,1 1,2 2,3 1,1 3,1 7,2l0 2 -23 0 0 -2c3,-1 5,-1 6,-2 2,-2 4,-5 6,-10l26 -60zm336 0l0 0c3,0 5,0 7,1 2,0 5,1 9,3 2,1 3,1 4,1 1,0 1,0 2,-1 1,-1 1,-2 1,-4l2 0 2 23 -2 0c-2,-6 -4,-10 -7,-13 -4,-4 -10,-6 -17,-6 -9,0 -16,4 -21,11 -4,6 -6,14 -6,22 0,7 1,13 4,19 3,6 6,10 11,13 4,3 9,4 13,4 3,0 5,0 8,-1 3,-1 5,-2 7,-3l0 -21c0,-4 0,-6 -1,-7 -1,-1 -1,-2 -3,-3 -1,-1 -3,-1 -6,-1l0 -2 28 0 0 2 -1 0c-3,0 -5,1 -6,3 -1,1 -1,4 -1,8l0 22c-4,2 -8,4 -12,5 -4,1 -8,2 -13,2 -14,0 -25,-5 -32,-14 -5,-7 -8,-15 -8,-23 0,-6 2,-13 5,-18 4,-7 9,-12 15,-16 5,-3 12,-5 19,-5l0 0zm202 0l0 0c4,0 8,1 12,3 2,1 3,1 4,1 1,0 2,0 2,-1 1,-1 1,-2 1,-3l2 0 0 25 -2 0c-1,-5 -2,-9 -4,-12 -2,-3 -4,-5 -7,-7 -3,-2 -6,-3 -10,-3 -4,0 -7,1 -9,3 -2,2 -4,5 -4,8 0,2 1,4 2,6 2,3 8,6 16,11 7,4 11,6 14,8 3,2 4,4 6,7 1,3 2,5 2,8 0,6 -2,10 -6,14 -4,4 -10,6 -17,6 -2,0 -4,0 -6,0 -1,0 -3,-1 -7,-2 -3,-1 -6,-2 -7,-2 -1,0 -2,0 -2,1 -1,1 -1,2 -1,3l-2 0 0 -25 2 0c1,5 2,9 4,12 2,3 4,5 7,6 3,2 7,3 11,3 4,0 8,-1 11,-4 3,-2 4,-5 4,-8 0,-2 -1,-4 -2,-5 -1,-2 -2,-4 -5,-5 -1,-1 -5,-3 -11,-7 -6,-4 -11,-6 -13,-8 -3,-2 -5,-4 -6,-7 -1,-3 -2,-5 -2,-8 0,-5 2,-10 6,-14 4,-4 9,-6 15,-6l0 0zm-275 2l0 0 31 0 0 2 -3 0c-3,0 -5,1 -7,3 -1,1 -1,4 -1,8l0 47c0,4 0,6 1,7 0,1 1,2 2,2 2,1 3,1 5,1l3 0 0 2 -31 0 0 -2 3 0c3,0 5,-1 7,-3 1,-1 1,-4 1,-8l0 -47c0,-4 0,-6 -1,-7 0,-1 -1,-2 -2,-2 -2,-1 -3,-1 -5,-1l-3 0 0 -2zm109 0l0 0 31 0 0 2 -3 0c-2,0 -3,0 -5,1 -1,1 -2,1 -2,3 0,1 -1,4 -1,7l0 21 34 0 0 -21c0,-4 0,-6 -1,-7 0,-1 -1,-2 -2,-2 -2,-1 -3,-1 -5,-1l-3 0 0 -2 31 0 0 2 -3 0c-2,0 -3,0 -5,1 -1,1 -2,1 -2,3 0,1 -1,4 -1,7l0 47c0,4 0,6 1,7 0,1 1,2 2,2 2,1 3,1 5,1l3 0 0 2 -31 0 0 -2 3 0c3,0 5,-1 7,-3 1,-1 1,-4 1,-8l0 -22 -34 0 0 22c0,4 0,6 1,7 0,1 1,2 2,2 2,1 3,1 5,1l3 0 0 2 -31 0 0 -2 3 0c3,0 5,-1 7,-3 1,-1 1,-4 1,-8l0 -47c0,-4 0,-6 -1,-7 0,-1 -1,-2 -2,-2 -2,-1 -3,-1 -5,-1l-3 0 0 -2zm78 0l0 0 60 0 1 17 -2 0c0,-3 -1,-5 -2,-6 -1,-2 -3,-4 -4,-5 -2,-1 -4,-2 -7,-2l-10 0 0 56c0,4 0,7 1,8 1,2 3,2 6,2l3 0 0 2 -31 0 0 -2 3 0c3,0 5,-1 7,-3 1,-1 1,-4 1,-8l0 -56 -9 0c-3,0 -6,0 -7,1 -2,1 -3,2 -5,4 -1,2 -2,5 -2,8l-2 0 1 -17zm-381 4l0 0c-2,0 -5,0 -8,1l0 30c1,0 1,0 2,0l1 0c7,0 12,-2 16,-5 4,-3 5,-7 5,-12 0,-5 -1,-8 -4,-11 -3,-3 -7,-4 -11,-4l0 0zm-71 11l0 0 -13 29 25 0 -12 -29zm-194 28l0 0 33 0 0 10 -33 0 0 -10zm890 0l0 0 33 0 0 10 -33 0 0 -10zm443 -797l0 0c0,0 49,73 59,129 10,56 17,125 52,115 35,-10 80,-38 63,-90 -17,-52 -28,-66 -52,-83 -24,-17 -122,-70 -122,-70zm0 -317l0 0c0,0 49,73 59,129 10,56 17,125 52,115 35,-10 80,-38 63,-90 -17,-52 -28,-66 -52,-83 -24,-17 -122,-70 -122,-70zm379 233l0 0 0 38 313 101 0 -42 -313 -97zm-431 -313l0 0 -83 -104 0 355c0,0 7,35 -24,28 -31,-7 -76,-28 -76,-28l3 28 73 28c0,0 35,0 28,49 -7,49 -3,202 -42,282 -38,80 -45,108 -45,108 0,0 97,-56 118,-90 21,-35 52,-118 59,-149 7,-31 3,-136 3,-136 0,0 0,-35 42,-21 42,14 222,80 222,80 0,0 14,-7 10,52 -3,59 0,257 0,257 0,0 10,24 -35,17 -45,-7 -111,-49 -111,-49 0,0 97,94 101,122 3,28 0,45 0,45l160 -195 0 -573 10 -21 -139 14 17 309 -247 -80c0,0 -31,-7 -31,-49 0,-42 7,-226 7,-226 0,0 10,-24 49,-10 38,14 188,59 188,59l0 -17 -153 -52c0,0 -21,-10 7,-31 28,-21 70,-52 70,-52 0,0 31,-24 -3,-42 -35,-17 -129,-80 -129,-80l14 156c0,0 17,10 -17,21 -35,10 -45,-3 -45,-3zm-337 587l0 0c0,0 -3,-38 21,-38 24,0 111,3 111,3 0,0 -14,10 -10,38 3,28 0,250 0,250l-202 226c0,0 17,-21 3,-42 -14,-21 -111,-136 -111,-136 0,0 118,70 146,56 28,-14 31,-63 31,-63l10 -295zm-285 -288l0 0 -181 -63 0 -42 254 90c0,0 24,0 28,-14 3,-14 -52,-219 -52,-219 0,0 94,49 122,87 28,38 52,94 21,132 -31,38 -45,35 -45,35l243 76 10 -38c0,0 104,70 97,80 -7,10 -355,-108 -355,-108 0,0 -28,0 -24,38 3,38 -7,146 -7,146l156 56 -3 17 -132 -45c0,0 -28,0 -35,45 -7,45 -56,243 -122,292 -66,49 -156,90 -156,90 0,0 132,-163 153,-330 21,-167 28,-327 28,-327zm-768 -573l0 0 0 1018 101 -83c0,0 28,-24 49,-17 21,7 63,17 63,17l7 -24 -73 -21c0,0 -24,10 -21,-28 3,-38 0,-334 0,-334 0,0 21,-17 42,-10 21,7 236,80 236,80 0,0 24,7 24,59l0 275 -176 -47 0 23 103 35c0,0 31,0 42,28 10,28 7,49 7,49l139 -188 0 -612 -115 0 -299 -83 -129 -136zm139 156l0 0c1,0 2,0 4,0 21,3 254,80 254,80 0,0 31,0 31,49 0,49 3,278 3,278 0,0 10,17 -35,10 -45,-7 -250,-70 -250,-70l-24 -24 0 -306c0,0 0,-18 17,-18l0 0zm-577 7l0 0 0 549c0,0 -10,156 -52,240 -42,83 -73,149 -73,149 0,0 76,-38 129,-97 52,-59 83,-191 83,-191 0,0 3,-28 28,-24 24,3 90,24 90,24 0,0 24,0 24,49l0 191c0,0 7,35 -31,21 -38,-14 -108,-38 -108,-38 0,0 83,70 90,90 7,21 7,56 7,56l149 -188 0 -674 -101 0 -132 -42 -104 -115zm129 134l0 0c3,0 6,0 10,2 17,7 73,28 73,28 0,0 21,3 21,45 0,42 -3,181 -3,181 0,0 3,3 -24,-3 -28,-7 -101,-38 -101,-38l0 -202c0,0 11,-11 25,-12l0 0zm0 248l0 0c3,0 6,0 10,2 17,7 73,28 73,28 0,0 21,3 21,45 0,42 -3,181 -3,181 0,0 3,3 -24,-3 -28,-7 -101,-38 -101,-38l0 -202c0,0 11,-11 25,-12l0 0zm-463 -472l0 0 0 654 -319 -108 0 39 585 199 0 -651 -96 15 -30 -22 -2 22 30 22 0 248c-24,5 -41,-2 -66,-23l0 -256c18,-23 19,-19 -101,-139l0 0zm104 431l0 0c22,3 44,1 66,26l0 240c-28,7 -45,-4 -64,-19l-2 -247z"/>
   </g>
  </g>
 </g>
</svg>
