<?xml version="1.0" encoding="UTF-8" standalone="no"?>
<svg
   xmlns:dc="http://purl.org/dc/elements/1.1/"
   xmlns:cc="http://creativecommons.org/ns#"
   xmlns:rdf="http://www.w3.org/1999/02/22-rdf-syntax-ns#"
   xmlns:svg="http://www.w3.org/2000/svg"
   xmlns="http://www.w3.org/2000/svg"
   xmlns:sodipodi="http://sodipodi.sourceforge.net/DTD/sodipodi-0.dtd"
   xmlns:inkscape="http://www.inkscape.org/namespaces/inkscape"
   inkscape:export-ydpi="250.2"
   inkscape:export-xdpi="250.2"
   inkscape:export-filename="D:\Titipan\Projects\Pixiv stuff\SVG\Ark_Babel.png"
   sodipodi:docname="Ark_Babel.svg"
   inkscape:version="1.0 (4035a4fb49, 2020-05-01)"
   id="svg8"
   version="1.1"
   viewBox="0 0 338.66666 338.66668"
   height="1280"
   width="1280">
  <defs
     id="defs2">
    <inkscape:path-effect
       effect="powerstroke"
       id="path-effect892"
       is_visible="true"
       lpeversion="1"
       offset_points="0,3.40217"
       sort_points="true"
       interpolator_type="CubicBezierJohan"
       interpolator_beta="0.2"
       start_linecap_type="zerowidth"
       linejoin_type="extrp_arc"
       miter_limit="4"
       scale_width="1"
       end_linecap_type="zerowidth" />
    <inkscape:path-effect
       effect="powerstroke"
       id="path-effect887"
       is_visible="true"
       lpeversion="1"
       offset_points="0,3.40217"
       sort_points="true"
       interpolator_type="CubicBezierJohan"
       interpolator_beta="0.2"
       start_linecap_type="zerowidth"
       linejoin_type="extrp_arc"
       miter_limit="4"
       scale_width="1"
       end_linecap_type="zerowidth" />
    <inkscape:path-effect
       effect="powerstroke"
       id="path-effect882"
       is_visible="true"
       lpeversion="1"
       offset_points="2.7941224,-3.4021738 | 2.7941224,-3.4021738"
       sort_points="true"
       interpolator_type="CubicBezierJohan"
       interpolator_beta="0.2"
       start_linecap_type="zerowidth"
       linejoin_type="extrp_arc"
       miter_limit="4"
       scale_width="1"
       end_linecap_type="zerowidth" />
    <inkscape:path-effect
       effect="powerstroke"
       id="path-effect877"
       is_visible="true"
       lpeversion="1"
       offset_points="0,3.01003"
       sort_points="true"
       interpolator_type="CubicBezierJohan"
       interpolator_beta="0.2"
       start_linecap_type="zerowidth"
       linejoin_type="extrp_arc"
       miter_limit="4"
       scale_width="1"
       end_linecap_type="zerowidth" />
    <inkscape:path-effect
       effect="powerstroke"
       id="path-effect872"
       is_visible="true"
       lpeversion="1"
       offset_points="0,3.01003"
       sort_points="true"
       interpolator_type="CubicBezierJohan"
       interpolator_beta="0.2"
       start_linecap_type="zerowidth"
       linejoin_type="extrp_arc"
       miter_limit="4"
       scale_width="1"
       end_linecap_type="zerowidth" />
    <inkscape:path-effect
       effect="powerstroke"
       id="path-effect868"
       is_visible="true"
       lpeversion="1"
       offset_points="11.631982,3.0100329"
       sort_points="true"
       interpolator_type="CubicBezierJohan"
       interpolator_beta="0.2"
       start_linecap_type="zerowidth"
       linejoin_type="extrp_arc"
       miter_limit="4"
       scale_width="1"
       end_linecap_type="zerowidth" />
    <inkscape:path-effect
       effect="powerstroke"
       id="path-effect864"
       is_visible="true"
       lpeversion="1"
       offset_points="156.61386,0.938298"
       sort_points="true"
       interpolator_type="CubicBezierJohan"
       interpolator_beta="0.2"
       start_linecap_type="zerowidth"
       linejoin_type="extrp_arc"
       miter_limit="4"
       scale_width="1"
       end_linecap_type="zerowidth" />
  </defs>
  <sodipodi:namedview
     inkscape:pagecheckerboard="false"
     units="px"
     showgrid="false"
     inkscape:document-rotation="0"
     inkscape:current-layer="layer1"
     inkscape:document-units="mm"
     inkscape:cy="662.01731"
     inkscape:cx="620.29691"
     inkscape:zoom="0.67015504"
     inkscape:pageshadow="2"
     inkscape:pageopacity="0"
     borderopacity="1.0"
     bordercolor="#666666"
     pagecolor="#00ff00"
     id="base"
     inkscape:snap-global="false" />
  <metadata
     id="metadata5">
    <rdf:RDF>
      <cc:Work
         rdf:about="">
        <dc:format>image/svg+xml</dc:format>
        <dc:type
           rdf:resource="http://purl.org/dc/dcmitype/StillImage" />
        <dc:title />
      </cc:Work>
    </rdf:RDF>
  </metadata>
  <g
     inkscape:label="Objects"
     id="layer3"
     inkscape:groupmode="layer"
     style="display:inline">
    <path
       id="path854"
       style="display:inline;opacity:1;fill:#000000;fill-opacity:1;stroke-width:13.2283"
       inkscape:transform-center-x="-2.0890134e-05"
       inkscape:transform-center-y="-33.373063"
       d="m 639.80469,261.04688 -438.31055,756.05472 877.20706,-0.3379 z m 0.0566,94.36718 355.98242,615.69727 -711.49219,0.27539 z"
       transform="scale(0.26458333)" />
    <path
       id="path862"
       style="display:inline;fill:#000000;fill-opacity:1;fill-rule:nonzero;stroke:none;stroke-width:13.2283"
       d="m 709.37891,612.4043 1.26367,3.53515 -1.76758,21.97266 -153.54297,58.08203 -23.48633,6.56641 -0.2539,7.82812 -11.86914,5.55664 0.50586,-9.09179 -2.77735,2.52539 -1.01172,8.33398 -4.03906,3.78906 -3.03125,42.17383 24.24414,-9.0918 -4.54687,3.53516 18.68945,-6.3125 5.05078,-13.89062 -0.75781,11.86914 20.70703,0.50586 -73.23633,29.04101 -0.25195,-5.30273 -5.55469,10.10156 -20.70898,8.08203 2.01953,-32.32617 c 0,0 -5.55487,-10.85957 -3.78711,-6.56641 1.76776,4.29313 -8.58594,59.85157 -8.58594,59.85157 l 2.01953,-0.25196 7.82813,-13.88867 0.2539,-3.2832 19.69727,-6.31446 -7.57617,38.38672 -13.13282,1.26172 -5.30273,2.27344 v -4.54492 l -2.01953,-2.02149 -2.52539,-5.05078 -15.4043,51.51758 -3.78906,5.05078 -3.2832,0.50586 -1.76758,2.01953 -1.26172,2.52539 -7.07227,3.78906 -6.3125,17.17188 1.51367,1.26367 13.38477,-2.02148 -2.27148,5.80859 h -21.4668 l -9.0918,27.02148 -3.02929,-1.26171 -1.26368,-26.51758 9.0918,-32.32422 -6.81836,-15.4043 -2.27344,-0.2539 2.52539,4.04101 -0.25195,5.55664 -15.91016,44.69922 -1.76757,-5.30469 6.5664,-20.45507 -14.14257,8.83984 3.78906,-0.25391 -2.02149,3.78907 -4.04101,1.51562 c 0,0 -4.54533,12.12172 -8.58594,19.44531 -4.04061,7.32363 -20.45508,8.08008 -20.45508,8.08008 l 10.10156,0.25391 -11.61718,4.03906 -4.04102,3.53711 h 104.80469 l 3.78711,-2.02149 6.81836,-27.77929 -12.62696,-0.50391 -3.02929,-1.76758 4.29297,-0.75781 0.5039,-2.7793 21.4668,-6.3125 c -1.24059,-2.74432 2.96518,-11.37897 9.92571,-19.66629 5.26412,-6.26753 6.21985,-16.65159 8.00476,-26.04268 -0.78549,32.73454 -11.36602,48.23436 -11.36602,48.23436 h 9.34571 l 2.01953,1.51563 11.36328,-1.26367 0.43359,1.06836 v -80.61719 h 33.58789 c 35.57756,-0.6172 40.57517,32.66843 20.45508,50.00195 7.68484,3.57102 12.2133,11.02002 13.62305,19.37696 l 15.30664,-68.88282 H 610 L 628.09961,901 v -83.28125 h 33.58789 c 35.57756,-0.6172 40.57517,32.66843 20.45508,50.00195 8.46921,3.93551 13.10932,12.57743 13.95703,21.95899 v -71.96094 h 57.57812 v 20.97852 l -32.32421,0.23437 v 18.93945 h 31.31445 v 21.4668 h -31.31445 v 23.48633 h 32.32421 v 21.7168 h -57.57812 v -28.51954 c -1.2923,14.42063 -11.31945,28.51954 -30.11914,28.51954 h -37.88086 v -0.25586 H 607.5 l -2.85742,-20.35743 h -20 l -3.21485,20.35743 h -25.35546 l 2.57617,-11.5918 c -4.99952,6.9612 -13.03076,11.84766 -24.09766,11.84766 h -37.88086 v -17.92969 h -37.05078 l -7.57617,29.54687 489.67187,1.00977 c 0,0 -10.85956,-23.23245 -14.14257,-25.75781 -3.28302,-2.52545 -25.00196,-2.77735 -25.00196,-2.77735 0,0 -2.52383,-8.83964 -4.03906,-10.60742 -0.75365,-0.87926 -4.08682,-4.32518 -15.87695,-10.05273 8.3272,4.74502 9.70063,9.32245 3.09375,5.18945 3.7796,7.46698 5.22229,16.52493 3.90039,16.11914 -6.72769,-2.06521 -8.29102,-22.61914 -8.29102,-22.61914 0,0 -0.25177,-8.83965 -2.01953,-13.13281 -1.76776,-4.29313 -12.12305,-10.10157 -12.12305,-10.10157 l -2.52539,-25.75976 -5.80664,-9.5957 0.3711,37.29687 -3.06641,-3.77344 -0.32617,-15.58789 -4.40821,-6.05859 2.46094,38.97266 c 3.14121,8.30818 6.06163,6.9722 8.53125,14.20898 -9.97368,-4.36838 -14.63274,-11.6614 -18.03711,-19.31445 -1.62588,-16.47388 -2.02834,-33.47464 -4.8457,-49.99414 -0.13476,-0.79019 -5.45284,-1.31034 -8.63477,-4.6875 -0.13409,-0.72252 7.94124,0.87665 7.79688,0.15625 -0.21564,-1.07609 -2.49578,-3.0424 -4.87891,-4.73829 1.99655,-1.19962 3.82169,-0.11427 3.62305,-0.92773 -0.34903,-1.4293 -0.72267,-2.8535 -1.12305,-4.27148 l -8.02148,-7.03907 -3.78711,-28.53711 -7.57617,-8.83984 -1.51563,1.76758 -11.86914,-10.10156 -3.2832,-1.26172 6.31445,5.80859 v 5.30273 l -1.76758,1.00977 2.52539,39.39649 9.59571,11.36328 3.78711,-0.25196 -6.3125,-5.80859 c 0,0 4.54648,-0.75764 5.55664,0 1.01015,0.75761 12.37304,9.34375 12.37304,9.34375 l -31.5664,-0.25195 -17.67774,6.5664 -2.02148,0.10547 v 75.15039 h 27.82897 c 0.31259,-6.25848 20.07183,-1.52539 30.36467,-2.14286 -7.1919,-13.14447 -8.45325,-25.13292 -10.79017,-37.83603 l 1.18242,-1.57735 c 11.53084,35.19624 11.37395,30.20301 12.92455,34.51191 0.86189,2.39504 0.46267,3.59447 1.86558,4.68712 l 1.35811,-2.1443 2.67161,1.92965 2.68854,-1.62592 -1.0056,5.73173 4.56833,-0.93999 -3.68894,-6.16672 -2.68911,-0.89931 -2.26267,-3.55082 2.4784,-2.76572 1.81058,2.44449 2.53692,-0.86756 3.85317,12.60011 -0.85711,7.10526 -6.44604,-5.65606 -4.19742,0.71532 2.78714,4.39139 -1.13563,0.58104 -4.39691,-4.56455 -31.64861,0.46301 v 17.04296 H 755.8457 V 817.71875 h 25.25391 v 0.92969 l 15.40625,-6.73828 c 0,0 -9.84943,-82.8324 -11.61719,-79.29688 -15.7203,10.12687 -32.30311,19.58493 -50.31445,28.28906 -1.60422,0.7753 -9.7846,11.89898 -15.70508,15.56641 -0.23509,-4.45372 7.92714,-11.89408 6.44727,-11.21875 -54.42074,24.83357 -122.02363,43.02626 -217.22657,52.41797 1.06965,-2.16975 10.31504,-5.24758 20.53125,-6.7832 13.25435,-1.99231 18.54983,-1.69216 34.56055,-4.96485 118.79955,-32.0222 151.53008,-50.8239 191.75586,-72.67773 l -0.10156,-1.89258 -8.83789,-4.54492 v -28.53711 l -2.02149,-3.78711 -0.25195,-3.53711 6.56641,4.04102 1.00976,24.75 13.13281,9.08984 c 0,0 0.25235,-38.89082 -0.75781,-42.17383 -1.01015,-3.28301 -6.31445,-3.78711 -6.31445,-3.78711 l -1.26172,-35.10351 -1.76758,0.2539 c 0,0 2.52538,1.26089 -2.52539,25.25195 -5.05073,23.99112 -99.5,52.5293 -99.5,52.5293 l -3.2832,0.50391 0.75781,-2.77735 59.85156,-24.74804 1.76758,-52.27539 1.76758,35.85937 11.61719,-6.81836 1.26172,19.19336 6.31445,-4.54492 -1.01172,-22.47656 -3.0293,1.51562 1.51563,20.20313 -2.02149,2.01953 -2.52539,-63.38672 -1.51562,4.29297 -7.82813,2.77734 -0.50586,-16.41406 z m -81.2793,311.88086 h 0.11523 m -62.85742,-166.42774 -0.625,2.41016 c -8.36332,2.81768 -17.17032,6.15385 -24.19531,7.41015 4.33765,-3.58842 14.69684,-6.69476 24.82031,-9.82031 z m 141.86524,20.07813 c 0.7508,-0.0712 0.90397,0.65456 1.08007,1.34961 -7.55371,5.35189 -10.05092,5.64728 -12.23046,5.625 1.75534,-2.50016 5.84456,-4.57597 10.17773,-6.60743 0.40624,-0.2317 0.72239,-0.34344 0.97266,-0.36718 z m -182.85157,57.85351 c -1.46787,-0.0199 -2.44726,0.11133 -2.44726,0.11133 v 23.48633 c 0,0 15.6582,2.37125 15.6582,-11.61719 0,-10.49134 -8.80731,-11.92077 -13.21094,-11.98047 z m 131.42774,0 c -1.46788,-0.0199 -2.44531,0.11133 -2.44531,0.11133 v 23.48633 c 0,0 15.65625,2.37125 15.65625,-11.61719 0,-10.49134 -8.80732,-11.92077 -13.21094,-11.98047 z m -61.15625,4.56836 -6.42774,44.28516 h 13.92774 z m 213.35351,6.15039 15.65625,17.04688 c -0.15207,0.7219 0.61152,2.20686 -1.38867,1.38867 l -14.89844,-16.54102 z m -286.07226,31.56641 v 27.27539 c 10.77694,0 17.93164,-3.34734 17.93164,-13.63672 0,-10.28943 -7.00223,-13.63867 -17.93164,-13.63867 z m 131.42969,0 v 27.27539 c 10.77695,0 17.92968,-3.34734 17.92968,-13.63672 0,-10.28943 -7.00027,-13.63867 -17.92968,-13.63867 z m 223.08007,32.57812 3.28321,1.38868 0.12695,1.51562 h -6.56641 v -1.76758 z m 17.04688,4.54493 c 0,0 11.50303,1.71382 15.53125,4.79882 4.02826,3.08501 7.57617,11.9961 7.57617,11.9961 l -7.07227,0.25195 c -4.4414,-8.103 -10.01042,-10.84789 -15.7832,-12.62695 z"
       transform="scale(0.26458333)"
       sodipodi:nodetypes="cccccccccccccccccccccccscccccccccccccccccccccccccccccccccccccsccccccccccccsccccccccccccccccccccccccccccccsccccccccscccccscsccscsccccccccccscscsccccccccccccccscccccccccscccccccccccccccccccccccccccscccsccccccccccscccsccccccccccccccccccccccccscccssccsssccsscccccccccccscccsccccccccscccc" />
    <path
       style="fill:#000000;fill-opacity:1;fill-rule:nonzero;stroke:none;stroke-width:3.49999"
       d="m 143.91444,170.93973 c 19.95739,-10.3291 23.59572,-12.75164 39.593,-18.04836 0.13103,0.0675 0.28595,0.19566 0.37326,0.43872 0.0345,0.0961 0.36117,-0.008 2.53925,-0.90378 -2.43136,1.20755 -2.34669,1.45452 -2.32503,1.58799 0.5846,3.60265 -0.77647,14.09061 -0.77647,14.09061 -11.19263,6.15647 -11.95708,3.46031 -32.62119,12.96429 0.43021,-3.41168 1.28874,-4.26793 0.60165,-5.78147 -0.9088,3.72084 -1.93304,5.53472 -2.13607,6.43933 -1.12523,0.52648 -2.30632,1.08746 -3.54752,1.68589 l 0.0945,-2.07888 -2.26786,0.66146 c 0.37944,-4.44041 1.35534,-9.44803 0.47248,-11.0558 z"
       id="path866"
       inkscape:path-effect="#path-effect868"
       inkscape:original-d="m 143.91444,170.93973 c 19.95739,-10.3291 23.59572,-12.75164 39.593,-18.04836 0.13103,0.0675 0.28595,0.19566 0.37326,0.43872 0.0345,0.0961 0.36117,-0.008 2.53925,-0.90378 -2.43136,1.20755 -2.34669,1.45452 -2.32503,1.58799 0.5846,3.60265 -0.77647,14.09061 -0.77647,14.09061 -11.19263,6.15647 -11.95708,3.46031 -32.62119,12.96429 0.43021,-3.41168 1.28874,-4.26793 0.60165,-5.78147 -0.9088,3.72084 -1.93304,5.53472 -2.13607,6.43933 -1.12523,0.52648 -2.30632,1.08746 -3.54752,1.68589 l 0.0945,-2.07888 -2.26786,0.66146 c 0.37944,-4.44041 1.35534,-9.44803 0.47248,-11.0558 z"
       sodipodi:nodetypes="ccscscccccccc" />
    <path
       id="path914"
       style="fill:#000000;fill-opacity:1;stroke:none;stroke-width:13.2283"
       d="m 640.31836,430.29688 -1.24024,0.43164 -1.17382,30.56445 -2.71485,1.92383 0.0859,2.81836 -1.99219,-0.4961 -2.33008,1.59961 -0.21093,20.36914 -3.13867,-0.0879 -0.4668,-2.61914 -4.13477,7.18164 0.0606,11.59961 -3.43555,0.0469 -0.0605,-7.45899 -4.28125,9.9082 -3.83594,-0.98046 2.97851,2.41406 -1.45507,2.38672 -1.81836,32.15039 -7.41602,2.88281 -0.3418,9.17383 c -0.61606,1.84093 -1.31884,3.6379 -4.57226,4.16015 l 0.48437,-12.51562 -4.73242,-1.6875 -0.41601,13.78125 -2.12891,1.96875 0.41602,-13.25195 -6.04102,7.43359 -1.1543,10.96484 -2.15429,2.78125 -1.32422,-2.71093 0.33984,-6.2168 -1.86523,-0.125 -1.65625,9.64062 -3.37696,26.4336 5.84375,-6.00781 2.6211,-0.80274 -11.45508,14.34766 -5.73438,26.96875 L 580,622.5 583.21484,617.14258 586.07227,620 c 24.64512,-15.0339 45.75068,-24.08715 73.28125,-34.17773 3.47463,-3.41409 7.99631,-4.61041 13.15234,-4.74024 6.06724,-2.15747 12.46515,-4.4039 19.2793,-6.79687 -5.36795,-4.9101 -2.24927,-19.34645 -5.19141,-32.58594 l -4.46289,0.24805 c -0.29669,-7.58578 1.11131,-23.48076 -0.63672,-37.20313 -1.66953,17.0468 1.19141,12.73083 -36.51758,31.125 l -2.25586,-2.98633 12.58008,-8.41601 -0.45117,-18.86914 -1.97266,-5.59766 -2.73242,-34.33203 -4.59765,-8.67774 -0.70508,10.27735 -2.24219,3.16601 -1.56055,-6.08007 z m -12.63477,58.74414 2.14649,0.63086 0.25195,4.54492 -1.51562,3.91406 -1.51368,-1.89258 -0.63281,-5.80859 z m 3.15625,10.35351 2.9043,4.16602 -1.51562,34.09375 -3.91407,-4.16797 z m -12.24804,6.3125 3.53515,0.88477 -1.64062,10.98437 -1.51563,-0.25195 z m 20.96093,30.43164 0.37891,1.38867 -10.98633,8.83985 -1.51367,-1.51563 1.76758,-3.41015 0.75781,1.00976 z m -8.20703,15.15235 0.25196,9.9746 -9.59571,12.24805 1.00977,-6.1875 4.92383,-6.81836 -0.125,-5.05078 z m -12.62695,1.26171 -0.12695,2.14649 -9.84766,6.5664 -1.26367,-0.25195 v -0.75781 z m -16.28906,8.08204 -0.88477,3.53515 0.12696,5.55664 -10.22852,10.10156 -1.76758,-0.75781 0.25391,-1.89453 7.44922,-7.82812 0.63086,-6.43946 1.51562,-1.89453 z"
       transform="scale(0.26458333)" />
    <path
       style="fill:#000000;fill-opacity:1;stroke:none;stroke-width:3.49999"
       d="m 173.93992,139.00074 v -0.44884 l -0.42523,-0.11812 0.0709,-0.44885 0.30711,-0.18899 -0.14174,-4.20498 0.14174,-0.33073 -0.11812,-0.87407 1.13393,0.77957 -1.11031,-2.57496 0.66146,0.25986 2.05525,2.83482 0.3071,3.63802 0.21262,0.30711 0.61421,-0.37798 0.0945,-8.59896 -0.16536,-1.1103 0.68508,0.89769 0.28348,3.11831 0.68508,-0.44885 -0.28348,0.85045 0.16537,4.91369 -5.2208,2.29148 z"
       id="path932" />
  </g>
  <g
     style="display:none;opacity:0.38"
     id="layer1"
     inkscape:groupmode="layer"
     inkscape:label="Layer 1"
     sodipodi:insensitive="true" />
</svg>
