<?xml version="1.0" encoding="UTF-8" standalone="no"?>
<svg
   xmlns:dc="http://purl.org/dc/elements/1.1/"
   xmlns:cc="http://creativecommons.org/ns#"
   xmlns:rdf="http://www.w3.org/1999/02/22-rdf-syntax-ns#"
   xmlns:svg="http://www.w3.org/2000/svg"
   xmlns="http://www.w3.org/2000/svg"
   xmlns:sodipodi="http://sodipodi.sourceforge.net/DTD/sodipodi-0.dtd"
   xmlns:inkscape="http://www.inkscape.org/namespaces/inkscape"
   inkscape:export-ydpi="250.2"
   inkscape:export-xdpi="250.2"
   inkscape:export-filename="D:\Titipan\Projects\Pixiv stuff\SVG\Ark_Follower.png"
   width="1280"
   height="1280"
   viewBox="0 0 338.66666 338.66668"
   version="1.1"
   id="svg8"
   inkscape:version="1.0 (4035a4fb49, 2020-05-01)"
   sodipodi:docname="Ark_Glasglow.svg">
  <defs
     id="defs2">
    <inkscape:path-effect
       end_linecap_type="zerowidth"
       scale_width="1"
       miter_limit="4"
       linejoin_type="extrp_arc"
       start_linecap_type="zerowidth"
       interpolator_beta="0.2"
       interpolator_type="CubicBezierJohan"
       sort_points="true"
       offset_points="0,3.40217"
       lpeversion="1"
       is_visible="true"
       id="path-effect892"
       effect="powerstroke" />
    <inkscape:path-effect
       end_linecap_type="zerowidth"
       scale_width="1"
       miter_limit="4"
       linejoin_type="extrp_arc"
       start_linecap_type="zerowidth"
       interpolator_beta="0.2"
       interpolator_type="CubicBezierJohan"
       sort_points="true"
       offset_points="0,3.40217"
       lpeversion="1"
       is_visible="true"
       id="path-effect887"
       effect="powerstroke" />
    <inkscape:path-effect
       end_linecap_type="zerowidth"
       scale_width="1"
       miter_limit="4"
       linejoin_type="extrp_arc"
       start_linecap_type="zerowidth"
       interpolator_beta="0.2"
       interpolator_type="CubicBezierJohan"
       sort_points="true"
       offset_points="2.7941224,-3.4021738 | 2.7941224,-3.4021738"
       lpeversion="1"
       is_visible="true"
       id="path-effect882"
       effect="powerstroke" />
    <inkscape:path-effect
       end_linecap_type="zerowidth"
       scale_width="1"
       miter_limit="4"
       linejoin_type="extrp_arc"
       start_linecap_type="zerowidth"
       interpolator_beta="0.2"
       interpolator_type="CubicBezierJohan"
       sort_points="true"
       offset_points="0,3.01003"
       lpeversion="1"
       is_visible="true"
       id="path-effect877"
       effect="powerstroke" />
    <inkscape:path-effect
       end_linecap_type="zerowidth"
       scale_width="1"
       miter_limit="4"
       linejoin_type="extrp_arc"
       start_linecap_type="zerowidth"
       interpolator_beta="0.2"
       interpolator_type="CubicBezierJohan"
       sort_points="true"
       offset_points="0,3.01003"
       lpeversion="1"
       is_visible="true"
       id="path-effect872"
       effect="powerstroke" />
    <inkscape:path-effect
       end_linecap_type="zerowidth"
       scale_width="1"
       miter_limit="4"
       linejoin_type="extrp_arc"
       start_linecap_type="zerowidth"
       interpolator_beta="0.2"
       interpolator_type="CubicBezierJohan"
       sort_points="true"
       offset_points="11.631982,3.0100329"
       lpeversion="1"
       is_visible="true"
       id="path-effect868"
       effect="powerstroke" />
    <inkscape:path-effect
       end_linecap_type="zerowidth"
       scale_width="1"
       miter_limit="4"
       linejoin_type="extrp_arc"
       start_linecap_type="zerowidth"
       interpolator_beta="0.2"
       interpolator_type="CubicBezierJohan"
       sort_points="true"
       offset_points="156.61386,0.938298"
       lpeversion="1"
       is_visible="true"
       id="path-effect864"
       effect="powerstroke" />
  </defs>
  <sodipodi:namedview
     inkscape:snap-bbox-midpoints="false"
     inkscape:snap-bbox="false"
     inkscape:snap-midpoints="true"
     inkscape:guide-bbox="true"
     showguides="true"
     inkscape:snap-global="false"
     id="base"
     pagecolor="#910000"
     bordercolor="#666666"
     borderopacity="1.0"
     inkscape:pageopacity="0"
     inkscape:pageshadow="2"
     inkscape:zoom="0.49497475"
     inkscape:cx="360.10435"
     inkscape:cy="664.03192"
     inkscape:document-units="mm"
     inkscape:current-layer="layer3"
     inkscape:document-rotation="0"
     showgrid="false"
     units="px"
     inkscape:pagecheckerboard="false" />
  <metadata
     id="metadata5">
    <rdf:RDF>
      <cc:Work
         rdf:about="">
        <dc:format>image/svg+xml</dc:format>
        <dc:type
           rdf:resource="http://purl.org/dc/dcmitype/StillImage" />
        <dc:title></dc:title>
      </cc:Work>
    </rdf:RDF>
  </metadata>
  <g
     style="display:inline"
     inkscape:groupmode="layer"
     id="layer3"
     inkscape:label="Objects">
    <path
       sodipodi:nodetypes="cssssscccccsscccccssscscccccscccscscccccccsccscc"
       id="path2959"
       d="m 141.38558,104.23511 c 10.35104,-0.74463 10.67771,9.24806 11.02487,12.96258 0,0 0.6483,1.84445 1.26953,1.87088 1.42415,0.0606 2.85458,-0.10275 4.27631,0 5.25278,0.37962 10.36972,2.37077 15.63527,2.2718 3.9397,-0.074 7.71173,-1.68707 11.62622,-2.13816 2.55845,-0.29483 7.71741,-0.3675 7.71741,-0.3675 -0.27477,-10.63945 3.20585,-15.13745 10.32328,-14.46596 -1.66757,-3.39393 -4.46735,-4.01948 -6.58151,-1.30294 l -0.95754,-0.64902 c 0.15321,-3.606649 -5.52488,-2.608521 -4.22081,1.41742 3.11065,-3.66472 3.47907,5.00434 -1.20271,3.60814 -5.81338,-1.73366 -2.45507,-5.99959 -1.87089,-5.07812 1.43212,2.25899 1.5748,0.55293 2.00453,-1.20271 -0.92738,-1.34846 -1.69817,-1.538831 -3.20724,-0.53454 0.54676,-2.426233 0.47983,-3.711835 -1.06908,-5.345395 -1.90987,0.60589 -2.29419,2.13948 -2.13815,4.009043 -3.17612,-0.56567 -3.12785,-0.280403 -3.60814,2.138152 4.59847,-0.72229 2.53302,3.53418 1.46998,3.87541 -2.85689,0.91703 -4.34797,1.12677 -6.24743,-2.03792 -0.78856,-1.31383 -1.48285,-5.161822 1.23613,-2.63929 1.56493,1.45186 1.68749,-3.833783 -2.33861,-4.276317 -0.13099,-3.342035 -2.7215,-8.22635 0.53454,-6.1472 2.23665,1.428217 7.14452,-1.968603 2.27179,-2.939962 -1.1213,3.811534 -1.74278,-0.447059 -3.4745,0.267269 -0.95678,1.604829 -2.594,1.261607 -4.30077,0.641587 l -0.176,-1.309761 -1.26953,-0.133636 c -1.00274,0.777807 -1.87881,3.831663 1.0376,3.224014 4.64022,-0.966813 1.44973,0.784107 1.40124,6.564734 -3.62035,1.097346 -3.91561,2.519836 -2.70611,4.510172 1.94433,-1.204825 1.43039,-1.68577 3.0736,1.33635 -0.74797,2.31593 -1.42926,3.03968 -3.20723,3.60814 -1.78523,0.57079 -3.84627,0.21488 -5.57926,-1.87089 -0.56051,-0.97138 -0.55833,-2.4521 1.00227,-2.57247 2.81228,-0.21691 1.67304,-1.783466 -0.63477,-2.372018 -1.43854,0.386587 -1.61614,0.4802 -1.30294,-1.503389 l -1.50339,0.434311 c -0.86142,-0.947348 -1.60448,-0.337501 -2.47224,0.367496 2.19043,3.53043 0.045,0.843936 -1.5368,1.63703 -0.92277,1.29954 -0.59117,2.40314 0.13363,3.34087 2.38163,-2.58756 2.34326,0.0201 2.13816,1.46998 -0.99959,1.98905 -1.97718,2.36603 -3.20724,2.53906 -1.5434,0.2171 -2.68682,-0.83665 -3.60814,-2.40543 0.63026,-2.01954 1.10019,-1.72123 2.53907,-1.33634 0.61979,-1.07351 -0.62544,-3.08837 -1.06908,-3.20724 -2.04644,-0.548341 -2.538,0.10582 -4.40995,2.80633 -2.02701,-3.1024 -3.84087,-2.21202 -6.81537,0.93544 z"
       style="fill:#000000;fill-opacity:1;stroke:none;stroke-width:3.49999" />
    <path
       transform="scale(0.26458333)"
       d="m 371.78516,470.35742 c 0,0 -8.9283,11.42747 -17.14258,13.57031 -8.21429,2.14288 -16.78516,-0.71289 -16.78516,-0.71289 L 348.21484,490 c 0,0 -3.214,6.78655 -7.14257,8.57227 -3.92857,1.78571 -12.14454,-1.07227 -12.14454,-1.07227 0,0 8.21429,6.07228 10,13.57227 1.78572,7.50001 -3.57031,12.5 -3.57031,12.5 0,0 5.71456,-0.71485 7.85742,-0.71485 2.14285,0 0.71457,4.99888 2.85743,13.57031 2.14286,8.57141 20.71428,23.57281 22.5,29.28711 1.78571,5.71427 0.54715,14.68621 -6.59571,14.50782 -7.14285,-0.17859 -27.65902,-28.5159 -27.98633,-25.01368 -0.41841,4.47693 2.79493,22.64844 2.79493,22.64844 -0.23479,0.11739 -29.06057,-5.47012 -42.14258,-18.21484 -14.1902,-13.82434 -23.21345,-36.42885 -23.92774,-32.85742 -0.71429,3.57142 1.07032,16.42968 1.07032,16.42968 0,0 6.07226,21.07003 16.07226,33.21289 10,12.14287 27.85659,15.71429 31.78516,17.5 3.92856,1.78572 3.92939,6.42939 3.57226,8.57227 -0.35715,2.14284 -15,-1.42773 -15,-1.42773 l -1.55078,6.91406 c 0,0 49.40821,16.01984 49.40821,25.9414 0,4.42923 -15.35743,11.42969 -15.35743,11.42969 h 16.07032 L 344.64258,670 c 0,0 -18.57143,15.35683 -25,17.14258 -6.42857,1.78571 -5.71429,-5.71428 -5,-10 0.71428,-4.28572 10.71484,-10.00029 13.21484,-12.85742 2.5,-2.85718 1.0706,-7.50026 -1.07226,-7.85743 -2.14285,-0.35716 -6.07032,1.42969 -6.07032,1.42969 L 323.92773,652.5 c 0,0 -22.85685,-8.5e-4 -29.64257,-1.07227 -6.78571,-1.07142 -18.21289,-9.64257 -18.21289,-9.64257 0,0 2.49916,9.28544 6.42773,12.14257 3.92857,2.85714 11.07171,3.92969 10.35742,6.42969 -0.71428,2.50001 -11.07226,0.35742 -11.07226,0.35742 0,0 6.07143,5.35717 10,5 3.92858,-0.35712 6.07143,-0.35771 12.5,-3.21484 6.42858,-2.85717 11.0717,-0.71374 12.85742,0.71484 1.78571,1.42855 -2.49972,5.35691 -4.64258,7.14258 -2.14286,1.78575 -7.14202,9.99889 -6.42773,13.57031 0.71428,3.57143 7.8563,8.92969 13.92773,8.92969 6.07143,0 10.71457,-1.7857 12.85742,-5 2.14286,-3.21426 2.85742,-5.71484 2.85742,-5.71484 l 3.92774,0.71484 c 0,0 1.42941,-1.07086 6.07226,-4.28515 4.64285,-3.2143 8.21345,-3.57253 13.92774,-1.42969 5.71428,2.14288 5.35771,5.3577 5.71484,13.21484 0.35715,7.85715 -14.28515,15.71485 -14.28515,15.71485 0,0 7.85546,2.85683 10.35546,2.14257 2.5,-0.71429 9.64454,-7.5014 12.14454,-4.28711 2.49999,3.21427 1.42745,11.07255 -1.42969,16.42969 -2.85715,5.35714 -12.14313,7.49945 -17.85742,6.78516 -5.71428,-0.71429 -3.21289,-9.64258 -3.21289,-9.64258 0,0 -3.57143,8.4e-4 -7.5,3.57227 -3.92857,3.57142 -4.64454,7.14257 -4.64454,7.14257 0,0 -6.07114,-7.14312 -9.64257,-10.35742 -3.57143,-3.21426 -18.57032,-5.71484 -18.57032,-5.71484 0,0 8.2129,5.71453 10.71289,10.35742 2.50001,4.64285 -4.64257,9.64258 -4.64257,9.64258 0,0 14.28681,9.64231 13.92968,11.78515 -0.35715,2.14285 -2.14396,1.78656 -6.42968,3.57227 -4.28571,1.78571 -3.21289,7.85742 -3.21289,7.85742 0,0 3.21316,-0.71484 6.07031,-3.21484 2.85714,-2.49997 8.57116,-2.85742 14.64258,-2.85742 6.07143,0 4.64423,4.64426 4.28711,9.28711 -0.35714,4.64288 -5.71568,11.42857 -11.78711,15 -6.07142,3.57146 -11.78545,11.07115 -12.14258,14.64257 -0.35715,3.57143 4.28655,11.42884 11.07226,12.85743 6.78571,1.42854 18.21428,-5.00111 22.5,-6.42969 4.28572,-1.42855 3.92831,4.28597 7.14258,2.85742 3.21429,-1.42859 1.07143,-2.858 0,-6.07227 -1.07143,-3.21429 -13.57226,-3.92773 -13.57226,-3.92773 0,0 10e-4,-9.99944 1.78711,-11.78516 1.78571,-1.78571 6.78515,3.92884 11.78515,5.35743 5,1.42858 6.78516,-1.78711 6.78516,-1.78711 0,0 -7.85687,-4.64287 -9.64258,-7.5 -1.78571,-2.85718 5.35742,-7.49889 7.85742,-11.07032 2.5,-3.57142 1.42774,-10.35742 1.42774,-10.35742 0,0 2.85853,2.14284 4.28711,2.5 1.42857,0.35717 5.71345,-1.42858 16.42773,-2.5 10.71428,-1.07142 14.64206,10.35687 16.42773,9.64258 1.78576,-0.71429 -0.71428,-3.92882 -5,-10.35742 -4.28572,-6.42856 -6.42853,-5 -10,-7.5 -3.57142,-2.50001 -2.14202,-0.71458 -1.42773,-5.35742 0.71429,-4.64285 10.35631,1.07252 13.92773,1.42968 3.57143,0.35713 13.57172,-3.21428 12.85743,-5 -0.7143,-1.78571 -11.07057,-3.5717 -13.92774,-7.85742 -2.85713,-4.28572 6.42774,-12.14257 6.42774,-14.64258 0,-2.49996 -9.28572,-7.85829 -7.5,-13.92968 1.78567,-6.07144 -0.35743,-12.14258 -0.35743,-12.14258 0,0 -8.57087,-9.28515 -4.28515,-11.78516 4.28572,-2.5 3.21402,-0.7151 7.14258,1.42774 3.92855,2.14284 4.28711,12.5 4.28711,12.5 0,0 0.35712,10e-4 2.5,-8.21289 2.14284,-8.21432 8.21289,-6.07227 8.21289,-6.07227 0,0 -6.42884,18.92798 -7.85743,24.28516 -1.42854,5.35714 3.21485,16.42968 3.21485,16.42968 0,0 4.28574,-2.14368 7.5,-1.07226 3.2143,1.07142 5.71484,8.57226 5.71484,8.57226 0,0 6.42913,0.71315 8.21485,1.07032 1.78575,0.35712 1.42773,11.42887 1.42773,12.85742 0,1.42858 6.786,-5.35746 10.35742,-7.85742 3.57143,-2.50001 15.35742,-6.42774 15.35742,-6.42774 0,0 2.49863,-3.92943 8.21289,-3.57226 5.71431,0.35716 2.5,10.71484 2.5,10.71484 0,0 7.85853,-6.07089 9.28711,-11.78516 1.42855,-5.7143 -1.072,-13.57196 -3.21484,-15.71484 -2.14288,-2.14284 -18.21428,7.14339 -22.5,5.71484 -4.28568,-1.42858 -1.072,-11.07281 -3.21484,-14.28711 -2.14288,-3.21426 -8.92772,0.35827 -16.42774,1.42969 -7.49998,1.07142 -9.64258,-4.64258 -9.64258,-4.64258 0,0 4.28544,-1.07196 9.64258,-3.21484 5.35714,-2.14284 7.14258,-9.64258 7.14258,-9.64258 0,0 -6.78514,1.42774 -11.78516,-1.07226 -5.00001,-2.50001 -2.14342,-24.28463 -3.21484,-28.57032 -1.07142,-4.28572 -7.85769,-8.92828 -3.21484,-9.64257 4.64288,-0.7143 7.85744,-6.7874 12.85742,-9.64454 4.37621,-2.50067 10.11345,-1.22808 11.54687,-0.85742 -0.33498,-0.31748 -0.82692,-0.83262 -1.54687,-1.64258 -2.85717,-3.21426 -13.21485,-3.57031 -13.21485,-3.57031 0,0 3.21484,-3.21542 5.71485,-6.42969 2.5,-3.21429 2.50114,-8.57085 3.92969,-11.78515 1.42858,-3.21426 6.78429,-4.99914 10.71289,-8.92774 3.92855,-3.92855 -11.42774,0.35743 -11.42774,0.35743 0,0 -0.7151,-10.00055 -1.07226,-13.21485 -0.35713,-3.21426 4.64257,-15 4.64257,-15 l 4.64454,4.28516 10.71289,-8.57031 -6.42774,-1.07227 -0.71484,-4.28516 -19.64258,15 c 0,0 2.49919,-9.99973 3.92773,-14.64257 1.42859,-4.64285 9.28711,-10.71485 9.28711,-10.71485 0,0 3.21401,-2.50086 -2.85742,1.42774 -6.07143,3.92855 -8.21484,-0.71288 -8.21484,-5.71289 0,-5.00002 6.42853,-8.92858 10,-10 3.57142,-1.07146 2.85797,6.42774 3.57226,3.92773 0.71426,-2.50001 7.85743,-5 7.85743,-5 0,0 -15.7151,-6.07197 -16.07227,-8.21484 -0.35713,-2.14284 6.42798,-8.21315 9.28516,-8.57032 2.85713,-0.35716 1.78711,3.57031 1.78711,6.07032 0,2.49996 3.92802,3.21429 6.78515,2.5 2.85717,-0.7143 -1.42912,-7.49915 -5.71484,-11.42774 -4.28572,-3.92855 -13.21317,4.99973 -21.07031,9.64258 -7.85715,4.64285 -9.28711,30.35742 -9.28711,30.35742 L 416.07227,550 c 0,0 -3.572,-4.64286 -8.21485,-10 -4.64285,-5.35714 -13.21373,-8.92884 -14.28515,-10.35742 -1.07142,-1.42855 7.14257,-1.7846 7.14257,-3.57031 0,-1.78568 -4.28655,-2.14454 -6.07226,-2.14454 -1.78572,0 -5.35632,-2.8555 -3.92774,-5.35546 1.42855,-2.50001 13.21403,2.14283 17.14258,2.5 3.92856,0.35716 7.14258,-5.71485 7.14258,-5.71485 0,0 -4.28629,0.35602 -8.21484,1.07031 -3.9286,0.7143 -7.49974,-3.21369 -9.64258,-4.28515 C 394.99974,511.07116 390,511.07227 390,511.07227 c 0,0 3.57145,-4.64313 7.5,-5.35743 3.92859,-0.71429 10,3.57032 10,3.57032 0,0 -5.35656,-7.49915 -9.28516,-11.42774 -3.92855,-3.92855 -11.07226,-2.5 -11.07226,-2.5 0,0 -1.78515,-6.07196 -4.28516,-8.21484 -2.5,-2.14284 -9.64313,-1.07197 -12.85742,-3.21485 -3.21429,-2.14284 1.78516,-13.57031 1.78516,-13.57031 z m 79.40429,155.21289 c 0.99439,0.94246 0.59571,0.14453 0.59571,0.14453 0,0 -0.39138,-0.0917 -0.59571,-0.14453 z M 365.29688,493.83789 c 0,0 11.74256,3.28311 13.25781,5.42969 1.51521,2.14658 2.52608,3.53515 0.12695,3.53515 -2.3991,0 -6.06162,-0.75606 -7.70312,-1.51367 -1.6415,-0.7576 -5.68164,-7.45117 -5.68164,-7.45117 z m -84.85157,99.625 c -0.21031,-0.0132 -0.31222,0.0201 -0.26758,0.10938 0.35714,0.71425 7.32227,7.67773 7.32227,7.67773 0,0 0.71457,0.17829 1.60742,-0.35742 0.89285,-0.53571 -10e-4,-1.60687 -0.17969,-3.39258 -0.15624,-1.5625 -7.01024,-3.94434 -8.48242,-4.03711 z"
       style="fill:#000000;fill-opacity:1;stroke:none;stroke-width:13.2283"
       id="path2961" />
    <path
       transform="scale(0.26458333)"
       d="m 773.69922,430.3125 c -2.29353,0.2009 -3.4322,2.81164 -4.77149,3.61523 -1.78571,1.07142 -5.71372,11.07171 -11.78515,15.35743 -6.07143,4.28572 -25.35605,25.71568 -28.57031,29.28711 -3.2143,3.57142 -28.21432,32.85546 -32.5,35.35546 -4.28572,2.50001 -39.28574,43.21485 -42.5,43.21485 -3.2143,0 -11.78574,-10.35631 -15,-13.92774 -3.2143,-3.57146 -25.35827,-29.28573 -28.92969,-35 -3.57143,-5.7143 -19.64176,-19.64256 -23.57031,-24.64257 C 582.14371,478.57225 563.2143,458.21456 560,455.35742 c -3.21426,-2.85713 -17.85744,-24.64258 -25.35742,-24.64258 0,0 -3.57086,1.07057 -6.78516,1.42774 -3.2143,0.35713 -10.358,6.78626 -13.57226,8.21484 -3.2143,1.42855 -11.78519,12.49914 -14.28516,16.42774 -2.50001,3.92855 -14.28655,17.14286 -18.57227,20 -4.28568,2.85717 -23.57031,20.71568 -23.57031,24.28711 0,3.57142 17.49944,19.99888 19.28516,23.57031 1.78571,3.57146 3.92913,15.35686 5.71484,17.14258 1.78572,1.78571 -1.78656,8.92886 -1.07226,12.85742 0.71429,3.92859 7.85826,9.64257 8.92968,12.14258 1.07142,2.5 3.57171,3.57226 7.85743,3.57226 4.28572,0 13.21263,20.00029 12.85546,22.85742 -0.35712,2.85714 -3.21429,2.85686 -2.5,7.14258 0.7143,4.28568 3.2151,1.78545 3.57227,4.64258 0.35717,2.85717 -2.14258,3.92912 0.35742,8.21484 2.50001,4.28572 1.07031,8.21403 1.07031,12.14258 0,3.92859 -7.49915,9.99944 -6.42773,11.78516 1.07142,1.78571 4.28516,2.14285 4.28516,-2.5 0,-4.64285 3.57226,-1.42773 6.07226,-3.92774 2.49997,-2.5 4.99916,-4.99999 3.92774,-7.5 -1.07142,-2.5 -3.21429,-10.00139 -5,-14.28711 -1.78572,-4.28572 -1.07117,-9.64231 0.35742,-11.78515 1.42858,-2.14288 5.7151,-4.64176 3.57226,-8.57031 -2.14284,-3.9286 -2.85827,-16.78601 -1.42968,-17.85743 1.42854,-1.07145 5.35686,3.92747 7.14257,8.57032 1.78576,4.64288 16.07256,17.85745 18.92969,20.35742 2.85714,2.5 7.14173,6.42802 8.57031,9.28515 1.42855,2.85714 22.85743,17.14341 22.85743,25.71485 0,8.57144 -6.07031,14.99944 -8.57032,16.78515 -2.5,1.78572 -17.50028,21.07201 -20.35742,23.21485 -2.85717,2.14288 -4.28541,0.71454 -4.64258,2.85742 -0.35716,2.14284 -10e-4,1.42939 -1.42968,3.57227 -1.42859,2.14284 -25.00025,25.35682 -27.85743,27.14257 -2.85713,1.78568 -8.57031,5.71289 -8.57031,5.71289 0,0 -1.42913,3.92995 -3.21484,4.28711 -1.78572,0.35713 -1.78515,-5.5e-4 -4.28516,1.78516 -2.5,1.78571 -2.5,4.28516 -2.5,4.28516 0,0 -7.85686,-1.07142 -9.64258,0 -1.78571,1.07142 1.78513,2.85852 -0.71484,4.28711 -2.50001,1.42854 5.6e-4,-1.07286 -1.78516,-1.78711 -1.78575,-0.7143 -7.49974,2.14426 -7.14257,6.78711 0.35716,4.64284 3.56976,1.7857 0.35546,5 -3.21429,3.21429 -8.57086,3.92827 -9.28515,7.14257 -0.71429,3.21427 5.6e-4,3.57142 -1.78516,5 -1.78567,1.42855 -2.14258,3.5709 -2.14258,6.78516 0,3.2143 1.07172,1.42773 0.35743,3.92773 -0.7143,2.49997 -6.78597,5.9e-4 -7.85743,3.21485 -1.07142,3.2143 2.14203,3.57115 1.42774,7.14258 -0.71429,3.57139 -1.78571,3.57251 -2.5,6.42968 -0.71429,2.85714 1.786,5.71428 2.85742,10 1.07146,4.28572 -2.14232,5.71289 -4.28516,8.21289 -2.14287,2.50001 -2.6e-4,12.85853 2.14258,14.28711 2.14284,1.42859 7.50026,-1.42829 7.85742,0.35743 0.35713,1.78571 -3.2143,2.85571 2.5,5.71289 5.71431,2.85713 6.78597,3.21454 5.35743,5.35742 -1.42859,2.14284 -5.71596,1.07089 -4.64454,4.28515 1.07146,3.2143 3.92859,2.85827 2.5,3.92969 -1.42854,1.07142 -2.49974,0.71429 -2.14257,2.5 0.35712,1.78572 2.14368,4.99944 1.07226,6.78516 -1.07142,1.78571 -3.92829,2.85686 -2.14258,4.64258 1.78572,1.78571 8.21345,-5.35631 8.92774,-8.92774 0.71429,-3.57139 -0.35684,-10.00055 2.85742,-10.71484 3.2143,-0.71429 7.49919,12.50084 8.92773,16.07226 1.42859,3.57143 -0.35716,8.21458 0,12.85743 0.35717,4.64284 3.21485,10.71427 3.21485,17.5 0,6.78572 -7.50055,16.06974 -8.21485,20.35546 -0.71425,4.28572 -0.35572,14.2874 -0.71289,19.64454 -0.35716,5.35714 -16.07281,17.14286 -19.28711,20 -3.21429,2.85713 -0.71373,3.57115 -1.78515,7.14257 -1.07142,3.57143 -6.78627,13.21315 -3.21485,13.57032 3.57143,0.35712 17.85743,-14.2849 17.85743,-16.42774 0,-2.14288 0.71538,-3.92969 3.92968,-3.92969 3.21427,0 11.42832,-5.71402 14.64258,-9.64257 3.2143,-3.9286 -0.35827,-17.85631 -1.42969,-21.42774 -1.07145,-3.57142 2.14398,-20.00029 3.92969,-22.85742 1.78572,-2.85713 1.42884,-21.78515 2.85742,-24.28516 1.42855,-2.5 -3.92884,-7.50114 -2.85742,-8.92968 1.07142,-1.42859 0.35717,-5.35716 0,-7.5 -0.35709,-2.14284 1.07083,-8.21289 -0.71484,-10.71289 -1.78575,-2.50001 -3.57145,-5.5e-4 -5,-3.21485 -1.42859,-3.2143 5,-1.07171 5,-2.85742 0,-1.78571 -1.07145,-2.49919 -2.5,-3.92773 -1.42859,-1.42859 -3.92913,3.21344 -5.71485,1.42773 -1.78571,-1.78571 -1.07087,-6.42913 0.71485,-8.21484 1.78571,-1.78572 3.21425,3.21429 5,2.5 1.78571,-0.7143 5.35742,-2.5 5.35742,-2.5 0,0 -1.78626,6.42997 -0.71484,9.28711 1.07142,2.85717 2.85796,-10e-4 6.07226,0.71289 3.21426,0.71429 2.85658,6.78655 1.78516,8.57226 -1.07142,1.78572 -5,-1.78515 -5,-1.78515 0,0 -1.42855,7.85715 0,10 1.42858,2.14287 8.92854,-1.07171 10,-2.85743 1.07142,-1.78571 -1.07087,-7.14342 0.71484,-8.21484 1.78572,-1.07146 4.99974,2.49944 7.14258,4.28516 2.14288,1.78571 -3.214,2.50142 -2.14258,6.78711 1.07142,4.28572 3.21374,8.21402 4.28516,12.14257 1.07142,3.9286 -2.49945,17.85657 -1.78516,19.28516 0.71429,1.42859 0.71433,2.14314 2.5,0.35742 1.78575,-1.78571 1.42884,-23.57196 0.35742,-25.71484 -1.07142,-2.14284 -1.78711,-9.64202 0.71289,-11.42774 2.50001,-1.78571 2.50169,3.57031 4.64454,6.07032 2.14287,2.5 -0.71541,25.00059 1.07031,23.21484 1.78571,-1.78571 0.35686,-21.42773 2.14258,-21.42773 1.78571,0 2.49973,3.57031 4.64257,3.57031 2.14285,0 3.93024,-6.07061 4.64454,-3.92774 0.71429,2.14284 -3.21485,29.28516 -3.21485,29.28516 l 3.57031,-1.78516 c 0,0 0.71485,-13.21398 0.71485,-17.14257 0,-3.92856 2.14397,-9.28655 3.92969,-13.57227 1.78571,-4.28572 10.3555,-12.49999 12.85546,-17.5 2.50001,-4.99997 9.64453,-11.42773 12.14454,-13.92773 2.5,-2.49997 6.78433,-6.07307 10.71289,-9.64454 3.92859,-3.57142 3.57226,-7.49889 6.07226,-8.57031 2.50001,-1.07142 18.57031,-18.92802 21.07031,-21.78515 2.50001,-2.85714 43.92969,-50.35798 46.42969,-51.07227 2.49997,-0.71426 8.92773,6.42832 11.42774,9.64258 2.5,3.2143 11.42916,12.85826 15.71484,16.42969 4.28572,3.57142 13.21373,15.71428 16.78516,17.5 3.57139,1.78571 14.99973,17.49859 17.14257,20.71289 2.14285,3.2143 13.92914,13.21513 13.21485,16.07226 -0.71429,2.85717 -4.64258,-0.35768 -4.64258,1.78516 0,2.14284 4.64371,2.5 8.57227,2.5 3.92859,0 6.78544,4.99974 9.64257,7.14258 2.85718,2.14287 8.21454,6.42831 12.85743,9.64257 4.64284,3.2143 11.42858,17.50169 12.5,19.64454 1.07142,2.14287 6.07115,1.07002 7.14257,-1.78711 1.07142,-2.85718 57.14258,-51.07086 59.64258,-54.28516 2.49997,-3.2143 10.35687,-5.71399 12.14258,-9.64258 1.78575,-3.92859 -1.0717,-5.71509 -5.35742,-8.57226 -4.28572,-2.85714 -9.64202,-11.07002 -11.42774,-13.21289 -1.78571,-2.14281 -2.14423,1.78568 -4.28711,-2.5 -2.14284,-4.28572 -3.21428,-4.28626 -5,-5.71485 -1.78571,-1.42858 -4.99889,-6.07171 -6.07031,-7.85742 -1.07142,-1.78571 -4.99974,-8.57145 -7.14258,-12.5 -2.14287,-3.92855 -11.78658,-8.92802 -16.07226,-11.78516 -4.28572,-2.85717 -18.21347,-22.14311 -21.42774,-27.85742 -3.2143,-5.71427 -16.42857,-17.14283 -20,-20 -3.57142,-2.85713 -21.07252,-14.28598 -21.42968,-22.85742 -0.35717,-8.5714 100.00028,-103.92827 105.35742,-109.64258 5.35714,-5.71427 17.85716,-9.64261 17.5,-12.14258 -0.35717,-2.5 5.9e-4,-5.71456 0.71484,-12.85742 0.71429,-7.14285 -8.92942,-12.85716 -11.07226,-15 -2.14284,-2.14284 -17.14257,-12.14286 -22.14258,-15 -5.00001,-2.85713 -18.21403,-19.28684 -22.14258,-21.42969 -3.92859,-2.14287 -14.28655,-15.35546 -18.57227,-17.85546 -1.07143,-0.625 -1.964,-0.82674 -2.72851,-0.75977 z m -223.65039,43.48047 c 1.90587,-0.0947 3.95758,0.22031 6.04101,1.23047 8.33379,4.04061 9.59571,6.5664 9.59571,6.5664 l -7.57617,7.57618 c 0,0 -3.78829,-1.76728 -5.8086,-0.25196 -2.02031,1.51522 -13.88845,12.12108 -15.65625,14.64649 -1.76776,2.52536 -0.75843,4.29313 -3.03125,5.05078 -2.27286,0.7576 -6.81818,3.53557 -8.58594,5.05078 -1.76779,1.51525 -8.83984,8.08203 -8.83984,8.08203 0,0 -2.27148,2.27283 -2.27148,5.05078 0,2.77792 1.00976,2.52539 1.00976,2.52539 l -7.83008,7.57617 -5.30273,-6.31445 c 0,0 -2.08505,-7.2954 -0.25195,-14.64648 1.7046,-6.83577 33.89825,-39.10445 38.38476,-37.88086 0,0 4.40543,-3.97762 10.12305,-4.26172 z m 195.41211,4.51367 c 0.66291,-0.0631 1.67354,0.25235 3.0625,1.76758 2.77791,3.03046 48.48633,57.58008 48.48633,57.58008 0,0 1.51521,2.27284 0,2.52539 -1.51525,0.25247 -3.02908,0.75719 -4.79688,-1.51563 -1.76776,-2.27285 -27.02148,-18.6875 -27.02148,-18.6875 l -25.75977,-28.53711 c 0,0 -2.77833,-3.28417 -1.51562,-4.54687 1.2627,-1.2627 6.5664,-8.08008 6.5664,-8.08008 0,0 0.3156,-0.44272 0.97852,-0.50586 z m -175.75196,6.19531 c 0.64368,0.007 1.24911,0.33914 1.53321,1.38086 0.75764,2.77792 8.58581,15.9104 0.25195,24.24414 -8.33374,8.33375 -7.83008,8.08203 -7.83008,8.08203 l -8.08008,-7.83007 c 0,0 -3.03083,-2.77661 -1.51562,-4.79688 1.51525,-2.02031 7.32481,-5.30335 7.07226,-7.57617 -0.25231,-2.27286 -0.75781,-5.80859 -0.75781,-5.80859 l 7.07031,-6.81836 c 0,0 1.18307,-0.88928 2.25586,-0.87696 z m 158.44922,12.71094 c 0.2249,-0.0118 0.98303,0.22321 3.44532,2.30664 3.28301,2.77792 17.67736,13.38594 21.21289,15.40625 3.53556,2.02031 40.15429,27.5264 40.15429,28.78906 0,1.26271 -2.52541,5.8078 -5.05078,5.30274 -2.5254,-0.5051 -31.3164,-20.96094 -31.3164,-20.96094 0,0 -2.01974,-1.51542 -2.77735,-0.75781 -0.7576,0.7576 3.8e-4,2.52716 1.51563,4.29492 1.51521,1.76776 14.39453,18.6875 14.39453,18.6875 0,0 -26.76876,-18.68888 -28.78906,-21.4668 -2.02031,-2.77791 -18.1822,-21.71836 -17.92969,-22.72851 0.25247,-1.01016 -1.0119,-3.78672 0.75586,-4.79688 1.7678,-1.01015 4.29492,-4.04101 4.29492,-4.04101 0,0 0.0149,-0.0312 0.0898,-0.0352 z m -137.27734,13.01758 c 0.6274,0.0237 1.25797,0.27491 1.82617,0.90625 2.27286,2.52537 6.81836,8.33398 6.81836,8.33398 0,0 1.51504,2.27346 -0.75781,4.79883 -2.27286,2.52541 -53.79102,50.00195 -53.79102,50.00195 0,0 -2.01914,0.50489 -3.02929,-0.75781 -1.01016,-1.26266 -4.79785,-4.54529 -6.06055,-6.06055 -1.26267,-1.51507 -2.27344,-1.76718 -2.27344,-2.77734 0,-1.01015 -1.26229,-3.78867 1.51563,-4.79883 2.77791,-1.01011 5.30335,-4.04003 7.57617,-5.30273 2.27285,-1.2627 8.33298,-9.34433 12.12109,-11.61719 3.78807,-2.27286 19.44531,-18.6875 19.44531,-18.6875 l 12.87891,-12.12305 c 0,0 1.84828,-1.98704 3.73047,-1.91601 z m -50.2832,1.36914 c 0.49718,0.0118 0.9708,0.23257 1.34961,0.80078 1.51521,2.27282 3.53497,6.56546 5.30273,7.82813 1.7678,1.2627 4.54492,3.78906 4.54492,3.78906 0,0 2.27401,1.51466 -0.5039,5.30273 -2.77792,3.78807 -23.99219,22.22266 -23.99219,22.22266 0,0 -2.27127,2.52634 -4.03906,1.26367 -1.76777,-1.2627 -4.79883,-4.54687 -4.79883,-4.54687 0,0 -0.50489,-2.02012 0.75781,-4.29297 1.26266,-2.27286 3.28318,-2.52539 0.75781,-2.52539 -2.5254,0 -8.33398,-0.50391 -8.33398,-0.50391 0,0 -3.78768,-0.25385 -1.00977,-2.7793 2.77796,-2.52536 6.81836,-6.06054 6.81836,-6.06054 0,0 3.02967,0.50457 4.54492,0.25195 1.51522,-0.25247 5.55548,-0.50486 8.58594,-4.29297 3.03046,-3.78807 2.7793,-8.83789 2.7793,-8.83789 0,0 -0.75936,-2.77755 0.75586,-3.53516 1.51525,-0.7576 3.2832,-2.27343 3.2832,-2.27343 0,0 1.70572,-1.84607 3.19727,-1.81055 z m 171.83984,3.69727 c 0.83604,-0.0444 2.27748,0.13379 4.01367,1.39648 2.77792,2.02031 58.33594,42.42578 58.33594,42.42578 0,0 3.78746,0.75801 1.00977,4.04102 -2.77796,3.28301 -5.30274,5.55664 -5.30274,5.55664 0,0 -1.00957,2.52484 -5.30273,0.25195 -4.29313,-2.27286 -58.33789,-42.17383 -58.33789,-42.17383 0,0 -4.03925,-2.5266 -2.27149,-4.54687 1.7678,-2.02035 7.07031,-6.81836 7.07031,-6.81836 0,0 0.28354,-0.1064 0.78516,-0.13281 z m -14.93359,22.43359 c 0.98105,-0.0335 1.99538,0.0179 3.03711,0.17578 8.33374,1.2627 15.15234,7.82813 15.15234,7.82813 l 27.02148,26.01171 c 0,0 5.55469,5.05162 5.55469,13.13282 0,8.08123 -3.02932,14.89843 -5.55469,14.89843 -2.5254,0 -9.09179,-6.56563 -9.09179,-8.58593 0,-2.02031 -2.1e-4,-2.52517 -0.75782,-4.29297 -0.7576,-1.76776 -34.84961,-32.83008 -34.84961,-32.83008 0,0 -2.27245,-2.27344 -3.53515,-2.27344 -1.2627,0 -3.78906,1.51563 -3.78906,1.51563 l -6.06055,-5.8086 c 0,0 -3.03007,-2.77636 -1.00977,-4.03906 1.76777,-1.10483 7.01544,-5.49764 13.88282,-5.73242 z m -18.16602,10.95508 c 1.32047,0.0149 2.51563,1.08984 2.51563,1.08984 l 1.26171,0.25195 c 0,0 6.31401,5.05235 5.55665,6.0625 -0.75769,1.01016 0.25195,5.30274 0.25195,5.30274 0,0 32.83006,33.08321 35.35547,35.10351 2.52536,2.02031 5.55527,-0.75781 7.82812,-0.75781 2.27282,0 0.7592,2.01935 3.53711,3.78711 2.77792,1.76776 3.03006,3.03047 3.53516,5.05078 0.50506,2.02031 -4.29394,3.28341 -5.55664,4.04102 -1.26267,0.7576 -7.32246,3.28201 -10.60547,3.78711 -3.28298,0.50506 -11.36524,-5.05078 -11.36524,-5.05078 l -29.54687,-27.27344 c 0,0 -7.8285,-7.82795 -9.34375,-14.64649 -1.51521,-6.81853 3.03107,-13.88984 4.79883,-15.91015 0.55243,-0.63137 1.17713,-0.84467 1.77734,-0.83789 z m -51.26172,1.02148 c 0.5623,-0.0222 1.24825,0.22583 2.00586,1.07813 2.02031,2.27282 5.30469,6.06054 5.30469,6.06054 0,0 3.03064,0.25271 -1.76758,3.28321 -4.79822,3.03046 -60.35742,43.18554 -60.35742,43.18554 0,0 -3.03107,0.50469 -4.79883,-1.51562 -1.7678,-2.02031 -5.80859,-7.07227 -5.80859,-7.07227 0,0 -2.5252,-1.51425 0.75781,-3.78711 3.28297,-2.27282 63.13477,-40.40625 63.13477,-40.40625 0,0 0.59213,-0.78916 1.52929,-0.82617 z m -126.1289,4.03906 c 0.0641,-0.008 0.12834,-0.007 0.19531,0.004 1.07142,0.17858 6.07201,3.036 5.71484,5.35742 -0.35716,2.32143 -1.2503,3.21488 -0.35742,5.71485 0.89288,2.5 4.82197,1.96288 5.71484,3.21289 0.89284,1.25 -0.53574,1.60822 -1.25,3.92968 -0.71429,2.32143 1.78516,12.67774 1.78516,12.67774 0,0 -0.71399,-1.60631 -2.14258,-3.92774 -1.42858,-2.32142 -2.67903,-6.96428 -2.85742,-8.75 -0.17858,-1.78575 -1.2497,-1.07226 -3.39258,-2.32226 -2.14284,-1.24997 -3.21399,-5.17887 -4.64258,-7.85742 -1.42858,-2.67859 0.714,-7.14148 -0.35742,-5.71289 0,0 0.62855,-2.1988 1.58985,-2.32618 z m 135.71093,7.64649 c 0,0 5.80937,-0.25284 3.78907,3.53515 -2.02031,3.78807 -45.70899,61.61915 -45.70899,61.61915 0,0 -1.76955,2.52488 -4.29492,0.25195 -2.52541,-2.27286 -6.56445,-7.82813 -6.56445,-7.82813 0,0 -2.02011,-3.53573 0.75781,-5.80859 2.77791,-2.27286 6.817,-6.31384 6.56445,-9.0918 -0.25247,-2.77791 -1.76758,-2.77734 -1.76758,-2.77734 0,0 -4.5443,-2.77716 -2.27148,-4.54492 2.27286,-1.76776 6.06055,-3.78907 6.06055,-3.78907 0,0 3.0295,-0.50429 3.78711,0.50586 0.7576,1.01012 1.01133,2.02072 2.02148,1.51563 1.01015,-0.5051 5.05039,-5.80956 6.06055,-7.07227 1.01011,-1.26266 6.5664,-7.57617 6.5664,-7.57617 z m -84.0664,10.30078 c 1.021,0.0296 2.5608,0.30564 3.50781,1.56836 1.51525,2.02031 5.30273,5.80859 5.30273,5.80859 0,0 2.27282,3.53498 0,5.30274 -2.27285,1.76776 -3.2832,3.2832 -3.2832,3.2832 0,0 -2.02015,1.51577 -4.29297,-0.25195 -2.27285,-1.76776 -7.07031,-6.56641 -7.07031,-6.56641 0,0 -2.02174,-2.77848 -0.25391,-4.04101 1.76776,-1.26271 5.05078,-5.05079 5.05078,-5.05079 0,0 0.42646,-0.0705 1.03907,-0.0527 z m 102.7539,15.96289 c 6.56603,0 11.36561,3.03027 12.88086,4.29297 1.51522,1.2627 2.01912,3.02971 0.50391,4.54492 -1.51525,1.51525 -5.05078,4.29492 -5.05078,4.29492 0,0 -8.83732,0.50448 -11.61524,5.30274 -2.77791,4.79818 -2.02148,11.36328 -2.02148,11.36328 0,0 -0.50508,1.76893 -2.52539,2.02148 -2.02027,0.25247 -8.83789,0.25196 -8.83789,0.25196 0,0 -5.55664,0.25244 -5.55664,-2.5254 0,-2.77783 -0.50449,-14.39454 4.79883,-19.44531 5.3032,-5.05077 10.85784,-10.10156 17.42382,-10.10156 z m 17.4375,10.41602 c 0.67142,-0.003 1.37842,0.23892 2.00977,0.94921 2.02031,2.27282 4.54527,8.33342 3.53515,11.11133 -1.01012,2.77792 -6.5664,12.37305 -6.5664,12.37305 0,0 -1.2631,3.28457 -4.04102,1.01172 -2.77791,-2.27282 -8.58593,-6.56641 -8.58593,-6.56641 0,0 -0.75744,-1.76739 0.75781,-3.53515 1.51521,-1.76777 10.10156,-14.14258 10.10156,-14.14258 0,0 1.31194,-1.19374 2.78906,-1.20117 z m -58.20508,20.29882 c 1.13642,10e-6 2.13086,0.85157 2.13086,0.85157 0,0 9.34324,6.81953 9.59571,8.83984 0.25255,2.02031 -4.79785,4.04044 -6.06055,6.81836 -1.26263,2.77791 -1.00976,6.81836 -1.00976,6.81836 l -9.84961,7.32422 c 0,0 -5.05079,-7.82873 -5.05079,-12.62696 0,-4.79822 7.57655,-16.66758 9.0918,-17.67773 0.3788,-0.25254 0.77364,-0.34766 1.15234,-0.34766 z m 21.57618,5.39844 h 12.62695 c 1.51517,0 1.26172,1.26172 1.26172,1.26172 0,0 -0.25216,5.30312 -1.00977,11.86914 -0.7576,6.56598 -3.28302,10.10235 -5.05078,13.13281 -1.76776,3.03047 -9.59612,8.3336 -16.16211,9.34375 -6.56598,1.01016 -11.87031,-3.53476 -13.89062,-4.54492 -2.02031,-1.01015 0.50586,-4.04101 0.50586,-4.04101 l 8.08203,-7.82813 c 0,0 2.52482,0.5037 5.30273,-0.25391 2.77792,-0.75764 4.54492,-4.03906 4.54492,-4.03906 v -0.002 c 0,0 0.50607,-1.00899 1.26368,-3.0293 0.75753,-2.02031 0.5039,-5.55683 0.5039,-8.83984 0,-3.28294 2.02149,-3.0293 2.02149,-3.0293 z m 56.06054,1.94531 c 7.49998,-0.35716 12.85743,5.71289 12.85743,5.71289 0,0 -7.5014,9.64454 -9.28711,9.64454 -1.78575,0 -4.28516,1.78515 -4.28516,1.78515 0,0 -32.85686,29.9997 -34.64258,32.14258 -1.78567,2.14284 -0.71399,3.21458 -2.14258,5.35742 -1.42858,2.14284 -6.42938,7.85768 -8.57226,8.21485 -2.14284,0.35716 -3.92773,-2.50032 -6.42774,-10.35743 -2.5,-7.85718 6.07032,-16.42968 6.07032,-16.42968 l 33.57226,-32.85743 c 0,0 5.3574,-2.85572 12.85742,-3.21289 z m 15.71289,9.64258 c 2.14288,0.35717 5.00114,3.92743 6.42969,8.57031 1.42859,4.64285 1.7863,10 0.71485,12.5 -1.07142,2.50001 -10.71485,13.92969 -10.71485,13.92969 l -10,-9.64258 c 0,0 -2.85798,-2.14426 -1.07226,-4.28711 1.78571,-2.14287 7.85742,-3.92857 7.85742,-7.5 0,-3.57142 -0.35742,-5.35546 -0.35742,-5.35546 0,0 4.99973,-8.57201 7.14257,-8.21485 z m -132.14257,26.07031 c 1.07142,0 16.07143,10.00029 23.75,15.35743 7.67856,5.35714 6.42883,5.35855 10.35742,8.03711 3.92855,2.67858 17.14367,10.35602 19.82226,11.07031 2.67855,0.71429 3.39287,2.85657 5,4.28515 1.60717,1.42855 2.67718,3.03601 4.46289,4.10743 1.78591,1.07142 1.96485,1.42858 1.96485,2.5 0,1.07142 -7.85712,7.85871 -10,8.03711 -2.14284,0.17858 -4.46484,-2.14343 -5.71485,-3.21485 -1.25,-1.07142 -5.71318,-4.10687 -7.32031,-4.64258 -1.60713,-0.53574 -2.5011,1.07116 -3.92969,3.39258 -1.42854,2.32143 -3.39257,0.89258 -3.39257,0.89258 0,0 -2.49974,-2.67858 -3.39258,-3.75 -0.89269,-1.07146 -0.71485,-1.96513 -0.71485,-3.57227 0,-1.60716 1.96459,-2.4997 1.60743,-4.64257 -0.35713,-2.14284 -8.57002,-4.82061 -10.71289,-6.42774 -2.14285,-1.60713 -24.64454,-27.32226 -24.64454,-27.32226 0,0 -0.89232,-1.24915 -0.53515,-2.67774 0.35716,-1.42858 2.32112,-1.42969 3.39258,-1.42969 z m 103.62304,1.5586 c 1.75782,-0.15067 3.16407,1.65625 3.16407,1.65625 0,0 11.78515,12.4997 11.78515,14.64258 0,2.14284 -1.07226,2.50114 -3.57226,3.92968 -2.50001,1.42859 -21.07031,20.71403 -23.57032,22.14258 -2.5,1.42859 -4.28711,0.71485 -4.28711,0.71485 0,0 -4.64202,-6.07146 -6.42773,-7.5 -1.78571,-1.42859 1.78516,-4.64454 1.78516,-4.64454 0,0 -6.42718,0.35743 -8.21289,-2.14257 0,0 2.8563,-6.7849 6.42773,-8.92774 3.57143,-2.14288 4.64201,1.42748 8.92773,1.07031 4.28572,-0.35712 12.14454,-8.21428 12.14454,-10 0,-1.78571 -1.07308,-0.71428 -2.14454,-2.5 -1.07142,-1.78571 -1.78515,-3.92773 -1.78515,-3.92773 0,0 1.42968,-1.07226 3.92969,-3.57227 0.625,-0.625 1.24999,-0.89118 1.83593,-0.9414 z m -109.51562,3.62109 47.85742,59.46485 c 0,0 2.85687,2.49918 0.89258,5.17773 -1.9643,2.67859 -7.32031,7.32227 -7.32031,7.32227 0,0 -1.96459,2.5 -2.85743,1.25 -0.89283,-1.25001 -45.17968,-60.35743 -45.17968,-60.35743 0,0 -3.03575,-4.10771 -1.25,-5.71484 1.78567,-1.60713 6.25,-6.07227 6.25,-6.07227 z m 160.52148,1.37891 c 8.91867,0.10083 15.3711,7.72851 15.3711,7.72851 l 1.07226,-0.35742 c 0,0 -6.78596,6.42888 -7.85742,7.85742 -1.07142,1.42859 -2.85686,1.07142 -4.64258,0 -1.78571,-1.07142 -4.64258,1.07032 -4.64258,1.07032 l -33.57226,33.57226 c -2.14288,2.14288 -0.35657,4.28486 -1.78516,6.42774 -1.42858,2.14284 -6.42968,6.07226 -8.92969,6.07226 -2.5,0 -3.21288,-3.21483 -5.71289,-8.21484 -2.49996,-4.99998 3.21289,-16.42774 3.21289,-16.42774 0,0 34.28738,-35.71428 44.64454,-37.5 0.97098,-0.16741 1.91917,-0.23894 2.84179,-0.22851 z m 17.74805,11.28906 c 0.16392,-0.015 0.32422,-0.013 0.48047,0.01 2.5,0.35716 5.0011,7.50109 6.42969,11.42968 1.42854,3.92856 0.71291,11.07169 -9.28711,20.35743 -9.99999,9.28569 -27.5,26.42773 -27.5,26.42773 0,0 -11.0717,7.49916 -17.85743,3.92773 C 694.64201,737.85585 690,733.57227 690,733.57227 c 0,0 6.072,-6.42969 8.21484,-6.42969 2.14284,0 5.71403,-0.71344 7.14258,-1.42774 1.42859,-0.71429 35.35602,-31.07115 36.07031,-34.64257 0.7143,-3.57143 -1.42832,-2.5 0.35743,-5 1.6741,-2.34372 4.91813,-6.57194 7.37695,-6.79688 z m 20.54297,22.67773 c 0.45201,0.0335 0.92076,0.18974 1.36719,0.54688 1.78571,1.42859 6.07031,6.42773 6.07031,6.42773 0,0 2.14229,3.57281 -0.71485,6.78711 -2.85717,3.2143 -15.71344,16.7849 -16.42773,18.92774 -0.71429,2.14288 2.85742,2.85742 2.85742,2.85742 l 20,-15 c 0,0 4.2863,-3.57087 5.71485,-1.78516 C 790.00085,722.50056 792.5,725 792.5,725 c 0,0 3.9283,2.85686 -0.35742,7.14258 C 787.85686,736.42826 742.5,787.5 742.5,787.5 l -3.21484,-2.5 c 0,0 -1.78598,-1.42883 2.14257,-5.35742 3.92856,-3.92856 22.14454,-28.21485 22.14454,-28.21485 0,0 2.14288,-3.57031 -2.5,-1.07031 C 756.42942,752.85743 740.35742,765 740.35742,765 l -3.21484,1.78516 2.14258,-5.35743 c 0,0 1.07252,-0.35546 -1.07032,-0.35546 -2.14287,0 -9.64257,10 -9.64257,10 0,0 1.06976,2.14114 -2.14454,0.35546 -3.21426,-1.78571 -6.07031,-3.57031 -6.07031,-3.57031 0,0 -2.14258,-5.35826 0.35742,-8.92969 2.50001,-3.57142 46.42774,-56.07031 46.42774,-56.07031 0,0 1.20647,-1.00471 2.5625,-0.9043 z m -233.60547,2.61915 c 0.53885,-0.0523 1.19894,0.11551 1.93555,0.78515 1.96429,1.78572 54.46484,51.25 54.46484,51.25 0,0 1.78597,1.60687 0.35742,3.39258 -1.42858,1.78571 -7.67969,8.39258 -7.67969,8.39258 0,0 -1.60575,1.96485 -4.46289,-0.53516 -2.85713,-2.5 -54.46484,-50.71484 -54.46484,-50.71484 0,0 -1.42859,-2.14258 0,-3.39258 1.42855,-1.25 8.39258,-8.39258 8.39258,-8.39258 0,0 0.55894,-0.69796 1.45703,-0.78515 z m -22.01563,27.36914 c 1.54018,-0.0223 3.5056,0.11197 6.27344,0.20117 5.53572,0.17854 14.99871,8.7497 14.82031,10.89258 -0.17858,2.14284 -8.92717,10.5357 -10.71289,11.25 -1.78571,0.71425 -6.96483,-5.89199 -9.46484,-7.67774 -2.49997,-1.78571 -2.85716,0.35742 -5,0.35742 -2.14288,0 -7.67773,-6.25028 -7.67773,-9.10742 0,0 5.89231,-4.10827 8.03515,-5.17969 1.07144,-0.53572 2.18639,-0.71403 3.72656,-0.73632 z m 85.375,6.02734 c 0.35157,0 0.71903,0.0675 1.07618,0.24609 1.42858,0.71426 4.64257,5 4.64257,5 0,0 1.2513,2.14284 0.17969,3.75 -1.07142,1.60713 -7.67969,7.14258 -7.67969,7.14258 0,0 -1.7843,1.24935 -3.21289,0.17774 -1.42854,-1.07142 -4.82226,-5 -4.82226,-5 0,0 -1.42881,-1.2489 -0.35742,-2.32032 1.07142,-1.07142 8.21484,-8.39257 8.21484,-8.39257 0,0 0.90429,-0.60351 1.95898,-0.60352 z m 202.91602,0.50586 c 1.72642,-0.10464 2.98242,0.45312 2.98242,0.45312 0,0 1.78545,2.14316 4.64258,5.35743 2.85713,3.2143 0.71484,4.64257 0.71484,4.64257 l -61.78711,45 c 0,0 0.35743,1.07227 -2.14257,1.07227 C 744.28515,795 745,791.78516 745,791.78516 c 0,0 30.71428,-35.35605 35,-38.57032 4.28572,-3.2143 15.71347,-11.42938 18.92773,-13.57226 1.20537,-0.80357 2.41142,-1.10519 3.44727,-1.16797 z m -45.41602,1.78125 c -0.14825,-0.0126 -0.32006,-0.009 -0.51171,0.006 -0.21903,0.0174 -0.46457,0.0511 -0.73243,0.0957 -2.14284,0.35713 -12.85742,12.5 -12.85742,12.5 l -0.71484,6.07031 c 0,0 10.71513,-11.42857 13.57226,-15 2.1875,-2.73436 2.28195,-3.58401 1.24414,-3.67187 z m -258.48828,2.12891 c 1.733,-0.19204 9.91021,5.16155 8.85157,8.50781 -0.54929,1.73626 -0.7157,3.57141 0.71289,5 1.42858,1.42858 36.072,34.10771 38.21484,34.46484 2.14288,0.35717 2.3206,-1.07076 3.92773,-0.17773 1.60714,0.89284 6.78741,4.9997 7.14454,7.14258 -1.53142,8.44468 -13.10166,8.26185 -17.32227,8.21289 -8.95126,-0.15586 -43.54227,-36.45774 -43.39258,-36.60743 0,0 -4.10713,-3.03458 -3.75,-9.82031 0.35717,-6.78569 0.17774,-8.39258 0.17774,-8.39258 L 498.21484,742.5 c 0.0536,-0.0643 0.14033,-0.10243 0.25586,-0.11523 z m 46.58399,9.24414 c 1.16054,-0.058 2.08789,0.87109 2.08789,0.87109 0,0 24.10661,23.57115 25.53515,25.89258 1.42859,2.32146 -0.89257,3.75 -0.89257,3.75 0,0 -2.32116,2.67943 -4.64258,3.57226 -2.32146,0.89288 -3.57112,-1.4291 -4.64258,0.53516 -1.07142,1.9643 -0.17939,6.60631 -1.07227,7.67773 -0.89283,1.07146 -0.17776,0.89343 -2.67773,-0.53515 -2.50001,-1.42855 -4.10661,-5.17888 -5.53516,-6.60742 -1.42858,-1.42859 0.35743,-4.28596 -0.89257,-6.60743 -1.25001,-2.32142 -8.21514,-9.99944 -9.82227,-10.53515 -1.60717,-0.53571 -3.57226,1.96418 -4.82227,2.14258 -1.25,0.17854 -4.10712,-1.24886 -5,-2.32032 -0.89268,-1.07142 -0.89128,-0.71542 -0.71289,-3.92968 0,0 9.64202,-11.0709 11.42774,-13.03516 0.55803,-0.61384 1.13459,-0.84472 1.66211,-0.87109 z m -42.46485,92.97461 c -0.12041,0.003 -0.26869,0.0167 -0.44726,0.0391 h 0.77344 c -0.0706,-0.0257 -0.16631,-0.0437 -0.32618,-0.0391 z m 0.32618,0.0391 c 0.72698,0.26469 -2.8638,2.04633 -2.5586,3.57226 0.35717,1.78572 2.85687,5.35574 4.64258,3.21289 1.78571,-2.14287 -1.78516,-6.78515 -1.78516,-6.78515 z m -31.48829,1.78515 c -2.14284,0.7143 -4.28405,9.2863 -2.85546,10.71485 1.42858,1.42858 3.57086,-3.21488 4.28515,-5.71485 0.71429,-2.5 -1.42969,-5 -1.42969,-5 z"
       style="fill:#000000;fill-opacity:1;stroke:none;stroke-width:13.2283"
       id="path2968" />
    <path
       d="m 666.13281,817.74609 c -1.75781,-0.067 -2.56054,2.07617 -2.56054,5.82618 0,0 5.35546,7.14146 7.85546,10.71289 2.50001,3.57142 15.71513,18.21457 21.07227,22.85742 5.35714,4.64288 15.71484,19.28515 15.71484,19.28515 0,0 1.78486,-6.42854 3.92774,-7.5 2.14284,-1.07142 19.64396,15.71594 26.42969,22.14454 6.78568,6.42856 9.28515,16.42742 11.78515,21.07031 2.50001,4.64285 6.07031,1.78626 6.07031,3.21484 0,1.42855 -1.42831,0.35661 -4.64257,1.78516 -3.2143,1.42858 3.92828,3.92969 7.14257,3.92969 3.2143,0 11.07141,-7.14457 15,-9.64454 3.92856,-2.5 8.57256,-13.57088 11.42969,-19.28515 2.85714,-5.71431 8.21374,-6.42858 9.28516,-10 1.07146,-3.57147 -5.35745,-7.1423 -10.35742,-14.28516 -5.00002,-7.14285 -21.42747,-15.00058 -26.07032,-18.21484 -4.64284,-3.2143 -34.28657,-10.00026 -41.07226,-10.35742 -6.78573,-0.35717 -26.42798,-8.92884 -31.78516,-10.35743 -5.35714,-1.42854 -13.92828,-8.21259 -17.14258,-10.35546 -0.80357,-0.53571 -1.49609,-0.80386 -2.08203,-0.82618 z m 54.22461,49.39649 c 0,0 16.78625,4.2857 23.21485,7.5 6.42856,3.2143 15.71289,14.28515 15.71289,14.28515 l 5,1.07227 -8.57032,12.14258 c 0,0 -3.21455,-9.28513 -15.35742,-19.28516 -12.14286,-9.99999 -20,-15.71484 -20,-15.71484 z m -66.07226,-50.35742 c 0,0 -16.78547,8.5717 -27.14258,12.85742 -10.35715,4.28572 -52.5,16.78515 -67.5,19.28515 -15,2.50001 -37.14173,26.78599 -38.57031,32.85743 0,0 0.71317,8.57255 6.07031,11.42968 5.35714,2.85714 9.64397,9.99915 11.42969,13.92774 1.78571,3.92855 0.35546,3.57089 0.35546,6.78515 0,3.2143 2.14342,3.57286 5.71485,4.28711 3.57142,0.7143 8.21428,-6.07226 10,-8.57226 1.78571,-2.50001 0,-5.35712 0,-7.5 0,-2.14284 20.35683,-21.42744 22.14258,-23.57031 1.78571,-2.14285 5.0011,-1.78653 3.92968,1.42773 -1.07142,3.2143 -20.35686,19.28489 -22.14257,23.92773 -1.78572,4.64285 1.42687,5 5.35546,5 3.92856,0 26.42972,-26.07089 31.42969,-29.28515 5.00001,-3.2143 9.64202,3e-4 13.92774,-2.14258 4.28572,-2.14284 43.92883,-49.64257 45.35742,-52.14258 1.42855,-2.5 -0.35742,-8.57226 -0.35742,-8.57226 z M 565.71484,880 c 1.07142,0 -13.92913,15.7143 -13.21484,12.5 0.71429,-3.21426 13.21484,-12.5 13.21484,-12.5 z"
       transform="scale(0.26458333)"
       style="fill:#000000;fill-opacity:1;stroke:none;stroke-width:13.2283"
       id="path2976" />
    <path
       transform="scale(0.26458333)"
       d="m 860,485.71484 c -2.14284,0 -3.21345,1.78542 -1.42773,2.14258 1.78571,0.35713 5.35715,3.2137 7.5,4.28516 C 868.21514,493.214 870,498.21484 870,498.21484 L 874.28516,497.5 c 0,0 5.71454,8.21513 7.85742,11.07227 2.14284,2.85713 9.64258,7.14257 9.64258,7.14257 l -5.71289,1.42774 c 0,0 4.28459,2.50114 6.07031,3.92969 1.78571,1.42858 6.07226,4.64176 6.07226,6.07031 0,1.42858 -4.64428,0.71484 -1.78711,3.21484 2.85714,2.50001 0.7157,5.71344 -0.71289,8.92774 -1.42858,3.2143 -1.7871,2.85742 -4.28711,2.85742 -2.5,0 -1.42831,2.14231 -4.64257,4.28515 -3.2143,2.14288 -12.5,7.14454 -12.5,7.14454 0,0 -4.64233,-7.50084 -4.28516,-11.07227 0.35713,-3.57143 12.14258,-15.71513 12.14258,-21.07227 0,-5.35714 -6.07031,-4.64257 -6.07031,-4.64257 0,0 1.07087,3.57226 -0.71485,3.57226 -1.78571,0 -3.92831,-4.99944 -7.14258,-6.78515 -3.2143,-1.78572 -6.42968,2.14257 -6.42968,2.14257 0,0 0.71483,-8.5e-4 3.21484,1.42774 2.50001,1.42858 -0.71484,6.42969 -0.71484,6.42969 0,0 2.14287,4.99859 0,5.71289 -2.14284,0.71425 -7.14258,-8.21289 -7.14258,-8.21289 h -6.78516 l 0.35742,2.14257 c 0,0 6.7846,9.64286 8.57032,15 1.78571,5.35714 0,4.28516 0,4.28516 0,0 -17.14258,6.78515 -17.14258,9.28516 0,2.5 8.57225,3.92832 13.57226,4.64257 4.99998,0.7143 5.35632,3.92915 6.42774,13.21485 C 863.214,578.92831 847.5,588.572 847.5,590.71484 c 0,2.14288 0.35716,0.35576 2.5,3.21289 2.14284,2.85714 -1.07171,7.85801 -0.35742,11.07227 0.71425,3.2143 2.85716,5.4e-4 2.5,3.21484 -0.35717,3.2143 -5.35627,-2.14423 -8.92774,-4.28711 -3.57142,-2.14287 -2.858,-0.35546 -6.07226,-0.35546 -3.2143,0 -2.85661,-3.57226 -4.28516,-6.07227 -1.42858,-2.50001 2.14257,-2.14372 4.64258,-3.57227 2.50001,-1.42858 0.71484,-5.71398 3.21484,-9.64257 2.49997,-3.9286 7.85742,-5.71454 10.35743,-10.35743 2.5,-4.64284 -1.7863,-6.7849 -3.21485,-6.42773 -1.42858,0.35713 -2.49999,3.21459 -5,2.85742 -2.5,-0.35713 -1.42968,-6.42828 -3.92969,-9.64258 -2.49996,-3.21426 -6.07031,1.42774 -6.07031,1.42774 0,0 0.35687,-2.6e-4 2.14258,2.14258 1.78571,2.14287 -1.0706,2.14371 -3.92773,3.57226 -2.85718,1.42859 -5.00084,-2.5 -8.57227,-2.5 -3.57143,0 -2.14258,2.85742 -2.14258,2.85742 0,0 -1.42914,0.7143 1.78516,0 3.2143,-0.71429 1.78596,3.21428 2.85742,10 1.07142,6.78573 -2.5,11.7857 -2.5,15 0,3.2143 2.85742,8.57171 2.85742,12.85743 0,4.28568 -6.07226,8.21289 -6.07226,8.21289 0,0 3.57281,0.71483 4.28711,3.21484 0.71429,2.49997 -2.85743,3.57227 -2.85743,3.57227 0,0 1.42832,1.07056 4.64258,1.42773 3.2143,0.35717 3.57116,-3.57115 4.64258,-9.64258 1.07146,-6.07139 2.50054,-4.64232 8.21484,-4.28515 5.71427,0.35712 7.49861,10.71428 5.71289,15 -1.78571,4.28568 -6.78456,-1.78572 -6.07031,0 0.71429,1.78567 1.07086,2.49885 4.28516,3.57031 3.2143,1.07142 4.64398,0.35716 3.92969,2.5 -0.7143,2.14288 -2.5,0.71484 -5,0.71484 -2.49997,0 -4.28601,5.71404 -2.85743,4.64258 1.42855,-1.07142 8.21289,-1.78516 10.71289,-1.78516 2.50001,0 1.4291,5.71373 3.21485,9.28516 1.78567,3.57143 8.92916,9.28603 13.21484,12.85742 4.28572,3.57147 5.35662,14.64287 4.28516,17.5 -1.07142,2.85717 -7.49973,2.49916 -14.64258,1.42774 -7.14285,-1.07142 -10.00003,-6.42802 -12.5,-11.78516 -2.50001,-5.35714 3.21344,-7.14287 3.92773,-10 0.7143,-2.85713 -2.49999,-6.42858 -5,-7.5 -2.5,-1.07142 -2.14257,3.21484 -2.14257,3.21484 0,0 -2.14199,-0.35826 -3.92774,-3.92968 -1.78571,-3.57143 -4.99944,-2.85629 -6.78515,-1.42774 -1.78576,1.42859 1.07031,4.2846 -1.42969,6.07031 -2.50001,1.78572 -2.50029,-1.07086 -5.35742,-1.78515 -2.85714,-0.71429 -6.42774,0.35686 -6.42774,2.14258 0,1.78571 2.49919,1.42938 3.92774,3.57226 1.42858,2.14284 -1.42715,2.85771 -0.71289,5.71485 0.71429,2.85713 4.9997,0.3566 7.14257,4.28515 2.14281,3.92859 0.35716,5.35686 2.5,9.64258 2.14288,4.28572 5.35627,2.14312 8.92774,7.85742 3.57142,5.71427 0.71483,15.71403 5.71484,19.64258 3.54635,2.78643 3.66986,4.47456 3.44727,5.23242 0.56069,-1.13944 2.47936,-5.35851 1.55273,-8.44726 -1.07142,-3.57143 -4.28542,-6.7846 -2.14258,-8.57032 2.14288,-1.78571 3.57141,1.42718 7.5,3.21289 3.92856,1.78576 5.35689,0.71566 12.14258,1.78711 6.78573,1.07142 2.14258,4.64258 2.14258,4.64258 l -7.14258,3.57031 c 0,0 5.35658,1.42884 4.28516,2.85743 -1.07146,1.42858 -3.92829,8.21458 -2.14258,7.85742 1.78571,-0.35713 5.35742,-3.21485 5.35742,-3.21485 0,0 -2.5,5.00111 0,3.92969 2.50001,-1.07138 5.35742,0.35742 5.35742,0.35742 0,0 6.07087,8.21373 4.28516,11.78516 -1.78571,3.57146 -3.57227,2.85742 -3.57227,2.85742 0,0 10.71459,7.50054 10.35743,13.21485 -0.35717,5.71426 -12.85605,11.42692 -16.07032,12.85546 -3.2143,1.42859 -3.57226,5.35743 -6.07226,5.35743 -2.50001,0 -3.57197,-9.64202 -5.71485,-13.92774 -2.14284,-4.28568 -7.85546,-2.85742 -7.85546,-2.85742 0,0 -0.71594,3.57227 -4.64454,3.57227 -3.92855,0 -7.85576,4.2857 -5.71289,5 2.14284,0.71429 2.49864,1.42776 3.21289,3.92773 0.7143,2.50001 5.35801,5.35742 8.57227,7.85742 3.2143,2.50001 7.85631,6.07056 8.92773,8.92774 1.07142,2.85713 8.57227,7.85742 8.57227,7.85742 0,0 4.99947,1.78515 11.78516,4.28515 6.78572,2.50001 7.5,8.57227 7.5,8.57227 0,0 3.2151,-4.28489 3.57226,-6.42773 0.35713,-2.14288 -0.71484,-5.35742 -3.21484,-7.85743 -2.50001,-2.5 -9.64343,-3.92912 -10.71485,-8.21484 -1.07142,-4.28568 11.42968,-13.92884 16.42969,-12.85742 4.99998,1.07142 -1.07226,8.21484 -1.07226,8.21484 0,0 9.64397,-3.57115 11.42968,-7.14258 1.78572,-3.57142 -5.5e-4,-10.35854 1.78516,-19.28711 1.78575,-8.92856 9.64202,-10.35686 11.42773,-12.14257 1.78572,-1.78575 11.786,-15.35632 15.35743,-16.42774 3.57142,-1.07142 7.85716,7.14202 7.5,8.92774 -0.35713,1.78571 -6.7846,3.92858 -8.57032,5 -1.78571,1.07142 -1.42828,3.21513 -2.14257,6.07226 -0.7143,2.85717 5.71403,9.28515 4.64257,14.28516 -1.07142,4.99997 -13.92943,0.71425 -13.57226,2.5 0.35713,1.78567 7.14286,3.57116 10,4.64258 2.85717,1.07142 15.71399,-2.14177 17.14258,-1.07032 1.42854,1.07142 -2.85632,4.64284 -1.42774,5 1.42859,0.35717 12.14342,-7.50139 15.71485,-11.78711 3.57142,-4.28572 6.78518,-18.57005 9.28515,-20.71289 2.50001,-2.14287 14.64343,2.14232 15.71485,4.28516 1.07145,2.14288 -2.85798,2.14287 -3.57227,5 -0.71426,2.85713 6.78654,1.78516 13.57227,1.78516 6.78563,0 7.49943,3.92858 9.28513,2.5 1.7858,-1.42859 -3.5714,-9.64201 -7.49998,-16.42774 -3.92855,-6.78572 -13.92799,-8.92969 -14.28515,-6.42969 -0.35713,2.50001 2.14118,2.5014 0.35546,4.28711 -1.78571,1.78572 -6.78403,1.42748 -12.85546,1.07032 -6.07144,-0.35713 -7.50112,-7.4997 -3.92969,-9.64258 3.57142,-2.14284 6.07116,1.07168 4.64258,-2.14258 -1.42859,-3.2143 -8.21289,-5.35683 -10.71289,-7.14258 -2.50001,-1.78567 5.71289,-1.072 5.71289,-3.21484 0,-2.14284 -6.42773,-2.14284 -8.92774,-2.5 -2.5,-0.35713 -1.78629,-0.35687 -3.21484,-2.14258 -1.42859,-1.78571 3.92884,-2.50084 2.85742,-6.07227 -1.07142,-3.57142 -12.14313,3e-4 -12.85742,-2.14257 -0.71429,-2.14284 3.57201,-3.92748 3.21484,-6.07032 -0.35713,-2.14287 -4.99944,-2.14342 -6.78515,-3.21484 -1.78572,-1.07142 -0.71485,-10 -0.71485,-10 0,0 -7.14231,-13.57089 -9.28515,-16.78516 C 928.92939,645.00054 924.28516,645 924.28516,645 l 1.42968,-3.57227 c 0,0 -1.42913,-1.78515 -3.21484,-4.28515 C 920.71429,634.64257 920.71484,625 920.71484,625 c 0,0 4.99863,2.85797 8.21289,3.57227 3.17097,0.70466 7.34791,-3.42479 7.46094,-3.53711 -0.055,0.0905 1.11401,-0.0701 19.6836,-6.46289 21.78572,-7.50002 28.21289,-20.35743 28.21289,-20.35743 0,0 -19.64315,7.14313 -27.85743,7.85743 -8.21431,0.71429 -12.4983,1.07061 -12.85546,-1.07227 -0.35713,-2.14284 7.14257,-1.07227 7.14257,-1.07227 0,0 3.21428,-4.28518 7.5,-6.78515 4.28572,-2.50001 12.14258,-3.57059 27.14258,-11.42774 14.99998,-7.85714 20.35768,-32.14396 20.71488,-36.42968 0.3572,-4.28572 3.2129,-17.85743 3.2129,-17.85743 0,0 -22.85579,32.85826 -30.71293,38.92969 -7.85715,6.07143 -19.64316,7.14313 -22.85743,7.85742 -3.2143,0.7143 -15.35742,6.42774 -15.35742,6.42774 0,0 -1.07253,0.35799 3.57031,-6.42774 4.64289,-6.78572 0,-21.78711 0,-21.78711 0,0 -4.99858,11.0731 -10.71289,17.14454 -5.71426,6.07143 -14.28711,9.28515 -14.28711,9.28515 0,0 0.35857,-5.3566 1.78711,-9.28515 1.42859,-3.9286 8.21289,-13.92995 10.71289,-14.28711 2.50001,-0.35717 3.57253,-0.35661 3.92969,-1.78516 0.35713,-1.42859 -4.64339,-7.50058 -3.21484,-10.71484 1.42858,-3.2143 8.21484,-3.9283 8.21484,-2.14258 0,1.78571 -8.5e-4,3.21428 1.42774,5 1.42858,1.78571 0.71483,-2.9e-4 3.21484,-2.85742 2.50001,-2.85718 -3.92773,-13.92744 -3.92773,-16.07032 0,-2.14284 3.57112,0.71316 4.64257,-1.42968 1.07142,-2.14288 -1.07201,-2.4986 1.78516,-3.21289 2.85713,-0.7143 4.28516,5 4.28516,5 0,0 -0.714,-7.5 0.35742,-10 1.07142,-2.49997 10.71484,-11.78711 10.71484,-11.78711 l -10,2.85742 c 0,0 -2.85827,-0.35687 -1.42969,-2.14258 1.42855,-1.78571 1.78711,-6.07227 1.78711,-6.07227 0,0 -0.35686,-1.78516 -2.14257,0.71485 -1.78572,2.5 -4.64456,2.14258 -9.64454,2.14258 -5.00001,0 -10.71258,-7.14177 -15.35546,-8.57032 -4.64285,-1.42858 -6.78655,1.07057 -11.07227,1.42774 -4.28572,0.35713 -9.28518,-5.71429 -14.28516,-7.5 -5.00001,-1.78575 -8.21569,0.71484 -6.78711,0.71484 1.42855,0 3.21485,2.85742 3.21485,5.35742 0,2.49997 -5.00026,3.92829 -2.85742,4.64258 2.14287,0.71429 2.14372,4.64173 1.07226,6.07031 -1.07142,1.42855 -5.71513,-0.71399 -8.57226,-2.14257 -2.85718,-1.42859 -7.85742,-8.21403 -10.35743,-12.14258 -2.5,-3.92859 4.64395,-1.7849 1.42969,-3.92774 -3.2143,-2.14284 -15.71454,-5 -17.85742,-5 z m -13.69531,219.51758 c -0.0876,0.17805 -0.23242,0.48242 -0.23242,0.48242 0,0 0.14118,-0.17177 0.23242,-0.48242 z m 66.11523,-192.70703 c 0,0 6.31456,0.63302 9.21875,1.39063 2.90415,0.7576 5.17648,1.64131 2.77735,6.81836 -2.3991,5.17702 -12.1211,-6.69336 -12.1211,-6.69336 l -1.39062,-0.88282 z m -79.82617,74.61719 c 0.31789,0.0128 0.6241,0.0559 0.9082,0.13476 0,0 -1.26269,2.14737 -2.52539,3.03125 -1.26266,0.88388 -3.66139,0.75613 -3.53515,-0.63281 0.11049,-1.21535 2.92709,-2.62296 5.15234,-2.5332 z m 111.66211,137.32226 c 3.08595,0.22461 4.9414,4.61913 5.56641,6.96289 0.71429,2.67856 -2.67943,5.89454 -6.07227,5.89454 -3.39288,0 -5.53516,-5.5374 -5.53516,-8.39454 0,0 0.71403,-3.03515 4.64258,-4.28515 0.49108,-0.15625 0.95759,-0.20982 1.39844,-0.17774 z"
       style="fill:#000000;fill-opacity:1;stroke:none;stroke-width:13.2283"
       id="path2986" />
  </g>
  <g
     sodipodi:insensitive="true"
     inkscape:label="Layer 1"
     inkscape:groupmode="layer"
     id="layer1"
     style="display:none;opacity:0.38" />
</svg>
