<?xml version="1.0" encoding="UTF-8" standalone="no"?>
<svg
   xmlns:dc="http://purl.org/dc/elements/1.1/"
   xmlns:cc="http://creativecommons.org/ns#"
   xmlns:rdf="http://www.w3.org/1999/02/22-rdf-syntax-ns#"
   xmlns:svg="http://www.w3.org/2000/svg"
   xmlns="http://www.w3.org/2000/svg"
   xmlns:xlink="http://www.w3.org/1999/xlink"
   xmlns:sodipodi="http://sodipodi.sourceforge.net/DTD/sodipodi-0.dtd"
   xmlns:inkscape="http://www.inkscape.org/namespaces/inkscape"
   inkscape:export-ydpi="300"
   inkscape:export-xdpi="300"
   inkscape:export-filename="D:\Titipan\Projects\Codes\Rhodes Wiki Indo\Icon Assets\Higashi_W.png"
   width="1280"
   height="1280"
   viewBox="0 0 338.66666 338.66668"
   version="1.1"
   id="svg8"
   inkscape:version="1.0 (4035a4fb49, 2020-05-01)"
   sodipodi:docname="Lee_Z.svg">
  <defs
     id="defs2">
    <pattern
       inkscape:collect="always"
       xlink:href="#pattern4166"
       id="pattern4174"
       patternTransform="translate(-51.833686,-17.277895)" />
    <inkscape:path-effect
       end_linecap_type="zerowidth"
       scale_width="1"
       miter_limit="4"
       linejoin_type="extrp_arc"
       start_linecap_type="zerowidth"
       interpolator_beta="0.2"
       interpolator_type="CubicBezierJohan"
       sort_points="true"
       offset_points="0,3.40217"
       lpeversion="1"
       is_visible="true"
       id="path-effect892"
       effect="powerstroke" />
    <inkscape:path-effect
       end_linecap_type="zerowidth"
       scale_width="1"
       miter_limit="4"
       linejoin_type="extrp_arc"
       start_linecap_type="zerowidth"
       interpolator_beta="0.2"
       interpolator_type="CubicBezierJohan"
       sort_points="true"
       offset_points="0,3.40217"
       lpeversion="1"
       is_visible="true"
       id="path-effect887"
       effect="powerstroke" />
    <inkscape:path-effect
       end_linecap_type="zerowidth"
       scale_width="1"
       miter_limit="4"
       linejoin_type="extrp_arc"
       start_linecap_type="zerowidth"
       interpolator_beta="0.2"
       interpolator_type="CubicBezierJohan"
       sort_points="true"
       offset_points="2.7941224,-3.4021738 | 2.7941224,-3.4021738"
       lpeversion="1"
       is_visible="true"
       id="path-effect882"
       effect="powerstroke" />
    <inkscape:path-effect
       end_linecap_type="zerowidth"
       scale_width="1"
       miter_limit="4"
       linejoin_type="extrp_arc"
       start_linecap_type="zerowidth"
       interpolator_beta="0.2"
       interpolator_type="CubicBezierJohan"
       sort_points="true"
       offset_points="0,3.01003"
       lpeversion="1"
       is_visible="true"
       id="path-effect877"
       effect="powerstroke" />
    <inkscape:path-effect
       end_linecap_type="zerowidth"
       scale_width="1"
       miter_limit="4"
       linejoin_type="extrp_arc"
       start_linecap_type="zerowidth"
       interpolator_beta="0.2"
       interpolator_type="CubicBezierJohan"
       sort_points="true"
       offset_points="0,3.01003"
       lpeversion="1"
       is_visible="true"
       id="path-effect872"
       effect="powerstroke" />
    <inkscape:path-effect
       end_linecap_type="zerowidth"
       scale_width="1"
       miter_limit="4"
       linejoin_type="extrp_arc"
       start_linecap_type="zerowidth"
       interpolator_beta="0.2"
       interpolator_type="CubicBezierJohan"
       sort_points="true"
       offset_points="11.631982,3.0100329"
       lpeversion="1"
       is_visible="true"
       id="path-effect868"
       effect="powerstroke" />
    <inkscape:path-effect
       end_linecap_type="zerowidth"
       scale_width="1"
       miter_limit="4"
       linejoin_type="extrp_arc"
       start_linecap_type="zerowidth"
       interpolator_beta="0.2"
       interpolator_type="CubicBezierJohan"
       sort_points="true"
       offset_points="156.61386,0.938298"
       lpeversion="1"
       is_visible="true"
       id="path-effect864"
       effect="powerstroke" />
    <pattern
       patternUnits="userSpaceOnUse"
       width="34.555802"
       height="34.555802"
       patternTransform="translate(697.97451,522.68951)"
       id="pattern4166">
      <circle
         r="5.0119109"
         cy="17.277901"
         cx="5.0119109"
         id="path4156"
         style="opacity:1;fill:#000000;fill-opacity:1;stroke:none;stroke-width:2.83465;stroke-miterlimit:4;stroke-dasharray:none;stroke-opacity:1" />
      <circle
         style="opacity:1;fill:#000000;fill-opacity:1;stroke:none;stroke-width:2.83465;stroke-miterlimit:4;stroke-dasharray:none;stroke-opacity:1"
         id="circle4160"
         cx="29.543892"
         cy="17.277901"
         r="5.0119109" />
      <circle
         style="opacity:1;fill:#000000;fill-opacity:1;stroke:none;stroke-width:2.83465;stroke-miterlimit:4;stroke-dasharray:none;stroke-opacity:1"
         id="circle4162"
         cx="17.277901"
         cy="29.543892"
         r="5.0119109" />
      <circle
         r="5.0119109"
         cy="5.0119109"
         cx="17.277901"
         id="circle4164"
         style="opacity:1;fill:#000000;fill-opacity:1;stroke:none;stroke-width:2.83465;stroke-miterlimit:4;stroke-dasharray:none;stroke-opacity:1" />
    </pattern>
    <pattern
       patternUnits="userSpaceOnUse"
       width="48.869282"
       height="48.869282"
       patternTransform="translate(690.81773,515.53278)"
       id="pattern4176">
      <rect
         id="rect4172"
         y="-17.277901"
         x="-51.833702"
         height="34.555801"
         width="34.555801"
         transform="rotate(-135)"
         style="display:inline;fill:url(#pattern4174);stroke:none;stroke-width:0.999999" />
    </pattern>
  </defs>
  <sodipodi:namedview
     inkscape:snap-bbox-midpoints="false"
     inkscape:snap-bbox="false"
     inkscape:snap-midpoints="true"
     inkscape:guide-bbox="true"
     showguides="true"
     inkscape:snap-global="false"
     id="base"
     pagecolor="#910000"
     bordercolor="#666666"
     borderopacity="1.0"
     inkscape:pageopacity="0"
     inkscape:pageshadow="2"
     inkscape:zoom="0.45366737"
     inkscape:cx="345.89966"
     inkscape:cy="736.1693"
     inkscape:document-units="mm"
     inkscape:current-layer="layer1"
     inkscape:document-rotation="0"
     showgrid="false"
     units="px"
     inkscape:pagecheckerboard="false" />
  <metadata
     id="metadata5">
    <rdf:RDF>
      <cc:Work
         rdf:about="">
        <dc:format>image/svg+xml</dc:format>
        <dc:type
           rdf:resource="http://purl.org/dc/dcmitype/StillImage" />
        <dc:title />
      </cc:Work>
    </rdf:RDF>
  </metadata>
  <g
     style="display:inline;opacity:1"
     inkscape:groupmode="layer"
     id="layer3"
     inkscape:label="Objects">
    <path
       inkscape:export-ydpi="300"
       inkscape:export-xdpi="300"
       style="opacity:1;fill:#000000;fill-opacity:1;stroke:none;stroke-width:0.750001;stroke-miterlimit:4;stroke-dasharray:none;stroke-opacity:1"
       d="m 160.24485,177.55353 18.00661,-12.00441 -21.21709,-29.45266 c 0,0 -0.83752,-1.11669 -0.83752,-3.48966 0,-2.37296 0.13959,-8.37517 0.13959,-8.37517 0,0 -0.55835,-5.44385 -5.16469,-5.30427 -4.60634,0.13959 -40.61955,0 -40.61955,0 0,0 -5.0251,0.27918 -5.16469,4.74593 -0.13958,4.46676 0,38.94452 0,38.94452 0,0 0.55834,4.32718 5.0251,4.32718 h 8.93351 l 3.21048,4.60634 17.72744,-12.144 -7.53765,-9.77102 c -10.71804,0.88027 -10.48547,-9.98847 -5.42794,-13.37651 4.96538,-3.3263 14.69238,0.74447 11.43014,10.30561 z"
       id="path1747"
       sodipodi:nodetypes="cccscscscsccccscc" />
    <path
       inkscape:export-ydpi="300"
       inkscape:export-xdpi="300"
       transform="scale(0.26458333)"
       d="m 798.39453,445.85547 c -2.20543,0.002 -4.14377,8.4e-4 -6.36719,0.004 a 5.5394797,5.5394797 0 0 0 -2.35351,4.53124 5.5394797,5.5394797 0 0 0 5.54101,5.53907 5.5394797,5.5394797 0 0 0 5.53907,-5.53907 5.5394797,5.5394797 0 0 0 -2.35938,-4.53515 z m 41.61328,0.0195 a 5.5394797,5.5394797 0 0 0 -2.33398,4.51562 5.5394797,5.5394797 0 0 0 5.54101,5.53907 5.5394797,5.5394797 0 0 0 5.53907,-5.53907 5.5394797,5.5394797 0 0 0 -2.29883,-4.49218 c -1.91596,-0.0113 -4.26981,-0.0159 -6.44727,-0.0234 z m -93.47265,0.082 c -2.06714,0.008 -4.74486,0.01 -6.66407,0.0176 a 5.5394797,5.5394797 0 0 0 -2.19726,4.41601 5.5394797,5.5394797 0 0 0 5.54101,5.53907 5.5394797,5.5394797 0 0 0 5.53907,-5.53907 5.5394797,5.5394797 0 0 0 -2.21875,-4.43359 z m -29.32032,0.89453 a 5.5394797,5.5394797 0 0 0 -5.54101,5.53906 5.5394797,5.5394797 0 0 0 5.54101,5.53907 5.5394797,5.5394797 0 0 0 5.53907,-5.53907 5.5394797,5.5394797 0 0 0 -5.53907,-5.53906 z m 52,0 a 5.5394797,5.5394797 0 0 0 -5.54101,5.53906 5.5394797,5.5394797 0 0 0 5.54101,5.53907 5.5394797,5.5394797 0 0 0 5.53907,-5.53907 5.5394797,5.5394797 0 0 0 -5.53907,-5.53906 z m 48,0 a 5.5394797,5.5394797 0 0 0 -5.54101,5.53906 5.5394797,5.5394797 0 0 0 5.54101,5.53907 5.5394797,5.5394797 0 0 0 5.53907,-5.53907 5.5394797,5.5394797 0 0 0 -5.53907,-5.53906 z m 49.94532,0.39453 a 5.5394797,5.5394797 0 0 0 -3.48633,5.14453 5.5394797,5.5394797 0 0 0 5.54101,5.53907 5.5394797,5.5394797 0 0 0 5.47657,-4.70899 c -1.728,-2.46172 -4.15175,-4.67774 -7.53125,-5.97461 z M 704.21484,457.8515 a 5.5394797,5.5394797 0 0 0 -5.54101,5.53906 5.5394797,5.5394797 0 0 0 5.54101,5.53907 5.5394797,5.5394797 0 0 0 5.53907,-5.53907 5.5394797,5.5394797 0 0 0 -5.53907,-5.53906 z m 26,0 a 5.5394797,5.5394797 0 0 0 -5.54101,5.53906 5.5394797,5.5394797 0 0 0 5.54101,5.53907 5.5394797,5.5394797 0 0 0 5.53907,-5.53907 5.5394797,5.5394797 0 0 0 -5.53907,-5.53906 z m 26,0 a 5.5394797,5.5394797 0 0 0 -5.54101,5.53906 5.5394797,5.5394797 0 0 0 5.54101,5.53907 5.5394797,5.5394797 0 0 0 5.53907,-5.53907 5.5394797,5.5394797 0 0 0 -5.53907,-5.53906 z m 26,0 a 5.5394797,5.5394797 0 0 0 -5.54101,5.53906 5.5394797,5.5394797 0 0 0 5.54101,5.53907 5.5394797,5.5394797 0 0 0 5.53907,-5.53907 5.5394797,5.5394797 0 0 0 -5.53907,-5.53906 z m 26,0 a 5.5394797,5.5394797 0 0 0 -5.54101,5.53906 5.5394797,5.5394797 0 0 0 5.54101,5.53907 5.5394797,5.5394797 0 0 0 5.53907,-5.53907 5.5394797,5.5394797 0 0 0 -5.53907,-5.53906 z m 22,0 a 5.5394797,5.5394797 0 0 0 -5.54101,5.53906 5.5394797,5.5394797 0 0 0 5.54101,5.53907 5.5394797,5.5394797 0 0 0 5.53907,-5.53907 5.5394797,5.5394797 0 0 0 -5.53907,-5.53906 z m 26,0 a 5.5394797,5.5394797 0 0 0 -5.54101,5.53906 5.5394797,5.5394797 0 0 0 5.54101,5.53907 5.5394797,5.5394797 0 0 0 5.53907,-5.53907 5.5394797,5.5394797 0 0 0 -5.53907,-5.53906 z m 21.66016,2.09571 a 5.5394797,5.5394797 0 0 0 -1.20117,3.44335 5.5394797,5.5394797 0 0 0 2.30273,4.49415 c 7.2e-4,-0.18974 0.008,-2.30274 0.008,-2.30274 0,0 -0.15082,-2.46658 -1.10938,-5.63476 z M 717.21484,470.8515 a 5.5394797,5.5394797 0 0 0 -5.54101,5.53906 5.5394797,5.5394797 0 0 0 5.54101,5.53907 5.5394797,5.5394797 0 0 0 5.53907,-5.53907 5.5394797,5.5394797 0 0 0 -5.53907,-5.53906 z m 26,0 a 5.5394797,5.5394797 0 0 0 -5.54101,5.53906 5.5394797,5.5394797 0 0 0 5.54101,5.53907 5.5394797,5.5394797 0 0 0 5.53907,-5.53907 5.5394797,5.5394797 0 0 0 -5.53907,-5.53906 z m 26,0 a 5.5394797,5.5394797 0 0 0 -5.54101,5.53906 5.5394797,5.5394797 0 0 0 5.54101,5.53907 5.5394797,5.5394797 0 0 0 5.53907,-5.53907 5.5394797,5.5394797 0 0 0 -5.53907,-5.53906 z m 26,0 a 5.5394797,5.5394797 0 0 0 -5.54101,5.53906 5.5394797,5.5394797 0 0 0 5.54101,5.53907 5.5394797,5.5394797 0 0 0 5.53907,-5.53907 5.5394797,5.5394797 0 0 0 -5.53907,-5.53906 z m 22,0 a 5.5394797,5.5394797 0 0 0 -5.54101,5.53906 5.5394797,5.5394797 0 0 0 5.54101,5.53907 5.5394797,5.5394797 0 0 0 5.53907,-5.53907 5.5394797,5.5394797 0 0 0 -5.53907,-5.53906 z m 26,0 a 5.5394797,5.5394797 0 0 0 -5.54101,5.53906 5.5394797,5.5394797 0 0 0 5.54101,5.53907 5.5394797,5.5394797 0 0 0 5.53907,-5.53907 5.5394797,5.5394797 0 0 0 -5.53907,-5.53906 z m 26,0 a 5.5394797,5.5394797 0 0 0 -5.54101,5.53906 5.5394797,5.5394797 0 0 0 5.54101,5.53907 5.5394797,5.5394797 0 0 0 5.53907,-5.53907 5.5394797,5.5394797 0 0 0 -5.53907,-5.53906 z m -165,13 a 5.5394797,5.5394797 0 0 0 -5.54101,5.53906 5.5394797,5.5394797 0 0 0 5.54101,5.53907 5.5394797,5.5394797 0 0 0 5.53907,-5.53907 5.5394797,5.5394797 0 0 0 -5.53907,-5.53906 z m 26,0 a 5.5394797,5.5394797 0 0 0 -5.54101,5.53906 5.5394797,5.5394797 0 0 0 5.54101,5.53907 5.5394797,5.5394797 0 0 0 5.53907,-5.53907 5.5394797,5.5394797 0 0 0 -5.53907,-5.53906 z m 26,0 a 5.5394797,5.5394797 0 0 0 -5.54101,5.53906 5.5394797,5.5394797 0 0 0 5.54101,5.53907 5.5394797,5.5394797 0 0 0 5.53907,-5.53907 5.5394797,5.5394797 0 0 0 -5.53907,-5.53906 z m 26,0 a 5.5394797,5.5394797 0 0 0 -5.54101,5.53906 5.5394797,5.5394797 0 0 0 5.54101,5.53907 5.5394797,5.5394797 0 0 0 5.53907,-5.53907 5.5394797,5.5394797 0 0 0 -5.53907,-5.53906 z m 22,0 a 5.5394797,5.5394797 0 0 0 -5.54101,5.53906 5.5394797,5.5394797 0 0 0 5.54101,5.53907 5.5394797,5.5394797 0 0 0 5.53907,-5.53907 5.5394797,5.5394797 0 0 0 -5.53907,-5.53906 z m 26,0 a 5.5394797,5.5394797 0 0 0 -5.54101,5.53906 5.5394797,5.5394797 0 0 0 5.54101,5.53907 5.5394797,5.5394797 0 0 0 5.53907,-5.53907 5.5394797,5.5394797 0 0 0 -5.53907,-5.53906 z m 26,0 a 5.5394797,5.5394797 0 0 0 -5.54101,5.53906 5.5394797,5.5394797 0 0 0 5.54101,5.53907 5.5394797,5.5394797 0 0 0 5.53907,-5.53907 5.5394797,5.5394797 0 0 0 -5.53907,-5.53906 z m 22.70313,1.08789 a 5.5394797,5.5394797 0 0 0 -2.24414,4.45117 5.5394797,5.5394797 0 0 0 2.21875,4.43555 c 0.0113,-3.39496 0.016,-6.00063 0.0273,-8.88672 z m -135.70313,9.91211 a 5.5394797,5.5394797 0 0 0 -5.54101,5.53906 5.5394797,5.5394797 0 0 0 5.54101,5.53907 5.5394797,5.5394797 0 0 0 5.53907,-5.53907 5.5394797,5.5394797 0 0 0 -5.53907,-5.53906 z m 52,0 a 5.5394797,5.5394797 0 0 0 -5.54101,5.53906 5.5394797,5.5394797 0 0 0 5.54101,5.53907 5.5394797,5.5394797 0 0 0 5.53907,-5.53907 5.5394797,5.5394797 0 0 0 -5.53907,-5.53906 z m 48,0 a 5.5394797,5.5394797 0 0 0 -5.54101,5.53906 5.5394797,5.5394797 0 0 0 5.54101,5.53907 5.5394797,5.5394797 0 0 0 5.53907,-5.53907 5.5394797,5.5394797 0 0 0 -5.53907,-5.53906 z m -126,2 a 5.5394797,5.5394797 0 0 0 -5.54101,5.53906 5.5394797,5.5394797 0 0 0 5.54101,5.53907 5.5394797,5.5394797 0 0 0 5.53907,-5.53907 5.5394797,5.5394797 0 0 0 -5.53907,-5.53906 z m 52,0 a 5.5394797,5.5394797 0 0 0 -5.54101,5.53906 5.5394797,5.5394797 0 0 0 5.54101,5.53907 5.5394797,5.5394797 0 0 0 5.53907,-5.53907 5.5394797,5.5394797 0 0 0 -5.53907,-5.53906 z m 48,0 a 5.5394797,5.5394797 0 0 0 -5.54101,5.53906 5.5394797,5.5394797 0 0 0 5.54101,5.53907 5.5394797,5.5394797 0 0 0 5.53907,-5.53907 5.5394797,5.5394797 0 0 0 -5.53907,-5.53906 z m 52,0 a 5.5394797,5.5394797 0 0 0 -5.54101,5.53906 5.5394797,5.5394797 0 0 0 5.54101,5.53907 5.5394797,5.5394797 0 0 0 5.53907,-5.53907 5.5394797,5.5394797 0 0 0 -5.53907,-5.53906 z m -172.55468,2.52735 -8.48828,5.63867 a 5.5394797,5.5394797 0 0 0 3.04296,0.91211 5.5394797,5.5394797 0 0 0 5.53907,-5.53907 5.5394797,5.5394797 0 0 0 -0.0938,-1.01171 z m 7.55468,8.47265 a 5.5394797,5.5394797 0 0 0 -5.54101,5.53906 5.5394797,5.5394797 0 0 0 5.54101,5.53907 5.5394797,5.5394797 0 0 0 5.53907,-5.53907 5.5394797,5.5394797 0 0 0 -5.53907,-5.53906 z m 26,0 a 5.5394797,5.5394797 0 0 0 -5.54101,5.53906 5.5394797,5.5394797 0 0 0 5.54101,5.53907 5.5394797,5.5394797 0 0 0 5.53907,-5.53907 5.5394797,5.5394797 0 0 0 -5.53907,-5.53906 z m 26,0 a 5.5394797,5.5394797 0 0 0 -5.54101,5.53906 5.5394797,5.5394797 0 0 0 5.54101,5.53907 5.5394797,5.5394797 0 0 0 5.53907,-5.53907 5.5394797,5.5394797 0 0 0 -5.53907,-5.53906 z m 26,0 a 5.5394797,5.5394797 0 0 0 -5.54101,5.53906 5.5394797,5.5394797 0 0 0 2.19336,4.41602 c 2.57484,-0.92372 5.30292,-1.4316 8.08008,-1.54102 a 5.5394797,5.5394797 0 0 0 0.80664,-2.875 5.5394797,5.5394797 0 0 0 -5.53907,-5.53906 z m 26,0 a 5.5394797,5.5394797 0 0 0 -5.54101,5.53906 5.5394797,5.5394797 0 0 0 5.54101,5.53907 5.5394797,5.5394797 0 0 0 5.53907,-5.53907 5.5394797,5.5394797 0 0 0 -5.53907,-5.53906 z m 22,0 a 5.5394797,5.5394797 0 0 0 -5.54101,5.53906 5.5394797,5.5394797 0 0 0 5.54101,5.53907 5.5394797,5.5394797 0 0 0 5.53907,-5.53907 5.5394797,5.5394797 0 0 0 -5.53907,-5.53906 z m 26,0 a 5.5394797,5.5394797 0 0 0 -5.54101,5.53906 5.5394797,5.5394797 0 0 0 5.54101,5.53907 5.5394797,5.5394797 0 0 0 5.53907,-5.53907 5.5394797,5.5394797 0 0 0 -5.53907,-5.53906 z m 22.63868,1.13477 a 5.5394797,5.5394797 0 0 0 -2.17969,4.40429 5.5394797,5.5394797 0 0 0 2.1582,4.38672 c 0.008,-3.09668 0.0159,-5.84933 0.0234,-8.79101 z m -196.99805,0.22851 -8.90235,5.91407 a 5.5394797,5.5394797 0 0 0 5.26172,3.80078 5.5394797,5.5394797 0 0 0 5.53907,-5.53907 5.5394797,5.5394797 0 0 0 -1.89844,-4.17578 z m -16.64063,11.63672 a 5.5394797,5.5394797 0 0 0 -1.01953,0.0957 l -3.60742,2.39648 a 5.5394797,5.5394797 0 0 0 -0.91406,3.04687 5.5394797,5.5394797 0 0 0 5.54101,5.53907 5.5394797,5.5394797 0 0 0 5.53907,-5.53907 5.5394797,5.5394797 0 0 0 -5.53907,-5.53906 z m 26,0 a 5.5394797,5.5394797 0 0 0 -5.54101,5.53906 5.5394797,5.5394797 0 0 0 5.54101,5.53907 5.5394797,5.5394797 0 0 0 5.53907,-5.53907 5.5394797,5.5394797 0 0 0 -5.53907,-5.53906 z m 26,0 a 5.5394797,5.5394797 0 0 0 -5.54101,5.53906 5.5394797,5.5394797 0 0 0 5.54101,5.53907 5.5394797,5.5394797 0 0 0 5.53907,-5.53907 5.5394797,5.5394797 0 0 0 -5.53907,-5.53906 z m 26,0 a 5.5394797,5.5394797 0 0 0 -5.54101,5.53906 5.5394797,5.5394797 0 0 0 5.54101,5.53907 5.5394797,5.5394797 0 0 0 5.53907,-5.53907 5.5394797,5.5394797 0 0 0 -5.53907,-5.53906 z m 26,0 a 5.5394797,5.5394797 0 0 0 -5.54101,5.53906 5.5394797,5.5394797 0 0 0 1.77344,4.0625 c 1.62463,-3.70518 3.8949,-6.62515 6.58789,-8.82812 a 5.5394797,5.5394797 0 0 0 -2.82032,-0.77344 z m 48,0 a 5.5394797,5.5394797 0 0 0 -5.54101,5.53906 5.5394797,5.5394797 0 0 0 0.008,0.24024 c 0.63969,0.74373 1.2515,1.50915 1.79492,2.32031 0.54184,0.80882 1.01585,1.64259 1.45703,2.48633 a 5.5394797,5.5394797 0 0 0 2.28321,0.49219 5.5394797,5.5394797 0 0 0 5.53906,-5.53907 5.5394797,5.5394797 0 0 0 -5.53906,-5.53906 z m 26,0 a 5.5394797,5.5394797 0 0 0 -5.54101,5.53906 5.5394797,5.5394797 0 0 0 5.54101,5.53907 5.5394797,5.5394797 0 0 0 5.53907,-5.53907 5.5394797,5.5394797 0 0 0 -5.53907,-5.53906 z m 26,0 a 5.5394797,5.5394797 0 0 0 -5.54101,5.53906 5.5394797,5.5394797 0 0 0 5.54101,5.53907 5.5394797,5.5394797 0 0 0 5.53907,-5.53907 5.5394797,5.5394797 0 0 0 -5.53907,-5.53906 z m -217,13 a 5.5394797,5.5394797 0 0 0 -5.54101,5.53906 5.5394797,5.5394797 0 0 0 5.54101,5.53907 5.5394797,5.5394797 0 0 0 5.53907,-5.53907 5.5394797,5.5394797 0 0 0 -5.53907,-5.53906 z m 26,0 a 5.5394797,5.5394797 0 0 0 -5.54101,5.53906 5.5394797,5.5394797 0 0 0 5.54101,5.53907 5.5394797,5.5394797 0 0 0 5.53907,-5.53907 5.5394797,5.5394797 0 0 0 -5.53907,-5.53906 z m 26,0 a 5.5394797,5.5394797 0 0 0 -5.54101,5.53906 5.5394797,5.5394797 0 0 0 5.54101,5.53907 5.5394797,5.5394797 0 0 0 5.53907,-5.53907 5.5394797,5.5394797 0 0 0 -5.53907,-5.53906 z m 26,0 a 5.5394797,5.5394797 0 0 0 -5.54101,5.53906 5.5394797,5.5394797 0 0 0 5.54101,5.53907 5.5394797,5.5394797 0 0 0 5.53907,-5.53907 5.5394797,5.5394797 0 0 0 -5.53907,-5.53906 z m 26,0 a 5.5394797,5.5394797 0 0 0 -5.54101,5.53906 5.5394797,5.5394797 0 0 0 5.54101,5.53907 5.5394797,5.5394797 0 0 0 5.53907,-5.53907 5.5394797,5.5394797 0 0 0 -5.53907,-5.53906 z m 74,0 a 5.5394797,5.5394797 0 0 0 -5.54101,5.53906 5.5394797,5.5394797 0 0 0 5.54101,5.53907 5.5394797,5.5394797 0 0 0 5.53907,-5.53907 5.5394797,5.5394797 0 0 0 -5.53907,-5.53906 z m 26,0 a 5.5394797,5.5394797 0 0 0 -5.54101,5.53906 5.5394797,5.5394797 0 0 0 5.54101,5.53907 5.5394797,5.5394797 0 0 0 5.53907,-5.53907 5.5394797,5.5394797 0 0 0 -5.53907,-5.53906 z m 22.57227,1.1875 a 5.5394797,5.5394797 0 0 0 -2.11328,4.35156 5.5394797,5.5394797 0 0 0 2.10742,4.34766 c 0.004,-3.06138 3.7e-4,-5.6533 0.008,-8.69922 z m -239.57227,9.8125 a 5.5394797,5.5394797 0 0 0 -5.54101,5.53906 5.5394797,5.5394797 0 0 0 5.54101,5.53907 5.5394797,5.5394797 0 0 0 5.53907,-5.53907 5.5394797,5.5394797 0 0 0 -5.53907,-5.53906 z m 52,0 a 5.5394797,5.5394797 0 0 0 -5.54101,5.53906 5.5394797,5.5394797 0 0 0 5.54101,5.53907 5.5394797,5.5394797 0 0 0 5.53907,-5.53907 5.5394797,5.5394797 0 0 0 -5.53907,-5.53906 z m 52,0 a 5.5394797,5.5394797 0 0 0 -5.54101,5.53906 5.5394797,5.5394797 0 0 0 5.54101,5.53907 5.5394797,5.5394797 0 0 0 5.53907,-5.53907 5.5394797,5.5394797 0 0 0 -5.53907,-5.53906 z m 100,0 a 5.5394797,5.5394797 0 0 0 -5.54101,5.53906 5.5394797,5.5394797 0 0 0 5.54101,5.53907 5.5394797,5.5394797 0 0 0 5.53907,-5.53907 5.5394797,5.5394797 0 0 0 -5.53907,-5.53906 z m -178,2 a 5.5394797,5.5394797 0 0 0 -5.54101,5.53906 5.5394797,5.5394797 0 0 0 5.54101,5.54102 5.5394797,5.5394797 0 0 0 5.53907,-5.54102 5.5394797,5.5394797 0 0 0 -5.53907,-5.53906 z m 52,0 a 5.5394797,5.5394797 0 0 0 -5.54101,5.53906 5.5394797,5.5394797 0 0 0 5.54101,5.54102 5.5394797,5.5394797 0 0 0 5.53907,-5.54102 5.5394797,5.5394797 0 0 0 -5.53907,-5.53906 z m 152,0 a 5.5394797,5.5394797 0 0 0 -5.54101,5.53906 5.5394797,5.5394797 0 0 0 5.54101,5.54102 5.5394797,5.5394797 0 0 0 5.53907,-5.54102 5.5394797,5.5394797 0 0 0 -5.53907,-5.53906 z m -51.57422,0.0176 c -0.50331,3.54644 -1.76135,6.95147 -3.76953,9.93945 a 5.5394797,5.5394797 0 0 0 3.34375,1.12305 5.5394797,5.5394797 0 0 0 5.53907,-5.54102 5.5394797,5.5394797 0 0 0 -5.11329,-5.52148 z m -165.42578,10.98242 a 5.5394797,5.5394797 0 0 0 -5.54101,5.53906 5.5394797,5.5394797 0 0 0 5.54101,5.53907 5.5394797,5.5394797 0 0 0 5.53907,-5.53907 5.5394797,5.5394797 0 0 0 -5.53907,-5.53906 z m 26,0 a 5.5394797,5.5394797 0 0 0 -5.54101,5.53906 5.5394797,5.5394797 0 0 0 5.54101,5.53907 5.5394797,5.5394797 0 0 0 5.53907,-5.53907 5.5394797,5.5394797 0 0 0 -5.53907,-5.53906 z m 26,0 a 5.5394797,5.5394797 0 0 0 -5.54101,5.53906 5.5394797,5.5394797 0 0 0 5.54101,5.53907 5.5394797,5.5394797 0 0 0 5.53907,-5.53907 5.5394797,5.5394797 0 0 0 -5.53907,-5.53906 z m 26,0 a 5.5394797,5.5394797 0 0 0 -5.54101,5.53906 5.5394797,5.5394797 0 0 0 5.54101,5.53907 5.5394797,5.5394797 0 0 0 5.53907,-5.53907 5.5394797,5.5394797 0 0 0 -5.53907,-5.53906 z m 100,0 a 5.5394797,5.5394797 0 0 0 -5.54101,5.53906 5.5394797,5.5394797 0 0 0 5.54101,5.53907 5.5394797,5.5394797 0 0 0 5.53907,-5.53907 5.5394797,5.5394797 0 0 0 -5.53907,-5.53906 z m 26,0 a 5.5394797,5.5394797 0 0 0 -5.54101,5.53906 5.5394797,5.5394797 0 0 0 5.54101,5.53907 5.5394797,5.5394797 0 0 0 5.53907,-5.53907 5.5394797,5.5394797 0 0 0 -5.53907,-5.53906 z m 22.56055,1.19727 a 5.5394797,5.5394797 0 0 0 -2.10156,4.34179 5.5394797,5.5394797 0 0 0 2.09765,4.33985 c 6.1e-4,-2.88541 0.002,-5.70863 0.004,-8.68164 z m -66.84766,0.23437 c -2.30581,2.58237 -5.2597,4.72155 -8.84961,6.18555 a 5.5394797,5.5394797 0 0 0 5.13672,3.46094 5.5394797,5.5394797 0 0 0 5.53907,-5.53907 5.5394797,5.5394797 0 0 0 -1.82618,-4.10742 z m -34.9414,5.94336 a 5.5394797,5.5394797 0 0 0 5.22851,3.70313 5.5394797,5.5394797 0 0 0 3.95899,-1.66602 c -2.87864,-0.36321 -5.94251,-1.02986 -9.1875,-2.03711 z m -111.77149,5.625 a 5.5394797,5.5394797 0 0 0 -5.54101,5.53906 5.5394797,5.5394797 0 0 0 5.54101,5.53907 5.5394797,5.5394797 0 0 0 5.53907,-5.53907 5.5394797,5.5394797 0 0 0 -5.53907,-5.53906 z m 26,0 a 5.5394797,5.5394797 0 0 0 -5.54101,5.53906 5.5394797,5.5394797 0 0 0 5.54101,5.54102 5.5394797,5.5394797 0 0 0 5.53907,-5.54102 5.5394797,5.5394797 0 0 0 -5.53907,-5.53906 z m 26,0 a 5.5394797,5.5394797 0 0 0 -5.54101,5.53906 5.5394797,5.5394797 0 0 0 3.39453,5.10547 l 7.68555,-5.14453 a 5.5394797,5.5394797 0 0 0 -5.53907,-5.5 z m 78,0 a 5.5394797,5.5394797 0 0 0 -5.54101,5.53906 5.5394797,5.5394797 0 0 0 5.54101,5.54102 5.5394797,5.5394797 0 0 0 5.53907,-5.54102 5.5394797,5.5394797 0 0 0 -5.53907,-5.53906 z m 22,0 a 5.5394797,5.5394797 0 0 0 -5.54101,5.53906 5.5394797,5.5394797 0 0 0 5.54101,5.53907 5.5394797,5.5394797 0 0 0 5.53907,-5.53907 5.5394797,5.5394797 0 0 0 -5.53907,-5.53906 z m 26,0 a 5.5394797,5.5394797 0 0 0 -5.54101,5.53906 5.5394797,5.5394797 0 0 0 5.54101,5.54102 5.5394797,5.5394797 0 0 0 5.53907,-5.54102 5.5394797,5.5394797 0 0 0 -5.53907,-5.53906 z m 26,0 a 5.5394797,5.5394797 0 0 0 -5.54101,5.53906 5.5394797,5.5394797 0 0 0 5.54101,5.53907 5.5394797,5.5394797 0 0 0 5.53907,-5.53907 5.5394797,5.5394797 0 0 0 -5.53907,-5.53906 z m -97.75976,0.47461 3.27734,4.57813 a 5.5394797,5.5394797 0 0 0 -3.27734,-4.57813 z m -128.3457,1.12695 0.92578,1.2129 a 5.5394797,5.5394797 0 0 0 -0.92578,-1.2129 z m 9.10546,11.39844 a 5.5394797,5.5394797 0 0 0 -0.39062,0.0156 l 5.61719,7.35547 a 5.5394797,5.5394797 0 0 0 0.3125,-1.83204 5.5394797,5.5394797 0 0 0 -5.53907,-5.53906 z m 26,0 a 5.5394797,5.5394797 0 0 0 -5.54101,5.53906 5.5394797,5.5394797 0 0 0 5.54101,5.54102 5.5394797,5.5394797 0 0 0 5.53907,-5.54102 5.5394797,5.5394797 0 0 0 -5.53907,-5.53906 z m 26,0 a 5.5394797,5.5394797 0 0 0 -5.54101,5.53906 5.5394797,5.5394797 0 0 0 0.66601,2.63477 l 9.16602,-6.13672 a 5.5394797,5.5394797 0 0 0 -4.29102,-2.03711 z m 78,0 a 5.5394797,5.5394797 0 0 0 -1.62109,0.24219 l 6.11133,8.54102 a 5.5394797,5.5394797 0 0 0 1.04883,-3.24415 5.5394797,5.5394797 0 0 0 -5.53907,-5.53906 z m 22,0 a 5.5394797,5.5394797 0 0 0 -5.54101,5.53906 5.5394797,5.5394797 0 0 0 5.54101,5.54102 5.5394797,5.5394797 0 0 0 5.53907,-5.54102 5.5394797,5.5394797 0 0 0 -5.53907,-5.53906 z m 26,0 a 5.5394797,5.5394797 0 0 0 -5.54101,5.53906 5.5394797,5.5394797 0 0 0 5.54101,5.54102 5.5394797,5.5394797 0 0 0 5.53907,-5.54102 5.5394797,5.5394797 0 0 0 -5.53907,-5.53906 z m 26,0 a 5.5394797,5.5394797 0 0 0 -5.54101,5.53906 5.5394797,5.5394797 0 0 0 5.54101,5.54102 5.5394797,5.5394797 0 0 0 5.53907,-5.54102 5.5394797,5.5394797 0 0 0 -5.53907,-5.53906 z m 22.54883,1.20508 a 5.5394797,5.5394797 0 0 0 -2.08984,4.33398 5.5394797,5.5394797 0 0 0 2.10937,4.34961 c -0.008,-2.86431 -0.0157,-5.51839 -0.0195,-8.68359 z m -187.54883,9.79492 a 5.5394797,5.5394797 0 0 0 -5.54101,5.53906 5.5394797,5.5394797 0 0 0 0.0508,0.74805 l 8.27148,-5.53711 a 5.5394797,5.5394797 0 0 0 -2.78125,-0.75 z m 104,0 a 5.5394797,5.5394797 0 0 0 -4.86132,2.87891 l 5.80859,8.11719 a 5.5394797,5.5394797 0 0 0 4.5918,-5.45704 5.5394797,5.5394797 0 0 0 -5.53907,-5.53906 z m 48,0 a 5.5394797,5.5394797 0 0 0 -5.54101,5.53906 5.5394797,5.5394797 0 0 0 5.54101,5.53907 5.5394797,5.5394797 0 0 0 5.53907,-5.53907 5.5394797,5.5394797 0 0 0 -5.53907,-5.53906 z m -178,2 a 5.5394797,5.5394797 0 0 0 -2.86328,0.79883 l 6.6836,8.75391 a 5.5394797,5.5394797 0 0 0 1.71875,-4.01368 5.5394797,5.5394797 0 0 0 -5.53907,-5.53906 z m 152,0 a 5.5394797,5.5394797 0 0 0 -5.54101,5.53906 5.5394797,5.5394797 0 0 0 5.54101,5.54102 5.5394797,5.5394797 0 0 0 5.53907,-5.54102 5.5394797,5.5394797 0 0 0 -5.53907,-5.53906 z m 52,0 a 5.5394797,5.5394797 0 0 0 -5.54101,5.53906 5.5394797,5.5394797 0 0 0 5.54101,5.54102 5.5394797,5.5394797 0 0 0 5.53907,-5.54102 5.5394797,5.5394797 0 0 0 -5.53907,-5.53906 z m -324.46289,3.44922 -7.76757,5.16016 a 5.5394797,5.5394797 0 0 0 2.23046,0.46875 5.5394797,5.5394797 0 0 0 5.53907,-5.53907 5.5394797,5.5394797 0 0 0 -0.002,-0.0898 z m 7.46094,7.55078 a 5.5394797,5.5394797 0 0 0 -5.53906,5.53906 5.5394797,5.5394797 0 0 0 5.54101,5.54102 5.5394797,5.5394797 0 0 0 5.53907,-5.54102 5.5394797,5.5394797 0 0 0 -0.008,-0.23046 l -3.67382,-4.98438 a 5.5394797,5.5394797 0 0 0 -1.85743,-0.32422 z m 278.00195,0 a 5.5394797,5.5394797 0 0 0 -5.54101,5.53906 5.5394797,5.5394797 0 0 0 5.54101,5.54102 5.5394797,5.5394797 0 0 0 5.53907,-5.54102 5.5394797,5.5394797 0 0 0 -5.53907,-5.53906 z m 26,0 a 5.5394797,5.5394797 0 0 0 -5.54101,5.53906 5.5394797,5.5394797 0 0 0 5.54101,5.54102 5.5394797,5.5394797 0 0 0 5.53907,-5.54102 5.5394797,5.5394797 0 0 0 -5.53907,-5.53906 z m 22.63086,1.14258 a 5.5394797,5.5394797 0 0 0 -2.17187,4.39648 5.5394797,5.5394797 0 0 0 2.28711,4.48438 c -0.0469,-2.02492 -0.0854,-5.00847 -0.11524,-8.88086 z m -348.40625,0.81641 -9.16601,6.08984 a 5.5394797,5.5394797 0 0 0 4.9414,3.03125 5.5394797,5.5394797 0 0 0 5.53907,-5.54102 5.5394797,5.5394797 0 0 0 -1.31446,-3.58007 z m 8.77539,11.04101 a 5.5394797,5.5394797 0 0 0 -5.54101,5.53906 5.5394797,5.5394797 0 0 0 5.54101,5.54102 5.5394797,5.5394797 0 0 0 5.53907,-5.54102 5.5394797,5.5394797 0 0 0 -5.53907,-5.53906 z m 304,0 a 5.5394797,5.5394797 0 0 0 -5.54101,5.53906 5.5394797,5.5394797 0 0 0 2.81445,4.82422 c 1.69297,0.0752 3.3324,0.14216 5.01172,0.22266 a 5.5394797,5.5394797 0 0 0 3.25391,-5.04688 5.5394797,5.5394797 0 0 0 -5.53907,-5.53906 z m -151.84765,0.004 -5.33203,3.56836 a 5.5394797,5.5394797 0 0 0 -0.36133,1.96679 5.5394797,5.5394797 0 0 0 5.54101,5.54102 5.5394797,5.5394797 0 0 0 5.45118,-4.55078 l -4.20313,-6.38477 a 5.5394797,5.5394797 0 0 0 -1.0957,-0.14062 z m -178.15235,1.99609 a 5.5394797,5.5394797 0 0 0 -5.54101,5.53906 5.5394797,5.5394797 0 0 0 5.54101,5.53907 5.5394797,5.5394797 0 0 0 5.53907,-5.53907 5.5394797,5.5394797 0 0 0 -5.53907,-5.53906 z m 304,0 a 5.5394797,5.5394797 0 0 0 -5.48437,4.75 l 3.39258,4.73828 c 1.66567,-0.61795 3.98726,-1.24275 7.06054,-1.50195 a 5.5394797,5.5394797 0 0 0 0.57032,-2.44727 5.5394797,5.5394797 0 0 0 -5.53907,-5.53906 z m 52,0 a 5.5394797,5.5394797 0 0 0 -5.54101,5.53906 5.5394797,5.5394797 0 0 0 2.08984,4.33594 c 2.49358,0.0824 5.80274,-0.24643 8.5,-2.05664 a 5.5394797,5.5394797 0 0 0 0.49024,-2.2793 5.5394797,5.5394797 0 0 0 -5.53907,-5.53906 z m -304.31836,0.0117 a 5.5394797,5.5394797 0 0 0 -5.22265,5.52734 5.5394797,5.5394797 0 0 0 5.54101,5.53907 5.5394797,5.5394797 0 0 0 5.1875,-3.59571 z m -64.68164,12.98828 a 5.5394797,5.5394797 0 0 0 -5.54101,5.53906 5.5394797,5.5394797 0 0 0 5.54101,5.53907 5.5394797,5.5394797 0 0 0 5.53907,-5.53907 5.5394797,5.5394797 0 0 0 -5.53907,-5.53906 z m 26,0 a 5.5394797,5.5394797 0 0 0 -5.54101,5.53906 5.5394797,5.5394797 0 0 0 5.54101,5.53907 5.5394797,5.5394797 0 0 0 5.53907,-5.53907 5.5394797,5.5394797 0 0 0 -5.53907,-5.53906 z m 26,0 a 5.5394797,5.5394797 0 0 0 -5.54101,5.53906 5.5394797,5.5394797 0 0 0 5.54101,5.53907 5.5394797,5.5394797 0 0 0 5.53907,-5.53907 5.5394797,5.5394797 0 0 0 -5.53907,-5.53906 z m 126,0 a 5.5394797,5.5394797 0 0 0 -5.54101,5.53906 5.5394797,5.5394797 0 0 0 5.54101,5.53907 5.5394797,5.5394797 0 0 0 5.53907,-5.53907 5.5394797,5.5394797 0 0 0 -5.53907,-5.53906 z m 24.22071,0.29297 a 5.5394797,5.5394797 0 0 0 -3.76172,5.24609 5.5394797,5.5394797 0 0 0 5.54101,5.53907 5.5394797,5.5394797 0 0 0 4.11524,-1.83203 z m -127.28516,0.63281 a 5.5394797,5.5394797 0 0 0 -2.47656,4.61328 5.5394797,5.5394797 0 0 0 5.54101,5.53907 5.5394797,5.5394797 0 0 0 3.49805,-1.2461 z m 82.10547,6.91016 -4.83594,3.23828 a 5.5394797,5.5394797 0 0 0 4.83594,-3.23828 z m -178.0918,0.1875 -4.57812,3.04297 a 5.5394797,5.5394797 0 0 0 4.57812,-3.04297 z m 8.05078,2.97656 a 5.5394797,5.5394797 0 0 0 -5.54101,5.53906 5.5394797,5.5394797 0 0 0 5.54101,5.53907 5.5394797,5.5394797 0 0 0 5.53907,-5.53907 5.5394797,5.5394797 0 0 0 -5.53907,-5.53906 z m 52,0 a 5.5394797,5.5394797 0 0 0 -5.54101,5.53906 5.5394797,5.5394797 0 0 0 5.54101,5.53907 5.5394797,5.5394797 0 0 0 5.53907,-5.53907 5.5394797,5.5394797 0 0 0 -5.53907,-5.53906 z m 152,0 a 5.5394797,5.5394797 0 0 0 -5.54101,5.53906 5.5394797,5.5394797 0 0 0 5.54101,5.53907 5.5394797,5.5394797 0 0 0 5.53907,-5.53907 5.5394797,5.5394797 0 0 0 -5.53907,-5.53906 z m -178,2 a 5.5394797,5.5394797 0 0 0 -5.54101,5.53906 5.5394797,5.5394797 0 0 0 5.54101,5.53907 5.5394797,5.5394797 0 0 0 5.53907,-5.53907 5.5394797,5.5394797 0 0 0 -5.53907,-5.53906 z m 52,0 a 5.5394797,5.5394797 0 0 0 -5.54101,5.53906 5.5394797,5.5394797 0 0 0 5.54101,5.53907 5.5394797,5.5394797 0 0 0 5.53907,-5.53907 5.5394797,5.5394797 0 0 0 -5.53907,-5.53906 z m 100,0 a 5.5394797,5.5394797 0 0 0 -5.54101,5.53906 5.5394797,5.5394797 0 0 0 5.54101,5.53907 5.5394797,5.5394797 0 0 0 5.53907,-5.53907 5.5394797,5.5394797 0 0 0 -5.53907,-5.53906 z m -79.41796,2.375 a 5.5394797,5.5394797 0 0 0 -0.12305,1.16406 5.5394797,5.5394797 0 0 0 5.04492,5.51563 z m 126.71874,0.22852 a 5.5394797,5.5394797 0 0 0 -0.84179,2.93554 5.5394797,5.5394797 0 0 0 5.54101,5.53907 5.5394797,5.5394797 0 0 0 0.83789,-0.0645 z m -67.77343,0.61133 -7.9375,5.31054 a 5.5394797,5.5394797 0 0 0 2.41015,0.55274 5.5394797,5.5394797 0 0 0 5.53907,-5.53907 5.5394797,5.5394797 0 0 0 -0.0117,-0.32421 z m -178.36914,0.30664 -0.72461,0.48242 c 0,0 -3.15142,2.35408 -9.77735,3 a 5.5394797,5.5394797 0 0 0 5.34375,4.07422 5.5394797,5.5394797 0 0 0 5.53907,-5.53907 5.5394797,5.5394797 0 0 0 -0.38086,-2.01757 z m -35.59961,3.33007 a 5.5394797,5.5394797 0 0 0 4.4414,2.22657 5.5394797,5.5394797 0 0 0 4.3125,-2.06446 c -3.52384,-0.0601 -5.67703,-0.099 -8.7539,-0.16211 z m -16.79297,1.51172 c -1.72743,0.64301 -3.59045,1.50447 -5.36524,2.68164 a 5.5394797,5.5394797 0 0 0 0.59961,0.0332 5.5394797,5.5394797 0 0 0 4.76563,-2.71485 z m 8.23437,2.63672 a 5.5394797,5.5394797 0 0 0 -5.54101,5.53906 5.5394797,5.5394797 0 0 0 5.54101,5.53907 5.5394797,5.5394797 0 0 0 5.53907,-5.53907 5.5394797,5.5394797 0 0 0 -5.53907,-5.53906 z m 26,0 a 5.5394797,5.5394797 0 0 0 -5.54101,5.53906 5.5394797,5.5394797 0 0 0 5.54101,5.53907 5.5394797,5.5394797 0 0 0 5.53907,-5.53907 5.5394797,5.5394797 0 0 0 -5.53907,-5.53906 z m 26,0 a 5.5394797,5.5394797 0 0 0 -5.54101,5.53906 5.5394797,5.5394797 0 0 0 5.54101,5.53907 5.5394797,5.5394797 0 0 0 5.53907,-5.53907 5.5394797,5.5394797 0 0 0 -5.53907,-5.53906 z m 26,0 a 5.5394797,5.5394797 0 0 0 -5.54101,5.53906 5.5394797,5.5394797 0 0 0 5.54101,5.53907 5.5394797,5.5394797 0 0 0 5.53907,-5.53907 5.5394797,5.5394797 0 0 0 -5.53907,-5.53906 z m 26,0 a 5.5394797,5.5394797 0 0 0 -5.54101,5.53906 5.5394797,5.5394797 0 0 0 5.54101,5.53907 5.5394797,5.5394797 0 0 0 5.53907,-5.53907 5.5394797,5.5394797 0 0 0 -5.53907,-5.53906 z m 26,0 a 5.5394797,5.5394797 0 0 0 -5.54101,5.53906 5.5394797,5.5394797 0 0 0 5.54101,5.53907 5.5394797,5.5394797 0 0 0 5.53907,-5.53907 5.5394797,5.5394797 0 0 0 -5.53907,-5.53906 z m 26,0 a 5.5394797,5.5394797 0 0 0 -5.54101,5.53906 5.5394797,5.5394797 0 0 0 5.54101,5.53907 5.5394797,5.5394797 0 0 0 5.53907,-5.53907 5.5394797,5.5394797 0 0 0 -5.53907,-5.53906 z m 74,0 a 5.5394797,5.5394797 0 0 0 -5.54101,5.53906 5.5394797,5.5394797 0 0 0 5.54101,5.53907 5.5394797,5.5394797 0 0 0 5.53907,-5.53907 5.5394797,5.5394797 0 0 0 -5.53907,-5.53906 z m 26,0 a 5.5394797,5.5394797 0 0 0 -5.54101,5.53906 5.5394797,5.5394797 0 0 0 5.54101,5.53907 5.5394797,5.5394797 0 0 0 5.53907,-5.53907 5.5394797,5.5394797 0 0 0 -5.53907,-5.53906 z m 26,0 a 5.5394797,5.5394797 0 0 0 -5.54101,5.53906 5.5394797,5.5394797 0 0 0 5.54101,5.53907 5.5394797,5.5394797 0 0 0 5.53907,-5.53907 5.5394797,5.5394797 0 0 0 -5.53907,-5.53906 z m -73.86914,1.84961 -9.11718,6.10156 a 5.5394797,5.5394797 0 0 0 4.98632,3.12696 5.5394797,5.5394797 0 0 0 5.53907,-5.53907 5.5394797,5.5394797 0 0 0 -1.40821,-3.68945 z m -225.22265,1.12695 c -1.92163,2.06113 -3.42372,4.69335 -4.05078,8.03321 a 5.5394797,5.5394797 0 0 0 4.68164,-5.47071 5.5394797,5.5394797 0 0 0 -0.63086,-2.5625 z m 4.09179,10.02344 a 5.5394797,5.5394797 0 0 0 -5.54101,5.53906 5.5394797,5.5394797 0 0 0 5.54101,5.53907 5.5394797,5.5394797 0 0 0 5.53907,-5.53907 5.5394797,5.5394797 0 0 0 -5.53907,-5.53906 z m 26,0 a 5.5394797,5.5394797 0 0 0 -5.54101,5.53906 5.5394797,5.5394797 0 0 0 5.54101,5.53907 5.5394797,5.5394797 0 0 0 5.53907,-5.53907 5.5394797,5.5394797 0 0 0 -5.53907,-5.53906 z m 26,0 a 5.5394797,5.5394797 0 0 0 -5.54101,5.53906 5.5394797,5.5394797 0 0 0 5.54101,5.53907 5.5394797,5.5394797 0 0 0 5.53907,-5.53907 5.5394797,5.5394797 0 0 0 -5.53907,-5.53906 z m 26,0 a 5.5394797,5.5394797 0 0 0 -5.54101,5.53906 5.5394797,5.5394797 0 0 0 5.54101,5.53907 5.5394797,5.5394797 0 0 0 5.53907,-5.53907 5.5394797,5.5394797 0 0 0 -5.53907,-5.53906 z m 26,0 a 5.5394797,5.5394797 0 0 0 -5.54101,5.53906 5.5394797,5.5394797 0 0 0 5.54101,5.53907 5.5394797,5.5394797 0 0 0 5.53907,-5.53907 5.5394797,5.5394797 0 0 0 -5.53907,-5.53906 z m 26,0 a 5.5394797,5.5394797 0 0 0 -5.54101,5.53906 5.5394797,5.5394797 0 0 0 5.54101,5.53907 5.5394797,5.5394797 0 0 0 5.53907,-5.53907 5.5394797,5.5394797 0 0 0 -5.53907,-5.53906 z m 26,0 a 5.5394797,5.5394797 0 0 0 -5.54101,5.53906 5.5394797,5.5394797 0 0 0 3.16601,5.00391 l 7.90625,-5.29101 a 5.5394797,5.5394797 0 0 0 -5.53125,-5.25196 z m 74,0 a 5.5394797,5.5394797 0 0 0 -5.54101,5.53906 5.5394797,5.5394797 0 0 0 5.54101,5.53907 5.5394797,5.5394797 0 0 0 5.53907,-5.53907 5.5394797,5.5394797 0 0 0 -5.53907,-5.53906 z m 26,0 a 5.5394797,5.5394797 0 0 0 -5.54101,5.53906 5.5394797,5.5394797 0 0 0 5.54101,5.53907 5.5394797,5.5394797 0 0 0 5.53907,-5.53907 5.5394797,5.5394797 0 0 0 -5.53907,-5.53906 z m 26,0 a 5.5394797,5.5394797 0 0 0 -5.54101,5.53906 5.5394797,5.5394797 0 0 0 5.54101,5.53907 5.5394797,5.5394797 0 0 0 5.53907,-5.53907 5.5394797,5.5394797 0 0 0 -5.53907,-5.53906 z m 26,0 a 5.5394797,5.5394797 0 0 0 -5.54101,5.53906 5.5394797,5.5394797 0 0 0 5.54101,5.53907 5.5394797,5.5394797 0 0 0 5.53907,-5.53907 5.5394797,5.5394797 0 0 0 -5.53907,-5.53906 z m -103.55468,0.0195 -5.72071,3.82813 a 5.5394797,5.5394797 0 0 0 -0.26562,1.6914 5.5394797,5.5394797 0 0 0 5.54101,5.53907 5.5394797,5.5394797 0 0 0 5.53907,-5.53907 5.5394797,5.5394797 0 0 0 -5.09375,-5.51953 z m -191.44532,12.98047 a 5.5394797,5.5394797 0 0 0 -5.54101,5.53906 5.5394797,5.5394797 0 0 0 5.54101,5.53907 5.5394797,5.5394797 0 0 0 5.53907,-5.53907 5.5394797,5.5394797 0 0 0 -5.53907,-5.53906 z m 26,0 a 5.5394797,5.5394797 0 0 0 -5.54101,5.53906 5.5394797,5.5394797 0 0 0 5.54101,5.53907 5.5394797,5.5394797 0 0 0 5.53907,-5.53907 5.5394797,5.5394797 0 0 0 -5.53907,-5.53906 z m 26,0 a 5.5394797,5.5394797 0 0 0 -5.54101,5.53906 5.5394797,5.5394797 0 0 0 5.54101,5.53907 5.5394797,5.5394797 0 0 0 5.53907,-5.53907 5.5394797,5.5394797 0 0 0 -5.53907,-5.53906 z m 26,0 a 5.5394797,5.5394797 0 0 0 -5.54101,5.53906 5.5394797,5.5394797 0 0 0 5.54101,5.53907 5.5394797,5.5394797 0 0 0 5.53907,-5.53907 5.5394797,5.5394797 0 0 0 -5.53907,-5.53906 z m 26,0 a 5.5394797,5.5394797 0 0 0 -5.54101,5.53906 5.5394797,5.5394797 0 0 0 5.54101,5.53907 5.5394797,5.5394797 0 0 0 5.53907,-5.53907 5.5394797,5.5394797 0 0 0 -5.53907,-5.53906 z m 26,0 a 5.5394797,5.5394797 0 0 0 -5.54101,5.53906 5.5394797,5.5394797 0 0 0 0.57031,2.44336 l 9.12305,-6.10742 a 5.5394797,5.5394797 0 0 0 -4.15235,-1.875 z m 48,0 a 5.5394797,5.5394797 0 0 0 -2.12109,0.42188 l 7.14648,7.44336 a 5.5394797,5.5394797 0 0 0 0.51368,-2.32618 5.5394797,5.5394797 0 0 0 -5.53907,-5.53906 z m 26,0 a 5.5394797,5.5394797 0 0 0 -5.54101,5.53906 5.5394797,5.5394797 0 0 0 5.54101,5.53907 5.5394797,5.5394797 0 0 0 5.53907,-5.53907 5.5394797,5.5394797 0 0 0 -5.53907,-5.53906 z m 26,0 a 5.5394797,5.5394797 0 0 0 -5.54101,5.53906 5.5394797,5.5394797 0 0 0 5.54101,5.53907 5.5394797,5.5394797 0 0 0 5.53907,-5.53907 5.5394797,5.5394797 0 0 0 -5.53907,-5.53906 z m 26,0 a 5.5394797,5.5394797 0 0 0 -5.54101,5.53906 5.5394797,5.5394797 0 0 0 5.54101,5.53907 5.5394797,5.5394797 0 0 0 5.53907,-5.53907 5.5394797,5.5394797 0 0 0 -5.53907,-5.53906 z m 26,0 a 5.5394797,5.5394797 0 0 0 -5.54101,5.53906 5.5394797,5.5394797 0 0 0 5.54101,5.53907 5.5394797,5.5394797 0 0 0 5.53907,-5.53907 5.5394797,5.5394797 0 0 0 -5.53907,-5.53906 z m 26,0 a 5.5394797,5.5394797 0 0 0 -5.54101,5.53906 5.5394797,5.5394797 0 0 0 0.13086,1.19727 l 8.55273,-5.75781 a 5.5394797,5.5394797 0 0 0 -3.14258,-0.97852 z m -329.30078,2.61133 c 0.0113,1.66326 0.0159,3.94377 0.0234,5.82227 a 5.5394797,5.5394797 0 0 0 0.81836,-2.89454 5.5394797,5.5394797 0 0 0 -0.83984,-2.92773 z m 34.30078,8.38867 a 5.5394797,5.5394797 0 0 0 -5.54101,5.53906 5.5394797,5.5394797 0 0 0 5.54101,5.53907 5.5394797,5.5394797 0 0 0 5.53907,-5.53907 5.5394797,5.5394797 0 0 0 -5.53907,-5.53906 z m 52,0 a 5.5394797,5.5394797 0 0 0 -5.54101,5.53906 5.5394797,5.5394797 0 0 0 5.54101,5.53907 5.5394797,5.5394797 0 0 0 5.53907,-5.53907 5.5394797,5.5394797 0 0 0 -5.53907,-5.53906 z m 52,0 a 5.5394797,5.5394797 0 0 0 -5.54101,5.53906 5.5394797,5.5394797 0 0 0 0.0234,0.51172 l 8.08984,-5.41601 a 5.5394797,5.5394797 0 0 0 -2.57227,-0.63477 z m 100,0 a 5.5394797,5.5394797 0 0 0 -5.54101,5.53906 5.5394797,5.5394797 0 0 0 5.54101,5.53907 5.5394797,5.5394797 0 0 0 5.53907,-5.53907 5.5394797,5.5394797 0 0 0 -5.53907,-5.53906 z m 52,0 a 5.5394797,5.5394797 0 0 0 -5.54101,5.53906 5.5394797,5.5394797 0 0 0 5.54101,5.53907 5.5394797,5.5394797 0 0 0 5.53907,-5.53907 5.5394797,5.5394797 0 0 0 -5.53907,-5.53906 z m -282,2 a 5.5394797,5.5394797 0 0 0 -5.54101,5.53906 5.5394797,5.5394797 0 0 0 5.54101,5.53907 5.5394797,5.5394797 0 0 0 5.53907,-5.53907 5.5394797,5.5394797 0 0 0 -5.53907,-5.53906 z m 52,0 a 5.5394797,5.5394797 0 0 0 -5.54101,5.53906 5.5394797,5.5394797 0 0 0 5.54101,5.53907 5.5394797,5.5394797 0 0 0 5.53907,-5.53907 5.5394797,5.5394797 0 0 0 -5.53907,-5.53906 z m 52,0 a 5.5394797,5.5394797 0 0 0 -5.54101,5.53906 5.5394797,5.5394797 0 0 0 5.54101,5.53907 5.5394797,5.5394797 0 0 0 5.53907,-5.53907 5.5394797,5.5394797 0 0 0 -5.53907,-5.53906 z m 100,0 a 5.5394797,5.5394797 0 0 0 -2.48046,0.58594 l 7.32812,7.63086 a 5.5394797,5.5394797 0 0 0 0.69141,-2.67774 5.5394797,5.5394797 0 0 0 -5.53907,-5.53906 z m 52,0 a 5.5394797,5.5394797 0 0 0 -5.54101,5.53906 5.5394797,5.5394797 0 0 0 5.54101,5.53907 5.5394797,5.5394797 0 0 0 5.53907,-5.53907 5.5394797,5.5394797 0 0 0 -5.53907,-5.53906 z m -243,11 a 5.5394797,5.5394797 0 0 0 -5.54101,5.53906 5.5394797,5.5394797 0 0 0 5.54101,5.53907 5.5394797,5.5394797 0 0 0 5.53907,-5.53907 5.5394797,5.5394797 0 0 0 -5.53907,-5.53906 z m 26,0 a 5.5394797,5.5394797 0 0 0 -5.54101,5.53906 5.5394797,5.5394797 0 0 0 5.54101,5.53907 5.5394797,5.5394797 0 0 0 5.53907,-5.53907 5.5394797,5.5394797 0 0 0 -5.53907,-5.53906 z m 26,0 a 5.5394797,5.5394797 0 0 0 -5.54101,5.53906 5.5394797,5.5394797 0 0 0 5.54101,5.53907 5.5394797,5.5394797 0 0 0 5.53907,-5.53907 5.5394797,5.5394797 0 0 0 -5.53907,-5.53906 z m 26,0 a 5.5394797,5.5394797 0 0 0 -5.54101,5.53906 5.5394797,5.5394797 0 0 0 2.36523,4.54102 c 1.39242,0.21165 2.82631,0.5083 4.29492,0.88281 a 5.5394797,5.5394797 0 0 0 4.41993,-5.42383 5.5394797,5.5394797 0 0 0 -5.53907,-5.53906 z m 126,0 a 5.5394797,5.5394797 0 0 0 -3.91992,1.62305 l 7.67188,7.98828 a 5.5394797,5.5394797 0 0 0 1.78711,-4.07227 5.5394797,5.5394797 0 0 0 -5.53907,-5.53906 z m 26,0 a 5.5394797,5.5394797 0 0 0 -5.54101,5.53906 5.5394797,5.5394797 0 0 0 5.54101,5.53907 5.5394797,5.5394797 0 0 0 5.53907,-5.53907 5.5394797,5.5394797 0 0 0 -5.53907,-5.53906 z m 26,0 a 5.5394797,5.5394797 0 0 0 -5.54101,5.53906 5.5394797,5.5394797 0 0 0 5.54101,5.53907 5.5394797,5.5394797 0 0 0 5.53907,-5.53907 5.5394797,5.5394797 0 0 0 -5.53907,-5.53906 z m -277.23632,0.0527 c 0.004,3.30739 -0.008,7.42046 -0.008,10.97265 a 5.5394797,5.5394797 0 0 0 4.78125,-5.48633 5.5394797,5.5394797 0 0 0 -4.77343,-5.48632 z m 8.23632,12.94726 a 5.5394797,5.5394797 0 0 0 -5.54101,5.53906 5.5394797,5.5394797 0 0 0 5.54101,5.53907 5.5394797,5.5394797 0 0 0 5.53907,-5.53907 5.5394797,5.5394797 0 0 0 -5.53907,-5.53906 z m 26,0 a 5.5394797,5.5394797 0 0 0 -5.54101,5.53906 5.5394797,5.5394797 0 0 0 5.54101,5.53907 5.5394797,5.5394797 0 0 0 5.53907,-5.53907 5.5394797,5.5394797 0 0 0 -5.53907,-5.53906 z m 26,0 a 5.5394797,5.5394797 0 0 0 -5.54101,5.53906 5.5394797,5.5394797 0 0 0 5.54101,5.53907 5.5394797,5.5394797 0 0 0 5.53907,-5.53907 5.5394797,5.5394797 0 0 0 -5.53907,-5.53906 z m 178,0 a 5.5394797,5.5394797 0 0 0 -4.17382,1.89649 l 7.64453,7.95898 a 5.5394797,5.5394797 0 0 0 2.06836,-4.31641 5.5394797,5.5394797 0 0 0 -5.53907,-5.53906 z m 25.99805,0 a 5.5394797,5.5394797 0 0 0 -5.53906,5.53906 5.5394797,5.5394797 0 0 0 4.05078,5.33399 l 6.99414,-4.70899 a 5.5394797,5.5394797 0 0 0 0.0332,-0.625 5.5394797,5.5394797 0 0 0 -5.53711,-5.53906 5.5394797,5.5394797 0 0 0 -0.002,0 z m -242.99805,13 a 5.5394797,5.5394797 0 0 0 -5.54101,5.53906 5.5394797,5.5394797 0 0 0 5.54101,5.53907 5.5394797,5.5394797 0 0 0 5.53907,-5.53907 5.5394797,5.5394797 0 0 0 -5.53907,-5.53906 z m 26,0 a 5.5394797,5.5394797 0 0 0 -5.54101,5.53906 5.5394797,5.5394797 0 0 0 5.54101,5.53907 5.5394797,5.5394797 0 0 0 5.53907,-5.53907 5.5394797,5.5394797 0 0 0 -5.53907,-5.53906 z m 204,0 a 5.5394797,5.5394797 0 0 0 -4.4082,2.18555 l 3.73633,3.89062 5.30469,-3.57226 a 5.5394797,5.5394797 0 0 0 -4.63282,-2.50391 z m -130.60937,2.4668 a 5.5394797,5.5394797 0 0 0 -0.93164,3.07226 5.5394797,5.5394797 0 0 0 5.54101,5.53907 5.5394797,5.5394797 0 0 0 1.52735,-0.21485 z m -120.64063,0.22461 c -0.002,1.96789 7e-4,3.71323 -0.002,5.69922 a 5.5394797,5.5394797 0 0 0 0.79102,-2.85157 5.5394797,5.5394797 0 0 0 -0.78907,-2.84765 z m 34.25,8.30859 a 5.5394797,5.5394797 0 0 0 -5.54101,5.53906 5.5394797,5.5394797 0 0 0 5.54101,5.53907 5.5394797,5.5394797 0 0 0 5.53907,-5.53907 5.5394797,5.5394797 0 0 0 -5.53907,-5.53906 z m -26,2 a 5.5394797,5.5394797 0 0 0 -5.54101,5.53906 5.5394797,5.5394797 0 0 0 5.54101,5.54102 5.5394797,5.5394797 0 0 0 5.53907,-5.54102 5.5394797,5.5394797 0 0 0 -5.53907,-5.53906 z m 52,0 a 5.5394797,5.5394797 0 0 0 -5.54101,5.53906 5.5394797,5.5394797 0 0 0 5.54101,5.54102 5.5394797,5.5394797 0 0 0 2.24219,-0.47461 c -1.1376,-3.32194 -1.62203,-6.92286 -1.49023,-10.55469 a 5.5394797,5.5394797 0 0 0 -0.75196,-0.0508 z m 55.72657,1.44336 c -0.71373,3.61096 -1.87152,6.81606 -3.37891,9.625 a 5.5394797,5.5394797 0 0 0 5.19141,-5.5293 5.5394797,5.5394797 0 0 0 -1.8125,-4.0957 z m -94.72657,9.55664 a 5.5394797,5.5394797 0 0 0 -5.54101,5.53906 5.5394797,5.5394797 0 0 0 5.54101,5.53907 5.5394797,5.5394797 0 0 0 5.53907,-5.53907 5.5394797,5.5394797 0 0 0 -5.53907,-5.53906 z m 26,0 a 5.5394797,5.5394797 0 0 0 -5.54101,5.53906 5.5394797,5.5394797 0 0 0 5.54101,5.53907 5.5394797,5.5394797 0 0 0 5.53907,-5.53907 5.5394797,5.5394797 0 0 0 -5.53907,-5.53906 z m 78,0 a 5.5394797,5.5394797 0 0 0 -5.54101,5.53906 5.5394797,5.5394797 0 0 0 5.54101,5.53907 5.5394797,5.5394797 0 0 0 5.53907,-5.53907 5.5394797,5.5394797 0 0 0 -5.53907,-5.53906 z m -125.26367,0.0488 c -0.008,4.0738 -0.0198,7.02295 -0.0273,10.98242 a 5.5394797,5.5394797 0 0 0 4.83008,-5.49219 5.5394797,5.5394797 0 0 0 -4.80274,-5.49023 z m 8.26367,12.95117 a 5.5394797,5.5394797 0 0 0 -5.54101,5.53906 5.5394797,5.5394797 0 0 0 5.54101,5.53907 5.5394797,5.5394797 0 0 0 5.53907,-5.53907 5.5394797,5.5394797 0 0 0 -5.53907,-5.53906 z m 26,0 a 5.5394797,5.5394797 0 0 0 -5.54101,5.53906 5.5394797,5.5394797 0 0 0 5.54101,5.54102 5.5394797,5.5394797 0 0 0 5.53907,-5.54102 5.5394797,5.5394797 0 0 0 -5.53907,-5.53906 z m 26,0 a 5.5394797,5.5394797 0 0 0 -5.54101,5.53906 5.5394797,5.5394797 0 0 0 5.54101,5.53907 5.5394797,5.5394797 0 0 0 5.53907,-5.53907 5.5394797,5.5394797 0 0 0 -5.53907,-5.53906 z m 52,0 a 5.5394797,5.5394797 0 0 0 -5.54101,5.53906 5.5394797,5.5394797 0 0 0 5.54101,5.53907 5.5394797,5.5394797 0 0 0 5.53907,-5.53907 5.5394797,5.5394797 0 0 0 -5.53907,-5.53906 z m 26,0 a 5.5394797,5.5394797 0 0 0 -5.54101,5.53906 5.5394797,5.5394797 0 0 0 5.54101,5.54102 5.5394797,5.5394797 0 0 0 5.53907,-5.54102 5.5394797,5.5394797 0 0 0 -5.53907,-5.53906 z m -56.43945,2.22266 v 0.002 a 5.5394797,5.5394797 0 0 0 -1.10156,3.31445 5.5394797,5.5394797 0 0 0 5.54101,5.54102 5.5394797,5.5394797 0 0 0 5.53907,-5.54102 5.5394797,5.5394797 0 0 0 -1.07032,-3.27148 c -2.99425,0.42901 -6.00824,0.40666 -8.9082,-0.0449 z m -60.56055,10.77734 a 5.5394797,5.5394797 0 0 0 -5.54101,5.53906 5.5394797,5.5394797 0 0 0 5.54101,5.54102 5.5394797,5.5394797 0 0 0 5.53907,-5.54102 5.5394797,5.5394797 0 0 0 -5.53907,-5.53906 z m 26,0 a 5.5394797,5.5394797 0 0 0 -5.54101,5.53906 5.5394797,5.5394797 0 0 0 5.54101,5.54102 5.5394797,5.5394797 0 0 0 5.53907,-5.54102 5.5394797,5.5394797 0 0 0 -5.53907,-5.53906 z m 26,0 a 5.5394797,5.5394797 0 0 0 -5.54101,5.53906 5.5394797,5.5394797 0 0 0 5.54101,5.54102 5.5394797,5.5394797 0 0 0 5.53907,-5.54102 5.5394797,5.5394797 0 0 0 -5.53907,-5.53906 z m 26,0 a 5.5394797,5.5394797 0 0 0 -5.54101,5.53906 5.5394797,5.5394797 0 0 0 5.54101,5.54102 5.5394797,5.5394797 0 0 0 5.53907,-5.54102 5.5394797,5.5394797 0 0 0 -5.53907,-5.53906 z m 26,0 a 5.5394797,5.5394797 0 0 0 -5.54101,5.53906 5.5394797,5.5394797 0 0 0 5.54101,5.54102 5.5394797,5.5394797 0 0 0 5.53907,-5.54102 5.5394797,5.5394797 0 0 0 -5.53907,-5.53906 z m 26,0 a 5.5394797,5.5394797 0 0 0 -5.54101,5.53906 5.5394797,5.5394797 0 0 0 5.54101,5.54102 5.5394797,5.5394797 0 0 0 5.53907,-5.54102 5.5394797,5.5394797 0 0 0 -5.53907,-5.53906 z m -151.33593,2.55274 c -0.004,1.95953 -0.0119,4.13716 -0.0156,5.99804 a 5.5394797,5.5394797 0 0 0 0.89063,-3.01172 5.5394797,5.5394797 0 0 0 -0.875,-2.98632 z m 34.33593,8.44726 a 5.5394797,5.5394797 0 0 0 -5.54101,5.53906 5.5394797,5.5394797 0 0 0 5.54101,5.53907 5.5394797,5.5394797 0 0 0 5.53907,-5.53907 5.5394797,5.5394797 0 0 0 -5.53907,-5.53906 z m 52,0 a 5.5394797,5.5394797 0 0 0 -5.54101,5.53906 5.5394797,5.5394797 0 0 0 5.54101,5.53907 5.5394797,5.5394797 0 0 0 5.53907,-5.53907 5.5394797,5.5394797 0 0 0 -5.53907,-5.53906 z m 52,0 a 5.5394797,5.5394797 0 0 0 -5.54101,5.53906 5.5394797,5.5394797 0 0 0 5.54101,5.53907 5.5394797,5.5394797 0 0 0 5.53907,-5.53907 5.5394797,5.5394797 0 0 0 -5.53907,-5.53906 z m -130,2 a 5.5394797,5.5394797 0 0 0 -5.54101,5.53906 5.5394797,5.5394797 0 0 0 5.54101,5.54102 5.5394797,5.5394797 0 0 0 5.53907,-5.54102 5.5394797,5.5394797 0 0 0 -5.53907,-5.53906 z m 52,0 a 5.5394797,5.5394797 0 0 0 -5.54101,5.53906 5.5394797,5.5394797 0 0 0 5.54101,5.54102 5.5394797,5.5394797 0 0 0 5.53907,-5.54102 5.5394797,5.5394797 0 0 0 -5.53907,-5.53906 z m 52,0 a 5.5394797,5.5394797 0 0 0 -5.54101,5.53906 5.5394797,5.5394797 0 0 0 5.54101,5.54102 5.5394797,5.5394797 0 0 0 5.53907,-5.54102 5.5394797,5.5394797 0 0 0 -5.53907,-5.53906 z m 52,0 a 5.5394797,5.5394797 0 0 0 -5.54101,5.53906 5.5394797,5.5394797 0 0 0 5.54101,5.54102 5.5394797,5.5394797 0 0 0 5.43946,-4.49414 l -4.78321,-6.54688 a 5.5394797,5.5394797 0 0 0 -0.65625,-0.0391 z m -143,11 a 5.5394797,5.5394797 0 0 0 -5.54101,5.53906 5.5394797,5.5394797 0 0 0 5.54101,5.54102 5.5394797,5.5394797 0 0 0 5.53907,-5.54102 5.5394797,5.5394797 0 0 0 -5.53907,-5.53906 z m 26,0 a 5.5394797,5.5394797 0 0 0 -5.54101,5.53906 5.5394797,5.5394797 0 0 0 5.54101,5.54102 5.5394797,5.5394797 0 0 0 5.53907,-5.54102 5.5394797,5.5394797 0 0 0 -5.53907,-5.53906 z m 26,0 a 5.5394797,5.5394797 0 0 0 -5.54101,5.53906 5.5394797,5.5394797 0 0 0 5.54101,5.54102 5.5394797,5.5394797 0 0 0 5.53907,-5.54102 5.5394797,5.5394797 0 0 0 -5.53907,-5.53906 z m 26,0 a 5.5394797,5.5394797 0 0 0 -5.54101,5.53906 5.5394797,5.5394797 0 0 0 5.54101,5.54102 5.5394797,5.5394797 0 0 0 5.53907,-5.54102 5.5394797,5.5394797 0 0 0 -5.53907,-5.53906 z m 26,0 a 5.5394797,5.5394797 0 0 0 -5.54101,5.53906 5.5394797,5.5394797 0 0 0 5.54101,5.54102 5.5394797,5.5394797 0 0 0 5.53907,-5.54102 5.5394797,5.5394797 0 0 0 -5.53907,-5.53906 z m 26,0 a 5.5394797,5.5394797 0 0 0 -5.54101,5.53906 5.5394797,5.5394797 0 0 0 5.54101,5.54102 5.5394797,5.5394797 0 0 0 5.53907,-5.54102 5.5394797,5.5394797 0 0 0 -5.53907,-5.53906 z m -151.39257,0.0332 c -0.0189,6.00884 -0.0304,8.18924 -0.0391,11.01757 a 5.5394797,5.5394797 0 0 0 4.97071,-5.51172 5.5394797,5.5394797 0 0 0 -4.93164,-5.50585 z m 173.93945,1.17382 a 5.5394797,5.5394797 0 0 0 -2.08789,4.33203 5.5394797,5.5394797 0 0 0 5.54101,5.54102 5.5394797,5.5394797 0 0 0 1.91602,-0.3418 v -2.18554 z m -162.50781,10.34766 a 5.0655987,5.0655987 0 0 0 -5.0586,5.06641 5.0655987,5.0655987 0 0 0 5.06641,5.06445 5.0655987,5.0655987 0 0 0 5.0664,-5.06445 5.0655987,5.0655987 0 0 0 -5.0664,-5.06641 5.0655987,5.0655987 0 0 0 -0.008,0 z m 48.70703,0 a 5.0655987,5.0655987 0 0 0 -5.05664,5.06641 5.0655987,5.0655987 0 0 0 5.06445,5.06445 5.0655987,5.0655987 0 0 0 5.06641,-5.06445 5.0655987,5.0655987 0 0 0 -5.06641,-5.06641 5.0655987,5.0655987 0 0 0 -0.008,0 z m -25.7461,1.44531 a 5.5394797,5.5394797 0 0 0 -5.54101,5.53906 5.5394797,5.5394797 0 0 0 5.54101,5.54102 5.5394797,5.5394797 0 0 0 5.53907,-5.54102 5.5394797,5.5394797 0 0 0 -5.53907,-5.53906 z m 52,0 a 5.5394797,5.5394797 0 0 0 -5.54101,5.53906 5.5394797,5.5394797 0 0 0 5.54101,5.54102 5.5394797,5.5394797 0 0 0 5.53907,-5.54102 5.5394797,5.5394797 0 0 0 -5.53907,-5.53906 z m 52,0 a 5.5394797,5.5394797 0 0 0 -5.54101,5.53906 5.5394797,5.5394797 0 0 0 5.54101,5.54102 5.5394797,5.5394797 0 0 0 5.53907,-5.54102 5.5394797,5.5394797 0 0 0 -5.53907,-5.53906 z m -26.42773,0.11328 a 5.0655987,5.0655987 0 0 0 -5.05859,5.06641 5.0655987,5.0655987 0 0 0 5.0664,5.06445 5.0655987,5.0655987 0 0 0 5.06446,-5.06445 5.0655987,5.0655987 0 0 0 -5.06446,-5.06641 5.0655987,5.0655987 0 0 0 -0.008,0 z m 51.04492,0 a 5.0655987,5.0655987 0 0 0 -5.05664,5.06641 5.0655987,5.0655987 0 0 0 5.06445,5.06445 5.0655987,5.0655987 0 0 0 5.06641,-5.06445 5.0655987,5.0655987 0 0 0 -5.06641,-5.06641 5.0655987,5.0655987 0 0 0 -0.008,0 z M 422.77539,834.6543 a 5.0655987,5.0655987 0 0 0 -5.05859,5.0664 5.0655987,5.0655987 0 0 0 0.0605,0.7793 h 10.00977 a 5.0655987,5.0655987 0 0 0 0.0606,-0.7793 5.0655987,5.0655987 0 0 0 -5.06446,-5.0664 5.0655987,5.0655987 0 0 0 -0.008,0 z m 31.17188,0 a 5.0655987,5.0655987 0 0 0 -5.05665,5.0664 5.0655987,5.0655987 0 0 0 0.0605,0.7793 h 10.00977 a 5.0655987,5.0655987 0 0 0 0.0605,-0.7793 5.0655987,5.0655987 0 0 0 -5.0664,-5.0664 5.0655987,5.0655987 0 0 0 -0.008,0 z m 25.32812,0 a 5.0655987,5.0655987 0 0 0 -5.05664,5.0664 5.0655987,5.0655987 0 0 0 0.0586,0.7793 h 10.01172 a 5.0655987,5.0655987 0 0 0 0.0605,-0.7793 5.0655987,5.0655987 0 0 0 -5.06641,-5.0664 5.0655987,5.0655987 0 0 0 -0.008,0 z m 24.1582,0 a 5.0655987,5.0655987 0 0 0 -5.05664,5.0664 5.0655987,5.0655987 0 0 0 0.0605,0.7793 h 10.00977 a 5.0655987,5.0655987 0 0 0 0.0605,-0.7793 5.0655987,5.0655987 0 0 0 -5.06445,-5.0664 5.0655987,5.0655987 0 0 0 -0.01,0 z m 25.32813,0 a 5.0655987,5.0655987 0 0 0 -5.05664,5.0664 5.0655987,5.0655987 0 0 0 0.0605,0.7793 h 10.00977 a 5.0655987,5.0655987 0 0 0 0.0606,-0.7793 5.0655987,5.0655987 0 0 0 -5.06446,-5.0664 5.0655987,5.0655987 0 0 0 -0.01,0 z m 24.16016,0 a 5.0655987,5.0655987 0 0 0 -5.0586,5.0664 5.0655987,5.0655987 0 0 0 0.0625,0.7793 h 10.00977 a 5.0655987,5.0655987 0 0 0 0.0605,-0.7793 5.0655987,5.0655987 0 0 0 -5.0664,-5.0664 5.0655987,5.0655987 0 0 0 -0.008,0 z"
       style="fill:#000000;fill-opacity:1;stroke:#000000;stroke-width:0.188976"
       id="circle869" />
    <path
       inkscape:export-ydpi="300"
       inkscape:export-xdpi="300"
       id="path886"
       d="m 136.50166,190.73117 17.62974,-11.75316 23.40324,32.37275 c 0,0 1.64956,3.09293 1.23717,5.56729 -0.41239,2.47434 0.36084,4.38166 1.64957,5.67038 1.28872,1.28873 3.29913,2.37125 4.9487,2.26815 1.64956,-0.10309 2.57745,0.4124 2.57745,0.4124 l 2.98984,3.71152 c 0,0 2.16505,2.98984 -0.3093,5.46419 -2.47435,2.47435 -17.88749,17.88749 -17.88749,17.88749 0,0 -4.14969,1.98464 -6.13433,0 -1.98463,-1.98463 -18.5834,-18.5834 -18.5834,-18.5834 0,0 -1.93308,-2.80942 0.54127,-5.28377 2.47435,-2.47435 8.86642,-8.86642 8.86642,-8.86642 z"
       style="fill:#000000;fill-opacity:1;stroke:#000000;stroke-width:0.0499999" />
    <path
       inkscape:export-ydpi="300"
       inkscape:export-xdpi="300"
       sodipodi:nodetypes="sccccsssccccccccs"
       transform="scale(0.26458333)"
       d="m 638.81445,331.46094 c -7.07063,-0.22159 -14.48437,3.32422 -14.48437,3.32422 l -67.60547,67.60742 c -9.35187,9.35187 -1.16992,20.65039 -1.16992,20.65039 l 11.30078,14.0293 c 0,0 3.50568,1.94822 9.74023,1.55859 6.2346,-0.38967 13.83433,3.70147 18.70508,8.57226 4.87079,4.87076 7.79302,12.07981 6.23438,21.43165 -1.55864,9.35191 4.67578,21.04101 4.67578,21.04101 l 30.43945,42.10547 46.03711,-31.45508 c 0,0 7.01363,-1.17034 8.57227,-17.14648 1.67571,-12.24992 -1.98808,-14.91618 -9.06446,-24.67578 l 33.50977,-33.51172 c 9.35187,-9.35188 2.04687,-19.97071 2.04687,-19.97071 l -70.23633,-70.23632 c -2.34406,-2.34407 -5.48724,-3.2235 -8.70117,-3.32422 z"
       style="fill:#000000;fill-opacity:1;stroke:#000000;stroke-width:0.188976"
       id="path888" />
    <path
       inkscape:export-ydpi="300"
       inkscape:export-xdpi="300"
       sodipodi:nodetypes="cccccccsccccscscscscc"
       transform="scale(0.26458333)"
       d="m 754.95898,560.98438 -67.78125,44.08398 84.86329,117.92773 0.42187,1.0918 c 1.85872,-0.35935 3.74749,-0.54051 5.64063,-0.54101 16.43486,-1.8e-4 29.75799,9.32295 29.75781,25.75781 1.8e-4,16.43486 -13.32295,29.75799 -29.75781,29.75781 -16.43486,1.9e-4 -29.758,-13.32295 -29.75782,-29.75781 2.4e-4,-5.28343 1.40715,-6.47154 4.07618,-11.03125 L 724.65039,698.75 l -65.57812,44.63672 25.625,35.26758 v 40.5039 c 0,17.9096 21.21679,21.21485 21.21679,21.21485 h 152.09375 c 19.83833,0 19.83789,-19.83789 19.83789,-19.83789 V 678.36133 c 0,-16.53196 -15.42968,-18.18555 -15.42968,-18.18555 h -28.65625 c -9.91919,0 -14.32618,-7.71484 -14.32618,-7.71484 z"
       style="fill:#000000;fill-opacity:1;stroke:#000000;stroke-width:0.188976"
       id="path893" />
  </g>
  <g
     sodipodi:insensitive="true"
     inkscape:label="Layer 1"
     inkscape:groupmode="layer"
     id="layer1"
     style="display:none;opacity:0.357616" />
</svg>
