<?xml version="1.0" encoding="UTF-8" standalone="no"?>
<svg
   xmlns:dc="http://purl.org/dc/elements/1.1/"
   xmlns:cc="http://creativecommons.org/ns#"
   xmlns:rdf="http://www.w3.org/1999/02/22-rdf-syntax-ns#"
   xmlns:svg="http://www.w3.org/2000/svg"
   xmlns="http://www.w3.org/2000/svg"
   xmlns:xlink="http://www.w3.org/1999/xlink"
   xmlns:sodipodi="http://sodipodi.sourceforge.net/DTD/sodipodi-0.dtd"
   xmlns:inkscape="http://www.inkscape.org/namespaces/inkscape"
   inkscape:export-ydpi="300"
   inkscape:export-xdpi="300"
   inkscape:export-filename="D:\Titipan\Projects\Codes\Rhodes Wiki Indo\Icon Assets\Lee_B.png"
   width="1280"
   height="1280"
   viewBox="0 0 338.66666 338.66668"
   version="1.1"
   id="svg8"
   inkscape:version="1.0.2 (e86c870879, 2021-01-15, custom)"
   sodipodi:docname="Reunion_Z.svg">
  <defs
     id="defs2">
    <pattern
       inkscape:collect="always"
       xlink:href="#pattern4166"
       id="pattern4174"
       patternTransform="translate(-51.833686,-17.277895)" />
    <inkscape:path-effect
       end_linecap_type="zerowidth"
       scale_width="1"
       miter_limit="4"
       linejoin_type="extrp_arc"
       start_linecap_type="zerowidth"
       interpolator_beta="0.2"
       interpolator_type="CubicBezierJohan"
       sort_points="true"
       offset_points="0,3.40217"
       lpeversion="1"
       is_visible="true"
       id="path-effect892"
       effect="powerstroke" />
    <inkscape:path-effect
       end_linecap_type="zerowidth"
       scale_width="1"
       miter_limit="4"
       linejoin_type="extrp_arc"
       start_linecap_type="zerowidth"
       interpolator_beta="0.2"
       interpolator_type="CubicBezierJohan"
       sort_points="true"
       offset_points="0,3.40217"
       lpeversion="1"
       is_visible="true"
       id="path-effect887"
       effect="powerstroke" />
    <inkscape:path-effect
       end_linecap_type="zerowidth"
       scale_width="1"
       miter_limit="4"
       linejoin_type="extrp_arc"
       start_linecap_type="zerowidth"
       interpolator_beta="0.2"
       interpolator_type="CubicBezierJohan"
       sort_points="true"
       offset_points="2.7941224,-3.4021738 | 2.7941224,-3.4021738"
       lpeversion="1"
       is_visible="true"
       id="path-effect882"
       effect="powerstroke" />
    <inkscape:path-effect
       end_linecap_type="zerowidth"
       scale_width="1"
       miter_limit="4"
       linejoin_type="extrp_arc"
       start_linecap_type="zerowidth"
       interpolator_beta="0.2"
       interpolator_type="CubicBezierJohan"
       sort_points="true"
       offset_points="0,3.01003"
       lpeversion="1"
       is_visible="true"
       id="path-effect877"
       effect="powerstroke" />
    <inkscape:path-effect
       end_linecap_type="zerowidth"
       scale_width="1"
       miter_limit="4"
       linejoin_type="extrp_arc"
       start_linecap_type="zerowidth"
       interpolator_beta="0.2"
       interpolator_type="CubicBezierJohan"
       sort_points="true"
       offset_points="0,3.01003"
       lpeversion="1"
       is_visible="true"
       id="path-effect872"
       effect="powerstroke" />
    <inkscape:path-effect
       end_linecap_type="zerowidth"
       scale_width="1"
       miter_limit="4"
       linejoin_type="extrp_arc"
       start_linecap_type="zerowidth"
       interpolator_beta="0.2"
       interpolator_type="CubicBezierJohan"
       sort_points="true"
       offset_points="11.631982,3.0100329"
       lpeversion="1"
       is_visible="true"
       id="path-effect868"
       effect="powerstroke" />
    <inkscape:path-effect
       end_linecap_type="zerowidth"
       scale_width="1"
       miter_limit="4"
       linejoin_type="extrp_arc"
       start_linecap_type="zerowidth"
       interpolator_beta="0.2"
       interpolator_type="CubicBezierJohan"
       sort_points="true"
       offset_points="156.61386,0.938298"
       lpeversion="1"
       is_visible="true"
       id="path-effect864"
       effect="powerstroke" />
    <pattern
       patternUnits="userSpaceOnUse"
       width="34.555802"
       height="34.555802"
       patternTransform="translate(697.97451,522.68951)"
       id="pattern4166">
      <circle
         r="5.0119109"
         cy="17.277901"
         cx="5.0119109"
         id="path4156"
         style="opacity:1;fill:#000000;fill-opacity:1;stroke:none;stroke-width:2.83465;stroke-miterlimit:4;stroke-dasharray:none;stroke-opacity:1" />
      <circle
         style="opacity:1;fill:#000000;fill-opacity:1;stroke:none;stroke-width:2.83465;stroke-miterlimit:4;stroke-dasharray:none;stroke-opacity:1"
         id="circle4160"
         cx="29.543892"
         cy="17.277901"
         r="5.0119109" />
      <circle
         style="opacity:1;fill:#000000;fill-opacity:1;stroke:none;stroke-width:2.83465;stroke-miterlimit:4;stroke-dasharray:none;stroke-opacity:1"
         id="circle4162"
         cx="17.277901"
         cy="29.543892"
         r="5.0119109" />
      <circle
         r="5.0119109"
         cy="5.0119109"
         cx="17.277901"
         id="circle4164"
         style="opacity:1;fill:#000000;fill-opacity:1;stroke:none;stroke-width:2.83465;stroke-miterlimit:4;stroke-dasharray:none;stroke-opacity:1" />
    </pattern>
    <pattern
       patternUnits="userSpaceOnUse"
       width="48.869282"
       height="48.869282"
       patternTransform="translate(690.81773,515.53278)"
       id="pattern4176">
      <rect
         id="rect4172"
         y="-17.277901"
         x="-51.833702"
         height="34.555801"
         width="34.555801"
         transform="rotate(-135)"
         style="display:inline;fill:url(#pattern4174);stroke:none;stroke-width:0.999999" />
    </pattern>
  </defs>
  <sodipodi:namedview
     inkscape:snap-bbox-midpoints="false"
     inkscape:snap-bbox="false"
     inkscape:snap-midpoints="true"
     inkscape:guide-bbox="true"
     showguides="true"
     inkscape:snap-global="false"
     id="base"
     pagecolor="#910000"
     bordercolor="#666666"
     borderopacity="1.0"
     inkscape:pageopacity="0"
     inkscape:pageshadow="2"
     inkscape:zoom="0.41580723"
     inkscape:cx="344.24139"
     inkscape:cy="735.56774"
     inkscape:document-units="mm"
     inkscape:current-layer="layer1"
     inkscape:document-rotation="0"
     showgrid="false"
     units="px"
     inkscape:pagecheckerboard="false" />
  <metadata
     id="metadata5">
    <rdf:RDF>
      <cc:Work
         rdf:about="">
        <dc:format>image/svg+xml</dc:format>
        <dc:type
           rdf:resource="http://purl.org/dc/dcmitype/StillImage" />
        <dc:title></dc:title>
      </cc:Work>
    </rdf:RDF>
  </metadata>
  <g
     style="display:inline"
     inkscape:groupmode="layer"
     id="layer3"
     inkscape:label="Objects">
    <path
       id="path1505"
       style="fill:#000000;fill-opacity:1;stroke:none;stroke-width:2;stroke-linecap:round;stroke-linejoin:round;stroke-miterlimit:4;stroke-dasharray:none;stroke-opacity:1;paint-order:normal;opacity:0.999"
       d="m 170.52759,155.2296 -1.34982,1.91225 1.91225,-1.57479 z m 0.44994,60.17959 h 0.7874 l 0.11248,1.23734 z m -0.22497,-2.02473 1.12485,1.01237 0.11249,-1.46231 z m 2.02474,16.08538 0.89988,-2.13722 1.34982,1.23734 -1.46231,0.33746 z m -5.06184,-4.83686 -0.11249,3.26207 14.06066,-14.51059 z m -16.87278,15.52296 16.08538,-14.51059 -0.78739,2.92461 z m 16.53532,-35.32036 3.59953,-6.74911 12.14841,-13.27326 -11.58598,15.52296 z m -16.53532,19.01 7.64899,-10.91106 7.98645,-8.88633 -3.26207,6.0742 z m 1.01236,-84.70137 15.18551,-16.98526 -0.33746,1.91225 2.13722,-3.8245 13.04829,-12.26089 -16.42284,18.78503 0.56242,-2.81213 -2.13722,3.8245 z m 31.49604,-45.443987 -14.98255,11.090277 -0.19068,1.87586 7.86153,-5.87975 z m -15.36082,11.370367 -16.24759,12.02665 -0.56275,1.12448 11.47372,-7.42383 4.85241,-3.62924 z" />
    <path
       id="path1543"
       style="fill:#000000;fill-opacity:1;stroke:none;stroke-width:2;stroke-linecap:round;stroke-linejoin:round;stroke-miterlimit:4;stroke-dasharray:none;stroke-opacity:1;paint-order:normal;opacity:0.999"
       d="m 201.62975,252.47307 -0.50618,0.33746 0.28121,0.78739 1.34983,-0.22497 -0.50619,-0.33745 z m -2.69964,-1.34982 -0.67491,0.44994 0.33745,0.50618 0.50619,-0.22497 z m 1.12485,-0.33746 -0.11249,1.63104 0.95613,-1.01237 v -0.67491 z m -6.35541,-6.91784 0.0562,0.67491 1.34982,0.89988 -0.7874,-1.12485 z m -7.2553,2.53092 -0.28122,1.06861 1.01237,0.95612 1.74352,1.06861 -1.40606,-2.30594 z m 11.64222,-3.37456 c 0.44994,1.23734 1.06861,3.14959 1.06861,3.14959 l 1.68728,1.96849 0.78739,-0.61867 -1.74352,-1.46231 z m -29.69623,-76.65876 13.61105,10.91096 0.44959,1.46245 3.71191,2.13733 v 65.12885 l 3.26234,0.22479 3.37447,2.0252 0.78755,-0.33796 -2.47479,-1.57459 -0.4501,-1.46244 -1.23713,-0.89969 1.46244,0.33745 0.78703,0.4501 -0.89968,-1.57509 -1.91203,0.33744 -0.33745,-0.67489 0.6749,-1.12448 -2.81224,-3.71244 3.48713,4.04989 0.33745,0.89968 h 1.23713 l 0.4501,0.56224 -0.22531,-1.68723 0.56276,0.67489 0.78703,-1.01234 2.36265,1.91254 -0.90021,-2.24999 -0.67489,-0.67489 0.33745,-1.125 -0.6749,-0.67489 0.90021,-1.91203 0.67489,1.57458 -0.22531,-2.02468 0.33745,-3.26182 -1.34979,-1.34979 v -0.9002 l 0.67489,-0.11214 4.83692,11.13576 1.12499,0.56275 2.02469,0.89969 0.67489,0.33745 -1.46244,-3.71192 -1.91203,-3.37447 -0.47749,-2.57659 1.82728,4.03851 2.81223,4.49947 2.24947,0.56276 0.45011,1.68723 -3.59978,-0.56275 -1.12448,-0.78704 0.78703,1.46193 -0.44958,1.125 -1.46245,-0.78755 1.125,1.34978 2.47427,1.01235 -1.46193,0.22531 2.69957,0.78754 2.02469,1.34979 -0.90021,0.56224 1.7999,1.68724 v -34.87022 l -1.12448,-2.13734 -0.33797,-1.5751 1.46245,2.47478 v -27.44638 l -7.61556,-4.52686 -0.82062,0.2527 z m 36.05154,22.04724 0.78755,1.51825 -0.33745,1.29398 z m -1.45831,4.86688 -0.23823,10.02213 -0.47749,0.71572 -0.31832,3.2613 0.55707,0.87488 -1.03405,3.89744 0.47698,-6.91999 z m -8.0331,11.93106 -0.71623,3.2613 0.8754,2.86339 0.39739,4.77232 -0.39739,3.73827 -0.79582,-1.11363 0.15916,-1.67018 0.71572,-1.90893 -0.47697,-4.61315 -0.71572,-2.14767 z m 9.60407,0.35605 0.11265,1.68723 h -1.18132 c 0,0 0.56249,-0.89984 1.06867,-1.68723 z m -1.34979,4.21834 -0.11266,0.6749 0.16899,1.06867 -0.6749,0.84336 -0.22531,-0.95602 c 0,0 0.61891,-1.57471 0.84388,-1.63091 z m -2.86856,2.13682 v 2.36265 l -0.95601,-0.61908 0.39377,-0.28112 z m 1.01234,1.51878 0.11265,2.24947 -0.56224,-0.61857 z m -2.41846,0.84387 0.78755,0.95602 -1.01234,-0.33745 z m 5.00797,5.95881 -0.23823,4.77284 -1.03405,0.23823 0.31781,2.14767 -0.63613,0.0796 -0.31833,-1.11363 0.39791,-1.19321 0.23874,-3.41994 z m -4.53358,0.47749 0.39791,3.73827 -1.27279,-1.67018 0.63614,-0.71572 z m 5.6472,0 2.06809,3.2613 -2.06809,-1.90893 z m -10.4991,1.03405 1.43196,1.74976 -0.55707,0.71572 z m 1.51154,4.45399 0.63613,1.03404 -0.3979,0.95447 z m -3.42046,0.0796 1.19321,1.90893 -0.95447,-0.7953 z m 1.5906,0.47749 0.63665,0.47697 0.23875,1.19321 -0.8754,-0.71572 z m 3.28972,1.35392 1.23765,1.23765 0.20929,3.66955 -2.00918,-4.11965 z m 8.95966,6.36137 1.35185,1.19269 0.31833,1.03405 -1.5906,-1.19269 z m 0.0956,11.41119 1.74356,1.79989 0.0563,0.56276 -1.46244,-1.29398 z M 177.05173,94.600068 208.43511,66.478763 v 64.903967 l -37.00764,31.15841 -1.91225,0.7874 -3.14958,2.58716 -1.01237,1.79976 -2.13722,2.69964 2.13722,-4.83686 1.91225,-1.34982 18.56006,-24.07184 V 87.625985 Z M 151.68099,261.12674 c 0,0 -0.43747,1.51124 -0.19885,1.39193 0.23862,-0.11931 1.07378,-1.11355 1.07378,-1.11355 l -0.35793,-0.31815 0.31816,-0.71586 h -1.35217 l 0.11931,0.35793 0.79539,0.31815 z m -3.49972,2.66455 v -0.91469 l 1.23285,0.15907 -0.75562,0.51701 z m -4.21557,-5.6075 0.0398,-1.19309 0.59654,-1.034 0.23862,1.034 -0.517,0.15908 0.59654,0.31816 z m -0.79539,0 c -0.51701,1.23285 -0.35793,0.87493 -0.35793,0.87493 l -0.87493,0.19885 0.75562,0.79539 0.79539,-0.0398 z m -6.36313,-2.22709 -1.90893,3.18156 3.45995,-0.75562 2.18732,-2.42594 z M 120.4221,92.424331 c 0,0 0.95455,1.431684 3.02256,3.817855 2.06802,2.386172 2.86339,4.772314 2.86339,4.772314 v 44.70115 l 0.71469,0.31781 v -1.16995 l 1.75079,1.0113 v 2.39056 h 0.97152 l 0.20826,-0.77618 1.80454,1.04179 0.29352,1.09554 3.83387,2.2133 v 1.4919 l 4.5806,2.64429 v 22.50973 l -6.36292,6.91999 -8.09614,4.16564 c 0.093,0.0493 0.27167,0.29342 0.6196,1.16324 0.63628,1.59078 0.55655,6.91999 0.55655,6.91999 l -1.03404,0.0796 v 75.40316 l 0.63613,0.23823 -0.47697,0.3979 v 2.22724 h 1.35186 v -2.78379 c 0,0 -0.79522,0.63598 -0.63614,-2.54558 0.15908,-3.18156 5.01106,-8.03311 5.01106,-8.03311 l 0.31833,0.7953 0.7953,-0.23875 -0.15916,-1.1932 1.1932,0.0796 3.02256,-3.10214 -3.50004,1.03405 2.70422,-4.61316 h 1.82987 l 3.10161,-0.31833 2.14768,-0.39739 2.22725,-2.38641 1.11363,-0.63614 -1.90893,-0.23875 0.23823,-2.78381 -0.95446,-1.11362 0.0796,-1.03405 -1.19321,-0.7953 -0.47697,-1.27279 -1.90893,-0.71572 -0.71572,0.47749 -0.23875,-0.47749 -0.95446,-0.95446 0.15916,-0.63614 0.63614,-0.47749 -0.31832,-1.67018 -2.78382,-4.45399 -0.0796,-1.03405 2.30684,1.98851 0.55656,-0.31832 -2.38591,-2.78382 2.46549,2.54507 0.55707,-0.47697 -3.10214,-6.04511 -1.11363,-0.71572 0.0796,-1.35237 -0.63614,-1.03405 2.06757,1.59112 1.82987,2.70423 0.95446,-0.87489 0.47697,-3.02255 0.71572,5.01106 0.95446,1.74977 0.87489,0.87488 -0.71572,0.95446 -1.90893,-0.87488 0.63665,1.11363 -0.0796,0.7953 5.80637,3.73827 0.0796,1.74977 0.39739,0.55707 -0.0796,1.43143 0.63665,0.15917 -0.15916,1.03404 0.47697,1.03405 v -57.4275 l 2.94297,-4.8519 1.67019,-0.23823 -0.39739,-1.98851 15.66932,-21.79402 0.47698,-1.51102 -2.3859,2.78381 0.15864,-0.55656 0.47749,-0.71623 -0.0796,-2.06809 0.39791,-0.31781 v -1.11363 l 5.96553,-5.72678 0.23823,-0.71572 1.9885,-3.2613 -22.82754,22.82755 -10.89701,8.66975 -0.23875,-21.87308 0.31833,-1.03405 16.06672,7.47655 -9.22631,-8.27185 v -40.4058 z m 5.58468,97.147039 c -0.0771,-0.0409 -0.0966,0.0496 -0.0966,0.0496 z m 13.36249,31.23685 0.67489,1.125 -0.78755,0.9002 -0.56223,3.82406 -0.33745,-4.72426 z m 43.41921,-41.28181 2.69965,1.79976 0.11248,1.01237 -1.12485,-1.12485 -1.34982,-0.56243 z m -39.22048,63.66427 2.66456,2.74409 -3.14179,-2.06801 -1.23286,-0.517 z m -2.06801,-9.78331 0.79539,0.79539 -0.19885,0.63632 -0.87493,-0.67609 z m -1.03401,-4.09626 0.35793,1.8294 -0.75562,1.51124 0.23861,-1.63055 -0.19885,-0.9147 z m 2.44649,10.2824 3.4308,1.46231 c 0,0 -2.24971,-0.11248 -2.02473,0.0562 0.22497,0.16873 2.19346,1.29359 2.19346,1.29359 l 0.73115,3.03709 -1.51855,-2.30594 0.11249,1.85601 -2.30595,-2.36219 -2.47468,0.56242 -1.06861,-0.28121 c 0,0 -0.89988,-0.61867 -0.16872,-0.50618 0.73115,0.11248 3.4308,-0.0563 3.4308,-0.0563 l 0.61866,-0.33745 -0.84364,-0.56243 h 1.01237 z" />
  </g>
  <g
     inkscape:label="Layer 1"
     inkscape:groupmode="layer"
     id="layer1"
     style="display:none;opacity:0.357616"
     sodipodi:insensitive="true" />
</svg>
