<?xml version="1.0" encoding="UTF-8" standalone="no"?>
<svg
   xmlns:dc="http://purl.org/dc/elements/1.1/"
   xmlns:cc="http://creativecommons.org/ns#"
   xmlns:rdf="http://www.w3.org/1999/02/22-rdf-syntax-ns#"
   xmlns:svg="http://www.w3.org/2000/svg"
   xmlns="http://www.w3.org/2000/svg"
   xmlns:xlink="http://www.w3.org/1999/xlink"
   xmlns:sodipodi="http://sodipodi.sourceforge.net/DTD/sodipodi-0.dtd"
   xmlns:inkscape="http://www.inkscape.org/namespaces/inkscape"
   inkscape:export-ydpi="300"
   inkscape:export-xdpi="300"
   inkscape:export-filename="D:\Titipan\Projects\Codes\Rhodes Wiki Indo\Icon Assets\Lee_B.png"
   width="1280"
   height="1280"
   viewBox="0 0 338.66666 338.66668"
   version="1.1"
   id="svg8"
   inkscape:version="1.0.2 (e86c870879, 2021-01-15, custom)"
   sodipodi:docname="RhodesEO_Z.svg">
  <defs
     id="defs2">
    <pattern
       inkscape:collect="always"
       xlink:href="#pattern4166"
       id="pattern4174"
       patternTransform="translate(-51.833686,-17.277895)" />
    <inkscape:path-effect
       end_linecap_type="zerowidth"
       scale_width="1"
       miter_limit="4"
       linejoin_type="extrp_arc"
       start_linecap_type="zerowidth"
       interpolator_beta="0.2"
       interpolator_type="CubicBezierJohan"
       sort_points="true"
       offset_points="0,3.40217"
       lpeversion="1"
       is_visible="true"
       id="path-effect892"
       effect="powerstroke" />
    <inkscape:path-effect
       end_linecap_type="zerowidth"
       scale_width="1"
       miter_limit="4"
       linejoin_type="extrp_arc"
       start_linecap_type="zerowidth"
       interpolator_beta="0.2"
       interpolator_type="CubicBezierJohan"
       sort_points="true"
       offset_points="0,3.40217"
       lpeversion="1"
       is_visible="true"
       id="path-effect887"
       effect="powerstroke" />
    <inkscape:path-effect
       end_linecap_type="zerowidth"
       scale_width="1"
       miter_limit="4"
       linejoin_type="extrp_arc"
       start_linecap_type="zerowidth"
       interpolator_beta="0.2"
       interpolator_type="CubicBezierJohan"
       sort_points="true"
       offset_points="2.7941224,-3.4021738 | 2.7941224,-3.4021738"
       lpeversion="1"
       is_visible="true"
       id="path-effect882"
       effect="powerstroke" />
    <inkscape:path-effect
       end_linecap_type="zerowidth"
       scale_width="1"
       miter_limit="4"
       linejoin_type="extrp_arc"
       start_linecap_type="zerowidth"
       interpolator_beta="0.2"
       interpolator_type="CubicBezierJohan"
       sort_points="true"
       offset_points="0,3.01003"
       lpeversion="1"
       is_visible="true"
       id="path-effect877"
       effect="powerstroke" />
    <inkscape:path-effect
       end_linecap_type="zerowidth"
       scale_width="1"
       miter_limit="4"
       linejoin_type="extrp_arc"
       start_linecap_type="zerowidth"
       interpolator_beta="0.2"
       interpolator_type="CubicBezierJohan"
       sort_points="true"
       offset_points="0,3.01003"
       lpeversion="1"
       is_visible="true"
       id="path-effect872"
       effect="powerstroke" />
    <inkscape:path-effect
       end_linecap_type="zerowidth"
       scale_width="1"
       miter_limit="4"
       linejoin_type="extrp_arc"
       start_linecap_type="zerowidth"
       interpolator_beta="0.2"
       interpolator_type="CubicBezierJohan"
       sort_points="true"
       offset_points="11.631982,3.0100329"
       lpeversion="1"
       is_visible="true"
       id="path-effect868"
       effect="powerstroke" />
    <inkscape:path-effect
       end_linecap_type="zerowidth"
       scale_width="1"
       miter_limit="4"
       linejoin_type="extrp_arc"
       start_linecap_type="zerowidth"
       interpolator_beta="0.2"
       interpolator_type="CubicBezierJohan"
       sort_points="true"
       offset_points="156.61386,0.938298"
       lpeversion="1"
       is_visible="true"
       id="path-effect864"
       effect="powerstroke" />
    <pattern
       patternUnits="userSpaceOnUse"
       width="34.555802"
       height="34.555802"
       patternTransform="translate(697.97451,522.68951)"
       id="pattern4166">
      <circle
         r="5.0119109"
         cy="17.277901"
         cx="5.0119109"
         id="path4156"
         style="opacity:1;fill:#000000;fill-opacity:1;stroke:none;stroke-width:2.83465;stroke-miterlimit:4;stroke-dasharray:none;stroke-opacity:1" />
      <circle
         style="opacity:1;fill:#000000;fill-opacity:1;stroke:none;stroke-width:2.83465;stroke-miterlimit:4;stroke-dasharray:none;stroke-opacity:1"
         id="circle4160"
         cx="29.543892"
         cy="17.277901"
         r="5.0119109" />
      <circle
         style="opacity:1;fill:#000000;fill-opacity:1;stroke:none;stroke-width:2.83465;stroke-miterlimit:4;stroke-dasharray:none;stroke-opacity:1"
         id="circle4162"
         cx="17.277901"
         cy="29.543892"
         r="5.0119109" />
      <circle
         r="5.0119109"
         cy="5.0119109"
         cx="17.277901"
         id="circle4164"
         style="opacity:1;fill:#000000;fill-opacity:1;stroke:none;stroke-width:2.83465;stroke-miterlimit:4;stroke-dasharray:none;stroke-opacity:1" />
    </pattern>
    <pattern
       patternUnits="userSpaceOnUse"
       width="48.869282"
       height="48.869282"
       patternTransform="translate(690.81773,515.53278)"
       id="pattern4176">
      <rect
         id="rect4172"
         y="-17.277901"
         x="-51.833702"
         height="34.555801"
         width="34.555801"
         transform="rotate(-135)"
         style="display:inline;fill:url(#pattern4174);stroke:none;stroke-width:0.999999" />
    </pattern>
  </defs>
  <sodipodi:namedview
     inkscape:snap-bbox-midpoints="false"
     inkscape:snap-bbox="false"
     inkscape:snap-midpoints="true"
     inkscape:guide-bbox="true"
     showguides="true"
     inkscape:snap-global="false"
     id="base"
     pagecolor="#910000"
     bordercolor="#666666"
     borderopacity="1.0"
     inkscape:pageopacity="0"
     inkscape:pageshadow="2"
     inkscape:zoom="0.39807901"
     inkscape:cx="335.04934"
     inkscape:cy="618.05167"
     inkscape:document-units="mm"
     inkscape:current-layer="layer1"
     inkscape:document-rotation="0"
     showgrid="false"
     units="px"
     inkscape:pagecheckerboard="false" />
  <metadata
     id="metadata5">
    <rdf:RDF>
      <cc:Work
         rdf:about="">
        <dc:format>image/svg+xml</dc:format>
        <dc:type
           rdf:resource="http://purl.org/dc/dcmitype/StillImage" />
        <dc:title></dc:title>
      </cc:Work>
    </rdf:RDF>
  </metadata>
  <g
     style="display:inline"
     inkscape:groupmode="layer"
     id="layer3"
     inkscape:label="Objects">
    <path
       id="rect7867"
       style="display:inline;fill:#000000;fill-opacity:1;stroke:none;stroke-width:1.88976;stroke-linecap:round;stroke-linejoin:round"
       inkscape:label="rect7867"
       d="m 639.4668,312.8457 -65.61133,65.4336 -0.0137,-0.94727 h -13.76758 c -16.3465,0 -34.41406,8.60156 -34.41406,8.60156 0,0 -4.10135,23.99434 -8.4336,48.81836 l -220.41601,219.81446 170.86718,170.39843 -10.84375,2.32422 -43.01757,64.52735 -96.35743,18.0664 h 235.36914 l 10.81836,10.78907 h 151.64063 l 10.81836,-10.78907 H 967.875 L 871.51953,891.81641 828.50195,827.28906 812.38867,823.83594 982.12305,654.56641 837.77344,510.61133 V 528.375 l 8.53711,8.51367 a 5.4748207,5.4748207 0 0 0 -0.27344,1.70703 5.4748207,5.4748207 0 0 0 5.47461,5.47461 5.4748207,5.4748207 0 0 0 1.7207,-0.27734 l 6.45117,6.43164 a 5.8590188,5.8590188 0 0 0 -2.35937,4.69922 5.8590188,5.8590188 0 0 0 5.85937,5.85937 5.8590188,5.8590188 0 0 0 4.70703,-2.37304 l 10.50196,10.47265 a 6.2432172,6.2432172 0 0 0 -0.4668,2.36914 6.2432172,6.2432172 0 0 0 6.24219,6.24414 6.2432172,6.2432172 0 0 0 2.38476,-0.47461 l 5.28907,5.2754 a 6.6274152,6.6274152 0 0 0 -2.62891,5.2832 6.6274152,6.6274152 0 0 0 6.62695,6.6289 6.6274152,6.6274152 0 0 0 5.29493,-2.64453 l 9.35937,9.33203 a 7.0116133,7.0116133 0 0 0 -0.68164,3.01368 7.0116133,7.0116133 0 0 0 7.01172,7.00976 7.0116133,7.0116133 0 0 0 3.0293,-0.68945 L 924,614.36719 a 7.3958113,7.3958113 0 0 0 -2.89844,5.87109 7.3958113,7.3958113 0 0 0 7.39453,7.39453 7.3958113,7.3958113 0 0 0 5.88477,-2.91601 l 21.9375,21.8789 a 7.9400913,7.9400913 0 0 0 -3.10547,6.29883 7.9400913,7.9400913 0 0 0 5.27539,7.47852 l -22.35547,22.29297 a 8.164207,8.164207 0 0 0 -7.63672,-5.2793 8.164207,8.164207 0 0 0 -8.16406,8.16406 8.164207,8.164207 0 0 0 5.25586,7.62891 l -2.96094,2.95703 a 8.164207,8.164207 0 0 0 -5.80273,-2.42188 8.164207,8.164207 0 0 0 -8.16406,8.16407 8.164207,8.164207 0 0 0 2.40625,5.78711 l -7.61524,7.59179 a 8.164207,8.164207 0 0 0 -7.61133,-5.21289 8.164207,8.164207 0 0 0 -8.16406,8.16406 8.164207,8.164207 0 0 0 5.19336,7.60352 l -3.05859,3.04883 a 8.0041252,8.0041252 0 0 0 -5.64258,-2.32813 8.0041252,8.0041252 0 0 0 -8.00391,8.00391 8.0041252,8.0041252 0 0 0 0.19141,1.73828 h -0.70508 a 8.0041252,8.0041252 0 0 0 0.19336,-1.73828 8.0041252,8.0041252 0 0 0 -8.00391,-8.00391 8.0041252,8.0041252 0 0 0 -8.0039,8.00391 8.0041252,8.0041252 0 0 0 0.1914,1.73828 h -0.70507 a 8.0041252,8.0041252 0 0 0 0.19335,-1.73828 8.0041252,8.0041252 0 0 0 -8.0039,-8.00391 8.0041252,8.0041252 0 0 0 -8.00391,8.00391 8.0041252,8.0041252 0 0 0 0.19141,1.73828 h -0.70508 a 8.0041252,8.0041252 0 0 0 0.19336,-1.73828 8.0041252,8.0041252 0 0 0 -8.00391,-8.00391 8.0041252,8.0041252 0 0 0 -8.00586,8.00391 8.0041252,8.0041252 0 0 0 0.19141,1.73828 h -0.70117 a 8.0041252,8.0041252 0 0 0 0.19141,-1.73828 8.0041252,8.0041252 0 0 0 -8.00586,-8.00391 8.0041252,8.0041252 0 0 0 -8.00391,8.00391 8.0041252,8.0041252 0 0 0 0.19141,1.73828 h -0.70508 a 8.0041252,8.0041252 0 0 0 0.19336,-1.73828 8.0041252,8.0041252 0 0 0 -8.00391,-8.00391 8.0041252,8.0041252 0 0 0 -8.00391,8.00391 8.0041252,8.0041252 0 0 0 0.19141,1.73828 h -0.70508 a 8.0041252,8.0041252 0 0 0 0.19336,-1.73828 8.0041252,8.0041252 0 0 0 -8.0039,-8.00391 8.0041252,8.0041252 0 0 0 -8.00391,8.00391 8.0041252,8.0041252 0 0 0 0.19141,1.73828 h -0.70508 a 8.0041252,8.0041252 0 0 0 0.19336,-1.73828 8.0041252,8.0041252 0 0 0 -8.00391,-8.00391 8.0041252,8.0041252 0 0 0 -2.8418,0.52149 l 3.18946,6.78125 h -7.14453 l -0.83985,-1.69532 a 8.0041252,8.0041252 0 0 0 -0.36719,2.39649 8.0041252,8.0041252 0 0 0 0.19141,1.73828 h -0.70508 a 8.0041252,8.0041252 0 0 0 0.19336,-1.73828 8.0041252,8.0041252 0 0 0 -2.18164,-5.49219 c -0.19995,-0.84543 -0.40445,-1.71314 -0.60547,-2.56445 -0.77848,0.0607 -1.52477,0.089 -2.16797,0.0684 v 7.28906 h -5.66015 v -25.11914 h 2.83008 c 0.75632,-0.012 1.56436,-0.0187 2.39843,-0.008 v -0.002 c 0.0427,0.004 0.0882,0.007 0.13086,0.008 h 0.30078 v 0.0156 c 0.42053,0.01 0.85269,0.0428 1.28125,0.0664 a 8.164207,8.164207 0 0 0 3.83399,-6.91992 8.164207,8.164207 0 0 0 -0.16602,-1.64063 H 631.7832 v -150.0957 l 44.58985,-44.58985 h 101.22851 c -1.43584,-14.47106 -3.07439,-29.62103 -4.73828,-41.91211 l 9.3457,9.32032 a 4.0020617,4.0020617 0 0 0 -0.0137,0.32031 4.0020617,4.0020617 0 0 0 4.00196,4.00195 4.0020617,4.0020617 0 0 0 0.33007,-0.0137 l 8.81836,8.79297 a 4.3542433,4.3542433 0 0 0 -1.83008,3.54688 4.3542433,4.3542433 0 0 0 4.35352,4.35546 4.3542433,4.3542433 0 0 0 3.55469,-1.84179 l 12.80859,12.77539 a 4.7384414,4.7384414 0 0 0 -0.0996,0.65429 h 18.56836 l -63.23828,-63.06445 c -4.79321,-27.33001 -9.78906,-56.55469 -9.78906,-56.55469 0,0 -18.06757,-8.60156 -34.41406,-8.60156 h -13.76563 l -0.0996,7.24414 z m 122.23828,389.03321 a 8.164207,8.164207 0 0 0 8.16406,8.16406 8.164207,8.164207 0 0 0 8.16406,-8.16406 8.164207,8.164207 0 0 0 -0.16601,-1.64063 h -15.99414 a 8.164207,8.164207 0 0 0 -0.16797,1.64063 z m 16.32812,0 a 8.164207,8.164207 0 0 0 8.16407,8.16406 8.164207,8.164207 0 0 0 8.16406,-8.16406 8.164207,8.164207 0 0 0 8.16406,8.16406 8.164207,8.164207 0 0 0 8.16406,-8.16406 8.164207,8.164207 0 0 0 -8.16406,-8.16407 8.164207,8.164207 0 0 0 -2.62109,0.43164 l -5.10938,5.10938 a 8.164207,8.164207 0 0 0 -0.43359,2.5957 8.164207,8.164207 0 0 0 -0.23633,-1.92578 l -0.3125,0.3125 h -15.61133 a 8.164207,8.164207 0 0 0 -0.16797,1.64063 z m 32.65625,0 a 8.164207,8.164207 0 0 0 8.16407,8.16406 8.164207,8.164207 0 0 0 8.16601,-8.16406 8.164207,8.164207 0 0 0 -8.16601,-8.16407 8.164207,8.164207 0 0 0 -8.16407,8.16407 z m 16.33008,0 a 8.164207,8.164207 0 0 0 8.16406,8.16406 8.164207,8.164207 0 0 0 8.16407,-8.16406 8.164207,8.164207 0 0 0 -0.16602,-1.64063 h -9.17578 v -6.4375 a 8.164207,8.164207 0 0 0 -6.98633,8.07813 z m 16.32813,0 a 8.164207,8.164207 0 0 0 8.16406,8.16406 8.164207,8.164207 0 0 0 8.16406,-8.16406 8.164207,8.164207 0 0 0 -0.16601,-1.64063 h -15.99415 a 8.164207,8.164207 0 0 0 -0.16796,1.64063 z m 16.32812,0 a 8.164207,8.164207 0 0 0 8.16406,8.16406 8.164207,8.164207 0 0 0 8.16407,-8.16406 8.164207,8.164207 0 0 0 -8.16407,-8.16407 8.164207,8.164207 0 0 0 -1.17773,0.0859 v 6.4375 h -6.81836 a 8.164207,8.164207 0 0 0 -0.16797,1.64063 z m 16.32813,0 a 8.164207,8.164207 0 0 0 8.16406,8.16406 8.164207,8.164207 0 0 0 8.16406,-8.16406 8.164207,8.164207 0 0 0 -8.16406,-8.16407 8.164207,8.164207 0 0 0 -8.16406,8.16407 z m 16.32812,0 a 8.164207,8.164207 0 0 0 8.16406,8.16406 8.164207,8.164207 0 0 0 8.16407,-8.16406 8.164207,8.164207 0 0 0 -8.16407,-8.16407 8.164207,8.164207 0 0 0 -8.16406,8.16407 z m -4.65625,16.33007 a 8.164207,8.164207 0 0 0 -8.16406,-8.16406 8.164207,8.164207 0 0 0 -8.16406,8.16406 8.164207,8.164207 0 0 0 8.16406,8.16407 8.164207,8.164207 0 0 0 8.16406,-8.16407 z m -16.32812,0 a 8.164207,8.164207 0 0 0 -8.16407,-8.16406 8.164207,8.164207 0 0 0 -8.16406,8.16406 8.164207,8.164207 0 0 0 8.16406,8.16407 8.164207,8.164207 0 0 0 8.16407,-8.16407 z m -16.32813,0 a 8.164207,8.164207 0 0 0 -8.16601,-8.16406 8.164207,8.164207 0 0 0 -8.16407,8.16406 8.164207,8.164207 0 0 0 8.16407,8.16407 8.164207,8.164207 0 0 0 8.16601,-8.16407 z m -16.33008,0 a 8.164207,8.164207 0 0 0 -8.16406,-8.16406 8.164207,8.164207 0 0 0 -8.16406,8.16406 8.164207,8.164207 0 0 0 8.16406,8.16407 8.164207,8.164207 0 0 0 8.16406,-8.16407 z m -16.32812,0 a 8.164207,8.164207 0 0 0 -8.16406,-8.16406 8.164207,8.164207 0 0 0 -8.16407,8.16406 8.164207,8.164207 0 0 0 8.16407,8.16407 8.164207,8.164207 0 0 0 8.16406,-8.16407 z m -16.32813,0 a 8.164207,8.164207 0 0 0 -8.16406,-8.16406 8.164207,8.164207 0 0 0 -8.16406,8.16406 8.164207,8.164207 0 0 0 8.16406,8.16407 8.164207,8.164207 0 0 0 8.16406,-8.16407 z m -16.32812,0 a 8.164207,8.164207 0 0 0 -8.16406,-8.16406 8.164207,8.164207 0 0 0 -8.16407,8.16406 8.164207,8.164207 0 0 0 8.16407,8.16407 8.164207,8.164207 0 0 0 8.16406,-8.16407 z m -16.32813,0 a 8.164207,8.164207 0 0 0 -8.16406,-8.16406 8.164207,8.164207 0 0 0 -0.89844,0.0508 c 2.78335,1.22152 4.82227,3.4996 4.82227,7.75196 0,3.11406 -1.42452,5.15531 -3.39063,6.48046 l 0.90235,1.91797 a 8.164207,8.164207 0 0 0 6.72851,-8.03711 z m 146.95508,-32.6582 a 8.164207,8.164207 0 0 0 -8.16406,-8.16406 8.164207,8.164207 0 0 0 -8.16406,8.16406 8.164207,8.164207 0 0 0 8.16406,8.16406 8.164207,8.164207 0 0 0 8.16406,-8.16406 z m -16.32812,0 a 8.164207,8.164207 0 0 0 -8.16407,-8.16406 8.164207,8.164207 0 0 0 -8.16406,8.16406 8.164207,8.164207 0 0 0 8.16406,8.16406 8.164207,8.164207 0 0 0 8.16407,-8.16406 z m -16.32813,0 a 8.164207,8.164207 0 0 0 -8.16406,-8.16406 8.164207,8.164207 0 0 0 -8.16406,8.16406 8.164207,8.164207 0 0 0 8.16406,8.16406 8.164207,8.164207 0 0 0 8.16406,-8.16406 z m -16.32812,0 a 8.164207,8.164207 0 0 0 -4.68555,-7.38476 v 14.76953 a 8.164207,8.164207 0 0 0 4.68555,-7.38477 z m -231.88086,-354.9414 59.39062,59.22851 a 2.0810725,2.0810725 0 0 0 -1.03906,1.80273 2.0810725,2.0810725 0 0 0 2.08008,2.08008 2.0810725,2.0810725 0 0 0 1.80468,-1.04492 l 9.44727,9.42188 -0.51562,37.17773 c 0,0 -1.44034,-0.55307 -4.03907,-1.16016 h -0.002 a 3.2336665,3.2336665 0 0 0 -2.03906,-0.72461 3.2336665,3.2336665 0 0 0 -0.88867,0.125 c -3.94072,-0.68532 -9.43474,-1.22187 -16.26172,-0.82031 -8.00512,0.47089 -12.28,0.6651 -14.85352,0.76172 a 3.2336665,3.2336665 0 0 0 -0.65234,-0.0664 3.2336665,3.2336665 0 0 0 -0.83985,0.11133 c -0.51481,0.0123 -1.7207,0.0527 -1.7207,0.0527 l 0.16016,-11.51758 a 2.8494685,2.8494685 0 0 0 0.59375,-1.74023 2.8494685,2.8494685 0 0 0 -0.54688,-1.67774 l 0.1875,-13.47656 a 2.4652705,2.4652705 0 0 0 2.16602,1.29101 2.4652705,2.4652705 0 0 0 2.46484,-2.46484 2.4652705,2.4652705 0 0 0 -2.46484,-2.46484 2.4652705,2.4652705 0 0 0 -0.043,0 2.4652705,2.4652705 0 0 0 -2.08985,1.23242 l 0.43165,-31.1211 a 1.7288909,1.7288909 0 0 0 1.70117,1.42579 1.7288909,1.7288909 0 0 0 1.72851,-1.73047 1.7288909,1.7288909 0 0 0 -1.72851,-1.72852 1.7288909,1.7288909 0 0 0 -1.72852,1.72852 1.7288909,1.7288909 0 0 0 0.0254,0.29883 l -13.1718,-1.23435 a 1.7288909,1.7288909 0 0 0 -1.45313,-0.79297 1.7288909,1.7288909 0 0 0 -1.2539,0.53906 l -11.65039,-1.09179 -18.125,1.69922 a 1.7288909,1.7288909 0 0 0 -1.62696,-1.14649 1.7288909,1.7288909 0 0 0 -1.70898,1.45899 l -6.06836,0.56836 0.65625,47.25781 a 2.8494685,2.8494685 0 0 0 -0.38672,1.42969 2.8494685,2.8494685 0 0 0 0.42578,1.49804 l 0.16406,11.75977 c 0,0 -3.44249,9.6e-4 -18.06836,-0.85938 -10.73848,-0.63164 -18.18855,1.04884 -21.41211,1.99024 a 3.2336665,3.2336665 0 0 0 -1.83984,-1.20703 l -0.375,-27.07422 a 2.4652705,2.4652705 0 0 0 2.0918,-2.43555 2.4652705,2.4652705 0 0 0 -2.16016,-2.44531 l -0.13476,-9.72266 z m -16.55274,27.02929 a 1.3446929,1.3446929 0 0 0 -1.3457,1.34375 1.3446929,1.3446929 0 0 0 1.3457,1.3457 1.3446929,1.3446929 0 0 0 1.34375,-1.3457 1.3446929,1.3446929 0 0 0 -1.34375,-1.34375 z m 16.32813,0 a 1.3446929,1.3446929 0 0 0 -1.34571,1.34375 1.3446929,1.3446929 0 0 0 1.34571,1.3457 1.3446929,1.3446929 0 0 0 1.34375,-1.3457 1.3446929,1.3446929 0 0 0 -1.34375,-1.34375 z m 16.32812,0 a 1.3446929,1.3446929 0 0 0 -1.34375,1.34375 1.3446929,1.3446929 0 0 0 1.34375,1.3457 1.3446929,1.3446929 0 0 0 1.34375,-1.3457 1.3446929,1.3446929 0 0 0 -1.34375,-1.34375 z m -48.98437,15.94336 a 1.7288909,1.7288909 0 0 0 -1.73047,1.72852 1.7288909,1.7288909 0 0 0 1.73047,1.73047 1.7288909,1.7288909 0 0 0 1.72851,-1.73047 1.7288909,1.7288909 0 0 0 -1.72851,-1.72852 z m -20.98633,15.97656 a 2.0810725,2.0810725 0 0 0 -2.08008,2.08203 2.0810725,2.0810725 0 0 0 2.08008,2.08008 2.0810725,2.0810725 0 0 0 2.08203,-2.08008 2.0810725,2.0810725 0 0 0 -2.08203,-2.08203 z m 16.32812,0 a 2.0810725,2.0810725 0 0 0 -2.08007,2.08203 2.0810725,2.0810725 0 0 0 2.08007,2.08008 2.0810725,2.0810725 0 0 0 2.08204,-2.08008 2.0810725,2.0810725 0 0 0 -2.08204,-2.08203 z m 81.64258,0 a 2.0810725,2.0810725 0 0 0 -2.08008,2.08203 2.0810725,2.0810725 0 0 0 2.08008,2.08008 2.0810725,2.0810725 0 0 0 2.08203,-2.08008 2.0810725,2.0810725 0 0 0 -2.08203,-2.08203 z m -93.35742,15.94532 a 2.4652705,2.4652705 0 0 0 -2.42187,2.46484 2.4652705,2.4652705 0 0 0 2.46484,2.46484 2.4652705,2.4652705 0 0 0 2.4668,-2.46484 2.4652705,2.4652705 0 0 0 -2.4668,-2.46484 2.4652705,2.4652705 0 0 0 -0.043,0 z m 16.32813,0 a 2.4652705,2.4652705 0 0 0 -2.42188,2.46484 2.4652705,2.4652705 0 0 0 2.4668,2.46484 2.4652705,2.4652705 0 0 0 2.46484,-2.46484 2.4652705,2.4652705 0 0 0 -2.46484,-2.46484 2.4652705,2.4652705 0 0 0 -0.0449,0 z m 81.64257,0 a 2.4652705,2.4652705 0 0 0 -2.42187,2.46484 2.4652705,2.4652705 0 0 0 2.46484,2.46484 2.4652705,2.4652705 0 0 0 2.4668,-2.46484 2.4652705,2.4652705 0 0 0 -2.4668,-2.46484 2.4652705,2.4652705 0 0 0 -0.043,0 z m 16.32813,0 a 2.4652705,2.4652705 0 0 0 -2.42188,2.46484 2.4652705,2.4652705 0 0 0 2.46485,2.46484 2.4652705,2.4652705 0 0 0 2.46679,-2.46484 2.4652705,2.4652705 0 0 0 -2.46679,-2.46484 2.4652705,2.4652705 0 0 0 -0.043,0 z m -118.98828,15.94336 a 2.8494685,2.8494685 0 0 0 -2.77344,2.84961 2.8494685,2.8494685 0 0 0 2.84961,2.8496 2.8494685,2.8494685 0 0 0 2.84961,-2.8496 2.8494685,2.8494685 0 0 0 -2.84961,-2.84961 2.8494685,2.8494685 0 0 0 -0.0762,0 z m 16.33008,0 a 2.8494685,2.8494685 0 0 0 -2.7754,2.84961 2.8494685,2.8494685 0 0 0 2.84961,2.8496 2.8494685,2.8494685 0 0 0 2.84961,-2.8496 2.8494685,2.8494685 0 0 0 -2.84961,-2.84961 2.8494685,2.8494685 0 0 0 -0.0742,0 z m 81.64062,0 a 2.8494685,2.8494685 0 0 0 -2.77344,2.84961 2.8494685,2.8494685 0 0 0 2.84961,2.8496 2.8494685,2.8494685 0 0 0 2.84961,-2.8496 2.8494685,2.8494685 0 0 0 -2.84961,-2.84961 2.8494685,2.8494685 0 0 0 -0.0762,0 z m 16.32813,0 a 2.8494685,2.8494685 0 0 0 -2.77344,2.84961 2.8494685,2.8494685 0 0 0 2.84961,2.8496 2.8494685,2.8494685 0 0 0 2.84961,-2.8496 2.8494685,2.8494685 0 0 0 -2.84961,-2.84961 2.8494685,2.8494685 0 0 0 -0.0762,0 z m -186.2793,34.74414 c -0.65432,4.27972 -1.31582,9.1501 -1.9707,14.39257 a 4.0020617,4.0020617 0 0 0 -2.95704,-1.30468 4.0020617,4.0020617 0 0 0 -4.00195,4.00195 4.0020617,4.0020617 0 0 0 4.00195,4.00195 4.0020617,4.0020617 0 0 0 2.23047,-0.68164 c -0.93436,7.89953 -1.82494,16.27092 -2.67187,24.61914 a 4.7384414,4.7384414 0 0 0 -4.28125,4.33203 h 87.69922 v 51.81055 h -76.63086 a 5.8590188,5.8590188 0 0 0 4.47656,3.35742 l -1.51953,7.60547 c 0,0 1.20292,0.0944 1.45312,0.11133 a 6.2432172,6.2432172 0 0 0 -0.67187,2.81445 6.2432172,6.2432172 0 0 0 2.89062,5.26758 h 6.70508 a 6.2432172,6.2432172 0 0 0 2.89063,-5.26758 6.2432172,6.2432172 0 0 0 -0.27344,-1.82422 c 1.3577,0.13739 2.82612,0.31541 4.26172,0.47852 a 6.2432172,6.2432172 0 0 0 -0.14649,1.3457 6.2432172,6.2432172 0 0 0 2.89063,5.26758 h 6.70508 a 6.2432172,6.2432172 0 0 0 2.8789,-4.89453 c 1.39567,0.24613 2.71747,0.50557 3.96289,0.7793 a 6.2432172,6.2432172 0 0 0 2.78516,4.11523 h 36.71289 v 50.24024 h -41.50391 a 7.3958113,7.3958113 0 0 0 0.25782,0.13281 c -0.48635,2.15481 -0.92645,4.13388 -1.43555,6.375 a 7.7479926,7.7479926 0 0 0 -7.00977,-4.44922 7.7479926,7.7479926 0 0 0 -7.74804,7.74805 7.7479926,7.7479926 0 0 0 7.74804,7.74804 7.7479926,7.7479926 0 0 0 4.87891,-1.73047 c -0.41923,1.83208 -0.84185,3.67942 -1.26562,5.5293 h 49.21875 l -52.125,52.125 h -25.03125 a 8.164207,8.164207 0 0 0 -0.16797,1.64063 8.164207,8.164207 0 0 0 3.70117,6.83593 h 8.62305 v 0.1875 a 8.164207,8.164207 0 0 0 2.01562,-1.68554 c -0.56675,2.40919 -1.10777,4.69239 -1.67187,7.08593 a 8.164207,8.164207 0 0 0 -0.99415,3.83399 h 0.6504 v 5.96484 h -1.9668 c -0.20375,0.86396 -0.40852,1.73185 -0.61133,2.58985 a 8.0041252,8.0041252 0 0 0 -1.58203,-0.15821 8.0041252,8.0041252 0 0 0 -3.91602,1.02344 h 8.07618 v 6.2793 H 516.9707 a 8.0041252,8.0041252 0 0 0 -0.0312,0.70117 8.0041252,8.0041252 0 0 0 0.19141,1.73828 h -0.70508 a 8.0041252,8.0041252 0 0 0 0.19336,-1.73828 8.0041252,8.0041252 0 0 0 -0.0312,-0.70117 h -3.02734 v -5.5918 a 8.0041252,8.0041252 0 0 0 -4.94532,-1.71094 8.0041252,8.0041252 0 0 0 -8.0039,8.00391 8.0041252,8.0041252 0 0 0 0.1914,1.73828 h -0.70312 a 8.0041252,8.0041252 0 0 0 0.19141,-1.73828 8.0041252,8.0041252 0 0 0 -8.00586,-8.00391 8.0041252,8.0041252 0 0 0 -8.00391,8.00391 8.0041252,8.0041252 0 0 0 0.19141,1.73828 h -0.70508 a 8.0041252,8.0041252 0 0 0 0.19336,-1.73828 8.0041252,8.0041252 0 0 0 -8.00391,-8.00391 8.0041252,8.0041252 0 0 0 -8.00391,8.00391 8.0041252,8.0041252 0 0 0 0.19141,1.73828 h -0.70508 a 8.0041252,8.0041252 0 0 0 0.19336,-1.73828 8.0041252,8.0041252 0 0 0 -8.0039,-8.00391 8.0041252,8.0041252 0 0 0 -8.00391,8.00391 8.0041252,8.0041252 0 0 0 0.19141,1.73828 h -0.70508 a 8.0041252,8.0041252 0 0 0 0.19336,-1.73828 8.0041252,8.0041252 0 0 0 -8.00391,-8.00391 8.0041252,8.0041252 0 0 0 -8.0039,8.00391 8.0041252,8.0041252 0 0 0 0.1914,1.73828 h -0.70508 a 8.0041252,8.0041252 0 0 0 0.19336,-1.73828 8.0041252,8.0041252 0 0 0 -8.0039,-8.00391 8.0041252,8.0041252 0 0 0 -8.00391,8.00391 8.0041252,8.0041252 0 0 0 0.19141,1.73828 h -0.70508 a 8.0041252,8.0041252 0 0 0 0.19336,-1.73828 8.0041252,8.0041252 0 0 0 -8.00391,-8.00391 8.0041252,8.0041252 0 0 0 -8.00391,8.00391 8.0041252,8.0041252 0 0 0 0.19141,1.73828 h -0.70508 a 8.0041252,8.0041252 0 0 0 0.19336,-1.73828 8.0041252,8.0041252 0 0 0 -8.0039,-8.00391 8.0041252,8.0041252 0 0 0 -5.41407,2.10938 l -3.4414,-3.4336 a 8.164207,8.164207 0 0 0 4.19726,1.16407 8.164207,8.164207 0 0 0 8.16407,-8.16407 8.164207,8.164207 0 0 0 -8.16407,-8.16406 8.164207,8.164207 0 0 0 -8.16406,8.16406 8.164207,8.164207 0 0 0 -8.16406,-8.16406 8.164207,8.164207 0 0 0 -0.0899,0 8.164207,8.164207 0 0 0 -2.54687,0.4375 l -3.05469,-3.04492 a 8.164207,8.164207 0 0 0 2.1836,-5.55859 8.164207,8.164207 0 0 0 -8.16407,-8.16407 8.164207,8.164207 0 0 0 -5.57226,2.20118 l -3.52344,-3.51368 a 8.164207,8.164207 0 0 0 4.43945,1.3125 8.164207,8.164207 0 0 0 8.16407,-8.16406 8.164207,8.164207 0 0 0 -8.16407,-8.16406 8.164207,8.164207 0 0 0 -8.16406,8.16406 8.164207,8.164207 0 0 0 1.32031,4.45313 l -1.77539,-1.76953 a 8.164207,8.164207 0 0 0 0.45508,-2.6836 8.164207,8.164207 0 0 0 -8.16406,-8.16406 8.164207,8.164207 0 0 0 -0.0899,0 8.164207,8.164207 0 0 0 -2.61523,0.46094 l -3.0293,-3.02149 a 8.164207,8.164207 0 0 0 2.22657,-5.60351 8.164207,8.164207 0 0 0 -8.16407,-8.16407 8.164207,8.164207 0 0 0 -0.0898,0 8.164207,8.164207 0 0 0 -5.5293,2.24414 l -8.75976,-8.73632 1.68554,-1.68164 a 8.0361415,8.0361415 0 0 0 0,0.01 8.0361415,8.0361415 0 0 0 8.03711,8.03516 8.0361415,8.0361415 0 0 0 8.03516,-8.03516 8.0361415,8.0361415 0 0 0 -8.02148,-8.03711 l 1.30468,-1.30078 a 7.7479926,7.7479926 0 0 0 3.33789,0.75781 7.7479926,7.7479926 0 0 0 7.74805,-7.74804 7.7479926,7.7479926 0 0 0 -0.74805,-3.32032 l 5.70117,-5.68554 a 7.3958113,7.3958113 0 0 0 6.29102,-6.27344 l 1.63672,-1.63281 a 7.3958113,7.3958113 0 0 0 -0.0254,0.58398 7.3958113,7.3958113 0 0 0 7.39648,7.39453 7.3958113,7.3958113 0 0 0 7.39649,-7.39453 7.3958113,7.3958113 0 0 0 -7.39649,-7.39648 7.3958113,7.3958113 0 0 0 -0.5625,0.0215 l 2.5,-2.49219 a 7.0116133,7.0116133 0 0 0 2.71875,0.54883 7.0116133,7.0116133 0 0 0 7.01172,-7.00976 7.0116133,7.0116133 0 0 0 -0.54101,-2.70313 l 7.39257,-7.37305 a 6.6274152,6.6274152 0 0 0 4.05664,-4.04492 6.6274152,6.6274152 0 0 0 0,-0.002 l 3.59961,-3.58789 a 6.6274152,6.6274152 0 0 0 -0.14648,1.38086 6.6274152,6.6274152 0 0 0 6.62695,6.6289 6.6274152,6.6274152 0 0 0 6.62891,-6.6289 6.6274152,6.6274152 0 0 0 -6.62891,-6.62696 6.6274152,6.6274152 0 0 0 -0.0195,0 6.6274152,6.6274152 0 0 0 -1.34375,0.14258 l 3.96094,-3.95117 a 6.2432172,6.2432172 0 0 0 2.06055,0.35156 6.2432172,6.2432172 0 0 0 6.24218,-6.24414 6.2432172,6.2432172 0 0 0 -0.34375,-2.04297 l 7.36719,-7.34765 v -9.20703 l 47.10156,-47.10157 h 9.66797 a 4.7384414,4.7384414 0 0 0 -0.0312,-0.27539 l 28.07227,-27.99609 a 4.0020617,4.0020617 0 0 0 3.89453,-3.88281 z M 337.16602,669.22266 a 8.164207,8.164207 0 0 0 8.16406,8.16406 8.164207,8.164207 0 0 0 8.16406,-8.16406 8.164207,8.164207 0 0 0 -8.16406,-8.16407 8.164207,8.164207 0 0 0 -8.16406,8.16407 z m 16.32812,0 a 8.164207,8.164207 0 0 0 8.16406,8.16406 8.164207,8.164207 0 0 0 8.16407,-8.16406 8.164207,8.164207 0 0 0 -8.16407,-8.16407 8.164207,8.164207 0 0 0 -8.16406,8.16407 z m 16.32813,0 a 8.164207,8.164207 0 0 0 8.16406,8.16406 8.164207,8.164207 0 0 0 8.16601,-8.16406 8.164207,8.164207 0 0 0 -8.16601,-8.16407 8.164207,8.164207 0 0 0 -8.16406,8.16407 z m 16.33007,0 a 8.164207,8.164207 0 0 0 8.16407,8.16406 8.164207,8.164207 0 0 0 8.16406,-8.16406 8.164207,8.164207 0 0 0 -8.16406,-8.16407 8.164207,8.164207 0 0 0 -8.16407,8.16407 z m 16.32813,0 a 8.164207,8.164207 0 0 0 5.10156,7.5664 V 661.6543 a 8.164207,8.164207 0 0 0 -5.10156,7.56836 z m -37.31445,16.32812 a 8.164207,8.164207 0 0 0 8.16406,8.16406 8.164207,8.164207 0 0 0 8.16406,-8.16406 8.164207,8.164207 0 0 0 -8.16406,-8.16406 8.164207,8.164207 0 0 0 -8.16406,8.16406 z m 16.32812,0 a 8.164207,8.164207 0 0 0 8.16406,8.16406 8.164207,8.164207 0 0 0 8.16407,-8.16406 8.164207,8.164207 0 0 0 -8.16407,-8.16406 8.164207,8.164207 0 0 0 -8.16406,8.16406 z m 16.32813,0 a 8.164207,8.164207 0 0 0 8.16406,8.16406 8.164207,8.164207 0 0 0 1.5957,-0.1582 v -16.01172 a 8.164207,8.164207 0 0 0 -1.5957,-0.1582 8.164207,8.164207 0 0 0 -8.16406,8.16406 z m -28,16.32813 a 8.164207,8.164207 0 0 0 8.16406,8.16406 8.164207,8.164207 0 0 0 8.16601,-8.16406 8.164207,8.164207 0 0 0 -8.16601,-8.16407 8.164207,8.164207 0 0 0 -8.16406,8.16407 z m 16.33007,0 a 8.164207,8.164207 0 0 0 8.16407,8.16406 8.164207,8.164207 0 0 0 8.16406,-8.16406 8.164207,8.164207 0 0 0 -8.16406,-8.16407 8.164207,8.164207 0 0 0 -8.16407,8.16407 z m 16.32813,0 a 8.164207,8.164207 0 0 0 8.16406,8.16406 8.164207,8.164207 0 0 0 8.16406,-8.16406 8.164207,8.164207 0 0 0 -0.16601,-1.64063 h -11.06055 v -5.92773 a 8.164207,8.164207 0 0 0 -5.10156,7.56836 z m 16.32812,0 a 8.164207,8.164207 0 0 0 8.16407,8.16406 8.164207,8.164207 0 0 0 8.16406,-8.16406 8.164207,8.164207 0 0 0 -0.16602,-1.64063 h -15.99414 a 8.164207,8.164207 0 0 0 -0.16797,1.64063 z m 16.32813,0 a 8.164207,8.164207 0 0 0 8.16406,8.16406 8.164207,8.164207 0 0 0 8.16406,-8.16406 8.164207,8.164207 0 0 0 -0.16601,-1.64063 h -15.99414 a 8.164207,8.164207 0 0 0 -0.16797,1.64063 z m 16.32812,0 a 8.164207,8.164207 0 0 0 8.16407,8.16406 8.164207,8.164207 0 0 0 8.16406,-8.16406 8.164207,8.164207 0 0 0 -0.16602,-1.64063 h -15.99414 a 8.164207,8.164207 0 0 0 -0.16797,1.64063 z m 16.32813,0 a 8.164207,8.164207 0 0 0 8.16406,8.16406 8.164207,8.164207 0 0 0 8.16406,-8.16406 8.164207,8.164207 0 0 0 -0.16601,-1.64063 h -15.99414 a 8.164207,8.164207 0 0 0 -0.16797,1.64063 z m 16.32812,0 a 8.164207,8.164207 0 0 0 8.16407,8.16406 8.164207,8.164207 0 0 0 8.16601,-8.16406 8.164207,8.164207 0 0 0 -0.16601,-1.64063 h -15.9961 a 8.164207,8.164207 0 0 0 -0.16797,1.64063 z m 16.33008,0 a 8.164207,8.164207 0 0 0 8.16406,8.16406 8.164207,8.164207 0 0 0 8.16407,-8.16406 8.164207,8.164207 0 0 0 -0.16602,-1.64063 h -15.99414 a 8.164207,8.164207 0 0 0 -0.16797,1.64063 z m -102.6289,16.33007 a 8.164207,8.164207 0 0 0 8.16406,8.16407 8.164207,8.164207 0 0 0 8.16601,-8.16407 8.164207,8.164207 0 0 0 -8.16601,-8.16406 8.164207,8.164207 0 0 0 -8.16406,8.16406 z m 16.33007,0 a 8.164207,8.164207 0 0 0 8.16407,8.16407 8.164207,8.164207 0 0 0 8.16406,-8.16407 8.164207,8.164207 0 0 0 -8.16406,-8.16406 8.164207,8.164207 0 0 0 -8.16407,8.16406 z m 16.32813,0 a 8.164207,8.164207 0 0 0 8.16406,8.16407 8.164207,8.164207 0 0 0 8.16406,-8.16407 8.164207,8.164207 0 0 0 -8.16406,-8.16406 8.164207,8.164207 0 0 0 -8.16406,8.16406 z m 16.32812,0 a 8.164207,8.164207 0 0 0 8.16407,8.16407 8.164207,8.164207 0 0 0 8.16406,-8.16407 8.164207,8.164207 0 0 0 -8.16406,-8.16406 8.164207,8.164207 0 0 0 -8.16407,8.16406 z m 16.32813,0 a 8.164207,8.164207 0 0 0 8.16406,8.16407 8.164207,8.164207 0 0 0 8.16406,-8.16407 8.164207,8.164207 0 0 0 -8.16406,-8.16406 8.164207,8.164207 0 0 0 -8.16406,8.16406 z m 16.32812,0 a 8.164207,8.164207 0 0 0 8.16407,8.16407 8.164207,8.164207 0 0 0 8.16406,-8.16407 8.164207,8.164207 0 0 0 -8.16406,-8.16406 8.164207,8.164207 0 0 0 -8.16407,8.16406 z m 16.32813,0 a 8.164207,8.164207 0 0 0 8.16406,8.16407 8.164207,8.164207 0 0 0 8.16406,-8.16407 8.164207,8.164207 0 0 0 -8.16406,-8.16406 8.164207,8.164207 0 0 0 -8.16406,8.16406 z m 16.32812,0 a 8.164207,8.164207 0 0 0 1.43946,4.62696 v -9.25586 a 8.164207,8.164207 0 0 0 -1.43946,4.6289 z M 487.62891,485.25586 a 4.3542433,4.3542433 0 0 0 -4.35352,4.35352 4.3542433,4.3542433 0 0 0 4.35352,4.35546 4.3542433,4.3542433 0 0 0 4.35547,-4.35546 4.3542433,4.3542433 0 0 0 -4.35547,-4.35352 z m 16.32812,0 a 4.3542433,4.3542433 0 0 0 -4.35351,4.35352 4.3542433,4.3542433 0 0 0 4.35351,4.35546 4.3542433,4.3542433 0 0 0 4.35547,-4.35546 4.3542433,4.3542433 0 0 0 -4.35547,-4.35352 z m 277.58399,0 a 4.3542433,4.3542433 0 0 0 -4.35547,4.35352 4.3542433,4.3542433 0 0 0 4.35547,4.35546 4.3542433,4.3542433 0 0 0 4.35351,-4.35546 4.3542433,4.3542433 0 0 0 -4.35351,-4.35352 z m -305.70508,15.94531 a 4.7384414,4.7384414 0 0 0 -4.60156,4.35156 h 9.44531 a 4.7384414,4.7384414 0 0 0 -4.72266,-4.35156 4.7384414,4.7384414 0 0 0 -0.12109,0 z m 16.32812,0 a 4.7384414,4.7384414 0 0 0 -4.60156,4.35156 h 9.44727 a 4.7384414,4.7384414 0 0 0 -4.72461,-4.35156 4.7384414,4.7384414 0 0 0 -0.1211,0 z m 293.91211,0 a 4.7384414,4.7384414 0 0 0 -4.60156,4.35156 h 9.44531 a 4.7384414,4.7384414 0 0 0 -4.72265,-4.35156 4.7384414,4.7384414 0 0 0 -0.1211,0 z m 16.32813,0 a 4.7384414,4.7384414 0 0 0 -4.60157,4.35156 h 9.44532 a 4.7384414,4.7384414 0 0 0 -4.72266,-4.35156 4.7384414,4.7384414 0 0 0 -0.12109,0 z m 35.36914,32.57031 v 9.64844 a 5.4748207,5.4748207 0 0 0 2.88476,-4.82422 5.4748207,5.4748207 0 0 0 -2.88476,-4.82422 z m 9.03711,15.29297 a 5.8590188,5.8590188 0 0 0 -5.81446,5.85938 5.8590188,5.8590188 0 0 0 5.85743,5.85937 5.8590188,5.8590188 0 0 0 5.85937,-5.85937 5.8590188,5.8590188 0 0 0 -5.85937,-5.85938 5.8590188,5.8590188 0 0 0 -0.043,0 z m -364.50782,8.29883 a 5.8590188,5.8590188 0 0 0 5.32618,3.41992 5.8590188,5.8590188 0 0 0 5.32812,-3.41992 z m 16.33008,0 a 5.8590188,5.8590188 0 0 0 5.32422,3.41992 5.8590188,5.8590188 0 0 0 5.32813,-3.41992 z m 198.4043,0.42188 -15.01172,15.01172 v 75.20898 h 58.39649 c -0.30687,-1.34128 -0.6157,-2.69188 -0.92383,-4.03711 a 7.7479926,7.7479926 0 0 0 5.46289,-7.40234 7.7479926,7.7479926 0 0 0 -7.74805,-7.74805 7.7479926,7.7479926 0 0 0 -1.14453,0.0859 c -0.15038,-0.66485 -0.2893,-1.28487 -0.4375,-1.94141 a 7.3958113,7.3958113 0 0 0 4.32031,-6.72461 7.3958113,7.3958113 0 0 0 -7.39648,-7.39648 7.3958113,7.3958113 0 0 0 -0.0859,0.002 c -0.39703,-1.79311 -0.74275,-3.39113 -1.11328,-5.08203 a 7.0116133,7.0116133 0 0 0 5.85742,3.1582 7.0116133,7.0116133 0 0 0 7.01172,-7.00976 7.0116133,7.0116133 0 0 0 -7.01172,-7.01172 7.0116133,7.0116133 0 0 0 -0.10351,0 7.0116133,7.0116133 0 0 0 -6.82813,5.96289 c -0.84405,-3.89856 -1.54483,-7.23501 -2.19727,-10.38867 a 6.6274152,6.6274152 0 0 0 4.47071,1.73632 6.6274152,6.6274152 0 0 0 6.6289,-6.6289 6.6274152,6.6274152 0 0 0 -6.6289,-6.62696 6.6274152,6.6274152 0 0 0 -0.0176,0 6.6274152,6.6274152 0 0 0 -6.00391,3.86524 c -0.96484,-5.03608 -1.45311,-8.20708 -1.27343,-8.74609 0.37841,-1.13522 2.69127,-2.13966 5.97265,-3.02539 a 6.2432172,6.2432172 0 0 0 5.98047,4.44921 6.2432172,6.2432172 0 0 0 6.24219,-6.24414 6.2432172,6.2432172 0 0 0 -0.0215,-0.51562 c 1.31326,-0.18455 2.62847,-0.35424 3.95118,-0.51758 a 6.2432172,6.2432172 0 0 0 -0.0879,1.0332 6.2432172,6.2432172 0 0 0 6.24414,6.24414 6.2432172,6.2432172 0 0 0 6.24218,-6.24414 6.2432172,6.2432172 0 0 0 -0.43359,-2.28125 c 2.60524,-0.23013 3.4816,-0.3003 4.88281,-0.40234 a 6.2432172,6.2432172 0 0 0 -0.60547,2.68359 6.2432172,6.2432172 0 0 0 6.24219,6.24414 6.2432172,6.2432172 0 0 0 6.24414,-6.24414 6.2432172,6.2432172 0 0 0 -6.24414,-6.24218 6.2432172,6.2432172 0 0 0 -2.9668,0.75195 l -1.00195,-5.01953 a 5.8590188,5.8590188 0 0 0 4.42383,-2.95703 z m 79.39258,0 a 5.8590188,5.8590188 0 0 0 5.11133,2.99804 5.8590188,5.8590188 0 0 0 5.11132,-2.99804 z m -300.47266,7.22461 a 6.2432172,6.2432172 0 0 0 -6.24219,6.24218 6.2432172,6.2432172 0 0 0 2.89258,5.26758 h 6.70117 a 6.2432172,6.2432172 0 0 0 2.89258,-5.26758 6.2432172,6.2432172 0 0 0 -6.24414,-6.24218 z m 16.32813,0 a 6.2432172,6.2432172 0 0 0 -6.24219,6.24218 6.2432172,6.2432172 0 0 0 2.89258,5.26758 h 6.70117 a 6.2432172,6.2432172 0 0 0 2.89258,-5.26758 6.2432172,6.2432172 0 0 0 -6.24414,-6.24218 z m 16.33007,0 a 6.2432172,6.2432172 0 0 0 -6.24414,6.24218 6.2432172,6.2432172 0 0 0 2.89258,5.26758 h 6.70313 a 6.2432172,6.2432172 0 0 0 2.89062,-5.26758 6.2432172,6.2432172 0 0 0 -6.24219,-6.24218 z m 277.58204,0 a 6.2432172,6.2432172 0 0 0 -6.24219,6.24218 6.2432172,6.2432172 0 0 0 6.24219,6.24414 6.2432172,6.2432172 0 0 0 4.47461,-1.88867 v -8.70898 a 6.2432172,6.2432172 0 0 0 -4.47461,-1.88867 z m 65.31445,0 a 6.2432172,6.2432172 0 0 0 -6.24414,6.24218 6.2432172,6.2432172 0 0 0 6.24414,6.24414 6.2432172,6.2432172 0 0 0 6.24219,-6.24414 6.2432172,6.2432172 0 0 0 -6.24219,-6.24218 z m 16.32812,0 a 6.2432172,6.2432172 0 0 0 -6.24414,6.24218 6.2432172,6.2432172 0 0 0 6.24414,6.24414 6.2432172,6.2432172 0 0 0 6.24219,-6.24414 6.2432172,6.2432172 0 0 0 -6.24219,-6.24218 z m -30.0664,0.5625 v 11.36132 a 6.2432172,6.2432172 0 0 0 3.65234,-5.68164 6.2432172,6.2432172 0 0 0 -3.65234,-5.67968 z m -430.19141,0.24023 a 6.2432172,6.2432172 0 0 0 -3.18164,5.43945 6.2432172,6.2432172 0 0 0 3.18164,5.44141 z m 58.00391,3.57227 -7.13477,7.13476 h 4.5293 a 6.2432172,6.2432172 0 0 0 2.89258,-5.26758 6.2432172,6.2432172 0 0 0 -0.28711,-1.86718 z m -59.61719,11.56835 a 6.6274152,6.6274152 0 0 0 -6.60937,6.62696 6.6274152,6.6274152 0 0 0 6.62695,6.6289 6.6274152,6.6274152 0 0 0 1.5957,-0.19531 v -12.86523 a 6.6274152,6.6274152 0 0 0 -1.5957,-0.19532 6.6274152,6.6274152 0 0 0 -0.0176,0 z m 342.89648,0 a 6.6274152,6.6274152 0 0 0 -6.60937,6.62696 6.6274152,6.6274152 0 0 0 6.62891,6.6289 6.6274152,6.6274152 0 0 0 6.62695,-6.6289 6.6274152,6.6274152 0 0 0 -6.62695,-6.62696 6.6274152,6.6274152 0 0 0 -0.0195,0 z m 16.32813,0 a 6.6274152,6.6274152 0 0 0 -6.60742,6.62696 6.6274152,6.6274152 0 0 0 6.62695,6.6289 6.6274152,6.6274152 0 0 0 6.62695,-6.6289 6.6274152,6.6274152 0 0 0 -6.62695,-6.62696 6.6274152,6.6274152 0 0 0 -0.0195,0 z m 16.32812,0 a 6.6274152,6.6274152 0 0 0 -6.60742,6.62696 6.6274152,6.6274152 0 0 0 6.62696,6.6289 6.6274152,6.6274152 0 0 0 6.62695,-6.6289 6.6274152,6.6274152 0 0 0 -6.62695,-6.62696 6.6274152,6.6274152 0 0 0 -0.0195,0 z m 65.31446,0 a 6.6274152,6.6274152 0 0 0 -6.60938,6.62696 6.6274152,6.6274152 0 0 0 6.62696,6.6289 6.6274152,6.6274152 0 0 0 6.6289,-6.6289 6.6274152,6.6274152 0 0 0 -6.6289,-6.62696 6.6274152,6.6274152 0 0 0 -0.0176,0 z m 16.32812,0 a 6.6274152,6.6274152 0 0 0 -6.60937,6.62696 6.6274152,6.6274152 0 0 0 6.6289,6.6289 6.6274152,6.6274152 0 0 0 6.62696,-6.6289 6.6274152,6.6274152 0 0 0 -6.62696,-6.62696 6.6274152,6.6274152 0 0 0 -0.0195,0 z m 16.32813,0 a 6.6274152,6.6274152 0 0 0 -6.60742,6.62696 6.6274152,6.6274152 0 0 0 6.62695,6.6289 6.6274152,6.6274152 0 0 0 6.62695,-6.6289 6.6274152,6.6274152 0 0 0 -6.62695,-6.62696 6.6274152,6.6274152 0 0 0 -0.0195,0 z m -501.60742,15.94532 a 7.0116133,7.0116133 0 0 0 -6.90821,7.01172 7.0116133,7.0116133 0 0 0 7.00977,7.00976 7.0116133,7.0116133 0 0 0 7.01172,-7.00976 7.0116133,7.0116133 0 0 0 -7.01172,-7.01172 7.0116133,7.0116133 0 0 0 -0.10156,0 z m 16.32812,0 a 7.0116133,7.0116133 0 0 0 -6.9082,7.01172 7.0116133,7.0116133 0 0 0 7.01172,7.00976 7.0116133,7.0116133 0 0 0 7.01171,-7.00976 7.0116133,7.0116133 0 0 0 -7.01171,-7.01172 7.0116133,7.0116133 0 0 0 -0.10352,0 z m 359.22461,0 a 7.0116133,7.0116133 0 0 0 -6.9082,7.01172 7.0116133,7.0116133 0 0 0 7.01172,7.00976 7.0116133,7.0116133 0 0 0 7.01171,-7.00976 7.0116133,7.0116133 0 0 0 -7.01171,-7.01172 7.0116133,7.0116133 0 0 0 -0.10352,0 z m 16.32812,0 a 7.0116133,7.0116133 0 0 0 -6.9082,7.01172 7.0116133,7.0116133 0 0 0 7.01172,7.00976 7.0116133,7.0116133 0 0 0 7.01172,-7.00976 7.0116133,7.0116133 0 0 0 -7.01172,-7.01172 7.0116133,7.0116133 0 0 0 -0.10352,0 z m 16.32813,0 a 7.0116133,7.0116133 0 0 0 -6.9082,7.01172 7.0116133,7.0116133 0 0 0 7.01172,7.00976 7.0116133,7.0116133 0 0 0 4.47461,-1.61328 v -10.79492 a 7.0116133,7.0116133 0 0 0 -4.47461,-1.61328 7.0116133,7.0116133 0 0 0 -0.10352,0 z m 65.31445,0 a 7.0116133,7.0116133 0 0 0 -6.9082,7.01172 7.0116133,7.0116133 0 0 0 7.01172,7.00976 7.0116133,7.0116133 0 0 0 7.01172,-7.00976 7.0116133,7.0116133 0 0 0 -7.01172,-7.01172 7.0116133,7.0116133 0 0 0 -0.10352,0 z m 16.32813,0 a 7.0116133,7.0116133 0 0 0 -6.90821,7.01172 7.0116133,7.0116133 0 0 0 7.01172,7.00976 7.0116133,7.0116133 0 0 0 7.01172,-7.00976 7.0116133,7.0116133 0 0 0 -7.01172,-7.01172 7.0116133,7.0116133 0 0 0 -0.10351,0 z m 16.32812,0 a 7.0116133,7.0116133 0 0 0 -6.9082,7.01172 7.0116133,7.0116133 0 0 0 7.01172,7.00976 7.0116133,7.0116133 0 0 0 7.01172,-7.00976 7.0116133,7.0116133 0 0 0 -7.01172,-7.01172 7.0116133,7.0116133 0 0 0 -0.10352,0 z m 16.32813,0 a 7.0116133,7.0116133 0 0 0 -6.9082,7.01172 7.0116133,7.0116133 0 0 0 7.01171,7.00976 7.0116133,7.0116133 0 0 0 7.01172,-7.00976 7.0116133,7.0116133 0 0 0 -7.01172,-7.01172 7.0116133,7.0116133 0 0 0 -0.10351,0 z m -62.61914,0.49609 v 13.02735 a 7.0116133,7.0116133 0 0 0 4.42187,-6.51172 7.0116133,7.0116133 0 0 0 -4.42187,-6.51563 z m -430.19141,0.20899 a 7.0116133,7.0116133 0 0 0 -3.94922,6.30664 7.0116133,7.0116133 0 0 0 3.94922,6.30468 z m -34.25195,15.23828 a 7.3958113,7.3958113 0 0 0 -7.39453,7.39648 7.3958113,7.3958113 0 0 0 7.39453,7.39453 7.3958113,7.3958113 0 0 0 7.39648,-7.39453 7.3958113,7.3958113 0 0 0 -7.39648,-7.39648 z m 16.32812,0 a 7.3958113,7.3958113 0 0 0 -7.39453,7.39648 7.3958113,7.3958113 0 0 0 7.39453,7.39453 7.3958113,7.3958113 0 0 0 7.39649,-7.39453 7.3958113,7.3958113 0 0 0 -7.39649,-7.39648 z m 16.32813,0 a 7.3958113,7.3958113 0 0 0 -7.39453,7.39648 7.3958113,7.3958113 0 0 0 7.39453,7.39453 7.3958113,7.3958113 0 0 0 1.5957,-0.17383 v -14.44336 a 7.3958113,7.3958113 0 0 0 -1.5957,-0.17382 z m 342.89844,0 a 7.3958113,7.3958113 0 0 0 -7.39649,7.39648 7.3958113,7.3958113 0 0 0 7.39649,7.39453 7.3958113,7.3958113 0 0 0 7.39453,-7.39453 7.3958113,7.3958113 0 0 0 -7.39453,-7.39648 z m 16.32812,0 a 7.3958113,7.3958113 0 0 0 -7.39648,7.39648 7.3958113,7.3958113 0 0 0 7.39648,7.39453 7.3958113,7.3958113 0 0 0 7.39453,-7.39453 7.3958113,7.3958113 0 0 0 -7.39453,-7.39648 z m 16.32813,0 a 7.3958113,7.3958113 0 0 0 -7.39649,7.39648 7.3958113,7.3958113 0 0 0 7.39649,7.39453 7.3958113,7.3958113 0 0 0 7.39648,-7.39453 7.3958113,7.3958113 0 0 0 -7.39648,-7.39648 z m 65.3125,0 a 7.3958113,7.3958113 0 0 0 -7.39454,7.39648 7.3958113,7.3958113 0 0 0 7.39454,7.39453 7.3958113,7.3958113 0 0 0 7.39648,-7.39453 7.3958113,7.3958113 0 0 0 -7.39648,-7.39648 z m 16.33007,0 a 7.3958113,7.3958113 0 0 0 -7.39648,7.39648 7.3958113,7.3958113 0 0 0 7.39648,7.39453 7.3958113,7.3958113 0 0 0 7.39453,-7.39453 7.3958113,7.3958113 0 0 0 -7.39453,-7.39648 z m 16.32813,0 a 7.3958113,7.3958113 0 0 0 -7.39649,7.39648 7.3958113,7.3958113 0 0 0 7.39649,7.39453 7.3958113,7.3958113 0 0 0 7.39453,-7.39453 7.3958113,7.3958113 0 0 0 -7.39453,-7.39648 z m 16.32812,0 a 7.3958113,7.3958113 0 0 0 -7.39648,7.39648 7.3958113,7.3958113 0 0 0 7.39648,7.39453 7.3958113,7.3958113 0 0 0 7.39649,-7.39453 7.3958113,7.3958113 0 0 0 -7.39649,-7.39648 z m 16.32813,0 a 7.3958113,7.3958113 0 0 0 -7.39649,7.39648 7.3958113,7.3958113 0 0 0 7.39649,7.39453 7.3958113,7.3958113 0 0 0 7.39648,-7.39453 7.3958113,7.3958113 0 0 0 -7.39648,-7.39648 z m -121.49609,5.69531 a 7.3958113,7.3958113 0 0 0 -0.19922,1.70117 7.3958113,7.3958113 0 0 0 0.19922,1.70313 z m 47.10156,0.22851 v 2.94336 a 7.3958113,7.3958113 0 0 0 0.14844,-1.4707 7.3958113,7.3958113 0 0 0 -0.14844,-1.47266 z m -381.83399,7.99415 v 0.80859 a 7.3958113,7.3958113 0 0 0 2.51953,-0.80859 z m 11.87696,0 a 7.3958113,7.3958113 0 0 0 3.48437,0.87304 7.3958113,7.3958113 0 0 0 3.48633,-0.87304 z m 16.33007,0 a 7.3958113,7.3958113 0 0 0 3.48243,0.87304 7.3958113,7.3958113 0 0 0 3.48632,-0.87304 z m 16.32813,0 a 7.3958113,7.3958113 0 0 0 3.48242,0.87304 7.3958113,7.3958113 0 0 0 3.48633,-0.87304 z m 16.32812,0 a 7.3958113,7.3958113 0 0 0 3.48438,0.87304 7.3958113,7.3958113 0 0 0 3.48633,-0.87304 z m 16.32813,0 a 7.3958113,7.3958113 0 0 0 3.48437,0.87304 7.3958113,7.3958113 0 0 0 3.48633,-0.87304 z m -187.80078,2.05859 a 7.7479926,7.7479926 0 0 0 -7.74805,7.74805 7.7479926,7.7479926 0 0 0 7.74805,7.74804 7.7479926,7.7479926 0 0 0 7.74804,-7.74804 7.7479926,7.7479926 0 0 0 -7.74804,-7.74805 z m 16.32812,0 a 7.7479926,7.7479926 0 0 0 -7.74804,7.74805 7.7479926,7.7479926 0 0 0 7.74804,7.74804 7.7479926,7.7479926 0 0 0 7.74805,-7.74804 7.7479926,7.7479926 0 0 0 -7.74805,-7.74805 z m 16.32813,0 a 7.7479926,7.7479926 0 0 0 -7.74805,7.74805 7.7479926,7.7479926 0 0 0 7.74805,7.74804 7.7479926,7.7479926 0 0 0 7.74805,-7.74804 7.7479926,7.7479926 0 0 0 -7.74805,-7.74805 z m 16.33008,0 a 7.7479926,7.7479926 0 0 0 -7.74805,7.74805 7.7479926,7.7479926 0 0 0 7.74805,7.74804 7.7479926,7.7479926 0 0 0 7.74804,-7.74804 7.7479926,7.7479926 0 0 0 -7.74804,-7.74805 z m 65.3125,0 a 7.7479926,7.7479926 0 0 0 -3.68946,0.93555 v 13.625 a 7.7479926,7.7479926 0 0 0 3.68946,0.93554 7.7479926,7.7479926 0 0 0 7.74804,-7.74804 7.7479926,7.7479926 0 0 0 -7.74804,-7.74805 z m 16.32812,0 a 7.7479926,7.7479926 0 0 0 -7.74805,7.74805 7.7479926,7.7479926 0 0 0 7.74805,7.74804 7.7479926,7.7479926 0 0 0 7.74805,-7.74804 7.7479926,7.7479926 0 0 0 -7.74805,-7.74805 z m 16.32813,0 a 7.7479926,7.7479926 0 0 0 -7.7461,7.74805 7.7479926,7.7479926 0 0 0 7.7461,7.74804 7.7479926,7.7479926 0 0 0 7.74804,-7.74804 7.7479926,7.7479926 0 0 0 -7.74804,-7.74805 z m 16.33007,0 a 7.7479926,7.7479926 0 0 0 -7.74804,7.74805 7.7479926,7.7479926 0 0 0 7.74804,7.74804 7.7479926,7.7479926 0 0 0 7.74805,-7.74804 7.7479926,7.7479926 0 0 0 -7.74805,-7.74805 z m 16.32813,0 a 7.7479926,7.7479926 0 0 0 -7.74805,7.74805 7.7479926,7.7479926 0 0 0 7.74805,7.74804 7.7479926,7.7479926 0 0 0 7.74805,-7.74804 7.7479926,7.7479926 0 0 0 -7.74805,-7.74805 z m 228.59766,0 a 7.7479926,7.7479926 0 0 0 -7.74805,7.74805 7.7479926,7.7479926 0 0 0 7.74805,7.74804 7.7479926,7.7479926 0 0 0 7.74804,-7.74804 7.7479926,7.7479926 0 0 0 -7.74804,-7.74805 z m 16.32812,0 a 7.7479926,7.7479926 0 0 0 -7.74805,7.74805 7.7479926,7.7479926 0 0 0 7.74805,7.74804 7.7479926,7.7479926 0 0 0 7.74805,-7.74804 7.7479926,7.7479926 0 0 0 -7.74805,-7.74805 z m 16.32813,0 a 7.7479926,7.7479926 0 0 0 -7.74805,7.74805 7.7479926,7.7479926 0 0 0 4.45117,7.01171 l 7.77149,-9.0371 v -4.29883 a 7.7479926,7.7479926 0 0 0 -4.47461,-1.42383 z m 65.31445,0 a 7.7479926,7.7479926 0 0 0 -7.74805,7.74805 7.7479926,7.7479926 0 0 0 7.74805,7.74804 7.7479926,7.7479926 0 0 0 7.74805,-7.74804 7.7479926,7.7479926 0 0 0 -7.74805,-7.74805 z m 16.32812,0 a 7.7479926,7.7479926 0 0 0 -7.74804,7.74805 7.7479926,7.7479926 0 0 0 7.74804,7.74804 7.7479926,7.7479926 0 0 0 7.74805,-7.74804 7.7479926,7.7479926 0 0 0 -7.74805,-7.74805 z m 16.32813,0 a 7.7479926,7.7479926 0 0 0 -7.74805,7.74805 7.7479926,7.7479926 0 0 0 7.74805,7.74804 7.7479926,7.7479926 0 0 0 7.74805,-7.74804 7.7479926,7.7479926 0 0 0 -7.74805,-7.74805 z m 16.32812,0 a 7.7479926,7.7479926 0 0 0 -7.74804,7.74805 7.7479926,7.7479926 0 0 0 7.74804,7.74804 7.7479926,7.7479926 0 0 0 7.74805,-7.74804 7.7479926,7.7479926 0 0 0 -7.74805,-7.74805 z m 16.32813,0 a 7.7479926,7.7479926 0 0 0 -7.74805,7.74805 7.7479926,7.7479926 0 0 0 7.74805,7.74804 7.7479926,7.7479926 0 0 0 7.74805,-7.74804 7.7479926,7.7479926 0 0 0 -7.74805,-7.74805 z m 16.33008,0.12695 a 7.6199271,7.6199271 0 0 0 -7.6211,7.6211 7.6199271,7.6199271 0 0 0 7.6211,7.61914 7.6199271,7.6199271 0 0 0 7.61914,-7.61914 7.6199271,7.6199271 0 0 0 -7.61914,-7.6211 z m -95.38086,0.32031 v 14.60157 a 7.7479926,7.7479926 0 0 0 5.1582,-7.30078 7.7479926,7.7479926 0 0 0 -5.1582,-7.30079 z m -430.19141,0.18555 a 7.7479926,7.7479926 0 0 0 -4.68555,7.11524 7.7479926,7.7479926 0 0 0 4.68555,7.11718 z m -66.94726,15.34375 a 8.1001743,8.1001743 0 0 0 -8.06055,8.09961 8.1001743,8.1001743 0 0 0 8.09961,8.09961 8.1001743,8.1001743 0 0 0 8.09961,-8.09961 8.1001743,8.1001743 0 0 0 -8.09961,-8.09961 8.1001743,8.1001743 0 0 0 -0.0391,0 z m 16.32812,0 a 8.1001743,8.1001743 0 0 0 -8.06055,8.09961 8.1001743,8.1001743 0 0 0 8.09961,8.09961 8.1001743,8.1001743 0 0 0 8.09961,-8.09961 8.1001743,8.1001743 0 0 0 -8.09961,-8.09961 8.1001743,8.1001743 0 0 0 -0.0391,0 z m 16.32813,0 a 8.1001743,8.1001743 0 0 0 -8.06055,8.09961 8.1001743,8.1001743 0 0 0 8.09961,8.09961 8.1001743,8.1001743 0 0 0 8.09961,-8.09961 8.1001743,8.1001743 0 0 0 -8.09961,-8.09961 8.1001743,8.1001743 0 0 0 -0.0391,0 z m 16.32812,0 a 8.1001743,8.1001743 0 0 0 -8.06055,8.09961 8.1001743,8.1001743 0 0 0 8.09961,8.09961 8.1001743,8.1001743 0 0 0 8.10157,-8.09961 8.1001743,8.1001743 0 0 0 -8.10157,-8.09961 8.1001743,8.1001743 0 0 0 -0.0391,0 z m 16.32813,0 a 8.1001743,8.1001743 0 0 0 -8.06055,8.09961 8.1001743,8.1001743 0 0 0 8.09961,8.09961 8.1001743,8.1001743 0 0 0 1.5957,-0.1582 v -15.88086 a 8.1001743,8.1001743 0 0 0 -1.5957,-0.16016 8.1001743,8.1001743 0 0 0 -0.0391,0 z m 65.31445,0 a 8.1001743,8.1001743 0 0 0 -6.49805,3.31836 h 13.07422 a 8.1001743,8.1001743 0 0 0 -6.53711,-3.31836 8.1001743,8.1001743 0 0 0 -0.0391,0 z m 16.32812,0 a 8.1001743,8.1001743 0 0 0 -6.49804,3.31836 h 13.07422 a 8.1001743,8.1001743 0 0 0 -6.53711,-3.31836 8.1001743,8.1001743 0 0 0 -0.0391,0 z m 16.32813,0 a 8.1001743,8.1001743 0 0 0 -6.49805,3.31836 h 13.07617 a 8.1001743,8.1001743 0 0 0 -6.53906,-3.31836 8.1001743,8.1001743 0 0 0 -0.0391,0 z m 16.32812,0 a 8.1001743,8.1001743 0 0 0 -6.49804,3.31836 h 13.07617 a 8.1001743,8.1001743 0 0 0 -6.53711,-3.31836 8.1001743,8.1001743 0 0 0 -0.041,0 z m 16.32813,0 a 8.1001743,8.1001743 0 0 0 -6.49805,3.31836 h 13.07617 a 8.1001743,8.1001743 0 0 0 -6.53711,-3.31836 8.1001743,8.1001743 0 0 0 -0.041,0 z m 212.26953,0 a 8.1001743,8.1001743 0 0 0 -6.41797,3.21094 h 12.91602 a 8.1001743,8.1001743 0 0 0 -6.45703,-3.21094 8.1001743,8.1001743 0 0 0 -0.041,0 z m 16.33008,0 a 8.1001743,8.1001743 0 0 0 -6.41992,3.21094 h 12.91601 a 8.1001743,8.1001743 0 0 0 -6.45703,-3.21094 8.1001743,8.1001743 0 0 0 -0.0391,0 z m 16.32812,0 a 8.1001743,8.1001743 0 0 0 -6.41797,3.21094 h 4.00782 l 2.75781,-3.20508 a 8.1001743,8.1001743 0 0 0 -0.30859,-0.006 8.1001743,8.1001743 0 0 0 -0.0391,0 z m 65.3125,0 a 8.1001743,8.1001743 0 0 0 -8.06054,8.09961 8.1001743,8.1001743 0 0 0 8.09961,8.09961 8.1001743,8.1001743 0 0 0 8.10156,-8.09961 8.1001743,8.1001743 0 0 0 -8.10156,-8.09961 8.1001743,8.1001743 0 0 0 -0.0391,0 z m 16.32813,0 a 8.1001743,8.1001743 0 0 0 -8.06055,8.09961 8.1001743,8.1001743 0 0 0 8.10156,8.09961 8.1001743,8.1001743 0 0 0 8.09961,-8.09961 8.1001743,8.1001743 0 0 0 -8.09961,-8.09961 8.1001743,8.1001743 0 0 0 -0.041,0 z m 16.33008,0 a 8.1001743,8.1001743 0 0 0 -8.06055,8.09961 8.1001743,8.1001743 0 0 0 8.09961,8.09961 8.1001743,8.1001743 0 0 0 8.09961,-8.09961 8.1001743,8.1001743 0 0 0 -8.09961,-8.09961 8.1001743,8.1001743 0 0 0 -0.0391,0 z m 16.32812,0 a 8.1001743,8.1001743 0 0 0 -8.06055,8.09961 8.1001743,8.1001743 0 0 0 8.09961,8.09961 8.1001743,8.1001743 0 0 0 8.09961,-8.09961 8.1001743,8.1001743 0 0 0 -8.09961,-8.09961 8.1001743,8.1001743 0 0 0 -0.0391,0 z m 16.32813,0 a 8.1001743,8.1001743 0 0 0 -8.06055,8.09961 8.1001743,8.1001743 0 0 0 8.09961,8.09961 8.1001743,8.1001743 0 0 0 8.09961,-8.09961 8.1001743,8.1001743 0 0 0 -8.09961,-8.09961 8.1001743,8.1001743 0 0 0 -0.0391,0 z m 16.32812,0 a 8.1001743,8.1001743 0 0 0 -8.06055,8.09961 8.1001743,8.1001743 0 0 0 8.09961,8.09961 8.1001743,8.1001743 0 0 0 8.10157,-8.09961 8.1001743,8.1001743 0 0 0 -8.10157,-8.09961 8.1001743,8.1001743 0 0 0 -0.0391,0 z m 16.32813,0 a 8.1001743,8.1001743 0 0 0 -8.06055,8.09961 8.1001743,8.1001743 0 0 0 8.09961,8.09961 8.1001743,8.1001743 0 0 0 8.10156,-8.09961 8.1001743,8.1001743 0 0 0 -8.10156,-8.09961 8.1001743,8.1001743 0 0 0 -0.0391,0 z m -488.84571,0.0586 v 3.25976 h 5.57032 a 8.1001743,8.1001743 0 0 0 -5.57032,-3.25976 z m 381.83399,4.42578 v 6.99804 l -4.06641,4.06641 a 8.1001743,8.1001743 0 0 0 4.91992,-7.44922 8.1001743,8.1001743 0 0 0 -0.85351,-3.61523 z m -2.58985,11.77929 a 8.164207,8.164207 0 0 0 -2.625,0.4336 l -5.10547,5.10547 a 8.164207,8.164207 0 0 0 -0.43359,2.5957 8.164207,8.164207 0 0 0 -0.23828,-1.92383 l -9.88086,9.88086 a 8.164207,8.164207 0 0 0 1.95313,0.23633 8.164207,8.164207 0 0 0 8.16601,-8.16406 8.164207,8.164207 0 0 0 6.98633,8.07812 v -12.85937 h 7.79492 a 8.164207,8.164207 0 0 0 -6.61719,-3.38282 z m 16.32813,0 a 8.164207,8.164207 0 0 0 -6.61719,3.38282 h 13.23438 a 8.164207,8.164207 0 0 0 -6.61719,-3.38282 z m 16.32812,0 a 8.164207,8.164207 0 0 0 -6.61718,3.38282 h 5.43945 v 12.85937 a 8.164207,8.164207 0 0 0 1.17773,0.0859 8.164207,8.164207 0 0 0 8.16407,-8.16406 8.164207,8.164207 0 0 0 -8.16407,-8.16407 z m 8.16407,8.16407 a 8.164207,8.164207 0 0 0 8.16406,8.16406 8.164207,8.164207 0 0 0 8.16406,-8.16406 8.164207,8.164207 0 0 0 -8.16406,-8.16407 8.164207,8.164207 0 0 0 -8.16406,8.16407 z m 16.32812,0 a 8.164207,8.164207 0 0 0 8.16406,8.16406 8.164207,8.164207 0 0 0 8.16407,-8.16406 8.164207,8.164207 0 0 0 -8.16407,-8.16407 8.164207,8.164207 0 0 0 -8.16406,8.16407 z m 16.32813,0 a 8.164207,8.164207 0 0 0 8.16406,8.16406 8.164207,8.164207 0 0 0 8.16406,-8.16406 8.164207,8.164207 0 0 0 -8.16406,-8.16407 8.164207,8.164207 0 0 0 -8.16406,8.16407 z m 24.49218,-8.00391 a 8.0041252,8.0041252 0 0 0 -8.0039,8.00391 8.0041252,8.0041252 0 0 0 8.0039,8.0039 8.0041252,8.0041252 0 0 0 8.00586,-8.0039 8.0041252,8.0041252 0 0 0 -8.00586,-8.00391 z m -344.70117,3.22266 h 32.65625 v 35.79687 h -32.65625 z m 242.07422,12.94531 a 8.164207,8.164207 0 0 0 -8.16406,8.16406 8.164207,8.164207 0 0 0 8.16406,8.16406 8.164207,8.164207 0 0 0 3.48047,-0.77929 v -14.76758 a 8.164207,8.164207 0 0 0 -3.48047,-0.78125 z m -8.16406,8.16406 a 8.164207,8.164207 0 0 0 -5.99219,-7.86914 l -10.04102,10.04102 a 8.164207,8.164207 0 0 0 7.86915,5.99218 8.164207,8.164207 0 0 0 8.16406,-8.16406 z m -16.92578,3.06445 -4.50196,4.50196 a 8.164207,8.164207 0 0 0 4.50196,-4.50196 z m -194.06641,19.79493 a 12.878157,12.878157 0 0 1 0.01,0 12.878157,12.878157 0 0 1 12.8789,12.87695 12.878157,12.878157 0 0 1 -12.8789,12.87891 12.878157,12.878157 0 0 1 -12.87696,-12.87891 12.878157,12.878157 0 0 1 12.86719,-12.87695 z m 124.3457,0 h 0.002 a 12.878157,12.878157 0 0 1 0.01,0 12.878157,12.878157 0 0 1 12.87891,12.87695 12.878157,12.878157 0 0 1 -12.87891,12.87891 12.878157,12.878157 0 0 1 -12.87695,-12.87891 12.878157,12.878157 0 0 1 12.86523,-12.87695 z m -65.70703,0.29882 c 0.0427,0.004 0.0882,0.007 0.13086,0.008 h 0.30078 v 0.0156 c 5.75399,0.13709 12.54688,1.34162 12.54688,9.11524 0,3.11408 -1.42452,5.15531 -3.39063,6.48046 l 3.69141,7.84961 8.02539,-23.46093 h 9.10352 l 7.43945,25.11914 h -7.32813 l -0.44336,-3 h -7.55078 l -0.55468,3 h -7.91211 -7.14453 l -3.66602,-7.40235 c -1.02475,0.11324 -1.99351,0.14224 -2.81641,0.11524 v 7.28906 h -5.66015 v -25.11914 h 2.83008 c 0.75629,-0.012 1.56437,-0.0187 2.39843,-0.008 z m -38.18945,0.002 c 0.0427,0.001 0.0881,0.005 0.13086,0.006 H 632.25 v 0.0137 c 5.75399,0.13706 12.54688,1.34161 12.54688,9.11523 0,7.50833 -8.23793,8.84244 -12.54688,8.70118 v 7.28906 h -5.66016 V 708.7168 h 2.83008 c 0.75631,-0.011 1.56439,-0.0185 2.39844,-0.006 z m -84.47461,0.002 h 6.99609 v 25.12695 h -6.99609 z m -14.89844,0.002 h 6.43946 V 726.506 h 7.99218 v 7.33008 h -7.99218 -6.43946 z m 43.28907,0 h 15.54296 v 5.9668 h -8.79296 v 3.45508 h 8.79296 v 5.96484 h -8.79296 v 3.45508 h 8.79296 v 6.2793 h -4.10156 c 6.64876,1.59817 11.83512,2.94184 15.80274,4.11328 -0.36095,1.26028 -0.81985,2.77929 -1.54688,4.92969 0.26873,-0.13455 0.5648,-0.2047 0.86524,-0.20508 1.06936,-9.8e-4 1.93652,0.86617 1.93554,1.93555 -0.001,1.06785 -0.86773,1.93262 -1.93554,1.93164 -0.73826,-2.7e-4 -1.41194,-0.42083 -1.73633,-1.08399 l -1.12696,3.3418 c 1.05411,0.0189 1.89855,0.87933 1.89844,1.93359 -9.8e-4,1.06787 -0.86768,1.93263 -1.93555,1.93164 -0.4117,4e-5 -0.81265,-0.1316 -1.14453,-0.375 l -1.27148,3.76172 -9.34766,-1.29101 -2.57617,6.12304 12.56836,3.22461 -1.28906,7.41211 c 0,0 14.82396,-5.80137 18.04687,1.28906 3.22292,7.09044 -2.90039,17.40381 -2.90039,23.20508 0,5.80127 2.90064,10.63458 0,12.2461 -2.90063,1.61143 -64.13672,0.64453 -64.13672,0.64453 l 0.96875,6.76758 c 0,0 -1.28872,-2.25388 -5.47851,-2.89844 -4.1898,-0.64468 -8.37891,1.61133 -8.37891,1.61133 l -5.1582,-0.32227 1.28906,-0.64453 0.73438,-3.06836 c -0.36208,0.35792 -0.85043,0.55856 -1.35938,0.55859 -1.06787,-1.1e-4 -1.93348,-0.86572 -1.93359,-1.93359 1.1e-4,-1.06787 0.86572,-1.93348 1.93359,-1.93359 0.83112,-3.1e-4 1.56949,0.53044 1.83399,1.31836 l 3.94726,-16.53516 19.01758,-2.25781 41.57422,-7.73438 c 0,0 -24.17139,-3.2208 -29.97266,-1.93164 -5.80123,1.28886 -4.19129,0.96479 -5.80273,1.28711 -1.59572,0.31861 -10.99614,2.51333 -11.18164,2.55664 -0.051,1.02879 -0.89962,1.83698 -1.92969,1.83789 -1.06787,9.8e-4 -1.93438,-0.86381 -1.93555,-1.93164 -9.8e-4,-1.06942 0.86617,-1.93653 1.93555,-1.93555 1.06787,10e-4 1.93262,0.86768 1.93164,1.93555 -1.1e-4,0.0265 -6.2e-4,0.0548 -0.002,0.082 0.3016,-0.10582 12.82361,-4.50916 15.37109,-7.05664 2.57836,-2.57832 3.86861,-12.24779 10.63672,-15.4707 6.76815,-3.22292 10.95703,-9.99024 10.95703,-9.99024 l -3.22266,-3.54492 0.21485,-0.83398 c -1.01877,-0.0639 -1.81239,-0.90888 -1.8125,-1.92969 7e-5,-1.06783 0.86572,-1.93352 1.93359,-1.93359 0.28876,7.1e-4 0.57377,0.0663 0.83399,0.1914 l 1.88476,-7.25586 c -0.34696,0.28951 -0.78441,0.44854 -1.23633,0.44922 -1.06862,9.8e-4 -1.93547,-0.86497 -1.93554,-1.93359 -1.9e-4,-0.20627 0.04,-0.40145 0.0996,-0.58789 h -7.36914 z m 70.02343,0 h 15.54297 v 5.9668 h -8.79297 v 3.45508 h 8.79297 v 5.96484 h -8.79297 v 3.45508 h 8.79297 v 6.2793 h -15.54297 z m -89.80664,0.002 h 6.00586 6.59375 6.00586 v 6.51562 h -6.00586 v 18.60352 h -6.59375 V 715.2326 h -6.00586 z m 149.1543,0 h 6.00586 6.59375 6.00586 v 6.51562 h -6.00586 v 18.60352 h -6.59375 V 715.2326 h -6.00586 z m -184.79492,5.96484 v 3.45508 h 8.13867 a 8.164207,8.164207 0 0 0 -0.80078,-3.45508 z m 112.89453,0.24805 c -0.33598,-0.002 -0.62877,0.006 -0.95508,0.0117 v 5.78515 c 2.72152,0.15721 6.10742,0.1873 6.10742,-2.6582 0,-2.74771 -2.62321,-3.12307 -5.15234,-3.13867 z m 38.18945,0 c -0.33596,-0.004 -0.6289,0.004 -0.95508,0.0117 v 5.78515 c 2.72153,0.15723 6.10743,0.18729 6.10743,-2.6582 0,-2.74772 -2.6232,-3.12357 -5.15235,-3.13867 z m 86.33985,0.006 a 8.164207,8.164207 0 0 0 -0.68555,3.26953 8.164207,8.164207 0 0 0 -0.45899,-2.69336 v 5.21484 c 0.26694,0.0154 0.54247,0.0267 0.81836,0.0371 -0.13558,-0.57481 -0.26847,-1.13921 -0.40429,-1.71484 a 8.164207,8.164207 0 0 0 0.0449,-0.83985 8.164207,8.164207 0 0 0 0.41015,2.55664 c 2.52266,0.0904 5.23829,-0.14818 5.23829,-2.69726 0,-2.67902 -2.49408,-3.09928 -4.96289,-3.13281 z m -146.41797,0.46875 a 5.8839854,5.8839854 0 0 0 -5.82032,5.88281 5.8839854,5.8839854 0 0 0 5.88282,5.88477 5.8839854,5.8839854 0 0 0 5.88476,-5.88477 5.8839854,5.8839854 0 0 0 -5.88476,-5.88281 5.8839854,5.8839854 0 0 0 -0.0625,0 z m 124.34765,0 a 5.8839853,5.8839853 0 0 0 -5.82031,5.88281 5.8839853,5.8839853 0 0 0 5.88281,5.88477 5.8839853,5.8839853 0 0 0 5.88477,-5.88477 5.8839853,5.8839853 0 0 0 -5.88477,-5.88281 5.8839853,5.8839853 0 0 0 -0.0625,0 z m -39.57812,1.33203 -3.21875,7.54883 h 5.99414 z m -314.5918,1.49219 a 8.164207,8.164207 0 0 0 1.17774,4.19921 l -1.60938,-1.60351 a 8.164207,8.164207 0 0 0 0.43164,-2.5957 z m 138.81641,5.87304 v 2.27149 a 8.164207,8.164207 0 0 0 5.6289,-2.27149 z m 61.60742,10.87305 c 0.12564,0.0315 0.24064,0.0822 0.35547,0.13867 a 8.0041252,8.0041252 0 0 0 0.16992,1.16211 h -0.70508 a 8.0041252,8.0041252 0 0 0 0.17969,-1.30078 z m 23.69922,3.78906 h 0.002 c 0.78455,0.25172 1.49849,0.49462 2.16992,0.73242 -0.27799,1.34956 -0.55727,2.66518 -0.83008,3.88868 a 2.4652705,2.4652705 0 0 1 2.10938,2.43945 2.4652705,2.4652705 0 0 1 -0.62305,1.63867 c 0.71744,0.28322 1.22731,0.97885 1.22657,1.79688 -3.1e-4,0.16063 -0.019,0.32088 -0.0606,0.47656 v 0.002 c 0.73886,0.2914 1.22453,1.00464 1.22461,1.79883 -8e-5,1.06707 -0.86457,1.93242 -1.93164,1.93359 -1.06863,10e-4 -1.93547,-0.865 -1.93555,-1.93359 1.1e-4,-0.16139 0.019,-0.32201 0.0606,-0.47852 -0.73886,-0.2914 -1.22454,-1.00463 -1.22461,-1.79882 -3.5e-4,-0.3758 0.10961,-0.72441 0.29492,-1.02149 a 2.4652705,2.4652705 0 0 1 -0.94336,-0.41601 c -0.0939,-0.22017 -0.14672,-0.46234 -0.14648,-0.7168 1.1e-4,-0.61172 0.30673,-1.18145 0.8164,-1.51953 l -0.0215,-0.36719 c -0.51129,-0.11146 -0.93233,-0.43224 -1.1836,-0.85937 a 2.4652705,2.4652705 0 0 1 1.79297,-0.99415 l -0.75781,-4.55859 c -0.0151,-0.0151 -0.0239,-0.0301 -0.0391,-0.043 z m 4.10351,1.46094 h 0.002 c 5.97184,2.40121 6.24654,4.21301 5.30468,6.80078 L 613.65039,746 c -0.2555,0.8036 -1.00241,1.3489 -1.8457,1.34766 -1.06783,-10e-4 -1.93263,-0.86768 -1.93164,-1.93555 1.5e-4,-0.64815 0.32502,-1.25314 0.86523,-1.61133 l -0.0273,-0.38867 c -0.88728,-0.19351 -1.52028,-0.97857 -1.52149,-1.88672 -6e-4,-0.4989 0.20712,-0.95019 0.53125,-1.30078 z m -199.10156,3.13477 a 2.4652705,2.4652705 0 0 1 0.043,0 2.4652705,2.4652705 0 0 1 2.46484,2.46484 2.4652705,2.4652705 0 0 1 -2.46484,2.4668 2.4652705,2.4652705 0 0 1 -2.46484,-2.4668 2.4652705,2.4652705 0 0 1 2.42187,-2.46484 z m 16.32813,0 a 2.4652705,2.4652705 0 0 1 0.043,0 2.4652705,2.4652705 0 0 1 2.46485,2.46484 2.4652705,2.4652705 0 0 1 -2.46485,2.4668 2.4652705,2.4652705 0 0 1 -2.46484,-2.4668 2.4652705,2.4652705 0 0 1 2.42188,-2.46484 z m 16.32812,0 a 2.4652705,2.4652705 0 0 1 0.043,0 2.4652705,2.4652705 0 0 1 2.46484,2.46484 2.4652705,2.4652705 0 0 1 -2.46484,2.4668 2.4652705,2.4652705 0 0 1 -2.46484,-2.4668 2.4652705,2.4652705 0 0 1 2.42187,-2.46484 z m 16.32813,0 a 2.4652705,2.4652705 0 0 1 0.043,0 2.4652705,2.4652705 0 0 1 2.4668,2.46484 2.4652705,2.4652705 0 0 1 -2.4668,2.4668 2.4652705,2.4652705 0 0 1 -2.46484,-2.4668 2.4652705,2.4652705 0 0 1 2.42188,-2.46484 z m 16.32812,0 a 2.4652705,2.4652705 0 0 1 0.0449,0 2.4652705,2.4652705 0 0 1 2.46485,2.46484 2.4652705,2.4652705 0 0 1 -2.46485,2.4668 2.4652705,2.4652705 0 0 1 -2.46679,-2.4668 2.4652705,2.4652705 0 0 1 2.42187,-2.46484 z m 16.32813,0 a 2.4652705,2.4652705 0 0 1 0.0449,0 2.4652705,2.4652705 0 0 1 2.46484,2.46484 2.4652705,2.4652705 0 0 1 -2.46484,2.4668 2.4652705,2.4652705 0 0 1 -2.4668,-2.4668 2.4652705,2.4652705 0 0 1 2.42188,-2.46484 z m 16.33007,0 a 2.4652705,2.4652705 0 0 1 0.043,0 2.4652705,2.4652705 0 0 1 2.46485,2.46484 2.4652705,2.4652705 0 0 1 -2.46485,2.4668 2.4652705,2.4652705 0 0 1 -2.46484,-2.4668 2.4652705,2.4652705 0 0 1 2.42187,-2.46484 z m 261.25391,0 a 2.4652705,2.4652705 0 0 1 0.043,0 2.4652705,2.4652705 0 0 1 2.46484,2.46484 2.4652705,2.4652705 0 0 1 -2.46484,2.4668 2.4652705,2.4652705 0 0 1 -2.46484,-2.4668 2.4652705,2.4652705 0 0 1 2.42187,-2.46484 z m 16.32813,0 a 2.4652705,2.4652705 0 0 1 0.043,0 2.4652705,2.4652705 0 0 1 2.4668,2.46484 2.4652705,2.4652705 0 0 1 -2.4668,2.4668 2.4652705,2.4652705 0 0 1 -2.46484,-2.4668 2.4652705,2.4652705 0 0 1 2.42188,-2.46484 z m 16.32812,0 a 2.4652705,2.4652705 0 0 1 0.043,0 2.4652705,2.4652705 0 0 1 2.4668,2.46484 2.4652705,2.4652705 0 0 1 -2.4668,2.4668 2.4652705,2.4652705 0 0 1 -2.46485,-2.4668 2.4652705,2.4652705 0 0 1 2.42188,-2.46484 z m 16.32812,0 a 2.4652705,2.4652705 0 0 1 0.0449,0 2.4652705,2.4652705 0 0 1 2.46484,2.46484 2.4652705,2.4652705 0 0 1 -2.46484,2.4668 2.4652705,2.4652705 0 0 1 -2.4668,-2.4668 2.4652705,2.4652705 0 0 1 2.42187,-2.46484 z m 16.33008,0 a 2.4652705,2.4652705 0 0 1 0.043,0 2.4652705,2.4652705 0 0 1 2.46485,2.46484 2.4652705,2.4652705 0 0 1 -2.46485,2.4668 2.4652705,2.4652705 0 0 1 -2.46484,-2.4668 2.4652705,2.4652705 0 0 1 2.42187,-2.46484 z m 16.32813,0 a 2.4652705,2.4652705 0 0 1 0.043,0 2.4652705,2.4652705 0 0 1 2.46484,2.46484 2.4652705,2.4652705 0 0 1 -2.46484,2.4668 2.4652705,2.4652705 0 0 1 -2.46485,-2.4668 2.4652705,2.4652705 0 0 1 2.42188,-2.46484 z m 16.32812,0 a 2.4652705,2.4652705 0 0 1 0.043,0 2.4652705,2.4652705 0 0 1 2.46485,2.46484 2.4652705,2.4652705 0 0 1 -2.46485,2.4668 2.4652705,2.4652705 0 0 1 -2.46484,-2.4668 2.4652705,2.4652705 0 0 1 2.42187,-2.46484 z m -289.15625,5.99414 h 0.0117 c 1.06863,7e-5 1.93458,0.86692 1.9336,1.93554 -0.001,1.06708 -0.86649,1.93157 -1.9336,1.93164 -1.06707,-1.1e-4 -1.93242,-0.86456 -1.93359,-1.93164 -9.8e-4,-1.06405 0.85782,-1.92901 1.92187,-1.93554 z m 52.8711,0.34375 h 0.002 0.0117 c 1.06787,-9.9e-4 1.93437,0.86381 1.93555,1.93164 9.8e-4,1.06938 -0.86617,1.93653 -1.93555,1.93554 -1.06787,-10e-4 -1.93262,-0.86768 -1.93164,-1.93554 10e-4,-1.06113 0.85714,-1.92295 1.91797,-1.93164 z m 31.24023,0.20312 c 0.004,-4e-5 0.0118,-4e-5 0.0156,0 0.6229,6.1e-4 1.12744,0.506 1.12695,1.12891 -0.002,0.62139 -0.50556,1.12443 -1.12695,1.125 -0.6214,-5.7e-4 -1.12529,-0.50361 -1.12696,-1.125 -5.3e-4,-0.6169 0.49455,-1.1198 1.11133,-1.12891 z m -20.98437,0.25 h 0.002 0.0117 c 1.06938,-9.8e-4 1.93652,0.86617 1.93555,1.93555 -8e-5,1.06862 -0.86693,1.93461 -1.93555,1.93359 -1.06711,-9.8e-4 -1.93157,-0.86652 -1.93164,-1.93359 -9.8e-4,-1.06267 0.85563,-1.92686 1.91797,-1.93555 z m 30.91796,1.06445 c 0.004,-3e-5 0.0118,-3e-5 0.0156,0 0.62294,6.1e-4 1.12741,0.50601 1.12695,1.12891 -6e-4,0.62215 -0.5048,1.12639 -1.12695,1.12695 -0.62215,-5.6e-4 -1.12635,-0.5048 -1.12695,-1.12695 -5.3e-4,-0.61686 0.49452,-1.11976 1.11132,-1.12891 z m -21.375,0.85938 c 0.004,-8e-5 0.0118,-8e-5 0.0156,0 0.62219,-4.9e-4 1.12724,0.50285 1.12891,1.125 4.9e-4,0.6237 -0.50521,1.1294 -1.12891,1.1289 -0.6229,-5.5e-4 -1.12744,-0.50596 -1.12695,-1.1289 0.002,-0.61535 0.49607,-1.11593 1.11132,-1.125 z m -25.72265,0.4707 h 0.002 c 0.003,-4e-5 0.008,-4e-5 0.0117,0 1.06787,8e-5 1.93352,0.86577 1.93359,1.9336 -7e-5,1.06786 -0.86572,1.93351 -1.93359,1.93359 -1.06783,-8e-5 -1.93352,-0.86573 -1.93359,-1.93359 3e-5,-1.06264 0.85758,-1.92604 1.91992,-1.9336 z m -20.77735,0.9043 c 0.004,-4e-5 0.008,-4e-5 0.0117,0 1.06783,7e-5 1.93352,0.86572 1.9336,1.93359 -8e-5,1.06783 -0.86577,1.93352 -1.9336,1.9336 -1.06786,-8e-5 -1.93351,-0.86577 -1.93359,-1.9336 4e-5,-1.06333 0.85859,-1.92709 1.92187,-1.93359 z m 10.06641,0.46289 h 0.002 0.01 c 1.06938,-9.8e-4 1.93653,0.86617 1.93555,1.93555 -9.9e-4,1.06786 -0.86768,1.93266 -1.93555,1.93164 -1.06632,-9.9e-4 -1.93047,-0.86529 -1.93164,-1.93164 -10e-4,-1.06339 0.85682,-1.92795 1.91992,-1.93555 z m 74.40625,0.6875 h 0.002 0.0156 c 0.6229,-4.5e-4 1.1283,0.50401 1.12891,1.12695 -6.1e-4,0.62291 -0.50601,1.12745 -1.12891,1.12696 -0.6229,4.9e-4 -1.1283,-0.50405 -1.12891,-1.12696 5.3e-4,-0.61623 0.49543,-1.11785 1.11133,-1.12695 z m -53.65625,0.48242 h 0.0117 c 1.06711,10e-4 1.93157,0.86653 1.93164,1.93359 -7e-5,1.06708 -0.86453,1.93243 -1.93164,1.9336 -1.06862,9.8e-4 -1.93547,-0.86497 -1.93555,-1.9336 8e-5,-1.06404 0.85978,-1.92811 1.92383,-1.93359 z m 11.49805,0.084 h 0.0117 c 1.06707,9.8e-4 1.93152,0.86648 1.93164,1.93359 -1.2e-4,1.06707 -0.86457,1.93242 -1.93164,1.93359 -1.06863,9.9e-4 -1.93544,-0.865 -1.93555,-1.93359 8e-5,-1.06409 0.85978,-1.92815 1.92383,-1.93359 z m 9.67969,0.69531 c 0.62369,-4.9e-4 1.12939,0.50521 1.1289,1.1289 4.9e-4,0.62366 -0.50521,1.12936 -1.1289,1.12891 -0.62366,4.9e-4 -1.1294,-0.50525 -1.12891,-1.12891 -4.9e-4,-0.62369 0.50525,-1.12939 1.12891,-1.1289 z m 42.14843,0.0254 c 0.004,-4e-5 0.0118,-4e-5 0.0156,0 0.62139,5.7e-4 1.12525,0.50361 1.12695,1.125 4.5e-4,0.6229 -0.50401,1.12831 -1.12695,1.1289 -0.62366,5e-4 -1.12936,-0.5052 -1.12891,-1.1289 0.002,-0.6161 0.49722,-1.11695 1.11328,-1.125 z m 12.08203,0 h 0.002 c 0.004,-4e-5 0.0118,-4e-5 0.0156,0 0.62139,5.7e-4 1.12529,0.50361 1.12696,1.125 4.9e-4,0.62294 -0.50405,1.12831 -1.12696,1.1289 -0.62366,5e-4 -1.1294,-0.50524 -1.1289,-1.1289 0.002,-0.61535 0.49606,-1.11593 1.11132,-1.125 z m 23.95313,3.60351 c 0,0 0.22867,0.90978 3.19141,3.64454 2.96265,2.73471 27.3457,6.15429 27.3457,6.15429 0,0 -23.70081,0.91211 -31.44922,0.91211 -5.42553,0 -13.11659,-3.76527 -17.28906,-6.04297 a 2.0810725,2.0810725 0 0 1 -0.56055,0.0762 2.0810725,2.0810725 0 0 1 -2.00586,-1.53126 c -0.064,-0.0389 -0.42773,-0.25 -0.42773,-0.25 l 0.36914,-0.0508 a 2.0810725,2.0810725 0 0 1 -0.0156,-0.25 2.0810725,2.0810725 0 0 1 0.0664,-0.51953 l 3.80859,-0.5332 a 2.0810725,2.0810725 0 0 1 0.25977,0.72656 z m -115.21289,0.23047 h 0.002 0.0117 c 1.06862,-9.8e-4 1.93547,0.86497 1.93555,1.9336 -1.2e-4,1.06862 -0.86693,1.93457 -1.93555,1.93359 -1.06783,-1.1e-4 -1.93352,-0.86573 -1.93359,-1.93359 3e-5,-1.06264 0.85758,-1.926 1.91992,-1.9336 z m 10.36914,0 h 0.002 0.0117 c 1.06859,-9.8e-4 1.93547,0.86497 1.93555,1.9336 -8e-5,1.06862 -0.86696,1.93457 -1.93555,1.93359 -1.06711,-10e-4 -1.93156,-0.86648 -1.93164,-1.93359 4e-5,-1.06188 0.85638,-1.92494 1.91797,-1.9336 z m 10.48437,0.11524 h 0.002 0.0117 c 1.06707,7e-5 1.93242,0.86456 1.93359,1.93164 9.8e-4,1.06862 -0.86497,1.93544 -1.93359,1.93554 -1.06938,9.9e-4 -1.93657,-0.86616 -1.93555,-1.93554 9.8e-4,-1.06264 0.85949,-1.9251 1.92187,-1.93164 z m -218.37304,0.23633 a 2.0810725,2.0810725 0 0 1 0.0605,0 2.0810725,2.0810725 0 0 1 2.08008,2.08007 2.0810725,2.0810725 0 0 1 -0.52539,1.38086 l -2.93945,-2.93164 a 2.0810725,2.0810725 0 0 1 1.32422,-0.52929 z m 16.38867,0 a 2.0810725,2.0810725 0 0 1 2.08008,2.08007 2.0810725,2.0810725 0 0 1 -2.08008,2.08204 2.0810725,2.0810725 0 0 1 -2.08203,-2.08204 2.0810725,2.0810725 0 0 1 2.08203,-2.08007 z m 16.32812,0 a 2.0810725,2.0810725 0 0 1 2.08204,2.08007 2.0810725,2.0810725 0 0 1 -2.08204,2.08204 2.0810725,2.0810725 0 0 1 -2.08007,-2.08204 2.0810725,2.0810725 0 0 1 2.08007,-2.08007 z m 16.32813,0 a 2.0810725,2.0810725 0 0 1 2.08203,2.08007 2.0810725,2.0810725 0 0 1 -2.08203,2.08204 2.0810725,2.0810725 0 0 1 -2.08008,-2.08204 2.0810725,2.0810725 0 0 1 2.08008,-2.08007 z m 16.32812,0 a 2.0810725,2.0810725 0 0 1 2.08204,2.08007 2.0810725,2.0810725 0 0 1 -2.08204,2.08204 2.0810725,2.0810725 0 0 1 -2.08007,-2.08204 2.0810725,2.0810725 0 0 1 2.08007,-2.08007 z m 16.33008,0 a 2.0810725,2.0810725 0 0 1 2.08008,2.08007 2.0810725,2.0810725 0 0 1 -2.08008,2.08204 2.0810725,2.0810725 0 0 1 -2.08203,-2.08204 2.0810725,2.0810725 0 0 1 2.08203,-2.08007 z m 277.58203,0 a 2.0810725,2.0810725 0 0 1 2.08203,2.08007 2.0810725,2.0810725 0 0 1 -2.08203,2.08204 2.0810725,2.0810725 0 0 1 -2.08007,-2.08204 2.0810725,2.0810725 0 0 1 2.08007,-2.08007 z m 16.32813,0 a 2.0810725,2.0810725 0 0 1 2.08203,2.08007 2.0810725,2.0810725 0 0 1 -2.08203,2.08204 2.0810725,2.0810725 0 0 1 -2.08008,-2.08204 2.0810725,2.0810725 0 0 1 2.08008,-2.08007 z m 16.32812,0 a 2.0810725,2.0810725 0 0 1 2.08204,2.08007 2.0810725,2.0810725 0 0 1 -2.08204,2.08204 2.0810725,2.0810725 0 0 1 -2.08007,-2.08204 2.0810725,2.0810725 0 0 1 2.08007,-2.08007 z m 16.33008,0 a 2.0810725,2.0810725 0 0 1 2.08008,2.08007 2.0810725,2.0810725 0 0 1 -2.08008,2.08204 2.0810725,2.0810725 0 0 1 -2.08203,-2.08204 2.0810725,2.0810725 0 0 1 2.08203,-2.08007 z m 16.32813,0 a 2.0810725,2.0810725 0 0 1 2.08007,2.08007 2.0810725,2.0810725 0 0 1 -2.08007,2.08204 2.0810725,2.0810725 0 0 1 -2.08203,-2.08204 2.0810725,2.0810725 0 0 1 2.08203,-2.08007 z m -247.47461,0.44531 h 0.0117 c 1.06786,10e-4 1.93262,0.86769 1.93164,1.93554 -9.9e-4,1.06632 -0.86529,1.93047 -1.93164,1.93165 -1.06787,9.8e-4 -1.93438,-0.86382 -1.93555,-1.93165 -0.001,-1.06483 0.85902,-1.93006 1.92383,-1.93554 z m 34.65625,0.19922 h 0.002 0.01 c 1.00705,3e-5 1.82503,0.81712 1.82617,1.82422 7.1e-4,0.7586 -0.46278,1.40947 -1.1211,1.68554 a 2.0810725,2.0810725 0 0 1 -0.16796,0.008 2.0810725,2.0810725 0 0 1 -2.08204,-2.08204 2.0810725,2.0810725 0 0 1 0.1543,-0.78125 c 0.33245,-0.39402 0.82348,-0.65086 1.37891,-0.65429 z m 132.87695,0.24023 a 2.0810725,2.0810725 0 0 1 0.37891,1.19531 2.0810725,2.0810725 0 0 1 -0.0215,0.30078 c -0.1185,-0.49769 -0.23789,-0.99394 -0.35742,-1.49609 z m -104.38086,0.24609 h 0.002 c 0.004,-2e-5 0.008,-2e-5 0.0156,0 0.62366,-4.8e-4 1.1294,0.50521 1.12891,1.12891 -5.7e-4,0.62291 -0.50601,1.12745 -1.12891,1.12695 -0.62294,5e-4 -1.12834,-0.50404 -1.12891,-1.12695 -5.6e-4,-0.61695 0.49468,-1.1198 1.11133,-1.12891 z m 10.15234,0.32227 c 0.004,-4e-5 0.0118,-4e-5 0.0156,0 0.62294,6.1e-4 1.12741,0.506 1.12695,1.12891 4.6e-4,0.62294 -0.50405,1.12834 -1.12695,1.1289 -0.6229,-5.6e-4 -1.12744,-0.50596 -1.12695,-1.1289 -5.3e-4,-0.61686 0.49452,-1.11976 1.11132,-1.12891 z m -21.21484,0.53516 h 0.002 c 0.004,-4e-5 0.008,-4e-5 0.0156,0 0.6237,-4.9e-4 1.1294,0.50521 1.12891,1.1289 -5.7e-4,0.62291 -0.50597,1.12745 -1.12891,1.12696 -0.62215,-5.7e-4 -1.12639,-0.50481 -1.12695,-1.12696 -5.7e-4,-0.61623 0.49347,-1.11875 1.10937,-1.1289 z m -80.18164,0.60351 a 2.0810725,2.0810725 0 0 1 -1.87891,1.56446 c 0.56543,-0.58274 1.18686,-1.11192 1.87891,-1.56446 z m 95.75781,1.11914 h 0.002 0.0137 c 0.62215,-4.9e-4 1.12724,0.50286 1.1289,1.125 5e-4,0.62366 -0.50524,1.1294 -1.1289,1.12891 -0.62291,-6.1e-4 -1.12744,-0.506 -1.12696,-1.12891 0.002,-0.61543 0.49619,-1.1159 1.11133,-1.125 z m -8.86328,1.60938 h 0.002 c 0.003,-3e-5 0.007,-3e-5 0.0137,0 0.62366,-4.9e-4 1.12939,0.50521 1.1289,1.1289 4.9e-4,0.62366 -0.50521,1.12936 -1.1289,1.12891 -0.62366,4.9e-4 -1.1294,-0.50525 -1.12891,-1.12891 -5.3e-4,-0.6177 0.49587,-1.12085 1.11328,-1.1289 z m -105.75,11.30664 h 0.002 c 0.003,-2e-5 0.007,-3e-5 0.01,0 1.06862,-10e-4 1.93547,0.86497 1.93555,1.93359 9.8e-4,1.06938 -0.86617,1.93653 -1.93555,1.93555 -1.06787,-0.001 -1.93262,-0.86768 -1.93164,-1.93555 8e-5,-1.06263 0.85758,-1.92603 1.91992,-1.93359 z m -109.13281,0.0527 a 1.7288909,1.7288909 0 0 1 1.72852,1.73047 1.7288909,1.7288909 0 0 1 -1.72852,1.72852 1.7288909,1.7288909 0 0 1 -1.72852,-1.72852 1.7288909,1.7288909 0 0 1 1.72852,-1.73047 z m 16.32812,0 a 1.7288909,1.7288909 0 0 1 1.73047,1.73047 1.7288909,1.7288909 0 0 1 -1.73047,1.72852 1.7288909,1.7288909 0 0 1 -1.72851,-1.72852 1.7288909,1.7288909 0 0 1 1.72851,-1.73047 z m 16.33008,0 a 1.7288909,1.7288909 0 0 1 1.72852,1.73047 1.7288909,1.7288909 0 0 1 -1.72852,1.72852 1.7288909,1.7288909 0 0 1 -1.73047,-1.72852 1.7288909,1.7288909 0 0 1 1.73047,-1.73047 z m 16.32813,0 a 1.7288909,1.7288909 0 0 1 1.72851,1.73047 1.7288909,1.7288909 0 0 1 -1.72851,1.72852 1.7288909,1.7288909 0 0 1 -1.73047,-1.72852 1.7288909,1.7288909 0 0 1 1.73047,-1.73047 z m 16.32812,0 a 1.7288909,1.7288909 0 0 1 1.72852,1.73047 1.7288909,1.7288909 0 0 1 -1.72852,1.72852 1.7288909,1.7288909 0 0 1 -1.72851,-1.72852 1.7288909,1.7288909 0 0 1 1.72851,-1.73047 z m 277.58203,0 a 1.7288909,1.7288909 0 0 1 1.73047,1.73047 1.7288909,1.7288909 0 0 1 -1.73047,1.72852 1.7288909,1.7288909 0 0 1 -1.72851,-1.72852 1.7288909,1.7288909 0 0 1 1.72851,-1.73047 z m 16.32813,0 a 1.7288909,1.7288909 0 0 1 1.73047,1.73047 1.7288909,1.7288909 0 0 1 -1.73047,1.72852 1.7288909,1.7288909 0 0 1 -1.72852,-1.72852 1.7288909,1.7288909 0 0 1 1.72852,-1.73047 z m 16.33008,0 a 1.7288909,1.7288909 0 0 1 1.72851,1.73047 1.7288909,1.7288909 0 0 1 -1.72851,1.72852 1.7288909,1.7288909 0 0 1 -1.73047,-1.72852 1.7288909,1.7288909 0 0 1 1.73047,-1.73047 z m 16.32812,0 a 1.7288909,1.7288909 0 0 1 1.72852,1.73047 1.7288909,1.7288909 0 0 1 -1.72852,1.72852 1.7288909,1.7288909 0 0 1 -1.72851,-1.72852 1.7288909,1.7288909 0 0 1 1.72851,-1.73047 z m -64.45508,0.22852 a 1.7288909,1.7288909 0 0 1 0.86914,1.50195 1.7288909,1.7288909 0 0 1 -0.28515,0.95117 c -0.17213,-0.72088 -0.4083,-1.71705 -0.58399,-2.45312 z m -211.40429,1.58789 a 1.7288909,1.7288909 0 0 1 -1.72461,1.64258 1.7288909,1.7288909 0 0 1 -1.03516,-0.34571 c 0.97238,-0.42832 1.91169,-0.86527 2.75977,-1.29687 z m -16.46289,7.47461 h 0.002 c 0.003,-4e-5 0.008,-4e-5 0.0117,0 1.06858,-9.8e-4 1.93544,0.86497 1.93554,1.93359 -6e-5,1.06863 -0.86696,1.93458 -1.93554,1.9336 -1.06787,-8e-5 -1.93352,-0.86573 -1.9336,-1.9336 8e-5,-1.06263 0.85758,-1.92603 1.91993,-1.93359 z m -11.97852,0.94531 h 0.002 0.01 c 1.06707,8e-5 1.93242,0.86457 1.93359,1.93164 9.9e-4,1.06863 -0.86497,1.93547 -1.93359,1.93555 -1.06862,-8e-5 -1.93458,-0.86692 -1.93359,-1.93555 10e-4,-1.06263 0.85949,-1.92514 1.92187,-1.93164 z m -5.48047,4.66992 h 0.0117 c 1.06862,8e-5 1.93458,0.86693 1.93359,1.93555 -1.1e-4,1.06787 -0.86572,1.93352 -1.93359,1.93359 -1.06787,-7e-5 -1.93348,-0.86576 -1.93359,-1.93359 -9.9e-4,-1.06405 0.85782,-1.92901 1.92187,-1.93555 z m -65.77344,1.80664 a 1.3446929,1.3446929 0 0 1 1.34571,1.34571 1.3446929,1.3446929 0 0 1 -1.34571,1.34375 1.3446929,1.3446929 0 0 1 -1.34375,-1.34375 1.3446929,1.3446929 0 0 1 1.34375,-1.34571 z m 16.33008,0 a 1.3446929,1.3446929 0 0 1 1.34375,1.34571 1.3446929,1.3446929 0 0 1 -1.34375,1.34375 1.3446929,1.3446929 0 0 1 -1.3457,-1.34375 1.3446929,1.3446929 0 0 1 1.3457,-1.34571 z m 16.32813,0 a 1.3446929,1.3446929 0 0 1 1.34375,1.34571 1.3446929,1.3446929 0 0 1 -1.34375,1.34375 1.3446929,1.3446929 0 0 1 -1.34571,-1.34375 1.3446929,1.3446929 0 0 1 1.34571,-1.34571 z m 16.32812,0 a 1.3446929,1.3446929 0 0 1 1.34375,1.34571 1.3446929,1.3446929 0 0 1 -1.34375,1.34375 1.3446929,1.3446929 0 0 1 -1.3457,-1.34375 1.3446929,1.3446929 0 0 1 1.3457,-1.34571 z m 277.58203,0 a 1.3446929,1.3446929 0 0 1 1.34571,1.34571 1.3446929,1.3446929 0 0 1 -1.34571,1.34375 1.3446929,1.3446929 0 0 1 -1.34375,-1.34375 1.3446929,1.3446929 0 0 1 1.34375,-1.34571 z m 16.32813,0 a 1.3446929,1.3446929 0 0 1 1.3457,1.34571 1.3446929,1.3446929 0 0 1 -1.3457,1.34375 1.3446929,1.3446929 0 0 1 -1.34375,-1.34375 1.3446929,1.3446929 0 0 1 1.34375,-1.34571 z m 16.33008,0 a 1.3446929,1.3446929 0 0 1 1.34375,1.34571 1.3446929,1.3446929 0 0 1 -1.34375,1.34375 1.3446929,1.3446929 0 0 1 -1.34571,-1.34375 1.3446929,1.3446929 0 0 1 1.34571,-1.34571 z m -287.8125,3.51368 h 0.002 0.0117 c 1.06787,7e-5 1.93352,0.86572 1.93359,1.93359 -7e-5,1.06783 -0.86572,1.93352 -1.93359,1.93359 -1.06859,9.9e-4 -1.93547,-0.86497 -1.93555,-1.93359 8e-5,-1.06343 0.85874,-1.92709 1.92188,-1.93359 z m -5.96289,5.15625 c 0.004,-4e-5 0.008,-4e-5 0.0117,0 1.06785,7e-5 1.93351,0.86576 1.93359,1.93359 -8e-5,1.06787 -0.86574,1.93352 -1.93359,1.93359 -1.06783,-7e-5 -1.93352,-0.86572 -1.9336,-1.93359 4e-5,-1.0633 0.85862,-1.92709 1.92188,-1.93359 z m -3.86719,6.24218 c 0.004,-3e-5 0.008,-3e-5 0.0117,0 1.06711,9.9e-4 1.93156,0.86652 1.93164,1.9336 -8e-5,1.06711 -0.86457,1.93242 -1.93164,1.93359 -1.06863,9.8e-4 -1.93547,-0.86497 -1.93555,-1.93359 4e-5,-1.06405 0.85978,-1.92815 1.92383,-1.9336 z m 2.96289,5.46875 c 0.004,-3e-5 0.008,-3e-5 0.0117,0 1.06711,9.9e-4 1.93156,0.86652 1.93164,1.9336 9.8e-4,1.06786 -0.86377,1.93437 -1.93164,1.93554 -1.06938,9.9e-4 -1.93653,-0.86616 -1.93555,-1.93554 8e-5,-1.06405 0.85978,-1.92815 1.92383,-1.9336 z m 54.56445,0.69727 h 0.004 0.008 c 1.06862,-9.8e-4 1.93547,0.86497 1.93555,1.93359 -1.5e-4,0.20145 -0.0302,0.40194 -0.0938,0.59375 2.26212,-0.0831 4.48885,-0.1591 6.73242,-0.23242 -0.0227,-0.11943 -0.0312,-0.24038 -0.0312,-0.36133 1.1e-4,-1.06862 0.86692,-1.93457 1.93555,-1.93359 1.06707,10e-4 1.93156,0.86648 1.93164,1.93359 -3e-4,0.0798 -0.004,0.15929 -0.0156,0.23828 24.37179,-0.74471 45.84766,-0.93359 45.84766,-0.93359 0,0 -9.90314,1.34225 -21.11133,3.35742 4.96985,0.61361 11.29522,1.5303 9.26172,2.11133 -3.19053,0.91155 -1.82503,-4.3e-4 -20.05664,4.10156 -18.23161,4.10211 -7.29102,5.47071 -7.29102,5.47071 l 4.10352,6.3789 -9.57227,-1.82422 0.45508,-6.83593 -7.38281,-1.1543 c -0.11943,0.0809 -0.25746,0.16326 -0.36328,0.24414 -7.74853,5.92528 -10.02735,11.39453 -10.02735,11.39453 0,0 -19.14203,1.82363 -23.24414,5.92578 -4.10211,4.10207 -17.32281,47.85701 -13.2207,50.5918 1.21047,0.80693 3.94775,1.56341 7.12305,2.24414 0.41382,-0.37115 0.95008,-0.57617 1.50586,-0.57617 0.86589,0.002 1.6544,0.49875 2.02929,1.27929 1.70967,0.30728 3.4043,0.58094 5.06446,0.83008 0.0775,-1.18601 1.06145,-2.10869 2.25,-2.10937 1.2466,-9.9e-4 2.25773,1.00926 2.25781,2.25586 -6.8e-4,0.16289 -0.0207,0.3254 -0.0566,0.48437 2.8326,0.37304 4.89453,0.60547 4.89453,0.60547 l -5.13281,0.0156 c -0.39973,0.70934 -1.15066,1.14821 -1.96485,1.14843 -0.80855,-2.2e-4 -1.55515,-0.43313 -1.95703,-1.13476 l -5.43945,0.0195 c -0.40456,0.69184 -1.14582,1.11711 -1.94727,1.11719 -0.79657,6.8e-4 -1.5345,-0.41874 -1.9414,-1.10352 l -117.44336,0.39258 32.8164,-3.64453 2.53711,-3.51172 -29.97851,0.0996 30.9707,-3.43946 8.08594,-11.19531 c -0.47606,-0.35264 -0.7877,-0.91476 -0.78711,-1.55273 9.8e-4,-1.06254 0.85937,-1.9251 1.92187,-1.93164 h 0.0117 c 0.41565,3e-5 0.79801,0.1342 1.11328,0.35742 l 0.83985,-1.16406 c 0,0 0.62613,8.05187 2.66015,9.95117 0.0421,-0.0612 1.12934,-1.64374 2.88672,-4.26172 -0.14351,-1.03028 -0.38476,-1.81836 -0.38476,-1.81836 0,0 7.11649,-10.35116 13.94531,-21.38281 -0.1403,0.0322 -0.28348,0.0529 -0.43359,0.0527 -0.56171,-4e-5 -1.06473,-0.24256 -1.41797,-0.625 0.0133,0.0891 0.0274,0.1787 0.0273,0.27149 -1.1e-4,1.00856 -0.81956,1.82516 -1.82812,1.82422 -1.0071,-9.5e-4 -1.82216,-0.81709 -1.82227,-1.82422 -9.1e-4,-1.0036 0.80919,-1.81892 1.8125,-1.82618 h 0.002 0.008 c 0.51817,-4.4e-4 0.98355,0.21819 1.3164,0.56446 -0.0174,-0.10456 -0.0313,-0.21081 -0.0312,-0.32031 0.001,-1.06185 0.85834,-1.92405 1.91992,-1.93165 h 0.002 0.0117 c 0.9077,-8.2e-4 1.66218,0.62743 1.87109,1.47071 0.26287,-0.43148 0.53301,-0.8601 0.79297,-1.29102 l 0.74219,0.74024 c 1.79008,-3.07027 3.43808,-6.03429 4.78515,-8.68946 -0.91793,-0.16781 -1.58507,-0.96722 -1.58594,-1.90039 8e-5,-1.06862 0.86693,-1.93461 1.93555,-1.93359 0.47308,3e-4 0.92959,0.17386 1.2832,0.48828 1.82589,-4.05762 2.57314,-6.95253 1.45508,-7.66406 -5.01369,-3.19049 -7.29297,-1.82422 -7.29297,-1.82422 l 0.91211,-4.55859 c 0,0 15.04111,9.2e-4 23.70118,-5.92383 1.8272,-1.25027 8.0078,-2.27485 16.57421,-3.11719 -0.034,-0.14589 -0.0508,-0.29553 -0.0508,-0.44531 8e-5,-1.06787 0.86573,-1.93352 1.9336,-1.9336 1.06783,8e-5 1.93351,0.86577 1.93359,1.9336 -5.3e-4,0.0302 -0.002,0.0619 -0.004,0.0938 3.55688,-0.30539 7.44904,-0.58015 11.53516,-0.83399 -0.46352,-0.36661 -0.73401,-0.92477 -0.73437,-1.51562 9.9e-4,-1.06711 0.86651,-1.93157 1.93359,-1.93164 1.06707,7e-5 1.93242,0.86453 1.93359,1.93164 -6e-4,0.51401 -0.20596,1.00473 -0.57031,1.36719 2.66203,-0.15572 5.35601,-0.30463 8.14258,-0.44141 -0.10507,-0.24151 -0.1594,-0.5002 -0.16016,-0.76367 8e-5,-1.06787 0.86577,-1.93544 1.9336,-1.93555 1.06786,1.1e-4 1.93351,0.86768 1.93359,1.93555 -1.1e-4,0.20145 -0.0303,0.39998 -0.0938,0.59179 v 0.004 c 2.69794,-0.12321 5.39646,-0.24032 8.13477,-0.34766 -0.0956,-0.23281 -0.14491,-0.4825 -0.14454,-0.73437 9.9e-4,-1.06103 0.85698,-1.92295 1.91797,-1.93164 z m -81.05469,23.68945 c 0.004,-4e-5 0.008,-4e-5 0.0117,0 1.06708,8e-5 1.93243,0.86453 1.9336,1.93164 0.001,1.06859 -0.86501,1.93547 -1.9336,1.93555 -1.06862,-8e-5 -1.93457,-0.86696 -1.93359,-1.93555 9.8e-4,-1.06257 0.85935,-1.92514 1.92187,-1.93164 z m -9.1875,1.44922 h 0.0117 c 1.06783,1.1e-4 1.93352,0.86576 1.9336,1.93359 -8e-5,1.06787 -0.86577,1.93352 -1.9336,1.9336 -1.06786,-8e-5 -1.93351,-0.86573 -1.93359,-1.9336 8e-5,-1.06329 0.85859,-1.92705 1.92187,-1.93359 z m -4.01171,2.06445 2.29687,2.29102 c -0.18011,0.0595 -0.37027,0.0996 -0.57031,0.0996 -1.00857,9.1e-4 -1.8261,-0.81764 -1.82617,-1.82617 1e-5,-0.19881 0.0408,-0.38527 0.0996,-0.56446 z m -0.49805,2.60938 h 0.002 0.0117 c 1.06783,1.1e-4 1.93353,0.86572 1.93359,1.93359 -6e-5,1.06787 -0.86572,1.93348 -1.93359,1.9336 -1.06862,9.8e-4 -1.93543,-0.86497 -1.93555,-1.9336 1.2e-4,-1.06339 0.85874,-1.92705 1.92188,-1.93359 z m 8.70117,0 h 0.0117 c 1.06787,1.1e-4 1.93352,0.86572 1.93359,1.93359 -7e-5,1.06787 -0.86572,1.93348 -1.93359,1.9336 -1.06783,-1.2e-4 -1.93352,-0.86573 -1.93359,-1.9336 7e-5,-1.06329 0.85861,-1.92705 1.92187,-1.93359 z m -3.47265,2.10937 2.57812,2.57032 c -0.33283,0.35391 -0.80195,0.57806 -1.32617,0.57812 -1.00853,-1.1e-4 -1.82708,-0.8176 -1.82617,-1.82617 2e-5,-0.52176 0.22285,-0.98956 0.57422,-1.32227 z m 8.46874,0.79102 c 0.004,-4e-5 0.008,-4e-5 0.0117,0 1.06783,7e-5 1.93352,0.86576 1.9336,1.93359 -8e-5,1.06787 -0.86577,1.93352 -1.9336,1.9336 -1.06786,-8e-5 -1.93351,-0.86573 -1.93359,-1.9336 8e-5,-1.06329 0.85859,-1.92705 1.92187,-1.93359 z m -9.1875,2.90039 h 0.0117 c 1.06783,1.1e-4 1.93352,0.86573 1.9336,1.93359 0.001,1.06863 -0.86497,1.93548 -1.9336,1.93555 -0.51284,-4e-5 -0.97619,-0.20351 -1.32226,-0.5293 -0.23096,0.74257 -0.91565,1.28507 -1.73438,1.28516 -1.00713,-1.1e-4 -1.82507,-0.81517 -1.82617,-1.82227 -9.8e-4,-1.00359 0.8092,-1.81895 1.8125,-1.82617 h 0.002 0.0117 c 0.46028,4e-5 0.87641,0.17604 1.19727,0.45703 0.22078,-0.81938 0.95877,-1.42812 1.84765,-1.43359 z m 5.32813,0.9043 1.89648,1.89062 c -0.0272,0.001 -0.0526,0.008 -0.0801,0.008 -1.00857,-7e-5 -1.82513,-0.8176 -1.82422,-1.82617 2e-5,-0.0247 0.007,-0.0478 0.008,-0.0723 z m -10.64453,4.57422 h 0.002 0.0117 c 1.06862,1.1e-4 1.93458,0.86692 1.93359,1.93554 -9.8e-4,1.06708 -0.86648,1.93153 -1.93359,1.93164 -0.52201,-5e-5 -0.9939,-0.20863 -1.3418,-0.54492 -0.30973,0.24041 -0.69482,0.38905 -1.11718,0.38867 -1.00785,-9.4e-4 -1.82321,-0.81832 -1.82227,-1.82617 9.4e-4,-1.00148 0.80936,-1.81598 1.81055,-1.82422 h 0.002 0.01 c 0.44994,-4.2e-4 0.85704,0.1676 1.17578,0.4375 0.33862,-0.30249 0.78015,-0.49455 1.26953,-0.49804 z m 5.64062,4.51171 h 0.002 0.01 c 1.06942,-9.8e-4 1.93653,0.86617 1.93555,1.93555 -1.1e-4,1.06862 -0.86692,1.93458 -1.93555,1.93359 -1.06707,-9.7e-4 -1.93152,-0.86648 -1.93164,-1.93359 -9.8e-4,-1.06339 0.85679,-1.92795 1.91992,-1.93555 z m -10.63672,0.32422 h 0.002 0.0117 c 1.06786,-9.8e-4 1.93437,0.86381 1.93554,1.93164 0.001,1.06938 -0.86616,1.93653 -1.93554,1.93555 -1.06787,-10e-4 -1.93263,-0.86768 -1.93164,-1.93555 9.8e-4,-1.06112 0.85714,-1.92298 1.91796,-1.93164 z m 6.64454,0.54883 h 0.002 0.0117 c 1.00857,-9.4e-4 1.82609,0.81565 1.82617,1.82422 -8e-5,1.00857 -0.8176,1.82712 -1.82617,1.82617 -1.00789,-7e-5 -1.82411,-0.81836 -1.82422,-1.82617 7e-5,-1.00291 0.808,-1.81699 1.81055,-1.82422 z m -4.86524,4.41016 h 0.002 0.01 c 0.69228,-6.3e-4 1.28797,0.38764 1.59766,0.95508 0.28362,-0.16709 0.61025,-0.27092 0.96289,-0.27344 h 0.002 0.0117 c 1.06862,-9.8e-4 1.93547,0.86497 1.93555,1.93359 -8e-5,1.06863 -0.86693,1.93458 -1.93555,1.9336 -0.77152,-6e-5 -1.43194,-0.45392 -1.74219,-1.10743 -0.25039,0.12883 -0.53092,0.20733 -0.83203,0.20703 -1.00717,-8.7e-4 -1.82418,-0.81716 -1.82422,-1.82421 0,-1.00288 0.80991,-1.81697 1.8125,-1.82422 z m -3.80078,4.76758 h 0.0117 c 0.53299,10e-6 1.00832,0.23289 1.3418,0.59765 1.00907,0.0649 1.81047,0.89618 1.81054,1.92188 -7e-5,1.06862 -0.86696,1.93461 -1.93554,1.93359 -0.66146,-6.1e-4 -1.24367,-0.33474 -1.5918,-0.8418 -0.82835,-0.17338 -1.452,-0.90743 -1.45117,-1.78711 9e-4,-1.00278 0.81167,-1.81805 1.81445,-1.82421 z m 90.9707,27.17578 h 0.002 0.0117 c 1.24584,1.1e-4 2.25574,1.01005 2.25586,2.25586 -1.2e-4,1.24584 -1.01002,2.25578 -2.25586,2.25586 -1.24581,-8e-5 -2.25575,-1.01002 -2.25586,-2.25586 7e-5,-1.24048 1.00167,-2.24823 2.24218,-2.25586 z m 10.79883,0 h 0.002 0.0117 c 1.24585,1.1e-4 2.25579,1.01005 2.25586,2.25586 -7e-5,1.24584 -1.01001,2.25578 -2.25586,2.25586 -1.2458,-8e-5 -2.25578,-1.01002 -2.25586,-2.25586 8e-5,-1.24062 1.00187,-2.24826 2.24219,-2.25586 z m 10.3125,0 h 0.002 0.0117 c 1.24506,9.8e-4 2.2538,1.0108 2.25391,2.25586 -1.1e-4,1.24509 -1.00885,2.25468 -2.25391,2.25586 -1.24584,-8e-5 -2.25574,-1.01002 -2.25586,-2.25586 8e-5,-1.24048 1.00171,-2.24823 2.24219,-2.25586 z m 9.99024,0 h 0.002 0.0117 c 1.24656,-9.9e-4 2.2577,1.00929 2.25781,2.25586 -1.1e-4,1.2466 -1.01121,2.25684 -2.25781,2.25586 -1.24509,-9.9e-4 -2.25379,-1.01077 -2.25391,-2.25586 8e-5,-1.23982 1.00063,-2.24717 2.24024,-2.25586 z m 11.99218,69.77148 29.22071,29.14063 29.2207,-29.14063 z"
       transform="scale(0.26458333)"
       inkscape:export-xdpi="300"
       inkscape:export-ydpi="300" />
    <text
       xml:space="preserve"
       style="font-style:normal;font-weight:normal;font-size:10.1572px;line-height:1.25;font-family:sans-serif;letter-spacing:-1.01572px;fill:#000000;fill-opacity:1;stroke:none;stroke-width:0.264583;"
       x="115.38919"
       y="243.34541"
       id="text7953"
       transform="scale(0.95973977,1.0419491)"
       inkscape:export-xdpi="300"
       inkscape:export-ydpi="300"><tspan
         sodipodi:role="line"
         id="tspan7951"
         x="115.38919"
         y="243.34541"
         style="font-style:normal;font-variant:normal;font-weight:bold;font-stretch:normal;font-family:'Gill Sans MT';-inkscape-font-specification:'Gill Sans MT Bold';stroke-width:0.264583;fill:#000000;fill-opacity:1;"><tspan
   style="letter-spacing:-0.661458px;fill:#000000;fill-opacity:1;"
   id="tspan7955">RHODES ISLAND</tspan><tspan
   style="letter-spacing:-0.727604px;fill:#000000;fill-opacity:1;"
   id="tspan7965">-ELITE</tspan> OP</tspan></text>
  </g>
  <g
     inkscape:label="Layer 1"
     inkscape:groupmode="layer"
     id="layer1"
     style="display:none;opacity:0.357616"
     sodipodi:insensitive="true" />
</svg>
