<?xml version="1.0" encoding="UTF-8" standalone="no"?>
<svg
   xmlns:dc="http://purl.org/dc/elements/1.1/"
   xmlns:cc="http://creativecommons.org/ns#"
   xmlns:rdf="http://www.w3.org/1999/02/22-rdf-syntax-ns#"
   xmlns:svg="http://www.w3.org/2000/svg"
   xmlns="http://www.w3.org/2000/svg"
   xmlns:xlink="http://www.w3.org/1999/xlink"
   xmlns:sodipodi="http://sodipodi.sourceforge.net/DTD/sodipodi-0.dtd"
   xmlns:inkscape="http://www.inkscape.org/namespaces/inkscape"
   inkscape:export-ydpi="300"
   inkscape:export-xdpi="300"
   inkscape:export-filename="D:\Titipan\Projects\Codes\Rhodes Wiki Indo\Icon Assets\Lee_B.png"
   width="1280"
   height="1280"
   viewBox="0 0 338.66666 338.66668"
   version="1.1"
   id="svg8"
   inkscape:version="1.0.2 (e86c870879, 2021-01-15, custom)"
   sodipodi:docname="Rim_Z.svg">
  <defs
     id="defs2">
    <pattern
       inkscape:collect="always"
       xlink:href="#pattern4166"
       id="pattern4174"
       patternTransform="translate(-51.833686,-17.277895)" />
    <inkscape:path-effect
       end_linecap_type="zerowidth"
       scale_width="1"
       miter_limit="4"
       linejoin_type="extrp_arc"
       start_linecap_type="zerowidth"
       interpolator_beta="0.2"
       interpolator_type="CubicBezierJohan"
       sort_points="true"
       offset_points="0,3.40217"
       lpeversion="1"
       is_visible="true"
       id="path-effect892"
       effect="powerstroke" />
    <inkscape:path-effect
       end_linecap_type="zerowidth"
       scale_width="1"
       miter_limit="4"
       linejoin_type="extrp_arc"
       start_linecap_type="zerowidth"
       interpolator_beta="0.2"
       interpolator_type="CubicBezierJohan"
       sort_points="true"
       offset_points="0,3.40217"
       lpeversion="1"
       is_visible="true"
       id="path-effect887"
       effect="powerstroke" />
    <inkscape:path-effect
       end_linecap_type="zerowidth"
       scale_width="1"
       miter_limit="4"
       linejoin_type="extrp_arc"
       start_linecap_type="zerowidth"
       interpolator_beta="0.2"
       interpolator_type="CubicBezierJohan"
       sort_points="true"
       offset_points="2.7941224,-3.4021738 | 2.7941224,-3.4021738"
       lpeversion="1"
       is_visible="true"
       id="path-effect882"
       effect="powerstroke" />
    <inkscape:path-effect
       end_linecap_type="zerowidth"
       scale_width="1"
       miter_limit="4"
       linejoin_type="extrp_arc"
       start_linecap_type="zerowidth"
       interpolator_beta="0.2"
       interpolator_type="CubicBezierJohan"
       sort_points="true"
       offset_points="0,3.01003"
       lpeversion="1"
       is_visible="true"
       id="path-effect877"
       effect="powerstroke" />
    <inkscape:path-effect
       end_linecap_type="zerowidth"
       scale_width="1"
       miter_limit="4"
       linejoin_type="extrp_arc"
       start_linecap_type="zerowidth"
       interpolator_beta="0.2"
       interpolator_type="CubicBezierJohan"
       sort_points="true"
       offset_points="0,3.01003"
       lpeversion="1"
       is_visible="true"
       id="path-effect872"
       effect="powerstroke" />
    <inkscape:path-effect
       end_linecap_type="zerowidth"
       scale_width="1"
       miter_limit="4"
       linejoin_type="extrp_arc"
       start_linecap_type="zerowidth"
       interpolator_beta="0.2"
       interpolator_type="CubicBezierJohan"
       sort_points="true"
       offset_points="11.631982,3.0100329"
       lpeversion="1"
       is_visible="true"
       id="path-effect868"
       effect="powerstroke" />
    <inkscape:path-effect
       end_linecap_type="zerowidth"
       scale_width="1"
       miter_limit="4"
       linejoin_type="extrp_arc"
       start_linecap_type="zerowidth"
       interpolator_beta="0.2"
       interpolator_type="CubicBezierJohan"
       sort_points="true"
       offset_points="156.61386,0.938298"
       lpeversion="1"
       is_visible="true"
       id="path-effect864"
       effect="powerstroke" />
    <pattern
       patternUnits="userSpaceOnUse"
       width="34.555802"
       height="34.555802"
       patternTransform="translate(697.97451,522.68951)"
       id="pattern4166">
      <circle
         r="5.0119109"
         cy="17.277901"
         cx="5.0119109"
         id="path4156"
         style="opacity:1;fill:#000000;fill-opacity:1;stroke:none;stroke-width:2.83465;stroke-miterlimit:4;stroke-dasharray:none;stroke-opacity:1" />
      <circle
         style="opacity:1;fill:#000000;fill-opacity:1;stroke:none;stroke-width:2.83465;stroke-miterlimit:4;stroke-dasharray:none;stroke-opacity:1"
         id="circle4160"
         cx="29.543892"
         cy="17.277901"
         r="5.0119109" />
      <circle
         style="opacity:1;fill:#000000;fill-opacity:1;stroke:none;stroke-width:2.83465;stroke-miterlimit:4;stroke-dasharray:none;stroke-opacity:1"
         id="circle4162"
         cx="17.277901"
         cy="29.543892"
         r="5.0119109" />
      <circle
         r="5.0119109"
         cy="5.0119109"
         cx="17.277901"
         id="circle4164"
         style="opacity:1;fill:#000000;fill-opacity:1;stroke:none;stroke-width:2.83465;stroke-miterlimit:4;stroke-dasharray:none;stroke-opacity:1" />
    </pattern>
    <pattern
       patternUnits="userSpaceOnUse"
       width="48.869282"
       height="48.869282"
       patternTransform="translate(690.81773,515.53278)"
       id="pattern4176">
      <rect
         id="rect4172"
         y="-17.277901"
         x="-51.833702"
         height="34.555801"
         width="34.555801"
         transform="rotate(-135)"
         style="display:inline;fill:url(#pattern4174);stroke:none;stroke-width:0.999999" />
    </pattern>
  </defs>
  <sodipodi:namedview
     inkscape:snap-bbox-midpoints="false"
     inkscape:snap-bbox="false"
     inkscape:snap-midpoints="true"
     inkscape:guide-bbox="true"
     showguides="true"
     inkscape:snap-global="false"
     id="base"
     pagecolor="#910000"
     bordercolor="#666666"
     borderopacity="1.0"
     inkscape:pageopacity="0"
     inkscape:pageshadow="2"
     inkscape:zoom="0.61422825"
     inkscape:cx="513.56096"
     inkscape:cy="686.80484"
     inkscape:document-units="mm"
     inkscape:current-layer="layer1"
     inkscape:document-rotation="0"
     showgrid="false"
     units="px"
     inkscape:pagecheckerboard="false">
    <sodipodi:guide
       position="121.90433,208.14719"
       orientation="0,-1"
       id="guide41" />
    <sodipodi:guide
       position="72.797991,134.91845"
       orientation="0,-1"
       id="guide43" />
    <sodipodi:guide
       position="258.34673,143.10283"
       orientation="0,-1"
       id="guide50" />
  </sodipodi:namedview>
  <metadata
     id="metadata5">
    <rdf:RDF>
      <cc:Work
         rdf:about="">
        <dc:format>image/svg+xml</dc:format>
        <dc:type
           rdf:resource="http://purl.org/dc/dcmitype/StillImage" />
        <dc:title></dc:title>
      </cc:Work>
    </rdf:RDF>
  </metadata>
  <g
     style="display:inline"
     inkscape:groupmode="layer"
     id="layer3"
     inkscape:label="Objects">
    <path
       id="path45"
       style="fill:#000000;stroke-width:66.1417;stroke-linecap:round;stroke-linejoin:round;fill-opacity:1"
       transform="scale(0.26458333)"
       d="m 520.57227,493.30273 -76.11133,184.78321 111.57422,91.98633 h 52.04492 v -43.65821 l -32.47461,-28.20508 5.18164,0.57618 -2.87891,-4.60352 1.72657,-4.0293 28.44531,25.32618 V 493.30273 Z M 510.5625,595.75195 c 0,0 1.72662,2.87815 5.75586,8.0586 4.02924,5.18044 6.33118,16.69347 7.48242,24.75195 1.15121,8.05848 10.36133,23.59961 10.36133,23.59961 0,0 -15.54172,-15.54168 -24.17578,-24.17578 -8.63411,-8.63407 -7.48242,-11.51172 -7.48242,-11.51172 z M 275.14202,770.07202 460.74078,493.30198 h 51.28388 L 416.78317,722.85831 293.05067,770.07202 499.81422,523.42107 286.53843,770.07202 Z"
       inkscape:export-xdpi="300"
       inkscape:export-ydpi="300" />
    <path
       id="path52"
       style="fill:#000000;stroke-width:66.1417;stroke-linecap:round;stroke-linejoin:round;fill-opacity:1"
       d="m 615.89844,493.30273 v 185.91211 h 41.44336 v -74.82812 c 0,0 16.71856,-4.2255 25.32617,5.75586 8.60761,9.98135 2.57032,41.46724 4.0293,52.95508 1.45897,11.48783 2.8789,16.11718 2.8789,16.11718 h 88.06641 V 493.30273 h -43.16992 v 173.82422 c -10.152,-23.78789 8.59754,-57.75756 -25.32618,-80.58398 0,0 22.44922,-3.4668 22.44922,-44.89844 0,-48.3507 -41.44521,-48.3418 -73.10351,-48.3418 z m 167.50195,0 v 185.91211 h 40.29102 l -3.45313,-141.02343 28.20508,141.02343 h 33.38476 L 912.33594,539.3418 907.1543,679.21484 h 40.29297 V 493.30273 H 889.88672 L 866.28711,614.74805 842.11133,493.30273 Z m -118.50781,32.43165 c 11.56761,-0.0664 22.56836,1.70675 22.56836,22.50585 0,25.5989 -16.88512,22.80079 -30.53906,22.80079 v -45.17774 c 2.60159,0 5.30125,-0.11358 7.9707,-0.1289 z M 858.0293,683.24414 c -6.88946,0 -12.93547,4.2296 -16.49414,10.67969 v -8.30664 h -48.16993 -20.72265 v 66.55664 H 751.625 v -66.55664 h -19.42773 v 66.55664 h -20.46094 v -66.55664 h -19.42578 v 84.45508 h 19.42578 20.72265 19.16602 26.01172 15.72851 v -68.1211 h 12.48243 v 68.1211 h 19.2832 v -68.1211 h 13.56641 c -0.33209,1.75866 -0.52539,3.58391 -0.52539,5.46875 v 39.7168 c 0,13.3932 8.85586,24.17578 19.85742,24.17578 h 14.96679 c 11.00156,0 19.85743,-10.78258 19.85743,-24.17578 v -39.7168 c 0,-13.3932 -8.85587,-24.17578 -19.85743,-24.17578 z m -242.70703,2.37305 v 84.45508 h 20.43359 c 17.55598,0 32.81055,-5.3e-4 32.81055,-23.51172 0,-18.995 -11.22461,-21.87305 -11.22461,-21.87305 0,0 9.49804,-3.74198 9.49804,-18.41992 0,-20.65195 -14.67824,-20.65039 -33.09765,-20.65039 z m 53.53125,0 v 84.45508 h 20.72265 v -84.45508 z m 225.0625,0 v 84.45508 h 18.77929 l -2.59179,-49.41407 14.89453,49.41407 h 21.51562 V 685.61719 H 930.4668 v 48.56836 l -15.25391,-48.56836 z m -258.73438,13.16797 c 6.58024,0 11.95508,1.11662 11.95508,9.40234 0,8.28572 -5.6517,9.88086 -11.95508,9.88086 z m 230.33008,0.28906 c 4.4644,0 8.05859,3.59419 8.05859,8.05859 v 40.29102 c 0,4.4644 -3.59419,8.05859 -8.05859,8.05859 -4.4644,0 -8.0586,-3.59419 -8.0586,-8.05859 v -40.29102 c 0,-4.4644 3.5942,-8.05859 8.0586,-8.05859 z m -230.33008,33.67383 c 6.86372,0 13.68164,1.41384 13.68164,10.64648 0,9.23265 -6.53014,10.64844 -13.68164,10.64844 z m 356.71289,5.88281 c -4.98591,0 -6.20703,6.20703 -6.20703,6.20703 v 18.41602 h -6.41016 v -24.11524 h -8.75 v 3.76563 c 0,0 -0.50925,-3.76563 -11.19336,-3.76563 h -6.51171 v 30.9336 h 6.00195 v -12.3125 h 4.58008 c 4.98595,0 7.22461,-3.86719 7.22461,-3.86719 v 16.17969 h 16.89062 v -2.95118 c 0,0 2.7468,2.95118 5.49414,2.95118 h 6.41016 c 5.08767,0 5.90237,-4.47657 5.90237,-4.47657 v -7.63281 h -7.42776 v 3.96875 c 0,1.40929 -1.13368,2.54492 -2.54297,2.54492 -1.40929,0 -2.54492,-1.13563 -2.54492,-2.54492 V 747.2793 c 0,-1.40929 1.13563,-2.54297 2.54492,-2.54297 1.40929,0 2.54297,1.13368 2.54297,2.54297 v 2.64453 h 7.32036 c -0.048,-0.39956 -0.096,-1.51787 -0.096,-4.57813 0,-6.41038 -6.7148,-6.71484 -6.7148,-6.71484 z m -32.25586,6.41016 c 2.57866,0 4.98633,-0.15045 4.98633,3.76367 0,3.91419 -2.5101,3.76562 -4.98633,3.76562 z"
       transform="scale(0.26458333)"
       inkscape:export-xdpi="300"
       inkscape:export-ydpi="300" />
  </g>
  <g
     inkscape:label="Layer 1"
     inkscape:groupmode="layer"
     id="layer1"
     style="display:none;opacity:0.357616"
     sodipodi:insensitive="true" />
</svg>
