<?xml version="1.0" encoding="UTF-8" standalone="no"?>
<svg
   xmlns:dc="http://purl.org/dc/elements/1.1/"
   xmlns:cc="http://creativecommons.org/ns#"
   xmlns:rdf="http://www.w3.org/1999/02/22-rdf-syntax-ns#"
   xmlns:svg="http://www.w3.org/2000/svg"
   xmlns="http://www.w3.org/2000/svg"
   xmlns:sodipodi="http://sodipodi.sourceforge.net/DTD/sodipodi-0.dtd"
   xmlns:inkscape="http://www.inkscape.org/namespaces/inkscape"
   inkscape:export-ydpi="250.2"
   inkscape:export-xdpi="250.2"
   inkscape:export-filename="D:\Titipan\Projects\Pixiv stuff\SVG\Arknights_CN.png"
   width="1280"
   height="1280"
   viewBox="0 0 338.66666 338.66668"
   version="1.1"
   id="svg8"
   inkscape:version="1.0 (4035a4fb49, 2020-05-01)"
   sodipodi:docname="Arknights.svg">
  <defs
     id="defs2">
    <inkscape:path-effect
       end_linecap_type="zerowidth"
       scale_width="1"
       miter_limit="4"
       linejoin_type="extrp_arc"
       start_linecap_type="zerowidth"
       interpolator_beta="0.2"
       interpolator_type="CubicBezierJohan"
       sort_points="true"
       offset_points="0,3.40217"
       lpeversion="1"
       is_visible="true"
       id="path-effect892"
       effect="powerstroke" />
    <inkscape:path-effect
       end_linecap_type="zerowidth"
       scale_width="1"
       miter_limit="4"
       linejoin_type="extrp_arc"
       start_linecap_type="zerowidth"
       interpolator_beta="0.2"
       interpolator_type="CubicBezierJohan"
       sort_points="true"
       offset_points="0,3.40217"
       lpeversion="1"
       is_visible="true"
       id="path-effect887"
       effect="powerstroke" />
    <inkscape:path-effect
       end_linecap_type="zerowidth"
       scale_width="1"
       miter_limit="4"
       linejoin_type="extrp_arc"
       start_linecap_type="zerowidth"
       interpolator_beta="0.2"
       interpolator_type="CubicBezierJohan"
       sort_points="true"
       offset_points="2.7941224,-3.4021738 | 2.7941224,-3.4021738"
       lpeversion="1"
       is_visible="true"
       id="path-effect882"
       effect="powerstroke" />
    <inkscape:path-effect
       end_linecap_type="zerowidth"
       scale_width="1"
       miter_limit="4"
       linejoin_type="extrp_arc"
       start_linecap_type="zerowidth"
       interpolator_beta="0.2"
       interpolator_type="CubicBezierJohan"
       sort_points="true"
       offset_points="0,3.01003"
       lpeversion="1"
       is_visible="true"
       id="path-effect877"
       effect="powerstroke" />
    <inkscape:path-effect
       end_linecap_type="zerowidth"
       scale_width="1"
       miter_limit="4"
       linejoin_type="extrp_arc"
       start_linecap_type="zerowidth"
       interpolator_beta="0.2"
       interpolator_type="CubicBezierJohan"
       sort_points="true"
       offset_points="0,3.01003"
       lpeversion="1"
       is_visible="true"
       id="path-effect872"
       effect="powerstroke" />
    <inkscape:path-effect
       end_linecap_type="zerowidth"
       scale_width="1"
       miter_limit="4"
       linejoin_type="extrp_arc"
       start_linecap_type="zerowidth"
       interpolator_beta="0.2"
       interpolator_type="CubicBezierJohan"
       sort_points="true"
       offset_points="11.631982,3.0100329"
       lpeversion="1"
       is_visible="true"
       id="path-effect868"
       effect="powerstroke" />
    <inkscape:path-effect
       end_linecap_type="zerowidth"
       scale_width="1"
       miter_limit="4"
       linejoin_type="extrp_arc"
       start_linecap_type="zerowidth"
       interpolator_beta="0.2"
       interpolator_type="CubicBezierJohan"
       sort_points="true"
       offset_points="156.61386,0.938298"
       lpeversion="1"
       is_visible="true"
       id="path-effect864"
       effect="powerstroke" />
    <filter
       id="filter3165"
       inkscape:label="Invert"
       style="color-interpolation-filters:sRGB;">
      <feColorMatrix
         id="feColorMatrix3161"
         result="color1"
         values="180"
         type="hueRotate" />
      <feColorMatrix
         id="feColorMatrix3163"
         result="fbSourceGraphic"
         values="-1 0 0 0 1 0 -1 0 0 1 0 0 -1 0 1 -0.21 -0.72 -0.07 2 0 " />
      <feColorMatrix
         id="feColorMatrix3167"
         values="0 0 0 -1 0 0 0 0 -1 0 0 0 0 -1 0 0 0 0 1 0"
         in="fbSourceGraphic"
         result="fbSourceGraphicAlpha" />
      <feColorMatrix
         in="fbSourceGraphic"
         result="color1"
         values="180"
         type="hueRotate"
         id="feColorMatrix3169" />
      <feColorMatrix
         result="fbSourceGraphic"
         values="-1 0 0 0 1 0 -1 0 0 1 0 0 -1 0 1 -0.21 -0.72 -0.07 2 0 "
         id="feColorMatrix3171" />
      <feColorMatrix
         id="feColorMatrix3173"
         values="0 0 0 -1 0 0 0 0 -1 0 0 0 0 -1 0 0 0 0 1 0"
         in="fbSourceGraphic"
         result="fbSourceGraphicAlpha" />
      <feColorMatrix
         in="fbSourceGraphic"
         result="color1"
         values="180"
         type="hueRotate"
         id="feColorMatrix3175" />
      <feColorMatrix
         result="color2"
         values="-1 0 0 0 1 0 -1 0 0 1 0 0 -1 0 1 -0.21 -0.72 -0.07 2 0 "
         id="feColorMatrix3177" />
    </filter>
    <filter
       id="filter3200"
       inkscape:label="Invert"
       style="color-interpolation-filters:sRGB;">
      <feColorMatrix
         id="feColorMatrix3196"
         result="color1"
         values="180"
         type="hueRotate" />
      <feColorMatrix
         id="feColorMatrix3198"
         result="color2"
         values="-1 0 0 0 1 0 -1 0 0 1 0 0 -1 0 1 -0.21 -0.72 -0.07 2 0 " />
    </filter>
  </defs>
  <sodipodi:namedview
     inkscape:snap-bbox-midpoints="false"
     inkscape:snap-bbox="false"
     inkscape:snap-midpoints="true"
     inkscape:guide-bbox="true"
     showguides="true"
     inkscape:snap-global="false"
     id="base"
     pagecolor="#910000"
     bordercolor="#666666"
     borderopacity="1.0"
     inkscape:pageopacity="0"
     inkscape:pageshadow="2"
     inkscape:zoom="0.49497475"
     inkscape:cx="241.27086"
     inkscape:cy="616.21299"
     inkscape:document-units="mm"
     inkscape:current-layer="layer3"
     inkscape:document-rotation="0"
     showgrid="false"
     units="px"
     inkscape:pagecheckerboard="false" />
  <metadata
     id="metadata5">
    <rdf:RDF>
      <cc:Work
         rdf:about="">
        <dc:format>image/svg+xml</dc:format>
        <dc:type
           rdf:resource="http://purl.org/dc/dcmitype/StillImage" />
        <dc:title></dc:title>
      </cc:Work>
    </rdf:RDF>
  </metadata>
  <g
     style="display:inline"
     inkscape:groupmode="layer"
     id="layer3"
     inkscape:label="Logo">
    <path
       inkscape:label="EN"
       d="m 195.19159,195.16825 c 0,0 1.37547,2.06321 1.67021,3.6352 0.29475,1.57198 0.49123,3.53695 1.47372,3.24221 0.98249,-0.29475 2.25972,-1.08074 1.76848,-2.55448 -0.49125,-1.47374 -0.78599,-1.86672 -1.47374,-2.35797 -0.68774,-0.49124 -3.43867,-1.96496 -3.43867,-1.96496 z m 0,-8.94802 c 0,0 1.37547,2.06321 1.67021,3.6352 0.29475,1.57198 0.49123,3.53695 1.47372,3.24221 0.98249,-0.29475 2.25972,-1.08074 1.76848,-2.55447 -0.49125,-1.47374 -0.78599,-1.86674 -1.47374,-2.35797 -0.68774,-0.49125 -3.43867,-1.96497 -3.43867,-1.96497 z m 10.70907,6.58266 v 1.08074 l 8.8424,2.8492 v -1.17899 z m -12.18283,-8.84238 -2.35797,-2.94746 v 10.02136 c 0,0 0.19651,0.98249 -0.68774,0.786 -0.88424,-0.19651 -1.31873,-0.786 -1.31873,-0.786 l 0.0983,0.786 1.22047,0.78599 c 0,0 0.9825,0 0.78599,1.37547 -0.19649,1.37548 -0.0983,5.69843 -1.17897,7.95815 -1.08072,2.25971 -1.27723,3.04569 -1.27723,3.04569 0,0 2.75095,-1.57198 3.34044,-2.55446 0.5895,-0.98247 1.47374,-3.34044 1.67024,-4.22469 0.1965,-0.88424 0.0983,-3.83169 0.0983,-3.83169 0,0 0,-0.98249 1.17898,-0.58949 1.179,0.393 6.28792,2.25971 6.28792,2.25971 0,0 0.39299,-0.1965 0.29474,1.47374 -0.0983,1.67021 0,7.27039 0,7.27039 0,0 0.29475,0.68774 -0.98248,0.49125 -1.27724,-0.19651 -3.14395,-1.37549 -3.14395,-1.37549 0,0 2.75095,2.65272 2.8492,3.4387 0.0983,0.786 0,1.27725 0,1.27725 l 4.51945,-5.50194 v -16.21102 l 0.29475,-0.58949 -3.92995,0.39298 0.49123,8.74413 -6.97565,-2.2597 c 0,0 -0.88424,-0.19651 -0.88424,-1.37548 0,-1.179 0.19651,-6.38617 0.19651,-6.38617 0,0 0.29473,-0.68775 1.37547,-0.29475 1.08074,0.393 5.30543,1.67022 5.30543,1.67022 v -0.49123 l -4.32294,-1.47373 c 0,0 -0.58949,-0.29475 0.1965,-0.88424 0.786,-0.5895 1.96496,-1.47374 1.96496,-1.47374 0,0 0.88425,-0.68774 -0.0983,-1.17899 -0.98247,-0.49124 -3.6352,-2.25972 -3.6352,-2.25972 l 0.393,4.4212 c 0,0 0.49125,0.29474 -0.49124,0.58949 -0.98249,0.29476 -1.27725,-0.0983 -1.27725,-0.0983 z m -8.68739,16.60402 c 0,0 -0.0983,-1.08074 0.58949,-1.08074 0.68776,0 3.14397,0.0983 3.14397,0.0983 0,0 -0.393,0.29475 -0.29474,1.08073 0.0983,0.786 0,7.07391 0,7.07391 l -5.69844,6.38617 c 0,0 0.49124,-0.5895 0.0983,-1.17899 -0.39299,-0.58951 -3.14395,-3.8317 -3.14395,-3.8317 0,0 3.34044,1.96496 4.12644,1.57198 0.78598,-0.39298 0.88423,-1.76848 0.88423,-1.76848 z m -8.05638,-8.15464 -5.10892,-1.76848 v -1.17898 l 7.17215,2.55447 c 0,0 0.68774,0 0.78598,-0.393 0.0983,-0.393 -1.47374,-6.18966 -1.47374,-6.18966 0,0 2.65273,1.37547 3.43873,2.4562 0.78596,1.08074 1.4737,2.65273 0.58946,3.73346 -0.88422,1.08074 -1.27722,0.9825 -1.27722,0.9825 l 6.87742,2.16146 0.29473,-1.08073 c 0,0 2.10474,1.96496 1.90823,2.25971 -0.19649,0.29474 -9.17862,-3.04571 -9.17862,-3.04571 0,0 -0.78599,0 -0.68774,1.08074 0.0983,1.08072 -0.19651,4.12645 -0.19651,4.12645 l 4.4212,1.57198 -0.0983,0.49123 -3.73345,-1.27723 c 0,0 -0.78598,0 -0.98247,1.27723 -0.19651,1.27725 -1.57199,6.87742 -3.43871,8.25289 -1.86674,1.37549 -4.42118,2.55446 -4.42118,2.55446 0,0 3.73343,-4.61767 4.32292,-9.33361 0.58949,-4.71595 0.786,-9.23538 0.786,-9.23538 z m -20.87003,-16.21122 v 28.78704 l 2.84904,-2.35782 c 0,0 0.78587,-0.68774 1.37535,-0.49125 0.58949,0.19651 1.76855,0.49125 1.76855,0.49125 l 0.18503,-0.69108 -2.05161,-0.58623 c 0,0 -0.68789,0.29467 -0.58965,-0.78606 0.0983,-1.08074 0,-9.43169 0,-9.43169 0,0 0.58945,-0.49131 1.17891,-0.29481 0.58949,0.1965 6.68101,2.2598 6.68101,2.2598 0,0 0.68768,0.19643 0.68768,1.67015 v 7.76153 l -4.97628,-1.33356 v 0.64589 l 2.91327,0.98247 c 0,0 0.88417,1e-4 1.17892,0.78608 0.29474,0.786 0.19641,1.37533 0.19641,1.37533 l 3.92997,-5.30528 v -17.29199 h -3.24229 l -8.44919,-2.35782 z m 3.92424,4.41058 c 0.0323,0.001 0.0669,0.005 0.10367,0.0112 0.58948,0.0983 7.17225,2.2598 7.17225,2.2598 0,0 0.8841,1.9e-4 0.8841,1.37571 0,1.3755 0.0983,7.85992 0.0983,7.85992 0,0 0.29476,0.49095 -0.98246,0.29446 -1.27724,-0.1965 -7.07387,-1.96499 -7.07387,-1.96499 l -0.68767,-0.68767 v -8.64599 c 0,0 -1.6e-4,-0.51808 0.48556,-0.50188 z m -16.3038,0.20743 v 15.52305 c 0,0 -0.29474,4.42144 -1.47372,6.77941 -1.17898,2.35798 -2.06299,4.2244 -2.06299,4.2244 0,0 2.1614,-1.08042 3.63512,-2.75067 1.47374,-1.67023 2.35782,-5.40369 2.35782,-5.40369 0,0 0.0984,-0.7863 0.78608,-0.68805 0.68774,0.0983 2.55424,0.68805 2.55424,0.68805 0,0 0.68804,-1.4e-4 0.68804,1.37534 v 5.40369 c 0,0 0.19629,0.98265 -0.88445,0.58965 -1.08074,-0.393 -3.0455,-1.0809 -3.0455,-1.0809 0,0 2.35776,1.96514 2.55425,2.55464 0.19649,0.58947 0.19643,1.57176 0.19643,1.57176 l 4.22477,-5.3053 v -19.06018 h -2.84907 l -3.73354,-1.17929 z m 3.65681,3.78599 c 0.0889,-0.003 0.18105,0.01 0.27316,0.0455 0.49125,0.19649 2.06339,0.78607 2.06339,0.78607 0,0 0.58927,0.0984 0.58927,1.27731 0,1.17898 -0.0981,5.10889 -0.0981,5.10889 0,0 0.0979,0.0981 -0.68804,-0.0984 -0.78599,-0.19649 -2.84907,-1.08049 -2.84907,-1.08049 V 184.943 c 0,0 0.32423,-0.32418 0.70933,-0.34041 z m 0,7.00279 c 0.0889,-0.003 0.18105,0.01 0.27316,0.0456 0.49125,0.19651 2.06339,0.78608 2.06339,0.78608 0,0 0.58927,0.0984 0.58927,1.27731 0,1.17898 -0.0981,5.10887 -0.0981,5.10887 0,0 0.0979,0.0981 -0.68804,-0.0984 -0.78599,-0.19649 -2.84907,-1.08051 -2.84907,-1.08051 v -5.69851 c 0,0 0.32423,-0.3242 0.70933,-0.34042 z m -13.09037,-13.35327 v 18.47963 l -9.03123,-3.0569 v 1.11167 l 16.5344,5.62709 v -18.4101 l -2.70926,0.41676 -0.83392,-0.62497 -0.0696,0.62497 0.83394,0.62539 v 7.01684 c -0.68134,0.14302 -1.15538,-0.0439 -1.8586,-0.64282 v -7.22508 c 0.49575,-0.63907 0.5309,-0.5458 -2.86579,-3.94248 z m 2.94937,12.19259 c 0.62219,0.093 1.24439,0.0242 1.86658,0.73707 v 6.77903 c -0.78952,0.20541 -1.28476,-0.10384 -1.81746,-0.54041 z M 311.6293,126.68156 c 0,0 -11.30288,2.66202 -8.42739,13.39353 2.87551,10.7315 11.26743,5.97329 16.85476,15.65085 5.58733,9.67755 -1.50489,11.88863 -1.50489,11.88863 0,0 12.34084,-2.59884 9.93229,-11.58766 -2.40854,-8.98882 -17.08716,-13.01946 -18.96162,-20.01502 -1.87447,-6.99557 2.10685,-9.33033 2.10685,-9.33033 z m 3.46126,40.91081 c 0,0 -5.79555,-0.64774 -8.13235,-4.6952 -2.33681,-4.04745 -4.50874,-8.09635 -4.50874,-8.09635 v 11.28668 c 0,0 9.02935,2.85928 10.08277,2.5583 1.05343,-0.30097 2.55832,-1.05343 2.55832,-1.05343 z m -0.301,-40.15835 c 0,0 5.79554,0.64775 8.13235,4.6952 2.3368,4.04745 4.50874,8.09635 4.50874,8.09635 v -11.28668 c 0,0 -9.02935,-2.85928 -10.08278,-2.5583 -1.05342,0.30097 -2.55831,1.05343 -2.55831,1.05343 z m -51.16625,-0.22575 h 32.8066 l 1.05342,12.86682 c 0,0 -2.92518,-7.56082 -6.772,-9.78179 -3.84683,-2.22096 -7.67494,-1.05343 -7.67494,-1.05343 v 37.77274 c 0,0 0.90293,3.16028 -1.50489,5.56809 -2.40782,2.40782 -5.26711,6.17006 -5.26711,6.17006 v -49.51089 c 0,0 -5.04138,-1.42964 -8.42739,1.95637 -3.38599,3.38599 -5.86907,9.02933 -5.86907,9.02933 z m -41.88658,0 h 14.57842 l -0.10638,1.05991 c 0,0 -1.7866,-0.2057 -2.72152,0.72922 -0.93492,0.93492 -1.10931,2.03748 -1.10931,2.03748 v 15.21689 h 16.28099 v -15.42971 c 0,0 0.6684,-0.9031 -0.53205,-1.59619 -1.20044,-0.69305 -2.97952,-0.95769 -2.97952,-0.95769 l 0.10638,-1.05991 h 14.47202 c 0,0 -0.21284,0.84708 -0.95772,1.16632 -0.74488,0.31923 -3.19235,0.63847 -3.19235,2.12823 v 33.51971 c 0,0 1.17053,1.48976 2.02183,1.809 0.85129,0.31924 2.12824,1.48209 2.12824,1.48209 h -14.57842 c 0,0 -0.21283,-0.7372 0.31924,-1.05643 0.53206,-0.31925 2.66028,-0.7449 3.19235,-2.12824 0.53206,-1.38336 0,-15.64254 0,-15.64254 h -16.28099 v 14.68483 c 0,0 0.1153,1.46864 1.21418,2.10303 1.0988,0.6344 1.60571,0.29123 2.08457,0.77009 0.47886,0.47885 0.95771,1.26926 0.95771,1.26926 h -15.00406 c 0,0 0,-1.05643 0.8513,-1.37568 0.85129,-0.31923 2.1463,-0.4152 2.7667,-1.48976 0.62039,-1.07456 0,-33.09407 0,-33.09407 0,0 0.45556,-1.67649 -1.06413,-2.55387 -1.51966,-0.87738 -2.44747,-0.63848 -2.44747,-0.63848 z m -15.42971,22.44867 h 12.02454 v 10.42836 l -2.34106,2.12823 c 0,0 -5.10777,5.95907 -12.23735,5.95907 -7.1296,0 -11.27965,-3.19235 -14.25918,-6.17189 -2.97954,-2.97953 -5.10778,-7.76806 -5.10778,-13.93995 0,-6.17188 2.55389,-12.663 5.21419,-15.32329 2.66029,-2.6603 6.49111,-6.3847 13.51429,-6.3847 7.02318,0 14.89766,6.06547 14.89766,6.06547 v 9.25782 l -1.43657,-1.43657 c 0,0 -0.26602,-5.37378 -3.67121,-7.82125 -3.40516,-2.44747 -5.85263,-3.93725 -9.57705,-3.93725 -3.72441,0 -7.92526,2.61054 -9.36424,7.9809 -1.43899,5.37034 -2.02182,6.27828 -2.02182,11.9181 0,5.63984 3.29877,12.34378 4.36288,13.40789 1.06411,1.06413 3.72441,4.25648 7.236,4.25648 3.5116,0 7.02318,-2.23466 7.02318,-2.23466 l 0.31923,-9.1514 c 0,0 0.10638,-1.38336 -1.48976,-2.66029 -1.59618,-1.27694 -3.29877,-1.59619 -3.29877,-1.59619 z m -39.26594,17.65668 c 0,0 0.42565,-1.26926 1.27694,-1.48209 0.8513,-0.21282 1.38336,0.31924 2.02183,-1.06412 0.63846,-1.38334 0,-32.02994 0,-32.02994 l 7.12958,-8.19371 v 38.52106 c 0,0 0.10638,1.48978 1.17054,2.12824 1.06411,0.63847 2.34106,0.63847 2.55387,1.06413 0.21283,0.42563 0.31923,1.05643 0.31923,1.05643 z m -40.88945,-40.10535 h 9.78178 l 22.12188,28.89389 v -22.12187 c 0,0 -0.45147,-2.1821 -2.33257,-3.53649 -1.88112,-1.35441 -3.98797,-2.10686 -3.98797,-2.10686 l -0.1505,-1.12867 h 14.89841 v 1.12867 c 0,0 -3.68698,0.45147 -4.66515,2.25734 -0.97819,1.80587 -1.65539,3.00978 -1.65539,3.00978 l -0.37621,33.70956 h -2.8593 c 0,0 -27.46425,-37.62227 -28.44242,-38.37473 -0.97818,-0.75243 -1.73062,-0.82768 -1.73062,-0.82768 z m 0.0752,40.10535 c 0,0 5.79383,-2.25736 5.79383,-6.5463 0,-4.28893 0,-14.52219 0,-14.52219 l 1.35441,2.10685 c 0,0 0.75244,0.90293 0.75244,2.25734 0,1.35439 0,9.55604 0,9.55604 0,0 -0.2052,2.33195 1.88112,3.53649 2.08632,1.20455 3.16026,1.35441 3.16026,1.35441 l 1.65637,0.95629 0.0742,1.30107 z m -38.224189,0 c 0,0 0.752445,-1.58017 2.031602,-1.65541 1.279142,-0.0752 3.009778,-0.1505 3.009778,-2.10684 0,-1.95637 0,-32.65611 0,-32.65611 0,0 -0.07533,-1.12868 -1.429655,-1.80587 -1.354391,-0.6772 -3.385993,-0.6772 -3.385993,-0.6772 v -1.20392 h 15.726087 l -0.32112,1.19851 c 0,0 -3.666835,0.23115 -3.666835,2.93994 0,2.7088 0,14.59743 0,14.59743 0,0 3.386015,-1.05341 5.869075,-3.76222 2.48307,-2.7088 9.02934,-10.23325 9.02934,-10.23325 0,0 1.27915,-1.20392 0,-2.55831 -1.27916,-1.35441 -3.38599,-1.12867 -3.38599,-1.12867 v -1.12866 H 124.12 c 0,0 -2.40783,0.82769 -3.76224,2.48306 -1.35439,1.65537 -12.49058,14.14597 -12.49058,14.82316 0,0.67721 10.75996,19.86456 12.18962,20.617 1.42964,0.75244 3.23551,2.25736 3.23551,2.25736 h -10.45902 l -10.83521,-19.33787 c 0,0 -0.30098,-0.75244 -1.20391,-0.75244 -0.902945,0 -0.978178,0.67719 -0.978178,0.67719 v 15.95185 c 0,0 1.354408,1.95635 2.708798,1.95635 1.35441,0 2.40784,1.50492 2.40784,1.50492 z m -37.32121,-39.27766 c 0,0 4.815647,0.30098 4.815647,4.51467 v 46.20013 l 5.267115,-7.07298 c 0,0 1.203911,-0.60196 1.203911,-4.81567 v -35.51539 c 0,0 0.601954,-2.40783 2.407824,-2.25733 1.80587,0.1505 8.728353,-0.75245 8.878852,6.9225 0.150498,7.67493 -6.772001,10.6847 -6.772001,10.6847 l -2.106851,0.1505 -0.752445,1.80587 c 0,0 0.902927,-1.3544 2.106851,1.05341 1.203908,2.40783 9.929188,17.60725 9.929188,17.60725 h 10.236332 c 0,0 0,-0.90294 -1.053426,-1.2039 -1.053425,-0.30098 -1.80587,-0.1505 -2.708797,-1.12868 -0.902943,-0.97817 -10.609472,-18.20916 -10.609472,-18.20916 0,0 9.255066,-3.23551 9.255066,-8.72836 0,-5.49286 -2.106851,-10.83525 -12.866806,-10.83525 H 50.606158 Z m -27.934696,17.89656 5.001352,-8.51294 c 0,0 0.851296,-1.17053 1.383355,0.58527 0.532059,1.7558 4.735322,11.65209 4.735322,11.65209 H 21.629381 l -1.137941,1.97097 h 13.85415 l 4.309675,9.89394 c 0,0 1.436561,2.97954 -0.798089,4.15007 -2.234648,1.17053 -2.500675,1.64938 -2.500675,1.64938 h 15.216882 c 0,0 -1.755795,-1.22373 -2.128234,-1.64938 -0.37244,-0.42565 -17.185502,-38.46365 -17.185502,-38.46365 z m -7.342414,17.1323 c -1.626767,2.17115 -5.5334107,4.3629 -5.5334107,4.3629 H 25.406997 l -1.489763,-1.48978 c 0,0 -2.97953,0.53207 -4.043648,-2.23464 -1.064117,-2.7667 -0.532064,-9.20463 -0.532064,-9.20463 -0.88172,2.91604 -1.847218,5.77674 -3.937231,8.56615 z"
       style="display:none;fill:#000000;fill-opacity:1;stroke:none;stroke-width:3.49999"
       id="path3278" />
    <path
       inkscape:label="CN"
       d="m 128.14599,208.33385 v 7.66118 h 89.38539 v -7.66118 z m 27.94862,1.49948 h 0.1144 l 1.5538,3.71332 c 0.1251,0.29846 0.23812,0.49269 0.33907,0.58267 0.10309,0.0878 0.24574,0.1372 0.42795,0.14814 h 0.15225 c 0.18874,0 0.32371,-0.0615 0.40491,-0.18435 0.0461,-0.0681 0.0691,-0.22936 0.0691,-0.48392 v -2.88374 c 0,-0.28091 -0.0315,-0.45539 -0.093,-0.52342 -0.0856,-0.0965 -0.21287,-0.14484 -0.38187,-0.14485 h -0.16789 v -0.1218 h 1.62622 c 0.47403,0 0.82299,0.0352 1.04684,0.10534 0.22605,0.0681 0.41698,0.19535 0.5728,0.38187 0.15801,0.18435 0.23702,0.40491 0.23702,0.66168 0,0.27433 -0.09,0.51245 -0.26994,0.71435 -0.17776,0.20191 -0.45429,0.34456 -0.82957,0.42796 l 0.92174,1.28056 c 0.21068,0.29409 0.39174,0.4894 0.54317,0.58597 0.15144,0.0965 0.34896,0.15797 0.59255,0.18435 h 0.007 c 0.18435,0 0.31823,-0.0538 0.40161,-0.16131 0.0527,-0.0702 0.079,-0.23916 0.079,-0.50696 v -2.88374 c 0,-0.22605 -0.0142,-0.37638 -0.0428,-0.451 -0.022,-0.0527 -0.0669,-0.0988 -0.13496,-0.13826 -0.0965,-0.0527 -0.19747,-0.079 -0.30286,-0.079 h -0.15802 v -0.1218 h 1.90275 v 0.1218 h -0.15143 c -0.10309,0 -0.20295,0.0253 -0.29957,0.0757 -0.068,0.0351 -0.11522,0.0878 -0.14155,0.15801 -0.0263,0.0702 -0.0395,0.21503 -0.0395,0.43454 v 1.36616 c 0.0439,-0.0417 0.19418,-0.18108 0.451,-0.41808 0.6518,-0.59694 1.04574,-0.99527 1.18181,-1.19498 0.0592,-0.0878 0.0889,-0.16462 0.0889,-0.23043 0,-0.0505 -0.023,-0.0944 -0.0691,-0.13168 -0.0461,-0.0395 -0.12399,-0.0593 -0.23373,-0.0593 h -0.10205 v -0.1218 h 1.63939 v 0.1218 c -0.0965,0.002 -0.1843,0.0153 -0.26335,0.0395 -0.079,0.0241 -0.17556,0.0713 -0.2897,0.14155 -0.11412,0.068 -0.25458,0.17888 -0.42136,0.33249 -0.0483,0.0438 -0.27106,0.2688 -0.66827,0.67484 l -0.68061,0.67814 1.64597,1.6361 c 0.26994,0.26994 0.50038,0.45429 0.69131,0.55305 0.19094,0.0965 0.38188,0.15138 0.5728,0.1646 h 0.0494 c 0.19093,0 0.32591,-0.0571 0.40491,-0.17119 0.0483,-0.0702 0.0724,-0.23039 0.0724,-0.48062 v -3.1043 c -0.12948,-0.15143 -0.22824,-0.25128 -0.29627,-0.29957 -0.0658,-0.0483 -0.1635,-0.0933 -0.29299,-0.13497 -0.0637,-0.0198 -0.16026,-0.0296 -0.28969,-0.0296 v -0.1218 h 1.21144 l 2.72902,3.34791 v -2.57433 c 0,-0.27433 -0.0307,-0.44551 -0.0922,-0.51354 -0.0812,-0.0922 -0.20962,-0.13827 -0.38516,-0.13827 h -0.15472 v -0.1218 h 1.5538 v 0.1218 h -0.15802 c -0.18874,1e-5 -0.32261,0.0571 -0.40162,0.17119 -0.0483,0.0703 -0.0724,0.23049 -0.0724,0.48062 v 3.76269 h -0.11851 l -2.943,-3.5948 v 2.74878 c 0,0.27432 0.0296,0.4455 0.0889,0.51354 0.0833,0.0922 0.21173,0.13826 0.38516,0.13826 h 0.15801 v 0.1218 h -1.44845 -2.12331 v -0.1218 c 0.12729,0 0.21837,-0.0208 0.27324,-0.0625 0.057,-0.0438 0.0848,-0.0921 0.0848,-0.14484 0,-0.0527 -0.0109,-0.0998 -0.0329,-0.14156 -0.0198,-0.0417 -0.0878,-0.11963 -0.2041,-0.23372 l -1.54063,-1.52418 v 1.43858 c 0,0.22605 0.0142,0.37529 0.0428,0.44771 0.022,0.0549 0.0681,0.10206 0.13827,0.14155 0.0944,0.0527 0.19424,0.079 0.29957,0.079 h 0.15142 v 0.1218 h -1.75049 -1.19168 l -1.51101,-2.08709 c -0.11192,0.004 -0.203,0.007 -0.27323,0.007 h -0.0922 c -0.0329,-0.002 -0.0677,-0.004 -0.10288,-0.007 v 1.29702 c 0,0.28091 0.0315,0.45539 0.093,0.52342 0.0833,0.0965 0.20843,0.14485 0.37528,0.14485 h 0.17448 v 0.1218 h -1.89699 -1.76119 v -0.1218 c 0.17777,-0.009 0.29737,-0.0381 0.35883,-0.0889 0.0637,-0.0504 0.0963,-0.11189 0.0963,-0.18435 0,-0.0965 -0.0439,-0.24905 -0.13168,-0.45758 l -0.26993,-0.64193 h -1.72827 l -0.30287,0.70447 c -0.0746,0.17338 -0.11192,0.30287 -0.11192,0.38845 0,0.0681 0.031,0.12841 0.0946,0.18106 0.0658,0.0504 0.20629,0.0834 0.42137,0.0988 v 0.1218 h -1.40484 v -0.1218 c 0.18655,-0.0329 0.30726,-0.0757 0.36212,-0.12839 0.11193,-0.10532 0.23592,-0.31929 0.37199,-0.64193 z m 20.5615,0 c 0.16241,0 0.30945,0.0132 0.44112,0.0395 0.13387,0.0263 0.32261,0.0845 0.56622,0.17447 0.12289,0.0461 0.20519,0.0691 0.24689,0.0691 0.0417,0 0.0761,-0.0187 0.10452,-0.056 0.0307,-0.0395 0.0494,-0.11522 0.056,-0.22714 h 0.12263 l 0.11521,1.40895 h -0.11521 c -0.11632,-0.35114 -0.26666,-0.6156 -0.451,-0.79336 -0.26554,-0.25678 -0.60681,-0.38516 -1.02379,-0.38516 -0.56842,0 -1.00076,0.22495 -1.29703,0.67485 -0.248,0.37967 -0.37199,0.83177 -0.37199,1.35628 0,0.42576 0.0823,0.81421 0.2469,1.16535 0.16459,0.35114 0.37967,0.60901 0.64522,0.77361 0.26774,0.1624 0.54206,0.2436 0.82298,0.2436 0.1646,0 0.32371,-0.0208 0.47734,-0.0626 0.15361,-0.0417 0.30176,-0.10316 0.44441,-0.18434 v -1.29045 c 0,-0.22385 -0.0183,-0.36979 -0.0535,-0.43783 -0.0329,-0.0702 -0.0848,-0.12287 -0.15719,-0.15801 -0.0702,-0.0373 -0.19528,-0.056 -0.37528,-0.056 v -0.1251 h 1.72827 v 0.1251 h -0.0831 c -0.17118,0 -0.2886,0.0571 -0.35224,0.17118 -0.0438,0.0812 -0.065,0.24143 -0.065,0.48062 v 1.36616 c -0.25238,0.13606 -0.50148,0.23592 -0.74728,0.29957 -0.24579,0.0636 -0.51902,0.0955 -0.81969,0.0955 -0.86249,0 -1.51759,-0.27652 -1.96529,-0.82957 -0.33578,-0.41478 -0.50367,-0.89321 -0.50367,-1.43528 0,-0.39284 0.0944,-0.76922 0.28311,-1.12914 0.22385,-0.42796 0.5311,-0.75715 0.92174,-0.98759 0.327,-0.19092 0.71326,-0.28639 1.15877,-0.28639 z m 12.36043,0 c 0.23702,0 0.48831,0.0582 0.75386,0.17448 0.12291,0.0549 0.20959,0.0823 0.26006,0.0823 0.057,0 0.10312,-0.0165 0.13827,-0.0494 0.0372,-0.0351 0.0669,-0.10428 0.0889,-0.20739 h 0.12262 v 1.54393 h -0.12264 c -0.0395,-0.29629 -0.11082,-0.53221 -0.21398,-0.70777 -0.10097,-0.17557 -0.24581,-0.31492 -0.43454,-0.41808 -0.18874,-0.10309 -0.38405,-0.15473 -0.58596,-0.15472 -0.22824,0 -0.41698,0.0702 -0.56622,0.21068 -0.14923,0.13826 -0.22385,0.29628 -0.22385,0.47404 0,0.13607 0.048,0.26006 0.14238,0.37199 0.13607,0.1646 0.45978,0.38406 0.97112,0.65839 0.41698,0.22385 0.70118,0.39613 0.85262,0.51684 0.15361,0.11851 0.27104,0.25897 0.35223,0.42137 0.0835,0.1624 0.1251,0.33249 0.1251,0.51025 0,0.33797 -0.13169,0.62986 -0.39503,0.87565 -0.26116,0.24361 -0.59804,0.36541 -1.01063,0.36541 -0.12949,0 -0.25129,-0.01 -0.36541,-0.0296 -0.0681,-0.011 -0.20961,-0.0505 -0.42466,-0.11851 -0.21288,-0.0702 -0.34785,-0.10534 -0.40491,-0.10534 -0.0549,0 -0.0988,0.0165 -0.13168,0.0494 -0.0307,0.0329 -0.0537,0.10096 -0.0691,0.20411 h -0.1218 v -1.53076 h 0.1218 c 0.057,0.32041 0.13384,0.56073 0.23044,0.72093 0.0965,0.15801 0.24354,0.2897 0.44112,0.39504 0.19971,0.10532 0.41808,0.15801 0.6551,0.15801 0.27432,0 0.4905,-0.0724 0.64851,-0.21726 0.16021,-0.14485 0.24031,-0.31604 0.24031,-0.51355 0,-0.10974 -0.0307,-0.22056 -0.0922,-0.33248 -0.0593,-0.11193 -0.15252,-0.21617 -0.27982,-0.31274 -0.0856,-0.0658 -0.3193,-0.20519 -0.70118,-0.41808 -0.38187,-0.21507 -0.654,-0.38625 -0.8164,-0.51354 -0.16022,-0.12729 -0.28201,-0.26774 -0.36541,-0.42137 -0.0834,-0.15362 -0.12592,-0.32261 -0.12592,-0.50696 0,-0.32042 0.1229,-0.59584 0.3687,-0.82628 0.24581,-0.23263 0.55854,-0.34894 0.9382,-0.34894 z m -16.83501,0.10205 h 1.91262 v 0.1218 h -0.1613 c -0.18216,0 -0.31494,0.0538 -0.39833,0.16131 -0.0549,0.0702 -0.0823,0.23916 -0.0823,0.50696 v 2.88374 c 0,0.22605 0.0142,0.37529 0.0428,0.44771 0.022,0.0549 0.0681,0.10206 0.13826,0.14155 0.0944,0.0527 0.19424,0.079 0.29957,0.079 h 0.16212 v 0.1218 h -1.91262 v -0.1218 h 0.15802 c 0.18435,0 0.31823,-0.0538 0.40162,-0.16131 0.0526,-0.0702 0.0782,-0.23916 0.0782,-0.50696 v -2.88374 c 0,-0.22605 -0.0143,-0.37529 -0.0428,-0.44771 -0.022,-0.0549 -0.0669,-0.10205 -0.13497,-0.14155 -0.0965,-0.0527 -0.19746,-0.079 -0.30286,-0.079 h -0.15801 z m 6.65055,0 h 1.91263 v 0.1218 h -0.16131 c -0.10532,0 -0.20518,0.0253 -0.29957,0.0757 -0.068,0.0351 -0.11522,0.0889 -0.14155,0.1613 -0.0263,0.0702 -0.0395,0.21503 -0.0395,0.43454 v 1.27727 h 2.07392 v -1.27727 c 0,-0.22825 -0.015,-0.37858 -0.0436,-0.451 -0.022,-0.0549 -0.0673,-0.10205 -0.13744,-0.14155 -0.0944,-0.0527 -0.19424,-0.079 -0.29956,-0.079 h -0.15801 v -0.1218 h 1.90932 v 0.1218 h -0.15801 c -0.10532,0 -0.20518,0.0253 -0.29957,0.0757 -0.0703,0.0351 -0.11933,0.0889 -0.14566,0.1613 -0.0241,0.0702 -0.0354,0.21503 -0.0354,0.43454 v 2.88045 c 0,0.22605 0.0142,0.37529 0.0428,0.44771 0.022,0.0549 0.0669,0.10206 0.13497,0.14155 0.0965,0.0527 0.19746,0.079 0.30286,0.079 h 0.15801 v 0.1218 h -1.90933 v -0.1218 h 0.15801 c 0.18215,0 0.31493,-0.0538 0.39833,-0.16131 0.0549,-0.0702 0.0823,-0.23916 0.0823,-0.50696 v -1.35957 h -2.07393 v 1.35957 c 0,0.22605 0.0142,0.37529 0.0428,0.44771 0.022,0.0549 0.0681,0.10206 0.13826,0.14155 0.0944,0.0527 0.19424,0.079 0.29956,0.079 h 0.16131 v 0.1218 h -1.91262 v -0.1218 h 0.15801 c 0.18435,0 0.31822,-0.0538 0.40162,-0.16131 0.0527,-0.0702 0.079,-0.23916 0.079,-0.50696 v -2.88045 c 0,-0.22825 -0.0142,-0.37858 -0.0428,-0.451 -0.022,-0.0549 -0.067,-0.10205 -0.13497,-0.14155 -0.0966,-0.0527 -0.19757,-0.079 -0.30286,-0.079 h -0.15801 z m 4.80213,0 h 3.64501 l 0.0494,1.04684 h -0.12592 c -0.0241,-0.18435 -0.057,-0.31602 -0.0988,-0.39503 -0.068,-0.12729 -0.15913,-0.22057 -0.27323,-0.27982 -0.11192,-0.0615 -0.26006,-0.0922 -0.44441,-0.0922 h -0.62876 v 3.41047 c 0,0.27432 0.0296,0.4455 0.0889,0.51354 0.0834,0.0922 0.21183,0.13826 0.38516,0.13826 h 0.15472 v 0.1218 h -1.89287 v -0.1218 h 0.15801 c 0.18874,0 0.32262,-0.0571 0.40162,-0.17118 0.0483,-0.0702 0.0724,-0.23039 0.0724,-0.48062 v -3.41047 h -0.53658 c -0.20849,0 -0.35662,0.0154 -0.44442,0.0461 -0.11411,0.0417 -0.21178,0.12183 -0.29298,0.24032 -0.0812,0.11851 -0.12955,0.27871 -0.14485,0.48062 h -0.12509 z m -23.33331,0.25019 c -0.12729,0 -0.29958,0.0208 -0.51684,0.0625 l 8.4e-4,1.85665 c 0.0417,0 0.0779,0.001 0.10863,0.003 h 0.0749 c 0.42576,0 0.74618,-0.0922 0.96125,-0.27653 0.21727,-0.18434 0.32591,-0.41917 0.32591,-0.70447 0,-0.27873 -0.0878,-0.50478 -0.26336,-0.67815 -0.17337,-0.17557 -0.40381,-0.26335 -0.69131,-0.26335 z m -4.32809,0.67156 -0.7769,1.80398 h 1.53405 z m -11.86582,1.7332 h 2.02207 v 0.63782 h -2.02207 z m 54.48336,0 h 2.02125 v 0.63782 h -2.02125 z m 27.13483,-48.82734 c 0,0 2.97952,4.4693 3.618,7.87448 0.63847,3.40518 1.06411,7.66164 3.19235,7.02318 2.12824,-0.63848 4.89494,-2.34105 3.83082,-5.53342 -1.06411,-3.19235 -1.70258,-4.04365 -3.19235,-5.10776 -1.48976,-1.06413 -7.44882,-4.25648 -7.44882,-4.25648 z m 0,-19.38296 c 0,0 2.97952,4.4693 3.618,7.87448 0.63847,3.40518 1.06411,7.66164 3.19235,7.02318 2.12824,-0.63848 4.89494,-2.34105 3.83082,-5.53342 -1.06411,-3.19235 -1.70258,-4.04365 -3.19235,-5.10776 -1.48976,-1.06413 -7.44882,-4.25648 -7.44882,-4.25648 z m 23.19775,14.25918 v 2.34107 l 19.15413,6.17187 v -2.55387 z m -26.39011,-19.1541 -5.10776,-6.38472 v 21.70801 c 0,0 0.42565,2.12824 -1.48976,1.70259 -1.91542,-0.42567 -4.68213,-1.70259 -4.68213,-1.70259 l 0.21283,1.70259 4.4693,1.70257 c 0,0 2.12822,0 1.70257,2.97954 -0.42563,2.97953 -0.21281,12.34377 -2.55387,17.23871 -2.34105,4.89494 -2.76672,6.59752 -2.76672,6.59752 0,0 5.95907,-3.40516 7.23602,-5.5334 1.27694,-2.12825 3.19235,-7.236 3.618,-9.15142 0.42564,-1.91541 0.21281,-8.30012 0.21281,-8.30012 0,0 0,-2.12824 2.55389,-1.27694 2.55389,0.8513 13.62071,4.89494 13.62071,4.89494 0,0 0.85129,-0.42565 0.63847,3.19235 -0.21282,3.618 0,15.74896 0,15.74896 0,0 0.63846,1.48976 -2.12824,1.06411 -2.7667,-0.42565 -6.81035,-2.97954 -6.81035,-2.97954 0,0 5.95906,5.74624 6.17188,7.44884 0.21282,1.70259 0,2.7667 0,2.7667 l 9.78989,-11.91812 v -35.11588 l 0.63847,-1.27695 -8.51295,0.8513 1.06412,18.94129 -15.11046,-4.89494 c 0,0 -1.91543,-0.42565 -1.91543,-2.97952 0,-2.55389 0.42565,-13.83354 0.42565,-13.83354 0,0 0.63848,-1.48977 2.97953,-0.63848 2.34106,0.8513 11.49248,3.61801 11.49248,3.61801 v -1.06412 l -9.36424,-3.19235 c 0,0 -1.27694,-0.63848 0.42565,-1.9154 1.7026,-1.27695 4.25646,-3.19237 4.25646,-3.19237 0,0 1.91543,-1.48976 -0.21281,-2.55387 -2.12824,-1.06413 -7.87448,-4.89494 -7.87448,-4.89494 l 0.8513,9.57705 c 0,0 1.06411,0.63846 -1.06411,1.27694 -2.12824,0.63847 -2.76672,-0.21281 -2.76672,-0.21281 z m -20.64388,35.96717 c 0,0 -0.21282,-2.34106 1.27694,-2.34106 1.48976,0 6.81035,0.21282 6.81035,0.21282 0,0 -0.8513,0.63848 -0.63847,2.34106 0.21282,1.70258 0,15.3233 0,15.3233 l -12.34377,13.83353 c 0,0 1.06413,-1.27694 0.21284,-2.55388 -0.8513,-1.27695 -6.81035,-8.30013 -6.81035,-8.30013 0,0 7.23599,4.25648 8.93858,3.40518 1.70258,-0.85129 1.91541,-3.83083 1.91541,-3.83083 z M 184.4374,157.78792 173.37059,153.9571 v -2.55389 l 15.53611,5.53343 c 0,0 1.48978,0 1.70259,-0.85132 0.21281,-0.85128 -3.19235,-13.40787 -3.19235,-13.40787 0,0 5.74624,2.97953 7.44883,5.32059 1.70258,2.34106 3.19235,5.74623 1.27693,8.08728 -1.91541,2.34108 -2.76671,2.12824 -2.76671,2.12824 l 14.89764,4.68213 0.63848,-2.34106 c 0,0 6.38471,4.25647 5.95906,4.89495 -0.42565,0.63846 -21.70799,-6.59754 -21.70799,-6.59754 0,0 -1.7026,0 -1.48978,2.34106 0.21283,2.34105 -0.42564,8.93859 -0.42564,8.93859 l 9.57706,3.40518 -0.21283,1.06411 -8.08729,-2.7667 c 0,0 -1.7026,0 -2.12822,2.7667 -0.42567,2.7667 -3.40519,14.89765 -7.44884,17.87718 -4.04364,2.97954 -9.57705,5.53341 -9.57705,5.53341 0,0 8.08728,-10.00271 9.36422,-20.21824 1.27695,-10.21553 1.70259,-20.00541 1.70259,-20.00541 z m -47.03363,-35.11628 v 62.35769 l 6.17157,-5.10744 c 0,0 1.70229,-1.48977 2.97921,-1.06413 1.27695,0.42565 3.83101,1.06413 3.83101,1.06413 l 0.40079,-1.49702 -4.44414,-1.26987 c 0,0 -1.49009,0.6383 -1.27728,-1.70275 0.21286,-2.34106 0,-20.43066 0,-20.43066 0,0 1.27681,-1.06427 2.55373,-0.63864 1.27695,0.42567 14.47222,4.89514 14.47222,4.89514 0,0 1.48962,0.4255 1.48962,3.61786 v 16.81278 l -10.77948,-2.88868 v 1.39907 l 6.31066,2.12824 c 0,0 1.91527,1.8e-4 2.55373,1.70277 0.63848,1.70259 0.42547,2.9792 0.42547,2.9792 l 8.51299,-11.49217 v -37.45741 h -7.02337 l -18.3024,-5.10746 z m 8.50061,9.55406 c 0.0701,0.003 0.14493,0.01 0.22468,0.0231 1.27695,0.21283 15.53635,4.89512 15.53635,4.89512 0,0 1.91509,4.2e-4 1.91509,2.98004 0,2.97954 0.21315,17.02595 0.21315,17.02595 0,0 0.63846,1.06346 -2.12824,0.63781 -2.7667,-0.42565 -15.3232,-4.25648 -15.3232,-4.25648 l -1.48959,-1.48962 v -18.72869 c 0,0 -4e-4,-1.12224 1.05176,-1.08718 z m -35.31681,0.44934 v 33.62559 c 0,0 -0.63848,9.57762 -3.19237,14.68537 -2.55389,5.10778 -4.46881,9.15079 -4.46881,9.15079 0,0 4.68198,-2.34041 7.87433,-5.95842 3.19237,-3.618 5.10745,-11.70534 5.10745,-11.70534 0,0 0.213,-1.70325 1.70277,-1.49043 1.48976,0.21282 5.53293,1.49043 5.53293,1.49043 0,0 1.49043,-3.2e-4 1.49043,2.97922 v 11.70533 c 0,0 0.42514,2.12858 -1.91591,1.27727 -2.34106,-0.8513 -6.59706,-2.34139 -6.59706,-2.34139 0,0 5.10729,4.25681 5.53294,5.53376 0.42565,1.27694 0.42549,3.4047 0.42549,3.4047 l 9.15161,-11.49219 v -41.28759 h -6.17158 l -8.0875,-2.55455 z m 7.92125,8.20107 c 0.1925,-0.008 0.39219,0.019 0.59172,0.0987 1.06412,0.42564 4.46965,1.70276 4.46965,1.70276 0,0 1.27645,0.213 1.27645,2.76688 0,2.55389 -0.21234,11.06671 -0.21234,11.06671 0,0 0.21216,0.21249 -1.49043,-0.21317 -1.70259,-0.42563 -6.17158,-2.34056 -6.17158,-2.34056 v -12.34398 c 0,0 0.70232,-0.70228 1.53653,-0.7374 z m 0,15.16929 c 0.1925,-0.008 0.39219,0.019 0.59172,0.0987 1.06412,0.42564 4.46965,1.70276 4.46965,1.70276 0,0 1.27645,0.213 1.27645,2.76688 0,2.55389 -0.21234,11.06671 -0.21234,11.06671 0,0 0.21216,0.21249 -1.49043,-0.21317 -1.70259,-0.42563 -6.17158,-2.34056 -6.17158,-2.34056 v -12.34398 c 0,0 0.70232,-0.70228 1.53653,-0.7374 z M 90.152809,127.11988 v 40.03007 L 70.589605,160.5282 v 2.40807 l 35.816375,12.18924 v -39.87944 l -5.86873,0.9028 -1.80644,-1.35381 -0.15066,1.35381 1.80644,1.35464 v 15.19974 c -1.475885,0.30982 -2.502761,-0.0952 -4.026044,-1.3925 v -15.65073 c 1.073876,-1.38436 1.15003,-1.18233 -6.207783,-8.54014 z m 6.388845,26.41128 c 1.347783,0.20172 2.695562,0.0526 4.043346,1.59661 v 14.68454 c -1.710221,0.44495 -2.783014,-0.22484 -3.936929,-1.1706 z"
       style="display:inline;fill:#000000;fill-opacity:1;stroke:none;stroke-width:3.49999"
       id="rect3232" />
  </g>
  <g
     sodipodi:insensitive="true"
     inkscape:label="Layer 1"
     id="layer1"
     style="display:inline;opacity:0.38" />
</svg>
