<?xml version="1.0" encoding="UTF-8" standalone="no"?>
<svg
   xmlns:dc="http://purl.org/dc/elements/1.1/"
   xmlns:cc="http://creativecommons.org/ns#"
   xmlns:rdf="http://www.w3.org/1999/02/22-rdf-syntax-ns#"
   xmlns:svg="http://www.w3.org/2000/svg"
   xmlns="http://www.w3.org/2000/svg"
   xmlns:sodipodi="http://sodipodi.sourceforge.net/DTD/sodipodi-0.dtd"
   xmlns:inkscape="http://www.inkscape.org/namespaces/inkscape"
   inkscape:export-ydpi="250.2"
   inkscape:export-xdpi="250.2"
   inkscape:export-filename="D:\Titipan\Projects\Pixiv stuff\SVG\Ark_Abyssal.png"
   sodipodi:docname="Ark_Abyssal.svg"
   inkscape:version="1.0 (4035a4fb49, 2020-05-01)"
   id="svg8"
   version="1.1"
   viewBox="0 0 338.66666 338.66668"
   height="1280"
   width="1280">
  <defs
     id="defs2">
    <inkscape:path-effect
       effect="powerstroke"
       id="path-effect892"
       is_visible="true"
       lpeversion="1"
       offset_points="0,3.40217"
       sort_points="true"
       interpolator_type="CubicBezierJohan"
       interpolator_beta="0.2"
       start_linecap_type="zerowidth"
       linejoin_type="extrp_arc"
       miter_limit="4"
       scale_width="1"
       end_linecap_type="zerowidth" />
    <inkscape:path-effect
       effect="powerstroke"
       id="path-effect887"
       is_visible="true"
       lpeversion="1"
       offset_points="0,3.40217"
       sort_points="true"
       interpolator_type="CubicBezierJohan"
       interpolator_beta="0.2"
       start_linecap_type="zerowidth"
       linejoin_type="extrp_arc"
       miter_limit="4"
       scale_width="1"
       end_linecap_type="zerowidth" />
    <inkscape:path-effect
       effect="powerstroke"
       id="path-effect882"
       is_visible="true"
       lpeversion="1"
       offset_points="2.7941224,-3.4021738 | 2.7941224,-3.4021738"
       sort_points="true"
       interpolator_type="CubicBezierJohan"
       interpolator_beta="0.2"
       start_linecap_type="zerowidth"
       linejoin_type="extrp_arc"
       miter_limit="4"
       scale_width="1"
       end_linecap_type="zerowidth" />
    <inkscape:path-effect
       effect="powerstroke"
       id="path-effect877"
       is_visible="true"
       lpeversion="1"
       offset_points="0,3.01003"
       sort_points="true"
       interpolator_type="CubicBezierJohan"
       interpolator_beta="0.2"
       start_linecap_type="zerowidth"
       linejoin_type="extrp_arc"
       miter_limit="4"
       scale_width="1"
       end_linecap_type="zerowidth" />
    <inkscape:path-effect
       effect="powerstroke"
       id="path-effect872"
       is_visible="true"
       lpeversion="1"
       offset_points="0,3.01003"
       sort_points="true"
       interpolator_type="CubicBezierJohan"
       interpolator_beta="0.2"
       start_linecap_type="zerowidth"
       linejoin_type="extrp_arc"
       miter_limit="4"
       scale_width="1"
       end_linecap_type="zerowidth" />
    <inkscape:path-effect
       effect="powerstroke"
       id="path-effect868"
       is_visible="true"
       lpeversion="1"
       offset_points="11.631982,3.0100329"
       sort_points="true"
       interpolator_type="CubicBezierJohan"
       interpolator_beta="0.2"
       start_linecap_type="zerowidth"
       linejoin_type="extrp_arc"
       miter_limit="4"
       scale_width="1"
       end_linecap_type="zerowidth" />
    <inkscape:path-effect
       effect="powerstroke"
       id="path-effect864"
       is_visible="true"
       lpeversion="1"
       offset_points="156.61386,0.938298"
       sort_points="true"
       interpolator_type="CubicBezierJohan"
       interpolator_beta="0.2"
       start_linecap_type="zerowidth"
       linejoin_type="extrp_arc"
       miter_limit="4"
       scale_width="1"
       end_linecap_type="zerowidth" />
  </defs>
  <sodipodi:namedview
     inkscape:pagecheckerboard="false"
     units="px"
     showgrid="false"
     inkscape:document-rotation="0"
     inkscape:current-layer="layer1"
     inkscape:document-units="mm"
     inkscape:cy="608.39364"
     inkscape:cx="391.24247"
     inkscape:zoom="0.33507752"
     inkscape:pageshadow="2"
     inkscape:pageopacity="0"
     borderopacity="1.0"
     bordercolor="#666666"
     pagecolor="#910000"
     id="base"
     inkscape:snap-global="false" />
  <metadata
     id="metadata5">
    <rdf:RDF>
      <cc:Work
         rdf:about="">
        <dc:format>image/svg+xml</dc:format>
        <dc:type
           rdf:resource="http://purl.org/dc/dcmitype/StillImage" />
        <dc:title />
      </cc:Work>
    </rdf:RDF>
  </metadata>
  <g
     inkscape:label="Objects"
     id="layer3"
     inkscape:groupmode="layer"
     style="display:inline">
    <path
       id="path959"
       style="display:inline;fill:#000000;fill-opacity:1;stroke:none;stroke-width:13.2283"
       d="m 639.70117,286.13281 v 0.10157 c -81.6845,3.11379 -110.84375,84.18011 -110.84375,114.07031 0,89.75062 27.08338,92.64263 38.89649,130.3789 -27.84972,-23.85705 -84.03502,2.65072 -89.95508,1.06446 -5.92003,-1.58627 -45.30274,-39.5697 -45.30274,-61.12696 0,-71.413 104.00618,-111.06618 101.29297,-115.76562 C 528.01421,344.85315 394.75,389.62173 394.75,474.0332 c 0,36.33249 45.5987,105.93555 74.93555,105.93555 15.29741,0 23.05176,-16.88086 44.35351,-16.88086 14.11635,0 25.19879,12.1894 32.65039,20.77539 -27.4611,-6.40762 -24.61429,-5.67578 -36.43945,-5.67578 -29.34966,0 -54.94193,66.57617 -76.6543,66.57617 -21.77189,0 -56.47934,-50.61719 -95.56836,-50.61719 -67.59231,0 -131.90576,51.99737 -120.18945,55.13672 4.70937,1.26187 39.52642,-27.48828 108.04102,-27.48828 40.25011,0 76.38772,71.88281 110.71093,71.88281 36.5429,0 64.32256,-69.71484 92.07227,-69.71484 8.09965,0 24.25011,1.5762 33.01953,11.89063 l 38.0957,-34.3086 19.44532,10.35547 -30.8086,50.25391 c 0,0 12.12104,23.2348 2.01953,34.85156 -10.10154,11.61676 -36.86914,12.12109 -36.86914,12.12109 0,0 3.53475,12.12191 2.01953,17.67774 -1.51525,5.55587 -9.09179,12.62695 -9.09179,12.62695 l 20.76758,16.79102 c 3.92947,-6.2943 8.95997,-12.14677 14.39257,-16.60743 0,63.11513 4.51758,52.88904 4.51758,78.97266 -4.04062,7.66398 -3.392,9.97307 -6.2793,12.51367 6.66055,10.90636 11.56097,30.38591 12.33204,45.96289 3.80821,0 35.76953,-27.79733 35.76953,-47.0332 0,-31.69669 -8.30029,-26.9122 14.14453,-106.72461 22.44482,79.81241 14.14258,75.02792 14.14258,106.72461 0,19.23587 31.96131,47.0332 35.76953,47.0332 0.77106,-15.57698 5.67343,-35.05653 12.33398,-45.96289 -2.88729,-2.5406 -2.24063,-4.84969 -6.28125,-12.51367 0,-26.08362 4.51953,-15.85753 4.51953,-78.97266 12.31136,10.10873 22.57618,27.36316 22.57618,40.7168 0,25.08166 -24.72461,77.99256 -24.72461,107.94531 0,34.16841 80.46298,128.84126 85.74218,119.25976 2.95828,-5.3691 -52.74804,-36.72355 -52.74804,-99.35546 0,-66.91918 27.50195,-84.49749 27.50195,-129.33398 0,-63.01229 -49.69531,-88.74805 -49.69531,-88.74805 0,-0.23547 27.87966,-7.88579 35.35742,9.5 12.62132,29.34452 24.14543,69.67863 59.34961,104.88281 39.52339,39.52343 53.25062,51.43164 92.2832,51.43164 31.29347,0 55.26035,-26.11695 52.00977,-51.74804 -7.70687,-60.76884 -32.77828,-72.26743 -31.50586,-69.10547 3.59645,8.93726 41.55954,87 -21.81641,87 -19.28481,0 -45.13997,-22.70839 -72.42578,-61.9668 -29.7131,-42.7508 -32.52556,-83.32404 -51.67578,-110.50977 -10.77199,-15.29196 -36.38156,-13.67578 -48.28711,-13.67578 8.75845,-10.3649 22.93448,-11.94531 31.04883,-11.94531 27.74971,0 55.52937,69.71484 92.07226,69.71484 34.32322,0 70.46082,-71.88281 110.71094,-71.88281 68.51457,0 103.33167,28.75015 108.04097,27.48828 11.7164,-3.13935 -52.5971,-55.13672 -120.18941,-55.13672 -39.089,0 -73.79646,50.61719 -95.56836,50.61719 -21.71236,0 -47.30467,-66.57617 -76.65429,-66.57617 -11.82516,0 -8.97835,-0.73184 -36.43946,5.67578 7.45161,-8.58599 18.5321,-20.77539 32.64844,-20.77539 21.30176,0 29.05614,16.88086 44.35352,16.88086 29.33684,0 74.9375,-69.60306 74.9375,-105.93555 0,-47.35383 -41.93804,-82.22976 -79.78125,-101.96093 l -10.85157,14.74414 c 26.05335,19.46679 52.88672,47.5295 52.88672,83.80468 0,21.55726 -39.38466,59.54071 -45.30468,61.12696 -3.68554,0.98753 -23.06364,-7.65019 -45.03227,-10.54448 -2.33718,-0.30791 -2.4692,4.51328 -9.55448,3.34066 -7.08528,-1.17262 -3.76589,-5.42925 -6.62516,-5.24933 -3.08572,0.19417 -6.1475,0.60569 -9.14727,1.28281 -2.56227,0.57836 3.50815,7.40796 -3.99184,9.41757 -7.49998,2.00962 -8.12001,-4.979 -10.29881,-3.60484 -6.36976,4.01737 -32.08023,11.21294 -38.45411,13.53612 -17.94984,6.54245 -49.66884,-24.68462 -32.83044,-60.10469 31.36999,-65.98771 63.63945,-44.95078 63.63945,-44.95078 l 35.32072,-49.65312 C 741.94763,349.32422 714.5849,288.90636 644.57227,286.23633 v -0.10352 c -0.81973,0 -1.62596,0.0218 -2.43555,0.0371 -0.80999,-0.0153 -1.61542,-0.0371 -2.43555,-0.0371 z m -78.01953,349.72071 -0.0586,0.0547 c 0.0314,10e-6 0.0762,0 0.10742,0 -0.0159,-0.0188 -0.0329,-0.036 -0.0488,-0.0547 z m -0.0586,0.0547 c -11.95498,-0.002 -39.20349,-0.31441 -49.94727,14.9375 -4.15468,5.898 -7.79138,11.16522 -10.84961,18.20899 l 3.74414,4.21289 5.55664,12.62695 12.62696,-3.53711 c 0,0 -7.71437,-20.31453 0,-31.81836 7.98068,-11.90095 33.98169,-11.5201 33.83984,-10.10156 z M 755.25586,353.47461 c -2.56756,-0.0126 -4.23009,0.44314 -4.77148,1.38086 -0.71608,1.24028 6.09993,4.98424 16.37695,11.03515 l 6.03906,-9.00976 c -7.50153,-2.21356 -13.67634,-3.3868 -17.64453,-3.40625 z m -3.94141,98.06836 -15.92383,21.71289 -7.57617,33.33594 -0.0293,0.0859 c 8.52148,-14.11311 18.18664,-27.25935 23.52929,-55.13476 z m -324.02343,150.25586 -9.34375,23.99023 6.06054,4.29297 z m 429.6914,0 3.2832,28.2832 6.06055,-4.29297 z m -456.46094,86.36719 c -3.93943,43.56117 0.16733,60.65408 18.94141,105.30859 l 20.20313,-21.21289 c -14.8037,-23.31167 -20.18918,-47.9079 -20.20313,-73.23633 z m 483.23047,0 -18.9414,10.85937 c -0.014,25.32843 -5.39944,49.92466 -20.20313,73.23633 l 20.20313,21.21289 c 18.77408,-44.65451 22.88084,-61.74742 18.9414,-105.30859 z m -518.54883,46.41992 c -2.97481,-0.0987 -24.21877,14.50832 -31.20312,69.58008 -3.25058,25.63109 20.71435,51.74804 52.00781,51.74804 0.79923,0 1.57116,-0.0133 2.34961,-0.0234 l 0.55078,-1.30078 40.08008,-56.69922 c -15.56621,15.6323 -29.85051,24.16993 -41.66601,24.16993 -63.37595,0 -25.41481,-78.06274 -21.81836,-87 0.11928,-0.29644 0.007,-0.4644 -0.30079,-0.47461 z m 199.82422,76.60937 -28.66211,22.21485 c 7.09874,18.80104 14.44141,40.18629 14.44141,74.77148 0,62.63191 -55.70632,93.98636 -52.74805,99.35546 5.27921,9.5815 85.74219,-85.09135 85.74219,-119.25976 0,-20.39755 -11.45792,-51.42995 -18.77344,-77.08203 z m -82.68359,5.00781 -29.79883,26.76954 c 2.55486,2.56208 5.12157,4.99982 7.70117,7.31445 l 28.47266,-29.99219 c -2.1267,-1.36216 -4.24806,-2.72989 -6.375,-4.0918 z m 319.58398,0 c -13.71945,8.78476 -27.07467,17.99382 -44.69921,22.22266 l -11.36329,45.45703 c 29.94539,-0.39303 58.61149,-13.58126 85.86329,-40.91015 z m -276.40039,21.82813 -38.92187,31.42383 c 16.80075,9.47767 34.07755,14.19509 51.80273,14.42773 l -11.36523,-45.45703 c -0.51269,-0.12301 -1.01005,-0.26322 -1.51563,-0.39453 z"
       transform="scale(0.26458333)"
       sodipodi:nodetypes="ccscsssssscsssssssccccscsccccccscsccccssssscsssssssscssssssscsssccssszsszscscccccccccsccsccccsccssccsccccscccccccccccccccccccssscccssssccssscccccccccccccccc" />
    <path
       style="fill:#000000;fill-opacity:1;stroke:none;stroke-width:3.49999"
       d="m 232.02336,67.251693 -7.38332,16.069582 1.87088,8.485807 -2.33861,-3.541321 -1.00226,7.483546 c 0,0 -0.89184,-8.799996 -2.88679,-9.334541 -0.63896,-0.171207 -1.42293,1.383274 -1.42293,1.383274 l -66.15795,87.20493 c 0,0 2.31395,6.60667 0.57669,8.47756 -1.73725,1.87089 -6.94901,-0.26727 -8.68626,2.00452 -1.73725,2.27179 0.53454,6.28083 -0.53454,7.21628 -1.06907,0.93544 -6.1472,0.8018 -6.1472,0.8018 l 3.60814,5.07813 4.54359,3.20723 2.67269,4.81085 -2.13816,1.60362 1.33635,1.33635 -47.84124,39.82316 c 0,0 37.28409,-32.74052 37.685,-42.36222 0.2037,-4.88867 -3.34087,-5.61266 -3.34087,-5.61266 L 84.323535,259.65234 128.55664,196.844 c 0,0 -4.27631,1.33635 -4.67721,2.53907 -0.40091,1.20271 4.67721,-20.31249 5.74629,-20.31249 1.06908,0 2.80633,9.35443 2.80633,9.35443 0,0 1.20271,2.6727 2.13816,2.2718 0.93544,-0.40091 -0.80181,-4.40995 -0.13364,-5.21176 0.66817,-0.80181 4.40995,0.13363 6.41447,-2.27179 2.00452,-2.40543 -1.60362,-7.48355 0.13363,-9.35443 1.73726,-1.87089 6.68174,0.4009 8.41899,-1.60362 1.73725,-2.00452 65.38081,-86.628737 65.38081,-86.628737 0,0 1.5702,-1.26953 1.5368,-2.171563 -0.0594,-1.603894 -9.95579,-0.200453 -9.95579,-0.200453 l 7.51696,-2.939965 -4.37655,-1.102486 8.38559,-0.935443 z"
       id="path966"
       sodipodi:nodetypes="cccccsccssscccccccscccsscssssscsccccc" />
  </g>
  <g
     style="display:none;opacity:0.38"
     id="layer1"
     inkscape:groupmode="layer"
     inkscape:label="Layer 1"
     sodipodi:insensitive="true" />
</svg>
