<?xml version="1.0" encoding="UTF-8" standalone="no"?>
<svg
   xmlns:dc="http://purl.org/dc/elements/1.1/"
   xmlns:cc="http://creativecommons.org/ns#"
   xmlns:rdf="http://www.w3.org/1999/02/22-rdf-syntax-ns#"
   xmlns:svg="http://www.w3.org/2000/svg"
   xmlns="http://www.w3.org/2000/svg"
   xmlns:sodipodi="http://sodipodi.sourceforge.net/DTD/sodipodi-0.dtd"
   xmlns:inkscape="http://www.inkscape.org/namespaces/inkscape"
   inkscape:export-ydpi="250.2"
   inkscape:export-xdpi="250.2"
   inkscape:export-filename="D:\Titipan\Projects\Pixiv stuff\SVG\Ark_Columbia.png"
   width="1280"
   height="1280"
   viewBox="0 0 338.66666 338.66668"
   version="1.1"
   id="svg8"
   inkscape:version="1.0 (4035a4fb49, 2020-05-01)"
   sodipodi:docname="Ark_Columbia.svg">
  <defs
     id="defs2">
    <inkscape:path-effect
       end_linecap_type="zerowidth"
       scale_width="1"
       miter_limit="4"
       linejoin_type="extrp_arc"
       start_linecap_type="zerowidth"
       interpolator_beta="0.2"
       interpolator_type="CubicBezierJohan"
       sort_points="true"
       offset_points="0,3.40217"
       lpeversion="1"
       is_visible="true"
       id="path-effect892"
       effect="powerstroke" />
    <inkscape:path-effect
       end_linecap_type="zerowidth"
       scale_width="1"
       miter_limit="4"
       linejoin_type="extrp_arc"
       start_linecap_type="zerowidth"
       interpolator_beta="0.2"
       interpolator_type="CubicBezierJohan"
       sort_points="true"
       offset_points="0,3.40217"
       lpeversion="1"
       is_visible="true"
       id="path-effect887"
       effect="powerstroke" />
    <inkscape:path-effect
       end_linecap_type="zerowidth"
       scale_width="1"
       miter_limit="4"
       linejoin_type="extrp_arc"
       start_linecap_type="zerowidth"
       interpolator_beta="0.2"
       interpolator_type="CubicBezierJohan"
       sort_points="true"
       offset_points="2.7941224,-3.4021738 | 2.7941224,-3.4021738"
       lpeversion="1"
       is_visible="true"
       id="path-effect882"
       effect="powerstroke" />
    <inkscape:path-effect
       end_linecap_type="zerowidth"
       scale_width="1"
       miter_limit="4"
       linejoin_type="extrp_arc"
       start_linecap_type="zerowidth"
       interpolator_beta="0.2"
       interpolator_type="CubicBezierJohan"
       sort_points="true"
       offset_points="0,3.01003"
       lpeversion="1"
       is_visible="true"
       id="path-effect877"
       effect="powerstroke" />
    <inkscape:path-effect
       end_linecap_type="zerowidth"
       scale_width="1"
       miter_limit="4"
       linejoin_type="extrp_arc"
       start_linecap_type="zerowidth"
       interpolator_beta="0.2"
       interpolator_type="CubicBezierJohan"
       sort_points="true"
       offset_points="0,3.01003"
       lpeversion="1"
       is_visible="true"
       id="path-effect872"
       effect="powerstroke" />
    <inkscape:path-effect
       end_linecap_type="zerowidth"
       scale_width="1"
       miter_limit="4"
       linejoin_type="extrp_arc"
       start_linecap_type="zerowidth"
       interpolator_beta="0.2"
       interpolator_type="CubicBezierJohan"
       sort_points="true"
       offset_points="11.631982,3.0100329"
       lpeversion="1"
       is_visible="true"
       id="path-effect868"
       effect="powerstroke" />
    <inkscape:path-effect
       end_linecap_type="zerowidth"
       scale_width="1"
       miter_limit="4"
       linejoin_type="extrp_arc"
       start_linecap_type="zerowidth"
       interpolator_beta="0.2"
       interpolator_type="CubicBezierJohan"
       sort_points="true"
       offset_points="156.61386,0.938298"
       lpeversion="1"
       is_visible="true"
       id="path-effect864"
       effect="powerstroke" />
  </defs>
  <sodipodi:namedview
     inkscape:snap-bbox-midpoints="false"
     inkscape:snap-bbox="false"
     inkscape:snap-midpoints="true"
     inkscape:guide-bbox="true"
     showguides="true"
     inkscape:snap-global="false"
     id="base"
     pagecolor="#910000"
     bordercolor="#666666"
     borderopacity="1.0"
     inkscape:pageopacity="0"
     inkscape:pageshadow="2"
     inkscape:zoom="0.49497475"
     inkscape:cx="631.53946"
     inkscape:cy="675.5683"
     inkscape:document-units="mm"
     inkscape:current-layer="layer1"
     inkscape:document-rotation="0"
     showgrid="false"
     units="px"
     inkscape:pagecheckerboard="false" />
  <metadata
     id="metadata5">
    <rdf:RDF>
      <cc:Work
         rdf:about="">
        <dc:format>image/svg+xml</dc:format>
        <dc:type
           rdf:resource="http://purl.org/dc/dcmitype/StillImage" />
        <dc:title></dc:title>
      </cc:Work>
    </rdf:RDF>
  </metadata>
  <g
     style="display:inline"
     inkscape:groupmode="layer"
     id="layer3"
     inkscape:label="Objects">
    <path
       d="m 187.57068,165.64806 22.2061,-19.74925 5.95313,-2.74033 -21.92262,19.46577 z m -1.98437,-5.19717 18.89881,-25.13542 5.85863,-2.45684 -18.70982,25.13542 z m -6.61459,2.64584 9.07143,-13.22917 3.77976,-1.51191 -8.12648,13.04018 z m -9.26041,-1.7009 5.85863,-11.71726 4.91369,-1.88988 3.59077,-9.44941 3.96875,-1.32291 8.50447,-19.46578 6.42559,-3.02381 -15.68601,34.9628 -4.15774,1.13393 -2.45684,6.04762 -4.15774,1.5119 3.2128,-8.69345 -5.10268,9.82738 z m -2.07887,-5.10268 3.40178,-17.76488 2.07887,-0.75595 2.45685,-17.00893 4.7247,-1.88988 6.4256,-23.056546 6.2366,-2.456847 -12.09523,42.144343 -2.45685,0.56697 -1.32292,11.71726 -4.34672,1.5119 -0.37798,4.91369 z m -4.15774,-8.50446 -0.94494,-27.0253 2.83482,-1.32292 -0.37797,-19.843745 3.77976,-1.133928 3.96875,-32.88393 6.2366,-2.456844 -6.2366,54.428567 -2.26786,1.13393 -0.37798,15.11905 -2.45684,1.13393 v 11.33928 z m -13.04018,-77.863097 5.10268,-2.456844 6.61458,48.380951 -2.45684,1.13393 1.88988,14.93006 -4.7247,2.26786 -4.53572,-34.20685 2.64584,-1.322916 z"
       style="fill:#000000;fill-opacity:1;stroke:none;stroke-width:3.49999"
       id="path1120" />
    <path
       inkscape:transform-center-y="31.078566"
       inkscape:transform-center-x="4.1514976"
       id="path1123"
       style="fill:#000000;fill-opacity:1;stroke:none;stroke-width:3.49999"
       d="m 183.31808,192.5501 25.72328,14.88142 4.47107,4.79153 -25.36512,-14.70129 z m 4.31119,-3.51596 29.79848,10.0501 4.17225,4.79082 -29.73914,-9.87066 z m -4.58907,-5.44921 15.40856,4.4585 2.62232,3.11381 -14.9324,-3.62067 z m -1.293,-9.32611 12.96429,1.88291 3.33722,4.0717 10.099,0.44194 2.50223,3.3526 21.15168,1.96184 4.88857,5.15106 -38.11994,-3.9139 -2.38215,-3.59137 -6.51319,-0.43355 -2.74101,-3.47268 9.26259,0.32045 -10.93261,-1.75868 z m 4.1918,-3.57601 17.93452,-2.34866 1.3705,1.73635 16.92008,-3.00841 3.2779,3.89228 23.90804,-1.13941 4.29094,5.14967 -43.81069,1.75033 -1.30977,-2.15455 -11.54,2.42335 -2.80035,-3.65211 -4.78385,1.18409 z m 6.76872,-6.61794 25.36162,-9.38339 2.14617,2.27604 18.72136,-6.59 2.26345,3.2325 32.46688,-6.5579 4.29094,5.14968 -53.6339,11.17 -1.78872,-1.79708 -14.47301,4.38869 -1.84804,-1.97651 -10.76573,3.56066 z m 69.82997,-36.83045 3.93488,4.0731 -43.85676,21.47216 -1.84805,-1.9765 -13.58145,6.48249 -3.63676,-3.7736 31.05239,-15.04762 2.08681,2.0966 z" />
    <path
       d="m 155.79442,197.01985 -6.25405,29.05221 -3.18522,5.72744 6.19273,-28.65602 z m 4.67093,3.02172 -0.40399,31.44504 -3.2764,5.44288 0.25148,-31.33342 z m 3.77479,-6.04189 0.49368,16.03304 -2.157,3.45249 -1.14459,-15.32239 z m 8.47714,-4.09709 2.19326,12.91541 -2.84877,4.42723 2.68372,9.74591 -2.42115,3.41162 4.63481,20.73067 -3.39901,6.23525 -7.99301,-37.47747 2.68526,-3.37074 -1.58948,-6.33113 2.46201,-3.67575 2.54223,8.91265 -1.68697,-10.9439 z m 4.69137,2.88966 7.74772,16.34429 -1.23102,1.83788 8.06371,15.17617 -2.69627,4.31563 8.43318,22.40031 -3.5814,5.66612 -15.13225,-41.15161 1.64764,-1.90863 -5.85323,-10.2364 2.61452,-3.78737 -2.59724,-4.18828 z m 8.37813,4.40677 16.72483,21.24947 -1.50615,2.74188 12.02558,15.78932 -2.38025,3.14749 16.22017,28.87923 -3.5814,5.66613 -27.11537,-47.6038 1.16026,-2.25451 -8.62498,-12.4233 1.31277,-2.36612 -6.69748,-9.15003 z m 56.51189,55.12816 -2.66639,4.99638 -33.91343,-35.1333 1.31275,-2.36612 -10.34336,-10.93131 2.47303,-4.62063 23.86408,24.92363 -1.35364,2.63024 z"
       style="fill:#000000;fill-opacity:1;stroke:none;stroke-width:3.49999"
       id="path1125"
       inkscape:transform-center-x="28.337969"
       inkscape:transform-center-y="3.6034749" />
    <path
       inkscape:transform-center-y="-24.325361"
       inkscape:transform-center-x="10.963106"
       id="path1127"
       style="fill:#000000;fill-opacity:1;stroke:none;stroke-width:3.49999"
       d="m 143.5691,172.5738 -29.57418,2.91752 -6.42658,-1.28383 29.17819,-2.85492 z m -1.45081,5.37061 -30.06603,9.21887 -6.18346,-1.45756 29.91316,-9.33 z m 6.90607,1.7492 -15.11623,5.36671 -3.9463,-0.99953 14.24074,-5.76948 z m 6.49032,6.82083 -11.62849,6.03294 -5.08574,-1.36055 -8.46064,5.53197 -3.98806,-1.26354 -18.32468,10.74467 -6.97543,-1.33231 33.24574,-19.05703 4.02979,1.52752 5.5432,-3.44712 4.25204,1.22178 -7.7104,5.14276 9.90581,-4.94872 z m -1.31881,5.34975 -13.19718,12.36922 -2.12603,-0.6109 -11.98836,12.31336 -4.9329,-1.24942 -18.7545,14.87148 -6.48919,-1.67981 34.56395,-26.97727 2.32064,0.98601 7.9597,-8.69985 4.40491,1.33291 3.19496,-3.75228 z m -1.63748,9.3237 -15.12631,22.4155 -3.07087,-0.59679 -11.36223,16.27319 -3.72406,-1.30526 -22.545663,24.26514 -6.489198,-1.67981 37.048131,-40.35841 2.50115,0.41628 9.1956,-12.00706 2.654,0.52742 6.66739,-9.17198 z m -35.23507,70.64842 -5.57199,-1.01307 23.09727,-43.02308 2.65399,0.5274 7.25009,-13.18768 5.15515,0.9437 -16.44455,30.33576 -2.91799,-0.48567 z" />
    <path
       d="m 161.68564,153.09399 -11.78641,-27.28048 -0.73453,-6.51226 11.60618,26.92236 z m -5.55732,0.25386 -17.93819,-25.82973 -0.49501,-6.33361 17.99748,25.65028 z m 0.43731,7.11073 -9.71574,-12.76349 -0.2499,-4.06324 9.83273,11.80691 z m -4.51999,8.2594 -9.28804,-9.23854 -0.25307,-5.2585 -7.84603,-6.37377 -0.0112,-4.18343 -15.81538,-14.18151 -0.85552,-7.04981 28.27737,25.86194 -0.22758,4.30357 4.97166,4.22993 0.13133,4.42215 -7.24681,-5.77773 7.73065,7.92794 z m -5.49725,0.37324 -15.80106,-8.80284 -0.0657,-2.21108 -15.37968,-7.66846 -0.31237,-5.07907 -19.87704,-13.334 -0.376434,-6.69251 36.222804,24.70522 -0.23235,2.5107 10.71082,4.93178 0.072,4.6016 4.5471,1.90032 z m -9.37946,1.28007 -25.95758,-7.58049 -0.36687,-3.10673 -18.960667,-5.86602 0.108996,-3.94467 -29.979084,-14.08398 -0.376437,-6.69251 49.724812,22.99583 0.36528,2.50911 14.23733,5.10167 0.30597,2.68855 10.76692,3.55708 z m -78.023495,-12.04339 -0.732142,-5.61582 48.013817,8.89621 0.30599,2.68853 14.76931,2.88902 0.67126,5.19765 -33.903052,-6.42379 -0.426147,-2.92728 z"
       style="fill:#000000;fill-opacity:1;stroke:none;stroke-width:3.49999"
       id="path1129"
       inkscape:transform-center-x="-21.188155"
       inkscape:transform-center-y="-20.324457" />
  </g>
  <g
     sodipodi:insensitive="true"
     inkscape:label="Layer 1"
     inkscape:groupmode="layer"
     id="layer1"
     style="display:none;opacity:0.38" />
</svg>
