<?xml version="1.0" encoding="UTF-8" standalone="no"?>
<svg
   xmlns:dc="http://purl.org/dc/elements/1.1/"
   xmlns:cc="http://creativecommons.org/ns#"
   xmlns:rdf="http://www.w3.org/1999/02/22-rdf-syntax-ns#"
   xmlns:svg="http://www.w3.org/2000/svg"
   xmlns="http://www.w3.org/2000/svg"
   xmlns:sodipodi="http://sodipodi.sourceforge.net/DTD/sodipodi-0.dtd"
   xmlns:inkscape="http://www.inkscape.org/namespaces/inkscape"
   sodipodi:docname="Karlan_Z.svg"
   inkscape:version="1.0 (4035a4fb49, 2020-05-01)"
   id="svg8"
   version="1.1"
   viewBox="0 0 338.66666 338.66668"
   height="1280"
   width="1280"
   inkscape:export-filename="D:\Titipan\Projects\Codes\Rhodes Wiki Indo\Icon Assets\Higashi_W.png"
   inkscape:export-xdpi="300"
   inkscape:export-ydpi="300">
  <defs
     id="defs2">
    <inkscape:path-effect
       effect="powerstroke"
       id="path-effect892"
       is_visible="true"
       lpeversion="1"
       offset_points="0,3.40217"
       sort_points="true"
       interpolator_type="CubicBezierJohan"
       interpolator_beta="0.2"
       start_linecap_type="zerowidth"
       linejoin_type="extrp_arc"
       miter_limit="4"
       scale_width="1"
       end_linecap_type="zerowidth" />
    <inkscape:path-effect
       effect="powerstroke"
       id="path-effect887"
       is_visible="true"
       lpeversion="1"
       offset_points="0,3.40217"
       sort_points="true"
       interpolator_type="CubicBezierJohan"
       interpolator_beta="0.2"
       start_linecap_type="zerowidth"
       linejoin_type="extrp_arc"
       miter_limit="4"
       scale_width="1"
       end_linecap_type="zerowidth" />
    <inkscape:path-effect
       effect="powerstroke"
       id="path-effect882"
       is_visible="true"
       lpeversion="1"
       offset_points="2.7941224,-3.4021738 | 2.7941224,-3.4021738"
       sort_points="true"
       interpolator_type="CubicBezierJohan"
       interpolator_beta="0.2"
       start_linecap_type="zerowidth"
       linejoin_type="extrp_arc"
       miter_limit="4"
       scale_width="1"
       end_linecap_type="zerowidth" />
    <inkscape:path-effect
       effect="powerstroke"
       id="path-effect877"
       is_visible="true"
       lpeversion="1"
       offset_points="0,3.01003"
       sort_points="true"
       interpolator_type="CubicBezierJohan"
       interpolator_beta="0.2"
       start_linecap_type="zerowidth"
       linejoin_type="extrp_arc"
       miter_limit="4"
       scale_width="1"
       end_linecap_type="zerowidth" />
    <inkscape:path-effect
       effect="powerstroke"
       id="path-effect872"
       is_visible="true"
       lpeversion="1"
       offset_points="0,3.01003"
       sort_points="true"
       interpolator_type="CubicBezierJohan"
       interpolator_beta="0.2"
       start_linecap_type="zerowidth"
       linejoin_type="extrp_arc"
       miter_limit="4"
       scale_width="1"
       end_linecap_type="zerowidth" />
    <inkscape:path-effect
       effect="powerstroke"
       id="path-effect868"
       is_visible="true"
       lpeversion="1"
       offset_points="11.631982,3.0100329"
       sort_points="true"
       interpolator_type="CubicBezierJohan"
       interpolator_beta="0.2"
       start_linecap_type="zerowidth"
       linejoin_type="extrp_arc"
       miter_limit="4"
       scale_width="1"
       end_linecap_type="zerowidth" />
    <inkscape:path-effect
       effect="powerstroke"
       id="path-effect864"
       is_visible="true"
       lpeversion="1"
       offset_points="156.61386,0.938298"
       sort_points="true"
       interpolator_type="CubicBezierJohan"
       interpolator_beta="0.2"
       start_linecap_type="zerowidth"
       linejoin_type="extrp_arc"
       miter_limit="4"
       scale_width="1"
       end_linecap_type="zerowidth" />
  </defs>
  <sodipodi:namedview
     inkscape:pagecheckerboard="false"
     units="px"
     showgrid="false"
     inkscape:document-rotation="0"
     inkscape:current-layer="layer1"
     inkscape:document-units="mm"
     inkscape:cy="706.91433"
     inkscape:cx="790.04404"
     inkscape:zoom="0.47387118"
     inkscape:pageshadow="2"
     inkscape:pageopacity="0"
     borderopacity="1.0"
     bordercolor="#666666"
     pagecolor="#910000"
     id="base"
     inkscape:snap-global="false"
     showguides="true"
     inkscape:guide-bbox="true"
     inkscape:snap-midpoints="true"
     inkscape:snap-bbox="false"
     inkscape:snap-bbox-midpoints="false">
    <sodipodi:guide
       id="guide937"
       orientation="0,-1"
       position="138.12046,86.294983" />
    <sodipodi:guide
       id="guide939"
       orientation="0,-1"
       position="142.30804,75.826025" />
    <sodipodi:guide
       id="guide1069"
       orientation="0,-1"
       position="218.62541,142.84142" />
    <sodipodi:guide
       id="guide1071"
       orientation="0,-1"
       position="218.42801,124.08804" />
  </sodipodi:namedview>
  <metadata
     id="metadata5">
    <rdf:RDF>
      <cc:Work
         rdf:about="">
        <dc:format>image/svg+xml</dc:format>
        <dc:type
           rdf:resource="http://purl.org/dc/dcmitype/StillImage" />
        <dc:title></dc:title>
      </cc:Work>
    </rdf:RDF>
  </metadata>
  <g
     inkscape:label="Objects"
     id="layer3"
     inkscape:groupmode="layer"
     style="display:inline">
    <path
       d="m 206.93945,98.458984 -0.65234,0.371094 c 22.02059,38.865182 16.76366,72.999222 -1.2793,96.179692 -18.04295,23.18046 -48.91654,35.38404 -78.17969,30.22461 l -0.13085,0.73828 c 29.55092,5.21017 60.68316,-7.09509 78.90234,-30.50196 18.21918,-23.40687 23.47875,-57.93771 1.33984,-97.011716 z M 174.49805,88.1875 173.9375,88.683594 c 27.52711,31.145846 31.64325,63.695856 21.8125,89.761716 -9.83075,26.06586 -33.64355,45.6536 -62.07812,50.76758 l 0.13281,0.73828 c 28.69108,-5.16011 52.71843,-24.91637 62.64648,-51.24023 9.92806,-26.32387 5.72135,-59.21086 -21.95312,-90.52344 z M 94.673828,174.5 l -0.628906,0.40625 c 14.908428,23.17169 41.815968,39.98174 70.144528,42.87695 28.32857,2.89522 58.08784,-8.17515 78.54102,-40.70898 l -0.63477,-0.39844 C 221.77593,208.9974 192.34958,219.90733 164.26562,217.03711 136.18167,214.16689 109.44923,197.46492 94.673828,174.5 Z M 200.89988,101.88267 c -12.65547,0.10985 -44.46394,3.24268 -70.81015,29.58889 -25.5667,25.56671 -27.63655,60.01081 -27.63655,60.01081 5.92301,-9.84721 18.22996,-20.8848 31.44407,-25.06876 0.70618,-3.43903 1.64491,-6.83847 2.82153,-10.17354 8.94286,-25.34782 31.61484,-46.96776 69.66914,-54.18997 -0.21776,-0.0208 -2.14639,-0.19644 -5.48804,-0.16743 z m 0.8785,1.89963 c -34.97229,8.01509 -55.87456,28.67737 -64.35266,52.70789 -1.11978,3.17394 -2.02064,6.40725 -2.70991,9.67796 0.16886,-0.0497 0.33732,-0.10351 0.50642,-0.15089 3.29888,-6.49104 21.10175,-44.55455 66.55615,-62.23496 z m -5.70766,36.58174 c -9.03431,-0.07 -19.04074,1.31007 -29.29951,5.27565 -7.09982,7.75455 -12.24546,16.55081 -15.52721,25.85268 -0.8832,2.50336 -1.63043,5.04348 -2.24534,7.60988 1.11167,-0.0258 2.24293,0.016 3.39772,0.14107 6.68432,-6.09428 24.47714,-30.02462 71.85504,-33.95348 -6.8622,-2.42566 -16.74245,-4.83719 -28.1807,-4.9258 z m -30.85342,5.89628 c -10.32133,4.24536 -20.8601,11.15456 -30.88958,21.87825 -0.91715,4.9891 -1.34549,10.05499 -1.29346,15.12311 4.88674,-1.99247 9.81178,-3.85064 15.1877,-4.13101 0.63007,-2.66057 1.39979,-5.29403 2.3151,-7.88841 3.15723,-8.94894 8.02804,-17.43191 14.68024,-24.98194 z m 27.07742,20.40186 c -0.84303,0.009 -1.68499,0.0385 -2.52594,0.0785 -3.81524,5.95759 -6.92916,11.86303 -9.39685,17.68213 14.0661,-5.74786 33.71329,-8.271 55.52633,-3.40289 -13.41529,-9.81677 -28.64381,-14.52005 -43.60354,-14.35778 z m -3.44475,0.12609 c -14.651,0.89345 -28.88567,6.4704 -40.7293,16.49253 -0.34043,1.87126 -0.61233,3.75325 -0.81545,5.64203 7.65451,-1.74972 15.1282,-1.90355 22.66011,0.9803 2.73041,-1.84679 5.89415,-3.55547 9.42165,-5.06325 2.46759,-5.94221 5.60514,-11.97247 9.46299,-18.05161 z m -55.46638,2.38021 c -0.24251,0.26599 -0.48574,0.52631 -0.72761,0.79685 l -1.38182,14.01569 c 0.33785,-0.13866 0.676,-0.27591 1.01389,-0.41445 -0.0668,-4.82044 0.29458,-9.64082 1.09554,-14.39809 z m 13.83688,14.88747 c -2.39552,2.09469 -4.69121,4.37051 -6.86573,6.8342 2.07473,-0.68755 4.13096,-1.29026 6.1743,-1.7849 0.17611,-1.68923 0.40667,-3.37313 0.69143,-5.0493 z m -29.36978,11.7693 v 18.75338 h 4.73769 v -7.79745 h 5.52731 l 4.7377,7.79745 h 5.93245 c -0.5471,-1.30508 -1.06079,-2.62142 -1.53996,-3.94808 h -1.53013 l -4.34289,-6.21822 2.96002,-3.73208 c -0.36514,-1.61055 -0.68255,-3.22949 -0.95084,-4.855 h -0.23255 l -5.0338,6.81044 h -5.52731 v -6.81044 z m 16.29357,0 c 0.22849,1.37114 0.49052,2.73783 0.78859,4.09846 l 3.25045,-4.09846 z m 15.88327,0 0.0987,14.8053 h -2.19574 c 0.21676,1.32058 0.46544,2.63705 0.74673,3.94808 h 14.28026 l 0.0987,-4.24419 h -8.48837 v -3.45456 h 8.38967 l 0.88832,-4.24419 h -9.27799 v -2.66495 h 10.16631 l 1.57923,-3.49075 v -0.65474 z m 16.28583,0.65474 v 18.09864 h 4.24419 v -7.99486 h 2.59777 c 0.19622,-1.24354 0.42373,-2.49444 0.67799,-3.75068 h -3.27732 v -2.96105 h 3.92845 c 0.31887,-1.3428 0.66857,-2.69137 1.05523,-4.04679 h -8.9302 z m 9.99784,-0.65474 c -0.39034,1.35543 -0.74374,2.70438 -1.06557,4.04679 h 6.8585 v 2.96105 h -7.51634 c -0.25675,1.25653 -0.48716,2.50719 -0.68523,3.75068 h 3.66283 l 3.75067,7.99486 h 5.32991 v -7.79745 h 11.74553 v 7.79745 h 20.03651 v -11.74554 h -11.44943 v 3.75068 h 7.50135 v 3.94808 h -11.74554 v -10.85722 h 15.89102 v -3.84938 h -30.88235 c -5.36289,8.20403 -6.22968,12.05758 -6.56032,16.95969 -0.007,-6.0899 1.12588,-11.79965 3.90829,-16.95969 z m 10.62933,4.04679 h 11.54813 v 2.96105 h -11.54813 z m -48.89418,10.75851 c 0.48408,1.32674 1.00221,2.64335 1.55495,3.94808 h 8.3075 c -0.27867,-1.31114 -0.52581,-2.62753 -0.74052,-3.94808 z M 168.58398,80.203125 c -45.87793,-2e-6 -83.080077,37.202145 -83.080074,83.080075 0,45.87794 37.202144,83.08008 83.080074,83.08008 45.87794,0 83.07813,-37.20214 83.07813,-83.08008 0,-45.87793 -37.20019,-83.080075 -83.07813,-83.080075 z m 0,1 c 45.3375,0 82.07813,36.742585 82.07813,82.080075 0,45.3375 -36.74063,82.08008 -82.07813,82.08008 -45.33749,0 -82.080074,-36.74258 -82.080074,-82.08008 -2e-6,-45.33749 36.742584,-82.080077 82.080074,-82.080075 z m -0.0981,2.949876 a 79.230002,79.230002 0 0 0 -79.132639,79.229789 79.230002,79.230002 0 0 0 79.229789,79.2303 79.230002,79.230002 0 0 0 79.22979,-79.2303 79.230002,79.230002 0 0 0 -79.22979,-79.229789 79.230002,79.230002 0 0 0 -0.0971,0 z m 0.0971,5.025017 a 74.204903,74.204903 0 0 1 74.20477,74.204772 74.204903,74.204903 0 0 1 -74.20477,74.20529 74.204903,74.204903 0 0 1 -74.204772,-74.20529 74.204903,74.204903 0 0 1 74.204772,-74.204772 z"
       style="color:#000000;font-style:normal;font-variant:normal;font-weight:normal;font-stretch:normal;font-size:medium;line-height:normal;font-family:sans-serif;font-variant-ligatures:normal;font-variant-position:normal;font-variant-caps:normal;font-variant-numeric:normal;font-variant-alternates:normal;font-variant-east-asian:normal;font-feature-settings:normal;font-variation-settings:normal;text-indent:0;text-align:start;text-decoration:none;text-decoration-line:none;text-decoration-style:solid;text-decoration-color:#000000;letter-spacing:normal;word-spacing:normal;text-transform:none;writing-mode:lr-tb;direction:ltr;text-orientation:mixed;dominant-baseline:auto;baseline-shift:baseline;text-anchor:start;white-space:normal;shape-padding:0;shape-margin:0;inline-size:0;clip-rule:nonzero;display:inline;overflow:visible;visibility:visible;opacity:1;isolation:auto;mix-blend-mode:normal;color-interpolation:sRGB;color-interpolation-filters:linearRGB;solid-color:#000000;solid-opacity:1;vector-effect:none;fill:#000000;fill-opacity:1;fill-rule:nonzero;stroke:none;stroke-width:0.75;stroke-linecap:butt;stroke-linejoin:miter;stroke-miterlimit:4;stroke-dasharray:none;stroke-dashoffset:0;stroke-opacity:1;color-rendering:auto;image-rendering:auto;shape-rendering:auto;text-rendering:auto;enable-background:accumulate;stop-color:#000000;stop-opacity:1"
       id="path1057" />
    <path
       d="m 253.55204,261.75882 a 1.2911713,1.2911713 0 0 1 -1.29118,1.29117 1.2911713,1.2911713 0 0 1 -1.29117,-1.29117 1.2911713,1.2911713 0 0 1 1.29117,-1.29117 1.2911713,1.2911713 0 0 1 1.29118,1.29117 m -28.62366,0 c 0,0.71309 -0.80016,2.82106 -2.79638,2.82106 -0.12154,0 1.43878,-1.59603 1.32728,-1.62743 -0.5427,-0.15279 -1.11324,-0.60208 -1.11324,-1.19363 0,-0.71309 0.57808,-1.29117 1.29117,-1.29117 0.71309,0 1.29117,0.57808 1.29117,1.29117 m -21.76817,-9.98039 a 5.7928231,5.7928231 0 0 0 -5.75056,5.79293 5.7928231,5.7928231 0 0 0 5.79241,5.79292 5.7928231,5.7928231 0 0 0 5.24671,-3.33726 l -2.65823,-0.80254 a 3.0708941,3.0708941 0 0 1 -2.58848,1.41749 3.0708941,3.0708941 0 0 1 -3.07061,-3.07061 3.0708941,3.0708941 0 0 1 3.07061,-3.07114 3.0708941,3.0708941 0 0 1 2.21382,0.94258 l 2.80138,-0.77049 a 5.7928231,5.7928231 0 0 0 -5.0152,-2.89388 5.7928231,5.7928231 0 0 0 -0.0418,0 z m 18.36294,9.98039 a 1.2911713,1.2911713 0 0 1 -1.29117,1.29117 1.2911713,1.2911713 0 0 1 -1.29117,-1.29117 1.2911713,1.2911713 0 0 1 1.29117,-1.29117 1.2911713,1.2911713 0 0 1 1.29117,1.29117 m -7.89381,-9.98039 a 5.7928231,5.7928231 0 0 0 -5.75056,5.79293 5.7928231,5.7928231 0 0 0 5.79241,5.79292 5.7928231,5.7928231 0 0 0 5.79293,-5.79292 5.7928231,5.7928231 0 0 0 -5.79293,-5.79293 5.7928231,5.7928231 0 0 0 -0.0418,0 z m 0.0418,2.72179 a 3.0708941,3.0708941 0 0 1 3.07113,3.07114 3.0708941,3.0708941 0 0 1 -3.07113,3.07061 3.0708941,3.0708941 0 0 1 -3.07061,-3.07061 3.0708941,3.0708941 0 0 1 3.07061,-3.07114 z m -27.49822,8.34042 V 252.37168 H 193.92 v 2.33807 h -5.12979 v 1.67503 h 3.80372 v 2.30317 h -3.76882 v 1.77973 H 193.92 v 2.37296 z m 55.13829,-10.46897 v 10.46913 h 5.0829 c 7.24925,0 6.43248,-10.46913 0,-10.46913 z m 2.50321,2.48202 h 2.6727 c 2.97396,0 3.43054,5.50457 0,5.50457 h -2.6727 z m -68.66702,-2.48202 v 10.46913 h 5.08289 c 7.24926,0 6.43248,-10.46913 0,-10.46913 z m 2.5032,2.48202 h 2.67271 c 2.97396,0 3.43054,5.50457 0,5.50457 h -2.67271 z m 54.44558,-2.48201 h 8.48839 v 2.28021 h -2.81301 v 8.18875 h -2.71432 v -8.18875 h -2.96106 z m -85.67139,0 h 8.48839 v 2.28021 h -2.81301 v 8.18875 h -2.71432 v -8.18875 h -2.96106 z m -13.37422,10.46912 v -10.46912 h 2.86242 l 4.2442,5.73479 v -5.73479 h 2.86237 v 10.46896 h -2.56626 l -4.54031,-6.116 v 6.116 z m 92.8346,-10.46912 h 2.89642 v 7.99131 h 4.71103 v 2.47765 h -7.60745 z m -110.97096,0 h 2.89642 v 7.99131 h 4.71103 v 2.47765 h -7.60745 z m 40.56178,-1e-5 v 10.46913 h 2.81482 v -3.28042 h 1.22111 l 1.81488,3.28042 h 3.17551 l -2.58227,-4.04833 c 3.33272,-0.49074 2.68056,-6.4208 -1.91926,-6.4208 z m 3.0241,2.37298 h 1.53556 c 1.81339,0 1.76392,2.33785 0,2.33785 h -1.53556 z m -53.13551,-2.37298 v 10.46913 h 2.81481 v -3.28042 h 1.22112 l 1.81487,3.28042 h 3.17552 l -2.58227,-4.04833 c 3.33272,-0.49074 2.68055,-6.4208 -1.91926,-6.4208 z m 3.0241,2.37298 h 1.53556 c 1.81338,0 1.76392,2.33785 0,2.33785 h -1.53556 z m 60.04694,-2.37298 -4.04679,10.46913 h 2.61535 l 0.64182,-1.72392 h 3.99717 l 0.44442,1.72392 h 2.81275 l -4.04678,-10.46913 z m 1.18442,3.36569 1.18442,3.05976 h -2.31975 z m -43.03419,-3.36569 -4.04679,10.46913 h 2.61535 l 0.64182,-1.72392 h 3.99717 l 0.44442,1.72392 h 2.81275 l -4.04678,-10.46913 z m 1.18442,3.36569 1.18442,3.05976 h -2.31975 z m -28.870415,-3.36569 -4.046781,10.46913 h 2.615345 l 0.641821,-1.72392 h 3.99717 l 0.44442,1.72392 h 2.81275 l -4.04679,-10.46913 z m 1.184425,3.36569 1.18442,3.05976 h -2.319752 z m -15.101665,7.10328 v -10.46896 h 2.763663 v 3.46464 l 3.701336,-3.46464 h 3.257177 l -4.392253,4.40231 4.540306,6.06665 h -3.207825 l -3.010418,-4.33936 -0.83897,0.74027 v 3.59909 z"
       style="opacity:1;fill:#000000;fill-opacity:1;stroke:none;stroke-width:0.750001;stroke-miterlimit:4;stroke-dasharray:none;stroke-opacity:1"
       id="circle1043" />
  </g>
  <g
     style="display:none;opacity:0.357616"
     id="layer1"
     inkscape:groupmode="layer"
     inkscape:label="Layer 1"
     sodipodi:insensitive="true" />
</svg>
