<?xml version="1.0" encoding="UTF-8" standalone="no"?>
<svg
   xmlns:dc="http://purl.org/dc/elements/1.1/"
   xmlns:cc="http://creativecommons.org/ns#"
   xmlns:rdf="http://www.w3.org/1999/02/22-rdf-syntax-ns#"
   xmlns:svg="http://www.w3.org/2000/svg"
   xmlns="http://www.w3.org/2000/svg"
   xmlns:sodipodi="http://sodipodi.sourceforge.net/DTD/sodipodi-0.dtd"
   xmlns:inkscape="http://www.inkscape.org/namespaces/inkscape"
   sodipodi:docname="Kazimierz_Z.svg"
   inkscape:version="1.0 (4035a4fb49, 2020-05-01)"
   id="svg8"
   version="1.1"
   viewBox="0 0 338.66666 338.66668"
   height="1280"
   width="1280"
   inkscape:export-filename="D:\Titipan\Projects\Codes\Rhodes Wiki Indo\Icon Assets\Higashi_W.png"
   inkscape:export-xdpi="300"
   inkscape:export-ydpi="300">
  <defs
     id="defs2">
    <inkscape:path-effect
       effect="powerstroke"
       id="path-effect892"
       is_visible="true"
       lpeversion="1"
       offset_points="0,3.40217"
       sort_points="true"
       interpolator_type="CubicBezierJohan"
       interpolator_beta="0.2"
       start_linecap_type="zerowidth"
       linejoin_type="extrp_arc"
       miter_limit="4"
       scale_width="1"
       end_linecap_type="zerowidth" />
    <inkscape:path-effect
       effect="powerstroke"
       id="path-effect887"
       is_visible="true"
       lpeversion="1"
       offset_points="0,3.40217"
       sort_points="true"
       interpolator_type="CubicBezierJohan"
       interpolator_beta="0.2"
       start_linecap_type="zerowidth"
       linejoin_type="extrp_arc"
       miter_limit="4"
       scale_width="1"
       end_linecap_type="zerowidth" />
    <inkscape:path-effect
       effect="powerstroke"
       id="path-effect882"
       is_visible="true"
       lpeversion="1"
       offset_points="2.7941224,-3.4021738 | 2.7941224,-3.4021738"
       sort_points="true"
       interpolator_type="CubicBezierJohan"
       interpolator_beta="0.2"
       start_linecap_type="zerowidth"
       linejoin_type="extrp_arc"
       miter_limit="4"
       scale_width="1"
       end_linecap_type="zerowidth" />
    <inkscape:path-effect
       effect="powerstroke"
       id="path-effect877"
       is_visible="true"
       lpeversion="1"
       offset_points="0,3.01003"
       sort_points="true"
       interpolator_type="CubicBezierJohan"
       interpolator_beta="0.2"
       start_linecap_type="zerowidth"
       linejoin_type="extrp_arc"
       miter_limit="4"
       scale_width="1"
       end_linecap_type="zerowidth" />
    <inkscape:path-effect
       effect="powerstroke"
       id="path-effect872"
       is_visible="true"
       lpeversion="1"
       offset_points="0,3.01003"
       sort_points="true"
       interpolator_type="CubicBezierJohan"
       interpolator_beta="0.2"
       start_linecap_type="zerowidth"
       linejoin_type="extrp_arc"
       miter_limit="4"
       scale_width="1"
       end_linecap_type="zerowidth" />
    <inkscape:path-effect
       effect="powerstroke"
       id="path-effect868"
       is_visible="true"
       lpeversion="1"
       offset_points="11.631982,3.0100329"
       sort_points="true"
       interpolator_type="CubicBezierJohan"
       interpolator_beta="0.2"
       start_linecap_type="zerowidth"
       linejoin_type="extrp_arc"
       miter_limit="4"
       scale_width="1"
       end_linecap_type="zerowidth" />
    <inkscape:path-effect
       effect="powerstroke"
       id="path-effect864"
       is_visible="true"
       lpeversion="1"
       offset_points="156.61386,0.938298"
       sort_points="true"
       interpolator_type="CubicBezierJohan"
       interpolator_beta="0.2"
       start_linecap_type="zerowidth"
       linejoin_type="extrp_arc"
       miter_limit="4"
       scale_width="1"
       end_linecap_type="zerowidth" />
  </defs>
  <sodipodi:namedview
     inkscape:pagecheckerboard="false"
     units="px"
     showgrid="false"
     inkscape:document-rotation="0"
     inkscape:current-layer="layer3"
     inkscape:document-units="mm"
     inkscape:cy="622.50734"
     inkscape:cx="719.37958"
     inkscape:zoom="0.47387118"
     inkscape:pageshadow="2"
     inkscape:pageopacity="0"
     borderopacity="1.0"
     bordercolor="#666666"
     pagecolor="#910000"
     id="base"
     inkscape:snap-global="false"
     showguides="true"
     inkscape:guide-bbox="true"
     inkscape:snap-midpoints="true"
     inkscape:snap-bbox="false"
     inkscape:snap-bbox-midpoints="false" />
  <metadata
     id="metadata5">
    <rdf:RDF>
      <cc:Work
         rdf:about="">
        <dc:format>image/svg+xml</dc:format>
        <dc:type
           rdf:resource="http://purl.org/dc/dcmitype/StillImage" />
        <dc:title></dc:title>
      </cc:Work>
    </rdf:RDF>
  </metadata>
  <g
     inkscape:label="Objects"
     id="layer3"
     inkscape:groupmode="layer"
     style="display:inline">
    <path
       inkscape:export-ydpi="300"
       inkscape:export-xdpi="300"
       sodipodi:nodetypes="ccccc"
       d="m 112.3232,237.08287 h 23.61724 l 24.47816,20.33267 h -23.61723 z"
       style="opacity:1;fill:#000000;fill-opacity:1;stroke:none;stroke-width:0.750001;stroke-miterlimit:4;stroke-dasharray:none;stroke-opacity:1"
       id="rect1662" />
    <path
       inkscape:export-ydpi="300"
       inkscape:export-xdpi="300"
       id="path1665"
       style="opacity:1;fill:#000000;fill-opacity:1;stroke:none;stroke-width:0.750001;stroke-miterlimit:4;stroke-dasharray:none;stroke-opacity:1"
       d="m 145.88198,237.08287 h 21.50057 l 24.47816,20.33267 h -21.50056 z"
       sodipodi:nodetypes="ccccc" />
    <path
       inkscape:export-ydpi="300"
       inkscape:export-xdpi="300"
       sodipodi:nodetypes="ccccccccc"
       d="m 177.0719,237.08287 h 21.50057 l 24.47816,20.33267 h -15.66057 l -4.33432,-3.8367 h -2.40071 l 4.18758,3.8367 h -3.29254 z"
       style="opacity:1;fill:#000000;fill-opacity:1;stroke:none;stroke-width:0.750001;stroke-miterlimit:4;stroke-dasharray:none;stroke-opacity:1"
       id="path1667" />
    <path
       inkscape:export-ydpi="300"
       inkscape:export-xdpi="300"
       sodipodi:nodetypes="cccccccccccccccccccccccccccccccccccccccccccccccccccccccccccccccccccccccccccccccccccccccccccccccccccccccccccc"
       transform="scale(0.26458333)"
       d="m 848.04883,278.85938 -104.49414,320.26953 22.68554,30.57617 0.28711,0.24219 z m -156,3.73437 -56.70117,173.78906 12.55468,16.33203 z m 80,0 -80.61133,247.07031 17.76172,23.59766 z m -129.28711,400.08398 -0.7832,0.45118 2.42773,0.26953 z m 1.96289,0.86133 24.15039,28.23633 0.82227,0.0371 2.53515,-11.22852 -8.20703,-8.58007 z m 67.79687,18.91016 -2.85351,0.54297 -12.69922,38.91992 32.71289,37.38477 1.76758,1.71484 13.93945,-60.03125 -17.57226,-7.33985 -7.46094,-11.1914 z m -184.95507,84.27734 -10.45508,32.04297 6.09961,1.69922 -0.56641,2.44531 -8.80859,-2.45508 -18.03906,22.50977 16.16992,4.50586 -48.16407,19.44922 54.58789,15.21094 -34.52539,123.89643 12.61719,3.7247 33.80664,-121.31254 8.39258,8.55078 h 12.12305 l -10.91211,-8.86719 46.47851,12.95313 -22.8125,-28.65039 34.83203,9.70508 -34.52539,123.89643 12.61719,3.7247 34.58008,-124.08988 55.30859,15.41406 -8.48828,-10.66211 -73.34375,-58.35938 -8.74218,10.91016 16.16992,4.50586 -23.07813,9.32031 -2.67383,-21.74023 -8.73828,-2.4336 0.85547,-2.36523 6.15235,1.71484 3.10937,-13.39453 z m 25.16992,72.10938 6.56445,1.83008 -3.86523,1.56054 z m 171.52148,15.75976 -6.80273,15.80664 24.91797,6.94336 z m -40.34375,18.63086 -13.75976,0.37696 -30.28907,108.69338 12.61719,3.7246 z m -199.79101,113.72264 0.55859,4.9434 2.98633,0.8398 -2.05274,1.6778 1.86524,3.8242 3.35742,-2.0508 -1.11914,-2.8926 2.70508,1.1192 3.35742,-3.6368 z m 79.39843,0.2637 0.56055,4.9433 2.98438,0.8399 -2.05274,1.6777 1.86524,3.8242 3.35742,-2.0507 -1.11914,-2.8926 2.70508,1.1191 3.35742,-3.6367 z m 76.125,-2.416 0.5586,4.9414 2.98437,0.8398 -2.05078,1.6797 1.86524,3.8223 3.35742,-2.0508 -1.11914,-2.8906 2.70312,1.1191 3.35742,-3.6387 z"
       style="opacity:1;fill:#000000;fill-opacity:1;stroke:none;stroke-width:2.83465;stroke-miterlimit:4;stroke-dasharray:none;stroke-opacity:1"
       id="path1682" />
    <path
       inkscape:export-ydpi="300"
       inkscape:export-xdpi="300"
       sodipodi:nodetypes="cccccccccscccccccccccccccccccc"
       id="path1690"
       d="m 161.36154,176.29725 1.95421,-9.63144 1.11668,8.37517 11.30648,4.74592 1.9542,2.65214 14.0982,0.69793 1.53545,2.93131 5.44386,2.37297 8.93351,-8.79393 c 0,0 -46.62176,-61.83664 -46.62176,-61.13872 0,0.69794 0.55834,17.30868 0.55834,17.30868 -18.02765,3.01811 -25.22362,14.49846 -31.54646,26.66095 l 9.63144,7.11889 -3.21048,4.74593 -7.81682,-6.14179 c -0.60678,3.68141 -0.96951,7.36282 -0.91929,11.04424 l 5.10687,0.5414 3.76883,-5.58344 4.32717,3.90841 h 6.9793 l 8.096,6.56055 h -7.25848 l -7.81682,-6.56055 -6.28138,10.46896 -6.28137,-1.11669 3.62924,12.42317 50.53017,40.20079 2.09379,-2.65213 9.63144,-24.1484 z"
       style="opacity:1;fill:#000000;fill-opacity:1;stroke:none;stroke-width:0.750001;stroke-miterlimit:4;stroke-dasharray:none;stroke-opacity:1" />
  </g>
  <g
     style="display:none;opacity:0.357616"
     id="layer1"
     inkscape:groupmode="layer"
     inkscape:label="Layer 1"
     sodipodi:insensitive="true" />
</svg>
