<?xml version="1.0" encoding="UTF-8" standalone="no"?>
<svg
   xmlns:dc="http://purl.org/dc/elements/1.1/"
   xmlns:cc="http://creativecommons.org/ns#"
   xmlns:rdf="http://www.w3.org/1999/02/22-rdf-syntax-ns#"
   xmlns:svg="http://www.w3.org/2000/svg"
   xmlns="http://www.w3.org/2000/svg"
   xmlns:sodipodi="http://sodipodi.sourceforge.net/DTD/sodipodi-0.dtd"
   xmlns:inkscape="http://www.inkscape.org/namespaces/inkscape"
   sodipodi:docname="Laterano_Z.svg"
   inkscape:version="1.0 (4035a4fb49, 2020-05-01)"
   id="svg8"
   version="1.1"
   viewBox="0 0 338.66666 338.66668"
   height="1280"
   width="1280"
   inkscape:export-filename="D:\Titipan\Projects\Codes\Rhodes Wiki Indo\Icon Assets\Higashi_W.png"
   inkscape:export-xdpi="300"
   inkscape:export-ydpi="300">
  <defs
     id="defs2">
    <inkscape:path-effect
       effect="powerstroke"
       id="path-effect892"
       is_visible="true"
       lpeversion="1"
       offset_points="0,3.40217"
       sort_points="true"
       interpolator_type="CubicBezierJohan"
       interpolator_beta="0.2"
       start_linecap_type="zerowidth"
       linejoin_type="extrp_arc"
       miter_limit="4"
       scale_width="1"
       end_linecap_type="zerowidth" />
    <inkscape:path-effect
       effect="powerstroke"
       id="path-effect887"
       is_visible="true"
       lpeversion="1"
       offset_points="0,3.40217"
       sort_points="true"
       interpolator_type="CubicBezierJohan"
       interpolator_beta="0.2"
       start_linecap_type="zerowidth"
       linejoin_type="extrp_arc"
       miter_limit="4"
       scale_width="1"
       end_linecap_type="zerowidth" />
    <inkscape:path-effect
       effect="powerstroke"
       id="path-effect882"
       is_visible="true"
       lpeversion="1"
       offset_points="2.7941224,-3.4021738 | 2.7941224,-3.4021738"
       sort_points="true"
       interpolator_type="CubicBezierJohan"
       interpolator_beta="0.2"
       start_linecap_type="zerowidth"
       linejoin_type="extrp_arc"
       miter_limit="4"
       scale_width="1"
       end_linecap_type="zerowidth" />
    <inkscape:path-effect
       effect="powerstroke"
       id="path-effect877"
       is_visible="true"
       lpeversion="1"
       offset_points="0,3.01003"
       sort_points="true"
       interpolator_type="CubicBezierJohan"
       interpolator_beta="0.2"
       start_linecap_type="zerowidth"
       linejoin_type="extrp_arc"
       miter_limit="4"
       scale_width="1"
       end_linecap_type="zerowidth" />
    <inkscape:path-effect
       effect="powerstroke"
       id="path-effect872"
       is_visible="true"
       lpeversion="1"
       offset_points="0,3.01003"
       sort_points="true"
       interpolator_type="CubicBezierJohan"
       interpolator_beta="0.2"
       start_linecap_type="zerowidth"
       linejoin_type="extrp_arc"
       miter_limit="4"
       scale_width="1"
       end_linecap_type="zerowidth" />
    <inkscape:path-effect
       effect="powerstroke"
       id="path-effect868"
       is_visible="true"
       lpeversion="1"
       offset_points="11.631982,3.0100329"
       sort_points="true"
       interpolator_type="CubicBezierJohan"
       interpolator_beta="0.2"
       start_linecap_type="zerowidth"
       linejoin_type="extrp_arc"
       miter_limit="4"
       scale_width="1"
       end_linecap_type="zerowidth" />
    <inkscape:path-effect
       effect="powerstroke"
       id="path-effect864"
       is_visible="true"
       lpeversion="1"
       offset_points="156.61386,0.938298"
       sort_points="true"
       interpolator_type="CubicBezierJohan"
       interpolator_beta="0.2"
       start_linecap_type="zerowidth"
       linejoin_type="extrp_arc"
       miter_limit="4"
       scale_width="1"
       end_linecap_type="zerowidth" />
  </defs>
  <sodipodi:namedview
     inkscape:pagecheckerboard="false"
     units="px"
     showgrid="false"
     inkscape:document-rotation="0"
     inkscape:current-layer="layer1"
     inkscape:document-units="mm"
     inkscape:cy="689.96649"
     inkscape:cx="870.86116"
     inkscape:zoom="0.47387118"
     inkscape:pageshadow="2"
     inkscape:pageopacity="0"
     borderopacity="1.0"
     bordercolor="#666666"
     pagecolor="#910000"
     id="base"
     inkscape:snap-global="false"
     showguides="true"
     inkscape:guide-bbox="true"
     inkscape:snap-midpoints="true"
     inkscape:snap-bbox="false"
     inkscape:snap-bbox-midpoints="false" />
  <metadata
     id="metadata5">
    <rdf:RDF>
      <cc:Work
         rdf:about="">
        <dc:format>image/svg+xml</dc:format>
        <dc:type
           rdf:resource="http://purl.org/dc/dcmitype/StillImage" />
        <dc:title></dc:title>
      </cc:Work>
    </rdf:RDF>
  </metadata>
  <g
     inkscape:label="Objects"
     id="layer3"
     inkscape:groupmode="layer"
     style="display:inline">
    <path
       sodipodi:nodetypes="ccccccsccccsc"
       transform="scale(0.26458333)"
       d="m 641.04883,377.26562 c -70.72506,0.1056 -129.35608,16.49221 -129.35743,36.66993 0,17.42502 31.17753,27.53046 77.33204,33.44922 l -0.33399,-0.44727 c -42.25787,-5.36749 -70.58703,-25.66932 -69.49414,-29.74805 0.002,-17.71881 54.70109,-31.36063 121.92969,-31.44726 h 0.59766 c 67.46211,-7e-5 122.15179,12.54798 122.15429,30.32812 -4e-5,6.35559 -26.69555,25.43248 -68.75195,30.82031 l -0.27539,0.4375 c 45.92108,-5.94669 75.41083,-16.76678 75.41016,-33.39257 -0.002,-20.25234 -57.54953,-36.6698 -128.53711,-36.66993 z"
       style="opacity:1;fill:#000000;fill-opacity:1;stroke:none;stroke-width:2.83465;stroke-miterlimit:4;stroke-dasharray:none;stroke-opacity:1"
       id="path1709" />
    <path
       sodipodi:nodetypes="csscccscccsscccsscccscccssccc"
       transform="scale(0.26458333)"
       d="m 608.28711,506.99414 c 10.1551,-6.76974 24.46175,-18.22926 25.85156,-14.77148 8.51214,21.17775 -6.29226,72.22306 -22.68555,73.85937 -11.45831,1.14372 -40.58751,-22.04774 -50.11914,-45.37109 l 18.46485,-0.52735 c -34.07868,-14.09612 -46.14688,-44.41158 -62.25391,-71.75 14.72134,98.48081 31.62643,87.1836 28.17969,100.04688 -2.43005,9.06913 -15.63034,3.20652 -27.12305,2.83008 11.60138,12.54727 26.93163,23.02313 47.48047,30.59961 -2.23506,3.88584 -11.64609,5.37836 -19.51953,7.38476 37.70585,4.79758 30.33369,-4.9806 49.83594,1.42774 31.02618,10.19508 40.90625,39.73366 40.90625,47.10937 0,10.64447 -3.55159,18.60577 -8.96875,24.26758 6.02495,2.28211 12.70878,13.28608 13.34284,22.05429 0.82058,-9.1381 8.06399,-19.77149 14.09075,-22.05429 -5.41716,-5.66181 -8.96875,-13.62311 -8.96875,-24.26758 0,-7.37571 9.87812,-36.91429 40.9043,-47.10937 19.50225,-6.40834 12.13204,3.36984 49.83789,-1.42774 -7.87344,-2.0064 -17.28642,-3.49892 -19.52149,-7.38476 20.54884,-7.57648 35.88105,-18.05234 47.48243,-30.59961 -11.49272,0.37644 -24.69496,6.23905 -27.125,-2.83008 -3.44674,-12.86328 13.45835,-1.56607 28.17968,-100.04688 -16.10702,27.33842 -28.17523,57.65388 -62.2539,71.75 l 18.46484,0.52735 c -9.53163,23.32335 -38.66082,46.51481 -50.11914,45.37109 -16.39328,-1.63631 -31.19768,-52.68162 -22.68555,-73.85937 1.38981,-3.45778 15.69647,8.00174 25.85157,14.77148 -16.57564,-15.3728 -28.47015,-55.49829 -34.51173,-76.50391 -4.38863,21.26319 -21.12672,62.59936 -33.01757,76.50391 z"
       style="opacity:1;fill:#000000;fill-opacity:1;stroke:none;stroke-width:2.83465;stroke-miterlimit:4;stroke-dasharray:none;stroke-opacity:1"
       id="path1719" />
    <path
       d="m 175.73891,214.96261 c 1.8002,0.59372 3.31536,0.0473 4.74593,-0.83752 0,0 5.0814,9.45692 7.67723,7.25848 3.21522,-2.72301 -6.28137,-11.58565 -6.28137,-11.58565 4.83339,-3.68136 8.24063,-8.78887 10.46895,-15.0753 0,0 -0.24242,8.82446 1.25628,13.40027 1.78581,5.45238 6.33448,10.31828 8.93351,15.77323 1.69842,3.56471 2.40983,7.57541 4.32717,11.0273 2.64791,4.76717 9.204,11.09401 12.00441,15.77323 3.82672,6.39408 7.25847,17.58786 7.25847,17.58786 0,0 -4.09715,-8.64144 -7.11889,-12.28359 -2.82284,-3.40242 -7.0963,-5.36506 -10.0502,-8.65434 -4.98435,-5.55027 -9.32886,-11.39794 -12.84192,-18.28578 -0.76603,-1.50192 -1.59934,-4.32652 -3.76883,-3.35007 -2.64675,1.19125 -1.58205,6.50336 0.13959,8.93351 5.98109,8.4425 13.67944,15.21489 13.67944,15.21489 0,0 -4.61344,-3.08934 -6.83972,-4.74593 -3.05477,-2.27307 -6.599,-4.11081 -8.93351,-7.11889 -3.06449,-3.94868 -4.93686,-8.38262 -6.14179,-13.67944 -0.93515,-4.1109 -8.51475,-9.35226 -8.51475,-9.35226 z m 22.47336,-26.80054 c 0,0 -3.21048,16.19199 1.67504,22.75254 4.88551,6.56054 11.0273,10.60854 12.28357,13.53985 1.25628,2.93131 5.16469,12.14399 5.16469,12.14399 0,0 0.83752,-9.77103 -1.81462,-15.21488 -2.65214,-5.44386 -8.48585,-15.42444 -12.98151,-19.26289 -3.75619,-3.20708 -4.32717,-13.95861 -4.32717,-13.95861 z m -26.86511,31.64791 v -33.06526 c 0,0 6.78167,-1.34968 9.77153,-8.88321 1.57031,-3.95671 -0.98703,-12.73259 -0.98703,-12.73259 0,0 12.51313,0.68495 23.78726,-5.72473 11.04491,-6.27936 12.01189,-14.8434 19.74045,-20.23397 8.09993,-5.64959 8.43124,-1.52207 12.7326,-5.82343 3.40731,-3.40731 5.33372,-8.7643 3.55328,-10.75855 -3.25828,-3.64956 -9.96893,1.48052 -9.96893,1.48052 1.6652,-3.25858 5.48223,-6.27808 9.47542,-9.278 0,0 6.39321,-0.43449 9.96893,-5.23123 2.97602,-3.99226 1.97404,-10.067628 1.97404,-10.067628 3.58787,-1.979616 6.70754,-4.240146 8.98191,-7.007863 2.39244,-2.911402 3.74686,-6.495613 5.23123,-10.067633 1.51811,0 -6.98364,23.991404 -6.02084,26.748314 0.58264,1.66837 8.38968,-1.28312 8.38968,-1.28312 0,0 -9.51856,5.32634 -20.23396,23.88595 -5.77857,10.00877 -7.99489,25.16908 -7.99489,25.16908 l 0.0987,13.22611 c 0,0 -2.44223,-11.25207 -9.27802,-11.25207 -7.72254,0 -9.37671,11.54817 -9.37671,11.54817 0,0 -5.39962,0.22839 -8.0936,1.18443 -5.04412,1.79005 -8.7845,7.00786 -8.7845,7.00786 0,0 3.04607,-5.52314 6.71176,-8.09358 2.2099,-1.54961 5.20592,-2.99856 5.82343,-5.62604 0.2476,-1.05353 -0.0456,-3.35878 -1.08572,-3.05977 -1.54871,0.44522 -3.22332,3.27379 -5.03382,4.73771 -2.50616,2.02642 -8.17001,3.52394 -12.04167,7.69878 -5.44436,5.8707 -3.04191,14.5516 -8.78451,17.76641 -3.85525,2.15824 -8.09284,0.30776 -10.85725,5.32993 -3.63735,6.60806 1.79543,7.82683 -0.2961,11.44946 -0.93209,1.61443 -4.38067,2.79955 -5.92213,5.72474 -0.81855,1.55332 -1.48055,5.23121 -1.48055,5.23121 z"
       style="opacity:1;fill:#000000;fill-opacity:1;stroke:none;stroke-width:0.750001;stroke-miterlimit:4;stroke-dasharray:none;stroke-opacity:1"
       id="path1728" />
    <path
       id="path1731"
       style="opacity:1;fill:#000000;fill-opacity:1;stroke:none;stroke-width:0.750001;stroke-miterlimit:4;stroke-dasharray:none;stroke-opacity:1"
       d="m 164.09303,214.96261 c -1.8002,0.59372 -3.31536,0.0473 -4.74593,-0.83752 0,0 -5.0814,9.45692 -7.67723,7.25848 -3.21522,-2.72301 6.28137,-11.58565 6.28137,-11.58565 -4.83339,-3.68136 -8.24063,-8.78887 -10.46895,-15.0753 0,0 0.24242,8.82446 -1.25628,13.40027 -1.78581,5.45238 -6.33448,10.31828 -8.93351,15.77323 -1.69842,3.56471 -2.40983,7.57541 -4.32717,11.0273 -2.64791,4.76717 -9.204,11.09401 -12.00441,15.77323 -3.82672,6.39408 -7.25847,17.58786 -7.25847,17.58786 0,0 4.09715,-8.64144 7.11889,-12.28359 2.82284,-3.40242 7.0963,-5.36506 10.0502,-8.65434 4.98435,-5.55027 9.32886,-11.39794 12.84192,-18.28578 0.76603,-1.50192 1.59934,-4.32652 3.76883,-3.35007 2.64675,1.19125 1.58205,6.50336 -0.13959,8.93351 -5.98109,8.4425 -13.67944,15.21489 -13.67944,15.21489 0,0 4.61344,-3.08934 6.83972,-4.74593 3.05477,-2.27307 6.599,-4.11081 8.93351,-7.11889 3.06449,-3.94868 4.93686,-8.38262 6.14179,-13.67944 0.93515,-4.1109 8.51475,-9.35226 8.51475,-9.35226 z m -22.47336,-26.80054 c 0,0 3.21048,16.19199 -1.67504,22.75254 -4.88551,6.56054 -11.0273,10.60854 -12.28357,13.53985 -1.25628,2.93131 -5.16469,12.14399 -5.16469,12.14399 0,0 -0.83752,-9.77103 1.81462,-15.21488 2.65214,-5.44386 8.48585,-15.42444 12.98151,-19.26289 3.75619,-3.20708 4.32717,-13.95861 4.32717,-13.95861 z m 26.86511,31.64791 v -33.06526 c 0,0 -6.78167,-1.34968 -9.77153,-8.88321 -1.57031,-3.95671 0.98703,-12.73259 0.98703,-12.73259 0,0 -12.51313,0.68495 -23.78726,-5.72473 -11.04491,-6.27936 -12.01189,-14.8434 -19.74045,-20.23397 -8.09993,-5.64959 -8.43124,-1.52207 -12.7326,-5.82343 -3.40731,-3.40731 -5.333722,-8.7643 -3.553282,-10.75855 3.258282,-3.64956 9.968932,1.48052 9.968932,1.48052 -1.6652,-3.25858 -5.48223,-6.27808 -9.47542,-9.278 0,0 -6.393212,-0.43449 -9.968932,-5.23123 -2.97602,-3.99226 -1.97404,-10.067628 -1.97404,-10.067628 -3.58787,-1.979616 -6.70754,-4.240146 -8.98191,-7.007863 -2.39244,-2.911402 -3.74686,-6.495613 -5.23123,-10.067633 -1.51811,0 6.98364,23.991404 6.02084,26.748314 -0.58264,1.66837 -8.38968,-1.28312 -8.38968,-1.28312 0,0 9.51856,5.32634 20.23396,23.88595 5.77857,10.00877 7.994892,25.16908 7.994892,25.16908 l -0.0987,13.22611 c 0,0 2.44223,-11.25207 9.27802,-11.25207 7.72254,0 9.37671,11.54817 9.37671,11.54817 0,0 5.39962,0.22839 8.0936,1.18443 5.04412,1.79005 8.7845,7.00786 8.7845,7.00786 0,0 -3.04607,-5.52314 -6.71176,-8.09358 -2.2099,-1.54961 -5.20592,-2.99856 -5.82343,-5.62604 -0.2476,-1.05353 0.0456,-3.35878 1.08572,-3.05977 1.54871,0.44522 3.22332,3.27379 5.03382,4.73771 2.50616,2.02642 8.17001,3.52394 12.04167,7.69878 5.44436,5.8707 3.04191,14.5516 8.78451,17.76641 3.85525,2.15824 8.09284,0.30776 10.85725,5.32993 3.63735,6.60806 -1.79543,7.82683 0.2961,11.44946 0.93209,1.61443 4.38067,2.79955 5.92213,5.72474 0.81855,1.55332 1.48055,5.23121 1.48055,5.23121 z" />
  </g>
  <g
     style="display:none;opacity:0.357616"
     id="layer1"
     inkscape:groupmode="layer"
     inkscape:label="Layer 1"
     sodipodi:insensitive="true" />
</svg>
