<?xml version="1.0" encoding="UTF-8" standalone="no"?>
<svg
   xmlns:dc="http://purl.org/dc/elements/1.1/"
   xmlns:cc="http://creativecommons.org/ns#"
   xmlns:rdf="http://www.w3.org/1999/02/22-rdf-syntax-ns#"
   xmlns:svg="http://www.w3.org/2000/svg"
   xmlns="http://www.w3.org/2000/svg"
   xmlns:xlink="http://www.w3.org/1999/xlink"
   xmlns:sodipodi="http://sodipodi.sourceforge.net/DTD/sodipodi-0.dtd"
   xmlns:inkscape="http://www.inkscape.org/namespaces/inkscape"
   sodipodi:docname="Leithanien_Z.svg"
   inkscape:version="1.0 (4035a4fb49, 2020-05-01)"
   id="svg8"
   version="1.1"
   viewBox="0 0 338.66666 338.66668"
   height="1280"
   width="1280"
   inkscape:export-filename="D:\Titipan\Projects\Codes\Rhodes Wiki Indo\Icon Assets\Lee_B.png"
   inkscape:export-xdpi="300"
   inkscape:export-ydpi="300">
  <defs
     id="defs2">
    <pattern
       patternTransform="translate(-51.833686,-17.277895)"
       id="pattern4174"
       xlink:href="#pattern4166"
       inkscape:collect="always" />
    <inkscape:path-effect
       effect="powerstroke"
       id="path-effect892"
       is_visible="true"
       lpeversion="1"
       offset_points="0,3.40217"
       sort_points="true"
       interpolator_type="CubicBezierJohan"
       interpolator_beta="0.2"
       start_linecap_type="zerowidth"
       linejoin_type="extrp_arc"
       miter_limit="4"
       scale_width="1"
       end_linecap_type="zerowidth" />
    <inkscape:path-effect
       effect="powerstroke"
       id="path-effect887"
       is_visible="true"
       lpeversion="1"
       offset_points="0,3.40217"
       sort_points="true"
       interpolator_type="CubicBezierJohan"
       interpolator_beta="0.2"
       start_linecap_type="zerowidth"
       linejoin_type="extrp_arc"
       miter_limit="4"
       scale_width="1"
       end_linecap_type="zerowidth" />
    <inkscape:path-effect
       effect="powerstroke"
       id="path-effect882"
       is_visible="true"
       lpeversion="1"
       offset_points="2.7941224,-3.4021738 | 2.7941224,-3.4021738"
       sort_points="true"
       interpolator_type="CubicBezierJohan"
       interpolator_beta="0.2"
       start_linecap_type="zerowidth"
       linejoin_type="extrp_arc"
       miter_limit="4"
       scale_width="1"
       end_linecap_type="zerowidth" />
    <inkscape:path-effect
       effect="powerstroke"
       id="path-effect877"
       is_visible="true"
       lpeversion="1"
       offset_points="0,3.01003"
       sort_points="true"
       interpolator_type="CubicBezierJohan"
       interpolator_beta="0.2"
       start_linecap_type="zerowidth"
       linejoin_type="extrp_arc"
       miter_limit="4"
       scale_width="1"
       end_linecap_type="zerowidth" />
    <inkscape:path-effect
       effect="powerstroke"
       id="path-effect872"
       is_visible="true"
       lpeversion="1"
       offset_points="0,3.01003"
       sort_points="true"
       interpolator_type="CubicBezierJohan"
       interpolator_beta="0.2"
       start_linecap_type="zerowidth"
       linejoin_type="extrp_arc"
       miter_limit="4"
       scale_width="1"
       end_linecap_type="zerowidth" />
    <inkscape:path-effect
       effect="powerstroke"
       id="path-effect868"
       is_visible="true"
       lpeversion="1"
       offset_points="11.631982,3.0100329"
       sort_points="true"
       interpolator_type="CubicBezierJohan"
       interpolator_beta="0.2"
       start_linecap_type="zerowidth"
       linejoin_type="extrp_arc"
       miter_limit="4"
       scale_width="1"
       end_linecap_type="zerowidth" />
    <inkscape:path-effect
       effect="powerstroke"
       id="path-effect864"
       is_visible="true"
       lpeversion="1"
       offset_points="156.61386,0.938298"
       sort_points="true"
       interpolator_type="CubicBezierJohan"
       interpolator_beta="0.2"
       start_linecap_type="zerowidth"
       linejoin_type="extrp_arc"
       miter_limit="4"
       scale_width="1"
       end_linecap_type="zerowidth" />
    <pattern
       id="pattern4166"
       patternTransform="translate(697.97451,522.68951)"
       height="34.555802"
       width="34.555802"
       patternUnits="userSpaceOnUse">
      <circle
         style="opacity:1;fill:#000000;fill-opacity:1;stroke:none;stroke-width:2.83465;stroke-miterlimit:4;stroke-dasharray:none;stroke-opacity:1"
         id="path4156"
         cx="5.0119109"
         cy="17.277901"
         r="5.0119109" />
      <circle
         r="5.0119109"
         cy="17.277901"
         cx="29.543892"
         id="circle4160"
         style="opacity:1;fill:#000000;fill-opacity:1;stroke:none;stroke-width:2.83465;stroke-miterlimit:4;stroke-dasharray:none;stroke-opacity:1" />
      <circle
         r="5.0119109"
         cy="29.543892"
         cx="17.277901"
         id="circle4162"
         style="opacity:1;fill:#000000;fill-opacity:1;stroke:none;stroke-width:2.83465;stroke-miterlimit:4;stroke-dasharray:none;stroke-opacity:1" />
      <circle
         style="opacity:1;fill:#000000;fill-opacity:1;stroke:none;stroke-width:2.83465;stroke-miterlimit:4;stroke-dasharray:none;stroke-opacity:1"
         id="circle4164"
         cx="17.277901"
         cy="5.0119109"
         r="5.0119109" />
    </pattern>
    <pattern
       id="pattern4176"
       patternTransform="translate(690.81773,515.53278)"
       height="48.869282"
       width="48.869282"
       patternUnits="userSpaceOnUse">
      <rect
         style="display:inline;fill:url(#pattern4174);stroke:none;stroke-width:0.999999"
         transform="rotate(-135)"
         width="34.555801"
         height="34.555801"
         x="-51.833702"
         y="-17.277901"
         id="rect4172" />
    </pattern>
  </defs>
  <sodipodi:namedview
     inkscape:pagecheckerboard="false"
     units="px"
     showgrid="false"
     inkscape:document-rotation="0"
     inkscape:current-layer="layer1"
     inkscape:document-units="mm"
     inkscape:cy="603.9367"
     inkscape:cx="660.18045"
     inkscape:zoom="0.33507752"
     inkscape:pageshadow="2"
     inkscape:pageopacity="0"
     borderopacity="1.0"
     bordercolor="#666666"
     pagecolor="#910000"
     id="base"
     inkscape:snap-global="false"
     showguides="true"
     inkscape:guide-bbox="true"
     inkscape:snap-midpoints="true"
     inkscape:snap-bbox="false"
     inkscape:snap-bbox-midpoints="false" />
  <metadata
     id="metadata5">
    <rdf:RDF>
      <cc:Work
         rdf:about="">
        <dc:format>image/svg+xml</dc:format>
        <dc:type
           rdf:resource="http://purl.org/dc/dcmitype/StillImage" />
        <dc:title></dc:title>
      </cc:Work>
    </rdf:RDF>
  </metadata>
  <g
     inkscape:label="Objects"
     id="layer3"
     inkscape:groupmode="layer"
     style="display:inline">
    <path
       sodipodi:nodetypes="cccccccccccccccccccccccccccccccccccccccccccccccccccccccccccccccccccccccccccccccccccccccccccccccccccccccccccccccccccccccc"
       transform="scale(0.26458333)"
       d="m 360.82617,339.82812 -11.29883,11.29883 63.20704,63.20703 12.42968,-10.16796 z m 566.10938,0 -61.73438,61.73438 12.84961,9.74805 60.1836,-60.1836 z M 778.07227,338.4668 c -0.0423,1.75166 -0.13474,7.49191 -0.25782,9.22461 l 4.50586,0.59375 c 0.13137,-1.7913 0.23086,-7.59103 0.2793,-9.40235 z m -264.375,-1.9668 -4.53125,0.43164 c 0.0594,2.18719 0.18319,10.35984 0.36328,12.51758 l 4.5,-0.66016 c -0.16854,-2.0822 -0.28045,-10.1791 -0.33203,-12.28906 z m 299.41992,3.18945 c -0.0784,2.20088 -0.20863,10.39997 -0.39063,12.59571 l 14.62891,1.92578 c 0.20375,-2.38741 0.35353,-10.77856 0.44922,-13.17188 z m -334.46289,0.14844 -14.68555,1.39844 c 0.12029,2.93995 0.32218,11.87648 0.60547,14.80664 l 14.60742,-2.14258 c -0.25319,-2.68279 -0.42904,-11.37122 -0.52734,-14.0625 z m 50.40039,110.52734 -8.63281,13.63086 c 13.13328,11.67191 28.05829,21.44572 44.28124,28.99805 l 6.67774,-15.13672 c -15.58517,-7.09332 -29.86565,-16.36895 -42.32617,-27.49219 z m 231.27148,2.08789 c -12.54385,10.76369 -26.82546,19.6934 -42.34179,26.47461 l 5.58789,15.64649 c 18.02592,-7.94786 34.53268,-18.60794 48.86132,-31.55469 z m 174.62305,3.41993 c -13.39712,0.54911 -26.68661,2.79123 -39.5918,6.67968 l 4.81641,14.10743 c 11.79133,-3.60657 23.93599,-5.65505 36.17383,-6.10157 z m -586.53906,0.75586 -1.34961,14.6875 c 13.33834,0.47208 26.563,2.84701 39.33789,7.06445 l 4.71875,-14.1582 c -13.87537,-4.46742 -28.22725,-7.01933 -42.70703,-7.59375 z m 140.69336,11.47656 -12.80664,9.79101 35.5957,35.59571 9.49219,-13.10547 z m 308.88086,0.67578 -30.50391,30.50195 11.53906,11.0586 30.26172,-30.26368 z m 141.26953,32.28906 c -17.62442,0.47875 -34.33261,4.93229 -49.41797,12.55274 l 1.78906,4.17383 c 14.67024,-7.44853 30.92892,-11.7765 48.06055,-12.19532 z m -595,0.76367 -0.41602,4.52735 c 18.61579,0.44961 36.20054,5.51284 51.83789,14.18359 l 1.17774,-4.51953 c -15.90455,-8.62829 -33.72811,-13.68672 -52.59961,-14.19141 z m 109.54297,184.57813 c -17.21809,48.5315 -59.85207,83.10003 -109.92579,84.32422 l 0.43164,4.53125 c 51.76557,-1.40617 95.66045,-37.03633 113.56446,-86.82031 z m 377.5,3.34766 -4.58008,0.70507 c 18.52256,48.34166 61.76656,82.67998 112.58593,84.03907 l 0.41602,-4.52735 c -48.66241,-1.17528 -90.298,-33.84437 -108.42187,-80.21679 z m -353.08204,25.47851 c -25.43131,53.88206 -75.54922,88.51965 -131.00586,90.54102 l 1.39844,14.68554 c 56.87275,-2.32874 108.8892,-34.94119 138.5957,-86.89453 z m 328.66993,2.42578 -8.33985,18.875 c 30.12085,49.9209 81.11273,80.96733 136.60156,83.16992 l 1.34961,-14.6875 C 882.16371,803.09959 832.83578,769.85279 806.88477,717.66406 Z m -21.19336,47.0293 -7.53321,15.06445 148.77735,148.77735 11.29883,-11.29883 z m -284.13477,0.51367 -152.0293,152.0293 11.29883,11.29883 150.34766,-150.34766 z m 222.98633,14.33985 -5.70313,15.58789 c 55.50062,24.92503 91.46282,75.82892 93.52344,132.38085 l 14.68555,-1.39843 C 824.47766,863.31813 785.06263,806.95966 724.54297,779.54688 Z m -159.90235,0.49609 c -60.00247,27.63982 -98.94783,83.80391 -101.42773,146.27148 l 14.6875,1.34961 c 1.98492,-56.11217 37.35626,-106.73228 92.17773,-131.91601 z m 134.24415,38.26758 -2.21289,3.98437 c 46.5917,18.02924 79.45539,59.75906 80.64843,108.5586 l 4.53125,-0.43164 C 780.48199,880.00263 746.64347,837.054 698.88477,818.31055 Z m -108.3418,0.33007 c -47.33054,18.92108 -80.78395,61.68482 -82.125,111.83008 l 4.52734,0.41602 c 1.16569,-48.26317 33.3104,-89.61389 79.07813,-107.9707 z"
       style="opacity:1;fill:#000000;fill-opacity:1;stroke:none;stroke-width:4.53543;stroke-miterlimit:4;stroke-dasharray:none;stroke-opacity:1"
       id="rect4341" />
    <path
       transform="scale(0.26458333)"
       d="m 505.75586,535.69727 c 0,0 22.38282,30.58984 17.16016,38.05078 -5.22267,7.46097 -28.64567,18.45 -21.63672,30.58984 0,0 31.33592,2.98438 34.32031,8.95313 2.98439,5.96878 -13.42969,34.32031 -13.42969,34.32031 0,0 1.49223,0.74608 3.73047,5.96875 2.23827,5.22266 0,8.20703 0,8.20703 0,0 27.60544,-9.6993 37.30469,12.68359 9.69925,22.38289 -10.4453,45.51172 -24.6211,45.51172 -14.17583,0 -29.84375,-15.66797 -29.84375,-15.66797 0,0 0.74606,38.79685 23.12891,52.22657 22.38289,13.42972 29.09766,11.1914 29.09766,11.1914 0,0 -3.73052,-9.69919 5.22265,-15.66797 8.95314,-5.96874 17.16011,-9.69925 26.11328,-3.73047 8.95314,5.96879 13.42969,19.39841 9.69922,25.36719 -3.7305,5.96875 -11.1914,14.92188 -11.1914,14.92188 0,0 23.875,5.22263 23.875,17.16015 0,11.93753 -8.20703,27.60547 -8.20703,27.60547 0,0 23.12886,28.35152 26.85937,41.03516 2.78264,9.46099 8.0429,36.30067 10.54297,49.35742 v 7.3457 c 0,0 0.44771,-2.35726 0.69726,-3.67968 0.24954,1.32229 0.69727,3.67968 0.69727,3.67968 v -7.35547 c 2.50068,-13.05965 7.76089,-39.88854 10.54297,-49.34765 3.73051,-12.68364 26.85937,-41.03516 26.85937,-41.03516 0,0 -8.20703,-15.66794 -8.20703,-27.60547 0,-11.93752 23.875,-17.16015 23.875,-17.16015 0,0 -7.4609,-8.95313 -11.1914,-14.92188 -3.73047,-5.96878 0.74608,-19.3984 9.69922,-25.36719 8.95317,-5.96878 17.16014,-2.23827 26.11328,3.73047 8.95317,5.96878 5.22265,15.66797 5.22265,15.66797 0,0 6.71477,2.23832 29.09766,-11.1914 22.38285,-13.42972 23.12891,-52.22657 23.12891,-52.22657 0,0 -15.66792,15.66797 -29.84375,15.66797 -14.1758,0 -34.32035,-23.12886 -24.6211,-45.51172 9.69925,-22.38289 37.30469,-12.68359 37.30469,-12.68359 0,0 -2.23827,-2.98437 0,-8.20703 2.23827,-5.22267 3.73047,-5.96875 3.73047,-5.96875 0,0 -16.41408,-28.35153 -13.42969,-34.32031 2.98439,-5.96875 34.32031,-8.95313 34.32031,-8.95313 7.00894,-12.13984 -16.41405,-23.12887 -21.63672,-30.58984 -5.22266,-7.46094 17.16016,-38.05078 17.16016,-38.05078 0,0 -32.82811,12.68356 -43.27344,14.92187 -10.44536,2.23827 -18.65231,-0.74609 -24.62109,1.49219 -5.96878,2.23827 -2.23826,18.6523 -14.17578,26.11328 -11.93753,7.46094 -39.54297,-15.66797 -39.54297,-15.66797 0,0 5.22262,16.41403 16.41406,26.11328 11.19145,9.69925 20.14449,6.71481 23.875,10.44531 3.73047,3.73047 -3.73047,15.66797 -3.73047,15.66797 0,0 31.33588,-32.82816 47.00391,-14.17578 15.66803,18.65242 -31.33594,29.84375 -35.06641,33.57422 -3.7305,3.73047 -1.49218,22.38281 -1.49218,22.38281 0,0 -14.92183,-12.68354 -31.33594,-26.85937 -16.41411,-14.1758 -24.62112,-50.7344 -27.60547,-46.25781 -2.12177,3.18265 -4.22219,32.52681 -5.27149,49.36132 -1.04929,-16.83452 -3.14971,-46.17867 -5.27148,-49.36132 -2.98435,-4.47659 -11.19136,32.08201 -27.60547,46.25781 -16.41411,14.17583 -31.33594,26.85937 -31.33594,26.85937 0,0 2.23832,-18.65234 -1.49218,-22.38281 -3.73047,-3.73047 -50.73444,-14.9218 -35.06641,-33.57422 15.66803,-18.65238 47.00391,14.17578 47.00391,14.17578 0,0 -7.46094,-11.9375 -3.73047,-15.66797 3.73051,-3.7305 12.68355,-0.74606 23.875,-10.44531 11.19144,-9.69925 16.41406,-26.11328 16.41406,-26.11328 0,0 -27.60541,23.12891 -39.54297,15.66797 -11.93748,-7.46098 -8.207,-23.87501 -14.17578,-26.11328 -5.96878,-2.23828 -14.17573,0.74605 -24.62109,-1.49219 -10.44533,-2.23831 -43.27344,-14.92187 -43.27344,-14.92187 z M 606.47852,650.5957 c 0,0 -0.7461,12.68361 -4.47657,17.16016 -3.7305,4.47659 -8.20703,8.9531 -8.20703,17.16016 0,8.20705 15.66795,14.17576 20.14453,17.16015 4.47659,2.98435 5.22266,6.71486 5.22266,11.19141 0,4.47658 -10.44528,5.22264 -12.68359,11.9375 -2.23828,6.7149 11.19139,22.38281 14.17578,33.57422 2.98439,11.19144 0.74609,20.89062 0.74609,20.89062 0,0 -3.73042,-2.23824 -5.22266,-9.69922 -1.49215,-7.46094 -10.44528,-26.85933 -14.92187,-34.32031 -4.47659,-7.46094 -5.96875,-9.69921 -5.96875,-14.92187 0,-5.22267 8.20705,-5.22261 11.19141,-10.44532 2.98439,-5.2227 -15.66796,-8.9531 -18.65235,-13.42968 -2.98439,-4.47655 -4.47655,-24.62107 -7.46094,-29.09766 -2.98439,-4.47655 5.96875,-2.23827 13.42969,-3.73047 7.46098,-1.49219 12.6836,-13.42969 12.6836,-13.42969 z m 76.19921,0 c 0,0 5.22262,11.93749 12.6836,13.42969 7.46094,1.49219 16.41408,-0.74608 13.42969,3.73047 -2.98439,4.47659 -4.47655,24.62111 -7.46094,29.09766 -2.98439,4.47658 -21.63674,8.20698 -18.65235,13.42968 2.98439,5.22267 11.19141,5.22265 11.19141,10.44532 0,5.22266 -1.49216,7.46093 -5.96875,14.92187 -4.47659,7.46098 -13.42968,26.85937 -14.92187,34.32031 -1.4922,7.46098 -5.22266,9.69922 -5.22266,9.69922 0,0 -2.2383,-9.69918 0.74609,-20.89062 2.98439,-11.19141 16.41406,-26.85936 14.17578,-33.57422 -2.23831,-6.71486 -12.68359,-7.46092 -12.68359,-11.9375 0,-4.47655 0.74607,-8.20706 5.22266,-11.19141 4.47658,-2.98439 20.14453,-8.9531 20.14453,-17.16015 0,-8.20706 -4.47653,-12.68357 -8.20703,-17.16016 -3.73047,-4.47655 -4.47657,-17.16016 -4.47657,-17.16016 z"
       style="opacity:1;fill:#000000;fill-opacity:1;stroke:none;stroke-width:4.53543;stroke-miterlimit:4;stroke-dasharray:none;stroke-opacity:1"
       id="path4357" />
    <path
       d="m 86.733335,145.19106 -2.56626,7.69878 c 0,0 -2.86237,-1.38184 -6.11954,-0.98703 -3.25718,0.39481 -5.52733,1.48054 -5.52733,1.48054 l -0.98703,-3.55328 c 0,0 5.42863,-4.2442 9.17932,-4.54031 3.75068,-0.29611 6.02084,-0.0987 6.02084,-0.0987 z m 24.379465,16.68068 c 0,0 -5.42863,0.49351 -7.69878,-1.97404 -2.27015,-2.46756 -2.76366,-5.72473 -2.76366,-5.72473 0,0 -3.059775,-5.03382 -5.329935,-5.92214 -2.27015,-0.88832 -4.93511,-2.27015 -4.93511,-2.27015 l -3.15847,8.6858 c 0,0 1.87534,1.48053 2.86237,2.66496 0.98702,1.18443 1.18442,2.96107 1.18442,2.96107 0,0 5.13252,-1.28313 8.09359,1.48053 2.961075,2.76367 3.454585,5.72473 3.454585,5.72473 0,0 2.07275,1.67794 2.07275,2.76367 0,1.08572 -0.88832,2.46755 -0.88832,2.46755 l 6.51435,4.63901 c 0,0 3.65198,-3.94809 3.35588,-5.62603 -0.29611,-1.67794 -2.56626,-3.25717 -3.05978,-5.32992 -0.49351,-2.07275 0.29611,-4.54031 0.29611,-4.54031 z m 12.23909,-43.2316 -8.3897,-11.15336 c 0,0 -8.09359,14.01573 -4.83641,21.1223 3.25717,7.10656 7.99488,12.33778 7.89618,21.12228 -0.0987,8.78451 -3.65198,10.65985 -3.65198,10.65985 0,0 -0.69092,4.63901 0.39481,6.41565 1.08572,1.77664 3.55328,2.27015 3.35587,5.23122 -0.1974,2.96107 -3.65198,6.61305 -3.65198,6.61305 0,0 6.41565,0.29611 14.01572,-4.73771 7.60008,-5.03381 8.09359,-8.8832 8.09359,-8.8832 0,0 -7.40267,0.39481 -8.19229,-5.03382 -1.06288,-7.3073 7.00786,-9.17931 7.00786,-9.17931 0,0 -4.83641,-3.15848 -5.92213,-6.41565 -1.08573,-3.25718 -0.59222,-8.29099 -0.59222,-8.29099 0,0 -6.51435,-0.59222 -7.40267,-7.40267 -0.88832,-6.81046 1.87535,-10.06764 1.87535,-10.06764 z m 34.32109,30.99617 c 0,0 4.74592,-2.65214 6.83972,-5.72303 2.09379,-3.0709 2.23337,-7.39807 2.09379,-8.096 -0.13959,-0.69793 0.83751,-1.81462 0.83751,-1.81462 0,0 -2.65213,-0.9771 -3.48965,-4.18758 -0.83752,-3.21048 1.39586,-5.44386 1.39586,-5.44386 0,0 -5.44386,-0.41876 -6.42096,-4.74593 -0.9771,-4.32717 2.37297,-7.81682 2.37297,-7.81682 0,0 -5.30428,-10.32937 -12.00441,-13.400264 -6.70013,-3.070895 -11.72523,-3.62924 -14.37737,-3.62924 -2.65214,0 -9.91061,1.11669 -13.81902,6.002204 -3.90842,4.88551 -2.93131,4.048 -2.93131,4.048 l 7.39806,11.86482 c 0,0 13.32839,-10.22464 24.98591,3.62923 9.63144,11.44606 1.39587,22.89212 1.39587,22.89212 0,0 3.07089,0.27918 3.76882,2.65214 0.69793,2.37297 -0.41876,2.23338 0.41876,3.07089 0.83751,0.83752 1.53545,0.69794 1.53545,0.69794 z m 96.6828,-4.44525 2.56626,7.69878 c 0,0 2.86237,-1.38184 6.11954,-0.98703 3.25718,0.39481 5.52733,1.48054 5.52733,1.48054 l 0.98703,-3.55328 c 0,0 -5.42863,-4.2442 -9.17932,-4.54031 -3.75068,-0.29611 -6.02084,-0.0987 -6.02084,-0.0987 z m -24.37946,16.68068 c 0,0 5.42863,0.49351 7.69878,-1.97404 2.27015,-2.46756 2.76366,-5.72473 2.76366,-5.72473 0,0 3.05977,-5.03382 5.32993,-5.92214 2.27015,-0.88832 4.93511,-2.27015 4.93511,-2.27015 l 3.15847,8.6858 c 0,0 -1.87534,1.48053 -2.86237,2.66496 -0.98702,1.18443 -1.18442,2.96107 -1.18442,2.96107 0,0 -5.13252,-1.28313 -8.09359,1.48053 -2.96107,2.76367 -3.45458,5.72473 -3.45458,5.72473 0,0 -2.07275,1.67794 -2.07275,2.76367 0,1.08572 0.88832,2.46755 0.88832,2.46755 l -6.51435,4.63901 c 0,0 -3.65198,-3.94809 -3.35588,-5.62603 0.29611,-1.67794 2.56626,-3.25717 3.05978,-5.32992 0.49351,-2.07275 -0.29611,-4.54031 -0.29611,-4.54031 z m -12.23909,-43.2316 8.3897,-11.15336 c 0,0 8.09359,14.01573 4.83641,21.1223 -3.25717,7.10656 -7.99488,12.33778 -7.89618,21.12228 0.0987,8.78451 3.65198,10.65985 3.65198,10.65985 0,0 0.69092,4.63901 -0.39481,6.41565 -1.08572,1.77664 -3.55328,2.27015 -3.35587,5.23122 0.1974,2.96107 3.65198,6.61305 3.65198,6.61305 0,0 -6.41565,0.29611 -14.01572,-4.73771 -7.60008,-5.03381 -8.09359,-8.8832 -8.09359,-8.8832 0,0 7.40267,0.39481 8.19229,-5.03382 1.06288,-7.3073 -7.00786,-9.17931 -7.00786,-9.17931 0,0 4.83641,-3.15848 5.92213,-6.41565 1.08573,-3.25718 0.59222,-8.29099 0.59222,-8.29099 0,0 6.51435,-0.59222 7.40267,-7.40267 0.88832,-6.81046 -1.87535,-10.06764 -1.87535,-10.06764 z m -34.32109,30.99617 c 0,0 -4.74592,-2.65214 -6.83972,-5.72303 -2.09379,-3.0709 -2.23337,-7.39807 -2.09379,-8.096 0.13959,-0.69793 -0.83751,-1.81462 -0.83751,-1.81462 0,0 2.65213,-0.9771 3.48965,-4.18758 0.83752,-3.21048 -1.39586,-5.44386 -1.39586,-5.44386 0,0 5.44386,-0.41876 6.42096,-4.74593 0.9771,-4.32717 -2.37297,-7.81682 -2.37297,-7.81682 0,0 5.30428,-10.32937 12.00441,-13.400264 6.70013,-3.070895 11.72523,-3.62924 14.37737,-3.62924 2.65214,0 9.91061,1.11669 13.81902,6.002204 3.90842,4.88551 2.93131,4.048 2.93131,4.048 l -7.39806,11.86482 c 0,0 -13.32839,-10.22464 -24.98591,3.62923 -9.63144,11.44606 -1.39587,22.89212 -1.39587,22.89212 0,0 -3.07089,0.27918 -3.76882,2.65214 -0.69793,2.37297 0.41876,2.23338 -0.41876,3.07089 -0.83751,0.83752 -1.53545,0.69794 -1.53545,0.69794 z"
       style="opacity:1;fill:#000000;fill-opacity:1;stroke:none;stroke-width:1.2;stroke-miterlimit:4;stroke-dasharray:none;stroke-opacity:1"
       id="path4368" />
  </g>
  <g
     style="display:none;opacity:0.357616"
     id="layer1"
     inkscape:groupmode="layer"
     inkscape:label="Layer 1"
     sodipodi:insensitive="true" />
</svg>
