<?xml version="1.0" encoding="UTF-8" standalone="no"?>
<svg
   xmlns:dc="http://purl.org/dc/elements/1.1/"
   xmlns:cc="http://creativecommons.org/ns#"
   xmlns:rdf="http://www.w3.org/1999/02/22-rdf-syntax-ns#"
   xmlns:svg="http://www.w3.org/2000/svg"
   xmlns="http://www.w3.org/2000/svg"
   xmlns:xlink="http://www.w3.org/1999/xlink"
   xmlns:sodipodi="http://sodipodi.sourceforge.net/DTD/sodipodi-0.dtd"
   xmlns:inkscape="http://www.inkscape.org/namespaces/inkscape"
   inkscape:export-ydpi="300"
   inkscape:export-xdpi="300"
   inkscape:export-filename="D:\Titipan\Projects\Codes\Rhodes Wiki Indo\Icon Assets\Lee_B.png"
   width="1280"
   height="1280"
   viewBox="0 0 338.66666 338.66668"
   version="1.1"
   id="svg8"
   inkscape:version="1.0 (4035a4fb49, 2020-05-01)"
   sodipodi:docname="LungmenGD_Z.svg">
  <defs
     id="defs2">
    <pattern
       inkscape:collect="always"
       xlink:href="#pattern4166"
       id="pattern4174"
       patternTransform="translate(-51.833686,-17.277895)" />
    <inkscape:path-effect
       end_linecap_type="zerowidth"
       scale_width="1"
       miter_limit="4"
       linejoin_type="extrp_arc"
       start_linecap_type="zerowidth"
       interpolator_beta="0.2"
       interpolator_type="CubicBezierJohan"
       sort_points="true"
       offset_points="0,3.40217"
       lpeversion="1"
       is_visible="true"
       id="path-effect892"
       effect="powerstroke" />
    <inkscape:path-effect
       end_linecap_type="zerowidth"
       scale_width="1"
       miter_limit="4"
       linejoin_type="extrp_arc"
       start_linecap_type="zerowidth"
       interpolator_beta="0.2"
       interpolator_type="CubicBezierJohan"
       sort_points="true"
       offset_points="0,3.40217"
       lpeversion="1"
       is_visible="true"
       id="path-effect887"
       effect="powerstroke" />
    <inkscape:path-effect
       end_linecap_type="zerowidth"
       scale_width="1"
       miter_limit="4"
       linejoin_type="extrp_arc"
       start_linecap_type="zerowidth"
       interpolator_beta="0.2"
       interpolator_type="CubicBezierJohan"
       sort_points="true"
       offset_points="2.7941224,-3.4021738 | 2.7941224,-3.4021738"
       lpeversion="1"
       is_visible="true"
       id="path-effect882"
       effect="powerstroke" />
    <inkscape:path-effect
       end_linecap_type="zerowidth"
       scale_width="1"
       miter_limit="4"
       linejoin_type="extrp_arc"
       start_linecap_type="zerowidth"
       interpolator_beta="0.2"
       interpolator_type="CubicBezierJohan"
       sort_points="true"
       offset_points="0,3.01003"
       lpeversion="1"
       is_visible="true"
       id="path-effect877"
       effect="powerstroke" />
    <inkscape:path-effect
       end_linecap_type="zerowidth"
       scale_width="1"
       miter_limit="4"
       linejoin_type="extrp_arc"
       start_linecap_type="zerowidth"
       interpolator_beta="0.2"
       interpolator_type="CubicBezierJohan"
       sort_points="true"
       offset_points="0,3.01003"
       lpeversion="1"
       is_visible="true"
       id="path-effect872"
       effect="powerstroke" />
    <inkscape:path-effect
       end_linecap_type="zerowidth"
       scale_width="1"
       miter_limit="4"
       linejoin_type="extrp_arc"
       start_linecap_type="zerowidth"
       interpolator_beta="0.2"
       interpolator_type="CubicBezierJohan"
       sort_points="true"
       offset_points="11.631982,3.0100329"
       lpeversion="1"
       is_visible="true"
       id="path-effect868"
       effect="powerstroke" />
    <inkscape:path-effect
       end_linecap_type="zerowidth"
       scale_width="1"
       miter_limit="4"
       linejoin_type="extrp_arc"
       start_linecap_type="zerowidth"
       interpolator_beta="0.2"
       interpolator_type="CubicBezierJohan"
       sort_points="true"
       offset_points="156.61386,0.938298"
       lpeversion="1"
       is_visible="true"
       id="path-effect864"
       effect="powerstroke" />
    <pattern
       patternUnits="userSpaceOnUse"
       width="34.555802"
       height="34.555802"
       patternTransform="translate(697.97451,522.68951)"
       id="pattern4166">
      <circle
         r="5.0119109"
         cy="17.277901"
         cx="5.0119109"
         id="path4156"
         style="opacity:1;fill:#000000;fill-opacity:1;stroke:none;stroke-width:2.83465;stroke-miterlimit:4;stroke-dasharray:none;stroke-opacity:1" />
      <circle
         style="opacity:1;fill:#000000;fill-opacity:1;stroke:none;stroke-width:2.83465;stroke-miterlimit:4;stroke-dasharray:none;stroke-opacity:1"
         id="circle4160"
         cx="29.543892"
         cy="17.277901"
         r="5.0119109" />
      <circle
         style="opacity:1;fill:#000000;fill-opacity:1;stroke:none;stroke-width:2.83465;stroke-miterlimit:4;stroke-dasharray:none;stroke-opacity:1"
         id="circle4162"
         cx="17.277901"
         cy="29.543892"
         r="5.0119109" />
      <circle
         r="5.0119109"
         cy="5.0119109"
         cx="17.277901"
         id="circle4164"
         style="opacity:1;fill:#000000;fill-opacity:1;stroke:none;stroke-width:2.83465;stroke-miterlimit:4;stroke-dasharray:none;stroke-opacity:1" />
    </pattern>
    <pattern
       patternUnits="userSpaceOnUse"
       width="48.869282"
       height="48.869282"
       patternTransform="translate(690.81773,515.53278)"
       id="pattern4176">
      <rect
         id="rect4172"
         y="-17.277901"
         x="-51.833702"
         height="34.555801"
         width="34.555801"
         transform="rotate(-135)"
         style="display:inline;fill:url(#pattern4174);stroke:none;stroke-width:0.999999" />
    </pattern>
  </defs>
  <sodipodi:namedview
     inkscape:snap-bbox-midpoints="false"
     inkscape:snap-bbox="false"
     inkscape:snap-midpoints="true"
     inkscape:guide-bbox="true"
     showguides="true"
     inkscape:snap-global="false"
     id="base"
     pagecolor="#910000"
     bordercolor="#666666"
     borderopacity="1.0"
     inkscape:pageopacity="0"
     inkscape:pageshadow="2"
     inkscape:zoom="0.45366736"
     inkscape:cx="459.67122"
     inkscape:cy="704.86051"
     inkscape:document-units="mm"
     inkscape:current-layer="layer3"
     inkscape:document-rotation="0"
     showgrid="false"
     units="px"
     inkscape:pagecheckerboard="false">
    <sodipodi:guide
       id="guide1025"
       orientation="0,-1"
       position="115.62138,95.54101" />
    <sodipodi:guide
       id="guide1027"
       orientation="0,-1"
       position="129.47262,90.073414" />
  </sodipodi:namedview>
  <metadata
     id="metadata5">
    <rdf:RDF>
      <cc:Work
         rdf:about="">
        <dc:format>image/svg+xml</dc:format>
        <dc:type
           rdf:resource="http://purl.org/dc/dcmitype/StillImage" />
        <dc:title></dc:title>
      </cc:Work>
    </rdf:RDF>
  </metadata>
  <g
     style="display:inline"
     inkscape:groupmode="layer"
     id="layer3"
     inkscape:label="Objects">
    <path
       id="path4421"
       style="opacity:1;fill:#000000;fill-opacity:1;stroke:none;stroke-width:1.2;stroke-miterlimit:4;stroke-dasharray:none;stroke-opacity:1"
       d="m 122.45001,74.183043 -0.11447,0.629587 5.20842,5.551821 -0.17171,1.659825 10.41712,23.581204 5.60906,1.88877 0.49564,1.47703 3.34361,4.35648 -1.20793,4.75712 5.79994,11.97266 1.55644,0.98228 5.25456,-0.2562 7.56524,7.3417 -0.75364,-2.12999 1.76081,1.58999 2.67358,-0.0663 2.67327,0.0663 1.76111,-1.58999 -0.75364,2.12999 7.56524,-7.3417 5.25456,0.2562 1.55644,-0.98228 5.79994,-11.97266 -1.20793,-4.75712 3.34362,-4.35648 0.49563,-1.47703 5.60906,-1.88877 10.41682,-23.581204 -0.1717,-1.659825 5.20841,-5.551821 -0.11447,-0.629587 -9.21488,7.555053 0.51511,1.202236 -7.09716,16.884401 -12.70624,7.497817 -2.46112,3.60582 8.24189,-2.74729 -7.03994,2.97623 -0.45789,1.08746 0.11447,0.97301 -7.1544,12.24835 -3.892,2.57559 -3.94924,6.86823 -2.33496,0.77822 -2.33496,-0.77822 -3.94923,-6.86823 -3.892,-2.57559 -7.15442,-12.24835 0.11448,-0.97301 -0.45789,-1.08746 -7.03993,-2.97623 8.24187,2.74729 -2.46111,-3.60582 -12.70623,-7.497817 -7.09748,-16.884401 0.51511,-1.202236 z m 36.02977,0.156726 -4.49252,13.557858 1.45725,3.318752 4.49222,-11.453648 -1.33559,-5.422962 z m 22.69243,0 -1.33558,5.422962 4.49222,11.453648 1.45695,-3.318752 -4.49222,-13.557858 z m -11.35445,0.01503 v 0.861517 l -3.06734,19.171113 1.37365,3.434122 -4.23541,10.073389 1.42519,2.55342 8.28323,-7.99466 -1.9478,-4.632149 1.37365,-3.434122 -3.06733,-19.171113 V 74.3548 l -0.0689,0.43091 z m -16.03278,15.080733 -0.93074,1.214225 3.48056,12.950743 -0.84984,0.9715 -1.65952,-7.082475 -0.9712,2.347228 0.84983,8.742017 0.93075,2.14497 -0.64756,2.10452 1.98315,1.17348 2.34755,-2.22588 2.22589,-6.88022 z m 32.20339,0 -6.75885,15.460108 2.22588,6.88022 2.34754,2.22588 1.98286,-1.17348 -0.64757,-2.10452 0.93105,-2.14497 0.84984,-8.742017 -0.9712,-2.347228 -1.65953,7.082475 -0.84984,-0.9715 3.48057,-12.950743 z m -63.52847,8.175356 6.67795,8.579882 7.77052,5.01843 0.0809,1.17376 -1.4165,0.20228 1.21423,1.69997 -1.90225,0.68803 6.2731,12.22228 1.33559,7.77051 4.61388,-3.72328 5.30161,8.78216 h 2.54982 l 8.62035,3.07603 0.48574,-0.76893 -1.69997,-1.45696 2.79254,-0.0809 1.13332,-1.41649 -0.16182,-0.60712 -1.53785,-1.33559 -3.07603,0.60711 -4.41131,-1.65952 -4.04722,-4.20903 -5.94918,-1.7806 -1.13331,-7.28506 -3.56148,-6.07054 v -2.4689 l -3.3592,-3.23784 2.99481,-0.40455 -10.72487,-5.98992 -5.09933,-6.070525 z m 94.85325,0 -3.76374,1.254677 -5.09934,6.070525 -10.72517,5.98992 2.99511,0.40455 -3.3592,3.23784 v 2.4689 l -3.56147,6.07054 -1.13332,7.28506 -5.94918,1.78059 -4.04722,4.20904 -4.41131,1.65952 -3.07602,-0.60711 -1.53786,1.33559 -0.16182,0.60712 1.13302,1.41649 2.79255,0.0809 -1.69968,1.45696 0.48574,0.76893 8.62036,-3.07603 h 2.54981 l 5.30161,-8.78216 4.61388,3.72328 1.33559,-7.77051 6.27311,-12.22229 -1.90225,-0.68802 1.21423,-1.69997 -1.4165,-0.20228 0.0809,-1.17376 7.77051,-5.01843 z m -43.22522,6.010582 -8.21731,7.82446 0.76534,1.37124 -0.91577,0.91577 1.37364,4.00647 -0.91576,0.91577 0.55377,0.55377 6.61503,-6.76725 2.53783,-4.54676 z m -13.58454,5.15957 -1.69998,3.8042 -2.42816,1.90225 3.64238,2.79254 2.3068,-1.0524 2.18543,0.5262 1.01196,-0.64758 -2.06407,-5.18024 z m 18.76658,0 -2.95436,2.14497 -2.06406,5.18024 1.01165,0.64758 2.18542,-0.5262 2.3071,1.0524 3.64238,-2.79254 -2.42815,-1.90225 z m -5.69027,4.47843 -6.38189,6.41545 1.04074,1.04072 0.68682,2.06047 h 0.89239 0.13784 0.89239 l 0.68682,-2.06047 2.06047,-2.06046 -0.91576,-0.91577 1.37364,-4.00647 z m -18.04739,2.24777 5.43735,8.01293 3.43412,3.26241 3.77753,6.6393 1.63645,0.528 v 0.0443 l 0.0689,-0.0222 0.0689,0.0222 v -0.0443 l 1.63644,-0.528 3.77754,-6.6393 3.43411,-3.26241 5.43736,-8.01293 -4.00648,2.74729 -2.97623,-1.48812 -6.23865,7.55505 -1.13301,0.43152 -1.13302,-0.43152 -6.23865,-7.55505 -2.97623,1.48812 z m -29.79412,18.24457 14.61029,12.18212 3.56147,0.72847 -14.97437,-12.34393 z m 88.29697,0 -3.19739,0.56666 -14.97437,12.34393 3.56148,-0.72847 z m -44.2174,4.81615 v 0.0105 l -3.08172,0.23254 0.32363,0.60711 2.75809,1.27206 v 0.0635 l 0.0689,-0.0317 0.0689,0.0317 v -0.0635 l 2.75808,-1.27206 0.32363,-0.60711 -3.08171,-0.23254 v -0.0105 l -0.0689,0.005 z m -2.9199,1.69998 -3.27829,4.12813 -1.29514,-0.40484 -0.36409,1.25468 3.96632,3.56147 0.20226,0.8903 0.84985,-0.28318 2.83899,1.46654 v 0.0713 l 0.0689,-0.0356 0.0689,0.0356 v -0.0713 l 2.83899,-1.46654 0.84984,0.28318 0.20227,-0.8903 3.96631,-3.56147 -0.36439,-1.25468 -1.29482,0.40484 -3.2783,-4.12813 -2.98882,1.21063 z m -11.49411,1.78058 -11.41289,7.0825 1.4165,0.85014 8.78247,-5.01843 z m 28.96555,0 1.21422,2.91421 8.78248,5.01843 1.4165,-0.85014 z m -23.02776,1.53277 -5.23688,1.68829 -10.98917,5.60906 -7.72676,-4.80777 -1.37366,0.0572 1.37366,0.68682 10.70299,9.78723 10.53129,-4.40711 2.86176,7.89847 4.63606,4.12094 -2.34664,-4.92223 1.03023,-5.26565 0.62959,1.946 4.38375,1.72005 v 0.0543 l 0.0689,-0.0269 0.0689,0.0269 v -0.0543 l 4.38374,-1.72005 0.62959,-1.946 1.03024,5.26565 -2.34665,4.92223 4.63606,-4.12094 2.86176,-7.89847 10.53129,4.40711 10.70301,-9.78723 1.37364,-0.68682 -1.37364,-0.0572 -7.72677,4.80777 -10.98917,-5.60906 -5.23688,-1.68829 0.48635,2.03171 -4.17818,4.52158 -0.62959,-0.0572 -0.82976,1.03024 -3.39396,1.234 -3.39397,-1.234 -0.82976,-1.03024 -0.62958,0.0572 -4.17818,-4.52158 z m -20.66943,7.33061 -8.86307,5.30191 2.50906,0.20227 7.60869,-4.49252 z m 58.42883,0 -1.25438,1.01166 7.60869,4.49252 2.50908,-0.20227 z m -42.65287,6.06244 3.20518,6.06694 1.28765,5.35135 -4.6073,7.09718 1.34488,0.34342 7.87,-5.5803 -1.20193,-1.57412 0.97299,-2.7473 -2.23218,-3.57705 0.0857,2.80453 -4.865,-7.55505 z m 26.87721,0 -1.86,0.6296 -4.865,7.55505 0.0857,-2.80453 -2.23217,3.57705 0.97299,2.7473 -1.20194,1.57412 7.87,5.5803 1.34488,-0.34342 -4.60729,-7.09718 1.28764,-5.35135 z m -16.26021,7.41182 -0.0572,0.11447 -0.0572,1.60259 -0.57235,1.43088 -0.51513,-0.85853 -0.14293,2.08924 2.20341,2.20341 0.94453,-2.14617 z m 5.64321,0 -1.80306,4.43589 0.94454,2.14617 2.2034,-2.20341 -0.14293,-2.08924 -0.51512,0.85853 -0.57236,-1.43088 -0.0572,-1.60259 z m -3.52551,0.11447 -0.85853,1.40242 0.8013,1.54536 z m 1.40781,0 0.0569,2.94778 0.8016,-1.54536 z"
       inkscape:export-xdpi="300"
       inkscape:export-ydpi="300" />
    <path
       id="rect4498"
       style="opacity:1;fill:#000000;fill-opacity:1;stroke:none;stroke-width:1.2;stroke-miterlimit:4;stroke-dasharray:none;stroke-opacity:1"
       d="m 203.14428,180.53713 h 2.03868 v 4.43952 h -2.03868 z m 3.05803,0 h 0.96271 v 4.43952 h -0.96271 z m -6.85224,0 h -0.96271 v 4.43952 h 0.96271 z m 2.94477,0 h -2.03869 v 4.43952 h 2.03869 z m -6.79558,0 h 0.96271 v 4.43952 h -0.96271 z m -1.81217,0 h 0.96271 v 4.43952 h -0.96271 z m -4.98344,0 h 0.96271 v 4.43952 h -0.96271 z m 1.8688,0 h 2.03867 v 4.43952 h -2.03867 z m -13.42132,0 h -0.96271 v 4.43952 h 0.96271 z m 1.81216,0 h -0.96272 v 4.43952 h 0.96272 z m 4.98345,0 h -0.96271 v 4.43952 h 0.96271 z m -1.8688,0 h -2.03868 v 4.43952 h 2.03868 z m 4.64365,0 h -2.03868 v 4.43952 h 2.03868 z m -16.59259,0 h 2.03868 v 4.43952 H 170.129 Z m 3.05802,0 h 0.96271 v 4.43952 h -0.96271 z m -4.87018,0 h 0.96271 v 4.43952 h -0.96271 z m -2.94476,0 h 2.03869 v 4.43952 h -2.03869 z m -2.83149,0 h 2.03868 v 4.43952 h -2.03868 z m -3.05803,0 h 0.96271 v 4.43952 h -0.96271 z m -1.81216,0 h 0.96271 v 4.43952 h -0.96271 z m -1.98204,0 h 0.96271 v 4.43952 h -0.96271 z m -2.94477,0 h 2.03868 v 4.43952 h -2.03868 z m -2.83149,0 h 2.03868 v 4.43952 h -2.03868 z m -3.17128,0 h 0.96272 v 4.43952 h -0.96272 z m -1.81216,0 h 0.96271 v 4.43952 h -0.96271 z m -1.98205,0 h 0.96271 v 4.43952 h -0.96271 z m -2.94476,0 h 2.03868 v 4.43952 h -2.03868 z m -2.8315,0 h 2.03868 v 4.43952 h -2.03868 z m -1.86879,0 h 0.96271 v 4.43952 h -0.96271 z m -2.88813,0 h 0.96271 v 4.43952 h -0.96271 z"
       inkscape:export-xdpi="300"
       inkscape:export-ydpi="300" />
    <path
       inkscape:export-ydpi="300"
       inkscape:export-xdpi="300"
       transform="scale(0.26458333)"
       d="m 632.0625,330.96875 c -14.28226,6.39912 -28.71939,12.56617 -43.41211,18.34961 l 2.99219,6.8418 39.47656,-19.30078 z m 19.84961,0 0.89453,5.58984 c 13.22614,6.335 26.49253,12.60434 40.05274,18.39649 l 2.46484,-5.63672 c -14.69269,-5.78344 -29.12984,-11.95049 -43.41211,-18.34961 z m -73.66602,22.35937 c -18.06972,6.81705 -36.56445,12.99732 -55.67968,18.2461 l 1.74023,4.14062 1.2793,0.75586 c 18.95346,-3.44382 37.51879,-7.79344 54.83203,-15.06445 z m 127.48243,0 -1.67969,6.2461 c 17.21647,6.90115 34.98367,12.90837 53.79687,17.21484 l 1.82227,-1.07422 1.74023,-4.14062 c -19.11522,-5.24878 -37.60995,-11.42905 -55.67968,-18.2461 z m -77.35938,4.85352 c -10.02306,4.39989 -20.02235,8.87402 -30.05664,13.24024 l 10.89258,24.9121 -4.08203,12.62305 0.57617,-1.29297 13.95898,10.13672 4.42969,11.10938 2.90039,-2.90821 -2.72266,-4.88086 -0.19335,-0.33789 -7.16797,-12.85351 16.07226,-38.23047 z m 27.0957,0 -4.60742,11.51758 16.07227,38.23047 -7.16797,12.85351 -0.19336,0.33789 -2.72266,4.88086 2.90039,2.90821 4.42969,-11.10938 13.95899,-10.13672 0.57617,1.29297 -4.08203,-12.62305 10.89257,-24.9121 c -10.0343,-4.36622 -20.03359,-8.84035 -30.05664,-13.24024 z m -153.54492,15.16602 c -1.4463,0.0615 -2.50476,0.60556 -3.56836,0.85156 -2.71764,4.0725 -2.41133,10.85131 -5.40234,14.85547 l 4.42969,5.27343 c 2.29951,-4.40883 4.21126,-9.10847 5.74218,-14.09374 2.12686,-0.33791 4.25061,-0.68564 6.375,-1.0293 l -1.68164,-3.80664 c -2.61419,-1.69024 -4.44823,-2.11226 -5.89453,-2.05078 z m 279.57227,0 c -1.35568,0.0628 -3.04462,0.57182 -5.33203,2.05078 l -2.04102,4.62109 c 2.23997,0.37869 4.48983,0.74349 6.76172,1.07031 1.69661,4.58067 3.56465,9.02734 5.67383,13.28711 l 4.4707,-5.32226 c -2.991,-4.00419 -2.68471,-10.78299 -5.40234,-14.85547 -1.19657,-0.27675 -2.38785,-0.93232 -4.13086,-0.85156 z m -205.70899,7.55273 c -8.64793,3.48276 -17.3602,6.77408 -26.17968,9.74219 l 22.51562,13.28711 9.71484,14.23242 -3.13086,-7.21289 z m 132.26758,0 -2.91992,30.04883 -3.13086,7.21289 9.71484,-14.23242 22.51563,-13.28711 c -8.81949,-2.9681 -17.53175,-6.25943 -26.17969,-9.74219 z m -189.59961,18.57813 c -0.88439,0.19959 -1.76699,0.40301 -2.65429,0.59375 -0.59011,1.2779 -1.20506,2.53783 -1.83594,3.78515 l 29.95898,16.72656 -13.41992,1.81446 10.01758,9.64844 v 9.68554 l 13.36719,22.78125 4.13476,26.54492 5.01367,1.50196 c 2.14771,-1.58033 4.34272,-3.09534 6.58203,-4.54297 l -20.09179,-41.46485 4.49414,-17.71679 -12.19336,-15.89258 -1.64063,-4.87891 -21.07421,-7.0957 z m 246.93164,0 -0.6582,1.49023 -21.07422,7.0957 -1.64062,4.87891 -12.19336,15.89258 4.49414,17.71679 -20.32032,41.9375 c 2.08349,1.36709 4.12793,2.79281 6.13086,4.27539 l 5.69336,-1.70703 4.13477,-26.54492 13.36719,-22.78125 v -9.68554 l 10.01757,-9.64844 -13.41992,-1.81446 29.95899,-16.72656 c -0.63088,-1.24732 -1.24581,-2.50726 -1.83594,-3.78515 -0.88732,-0.19072 -1.76989,-0.3942 -2.6543,-0.59375 z m -281.24804,0.49218 c -5.09542,9.38454 -18.28697,16.01839 -31.93946,24.21485 -23.69037,107.29392 1.62924,198.89046 45.01367,270.02734 v -10.83203 c -36.97882,-64.9703 -57.68636,-148.29746 -39.82617,-253 13.88664,-6.11307 24.80852,-14.44908 32.88477,-24.91992 l -3.74219,-2.41797 z m 315.70507,0 -2.38867,3.07227 -4.22265,2.72851 c 7.74077,11.03958 18.40406,19.80462 34.4121,24.41407 17.94427,116.6137 -4.67194,198.45112 -42.08398,259.1914 v 9.77539 c 46.37047,-70.58388 71.47529,-160.59739 46.22266,-274.96679 -13.65249,-8.19644 -26.84401,-14.83032 -31.93946,-24.21485 z m -293.13672,16.10742 c -8.02142,11.54087 -18.57798,21.17998 -32.7871,28.08008 -2.26072,20.22585 -3.42172,39.59663 -3.45313,58.21289 l 17.83399,3.16211 36.91406,30.42774 c 6.17089,-11.36494 13.9753,-21.76336 23.16406,-30.86328 l -11.40234,9.19922 -5.63868,-32.82813 -24.73046,-48.18164 6.79882,-2.45703 -5.01172,-7.0293 6.95313,-0.99609 -0.0801,-1.19531 z m 270.42774,0 -8.56055,5.53126 -0.0801,1.19531 6.95313,0.99609 -5.01172,7.0293 6.79883,2.45703 -24.73047,48.18164 -5.63867,32.82813 -18.42578,-14.86719 -0.01,0.0156 c 11.99626,10.47511 22.00192,23.03081 29.53516,37.0625 l 37.57617,-30.97461 17.83398,-3.16211 c -0.0314,-18.61629 -1.1924,-37.98705 -3.45312,-58.21289 -14.20914,-6.90013 -24.76563,-16.53917 -32.78711,-28.08008 z m -198.9668,5.01368 1.18164,2.8125 -0.41406,3.51367 26.00977,44.5332 c 1.42957,-0.41092 2.86597,-0.79769 4.30859,-1.16015 l -2.59961,-2.46875 -20.69141,-30.48829 3.16016,-3.14453 7.31445,5.01953 -9.10937,-6.98242 0.37109,-0.28711 -8.38672,-4.96093 1.67579,-5.44922 z m 127.50586,0 -2.82031,0.9375 1.67578,5.44922 -8.38672,4.96093 0.3711,0.28711 -9.10938,6.98242 7.31445,-5.01953 3.16016,3.14453 -20.69141,30.48829 -2.80078,2.66015 c 1.46447,0.37666 2.92236,0.77842 4.37305,1.20508 l 26.14648,-44.76953 -0.41406,-3.51367 z m -78.15039,19.19336 -5.34375,3.41796 -3.78711,-0.9082 17.76758,21.51953 -2.27344,-6.84375 -3.69922,-3.6914 -1.46093,-1.46094 -3.85352,-3.86133 4.06055,-4.06055 z m 28.79492,0 -1.41015,4.11132 4.06054,4.06055 -3.85351,3.86133 -1.46094,1.46094 -3.69922,3.6914 -2.27344,6.84375 17.76758,-21.51953 -3.78711,0.9082 z m -18.51172,26.02148 0.45118,0.54688 c 1.06164,-0.0265 2.12357,-0.0401 3.18554,-0.041 1.3733,1.1e-4 2.74651,0.0215 4.11914,0.0645 l 0.47266,-0.57031 H 643.64258 642.34961 642 641.83398 640.19141 Z M 470.4707,504.50391 c 0.19286,64.2942 17.326,123.62826 48.33985,175.8457 h 18.29687 c -17.49584,-22.42549 -27.92391,-50.63434 -27.92383,-81.28125 2.9e-4,-2.08291 0.0498,-4.16552 0.14844,-6.24609 l -1.14062,0.67382 -17.25782,-1.38671 19.57618,-11.71485 c 1.18424,-8.3017 3.15535,-16.47194 5.88671,-24.40039 l -3.33984,-1.67383 0.92188,-4.28906 4.71289,-0.19922 c 0.51026,-1.27249 1.04027,-2.53696 1.58984,-3.79297 l -46.50391,-38.77734 z m 342.89258,0 -3.30664,2.75781 -47.20508,39.36133 c 0.45312,1.04959 0.89261,2.10502 1.31836,3.16601 l 5.68555,0.24219 0.92187,4.28906 -4.15429,2.08203 c 2.59016,7.60061 4.48274,15.42133 5.65429,23.36524 l 20.62305,12.3418 -17.25781,1.38671 -2.125,-1.25586 c 0.11802,2.27413 0.17728,4.55094 0.17773,6.82813 9e-5,30.64691 -10.42799,58.85576 -27.92383,81.28125 h 18.88477 c 30.90492,-52.28279 48.51519,-111.8964 48.70703,-175.8457 z M 502.18359,702.16992 c 40.73315,63.40948 95.50115,109.67719 140.90625,135.1836 50.17265,-34.0012 102.20753,-78.18462 140.44336,-135.1836 h -6.27148 C 736.74706,761.56123 682.5504,799.69023 642.61914,831.35547 598.10845,803.09054 546.9491,760.90161 508.67188,702.16992 Z m 30.6836,0 c 11.22057,16.1242 23.83539,31.47823 37.73437,45.9961 v -10.46875 l -1.59961,1.3164 -2.83789,-2.4375 c 0,0 0.95441,-1.60255 2.02735,-3.54492 1.07304,-1.9426 2.27747,-4.30764 2.65429,-5.38477 0.33812,-0.96631 0.45307,-1.19885 0.8125,-2.15039 -0.21139,0.13093 -0.45007,0.35631 -0.66211,0.46289 -1.19225,0.59619 -2.0593,0.91807 -2.68164,1.09571 -0.6223,0.17764 -1.21289,0.21289 -1.21289,0.21289 h -4.88281 l 3.59961,-3.30078 c 0,0 3.18991,-2.99978 4.75195,-5.76368 1.76935,-3.13005 2.70117,-5.12695 2.70117,-5.12695 l 0.24414,-0.52148 c -5.20978,-3.12579 -10.19035,-6.59457 -14.90234,-10.38477 z m 191.39843,0 c -5.06588,4.07487 -10.43965,7.78184 -16.07812,11.08594 h 3.11914 v 2.11133 l 0.79297,-0.79297 8.93945,8.93945 h -3.81054 l 0.92382,3.44531 h 0.10547 v 0.39063 l 0.48047,1.7832 h -0.48047 v 5.44336 h -2.05664 v 10.57617 c 12.57047,-13.5748 24.10879,-27.92738 34.49805,-42.98242 z m -20.57421,13.60547 c -0.29966,0.16023 -0.60327,0.31467 -0.9043,0.47266 v 0.6289 h 0.9043 z m -19.97071,8.64063 c -1.49828,0.50548 -3.01142,0.97892 -4.5332,1.43164 v 1.69726 h -4.15234 v 4.56836 h -3.56055 c 0.79279,0.69948 1.64422,1.52204 2.19531,1.7832 2.9534,1.39907 6.02344,3.81055 6.02344,3.81055 l 3.64648,2.81641 -4.57031,0.57226 c 0,0 -0.41208,0.0554 -0.85742,0.19141 -0.33328,0.10129 -0.57435,0.33681 -0.57813,0.28125 0.002,0.004 -0.043,0.0879 -0.043,0.0879 l 2.04687,6.13867 -5.03906,-4.06054 c -2.16053,-1.74059 -4.16782,-4.2413 -5.89453,-6.61133 0.0521,2.54267 0.12304,5.35351 0.12304,5.35351 l 0.0586,1.95703 h -7.86914 v -12.18164 h -0.63086 v 12.04102 h -7.39844 v -4.49805 c -0.76286,0.72193 -1.61958,1.40514 -2.61719,1.92774 -3.32409,1.74122 -6.41992,1.74023 -6.41992,1.74023 l -0.71289,-3.66016 c 0,0 4.70883,-2.16125 6.26758,-4.86328 0.87432,-1.51551 0.79912,-1.31816 1.30664,-2.13476 H 648.125 l -1.58203,-1.58203 c -1.69394,0.0643 -3.39381,0.10156 -5.10352,0.10156 -3.08563,1e-5 -6.14499,-0.11031 -9.17773,-0.31836 v 9.88672 l -0.31836,0.47851 c 0,0 -0.59942,0.92487 -1.58984,1.75391 -0.99032,0.82946 -2.77439,1.80774 -4.71094,1.0332 -1.45036,-0.58004 -2.87962,-1.62927 -4.12305,-2.5664 -1.24354,-0.93714 -2.2168,-1.76563 -2.2168,-1.76563 l 2.0586,-3.15625 c 0,0 0.87199,0.41222 1.80273,0.64844 0.43571,0.11074 0.84481,0.15413 1.09766,0.15039 0.0234,-0.0699 0.0474,-0.10013 0.0625,-0.18555 0.0854,-0.44666 0.16817,-1.1088 0.23242,-1.88281 0.12071,-1.44565 0.18149,-3.29211 0.21094,-5.12305 -0.69931,-0.088 -1.39594,-0.18429 -2.0918,-0.2832 -0.86855,1.00473 -1.74335,1.99449 -2.56445,2.84961 -1.14493,1.19233 -1.94379,2.09583 -3.19727,2.68555 -2.43749,1.14708 -9.32031,4.17382 -9.32031,4.17382 l -1.50977,-2.25976 h -1.41015 l 1.52734,1.75195 c 0,0 -0.56809,0.66563 -1.14258,1.4043 -0.28732,0.36937 -0.57539,0.75793 -0.77343,1.05273 -0.19881,0.29481 -0.28306,0.74669 -0.16211,0.14454 -0.0908,0.4529 -0.67774,4.08007 -0.67774,4.08007 l -0.25781,1.59961 h -3.87305 V 749 h -16.80859 v -3.07031 c -0.46991,0.41212 -1.03516,0.88281 -1.03516,0.88281 l -0.33008,0.1875 -0.375,0.0469 c 0,0 -0.85177,0.13685 -1.86132,-0.13868 -0.1081,-0.0291 -0.23591,-0.15764 -0.35157,-0.19922 v 3.95313 h -5.53906 c 20.47594,21.02123 43.67298,40.25391 69.29297,57.46484 25.10107,-16.86644 48.0706,-36.05974 68.47852,-57.24414 h -1.88868 l -1.70117,-2.94726 v 0.14843 h -6.36133 v 2.54297 h -7.32226 v -12.05664 c -0.31234,0.17673 -0.59463,0.30383 -0.88867,0.40625 v 11.45703 h -8.21485 v -16.48828 l -1.20312,0.98438 -2.95508,-2.20117 z m -80.80468,1.19921 v 6.99415 l 3.28125,3.2832 c 0.76702,-0.74074 4.92319,-4.7404 7.38867,-7.51563 -3.61387,-0.77524 -7.17232,-1.69768 -10.66992,-2.76172 z m -24.00977,2.5918 -0.35156,0.51563 v 3.74218 h 0.35156 z m 113.7168,1.17969 v 0.83203 l 0.77929,-0.83203 z m -114.06836,7.98437 v 1.875 c 0.8016,-0.81653 1.62695,-1.52539 1.62695,-1.52539 l 0.44336,-0.34961 z m 3.9414,0 0.0117,0.0195 v -0.0195 z m 19.44336,0.0723 c 0.0189,0.0163 0.0182,0.0202 0.0371,0.0391 l 0.0606,-0.0391 z m 105.25586,4.96289 v 1.28906 h 1.58594 v -1.28906 z"
       style="display:inline;fill:#000000;stroke:#000000;stroke-width:0.188976;fill-opacity:1"
       id="path865" />
    <path
       inkscape:export-ydpi="300"
       inkscape:export-xdpi="300"
       d="m 690.54102,713.61719 c -0.47491,4e-5 -0.83985,0.0488 -0.83985,0.0488 l -7.89062,18.89843 4.28515,-3.50781 v 18.50977 h 4.39453 v -11.10547 c 0,0 1.25725,0.28984 2.6211,-0.97656 1.3638,-1.2664 2.04492,-1.26563 2.04492,-1.26563 v 13.54102 h 3.50586 v -8.47461 h 2.92383 v 5.94336 h 3.4082 v -5.6504 h 5.35938 v 5.06446 h -2.63086 l 1.94531,3.37109 h 4.28906 v -16.22851 h 2.04688 v -3.80078 h -15.39258 l 0.43359,-1.61719 h 14.86133 l -0.75,-2.79297 h -5.38867 v -2.79883 h 6.33203 l -4.33399,-4.33398 -1.60742,1.60742 h -1.07226 v -3.70117 h -3.79883 v 3.60351 h -3.99414 l -0.68555,0.1836 V 713.957 h -3.5039 v 4.0918 h -3.79883 v 2.24023 h 3.50781 v 3.3125 h -4.87109 v 3.01953 h 3.21484 l 0.90039,1.56055 -5.56641,5.94141 v -14.22266 l 1.64649,0.0977 c 0,0 -0.58565,-2.14306 0.29101,-3.11719 0.87674,-0.97417 0.48807,-2.63186 -0.38867,-3.02148 -0.43837,-0.19484 -1.02314,-0.24224 -1.49804,-0.24219 z m 10.36328,6.3789 h 3.89648 v 3.3125 h -3.89648 z m -2.14453,9.64453 h 3.50781 v 3.21485 h -3.50781 z m 7.55859,0 h 3.50586 v 3.21485 h -3.50586 z m -7.55859,5.13282 h 3.50781 v 3.21484 h -3.50781 z m 7.55859,0 h 3.50586 v 3.21484 h -3.50586 z m -55.51172,-28.03321 c 0,0 0.1389,0.41293 1.6543,2.61719 1.51544,2.20426 2.47851,4.4082 2.47851,4.4082 H 644.4707 l 1.10157,1.10352 h 9.09179 v 3.69141 h -7.91601 l 1.71679,0.99218 h 6.0625 v 4.3711 h -10.86328 l 1.49414,0.86328 h 9.36914 v 3.92773 h -6.95703 l 1.3086,1.3086 h 4.95898 c 0,0 -0.96475,1.37705 -3.03125,4.95898 -2.06646,3.5819 -7.16406,5.64844 -7.16406,5.64844 0,0 2.6186,-1.9e-4 5.51172,-1.51563 2.89307,-1.5154 5.37304,-5.50976 5.37304,-5.50976 v 7.85156 h 3.58204 v -11.98437 h 4.4082 v 12.12304 h 3.99414 c 0,0 -0.41333,-13.77664 0,-12.12347 -1.70105,-1.6305 4.03108,7.99166 8.81836,11.84808 0,0 -0.2757,-0.82663 0.27539,-1.79101 0.55105,-0.96435 2.75586,-1.24024 2.75586,-1.24024 0,0 -3.03229,-2.34212 -5.64982,-3.58203 -2.61755,-1.23987 -5.92245,-5.37305 -5.92245,-5.37305 h 6.19922 v -4.54687 h 4.13281 v -2.06641 h -3.16992 v -3.58203 l -1.10156,-1.10156 -1.79102,-1.65234 -0.96484,2.20312 H 666.375 v -3.85742 h 11.57227 c 0,0 -3.7203,-3.44336 -4.54688,-3.44336 -0.82662,0 -1.10156,1.92773 -1.10156,1.92773 h -6.33789 c 0,0 0.96548,-2.34239 1.65429,-3.03125 0.68882,-0.68882 3.99415,-0.6875 3.99415,-0.6875 l -5.64844,-1.92968 -3.44336,5.64843 h -2.06641 -2.48047 c 0,0 0.13835,-2.06659 -1.10156,-3.58203 -1.23987,-1.51544 -6.0625,-2.89258 -6.0625,-2.89258 z m 7.02734,8.4043 h 5.23438 v 3.16797 h -5.23438 z m 8.54102,4.82031 h 3.58203 v 3.03125 H 666.375 Z m -8.54102,0.0469 h 5.23438 v 3.16797 h -5.23438 z m 8.54102,4.81836 h 3.58203 v 3.03125 H 666.375 Z m -8.54102,0.31445 h 5.23438 v 3.16797 h -5.23438 z m -50.83637,11.90427 c 0,0 6.33721,-6.06169 8.9548,-9.23033 2.61755,-3.1686 7.99041,-10.60796 7.99041,-10.60796 h -15.01648 l -1.85986,-1.85987 h 19.49389 v -6.81944 h 3.99523 v 6.33725 h 4.82181 l 1.92313,-3.33094 4.55188,4.57085 h -11.43459 v 23.2825 c 0,0 -1.92873,2.89307 -3.99522,2.06645 -2.0665,-0.82658 -5.78615,-3.99519 -5.78615,-3.99519 0,0 3.99522,1.92874 5.23509,0.4133 1.23992,-1.51544 0.82662,-16.53196 0.82662,-16.53196 0,0 -8.12821,10.47024 -10.47023,11.57238 -2.34202,1.10211 -9.23033,4.13296 -9.23033,4.13296 z m -10.608,-0.4133 c 0,0 3.44414,3.30641 3.44414,4.95961 0,1.65317 0.27552,3.03084 0.27552,3.03084 h 1.65321 c 0,0 0.55105,-3.44417 0.68885,-4.13298 0.13796,-0.68882 2.47979,-3.44417 2.47979,-3.44417 l -3.03088,1.92873 c 0,0 -2.34202,-2.89308 -4.40852,-2.89308 -2.06649,0 -1.10211,0.55105 -1.10211,0.55105 z m -11.71011,0.13777 v 9.36812 h 12.94999 v -6.19948 c 0,0 -2.20426,3.99523 -5.37287,3.99523 -3.16864,0 -4.13298,-2.0665 -4.13298,-2.0665 v -4.82184 z m -3.03088,1.51544 c 0,0 -3.30636,2.61755 -3.1686,4.40851 0.13795,1.79097 2.34202,1.51544 2.34202,1.51544 0,0 1.92873,-1.10214 1.65321,-3.03088 -0.27553,-1.92873 -0.82663,-2.89307 -0.82663,-2.89307 z m 6.6131,-24.7985 v 4.54688 h -7.57813 l -0.41211,1.81445 h 7.62696 l 0.36328,1.35352 h -12.95117 c 0,0 -1.37742,3.4439 -2.3418,6.19922 -0.96435,2.75531 -4.82031,9.23047 -4.82031,9.23047 l 4.68359,-3.85743 v 15.01758 h 4.13281 v -20.52734 l 1.79102,-2.61719 h 2.3418 v 8.81641 h -2.06641 v 1.10156 h 9.91992 l 1.37695,4.82226 1.51563,2.3418 2.47852,-2.0664 -3.16797,-5.02735 h 12.19336 l -2.13672,-2.13672 v -11.02148 h -9.0918 v -2.20313 h 10.4707 c 0,0 -2.61764,-3.85742 -3.58203,-3.85742 -0.96434,0 -2.20508,2.20313 -2.20508,2.20313 h -4.4082 v -4.13282 z m -3.9961,10.05665 h 1.68165 v 6.02539 l -1.68165,0.45117 z m 5.2461,0 h 1.67969 v 6.02539 l -1.67969,0.45117 z m 6,0 h 1.67969 v 6.02539 l -1.67969,0.45117 z m -12.20899,7.85351 h 14.18946 v 1.92969 h -14.18946 z m -7.99135,-18.32285 4.40851,2.61755 c 0,0 -7.02606,6.61277 -9.23032,7.71488 -2.20426,1.10215 -3.03084,1.10215 -3.03084,1.10215 0,0 3.30637,-3.03088 5.09733,-6.19948 1.79097,-3.16861 2.75532,-5.2351 2.75532,-5.2351 z"
       transform="scale(0.26458333)"
       style="fill:#000000;stroke:#000000;stroke-width:0.188976;stroke-opacity:1;fill-opacity:1"
       id="path965" />
    <path
       inkscape:export-ydpi="300"
       inkscape:export-xdpi="300"
       d="m 186.96514,260.63156 a 1.3402731,1.3402731 0 0 1 -1.34028,1.34027 1.3402731,1.3402731 0 0 1 -1.34027,-1.34027 1.3402731,1.3402731 0 0 1 1.34027,-1.34027 1.3402731,1.3402731 0 0 1 1.34028,1.34027 m -12.4233,0 a 1.3402731,1.3402731 0 0 1 -1.34027,1.34027 1.3402731,1.3402731 0 0 1 -1.34027,-1.34027 1.3402731,1.3402731 0 0 1 1.34027,-1.34027 1.3402731,1.3402731 0 0 1 1.34027,1.34027 m -12.42329,0 a 1.3402731,1.3402731 0 0 1 -1.34028,1.34027 1.3402731,1.3402731 0 0 1 -1.34027,-1.34027 1.3402731,1.3402731 0 0 1 1.34027,-1.34027 1.3402731,1.3402731 0 0 1 1.34028,1.34027 z m 58.79458,-17.50583 v 1.26814 h 1.31464 v 4.19922 h 1.33997 v -4.19922 h 1.36633 v -1.26814 h -1.36633 -1.33997 z m -19.22777,0 v 1.26814 h 1.31465 v 4.19922 h 1.33997 v -4.19922 h 1.36633 v -1.26814 h -1.36633 -1.33997 z m -11.87429,-0.003 c -0.0698,7e-5 0,0.003 0,0.003 h -1.34849 v 5.46736 h 1.34849 v -1.91364 c 1.91265,0 2.51513,-0.47618 2.55153,-1.69492 0,-1.75419 -2.06315,-1.86188 -2.55153,-1.86139 z m 0,1.09606 c 0,0 1.16608,0.007 1.16608,0.69246 0,0.68618 -1.16608,0.69247 -1.16608,0.69247 z m 22.31295,4.37405 v -5.4676 h 3.35069 v 1.19067 h -2.13929 v 0.87634 h 1.72689 v 1.15985 h -1.67534 v 1.1083 h 2.08774 v 1.13244 z m -27.65605,0 v -5.4676 h 3.35069 v 1.19067 h -2.13929 v 0.87634 h 1.72689 v 1.15985 h -1.67534 v 1.1083 h 2.08774 v 1.13244 z m -8.57962,3.7082 v 9.79747 h 2.07248 c 0,0 5.58863,0.0125 5.58863,-4.89226 0,-4.9049 -5.58863,-4.90521 -5.58863,-4.90521 z m 2.44197,1.94838 c 0,0 2.72533,0.16039 2.72533,3.00222 0,2.8419 -2.72533,2.72532 -2.72533,2.72532 z m 1.16646,-11.1241 v 5.46736 h 1.15652 c 0,0 3.11867,0.007 3.11867,-2.73007 0,-2.73712 -3.11867,-2.73729 -3.11867,-2.73729 z m 1.36271,1.08727 c 0,0 1.52084,0.0895 1.52084,1.67535 0,1.58589 -1.52084,1.52083 -1.52084,1.52083 z m -8.78576,-1.08727 v 5.46736 h 1.15652 c 0,0 3.11867,0.007 3.11867,-2.73007 0,-2.73712 -3.11867,-2.73729 -3.11867,-2.73729 z m 1.36271,1.08727 c 0,0 1.52084,0.0895 1.52084,1.67535 0,1.58589 -1.52084,1.52083 -1.52084,1.52083 z m 25.45345,-1.08986 c -0.0698,7e-5 -0.10956,0.003 -0.10956,0.003 h -1.34823 v 5.46736 h 1.4211 v -2.04122 l 0.91157,2.04122 h 1.64021 l -1.13016,-2.36936 c 0,0 1.0573,0.073 1.0573,-1.2392 0,-1.75419 -1.95385,-1.86188 -2.44223,-1.86139 z m -0.21859,1.09606 c 0,0 1.32077,0.008 1.27537,0.69246 -0.0454,0.68468 -1.27537,0.69247 -1.27537,0.69247 z m -29.57671,-1.09606 c -0.0698,7e-5 -0.10956,0.003 -0.10956,0.003 h -1.34824 v 5.46736 h 1.4211 v -2.04122 l 0.91158,2.04122 h 1.64021 l -1.13017,-2.36936 c 0,0 1.0573,0.073 1.0573,-1.2392 0,-1.75419 -1.95384,-1.86188 -2.44222,-1.86139 z m -0.2186,1.09606 c 0,0 1.32078,0.008 1.27538,0.69246 -0.0454,0.68468 -1.27538,0.69247 -1.27538,0.69247 z m 25.22373,-1.09347 -1.6769,5.46736 h 1.27589 l 0.40101,-1.09347 h 1.56734 l 0.29146,1.09347 h 1.38492 l -1.67638,-5.46736 z m 0.83819,1.45779 0.32814,1.6769 h -0.69246 z m -30.87351,-1.45779 -1.6769,5.46736 h 1.27589 l 0.40101,-1.09347 h 1.56735 l 0.29145,1.09347 h 1.38493 l -1.67638,-5.46736 z m 0.83819,1.45779 0.32815,1.6769 h -0.69247 z m 41.15288,-1.45779 v 5.46736 h 1.45779 v -2.40554 l 1.2578,2.40554 1.18443,-2.40554 0.0367,2.40554 h 1.49448 v -5.46736 h -1.56735 l -1.05729,2.73368 -1.2759,-2.73368 z m -73.04705,0 v 5.46736 h 1.45779 v -2.40554 l 1.2578,2.40554 1.18443,-2.40554 0.0367,2.40554 h 1.49448 v -5.46736 h -1.56735 l -1.05729,2.73368 -1.2759,-2.73368 z m 34.90739,9.48503 a 4.9203259,4.9203259 0 0 0 -4.92096,4.92004 4.9203259,4.9203259 0 0 0 4.92096,4.92006 4.9203259,4.9203259 0 0 0 3.06654,-1.07261 v -5.25344 h -3.38634 v 2.49219 h 1.40599 v 1.53372 c 0,0 -3.45064,0.51098 -3.45064,-3.06744 0,-3.57841 4.66457,-1.7892 4.66457,-1.7892 l 0.76642,-1.61073 a 4.9203259,4.9203259 0 0 0 -3.06654,-1.07259 z m -12.4237,-9.48503 a 2.8067008,2.8067008 0 0 0 -2.80706,2.80654 2.8067008,2.8067008 0 0 0 2.80706,2.80655 2.8067008,2.8067008 0 0 0 1.74925,-0.61185 v -2.99672 h -1.93167 v 1.42162 h 0.80202 v 0.87488 c 0,0 -1.96835,0.29148 -1.96835,-1.74976 0,-2.04123 2.66081,-1.02061 2.66081,-1.02061 l 0.43719,-0.91881 a 2.8067008,2.8067008 0 0 0 -1.74925,-0.61184 z m -24.7435,0 a 2.8067008,2.8067008 0 0 0 -2.80707,2.80654 2.8067008,2.8067008 0 0 0 2.80707,2.80655 2.8067008,2.8067008 0 0 0 1.74924,-0.61185 v -2.99672 h -1.93166 v 1.42162 h 0.80202 v 0.87488 c 0,0 -1.96836,0.29148 -1.96836,-1.74976 0,-2.04123 2.66082,-1.02061 2.66082,-1.02061 l 0.43718,-0.91881 a 2.8067008,2.8067008 0 0 0 -1.74924,-0.61184 z m 24.44418,9.69112 c 0,0 -0.35113,7.2347 0,7.2347 0.35112,0 3.72624,0 3.72624,0 v 1.94443 h -6.231 v -9.17913 z m 60.81109,-4.2236 v -5.4676 h 1.20287 l 1.82253,3.17121 v -3.17121 h 1.42157 v 5.4676 h -1.60383 l -1.31222,-2.9525 v 2.9525 z m -71.85926,0 v -5.4676 h 1.20287 l 1.82253,3.17121 v -3.17121 h 1.42157 v 5.4676 h -1.60383 l -1.31222,-2.9525 v 2.9525 z m -20.94151,0 v -5.4676 h 1.20287 l 1.82253,3.17121 v -3.17121 h 1.42157 v 5.4676 h -1.60383 l -1.31222,-2.9525 v 2.9525 z m 34.79447,-5.4676 h 1.70112 v 3.43305 c 0,0 0.0819,0.91913 0.53065,0.91913 0.44878,0 0.9417,-0.49778 0.9417,-0.9417 0,-1.01328 -0.13205,-3.41048 -0.13205,-3.41048 h 1.54647 c 0,0 0.0515,2.48326 0.0515,3.63925 0,0.98606 -0.93946,1.82835 -2.32549,1.82835 -1.38604,0 -1.95308,-1.20976 -2.15927,-1.6737 -0.2062,-0.46395 -0.15465,-3.7939 -0.15465,-3.7939 z m -18.97002,0 h 1.70112 v 3.43305 c 0,0 0.0819,0.91913 0.53065,0.91913 0.44878,0 0.9417,-0.49778 0.9417,-0.9417 0,-1.01328 -0.13205,-3.41048 -0.13205,-3.41048 h 1.54647 c 0,0 0.0515,2.48326 0.0515,3.63925 0,0.98606 -0.93946,1.82835 -2.32549,1.82835 -1.38604,0 -1.95308,-1.20976 -2.15927,-1.6737 -0.2062,-0.46395 -0.15465,-3.7939 -0.15465,-3.7939 z m -20.92888,0 h 1.70112 v 3.43305 c 0,0 0.0819,0.91913 0.53065,0.91913 0.44878,0 0.9417,-0.49778 0.9417,-0.9417 0,-1.01328 -0.13205,-3.41048 -0.13205,-3.41048 h 1.54647 c 0,0 0.0515,2.48326 0.0515,3.63925 0,0.98606 -0.93946,1.82835 -2.32549,1.82835 -1.38604,0 -1.95308,-1.20976 -2.15927,-1.6737 -0.2062,-0.46395 -0.15465,-3.7939 -0.15465,-3.7939 z m -2.4773,0 c 0,0 -0.20915,4.30939 0,4.30939 0.20915,0 2.21956,0 2.21956,0 v 1.15821 h -3.71153 v -5.4676 z m 102.86347,-10.57085 -0.72864,1.09347 h -1.96835 l -0.72916,-0.43719 h -1.6769 l -0.21859,5.75934 2.78485,-0.40772 -0.37931,-1.4149 h 2.55178 l -0.14572,0.58291 c 0,0 0.72918,0.14624 1.6769,0.14624 0.94771,0 0.94723,-0.36484 0.94723,-0.36484 0,0 0.0729,-2.33289 0,-2.9161 -0.0729,-0.58321 0.58342,-0.87436 0.58342,-0.87436 z m -2.4784,1.89549 h 2.25981 v 2.25981 h -2.25981 z m 5.24877,-9.7684 c -0.2916,0 -0.72915,1.09347 -0.72915,1.09347 h -7.80004 c -1.09352,0 -2.26033,-0.80201 -2.26033,-0.80201 l -0.72863,0.5829 c 0,0 0.43725,8.52985 0.29145,10.27948 -0.1458,1.74963 -1.74976,5.6131 -1.74976,5.6131 0,0 2.62472,-2.84316 3.49953,-4.00958 0.87481,-1.16642 1.16633,-5.17591 1.16633,-5.17591 0,0 5.17603,-0.0393 7.26157,-0.0393 2.08553,0 1.77819,0.47645 1.77819,0.47645 0,0 -0.10387,2.04143 -0.10387,4.2106 0,2.16916 -1.06247,1.84071 -1.06247,1.84071 h -2.98896 c 0,0 0.94763,0.43733 2.18694,1.16634 1.23932,0.72902 0.58292,0.94775 0.58292,0.94775 0,0 -0.72898,0.47387 1.42161,0.47387 2.15058,0 2.7342,-2.7342 2.7342,-2.7342 0,0 0.14573,-4.95731 0.14573,-5.97793 0,-1.02062 0.43718,-1.09348 0.43718,-1.09348 l -2.69751,-1.2392 -0.43718,1.2392 h -9.33121 v -1.82211 h 7.87342 l 0.21859,0.72864 2.4784,-0.36432 -0.21859,-2.98896 c 0,0 1.02053,-0.80183 1.16634,-1.16634 0.1458,-0.3645 -2.84308,-1.2392 -3.1347,-1.2392 z m -8.16487,1.89498 h 7.87342 v 2.33319 h -7.87342 z m -27.26507,0.29181 h 10.93519 l 1.23932,-1.82253 3.13475,1.89543 c 0,0 -0.87481,0.21871 -0.87481,0.80191 0,0.58321 0,6.63402 0,6.63402 0,0 -1.09353,2.18704 -2.69735,2.40574 -1.60383,0.2187 -1.60383,0.2187 -1.60383,0.2187 0,0 -0.0729,-1.38512 -0.65611,-1.96833 -0.58321,-0.58321 -1.74963,-1.31222 -1.74963,-1.31222 l 3.06185,0.0729 c 0,0 0.73224,0.015 0.73224,-1.26827 0,-1.28328 0,-5.00124 0,-5.00124 h -3.79409 v 11.9558 h 4.51988 l 1.74963,-1.74963 c 0,0 2.98895,1.89544 2.33284,2.11414 -0.65612,0.21871 -16.98599,0 -16.98599,0 v -0.65611 h 5.17599 v -11.6642 h -4.59278 z m -23.69291,-1.67673 c 0,0 2.62445,0.72901 3.13475,1.53093 0.51031,0.80191 1.02062,1.45802 0.0729,2.25993 -0.94772,0.80192 -1.96834,0.29161 -2.11414,-0.2916 -0.1458,-0.58321 0.21871,-1.02062 -0.2916,-1.89543 -0.51031,-0.87482 -0.80192,-1.60383 -0.80192,-1.60383 z m 1.38513,5.32179 c 0,0 -0.36451,0.94772 -0.94772,1.23932 -0.58321,0.29161 -1.38512,0 -1.38512,0 l 0.22847,0.85267 h 1.59406 v 4.83363 l -2.40574,1.02062 2.04123,2.84315 0.36451,-0.14581 V 240.355 l 1.89543,-2.40574 c 0,0 1.74963,3.06185 4.66568,3.06185 2.91605,0 7.72753,-0.2187 7.72753,-0.2187 0,0 -0.2187,-0.87482 0.21871,-1.31223 0.4374,-0.4374 0.80191,-1.45802 0.80191,-1.45802 h -11.81 c 0,0 1.88863,-1.24325 2.77024,-2.77025 0.88162,-1.527 0.94772,-3.64506 0.94772,-3.64506 l -0.1458,-0.43741 h 2.62444 v 6.56111 h 2.55155 v -6.48821 h 3.28055 l -2.40574,-2.40574 c 0,0 -0.80191,1.74963 -1.53092,1.89544 -0.72902,0.1458 -4.51988,0 -4.51988,0 v -3.42636 h 8.23784 l -2.9525,-2.9525 c 0,0 -2.8796,2.66089 -5.06664,2.36929 -2.18704,-0.29161 -2.55154,-0.58321 -2.55154,-0.58321 0,0 0.51031,6.77981 -0.0729,8.16494 -0.58321,1.38512 -1.82253,3.64506 -1.82253,3.64506 l -0.36451,-0.65611 v -4.37408 c 0,0 1.09352,-0.3645 0.94772,-0.80191 -0.14581,-0.43741 -2.91605,-1.60383 -2.91605,-1.60383 z m -17.3505,-4.15537 h 4.30117 l 0.58321,-1.31222 2.77025,1.45802 c 0,0 -0.43741,0.21871 -0.58321,0.94772 -0.1458,0.72901 0,11.7371 0,11.7371 0,0 -0.2916,1.60383 -1.82253,1.82253 -1.53093,0.2187 -1.74963,0.2187 -1.74963,0.2187 0,0 0.2187,-0.80191 -0.65611,-1.53092 -0.87482,-0.72901 -2.04124,-0.72901 -2.04124,-0.72901 l 0.36451,-0.72902 h 3.35346 V 227.16029 H 146.167 Z m -7.43593,1.02062 c 0,0 1.38513,-0.2187 2.11414,0 0.72901,0.2187 1.53092,0.3645 1.53092,0.3645 0,0 -0.0729,-0.80191 -0.51031,-1.60382 -0.4374,-0.80192 -0.65611,-1.38513 -0.65611,-1.38513 0,0 2.40575,0 3.13476,0.87482 0.72901,0.87481 0.80191,1.96833 0.2916,2.47864 -0.5103,0.51031 -1.53092,0.51031 -1.96833,0.1458 -0.43741,-0.3645 -1.23932,0.1458 -1.23932,0.65611 0,0.51031 0,12.02871 0,12.02871 h -2.55155 z m -15.01765,-2.04124 c 0,0 2.77024,0.0729 3.35345,0.87482 0.58321,0.80191 0.51031,1.67673 -0.0729,2.11413 -0.58321,0.43741 -2.04123,0.65611 -2.25994,-0.5103 -0.2187,-1.16642 0.36451,-1.09352 -0.2916,-1.53093 -0.65611,-0.43741 -0.72901,-0.94772 -0.72901,-0.94772 z m -4.66569,-0.43741 3.93667,0.29161 c 0,0 -0.87481,0.51031 -1.16642,1.09352 -0.2916,0.58321 0,2.91605 0,2.91605 h 4.95729 l 1.67673,-1.67673 c 0,0 2.77024,1.60383 2.62444,2.04124 -0.1458,0.4374 -0.87481,0.1458 -0.87481,0.1458 h -4.66568 v 3.93667 c 0,0 1.53092,-2.77025 1.96833,-2.77025 0.43741,0 2.77025,1.45802 2.77025,1.45802 0,0 0.58321,0.51031 0,0.65611 -0.58321,0.14581 -0.80192,0.14581 -0.80192,0.14581 0,0 -1.96833,2.25993 -2.62444,2.62444 -0.65611,0.36451 -1.45803,0.65611 -1.45803,0.65611 v 1.60383 c 0,0 0.33259,0.47481 0.82241,0.47481 0.48982,0 1.51043,-0.0374 1.51043,-0.0374 l 1.74963,-3.42636 c 0,0 0,2.33284 0.36451,2.84315 0.36451,0.51031 1.16642,1.60382 1.16642,1.60382 0,0 -0.2187,1.23933 -3.42636,1.23933 -3.20765,0 -3.64506,0 -3.64506,0 0,0 -1.16642,-0.87482 -1.16642,-1.38513 0,-0.51031 -0.0729,-1.09352 -0.0729,-1.09352 0,0 -3.20766,1.67673 -4.15537,1.89544 -0.94772,0.2187 1.53092,-1.16642 2.69734,-2.55155 1.16642,-1.38512 1.45803,-1.74963 1.45803,-1.74963 v -5.75919 h -1.02062 c 0,0 -0.43741,5.75919 -2.55154,7.65462 -2.11414,1.89544 -5.5405,3.86377 -5.5405,3.86377 0,0 2.84315,-3.35346 3.79087,-5.54049 0.94771,-2.18704 1.53092,-5.8321 1.53092,-5.8321 h -4.88438 v -1.02062 h 5.03018 z"
       style="fill:#000000;stroke:none;stroke-width:1;stroke-miterlimit:4;stroke-dasharray:none;stroke-opacity:1;fill-opacity:1"
       id="circle1120" />
  </g>
  <g
     inkscape:label="Layer 1"
     inkscape:groupmode="layer"
     id="layer1"
     style="display:none;opacity:0.357616"
     sodipodi:insensitive="true" />
</svg>
