<?xml version="1.0" encoding="UTF-8" standalone="no"?>
<svg
   xmlns:dc="http://purl.org/dc/elements/1.1/"
   xmlns:cc="http://creativecommons.org/ns#"
   xmlns:rdf="http://www.w3.org/1999/02/22-rdf-syntax-ns#"
   xmlns:svg="http://www.w3.org/2000/svg"
   xmlns="http://www.w3.org/2000/svg"
   xmlns:xlink="http://www.w3.org/1999/xlink"
   xmlns:sodipodi="http://sodipodi.sourceforge.net/DTD/sodipodi-0.dtd"
   xmlns:inkscape="http://www.inkscape.org/namespaces/inkscape"
   inkscape:export-ydpi="300"
   inkscape:export-xdpi="300"
   inkscape:export-filename="D:\Titipan\Projects\Codes\Rhodes Wiki Indo\Icon Assets\Lee_B.png"
   width="1280"
   height="1280"
   viewBox="0 0 338.66666 338.66668"
   version="1.1"
   id="svg8"
   inkscape:version="1.0 (4035a4fb49, 2020-05-01)"
   sodipodi:docname="Rhine_Z.svg">
  <defs
     id="defs2">
    <pattern
       inkscape:collect="always"
       xlink:href="#pattern4166"
       id="pattern4174"
       patternTransform="translate(-51.833686,-17.277895)" />
    <inkscape:path-effect
       end_linecap_type="zerowidth"
       scale_width="1"
       miter_limit="4"
       linejoin_type="extrp_arc"
       start_linecap_type="zerowidth"
       interpolator_beta="0.2"
       interpolator_type="CubicBezierJohan"
       sort_points="true"
       offset_points="0,3.40217"
       lpeversion="1"
       is_visible="true"
       id="path-effect892"
       effect="powerstroke" />
    <inkscape:path-effect
       end_linecap_type="zerowidth"
       scale_width="1"
       miter_limit="4"
       linejoin_type="extrp_arc"
       start_linecap_type="zerowidth"
       interpolator_beta="0.2"
       interpolator_type="CubicBezierJohan"
       sort_points="true"
       offset_points="0,3.40217"
       lpeversion="1"
       is_visible="true"
       id="path-effect887"
       effect="powerstroke" />
    <inkscape:path-effect
       end_linecap_type="zerowidth"
       scale_width="1"
       miter_limit="4"
       linejoin_type="extrp_arc"
       start_linecap_type="zerowidth"
       interpolator_beta="0.2"
       interpolator_type="CubicBezierJohan"
       sort_points="true"
       offset_points="2.7941224,-3.4021738 | 2.7941224,-3.4021738"
       lpeversion="1"
       is_visible="true"
       id="path-effect882"
       effect="powerstroke" />
    <inkscape:path-effect
       end_linecap_type="zerowidth"
       scale_width="1"
       miter_limit="4"
       linejoin_type="extrp_arc"
       start_linecap_type="zerowidth"
       interpolator_beta="0.2"
       interpolator_type="CubicBezierJohan"
       sort_points="true"
       offset_points="0,3.01003"
       lpeversion="1"
       is_visible="true"
       id="path-effect877"
       effect="powerstroke" />
    <inkscape:path-effect
       end_linecap_type="zerowidth"
       scale_width="1"
       miter_limit="4"
       linejoin_type="extrp_arc"
       start_linecap_type="zerowidth"
       interpolator_beta="0.2"
       interpolator_type="CubicBezierJohan"
       sort_points="true"
       offset_points="0,3.01003"
       lpeversion="1"
       is_visible="true"
       id="path-effect872"
       effect="powerstroke" />
    <inkscape:path-effect
       end_linecap_type="zerowidth"
       scale_width="1"
       miter_limit="4"
       linejoin_type="extrp_arc"
       start_linecap_type="zerowidth"
       interpolator_beta="0.2"
       interpolator_type="CubicBezierJohan"
       sort_points="true"
       offset_points="11.631982,3.0100329"
       lpeversion="1"
       is_visible="true"
       id="path-effect868"
       effect="powerstroke" />
    <inkscape:path-effect
       end_linecap_type="zerowidth"
       scale_width="1"
       miter_limit="4"
       linejoin_type="extrp_arc"
       start_linecap_type="zerowidth"
       interpolator_beta="0.2"
       interpolator_type="CubicBezierJohan"
       sort_points="true"
       offset_points="156.61386,0.938298"
       lpeversion="1"
       is_visible="true"
       id="path-effect864"
       effect="powerstroke" />
    <pattern
       patternUnits="userSpaceOnUse"
       width="34.555802"
       height="34.555802"
       patternTransform="translate(697.97451,522.68951)"
       id="pattern4166">
      <circle
         r="5.0119109"
         cy="17.277901"
         cx="5.0119109"
         id="path4156"
         style="opacity:1;fill:#000000;fill-opacity:1;stroke:none;stroke-width:2.83465;stroke-miterlimit:4;stroke-dasharray:none;stroke-opacity:1" />
      <circle
         style="opacity:1;fill:#000000;fill-opacity:1;stroke:none;stroke-width:2.83465;stroke-miterlimit:4;stroke-dasharray:none;stroke-opacity:1"
         id="circle4160"
         cx="29.543892"
         cy="17.277901"
         r="5.0119109" />
      <circle
         style="opacity:1;fill:#000000;fill-opacity:1;stroke:none;stroke-width:2.83465;stroke-miterlimit:4;stroke-dasharray:none;stroke-opacity:1"
         id="circle4162"
         cx="17.277901"
         cy="29.543892"
         r="5.0119109" />
      <circle
         r="5.0119109"
         cy="5.0119109"
         cx="17.277901"
         id="circle4164"
         style="opacity:1;fill:#000000;fill-opacity:1;stroke:none;stroke-width:2.83465;stroke-miterlimit:4;stroke-dasharray:none;stroke-opacity:1" />
    </pattern>
    <pattern
       patternUnits="userSpaceOnUse"
       width="48.869282"
       height="48.869282"
       patternTransform="translate(690.81773,515.53278)"
       id="pattern4176">
      <rect
         id="rect4172"
         y="-17.277901"
         x="-51.833702"
         height="34.555801"
         width="34.555801"
         transform="rotate(-135)"
         style="display:inline;fill:url(#pattern4174);stroke:none;stroke-width:0.999999" />
    </pattern>
  </defs>
  <sodipodi:namedview
     inkscape:snap-bbox-midpoints="false"
     inkscape:snap-bbox="false"
     inkscape:snap-midpoints="true"
     inkscape:guide-bbox="true"
     showguides="true"
     inkscape:snap-global="true"
     id="base"
     pagecolor="#910000"
     bordercolor="#666666"
     borderopacity="1.0"
     inkscape:pageopacity="0"
     inkscape:pageshadow="2"
     inkscape:zoom="0.32079127"
     inkscape:cx="365.25309"
     inkscape:cy="628.20384"
     inkscape:document-units="mm"
     inkscape:current-layer="layer3"
     inkscape:document-rotation="0"
     showgrid="false"
     units="px"
     inkscape:pagecheckerboard="false" />
  <metadata
     id="metadata5">
    <rdf:RDF>
      <cc:Work
         rdf:about="">
        <dc:format>image/svg+xml</dc:format>
        <dc:type
           rdf:resource="http://purl.org/dc/dcmitype/StillImage" />
        <dc:title></dc:title>
      </cc:Work>
    </rdf:RDF>
  </metadata>
  <g
     style="display:inline"
     inkscape:groupmode="layer"
     id="layer3"
     inkscape:label="Objects">
    <path
       inkscape:export-ydpi="300"
       inkscape:export-xdpi="300"
       d="m 223.07812,114.89062 c -17.38941,0 -28.85546,11.5254 -28.85546,11.5254 a 8.75,8.75 0 0 0 -0.1543,12.37304 8.75,8.75 0 0 0 12.37305,0.1543 c 0,0 7.07303,-6.55274 16.63671,-6.55274 5.87037,0 12.68206,3.54552 17.90626,9.13672 5.22419,5.59121 8.33593,12.99326 8.33593,17.68946 0,6.3024 -1.7632,13.50915 -5.86523,18.63086 -4.10203,5.12171 -10.36718,9.06836 -23.00196,9.06836 -3.80403,0 -11.06678,-3.16513 -19.27734,-9.38672 -6.01493,-4.55785 -12.58211,-10.60767 -19.24805,-16.94336 1.03197,-0.87011 2.03574,-1.81856 3.08594,-2.63867 a 8.75,8.75 0 0 0 1.51172,-12.28125 8.75,8.75 0 0 0 -12.28125,-1.51172 c -1.76376,1.37734 -3.37547,2.85027 -5.04492,4.28906 -7.37495,-7.13864 -14.74515,-14.17662 -21.98242,-19.91406 -9.01675,-7.14815 -17.70849,-13.05469 -28.24219,-13.05469 -15.24876,0 -27.575717,5.84913 -35.47461,14.68359 -7.898893,8.83447 -11.474609,20.16622 -11.474609,31.09961 0,23.19187 20.114926,43.74219 46.074219,43.74219 14.7547,0 26.30039,-8.6804 36.51367,-18.21094 4.89915,-4.57165 9.65317,-9.49201 14.44531,-14.28515 7.12295,6.81009 14.31726,13.49484 21.54883,18.97461 9.46745,7.174 18.95264,12.9375 29.8457,12.9375 16.75943,0 29.30417,-6.44194 36.66211,-15.62891 7.35795,-9.18697 9.70508,-20.20619 9.70508,-29.57031 0,-10.97033 -5.31227,-21.35665 -13.04883,-29.63672 -7.73655,-8.28007 -18.42149,-14.68946 -30.69336,-14.68946 z m -104.10351,18.08399 c 2.60207,0 9.4905,3.02208 17.37109,9.26953 6.10962,4.84349 12.97264,11.34808 20.01172,18.13672 -4.82872,4.8413 -9.3694,9.58748 -13.68359,13.61328 -9.18958,8.57527 -16.90012,13.50586 -24.57422,13.50586 -16.65596,0 -28.574219,-13.4315 -28.574219,-26.24219 0,-7.06788 2.386183,-14.25341 7.019531,-19.43554 4.633348,-5.18214 11.406918,-8.84766 22.429688,-8.84766 z m -6.02864,37.86609 v -21.06158 c 0,-2.46362 1.98332,-4.44697 4.4469,-4.44697 2.46358,0 4.4469,1.98335 4.4469,4.44697 v 21.06158 c 0,2.46362 -1.98332,4.44697 -4.4469,4.44697 -2.46358,0 -4.4469,-1.98335 -4.4469,-4.44697 z m -6.08389,-14.97769 h 21.06158 c 2.46362,0 4.44697,1.98331 4.44697,4.4469 0,2.46358 -1.98335,4.4469 -4.44697,4.4469 h -21.06158 c -2.46362,0 -4.44697,-1.98332 -4.44697,-4.4469 0,-2.46359 1.98335,-4.4469 4.44697,-4.4469 z m 106.11189,0 h 17.35005 c 2.46362,0 4.44697,1.98331 4.44697,4.4469 0,2.46358 -1.98335,4.4469 -4.44697,4.4469 h -17.35005 c -2.46363,0 -4.44698,-1.98332 -4.44698,-4.4469 0,-2.46359 1.98335,-4.4469 4.44698,-4.4469 z"
       style="color:#000000;font-style:normal;font-variant:normal;font-weight:normal;font-stretch:normal;font-size:medium;line-height:normal;font-family:sans-serif;font-variant-ligatures:normal;font-variant-position:normal;font-variant-caps:normal;font-variant-numeric:normal;font-variant-alternates:normal;font-variant-east-asian:normal;font-feature-settings:normal;font-variation-settings:normal;text-indent:0;text-align:start;text-decoration:none;text-decoration-line:none;text-decoration-style:solid;text-decoration-color:#000000;letter-spacing:normal;word-spacing:normal;text-transform:none;writing-mode:lr-tb;direction:ltr;text-orientation:mixed;dominant-baseline:auto;baseline-shift:baseline;text-anchor:start;white-space:normal;shape-padding:0;shape-margin:0;inline-size:0;clip-rule:nonzero;display:inline;overflow:visible;visibility:visible;opacity:1;isolation:auto;mix-blend-mode:normal;color-interpolation:sRGB;color-interpolation-filters:linearRGB;solid-color:#000000;solid-opacity:1;vector-effect:none;fill:#000000;fill-opacity:1;fill-rule:nonzero;stroke:none;stroke-width:17.5;stroke-linecap:round;stroke-linejoin:round;stroke-miterlimit:4;stroke-dasharray:none;stroke-dashoffset:0;stroke-opacity:1;color-rendering:auto;image-rendering:auto;shape-rendering:auto;text-rendering:auto;enable-background:accumulate;stop-color:#000000;stop-opacity:1"
       id="path1191" />
    <path
       inkscape:export-ydpi="300"
       inkscape:export-xdpi="300"
       d="m 948.77734,825.91406 c -2.65797,0.11713 -5.3133,0.13086 -7.97265,0.13086 l 2.75586,2.75586 v 21.62891 h -2.75586 v 2.89453 h 7.30273 c 5.78616,0 14.34166,0.82667 14.34166,-6.32574 0,-7.15242 -4.42369,-8.96723 -4.42369,-8.96723 0,0 2.61781,0.27607 2.61781,-6.47447 0,-5.0629 -6.17134,-5.89367 -11.86586,-5.64272 z m 7.53711,6.81836 c 0.10317,4.02666 -6.55468,3.7832 -6.55468,3.7832 v -7.30078 c 3.51943,0 6.45151,-0.50908 6.55468,3.51758 z m 0,12.94922 c 0.10318,4.02705 -6.55468,3.78516 -6.55468,3.78516 v -7.30274 c 3.65745,0 6.4515,-0.50947 6.55468,3.51758 z m -85.81054,-20.76758 -11.0625,25.25 h -1.32227 l -0.18164,3.16016 h 8.47461 v -3.16016 h -3.09961 l 2.32031,-5.4082 h 8.68946 l 1.73437,5.48633 h -3.01953 v 3.08203 h 10.51953 l -1.33594,-3.08203 h -1.55859 z m -0.58399,9.35156 2.82422,6.81836 h -5.74805 z m -89.72024,19.05859 v -2.79062 l 1.51775,-0.87628 v -20.26284 l -1.90587,-1.10037 v -2.40662 h 10.51933 v 1.75351 l -1.65607,1.65604 v 19.77532 c 0,0 3.31215,0 5.94236,0 2.63021,0 4.77336,-4.28625 4.77336,-4.28625 h 1.55864 v 8.53811 z m -58.85612,-15.98162 a 2.7553226,2.7553226 0 0 1 -2.75536,2.75531 2.7553226,2.7553226 0 0 1 -2.75531,-2.75531 2.7553226,2.7553226 0 0 1 2.75531,-2.75532 2.7553226,2.7553226 0 0 1 2.75536,2.75532 z m -85.82835,15.98162 v 0 -3.16936 h 2.89308 v -19.83833 l -2.41093,-2.41092 v -1.9976 h 19.6317 v 6.61278 h -1.37768 c 0,0 -0.82658,-3.99523 -3.99522,-3.99523 -3.16861,0 -4.27075,-0.13757 -4.27075,-0.13757 0,0 -2.27312,-0.13795 -2.27312,2.27312 0,2.41092 0,3.78856 0,3.78856 0,0 -0.27553,2.37649 2.37645,2.37649 2.65202,0 6.37168,-4.30518 6.37168,-4.30518 v 11.84787 c 0,0 -2.47979,-4.40851 -5.64839,-4.40851 -3.16865,0 -3.58194,1.10214 -3.58194,2.89307 0,1.79097 0,4.40852 0,4.40852 0,0 0.41329,2.61759 3.99523,2.61759 3.58189,0 7.71488,-4.82185 7.71488,-4.82185 h 2.20426 v 8.26674 z m -82.10865,0 v -2.89384 h 1.6532 v -22.59364 l -1.85983,-1.85986 h 6.54388 l 12.2612,17.15187 v -13.98327 l -3.16864,-2.96194 h 9.64365 l -2.75531,2.96194 v 24.17874 h -2.34206 l -13.50108,-18.59917 v 15.70533 h 1.6532 v 2.89384 z m -68.60754,-27.82954 h 11.57239 v 3.44418 h -2.89312 v 20.94047 h 2.75535 v 3.44489 h -12.81225 v -3.16936 h 3.71966 v -21.6293 h -2.34203 z m -82.79743,0.27557 h 12.26117 c 0,0 -4.82181,2.87558 -4.82181,6.31975 0,3.44413 0.60435,5.22357 4.98966,5.22357 4.38527,0 5.34395,-0.29896 5.34395,-5.22357 0,-4.92465 -3.44531,-6.31975 -3.44531,-6.31975 h 10.608 c 0,0 -3.56394,1.04905 -3.56394,6.17291 v 13.80318 c 0,3.99519 4.80385,7.57788 4.80385,7.57788 H 415.7782 c 0,0 3.49542,-2.88144 3.49542,-6.88494 0,-4.00351 -0.53545,-5.6369 -4.84301,-5.6369 -4.30761,0 -4.71413,2.33049 -4.71413,5.6369 0,3.30637 3.44417,6.88494 3.44417,6.88494 H 401.5883 c 0,0 3.34163,-1.24256 3.34163,-5.7879 v -15.70439 c 0,-3.85742 -2.92834,-6.06168 -2.92834,-6.06168 z m -80.17932,-0.2761 0.27539,1.37891 3.30664,2.0664 v 19.5625 c 0,2.84195 -3.06827,2.313 -3.06827,4.82227 h 11.71094 c -4.85072,-3.26407 -4.09775,-3.31115 -4.09775,-11.43555 l 9.4855,11.43557 h 7.09669 c -4.73945,-2.48261 -7.19881,-8.04054 -10.2443,-12.26174 0,0 5.64844,-3.16829 5.64844,-8.26562 0,-5.09738 -4.27157,-7.30274 -11.71094,-7.30274 z m 8.95507,3.7207 c 0,0 6.18826,-0.30441 5.96485,4.26954 -0.2234,4.57394 -5.96485,3.44531 -5.96485,3.44531 z"
       transform="scale(0.26458333)"
       style="fill:#000000;fill-opacity:1;stroke:none;stroke-width:66.1417;stroke-linecap:round;stroke-linejoin:round;stroke-miterlimit:4;stroke-dasharray:none;stroke-opacity:1"
       id="path1178" />
  </g>
  <g
     inkscape:label="Layer 1"
     inkscape:groupmode="layer"
     id="layer1"
     style="display:none;opacity:0.357616"
     sodipodi:insensitive="true" />
</svg>
