<?xml version="1.0" encoding="UTF-8" standalone="no"?>
<svg
   xmlns:dc="http://purl.org/dc/elements/1.1/"
   xmlns:cc="http://creativecommons.org/ns#"
   xmlns:rdf="http://www.w3.org/1999/02/22-rdf-syntax-ns#"
   xmlns:svg="http://www.w3.org/2000/svg"
   xmlns="http://www.w3.org/2000/svg"
   xmlns:xlink="http://www.w3.org/1999/xlink"
   xmlns:sodipodi="http://sodipodi.sourceforge.net/DTD/sodipodi-0.dtd"
   xmlns:inkscape="http://www.inkscape.org/namespaces/inkscape"
   inkscape:export-ydpi="300"
   inkscape:export-xdpi="300"
   inkscape:export-filename="D:\Titipan\Projects\Codes\Rhodes Wiki Indo\Icon Assets\Lee_B.png"
   width="1280"
   height="1280"
   viewBox="0 0 338.66666 338.66668"
   version="1.1"
   id="svg8"
   inkscape:version="1.0.2 (e86c870879, 2021-01-15, custom)"
   sodipodi:docname="Rhodes6_Z.svg">
  <defs
     id="defs2">
    <pattern
       inkscape:collect="always"
       xlink:href="#pattern4166"
       id="pattern4174"
       patternTransform="translate(-51.833686,-17.277895)" />
    <inkscape:path-effect
       end_linecap_type="zerowidth"
       scale_width="1"
       miter_limit="4"
       linejoin_type="extrp_arc"
       start_linecap_type="zerowidth"
       interpolator_beta="0.2"
       interpolator_type="CubicBezierJohan"
       sort_points="true"
       offset_points="0,3.40217"
       lpeversion="1"
       is_visible="true"
       id="path-effect892"
       effect="powerstroke" />
    <inkscape:path-effect
       end_linecap_type="zerowidth"
       scale_width="1"
       miter_limit="4"
       linejoin_type="extrp_arc"
       start_linecap_type="zerowidth"
       interpolator_beta="0.2"
       interpolator_type="CubicBezierJohan"
       sort_points="true"
       offset_points="0,3.40217"
       lpeversion="1"
       is_visible="true"
       id="path-effect887"
       effect="powerstroke" />
    <inkscape:path-effect
       end_linecap_type="zerowidth"
       scale_width="1"
       miter_limit="4"
       linejoin_type="extrp_arc"
       start_linecap_type="zerowidth"
       interpolator_beta="0.2"
       interpolator_type="CubicBezierJohan"
       sort_points="true"
       offset_points="2.7941224,-3.4021738 | 2.7941224,-3.4021738"
       lpeversion="1"
       is_visible="true"
       id="path-effect882"
       effect="powerstroke" />
    <inkscape:path-effect
       end_linecap_type="zerowidth"
       scale_width="1"
       miter_limit="4"
       linejoin_type="extrp_arc"
       start_linecap_type="zerowidth"
       interpolator_beta="0.2"
       interpolator_type="CubicBezierJohan"
       sort_points="true"
       offset_points="0,3.01003"
       lpeversion="1"
       is_visible="true"
       id="path-effect877"
       effect="powerstroke" />
    <inkscape:path-effect
       end_linecap_type="zerowidth"
       scale_width="1"
       miter_limit="4"
       linejoin_type="extrp_arc"
       start_linecap_type="zerowidth"
       interpolator_beta="0.2"
       interpolator_type="CubicBezierJohan"
       sort_points="true"
       offset_points="0,3.01003"
       lpeversion="1"
       is_visible="true"
       id="path-effect872"
       effect="powerstroke" />
    <inkscape:path-effect
       end_linecap_type="zerowidth"
       scale_width="1"
       miter_limit="4"
       linejoin_type="extrp_arc"
       start_linecap_type="zerowidth"
       interpolator_beta="0.2"
       interpolator_type="CubicBezierJohan"
       sort_points="true"
       offset_points="11.631982,3.0100329"
       lpeversion="1"
       is_visible="true"
       id="path-effect868"
       effect="powerstroke" />
    <inkscape:path-effect
       end_linecap_type="zerowidth"
       scale_width="1"
       miter_limit="4"
       linejoin_type="extrp_arc"
       start_linecap_type="zerowidth"
       interpolator_beta="0.2"
       interpolator_type="CubicBezierJohan"
       sort_points="true"
       offset_points="156.61386,0.938298"
       lpeversion="1"
       is_visible="true"
       id="path-effect864"
       effect="powerstroke" />
    <pattern
       patternUnits="userSpaceOnUse"
       width="34.555802"
       height="34.555802"
       patternTransform="translate(697.97451,522.68951)"
       id="pattern4166">
      <circle
         r="5.0119109"
         cy="17.277901"
         cx="5.0119109"
         id="path4156"
         style="opacity:1;fill:#000000;fill-opacity:1;stroke:none;stroke-width:2.83465;stroke-miterlimit:4;stroke-dasharray:none;stroke-opacity:1" />
      <circle
         style="opacity:1;fill:#000000;fill-opacity:1;stroke:none;stroke-width:2.83465;stroke-miterlimit:4;stroke-dasharray:none;stroke-opacity:1"
         id="circle4160"
         cx="29.543892"
         cy="17.277901"
         r="5.0119109" />
      <circle
         style="opacity:1;fill:#000000;fill-opacity:1;stroke:none;stroke-width:2.83465;stroke-miterlimit:4;stroke-dasharray:none;stroke-opacity:1"
         id="circle4162"
         cx="17.277901"
         cy="29.543892"
         r="5.0119109" />
      <circle
         r="5.0119109"
         cy="5.0119109"
         cx="17.277901"
         id="circle4164"
         style="opacity:1;fill:#000000;fill-opacity:1;stroke:none;stroke-width:2.83465;stroke-miterlimit:4;stroke-dasharray:none;stroke-opacity:1" />
    </pattern>
    <pattern
       patternUnits="userSpaceOnUse"
       width="48.869282"
       height="48.869282"
       patternTransform="translate(690.81773,515.53278)"
       id="pattern4176">
      <rect
         id="rect4172"
         y="-17.277901"
         x="-51.833702"
         height="34.555801"
         width="34.555801"
         transform="rotate(-135)"
         style="display:inline;fill:url(#pattern4174);stroke:none;stroke-width:0.999999" />
    </pattern>
  </defs>
  <sodipodi:namedview
     inkscape:snap-bbox-midpoints="false"
     inkscape:snap-bbox="false"
     inkscape:snap-midpoints="true"
     inkscape:guide-bbox="true"
     showguides="true"
     inkscape:snap-global="false"
     id="base"
     pagecolor="#910000"
     bordercolor="#666666"
     borderopacity="1.0"
     inkscape:pageopacity="0"
     inkscape:pageshadow="2"
     inkscape:zoom="0.39807901"
     inkscape:cx="274.47145"
     inkscape:cy="595.02373"
     inkscape:document-units="mm"
     inkscape:current-layer="layer3"
     inkscape:document-rotation="0"
     showgrid="false"
     units="px"
     inkscape:pagecheckerboard="false">
    <sodipodi:guide
       position="169.0205,170.28248"
       orientation="0,-1"
       id="guide2337" />
    <sodipodi:guide
       position="168.14557,156.99946"
       orientation="0,-1"
       id="guide2339" />
  </sodipodi:namedview>
  <metadata
     id="metadata5">
    <rdf:RDF>
      <cc:Work
         rdf:about="">
        <dc:format>image/svg+xml</dc:format>
        <dc:type
           rdf:resource="http://purl.org/dc/dcmitype/StillImage" />
        <dc:title></dc:title>
      </cc:Work>
    </rdf:RDF>
  </metadata>
  <g
     style="display:inline"
     inkscape:groupmode="layer"
     id="layer3"
     inkscape:label="Objects">
    <path
       id="path1860"
       style="display:none;fill:#000000;stroke-width:1.00157;stroke-linecap:round;stroke-linejoin:round"
       d="m 642.66602,339.75391 -29.16993,2.73437 0.91211,65.63477 c 0,0 -3.64763,-5.3e-4 -19.14453,-0.91211 -15.49685,-0.91155 -24.61133,2.73437 -24.61133,2.73437 L 569.74219,344.3125 H 555.1543 c -17.32003,0 -36.46289,9.11328 -36.46289,9.11328 0,0 -6.38011,37.37543 -11.84961,68.36914 -5.46951,30.99375 -11.84961,110.30274 -11.84961,110.30274 l 18.23047,0.91015 -2.73438,13.67383 c 0,0 42.84285,2.73753 44.66602,8.20703 1.82317,5.46947 -58.33985,255.24024 -58.33985,255.24024 L 445.76562,821.06836 400.1875,889.4375 298.08984,908.58008 H 642.66602 987.24414 L 885.14844,889.4375 839.57031,821.06836 788.51953,810.12891 c 0,0 -60.16496,-249.77077 -58.3418,-255.24024 1.82317,-5.4695 44.66797,-8.20703 44.66797,-8.20703 l -2.73437,-13.67383 18.23242,-0.91015 c 0,0 -6.38007,-79.30899 -11.84961,-110.30274 -5.46947,-30.99371 -11.85156,-68.36914 -11.85156,-68.36914 0,0 -19.14478,-9.11328 -36.46485,-9.11328 h -14.58398 l -0.91016,65.63281 c 0,0 -9.1183,-3.64592 -24.61523,-2.73437 -15.49686,0.91158 -19.14258,0.91211 -19.14258,0.91211 l 0.91211,-65.63477 z m -69.1504,296.6582 h 18.28126 l 8.07617,50.20508 H 586.69531 L 586.26953,677.25 h -6.80273 l -1.27539,9.36719 h -11.47852 z m 28.69727,0 h 11.90234 v 40.41211 h 7.75977 v 9.79297 h -19.66211 z m 23.07617,0 h 11.12305 c 10.07078,0 16.38477,3.02085 16.38477,16.38477 0,13.3656 -8.76314,13.37695 -15.03126,13.37695 v 20.44336 h -12.47656 v -16.89844 c -0.0897,0.81689 -0.77976,1.43541 -1.60156,1.43555 -0.89064,-7e-5 -1.61233,-0.72264 -1.61133,-1.61328 7e-5,-0.88988 0.72145,-1.61126 1.61133,-1.61133 0.81913,-3.1e-4 1.50817,0.61394 1.60156,1.42773 z m 31.26563,0 h 12.625 v 17.58594 h 5.11133 v -17.58594 h 12.32617 v 50.20508 h -12.32617 v -20.44336 h -5.11133 v 20.44336 h -12.625 z m 39.40234,0 h 18.28125 l 8.07617,50.20508 H 709.13672 L 708.71094,677.25 h -6.80274 l -1.27539,9.36719 H 689.1543 Z m -58.19141,8.56836 v 15.03125 c 3.06263,0 6.01172,0.20175 6.01172,-7.51563 0,-7.71745 -2.94538,-7.51562 -6.01172,-7.51562 z m -54.89648,4.63476 -3.40234,18.70704 h 6.80273 z m 122.44141,0 -3.40235,18.70704 h 6.80274 z m 9.56445,46.92188 -5.11133,26.00391 h -3.45703 l 3.75781,-18.78907 -6.01172,3.30664 -0.60156,-2.70507 z m -37.12695,0.15039 h 3.45703 l 6.08789,24.95117 h -3.30664 l -2.17969,-7.14062 h -9.54492 l -4.66016,7.14062 h -3.83203 z m -63.32032,0.51367 c 5.1727,0.0674 11.80788,1.43651 10.41407,8.25391 -1.73397,8.48145 -15.9336,5.73047 -15.9336,5.73047 l -2.32226,11.35547 h -2.94141 l 5.10156,-24.95118 c 0,0 2.57805,-0.42911 5.68164,-0.38867 z m 27.64454,0.0391 c 6.62978,-0.009 12.80729,1.39184 12.05664,12.73829 -1.00094,15.12858 -13.88919,12.75195 -21.98633,12.75195 l 3.38867,-25.32813 c 2.07058,0 4.33109,-0.15908 6.54102,-0.16211 z m -59.50196,0.20313 c 0.015,-3e-5 0.0299,-3e-5 0.0449,0 6.92755,-4.8e-4 11.03857,5.61555 9.18165,12.54297 -1.8565,6.92721 -8.97743,12.54227 -15.9043,12.54101 -6.92544,-8.9e-4 -11.03506,-5.61533 -9.17969,-12.54101 1.85063,-6.9095 8.94131,-12.51811 15.85742,-12.54297 z m -0.63672,2.33789 c -5.62245,0.0303 -11.37945,4.59066 -12.88281,10.20508 -1.50969,5.63479 1.83407,10.20272 7.46875,10.20312 5.63512,1.1e-4 11.42742,-4.56797 12.9375,-10.20312 1.51103,-5.63576 -1.83302,-10.20497 -7.46875,-10.20508 -0.0182,-5e-5 -0.0365,-5e-5 -0.0547,0 z m 32.76368,0.10742 c -1.31153,0.0346 -2.56641,0.1442 -3.55665,0.21289 l -1.91406,8.875 c 5.65255,0.13625 10.73862,1.57885 13.16016,-4.22265 0.6861,-4.39682 -3.75488,-4.96915 -7.68945,-4.86524 z m 23.36914,0.10547 -2.48047,19.53906 c 0,0 15.30955,1.83988 15.93359,-9.54297 0.11063,-4.86678 1.26708,-9.68655 -13.45312,-9.99609 z m 40.2832,1.80274 -5.18555,10.22265 h 7.58985 z m -82.5918,17.58789 c 0.0234,-6.1e-4 0.0469,-6.1e-4 0.0703,0 0.74693,-4e-4 1.35284,0.60463 1.35352,1.35156 4e-4,0.74769 -0.60583,1.35391 -1.35352,1.35351 -0.74693,-6.8e-4 -1.35196,-0.60658 -1.35156,-1.35351 -3.5e-4,-0.71958 0.56268,-1.31351 1.28125,-1.35156 z m 28.40821,0 c 0.0241,-6.4e-4 0.0482,-6.4e-4 0.0723,0 0.74616,6.8e-4 1.35088,0.6054 1.35156,1.35156 4e-4,0.74693 -0.60463,1.35283 -1.35156,1.35351 -0.74769,4e-4 -1.35391,-0.60582 -1.35351,-1.35351 -3.5e-4,-0.71958 0.56268,-1.31351 1.28125,-1.35156 z m 34.72265,0 c 0.0234,-6.1e-4 0.0469,-6.1e-4 0.0703,0 0.74693,-4e-4 1.35284,0.60463 1.35352,1.35156 4e-4,0.74769 -0.60583,1.35391 -1.35352,1.35351 -0.74769,4e-4 -1.35391,-0.60582 -1.35351,-1.35351 -3e-4,-0.7203 0.56386,-1.31451 1.2832,-1.35156 z m 33.36914,0 c 0.0234,-6.1e-4 0.0469,-6.1e-4 0.0703,0 0.74693,-4e-4 1.35284,0.60463 1.35352,1.35156 4e-4,0.74769 -0.60583,1.35391 -1.35352,1.35351 -0.74769,4e-4 -1.35391,-0.60582 -1.35351,-1.35351 -3e-4,-0.7203 0.56386,-1.31451 1.2832,-1.35156 z m -114.42383,3.80078 c 0.80023,1.7e-4 1.51769,0.49323 1.80469,1.24023 6.8839,1.64974 12.17116,3.02107 16.23438,4.2207 -0.3609,1.26029 -0.81984,2.77928 -1.54688,4.92969 0.26857,-0.13464 0.56481,-0.20486 0.86524,-0.20508 1.06938,-9.9e-4 1.93653,0.86617 1.93554,1.93555 -10e-4,1.06785 -0.86769,1.93263 -1.93554,1.93164 -0.73824,-2.7e-4 -1.41192,-0.42084 -1.73633,-1.08398 l -1.12696,3.34179 c 1.05411,0.0193 1.89853,0.87932 1.89844,1.9336 -10e-4,1.06785 -0.86769,1.93263 -1.93554,1.93164 -0.41171,3e-5 -0.81267,-0.13135 -1.14454,-0.375 l -1.27148,3.76172 -9.34766,-1.29102 -2.57617,6.12305 12.56836,3.22461 -1.28906,7.41211 c 0,0 14.82396,-5.80137 18.04687,1.28906 3.22292,7.09043 -2.90039,17.40381 -2.90039,23.20508 0,5.80127 2.90064,10.63461 0,12.24609 -2.90063,1.61144 -64.13672,0.64453 -64.13672,0.64453 l 0.96875,6.76758 c 0,0 -1.28872,-2.25388 -5.47851,-2.89844 -4.1898,-0.64467 -8.37891,1.61133 -8.37891,1.61133 l -5.1582,-0.32226 1.28906,-0.64454 0.73438,-3.06835 c -0.36196,0.35783 -0.8504,0.55855 -1.35938,0.55859 -1.06785,-9e-5 -1.9335,-0.86575 -1.93359,-1.93359 9e-5,-1.06786 0.86573,-1.93351 1.93359,-1.9336 0.83112,-3.3e-4 1.5695,0.53045 1.83399,1.31836 l 3.94726,-16.53516 19.01758,-2.25781 41.57422,-7.73437 c 0,0 -24.17142,-3.2208 -29.97266,-1.93164 -5.80123,1.28885 -4.19129,0.96479 -5.80273,1.28711 -1.59572,0.31861 -10.99614,2.51332 -11.18164,2.55664 -0.0511,1.0288 -0.89962,1.83699 -1.92969,1.83789 -1.06786,9.9e-4 -1.93438,-0.86378 -1.93555,-1.93164 -9.9e-4,-1.06939 0.86616,-1.93654 1.93555,-1.93555 1.06786,10e-4 1.93263,0.86769 1.93164,1.93555 -9e-5,0.0273 -7e-4,0.0547 -0.002,0.082 0.3016,-0.10583 12.82361,-4.50917 15.37109,-7.05664 2.57836,-2.57832 3.86861,-12.24779 10.63672,-15.47071 6.76815,-3.22291 10.95703,-9.99023 10.95703,-9.99023 l -3.22266,-3.54492 0.21485,-0.83399 c -1.01879,-0.064 -1.81236,-0.90888 -1.8125,-1.92968 9e-5,-1.06786 0.86573,-1.93351 1.93359,-1.9336 0.2888,7.3e-4 0.57377,0.0661 0.83399,0.19141 l 1.88476,-7.25586 c -0.34695,0.28961 -0.78439,0.44855 -1.23633,0.44922 -1.06862,9.9e-4 -1.93546,-0.86498 -1.93554,-1.9336 -9.9e-4,-1.06938 0.86616,-1.93653 1.93554,-1.93554 z m 20.67969,6.27539 c 0.78454,0.25182 1.49848,0.49461 2.16992,0.73242 -0.38436,1.86582 -0.77407,3.77033 -1.14062,5.27344 l -0.99219,-5.96289 c -0.014,-0.014 -0.0234,-0.0289 -0.0371,-0.043 z m 4.10352,1.46094 c 5.97185,2.40121 6.24656,4.21299 5.30469,6.80078 l -1.37696,-1.02539 c -0.25559,0.8036 -1.00244,1.34892 -1.8457,1.34765 -1.06785,-10e-4 -1.93263,-0.8677 -1.93164,-1.93554 1.3e-4,-0.64817 0.325,-1.25317 0.86523,-1.61133 l -0.0254,-0.38867 c -0.88727,-0.19362 -1.52027,-0.97857 -1.52148,-1.88672 -6.2e-4,-0.4989 0.20697,-0.95019 0.53125,-1.30078 z m -1.9961,7.0996 h 0.002 c 0.004,-10e-6 0.008,-10e-6 0.0117,0 1.06786,10e-4 1.93263,0.86769 1.93164,1.93555 -3.1e-4,0.16075 -0.0207,0.32084 -0.0606,0.47656 v 0.002 c 0.73886,0.29125 1.22453,1.00464 1.22461,1.79883 -9e-5,1.06708 -0.86455,1.93242 -1.93164,1.93359 -1.06862,9.9e-4 -1.93546,-0.86498 -1.93555,-1.93359 1.2e-4,-0.16141 0.0204,-0.32216 0.0605,-0.47852 -0.73886,-0.29125 -1.22453,-1.00464 -1.22461,-1.79883 -0.001,-1.06406 0.85783,-1.92901 1.92187,-1.93555 z m -29.06836,2.0293 c 0.004,-1e-5 0.008,-1e-5 0.0117,0 1.06862,8e-5 1.93459,0.86693 1.9336,1.93555 -10e-4,1.0671 -0.8665,1.93156 -1.9336,1.93164 -1.06709,-9e-5 -1.93242,-0.86455 -1.93359,-1.93164 -0.001,-1.06406 0.85783,-1.92901 1.92187,-1.93555 z m 52.8711,0.34375 h 0.002 c 0.003,-1e-5 0.007,-1e-5 0.01,0 1.06785,-9.9e-4 1.93437,0.86379 1.93554,1.93164 9.9e-4,1.06938 -0.86616,1.93654 -1.93554,1.93555 -1.06786,-10e-4 -1.93263,-0.86769 -1.93164,-1.93555 10e-4,-1.06178 0.85817,-1.92404 1.91992,-1.93164 z m 31.24023,0.20313 c 0.005,-4e-5 0.0104,-4e-5 0.0156,0 0.62291,5.9e-4 1.12743,0.50599 1.12695,1.1289 -0.002,0.62139 -0.50556,1.12441 -1.12695,1.125 -0.6214,-5.8e-4 -1.12529,-0.50361 -1.12696,-1.125 -5.5e-4,-0.61687 0.49453,-1.11977 1.11133,-1.1289 z m -20.98437,0.25 h 0.002 c 0.003,-1e-5 0.007,-1e-5 0.01,0 1.06938,-9.9e-4 1.93653,0.86616 1.93554,1.93554 -8e-5,1.06862 -0.86692,1.93459 -1.93554,1.9336 -1.0671,-0.001 -1.93156,-0.8665 -1.93164,-1.9336 -10e-4,-1.0633 0.85665,-1.92793 1.91992,-1.93554 z m 30.91797,1.06445 c 0.005,-4e-5 0.0104,-4e-5 0.0156,0 0.62292,5.9e-4 1.12744,0.50599 1.12695,1.12891 -5.9e-4,0.62215 -0.5048,1.12636 -1.12695,1.12695 -0.62215,-5.9e-4 -1.12636,-0.5048 -1.12695,-1.12695 -5.5e-4,-0.61687 0.49452,-1.11978 1.11133,-1.12891 z m -21.375,0.85937 c 0.005,-4e-5 0.0104,-4e-5 0.0156,0 0.62216,-4.9e-4 1.12724,0.50284 1.12891,1.125 4.9e-4,0.62368 -0.50523,1.1294 -1.12891,1.12891 -0.62292,-5.9e-4 -1.12744,-0.50599 -1.12695,-1.12891 0.002,-0.61535 0.49604,-1.1159 1.11133,-1.125 z M 618.5,743.24219 h 0.002 c 0.003,-1e-5 0.007,-1e-5 0.01,0 1.06785,9e-5 1.9335,0.86574 1.93359,1.93359 -9e-5,1.06786 -0.86573,1.93351 -1.93359,1.9336 -1.06786,-9e-5 -1.93351,-0.86574 -1.9336,-1.9336 7e-5,-1.0633 0.8586,-1.92706 1.92188,-1.93359 z m -20.77734,0.90429 c 0.004,-10e-6 0.008,-10e-6 0.0117,0 1.06785,9e-5 1.9335,0.86574 1.93359,1.9336 -9e-5,1.06785 -0.86575,1.9335 -1.93359,1.93359 -1.06786,-9e-5 -1.93351,-0.86573 -1.9336,-1.93359 6e-5,-1.0633 0.8586,-1.92707 1.92188,-1.9336 z m 10.0664,0.4629 c 0.003,-10e-6 0.007,-10e-6 0.01,0 1.06938,-9.9e-4 1.93653,0.86616 1.93555,1.93554 -10e-4,1.06786 -0.86769,1.93263 -1.93555,1.93164 -1.06633,-10e-4 -1.93047,-0.86531 -1.93164,-1.93164 -0.001,-1.06406 0.85783,-1.92901 1.92187,-1.93554 z m 74.40625,0.6875 h 0.002 c 0.005,-3e-5 0.009,-3e-5 0.0137,0 0.62291,-4.8e-4 1.12831,0.50404 1.1289,1.12695 -5.9e-4,0.62291 -0.50599,1.12743 -1.1289,1.12695 -0.62292,4.9e-4 -1.12832,-0.50403 -1.12891,-1.12695 5.3e-4,-0.61686 0.49647,-1.1189 1.11328,-1.12695 z m -53.65625,0.48242 c 0.004,-1e-5 0.008,-1e-5 0.0117,0 1.06709,10e-4 1.93155,0.8665 1.93164,1.93359 -9e-5,1.06709 -0.86455,1.93242 -1.93164,1.93359 -1.06862,9.9e-4 -1.93546,-0.86497 -1.93555,-1.93359 8e-5,-1.06406 0.85979,-1.92813 1.92383,-1.93359 z m 11.49805,0.084 c 0.004,-10e-6 0.008,-10e-6 0.0117,0 1.0671,10e-4 1.93156,0.8665 1.93164,1.9336 -9e-5,1.06708 -0.86455,1.93242 -1.93164,1.93359 -1.06862,9.9e-4 -1.93546,-0.86498 -1.93555,-1.93359 7e-5,-1.06406 0.85978,-1.92814 1.92383,-1.9336 z m 9.67969,0.69531 c 0.62368,-4.8e-4 1.12939,0.50523 1.1289,1.12891 4.9e-4,0.62368 -0.50522,1.12939 -1.1289,1.12891 -0.62368,4.9e-4 -1.1294,-0.50523 -1.12891,-1.12891 -4.9e-4,-0.62368 0.50523,-1.1294 1.12891,-1.12891 z m 42.14843,0.0274 c 0.005,-4e-5 0.0104,-4e-5 0.0156,0 0.62139,5.9e-4 1.12528,0.50361 1.12695,1.125 4.8e-4,0.62291 -0.50404,1.12831 -1.12695,1.1289 -0.62368,4.9e-4 -1.12939,-0.50522 -1.12891,-1.1289 0.002,-0.6161 0.49723,-1.11695 1.11328,-1.125 z m 12.08204,0 h 0.002 c 0.005,-4e-5 0.0104,-4e-5 0.0156,0 0.6214,5.8e-4 1.12529,0.50361 1.12696,1.125 4.8e-4,0.62292 -0.50404,1.12831 -1.12696,1.1289 -0.62367,4.8e-4 -1.12938,-0.50523 -1.1289,-1.1289 0.002,-0.61535 0.49604,-1.1159 1.11133,-1.125 z m 23.95312,3.60351 c 0,0 0.22852,0.90978 3.19141,3.64453 2.96266,2.73472 27.3457,6.1543 27.3457,6.1543 0,0 -23.70081,0.91211 -31.44922,0.91211 -7.74845,0 -20.2832,-7.74805 -20.2832,-7.74805 z m -115.21289,0.23047 h 0.002 c 0.003,-10e-6 0.007,-10e-6 0.01,0 1.06862,-9.9e-4 1.93547,0.86498 1.93555,1.9336 -9e-5,1.06862 -0.86693,1.93458 -1.93555,1.93359 -1.06786,-9e-5 -1.93351,-0.86573 -1.9336,-1.93359 6e-5,-1.0633 0.8586,-1.92707 1.92188,-1.9336 z m 10.36914,0 h 0.002 c 0.003,-10e-6 0.007,-10e-6 0.01,0 1.06862,-9.9e-4 1.93547,0.86498 1.93555,1.9336 -9e-5,1.06862 -0.86693,1.93458 -1.93555,1.93359 -1.06709,-0.001 -1.93155,-0.8665 -1.93164,-1.93359 6e-5,-1.06254 0.8574,-1.926 1.91992,-1.9336 z m 10.48438,0.11524 h 0.002 c 0.003,-10e-6 0.007,-10e-6 0.01,0 1.0671,8e-5 1.93243,0.86454 1.9336,1.93164 9.9e-4,1.06862 -0.86498,1.93546 -1.9336,1.93554 -1.06938,9.9e-4 -1.93653,-0.86616 -1.93554,-1.93554 10e-4,-1.06329 0.86055,-1.92618 1.92383,-1.93164 z m -41.24805,0.68164 c 0.004,-10e-6 0.008,-10e-6 0.0117,0 1.06785,10e-4 1.93263,0.86769 1.93164,1.93554 -10e-4,1.06633 -0.86531,1.93047 -1.93164,1.93164 -1.06786,9.9e-4 -1.93438,-0.86378 -1.93555,-1.93164 -10e-4,-1.06482 0.85903,-1.93008 1.92383,-1.93554 z m 63.15234,0.68554 h 0.002 c 0.005,-3e-5 0.009,-3e-5 0.0137,0 0.62368,-4.8e-4 1.12939,0.50523 1.1289,1.12891 -5.9e-4,0.62291 -0.50599,1.12743 -1.1289,1.12695 -0.62292,4.9e-4 -1.12832,-0.50403 -1.12891,-1.12695 -5.4e-4,-0.61762 0.49571,-1.12084 1.11328,-1.12891 z m 10.15235,0.32227 c 0.005,-4e-5 0.0104,-4e-5 0.0156,0 0.62292,5.9e-4 1.12744,0.50599 1.12695,1.12891 4.8e-4,0.62291 -0.50404,1.12831 -1.12695,1.1289 -0.62291,-5.9e-4 -1.12743,-0.50599 -1.12695,-1.1289 -5.5e-4,-0.61687 0.49452,-1.11978 1.11133,-1.12891 z m -21.21485,0.53516 h 0.002 c 0.005,-3e-5 0.009,-3e-5 0.0137,0 0.62367,-4.8e-4 1.12938,0.50523 1.1289,1.1289 -5.9e-4,0.62291 -0.50599,1.12743 -1.1289,1.12695 -0.62216,-5.8e-4 -1.12637,-0.50479 -1.12696,-1.12695 -5.5e-4,-0.61687 0.49453,-1.11977 1.11133,-1.1289 z m 15.57617,1.72265 c 0.005,-3e-5 0.009,-3e-5 0.0137,0 0.62215,-4.9e-4 1.12723,0.50285 1.1289,1.125 4.9e-4,0.62368 -0.50522,1.12939 -1.1289,1.12891 -0.62292,-5.9e-4 -1.12745,-0.50599 -1.12696,-1.12891 0.002,-0.6161 0.49723,-1.11695 1.11328,-1.125 z m -8.86328,1.60938 c 0.005,-3e-5 0.009,-3e-5 0.0137,0 0.62366,-4.8e-4 1.12938,0.50523 1.1289,1.1289 4.9e-4,0.62368 -0.50523,1.12939 -1.1289,1.12891 -0.62368,4.9e-4 -1.1294,-0.50523 -1.12891,-1.12891 -5.2e-4,-0.61837 0.4969,-1.12189 1.11523,-1.1289 z m -105.75,11.30664 c 0.003,-10e-6 0.007,-10e-6 0.01,0 1.06862,-9.9e-4 1.93546,0.86497 1.93555,1.93359 9.9e-4,1.06939 -0.86616,1.93654 -1.93555,1.93555 -1.06786,-10e-4 -1.93263,-0.86769 -1.93164,-1.93555 7e-5,-1.06329 0.8586,-1.92706 1.92187,-1.93359 z m -9.57226,9.34375 h 0.002 c 0.003,-10e-6 0.007,-10e-6 0.01,0 1.06862,-9.9e-4 1.93545,0.86497 1.93554,1.93359 -8e-5,1.06862 -0.86692,1.93458 -1.93554,1.9336 -1.06786,-9e-5 -1.93351,-0.86574 -1.9336,-1.9336 7e-5,-1.0633 0.8586,-1.92706 1.92188,-1.93359 z m -11.97852,0.94531 c 0.003,-1e-5 0.007,-1e-5 0.01,0 1.06709,9e-5 1.93242,0.86455 1.93359,1.93164 9.9e-4,1.06862 -0.86497,1.93546 -1.93359,1.93555 -1.06862,-8e-5 -1.93459,-0.86693 -1.9336,-1.93555 10e-4,-1.06329 0.86055,-1.92618 1.92383,-1.93164 z m -5.48047,4.66992 c 0.004,-10e-6 0.008,-10e-6 0.0117,0 1.06862,8e-5 1.93459,0.86693 1.9336,1.93555 -9e-5,1.06786 -0.86574,1.9335 -1.9336,1.93359 -1.06785,-9e-5 -1.9335,-0.86574 -1.93359,-1.93359 -10e-4,-1.06406 0.85783,-1.92901 1.92187,-1.93555 z m 5.64063,5.32031 h 0.002 c 0.003,-1e-5 0.007,-1e-5 0.01,0 1.06786,9e-5 1.9335,0.86574 1.93359,1.9336 -9e-5,1.06785 -0.86574,1.9335 -1.93359,1.93359 -1.06862,9.9e-4 -1.93546,-0.86497 -1.93555,-1.93359 7e-5,-1.06406 0.85978,-1.92814 1.92383,-1.9336 z m -5.96289,5.15625 c 0.004,-1e-5 0.008,-1e-5 0.0117,0 1.06786,9e-5 1.9335,0.86574 1.93359,1.9336 -9e-5,1.06785 -0.86574,1.9335 -1.93359,1.93359 -1.06786,-9e-5 -1.93351,-0.86573 -1.9336,-1.93359 6e-5,-1.0633 0.8586,-1.92707 1.92188,-1.9336 z m -3.86719,6.24219 c 0.004,-10e-6 0.008,-10e-6 0.0117,0 1.0671,10e-4 1.93156,0.8665 1.93164,1.9336 -9e-5,1.06709 -0.86455,1.93242 -1.93164,1.93359 -1.06862,9.9e-4 -1.93546,-0.86497 -1.93555,-1.93359 7e-5,-1.06406 0.85978,-1.92814 1.92383,-1.9336 z m 2.96289,5.46875 c 0.004,-10e-6 0.008,-10e-6 0.0117,0 1.0671,10e-4 1.93156,0.8665 1.93164,1.9336 9.9e-4,1.06785 -0.86379,1.93437 -1.93164,1.93554 -1.06938,9.9e-4 -1.93654,-0.86616 -1.93555,-1.93554 7e-5,-1.06406 0.85978,-1.92814 1.92383,-1.9336 z m 54.56445,0.69727 h 0.004 c 0.003,-10e-6 0.005,-10e-6 0.008,0 1.06862,-9.9e-4 1.93546,0.86497 1.93555,1.93359 -1.3e-4,0.2016 -0.0317,0.40193 -0.0938,0.59375 2.26212,-0.0832 4.48886,-0.1591 6.73242,-0.23242 -0.0211,-0.11926 -0.0309,-0.24023 -0.0293,-0.36133 9e-5,-1.06862 0.86693,-1.93458 1.93555,-1.93359 1.06709,10e-4 1.93155,0.8665 1.93164,1.93359 -2.9e-4,0.0797 -0.005,0.15925 -0.0156,0.23828 24.37179,-0.74472 45.84765,-0.93359 45.84765,-0.93359 0,0 -9.90315,1.34225 -21.11132,3.35742 4.96984,0.61361 11.29521,1.5303 9.26171,2.11133 -3.19052,0.91155 -1.82503,-4.7e-4 -20.05664,4.10156 -18.23164,4.10211 -7.29101,5.4707 -7.29101,5.4707 l 4.10351,6.37891 -9.57226,-1.82422 0.45508,-6.83594 -7.38282,-1.15429 c -0.11943,0.0809 -0.2594,0.16326 -0.36523,0.24414 -7.74849,5.92528 -10.02734,11.39453 -10.02734,11.39453 0,0 -19.14207,1.82363 -23.24415,5.92578 -4.10214,4.10207 -17.32281,47.85701 -13.2207,50.5918 1.21047,0.80693 3.94775,1.56341 7.12305,2.24414 0.41385,-0.37099 0.95007,-0.57616 1.50586,-0.57617 0.86588,0.002 1.65441,0.49877 2.02929,1.27929 1.70967,0.30728 3.4043,0.58093 5.06446,0.83008 0.0773,-1.18603 1.06145,-2.1087 2.25,-2.10937 1.2466,-9.7e-4 2.25771,1.00926 2.25781,2.25586 -6.9e-4,0.16296 -0.019,0.32536 -0.0547,0.48437 2.83261,0.37304 4.89453,0.60547 4.89453,0.60547 l -5.13281,0.0156 c -0.39973,0.70932 -1.15064,1.14822 -1.96484,1.14844 -0.80856,-2.3e-4 -1.55517,-0.43314 -1.95703,-1.13476 l -5.43946,0.0176 c -0.40457,0.69184 -1.14581,1.11711 -1.94726,1.11719 -0.79657,7e-4 -1.53447,-0.41873 -1.94141,-1.10351 l -117.44336,0.39257 32.81641,-3.64453 11.85156,-16.4082 c 0,0 0.911,11.85104 4.10156,10.93945 3.19049,-0.91154 1.36719,-6.83789 1.36719,-6.83789 0,0 16.74229,-24.30954 24.25977,-39.12695 -0.91792,-0.16784 -1.58506,-0.96725 -1.58594,-1.90039 9e-5,-1.06862 0.86693,-1.93458 1.93555,-1.93359 0.47306,3.1e-4 0.92959,0.17404 1.2832,0.48828 1.82589,-4.05763 2.57317,-6.95253 1.45508,-7.66407 -5.01366,-3.19048 -7.29297,-1.82421 -7.29297,-1.82421 l 0.91211,-4.5586 c 0,0 15.0411,9.2e-4 23.70117,-5.92383 1.82721,-1.25026 8.00781,-2.27484 16.57422,-3.11718 -0.0348,-0.14589 -0.0525,-0.29534 -0.0527,-0.44532 9e-5,-1.06786 0.86574,-1.9335 1.9336,-1.93359 1.06785,9e-5 1.9335,0.86574 1.93359,1.93359 -5.4e-4,0.0319 -0.002,0.0638 -0.004,0.0957 3.55688,-0.30539 7.44904,-0.58211 11.53516,-0.83594 -0.46349,-0.36648 -0.73399,-0.92476 -0.73437,-1.51563 10e-4,-1.06709 0.8665,-1.93155 1.93359,-1.93164 1.06709,9e-5 1.93242,0.86455 1.93359,1.93164 -5.7e-4,0.51404 -0.20579,1.0067 -0.57031,1.36914 2.66204,-0.15571 5.35601,-0.30458 8.14258,-0.4414 -0.10498,-0.24164 -0.15949,-0.50217 -0.16016,-0.76563 9e-5,-1.06786 0.86574,-1.9335 1.9336,-1.93359 1.06785,9e-5 1.9335,0.86574 1.93359,1.93359 -1.3e-4,0.2016 -0.0317,0.40193 -0.0938,0.59375 v 0.002 c 2.69794,-0.12322 5.39646,-0.23837 8.13477,-0.34571 -0.0955,-0.23304 -0.14464,-0.4825 -0.14453,-0.73437 9.9e-4,-1.06102 0.85697,-1.92297 1.91796,-1.93164 z m -81.05468,23.68945 c 0.004,-10e-6 0.008,-10e-6 0.0117,0 1.06708,9e-5 1.93242,0.86455 1.93359,1.93164 9.9e-4,1.06862 -0.86498,1.93546 -1.93359,1.93555 -1.06862,-8e-5 -1.93459,-0.86693 -1.9336,-1.93555 10e-4,-1.06254 0.85936,-1.92512 1.92188,-1.93164 z m -9.1875,1.44922 c 0.004,-1e-5 0.008,-1e-5 0.0117,0 1.06784,9e-5 1.9335,0.86574 1.93359,1.93359 -9e-5,1.06786 -0.86574,1.93351 -1.93359,1.9336 -1.06786,-9e-5 -1.93351,-0.86574 -1.9336,-1.9336 7e-5,-1.0633 0.8586,-1.92706 1.92188,-1.93359 z m -4.50977,4.67383 h 0.002 c 0.003,-10e-6 0.007,-10e-6 0.01,0 1.06785,9e-5 1.9335,0.86574 1.93359,1.93359 -9e-5,1.06786 -0.86573,1.93351 -1.93359,1.9336 -1.06862,9.8e-4 -1.93547,-0.86498 -1.93555,-1.9336 8e-5,-1.06406 0.85979,-1.92813 1.92383,-1.93359 z m 8.70117,0 c 0.004,-10e-6 0.008,-10e-6 0.0117,0 1.06786,9e-5 1.93351,0.86573 1.9336,1.93359 -9e-5,1.06786 -0.86574,1.93351 -1.9336,1.9336 -1.06786,-9e-5 -1.9335,-0.86574 -1.93359,-1.9336 7e-5,-1.06329 0.8586,-1.92706 1.92187,-1.93359 z m 4.9961,2.90039 c 0.004,-10e-6 0.008,-10e-6 0.0117,0 1.06784,9e-5 1.9335,0.86574 1.93359,1.93359 -9e-5,1.06786 -0.86574,1.93351 -1.93359,1.9336 -1.06786,-9e-5 -1.93351,-0.86574 -1.9336,-1.9336 7e-5,-1.0633 0.8586,-1.92706 1.92188,-1.93359 z m -9.1875,2.90039 c 0.004,-10e-6 0.008,-10e-6 0.0117,0 1.06784,9e-5 1.9335,0.86574 1.93359,1.93359 9.9e-4,1.06862 -0.86498,1.93546 -1.93359,1.93555 -1.06862,-8e-5 -1.93459,-0.86693 -1.9336,-1.93555 7e-5,-1.0633 0.8586,-1.92706 1.92188,-1.93359 z m 5.48046,3.54687 h 0.002 c 0.003,-1e-5 0.007,-1e-5 0.01,0 1.06786,-9.9e-4 1.93438,0.86378 1.93555,1.93164 9.9e-4,1.06939 -0.86616,1.93654 -1.93555,1.93555 -1.06862,-9e-5 -1.93458,-0.86693 -1.93359,-1.93555 0.001,-1.06253 0.85937,-1.92511 1.92187,-1.93164 z m -10.79687,1.93164 h 0.002 c 0.003,-1e-5 0.007,-1e-5 0.01,0 1.06862,9e-5 1.93458,0.86693 1.93359,1.93555 -10e-4,1.06709 -0.8665,1.93155 -1.93359,1.93164 -1.06709,-9e-5 -1.93243,-0.86455 -1.93359,-1.93164 -0.001,-1.06406 0.85783,-1.92901 1.92187,-1.93555 z m 5.64063,4.51172 c 0.003,-10e-6 0.007,-10e-6 0.01,0 1.06939,-9.9e-4 1.93654,0.86616 1.93555,1.93555 -9e-5,1.06862 -0.86693,1.93458 -1.93555,1.93359 -1.06709,-10e-4 -1.93155,-0.8665 -1.93164,-1.93359 -0.001,-1.06406 0.85784,-1.92902 1.92188,-1.93555 z m -10.63672,0.32422 h 0.002 c 0.003,-10e-6 0.007,-10e-6 0.01,0 1.06784,-9.9e-4 1.93437,0.86379 1.93554,1.93164 9.9e-4,1.06938 -0.86617,1.93654 -1.93554,1.93555 -1.06786,-0.001 -1.93264,-0.86769 -1.93165,-1.93555 0.001,-1.06178 0.85817,-1.92405 1.91993,-1.93164 z m 4.35156,5.64063 h 0.002 c 0.003,-10e-6 0.007,-10e-6 0.01,0 1.06862,-9.9e-4 1.93545,0.86497 1.93554,1.93359 -9e-5,1.06862 -0.86692,1.93458 -1.93554,1.93359 -1.06786,-9e-5 -1.93351,-0.86573 -1.9336,-1.93359 7e-5,-1.0633 0.8586,-1.92706 1.92188,-1.93359 z m -5.15625,4.67187 c 0.003,-10e-6 0.007,-10e-6 0.01,0 1.06862,-9.9e-4 1.93547,0.86498 1.93555,1.9336 -9e-5,1.06862 -0.86693,1.93458 -1.93555,1.93359 -1.06709,-0.001 -1.93155,-0.8665 -1.93164,-1.93359 6e-5,-1.0633 0.8586,-1.92707 1.92188,-1.9336 z m -4.02735,5.05274 c 0.004,-10e-6 0.008,-10e-6 0.0117,0 1.0671,8e-5 1.93243,0.86454 1.9336,1.93164 9.9e-4,1.06862 -0.86498,1.93546 -1.9336,1.93554 -1.06862,-9e-5 -1.93458,-0.86692 -1.93359,-1.93554 0.001,-1.06253 0.85937,-1.92511 1.92187,-1.93164 z m 93.78126,21.53711 h 0.002 c 0.004,-1e-5 0.008,-1e-5 0.0117,0 1.24583,10e-5 2.25575,1.01003 2.25586,2.25585 -10e-5,1.24583 -1.01003,2.25576 -2.25586,2.25586 -1.24583,-1e-4 -2.25576,-1.01003 -2.25586,-2.25586 8e-5,-1.2405 1.0017,-2.24823 2.24219,-2.25585 z m 10.79882,0 h 0.002 c 0.003,-1e-5 0.007,-1e-5 0.01,0 1.24583,10e-5 2.25575,1.01003 2.25586,2.25585 -10e-5,1.24583 -1.01003,2.25576 -2.25586,2.25586 -1.24583,-1e-4 -2.25576,-1.01003 -2.25586,-2.25586 9e-5,-1.24126 1.00289,-2.2493 2.24414,-2.25585 z m 10.3125,0 h 0.002 c 0.004,-1e-5 0.008,-1e-5 0.0117,0 1.24505,10e-4 2.25379,1.01079 2.2539,2.25585 -10e-5,1.24507 -1.00884,2.25468 -2.2539,2.25586 -1.24583,-1e-4 -2.25576,-1.01003 -2.25586,-2.25586 8e-5,-1.2405 1.0017,-2.24823 2.24218,-2.25585 z m 9.99024,0 h 0.002 c 0.003,-1e-5 0.007,-1e-5 0.01,0 1.24659,-9.7e-4 2.2577,1.00927 2.25781,2.25585 -10e-5,1.2466 -1.01121,2.25683 -2.25781,2.25586 -1.24507,-0.001 -2.25381,-1.01079 -2.25391,-2.25586 8e-5,-1.2405 1.0017,-2.24823 2.24219,-2.25585 z"
       transform="scale(0.26458333)"
       sodipodi:nodetypes="cccsccscscccscccccccccscccscsccsccccccccccccccccccccsscccccccccccccccccccccccccccccccccscccccccccccccccccccccccccssccccsssccssccccssscccsssscccsccccccccsccccsssccccsssccccsssccccsssccccscccccccccccsssccsccccssccccccccsssscsscccccccccssscccsssccccccssscscscccssccscscssssscscsssccsccccsscsccscccscscssssccscsscscsssccscsssssccssscccsccccscscsssssscssssscccccsccscsscsccscsccscscccscscscccscssscccscscsccscssssscscscsscsccccsscscsssscsccscsssccccsscccsccccscscsccccsssccsccscsscscscsccscsssssscssssssccscsscscscccsccccsscccccccsscccccccccccccccccscccscsccsccsccccsccccssccccccscsssssscssssscscscsccscsssssscssssssccscsscscscscccscssscccccsccccscssscccscscsccccsssccscssssscscssssccscssscccscscssccscssscc" />
    <path
       id="path954"
       style="color:#000000;font-style:normal;font-variant:normal;font-weight:normal;font-stretch:normal;font-size:15.5222px;line-height:1.25;font-family:sans-serif;font-variant-ligatures:normal;font-variant-position:normal;font-variant-caps:normal;font-variant-numeric:normal;font-variant-alternates:normal;font-variant-east-asian:normal;font-feature-settings:normal;font-variation-settings:normal;text-indent:0;text-align:start;text-decoration:none;text-decoration-line:none;text-decoration-style:solid;text-decoration-color:#000000;letter-spacing:-0.185208px;word-spacing:normal;text-transform:none;writing-mode:lr-tb;direction:ltr;text-orientation:mixed;dominant-baseline:auto;baseline-shift:baseline;text-anchor:start;white-space:normal;shape-padding:0;shape-margin:0;inline-size:0;clip-rule:nonzero;display:inline;overflow:visible;visibility:visible;isolation:auto;mix-blend-mode:normal;color-interpolation:sRGB;color-interpolation-filters:linearRGB;solid-color:#000000;solid-opacity:1;vector-effect:none;fill:#000000;fill-opacity:1;fill-rule:nonzero;stroke:none;stroke-width:1.88976;stroke-linecap:butt;stroke-linejoin:miter;stroke-miterlimit:4;stroke-dasharray:none;stroke-dashoffset:0;stroke-opacity:1;color-rendering:auto;image-rendering:auto;shape-rendering:auto;text-rendering:auto;enable-background:accumulate;stop-color:#000000"
       d="m 316.87695,925.93359 c -3.33211,0 -5.91546,1.23241 -7.56054,3.30469 -1.6451,2.07228 -2.36133,4.88628 -2.36133,8.02344 v 21.0039 c 0,3.13716 0.71623,5.95117 2.36133,8.02344 1.64508,2.07228 4.22843,3.30469 7.56054,3.30469 3.38667,0 5.99806,-1.22775 7.66016,-3.30078 1.6621,-2.07303 2.37891,-4.89019 2.37891,-8.02735 v -21.0039 c 0,-3.13716 -0.71681,-5.95435 -2.37891,-8.02734 -1.6621,-2.07304 -4.27349,-3.30079 -7.66016,-3.30079 z m 136.7793,0 c -3.33211,0 -5.91397,1.23234 -7.55859,3.30469 -1.64459,2.07235 -2.36133,4.88636 -2.36133,8.02344 v 21.0039 c 0,3.13705 0.71674,5.95109 2.36133,8.02344 1.64458,2.07232 4.22648,3.30469 7.55859,3.30469 3.38668,0 5.99807,-1.22775 7.66016,-3.30078 1.66208,-2.07303 2.3789,-4.89019 2.3789,-8.02735 v -21.0039 c 0,-3.13716 -0.71678,-5.95435 -2.3789,-8.02734 -1.66209,-2.07304 -4.27348,-3.30079 -7.66016,-3.30079 z m 43.64648,0 c -3.22779,0.0302 -5.74802,1.16399 -7.36328,3.16797 -1.61522,2.00398 -2.31445,4.76634 -2.31445,7.98438 0,3.06433 1.0253,5.4664 2.51953,7.37695 1.49428,1.91055 3.42665,3.35726 5.29102,4.7168 1.86432,1.35957 3.66266,2.63765 4.94922,4.09961 1.28655,1.46196 2.08398,3.05247 2.08398,5.27929 0,2.07821 -0.41553,3.76833 -1.23047,4.87305 -0.8149,1.10472 -2.0052,1.75 -4.04297,1.75 -2.03773,0 -3.22802,-0.64528 -4.04297,-1.75 -0.81494,-1.10472 -1.23046,-2.79484 -1.23046,-4.87305 v -3.23437 h -4.47266 v 3.05859 c 0,3.0999 0.66723,5.88201 2.27734,7.9375 1.61016,2.05546 4.1709,3.27344 7.52735,3.27344 3.35641,0 5.91722,-1.21798 7.52734,-3.27344 1.61015,-2.05549 2.27734,-4.8376 2.27734,-7.9375 0,-3.03711 -1.0289,-5.41928 -2.52343,-7.31445 -1.4945,-1.89513 -3.42407,-3.33278 -5.28711,-4.69141 -1.86301,-1.35859 -3.66068,-2.64162 -4.94727,-4.11718 -1.28663,-1.47561 -2.08594,-3.09067 -2.08594,-5.34961 0,-2.05149 0.4032,-3.74894 1.20118,-4.86133 0.79801,-1.11235 1.9537,-1.76172 3.95507,-1.76172 1.99722,0 3.15259,0.65907 3.95313,1.78711 0.80054,1.12804 1.20312,2.84304 1.20312,4.89453 v 2.00195 H 507 v -1.82617 c 0,-3.09679 -0.64991,-5.8749 -2.23633,-7.93164 -1.58638,-2.05674 -4.12201,-3.2793 -7.45117,-3.2793 h -0.004 z m 208.35547,0 c -3.33214,0 -5.91543,1.23241 -7.56054,3.30469 -1.64508,2.07228 -2.36133,4.88628 -2.36133,8.02344 v 21.0039 c 0,3.13716 0.71625,5.95117 2.36133,8.02344 1.64507,2.07228 4.2284,3.30469 7.56054,3.30469 3.38665,0 5.99804,-1.22775 7.66016,-3.30078 1.66208,-2.07303 2.37891,-4.89019 2.37891,-8.02735 v -21.0039 c 0,-3.13716 -0.71683,-5.95435 -2.37891,-8.02734 -1.66212,-2.07304 -4.27351,-3.30079 -7.66016,-3.30079 z m 135.94141,0 c -3.36234,0 -5.92476,1.2542 -7.53125,3.33789 -1.60645,2.08373 -2.27344,4.89031 -2.27344,7.99024 v 21.0039 c 0,3.0999 0.66699,5.90655 2.27344,7.99024 1.60649,2.08373 4.16891,3.33789 7.53125,3.33789 3.3623,0 5.9248,-1.25416 7.53125,-3.33789 1.60649,-2.08369 2.27344,-4.89034 2.27344,-7.99024 v -5.63867 h -4.47266 v 5.81446 c 0,2.07821 -0.41628,3.80351 -1.23633,4.93945 -0.82004,1.1359 -2.00754,1.80078 -4.03711,1.80078 -2.0296,0 -3.21706,-0.66488 -4.03711,-1.80078 -0.82004,-1.13594 -1.23632,-2.86124 -1.23632,-4.93945 v -21.35547 c 0,-2.07821 0.41574,-3.82111 1.23828,-4.97266 0.8225,-1.15158 2.00967,-1.82617 4.03515,-1.82617 2.02549,0 3.21258,0.67459 4.03516,1.82617 0.82254,1.15155 1.23828,2.89445 1.23828,4.97266 v 4.52539 h 4.47266 v -4.34961 c 0,-3.09993 -0.66695,-5.90651 -2.27344,-7.99024 -1.60645,-2.08369 -4.16895,-3.33789 -7.53125,-3.33789 z m -441.63281,0.29297 -0.16211,0.74414 -9.22657,42.27149 h 4.39258 l 2.05469,-9.09375 h 11.27734 l 2.05274,9.09375 h 4.63281 l -9.57226,-43.01563 z m 207.92578,0 -0.16211,0.74414 -9.22461,42.27149 h 4.39258 l 2.05273,-9.09375 h 11.2793 l 2.05273,9.09375 h 4.63282 l -9.57227,-43.01563 z m 45.72461,0 -0.16211,0.74414 -9.10742,41.72852 -0.59961,-0.91797 c -0.68209,-1.04587 -0.84375,-2.75452 -0.84375,-4.41211 v -6.39453 c 0,-2.34954 -0.44561,-4.40966 -1.53907,-6.04102 -0.67782,-1.01125 -1.68344,-1.74819 -2.83593,-2.3457 1.10313,-0.5726 2.07887,-1.27977 2.76172,-2.26562 1.12025,-1.61734 1.61328,-3.71587 1.61328,-6.24415 V 936.5 c 0,-3.04074 -0.66008,-5.61378 -2.28516,-7.44141 -1.62512,-1.82766 -4.14664,-2.77343 -7.45898,-2.77343 h -9.51172 v 0.94531 42.01172 h 4.58984 v -18.36328 h 3.33789 c 2.24421,0 3.93897,0.38153 5.01367,1.23828 1.07475,0.8567 1.72461,2.24341 1.72461,4.79883 v 6.45312 c 0,2.27932 0.17573,3.94333 1.00586,5.39648 l 0.27149,0.47657 h 4.63672 0.47265 3.92188 l 2.05273,-9.09375 h 11.27734 l 2.05274,9.09375 h 4.63281 l -9.57226,-43.01563 z m 162.09961,0 -0.16211,0.74414 -9.22657,42.27149 h 4.39454 l 2.05273,-9.09375 h 11.27734 l 2.05274,9.09375 h 4.63281 l -9.57226,-43.01563 z m -486.9336,0.0586 v 0.94531 42.01172 h 4.58985 V 952.3457 h 4.1582 c 3.41204,0 6.08948,-0.8643 7.875,-2.71679 1.78552,-1.8525 2.57422,-4.5661 2.57422,-7.9668 v -4.45899 c 0,-3.12162 -0.63314,-5.84159 -2.23242,-7.82421 -1.59928,-1.98267 -4.14546,-3.09375 -7.51172,-3.09375 z m 20.77344,0 v 0.94531 42.01172 h 18.08203 v -4.35352 h -13.49414 v -15.24023 h 11.20508 v -4.35547 h -11.20508 v -14.65235 h 13.49414 v -4.35546 z m 19.89063,0 v 0.94531 42.01172 h 4.58984 v -18.36328 h 3.33789 c 2.24423,0 3.93843,0.38142 5.01367,1.23828 1.07524,0.85682 1.72656,2.24352 1.72656,4.79883 v 6.45312 c 0,2.27875 0.17313,3.94265 1.00391,5.39648 l 0.27148,0.47657 H 390.5 l -0.95312,-1.46094 c -0.6821,-1.04587 -0.84376,-2.75452 -0.84376,-4.41211 v -6.39453 c 0,-2.34943 -0.44613,-4.40958 -1.53906,-6.04102 -0.67748,-1.01128 -1.68164,-1.74816 -2.83398,-2.3457 1.10302,-0.57264 2.07722,-1.27973 2.75976,-2.26562 1.11973,-1.61742 1.61328,-3.71598 1.61328,-6.24415 V 936.5 c 0,-3.04074 -0.66003,-5.61378 -2.28515,-7.44141 -1.62512,-1.82766 -4.14665,-2.77343 -7.45899,-2.77343 z m 45.5332,0 v 0.94531 3.41015 h 8.39062 v 38.60157 h 4.58789 v -38.60157 h 8.33204 v -4.35546 z m 22.23828,0 v 0.94531 42.01172 h 4.58984 v -42.95703 z m 28.34375,0 v 0.94531 42.01172 h 4.35547 v -32.00781 l 11.23242,32.00781 h 4.60742 v -42.95703 h -4.35351 v 30.13281 l -10.70703,-30.13281 z m 53.33984,0 v 0.94531 42.01172 h 4.58789 V 952.3457 h 4.16016 c 3.41201,0 6.08948,-0.8643 7.875,-2.71679 1.78553,-1.8525 2.57422,-4.5661 2.57422,-7.9668 v -4.45899 c 0,-3.12173 -0.63461,-5.84162 -2.23438,-7.82421 -1.59979,-1.98263 -4.14544,-3.09375 -7.51171,-3.09375 z m 20.22071,0 v 0.94531 42.01172 h 4.58984 v -18.36328 h 3.33789 c 2.24425,0 3.93847,0.38146 5.01367,1.23828 1.07524,0.85682 1.72657,2.24352 1.72657,4.79883 v 6.45312 c 0,2.27875 0.17346,3.94269 1.0039,5.39648 l 0.27149,0.47657 h 5.10937 l -0.95312,-1.46094 c -0.6821,-1.04587 -0.84375,-2.75452 -0.84375,-4.41211 v -6.39453 c 0,-2.34943 -0.44614,-4.40958 -1.53907,-6.04102 -0.67748,-1.01128 -1.68164,-1.74816 -2.83398,-2.3457 1.10298,-0.57264 2.07726,-1.27973 2.75976,-2.26562 1.11973,-1.61742 1.61329,-3.71598 1.61329,-6.24415 V 936.5 c 0,-3.04074 -0.66004,-5.61378 -2.28516,-7.44141 -1.62512,-1.82766 -4.14664,-2.77343 -7.45898,-2.77343 z m 21.39648,0 v 0.94531 42.01172 h 18.08203 v -4.35352 h -13.49414 v -15.24023 h 11.20703 v -4.35547 h -11.20703 v -14.65235 h 13.49414 v -4.35546 z m 19.3418,0 v 0.94531 42.01172 h 4.58984 V 952.3457 h 4.15821 c 3.412,0 6.08947,-0.8643 7.875,-2.71679 1.78552,-1.8525 2.57421,-4.5661 2.57421,-7.9668 v -4.45899 c 0,-3.12173 -0.63461,-5.84162 -2.23437,-7.82421 -1.5998,-1.98259 -4.14545,-3.09375 -7.51172,-3.09375 z m 88.2207,0 v 0.94531 3.41015 h 8.38867 v 38.60157 h 4.58985 v -38.60157 h 8.33007 v -4.35546 z m 21.6875,0 v 0.94531 42.01172 h 4.58985 v -42.95703 z m 27.24414,0 v 0.94531 42.01172 h 4.35547 v -32.00781 l 11.23242,32.00781 h 4.60742 v -42.95703 h -4.35546 v 30.13281 l -10.70508,-30.13281 z m 29.78321,0 v 0.94531 42.01172 h 9.97851 c 3.37501,0 5.98304,-1.1574 7.65234,-3.18164 1.66935,-2.02428 2.38672,-4.80562 2.38672,-7.97071 v -20.65039 c 0,-3.16505 -0.71741,-5.94597 -2.38672,-7.9707 -1.66922,-2.02473 -4.27722,-3.18359 -7.65234,-3.18359 z m 21.83593,0 v 0.94531 42.01172 h 18.08203 v -4.35352 h -13.49218 v -15.24023 h 11.20507 v -4.35547 h -11.20507 v -14.65235 h 13.49218 v -4.35546 z m 18.55078,0 v 0.94531 3.41015 h 8.39063 v 38.60157 h 4.58789 v -38.60157 h 8.33203 v -4.35546 z m 65.97852,0 v 0.94531 42.01172 h 4.58984 v -19.30078 h 10.89844 v 19.30078 h 4.64844 v -42.95703 h -4.64844 v 19.30078 h -10.89844 v -19.30078 z m 22.18945,0 v 0.94531 42.01172 h 4.29688 v -29.29688 l 6.99023,29.23828 h 4.19336 l 6.87109,-29.22656 v 29.28516 h 4.47266 v -42.95703 h -5.5664 l -7.82032,33.15625 -7.875,-33.15625 z m 28.87696,0 v 0.94531 42.01172 h 18.08203 v -4.35352 h -13.49219 v -15.24023 h 11.20508 v -4.35547 h -11.20508 v -14.65235 h 13.49219 v -4.35546 z m 19.84179,0 v 0.94531 42.01172 h 4.35352 v -32.00977 l 11.23437,32.00977 h 4.60742 v -42.95703 h -4.35546 v 30.13281 l -10.70704,-30.13281 z m 20.89844,0 v 0.94531 3.41015 h 8.38867 v 38.60157 h 4.58985 v -38.60157 h 8.33007 v -4.35546 z m -628.0918,4.00195 c 2.06187,0 3.30288,0.67233 4.15625,1.81836 0.85338,1.14603 1.29297,2.87958 1.29297,4.98047 v 21.35547 c 0,2.10088 -0.43959,3.83444 -1.29297,4.98047 -0.85337,1.14602 -2.09438,1.81835 -4.15625,1.81835 -2.02958,0 -3.23431,-0.66599 -4.06836,-1.81054 -0.83404,-1.14459 -1.26367,-2.88328 -1.26367,-4.98828 v -21.35547 c 0,-2.10501 0.42963,-3.84373 1.26367,-4.98828 0.83405,-1.14456 2.03878,-1.81055 4.06836,-1.81055 z m 136.7793,0 c 2.06188,0 3.30287,0.67233 4.15625,1.81836 0.85334,1.14603 1.29297,2.87958 1.29297,4.98047 v 21.35547 c 0,2.10088 -0.43963,3.83444 -1.29297,4.98047 -0.85338,1.14602 -2.09437,1.81835 -4.15625,1.81835 -2.02957,0 -3.23429,-0.66599 -4.06836,-1.81054 -0.83403,-1.14459 -1.26367,-2.88328 -1.26367,-4.98828 v -21.35547 c 0,-2.10501 0.42964,-3.84373 1.26367,-4.98828 0.83407,-1.14456 2.03879,-1.81055 4.06836,-1.81055 z m 252.00195,0 c 2.06185,0 3.30287,0.67233 4.15625,1.81836 0.85338,1.14603 1.29297,2.87958 1.29297,4.98047 v 21.35547 c 0,2.10088 -0.43959,3.83444 -1.29297,4.98047 -0.85338,1.14602 -2.0944,1.81835 -4.15625,1.81835 -2.0296,0 -3.23433,-0.66599 -4.06836,-1.81054 -0.83406,-1.14459 -1.26367,-2.88328 -1.26367,-4.98828 v -21.35547 c 0,-2.10501 0.42961,-3.84373 1.26367,-4.98828 0.83403,-1.14456 2.03876,-1.81055 4.06836,-1.81055 z m -372.28515,0.35351 h 4.86328 c 2.09022,0 3.24387,0.59042 4.00976,1.61524 0.76591,1.02478 1.14649,2.64992 1.14649,4.77148 v 4.81055 c 0,2.36353 -0.48487,3.85846 -1.35742,4.76563 -0.87258,0.90716 -2.26795,1.38867 -4.50391,1.38867 h -4.1582 z m 40.66406,0 h 4.86328 c 2.04291,0 3.23543,0.55424 4.01953,1.51954 0.7841,0.96525 1.19531,2.496 1.19531,4.57422 v 3.87304 c 0,2.5965 -0.61545,3.94552 -1.64843,4.75781 -1.03302,0.8123 -2.71615,1.16016 -5.03321,1.16016 h -3.39648 z m 149.45312,0 h 4.86329 c 2.09026,0 3.24388,0.59042 4.00976,1.61524 0.76588,1.02478 1.14649,2.64992 1.14649,4.77148 v 4.81055 c 0,2.36368 -0.48342,3.85858 -1.35547,4.76563 -0.87209,0.90704 -2.26794,1.38867 -4.50391,1.38867 h -4.16016 z m 20.22266,0 h 4.86328 c 2.04291,0 3.23543,0.55424 4.01953,1.51954 0.7841,0.96525 1.19532,2.496 1.19532,4.57422 v 3.87304 c 0,2.5965 -0.61542,3.94552 -1.64844,4.75781 -1.03298,0.8123 -2.71617,1.16016 -5.0332,1.16016 h -3.39649 z m 40.73828,0 h 4.86133 c 2.09023,0 3.24388,0.59042 4.00977,1.61524 0.76588,1.02478 1.14648,2.64992 1.14648,4.77148 v 4.81055 c 0,2.36368 -0.48342,3.85858 -1.35547,4.76563 -0.87209,0.90704 -2.26797,1.38867 -4.5039,1.38867 h -4.15821 z m 43.78711,0 h 4.86328 c 2.04291,0 3.23397,0.55436 4.01758,1.51954 0.78365,0.96517 1.19531,2.49585 1.19531,4.57422 v 3.87304 c 0,2.59661 -0.61399,3.94563 -1.64648,4.75781 -1.03249,0.81219 -2.71617,1.16016 -5.0332,1.16016 h -3.39649 z m 123.14649,0 h 5.33203 c 2.042,0 3.30773,0.64529 4.17578,1.75586 0.86804,1.11054 1.33203,2.80015 1.33203,4.92383 v 20.88672 c 0,2.12776 -0.45266,3.8195 -1.3125,4.92774 -0.85984,1.10827 -2.12134,1.7539 -4.19531,1.7539 h -5.33203 z m -348.77149,3.94141 4.85156,21.33008 h -9.60742 z m 207.92578,0 4.85156,21.33008 h -9.60546 z m 45.72461,0 4.85156,21.33008 h -9.60742 z m 162.09961,0 4.85156,21.33008 h -9.60742 z"
       transform="scale(0.26458333)"
       inkscape:export-xdpi="300"
       inkscape:export-ydpi="300" />
    <path
       id="path1577"
       style="display:inline;fill:#000000;stroke-width:1.00157;stroke-linecap:round;stroke-linejoin:round;fill-opacity:1"
       d="m 642.66602,339.75391 -29.16993,2.73437 0.88672,63.85742 c 12.83223,-5.88499 27.21031,-9.15192 42.78907,-9.24023 4.53288,-0.0257 9.16925,0.2222 13.89648,0.74805 l 0.76953,-55.36524 z m -87.51172,4.55859 c -17.32003,0 -36.46289,9.11328 -36.46289,9.11328 0,0 -6.38011,37.37543 -11.84961,68.36914 -5.46951,30.99375 -11.84961,110.30274 -11.84961,110.30274 l 18.23047,0.91015 -2.73438,13.67383 c 0,0 26.51772,1.69659 38.71289,5.08398 -1.81612,-19.94349 -0.13833,-40.94311 3.22656,-59.73046 6.78348,-37.87428 27.96095,-68.55 58.49024,-84.01758 -2.76058,-0.10532 -7.34666,-0.31796 -15.6543,-0.80664 -15.49685,-0.91155 -24.61133,2.73437 -24.61133,2.73437 l -0.91015,-65.63281 z m 160.43945,0 -0.91016,65.63281 c 0,0 -4.7855,-1.89788 -13.28125,-2.60937 32.20042,18.79467 32.20899,57.16601 32.20899,57.16601 l -59.95117,7.10547 c 0,0 -4.8838,-31.97325 -29.75196,-23.0918 -19.94468,7.1231 -25.02557,41.61628 -26.25976,55.01563 1.58051,-4.60603 15.22611,-20.82336 48.01979,-20.82336 32.79368,0 52.51344,20.94077 57.28489,32.41906 4.77145,11.47829 10.09049,24.5087 7.61133,39.16602 4.57857,-5.07087 44.28125,-7.61133 44.28125,-7.61133 l -2.73437,-13.67383 18.23242,-0.91015 c 0,0 -6.38007,-79.30899 -11.84961,-110.30274 -5.46947,-30.99371 -11.85156,-68.36914 -11.85156,-68.36914 0,0 -19.14478,-9.11328 -36.46485,-9.11328 z m -72.41797,186.67578 c -13.8632,1.2e-4 -27.3381,12.5114 -30.09766,27.94531 -2.75933,15.43501 6.2432,27.94763 20.10743,27.94727 13.86378,-3.4e-4 27.33895,-12.51275 30.09765,-27.94727 2.7582,-15.43409 -6.24406,-27.94545 -20.10742,-27.94531 z m 87.02734,25.25 c -7.25827,36.79023 -44.3789,77.01172 -101.39453,77.01172 -46.66648,0 -68.45977,-27.2416 -76.49414,-61.7207 -11.59342,56.29011 -55.5,238.59961 -55.5,238.59961 L 445.76562,821.06836 400.1875,889.4375 298.08984,908.58008 H 642.66602 987.24414 L 885.14844,889.4375 839.57031,821.06836 788.51953,810.12891 c 0,0 -56.26055,-233.56344 -58.31641,-253.89063 z m -156.6875,80.17383 h 18.28126 l 8.07617,50.20508 H 586.69531 L 586.26953,677.25 h -6.80273 l -1.27539,9.36719 h -11.47852 z m 28.69727,0 h 11.90234 v 40.41211 h 7.75977 v 9.79297 h -19.66211 z m 23.07617,0 h 11.12305 c 10.07078,0 16.38477,3.02085 16.38477,16.38477 0,13.36558 -8.76314,13.37695 -15.03126,13.37695 v 20.44336 h -12.47656 v -16.89844 c -0.0897,0.81689 -0.77976,1.43541 -1.60156,1.43555 -0.89064,-7e-5 -1.61233,-0.72264 -1.61133,-1.61328 7e-5,-0.88988 0.72145,-1.61126 1.61133,-1.61133 0.81913,-3.1e-4 1.50817,0.61394 1.60156,1.42773 z m 31.26563,0 h 12.625 v 17.58594 h 5.11133 v -17.58594 h 12.32617 v 50.20508 h -12.32617 v -20.44336 h -5.11133 v 20.44336 h -12.625 z m 39.40234,0 h 18.28125 l 8.07617,50.20508 H 709.13672 L 708.71094,677.25 h -6.80274 l -1.27539,9.36719 H 689.1543 Z m -58.19141,8.56836 v 15.03125 c 3.06263,0 6.01172,0.20175 6.01172,-7.51563 0,-7.71745 -2.94538,-7.51562 -6.01172,-7.51562 z m -54.89648,4.63476 -3.40234,18.70704 h 6.80273 z m 122.44141,0 -3.40235,18.70704 h 6.80274 z m -27.5625,47.07227 h 3.45703 l 6.08789,24.95117 h -3.30664 l -2.17969,-7.14062 h -9.54492 l -4.66016,7.14062 h -3.83203 z m -63.32032,0.51367 c 5.1727,0.0674 11.80788,1.43651 10.41407,8.25391 -1.73397,8.48145 -15.9336,5.73047 -15.9336,5.73047 l -2.32226,11.35547 h -2.94141 l 5.10156,-24.95118 c 0,0 2.57805,-0.42911 5.68164,-0.38867 z m 27.64454,0.0391 c 6.62978,-0.009 12.80729,1.39184 12.05664,12.73829 -1.00094,15.12858 -13.88919,12.75195 -21.98633,12.75195 l 3.38867,-25.32813 c 2.07058,0 4.33109,-0.15908 6.54102,-0.16211 z m 70.45703,0.13477 c 4.80762,0.37324 5.29297,6.31641 5.29297,6.31641 h -2.98243 c 0,0 -0.15706,-3.45313 -4.86718,-3.45313 -4.71013,0 -6.4375,8.32031 -6.4375,8.32031 0,0 1.56962,-1.72618 6.59375,-1.41211 5.02397,0.31401 5.65219,3.92495 4.86718,8.16407 -0.785,4.23911 -4.23954,8.79241 -9.26367,7.69336 -5.02412,-1.09901 -6.59439,-7.06617 -5.65234,-12.4043 0.94201,-5.33813 3.29689,-11.46123 10.20508,-13.03125 0.43176,-0.0982 0.84053,-0.15955 1.22461,-0.18945 0.36007,-0.028 0.69902,-0.0288 1.01953,-0.004 z m -129.95899,0.0684 c 0.015,-3e-5 0.0299,-3e-5 0.0449,0 6.92755,-4.8e-4 11.03855,5.61555 9.18165,12.54297 -1.8565,6.92721 -8.97743,12.54227 -15.9043,12.54101 -6.92544,-8.9e-4 -11.03506,-5.61533 -9.17969,-12.54101 1.85063,-6.9095 8.94131,-12.51811 15.85742,-12.54297 z m -0.63672,2.33789 c -5.62245,0.0303 -11.37945,4.59066 -12.88281,10.20508 -1.50969,5.63479 1.83407,10.20272 7.46875,10.20312 5.63512,1.1e-4 11.42742,-4.56797 12.9375,-10.20312 1.51103,-5.63576 -1.83302,-10.20497 -7.46875,-10.20508 -0.0182,-5e-5 -0.0365,-5e-5 -0.0547,0 z m 34.25196,0.10547 c -0.49665,-0.0143 -0.99646,-0.011 -1.48828,0.002 -1.31153,0.0346 -2.56641,0.1442 -3.55665,0.21289 l -1.91406,8.875 c 5.65255,0.13625 10.73862,1.57885 13.16016,-4.22265 0.60034,-3.84722 -2.72467,-4.76714 -6.20117,-4.86719 z m 21.88086,0.10742 -2.48047,19.53906 c 0,0 15.30955,1.83988 15.93359,-9.54297 0.11063,-4.86678 1.26708,-9.68655 -13.45312,-9.99609 z m 40.2832,1.80274 -5.18555,10.22265 h 7.58985 z m 30.5957,7.42773 c -2.74956,0.0375 -5.32517,2.14543 -6.07031,5.30078 -0.7577,3.20754 0.82048,5.80782 3.52539,5.80859 2.70594,10e-4 5.51491,-2.59973 6.27344,-5.80859 0.75791,-3.20845 -0.97896,-5.33818 -3.72852,-5.30078 z m -113.1875,10.16016 c 0.0234,-6.1e-4 0.0469,-6.1e-4 0.0703,0 0.74693,-4e-4 1.35284,0.60463 1.35352,1.35156 4e-4,0.74769 -0.60583,1.35391 -1.35352,1.35351 -0.74691,-6.8e-4 -1.35196,-0.60658 -1.35156,-1.35351 -3.5e-4,-0.71958 0.56268,-1.31351 1.28125,-1.35156 z m 28.40821,0 c 0.0241,-6.4e-4 0.0482,-6.4e-4 0.0723,0 0.74616,6.8e-4 1.35088,0.6054 1.35156,1.35156 4e-4,0.74693 -0.60463,1.35283 -1.35156,1.35351 -0.74769,4e-4 -1.35391,-0.60582 -1.35351,-1.35351 -3.5e-4,-0.71958 0.56268,-1.31351 1.28125,-1.35156 z m 34.72265,0 c 0.0234,-6.1e-4 0.0469,-6.1e-4 0.0703,0 0.74693,-4e-4 1.35284,0.60463 1.35352,1.35156 4e-4,0.74769 -0.60583,1.35391 -1.35352,1.35351 -0.74769,4e-4 -1.35391,-0.60582 -1.35351,-1.35351 -3e-4,-0.7203 0.56386,-1.31451 1.2832,-1.35156 z m 33.36914,0 c 0.0234,-6.1e-4 0.0469,-6.1e-4 0.0703,0 0.74693,-4e-4 1.35284,0.60463 1.35352,1.35156 4e-4,0.74769 -0.60583,1.35391 -1.35352,1.35351 -0.74767,4e-4 -1.35391,-0.60582 -1.35351,-1.35351 -3e-4,-0.7203 0.56386,-1.31451 1.2832,-1.35156 z m -114.42383,3.80078 c 0.80023,1.7e-4 1.51769,0.49323 1.80469,1.24023 6.8839,1.64974 12.17116,3.02107 16.23438,4.2207 -0.3609,1.26029 -0.81984,2.77928 -1.54688,4.92969 0.26857,-0.13464 0.56481,-0.20486 0.86524,-0.20508 1.06938,-9.9e-4 1.93653,0.86617 1.93554,1.93555 -10e-4,1.06785 -0.86769,1.93263 -1.93554,1.93164 -0.73824,-2.7e-4 -1.41192,-0.42084 -1.73633,-1.08398 l -1.12696,3.34179 c 1.05411,0.0193 1.89853,0.87932 1.89844,1.9336 -10e-4,1.06785 -0.86769,1.93263 -1.93554,1.93164 -0.41171,3e-5 -0.81267,-0.13135 -1.14454,-0.375 l -1.27148,3.76172 -9.34766,-1.29102 -2.57617,6.12305 12.56836,3.22461 -1.28906,7.41211 c 0,0 14.82396,-5.80137 18.04687,1.28906 3.22292,7.09043 -2.90039,17.40381 -2.90039,23.20508 0,5.80127 2.90064,10.63461 0,12.24609 -2.90063,1.61144 -64.13672,0.64453 -64.13672,0.64453 l 0.96875,6.76758 c 0,0 -1.28872,-2.25388 -5.47851,-2.89844 -4.1898,-0.64467 -8.37891,1.61133 -8.37891,1.61133 l -5.1582,-0.32226 1.28906,-0.64454 0.73438,-3.06835 c -0.36196,0.35781 -0.8504,0.55855 -1.35938,0.55859 -1.06785,-9e-5 -1.9335,-0.86577 -1.93359,-1.93359 9e-5,-1.06786 0.86573,-1.93351 1.93359,-1.9336 0.83112,-3.3e-4 1.5695,0.53045 1.83399,1.31836 l 3.94726,-16.53516 19.01758,-2.25781 41.57422,-7.73437 c 0,0 -24.17142,-3.2208 -29.97266,-1.93164 -5.80123,1.28885 -4.19129,0.96479 -5.80273,1.28711 -1.59572,0.31861 -10.99614,2.51332 -11.18164,2.55664 -0.0511,1.0288 -0.89962,1.83699 -1.92969,1.83789 -1.06786,9.9e-4 -1.93438,-0.86378 -1.93555,-1.93164 -9.9e-4,-1.06939 0.86616,-1.93654 1.93555,-1.93555 1.06786,10e-4 1.93263,0.86769 1.93164,1.93555 -9e-5,0.0273 -6e-4,0.0547 -0.002,0.082 0.3016,-0.10583 12.82361,-4.50917 15.37109,-7.05664 2.57836,-2.57832 3.86861,-12.24779 10.63672,-15.47071 6.76815,-3.22291 10.95703,-9.99023 10.95703,-9.99023 l -3.22266,-3.54492 0.21485,-0.83399 c -1.01879,-0.064 -1.81236,-0.90888 -1.8125,-1.92968 9e-5,-1.06786 0.86573,-1.93351 1.93359,-1.9336 0.2888,7.3e-4 0.57377,0.0661 0.83399,0.19141 l 1.88476,-7.25586 c -0.34695,0.28961 -0.78439,0.44855 -1.23633,0.44922 -1.06862,9.9e-4 -1.93546,-0.86498 -1.93554,-1.9336 -9.9e-4,-1.06938 0.86616,-1.93653 1.93554,-1.93554 z m 20.67969,6.27539 c 0.78454,0.25182 1.49848,0.49461 2.16992,0.73242 -0.38436,1.86582 -0.77407,3.77033 -1.14062,5.27344 l -0.99219,-5.96289 c -0.014,-0.014 -0.0234,-0.0289 -0.0371,-0.043 z m 4.10352,1.46094 c 5.97185,2.40119 6.24654,4.21299 5.30469,6.80078 l -1.37696,-1.02539 c -0.25559,0.8036 -1.00244,1.34892 -1.8457,1.34765 -1.06785,-10e-4 -1.93263,-0.86772 -1.93164,-1.93554 1.3e-4,-0.64817 0.325,-1.25317 0.86523,-1.61133 l -0.0254,-0.38867 c -0.88727,-0.19362 -1.52027,-0.97857 -1.52148,-1.88672 -6.2e-4,-0.4989 0.20697,-0.95021 0.53125,-1.30078 z m -1.9961,7.0996 h 0.002 c 0.004,-10e-6 0.008,-10e-6 0.0117,0 1.06786,10e-4 1.93263,0.86769 1.93164,1.93555 -3.1e-4,0.16075 -0.0207,0.32084 -0.0606,0.47656 v 0.002 c 0.73886,0.29125 1.22453,1.00464 1.22461,1.79883 -9e-5,1.06706 -0.86455,1.93242 -1.93164,1.93359 -1.06862,9.9e-4 -1.93546,-0.865 -1.93555,-1.93359 1.2e-4,-0.16141 0.0204,-0.32216 0.0605,-0.47852 -0.73886,-0.29125 -1.22453,-1.00464 -1.22461,-1.79883 -0.001,-1.06406 0.85783,-1.92901 1.92187,-1.93555 z m -29.06836,2.0293 c 0.004,-10e-6 0.008,-10e-6 0.0117,0 1.06862,8e-5 1.93459,0.86693 1.9336,1.93555 -10e-4,1.0671 -0.8665,1.93156 -1.9336,1.93164 -1.06709,-9e-5 -1.93242,-0.86455 -1.93359,-1.93164 -0.001,-1.06406 0.85783,-1.92901 1.92187,-1.93555 z m 52.8711,0.34375 h 0.002 c 0.003,-10e-6 0.007,-10e-6 0.01,0 1.06785,-9.9e-4 1.93437,0.86379 1.93554,1.93164 9.9e-4,1.06938 -0.86616,1.93654 -1.93554,1.93555 -1.06786,-10e-4 -1.93263,-0.86769 -1.93164,-1.93555 10e-4,-1.06178 0.85817,-1.92404 1.91992,-1.93164 z m 31.24023,0.20313 c 0.005,-4e-5 0.0104,-4e-5 0.0156,0 0.62291,5.9e-4 1.12743,0.50599 1.12695,1.1289 -0.002,0.62139 -0.50556,1.12441 -1.12695,1.125 -0.6214,-5.8e-4 -1.12529,-0.50361 -1.12696,-1.125 -5.5e-4,-0.61687 0.49453,-1.11977 1.11133,-1.1289 z m -20.98437,0.25 h 0.002 c 0.003,-1e-5 0.007,-1e-5 0.01,0 1.06938,-9.9e-4 1.93653,0.86616 1.93554,1.93554 -8e-5,1.06862 -0.86692,1.93459 -1.93554,1.9336 -1.0671,-10e-4 -1.93156,-0.8665 -1.93164,-1.9336 -10e-4,-1.0633 0.85665,-1.92793 1.91992,-1.93554 z m 30.91797,1.06445 c 0.005,-4e-5 0.0104,-4e-5 0.0156,0 0.62292,5.9e-4 1.12744,0.50599 1.12695,1.12891 -5.9e-4,0.62215 -0.5048,1.12636 -1.12695,1.12695 -0.62215,-5.9e-4 -1.12636,-0.5048 -1.12695,-1.12695 -5.5e-4,-0.61687 0.49452,-1.11978 1.11133,-1.12891 z m -21.375,0.85937 c 0.005,-4e-5 0.0104,-4e-5 0.0156,0 0.62216,-4.9e-4 1.12724,0.50284 1.12891,1.125 4.9e-4,0.62368 -0.50523,1.1294 -1.12891,1.12891 -0.62292,-5.9e-4 -1.12744,-0.50599 -1.12695,-1.12891 0.002,-0.61535 0.49604,-1.1159 1.11133,-1.125 z M 618.5,743.24219 h 0.002 c 0.003,-1e-5 0.007,-1e-5 0.01,0 1.06785,9e-5 1.9335,0.86574 1.93359,1.93359 -9e-5,1.06786 -0.86573,1.93351 -1.93359,1.9336 -1.06786,-9e-5 -1.93351,-0.86574 -1.9336,-1.9336 7e-5,-1.0633 0.8586,-1.92706 1.92188,-1.93359 z m -20.77734,0.90429 c 0.004,-10e-6 0.008,-10e-6 0.0117,0 1.06783,9e-5 1.9335,0.86574 1.93359,1.9336 -9e-5,1.06785 -0.86577,1.9335 -1.93359,1.93359 -1.06786,-9e-5 -1.93351,-0.86573 -1.9336,-1.93359 6e-5,-1.0633 0.8586,-1.92707 1.92188,-1.9336 z m 10.0664,0.4629 c 0.003,-10e-6 0.007,-10e-6 0.01,0 1.06938,-9.9e-4 1.93651,0.86616 1.93555,1.93554 -10e-4,1.06786 -0.86769,1.93263 -1.93555,1.93164 -1.06633,-10e-4 -1.93047,-0.86531 -1.93164,-1.93164 -0.001,-1.06406 0.85783,-1.92903 1.92187,-1.93554 z m 74.40625,0.6875 h 0.002 c 0.005,-3e-5 0.009,-3e-5 0.0137,0 0.62291,-4.8e-4 1.12831,0.50404 1.1289,1.12695 -5.9e-4,0.62291 -0.50599,1.12743 -1.1289,1.12695 -0.62292,4.9e-4 -1.12832,-0.50403 -1.12891,-1.12695 5.3e-4,-0.61686 0.49647,-1.11892 1.11328,-1.12695 z m -53.65625,0.48242 c 0.004,-1e-5 0.008,-1e-5 0.0117,0 1.06709,10e-4 1.93155,0.8665 1.93164,1.93359 -9e-5,1.06709 -0.86455,1.93242 -1.93164,1.93359 -1.06862,9.9e-4 -1.93546,-0.86497 -1.93555,-1.93359 8e-5,-1.06406 0.85979,-1.92813 1.92383,-1.93359 z m 11.49805,0.084 c 0.004,-10e-6 0.008,-10e-6 0.0117,0 1.0671,10e-4 1.93156,0.8665 1.93164,1.9336 -9e-5,1.06706 -0.86455,1.93242 -1.93164,1.93359 -1.06862,9.9e-4 -1.93546,-0.865 -1.93555,-1.93359 7e-5,-1.06406 0.85978,-1.92814 1.92383,-1.9336 z m 9.67969,0.69531 c 0.62368,-4.8e-4 1.12939,0.50523 1.1289,1.12891 4.9e-4,0.62368 -0.50522,1.12939 -1.1289,1.12891 -0.62368,4.9e-4 -1.1294,-0.50523 -1.12891,-1.12891 -4.9e-4,-0.62368 0.50523,-1.1294 1.12891,-1.12891 z m 42.14843,0.0274 c 0.005,-4e-5 0.0104,-4e-5 0.0156,0 0.62139,5.9e-4 1.12528,0.50361 1.12695,1.125 4.8e-4,0.62291 -0.50404,1.12831 -1.12695,1.1289 -0.62368,4.9e-4 -1.12939,-0.50522 -1.12891,-1.1289 0.002,-0.6161 0.49723,-1.11695 1.11328,-1.125 z m 12.08204,0 h 0.002 c 0.005,-4e-5 0.0104,-4e-5 0.0156,0 0.6214,5.8e-4 1.12529,0.50361 1.12696,1.125 4.8e-4,0.62292 -0.50404,1.12831 -1.12696,1.1289 -0.62367,4.8e-4 -1.12938,-0.50523 -1.1289,-1.1289 0.002,-0.61535 0.49604,-1.1159 1.11133,-1.125 z m 23.95312,3.60351 c 0,0 0.22852,0.90978 3.19141,3.64453 2.96266,2.73472 27.3457,6.1543 27.3457,6.1543 0,0 -23.70081,0.91211 -31.44922,0.91211 -7.74845,0 -20.2832,-7.74805 -20.2832,-7.74805 z m -115.21289,0.23047 h 0.002 c 0.003,-10e-6 0.007,-10e-6 0.01,0 1.06862,-9.9e-4 1.93547,0.86498 1.93555,1.9336 -9e-5,1.06862 -0.86693,1.93458 -1.93555,1.93359 -1.06786,-9e-5 -1.93351,-0.86573 -1.9336,-1.93359 6e-5,-1.0633 0.8586,-1.92707 1.92188,-1.9336 z m 10.36914,0 h 0.002 c 0.003,-10e-6 0.007,-10e-6 0.01,0 1.06862,-9.9e-4 1.93547,0.86498 1.93555,1.9336 -9e-5,1.06862 -0.86693,1.93458 -1.93555,1.93359 -1.06709,-0.001 -1.93155,-0.8665 -1.93164,-1.93359 6e-5,-1.06254 0.8574,-1.926 1.91992,-1.9336 z m 10.48438,0.11524 h 0.002 c 0.003,-10e-6 0.007,-10e-6 0.01,0 1.0671,8e-5 1.93243,0.86454 1.9336,1.93164 9.9e-4,1.06862 -0.86498,1.93546 -1.9336,1.93554 -1.06938,9.9e-4 -1.93653,-0.86616 -1.93554,-1.93554 10e-4,-1.06329 0.86055,-1.92618 1.92383,-1.93164 z m -41.24805,0.68164 c 0.004,-10e-6 0.008,-10e-6 0.0117,0 1.06785,10e-4 1.93263,0.86769 1.93164,1.93554 -10e-4,1.06633 -0.86531,1.93047 -1.93164,1.93164 -1.06786,9.9e-4 -1.93438,-0.86378 -1.93555,-1.93164 -10e-4,-1.06482 0.85903,-1.93008 1.92383,-1.93554 z m 63.15234,0.68554 h 0.002 c 0.005,-3e-5 0.009,-3e-5 0.0137,0 0.62368,-4.8e-4 1.12939,0.50523 1.1289,1.12891 -5.9e-4,0.62291 -0.50599,1.12743 -1.1289,1.12695 -0.62292,4.9e-4 -1.12832,-0.50403 -1.12891,-1.12695 -5.4e-4,-0.61762 0.49571,-1.12084 1.11328,-1.12891 z m 10.15235,0.32227 c 0.005,-4e-5 0.0104,-4e-5 0.0156,0 0.62292,5.9e-4 1.12744,0.50599 1.12695,1.12891 4.8e-4,0.62291 -0.50404,1.12831 -1.12695,1.1289 -0.62291,-5.9e-4 -1.12743,-0.50599 -1.12695,-1.1289 -5.5e-4,-0.61687 0.49452,-1.11978 1.11133,-1.12891 z m -21.21485,0.53516 h 0.002 c 0.005,-3e-5 0.009,-3e-5 0.0137,0 0.62367,-4.8e-4 1.12938,0.50523 1.1289,1.1289 -5.9e-4,0.62291 -0.50599,1.12743 -1.1289,1.12695 -0.62216,-5.6e-4 -1.12637,-0.50479 -1.12696,-1.12695 -5.5e-4,-0.61687 0.49453,-1.11977 1.11133,-1.1289 z m 15.57617,1.72265 c 0.005,-3e-5 0.009,-3e-5 0.0137,0 0.62215,-4.9e-4 1.12723,0.50285 1.1289,1.125 4.9e-4,0.62368 -0.50522,1.12939 -1.1289,1.12891 -0.62292,-5.9e-4 -1.12745,-0.50599 -1.12696,-1.12891 0.002,-0.6161 0.49723,-1.11695 1.11328,-1.125 z m -8.86328,1.60938 c 0.005,-3e-5 0.009,-3e-5 0.0137,0 0.62364,-4.8e-4 1.12938,0.50523 1.1289,1.1289 4.9e-4,0.62368 -0.50525,1.12939 -1.1289,1.12891 -0.62368,4.9e-4 -1.1294,-0.50523 -1.12891,-1.12891 -5.2e-4,-0.61837 0.4969,-1.12189 1.11523,-1.1289 z m -105.75,11.30664 c 0.003,-10e-6 0.007,-10e-6 0.01,0 1.06862,-9.9e-4 1.93546,0.86497 1.93555,1.93359 9.9e-4,1.06939 -0.86616,1.93654 -1.93555,1.93555 -1.06786,-10e-4 -1.93263,-0.86769 -1.93164,-1.93555 7e-5,-1.06329 0.8586,-1.92706 1.92187,-1.93359 z m -9.57226,9.34375 h 0.002 c 0.003,-10e-6 0.007,-10e-6 0.01,0 1.06862,-9.9e-4 1.93545,0.86497 1.93554,1.93359 -8e-5,1.06862 -0.86692,1.93456 -1.93554,1.9336 -1.06786,-9e-5 -1.93351,-0.86574 -1.9336,-1.9336 7e-5,-1.0633 0.8586,-1.92706 1.92188,-1.93359 z m -11.97852,0.94531 c 0.003,-1e-5 0.007,-1e-5 0.01,0 1.06709,9e-5 1.93242,0.86455 1.93359,1.93164 9.9e-4,1.06862 -0.86497,1.93546 -1.93359,1.93555 -1.06862,-8e-5 -1.93459,-0.86693 -1.9336,-1.93555 10e-4,-1.06329 0.86055,-1.92618 1.92383,-1.93164 z m -5.48047,4.66992 c 0.004,-10e-6 0.008,-10e-6 0.0117,0 1.06862,8e-5 1.93459,0.86693 1.9336,1.93555 -9e-5,1.06786 -0.86574,1.9335 -1.9336,1.93359 -1.06785,-9e-5 -1.9335,-0.86574 -1.93359,-1.93359 -10e-4,-1.06406 0.85783,-1.92901 1.92187,-1.93555 z m 5.64063,5.32031 h 0.002 c 0.003,-1e-5 0.007,-1e-5 0.01,0 1.06786,9e-5 1.9335,0.86574 1.93359,1.9336 -9e-5,1.06785 -0.86574,1.9335 -1.93359,1.93359 -1.06862,9.9e-4 -1.93546,-0.86497 -1.93555,-1.93359 7e-5,-1.06406 0.85978,-1.92814 1.92383,-1.9336 z m -5.96289,5.15625 c 0.004,-1e-5 0.008,-1e-5 0.0117,0 1.06786,9e-5 1.9335,0.86574 1.93359,1.9336 -9e-5,1.06785 -0.86574,1.9335 -1.93359,1.93359 -1.06786,-9e-5 -1.93351,-0.86573 -1.9336,-1.93359 6e-5,-1.0633 0.8586,-1.92707 1.92188,-1.9336 z m -3.86719,6.24219 c 0.004,-10e-6 0.008,-10e-6 0.0117,0 1.0671,10e-4 1.93156,0.8665 1.93164,1.9336 -9e-5,1.06709 -0.86455,1.93242 -1.93164,1.93359 -1.06862,9.9e-4 -1.93546,-0.86497 -1.93555,-1.93359 7e-5,-1.06406 0.85978,-1.92814 1.92383,-1.9336 z m 2.96289,5.46875 c 0.004,-10e-6 0.008,-10e-6 0.0117,0 1.0671,10e-4 1.93156,0.8665 1.93164,1.9336 9.9e-4,1.06785 -0.86379,1.93437 -1.93164,1.93554 -1.06938,9.9e-4 -1.93654,-0.86616 -1.93555,-1.93554 7e-5,-1.06406 0.85978,-1.92814 1.92383,-1.9336 z m 54.56445,0.69727 h 0.004 c 0.003,-10e-6 0.005,-10e-6 0.008,0 1.06862,-9.9e-4 1.93546,0.86497 1.93555,1.93359 -1.3e-4,0.2016 -0.0317,0.40193 -0.0938,0.59375 2.26212,-0.0832 4.48886,-0.1591 6.73242,-0.23242 -0.0211,-0.11926 -0.0309,-0.24023 -0.0293,-0.36133 9e-5,-1.06862 0.86693,-1.93458 1.93555,-1.93359 1.06709,10e-4 1.93155,0.8665 1.93164,1.93359 -2.9e-4,0.0797 -0.005,0.15925 -0.0156,0.23828 24.37179,-0.74472 45.84765,-0.93359 45.84765,-0.93359 0,0 -9.90317,1.34225 -21.11132,3.35742 4.96982,0.61361 11.29521,1.5303 9.26171,2.11133 -3.19052,0.91155 -1.82503,-4.7e-4 -20.05664,4.10156 -18.23164,4.10211 -7.29101,5.4707 -7.29101,5.4707 l 4.10351,6.37891 -9.57226,-1.82422 0.45508,-6.83594 -7.38282,-1.15429 c -0.11943,0.0809 -0.2594,0.16326 -0.36523,0.24414 -7.74849,5.92528 -10.02734,11.39453 -10.02734,11.39453 0,0 -19.14207,1.82363 -23.24415,5.92578 -4.10214,4.10207 -17.32281,47.85701 -13.2207,50.5918 1.21047,0.80693 3.94775,1.56341 7.12305,2.24414 0.41385,-0.37099 0.95007,-0.57616 1.50586,-0.57617 0.86588,0.002 1.65441,0.49877 2.02929,1.27929 1.70967,0.30728 3.4043,0.58093 5.06446,0.83008 0.0773,-1.18603 1.06145,-2.1087 2.25,-2.10937 1.2466,-9.7e-4 2.25771,1.00926 2.25781,2.25586 -6.9e-4,0.16296 -0.019,0.32536 -0.0547,0.48437 2.83261,0.37304 4.89453,0.60547 4.89453,0.60547 l -5.13281,0.0156 c -0.39973,0.70932 -1.15064,1.14822 -1.96484,1.14844 -0.80856,-2.3e-4 -1.55517,-0.43314 -1.95703,-1.13476 l -5.43946,0.0176 c -0.40457,0.69184 -1.14581,1.11711 -1.94726,1.11719 -0.79657,7e-4 -1.53447,-0.41873 -1.94141,-1.10351 l -117.44336,0.39257 32.81641,-3.64453 11.85156,-16.4082 c 0,0 0.911,11.85104 4.10156,10.93945 3.19049,-0.91154 1.36719,-6.83789 1.36719,-6.83789 0,0 16.74229,-24.30954 24.25977,-39.12695 -0.91792,-0.16784 -1.58506,-0.96725 -1.58594,-1.90039 9e-5,-1.06862 0.86693,-1.93458 1.93555,-1.93359 0.47306,2.9e-4 0.92959,0.17404 1.2832,0.48828 1.82589,-4.05763 2.57317,-6.95253 1.45508,-7.66407 -5.01366,-3.19048 -7.29297,-1.82421 -7.29297,-1.82421 l 0.91211,-4.5586 c 0,0 15.0411,9.2e-4 23.70117,-5.92383 1.82721,-1.25026 8.00781,-2.27484 16.57422,-3.11718 -0.0348,-0.14589 -0.0525,-0.29534 -0.0527,-0.44532 9e-5,-1.06786 0.86574,-1.9335 1.9336,-1.93359 1.06785,9e-5 1.9335,0.86574 1.93359,1.93359 -5.4e-4,0.0319 -0.002,0.0638 -0.004,0.0957 3.55688,-0.30539 7.44904,-0.58211 11.53516,-0.83594 -0.46349,-0.36648 -0.73399,-0.92476 -0.73437,-1.51563 10e-4,-1.06709 0.8665,-1.93155 1.93359,-1.93164 1.06709,9e-5 1.93242,0.86455 1.93359,1.93164 -5.7e-4,0.51404 -0.20579,1.0067 -0.57031,1.36914 2.66204,-0.15571 5.35601,-0.30458 8.14258,-0.4414 -0.10498,-0.24164 -0.15949,-0.50217 -0.16016,-0.76563 9e-5,-1.06786 0.86574,-1.9335 1.9336,-1.93359 1.06785,9e-5 1.9335,0.86574 1.93359,1.93359 -1.3e-4,0.2016 -0.0317,0.40193 -0.0938,0.59375 v 0.002 c 2.69794,-0.12322 5.39646,-0.23837 8.13477,-0.34571 -0.0955,-0.23304 -0.14464,-0.4825 -0.14453,-0.73437 9.7e-4,-1.06102 0.85697,-1.92297 1.91796,-1.93164 z m -81.05468,23.68945 c 0.004,-10e-6 0.008,-10e-6 0.0117,0 1.06706,9e-5 1.93242,0.86455 1.93359,1.93164 9.9e-4,1.06862 -0.865,1.93546 -1.93359,1.93555 -1.06862,-8e-5 -1.93459,-0.86693 -1.9336,-1.93555 10e-4,-1.06254 0.85936,-1.92512 1.92188,-1.93164 z m -9.1875,1.44922 c 0.004,-1e-5 0.008,-1e-5 0.0117,0 1.06782,9e-5 1.9335,0.86574 1.93359,1.93359 -9e-5,1.06786 -0.86576,1.93351 -1.93359,1.9336 -1.06786,-9e-5 -1.93351,-0.86574 -1.9336,-1.9336 7e-5,-1.0633 0.8586,-1.92706 1.92188,-1.93359 z m -4.50977,4.67383 h 0.002 c 0.003,-10e-6 0.007,-10e-6 0.01,0 1.06785,9e-5 1.9335,0.86574 1.93359,1.93359 -9e-5,1.06786 -0.86573,1.93351 -1.93359,1.9336 -1.06862,9.6e-4 -1.93547,-0.86498 -1.93555,-1.9336 8e-5,-1.06406 0.85979,-1.92813 1.92383,-1.93359 z m 8.70117,0 c 0.004,-10e-6 0.008,-10e-6 0.0117,0 1.06786,9e-5 1.93351,0.86573 1.9336,1.93359 -9e-5,1.06786 -0.86574,1.93351 -1.9336,1.9336 -1.06786,-9e-5 -1.9335,-0.86574 -1.93359,-1.9336 7e-5,-1.06329 0.8586,-1.92706 1.92187,-1.93359 z m 4.9961,2.90039 c 0.004,-10e-6 0.008,-10e-6 0.0117,0 1.06782,9e-5 1.9335,0.86574 1.93359,1.93359 -9e-5,1.06786 -0.86576,1.93351 -1.93359,1.9336 -1.06786,-9e-5 -1.93351,-0.86574 -1.9336,-1.9336 7e-5,-1.0633 0.8586,-1.92706 1.92188,-1.93359 z m -9.1875,2.90039 c 0.004,-10e-6 0.008,-10e-6 0.0117,0 1.06782,9e-5 1.9335,0.86574 1.93359,1.93359 9.9e-4,1.06862 -0.865,1.93546 -1.93359,1.93555 -1.06862,-8e-5 -1.93459,-0.86693 -1.9336,-1.93555 7e-5,-1.0633 0.8586,-1.92706 1.92188,-1.93359 z m 5.48046,3.54687 h 0.002 c 0.003,-1e-5 0.007,-1e-5 0.01,0 1.06786,-9.9e-4 1.93438,0.86378 1.93555,1.93164 9.9e-4,1.06939 -0.86616,1.93654 -1.93555,1.93555 -1.06862,-9e-5 -1.93458,-0.86693 -1.93359,-1.93555 0.001,-1.06253 0.85939,-1.92511 1.92187,-1.93164 z m -10.79687,1.93164 h 0.002 c 0.003,-1e-5 0.007,-1e-5 0.01,0 1.06862,9e-5 1.93458,0.86693 1.93359,1.93555 -10e-4,1.06709 -0.8665,1.93155 -1.93359,1.93164 -1.06709,-9e-5 -1.93245,-0.86455 -1.93359,-1.93164 -0.001,-1.06406 0.85783,-1.92901 1.92187,-1.93555 z m 5.64063,4.51172 c 0.003,-10e-6 0.007,-10e-6 0.01,0 1.06939,-9.9e-4 1.93654,0.86616 1.93555,1.93555 -9e-5,1.06862 -0.86693,1.93458 -1.93555,1.93359 -1.06709,-10e-4 -1.93155,-0.8665 -1.93164,-1.93359 -0.001,-1.06406 0.85784,-1.92902 1.92188,-1.93555 z m -10.63672,0.32422 h 0.002 c 0.003,-10e-6 0.007,-10e-6 0.01,0 1.06782,-9.9e-4 1.93437,0.86379 1.93554,1.93164 9.9e-4,1.06938 -0.86619,1.93654 -1.93554,1.93555 -1.06786,-0.001 -1.93264,-0.86769 -1.93165,-1.93555 0.001,-1.06178 0.85817,-1.92405 1.91993,-1.93164 z m 4.35156,5.64063 h 0.002 c 0.003,-10e-6 0.007,-10e-6 0.01,0 1.06862,-9.9e-4 1.93545,0.86497 1.93554,1.93359 -9e-5,1.06862 -0.86692,1.93458 -1.93554,1.93359 -1.06786,-9e-5 -1.93351,-0.86573 -1.9336,-1.93359 7e-5,-1.0633 0.8586,-1.92706 1.92188,-1.93359 z m -5.15625,4.67187 c 0.003,-10e-6 0.007,-10e-6 0.01,0 1.06862,-9.9e-4 1.93547,0.86498 1.93555,1.9336 -9e-5,1.06862 -0.86693,1.93458 -1.93555,1.93359 -1.06709,-0.001 -1.93155,-0.8665 -1.93164,-1.93359 6e-5,-1.0633 0.8586,-1.92707 1.92188,-1.9336 z m -4.02735,5.05274 c 0.004,-10e-6 0.008,-10e-6 0.0117,0 1.0671,8e-5 1.93243,0.86454 1.9336,1.93164 9.9e-4,1.06862 -0.86498,1.93546 -1.9336,1.93554 -1.06862,-9e-5 -1.93458,-0.86692 -1.93359,-1.93554 0.001,-1.06253 0.85939,-1.92511 1.92187,-1.93164 z m 93.78126,21.53711 h 0.002 c 0.004,-1e-5 0.008,-1e-5 0.0117,0 1.24583,10e-5 2.25575,1.01005 2.25586,2.25585 -10e-5,1.24583 -1.01003,2.25576 -2.25586,2.25586 -1.24583,-1e-4 -2.25576,-1.01003 -2.25586,-2.25586 8e-5,-1.24048 1.0017,-2.24823 2.24219,-2.25585 z m 10.79882,0 h 0.002 c 0.003,-1e-5 0.007,-1e-5 0.01,0 1.24583,10e-5 2.25575,1.01005 2.25586,2.25585 -10e-5,1.24583 -1.01003,2.25576 -2.25586,2.25586 -1.24583,-1e-4 -2.25576,-1.01003 -2.25586,-2.25586 9e-5,-1.24124 1.00289,-2.2493 2.24414,-2.25585 z m 10.3125,0 h 0.002 c 0.004,-1e-5 0.008,-1e-5 0.0117,0 1.24503,10e-4 2.25379,1.01081 2.2539,2.25585 -10e-5,1.24507 -1.00886,2.25468 -2.2539,2.25586 -1.24583,-1e-4 -2.25576,-1.01003 -2.25586,-2.25586 8e-5,-1.24048 1.0017,-2.24823 2.24218,-2.25585 z m 9.99024,0 h 0.002 c 0.003,-1e-5 0.007,-1e-5 0.01,0 1.24659,-9.7e-4 2.2577,1.00929 2.25781,2.25585 -10e-5,1.2466 -1.01121,2.25683 -2.25781,2.25586 -1.24507,-0.001 -2.25381,-1.01079 -2.25391,-2.25586 8e-5,-1.24048 1.0017,-2.24823 2.24219,-2.25585 z"
       transform="scale(0.26458333)"
       sodipodi:nodetypes="cccscccscsccccscsccscccccsczzccccscscscscscsccccccccccccccccccccccccccccsscccccccccccccccccccccccccccccccccsccccccccccccccccccssccccsssccssccscsssssssssccccssscccssssscccssccccccccscccssccccsssccccsssccccsssccccsssccccscccccccccccsssccsccccssccccccccsssscsscccccccccssscccsssccccccssscscscccssccscscssssscscsssccsccccsscsccscccscscssssccscsscscsssccscsssssccssscccsccccscscsssssscssssscccccsccscsscsccscsccscscccscscscccscssscccscscsccscssssscscscsscsccccsscscsssscsccscsssccccsscccsccccscscsccccsssccsccscsscscscsccscsssssscssssssccscsscscscccsccccsscccccccsscccccccccccccccccscccscsccsccsccccsccccssccccccscsssssscssssscscscsccscsssssscssssssccscsscscscscccscssscccccsccccscssscccscscsccccsssccscssssscscssssccscssscccscscssccscssscc"
       inkscape:export-xdpi="300"
       inkscape:export-ydpi="300" />
  </g>
  <g
     inkscape:label="Layer 1"
     inkscape:groupmode="layer"
     id="layer1"
     style="display:inline;opacity:0.357616"
     sodipodi:insensitive="true" />
</svg>
