<?xml version="1.0" encoding="UTF-8" standalone="no"?>
<svg
   xmlns:dc="http://purl.org/dc/elements/1.1/"
   xmlns:cc="http://creativecommons.org/ns#"
   xmlns:rdf="http://www.w3.org/1999/02/22-rdf-syntax-ns#"
   xmlns:svg="http://www.w3.org/2000/svg"
   xmlns="http://www.w3.org/2000/svg"
   xmlns:xlink="http://www.w3.org/1999/xlink"
   xmlns:sodipodi="http://sodipodi.sourceforge.net/DTD/sodipodi-0.dtd"
   xmlns:inkscape="http://www.inkscape.org/namespaces/inkscape"
   inkscape:export-ydpi="300"
   inkscape:export-xdpi="300"
   inkscape:export-filename="D:\Titipan\Projects\Codes\Rhodes Wiki Indo\Icon Assets\Lee_B.png"
   width="1280"
   height="1280"
   viewBox="0 0 338.66666 338.66668"
   version="1.1"
   id="svg8"
   inkscape:version="1.0.2 (e86c870879, 2021-01-15, custom)"
   sodipodi:docname="Sami_Z.svg">
  <defs
     id="defs2">
    <pattern
       inkscape:collect="always"
       xlink:href="#pattern4166"
       id="pattern4174"
       patternTransform="translate(-51.833686,-17.277895)" />
    <inkscape:path-effect
       end_linecap_type="zerowidth"
       scale_width="1"
       miter_limit="4"
       linejoin_type="extrp_arc"
       start_linecap_type="zerowidth"
       interpolator_beta="0.2"
       interpolator_type="CubicBezierJohan"
       sort_points="true"
       offset_points="0,3.40217"
       lpeversion="1"
       is_visible="true"
       id="path-effect892"
       effect="powerstroke" />
    <inkscape:path-effect
       end_linecap_type="zerowidth"
       scale_width="1"
       miter_limit="4"
       linejoin_type="extrp_arc"
       start_linecap_type="zerowidth"
       interpolator_beta="0.2"
       interpolator_type="CubicBezierJohan"
       sort_points="true"
       offset_points="0,3.40217"
       lpeversion="1"
       is_visible="true"
       id="path-effect887"
       effect="powerstroke" />
    <inkscape:path-effect
       end_linecap_type="zerowidth"
       scale_width="1"
       miter_limit="4"
       linejoin_type="extrp_arc"
       start_linecap_type="zerowidth"
       interpolator_beta="0.2"
       interpolator_type="CubicBezierJohan"
       sort_points="true"
       offset_points="2.7941224,-3.4021738 | 2.7941224,-3.4021738"
       lpeversion="1"
       is_visible="true"
       id="path-effect882"
       effect="powerstroke" />
    <inkscape:path-effect
       end_linecap_type="zerowidth"
       scale_width="1"
       miter_limit="4"
       linejoin_type="extrp_arc"
       start_linecap_type="zerowidth"
       interpolator_beta="0.2"
       interpolator_type="CubicBezierJohan"
       sort_points="true"
       offset_points="0,3.01003"
       lpeversion="1"
       is_visible="true"
       id="path-effect877"
       effect="powerstroke" />
    <inkscape:path-effect
       end_linecap_type="zerowidth"
       scale_width="1"
       miter_limit="4"
       linejoin_type="extrp_arc"
       start_linecap_type="zerowidth"
       interpolator_beta="0.2"
       interpolator_type="CubicBezierJohan"
       sort_points="true"
       offset_points="0,3.01003"
       lpeversion="1"
       is_visible="true"
       id="path-effect872"
       effect="powerstroke" />
    <inkscape:path-effect
       end_linecap_type="zerowidth"
       scale_width="1"
       miter_limit="4"
       linejoin_type="extrp_arc"
       start_linecap_type="zerowidth"
       interpolator_beta="0.2"
       interpolator_type="CubicBezierJohan"
       sort_points="true"
       offset_points="11.631982,3.0100329"
       lpeversion="1"
       is_visible="true"
       id="path-effect868"
       effect="powerstroke" />
    <inkscape:path-effect
       end_linecap_type="zerowidth"
       scale_width="1"
       miter_limit="4"
       linejoin_type="extrp_arc"
       start_linecap_type="zerowidth"
       interpolator_beta="0.2"
       interpolator_type="CubicBezierJohan"
       sort_points="true"
       offset_points="156.61386,0.938298"
       lpeversion="1"
       is_visible="true"
       id="path-effect864"
       effect="powerstroke" />
    <pattern
       patternUnits="userSpaceOnUse"
       width="34.555802"
       height="34.555802"
       patternTransform="translate(697.97451,522.68951)"
       id="pattern4166">
      <circle
         r="5.0119109"
         cy="17.277901"
         cx="5.0119109"
         id="path4156"
         style="opacity:1;fill:#000000;fill-opacity:1;stroke:none;stroke-width:2.83465;stroke-miterlimit:4;stroke-dasharray:none;stroke-opacity:1" />
      <circle
         style="opacity:1;fill:#000000;fill-opacity:1;stroke:none;stroke-width:2.83465;stroke-miterlimit:4;stroke-dasharray:none;stroke-opacity:1"
         id="circle4160"
         cx="29.543892"
         cy="17.277901"
         r="5.0119109" />
      <circle
         style="opacity:1;fill:#000000;fill-opacity:1;stroke:none;stroke-width:2.83465;stroke-miterlimit:4;stroke-dasharray:none;stroke-opacity:1"
         id="circle4162"
         cx="17.277901"
         cy="29.543892"
         r="5.0119109" />
      <circle
         r="5.0119109"
         cy="5.0119109"
         cx="17.277901"
         id="circle4164"
         style="opacity:1;fill:#000000;fill-opacity:1;stroke:none;stroke-width:2.83465;stroke-miterlimit:4;stroke-dasharray:none;stroke-opacity:1" />
    </pattern>
    <pattern
       patternUnits="userSpaceOnUse"
       width="48.869282"
       height="48.869282"
       patternTransform="translate(690.81773,515.53278)"
       id="pattern4176">
      <rect
         id="rect4172"
         y="-17.277901"
         x="-51.833702"
         height="34.555801"
         width="34.555801"
         transform="rotate(-135)"
         style="display:inline;fill:url(#pattern4174);stroke:none;stroke-width:0.999999" />
    </pattern>
  </defs>
  <sodipodi:namedview
     inkscape:snap-bbox-midpoints="false"
     inkscape:snap-bbox="false"
     inkscape:snap-midpoints="true"
     inkscape:guide-bbox="true"
     showguides="true"
     inkscape:snap-global="true"
     id="base"
     pagecolor="#910000"
     bordercolor="#666666"
     borderopacity="1.0"
     inkscape:pageopacity="0"
     inkscape:pageshadow="2"
     inkscape:zoom="0.41580723"
     inkscape:cx="128.53338"
     inkscape:cy="668.66016"
     inkscape:document-units="mm"
     inkscape:current-layer="layer3"
     inkscape:document-rotation="0"
     showgrid="false"
     units="px"
     inkscape:pagecheckerboard="false" />
  <metadata
     id="metadata5">
    <rdf:RDF>
      <cc:Work
         rdf:about="">
        <dc:format>image/svg+xml</dc:format>
        <dc:type
           rdf:resource="http://purl.org/dc/dcmitype/StillImage" />
        <dc:title></dc:title>
      </cc:Work>
    </rdf:RDF>
  </metadata>
  <g
     style="display:inline"
     inkscape:groupmode="layer"
     id="layer3"
     inkscape:label="Objects">
    <path
       id="path1001"
       style="fill:#000000;fill-opacity:1;stroke:none;stroke-width:2;stroke-linecap:round;stroke-linejoin:round;stroke-miterlimit:4;stroke-dasharray:none;stroke-opacity:1;paint-order:normal"
       d="m 86.028885,75.241919 c -0.39546,-0.0035 -0.880679,0.207682 -1.471229,0.685744 -2.36219,1.912247 -7.648721,12.036034 -3.936709,22.722128 5.207968,14.992649 2.785329,5.167319 9.673309,17.097659 6.887991,11.93036 7.109645,13.51856 7.109645,13.51856 -1.596321,-0.65493 -4.921451,-2.36092 -7.55406,-3.43545 -3.89741,-1.59078 -10.419307,-6.0448 -9.067149,-0.63614 1.352161,5.40866 8.430993,8.19252 11.294401,8.66976 9.046707,1.52791 19.198337,3.5809 26.788547,8.65477 4.27443,4.49941 3.26233,5.06171 3.26233,5.06171 0,0 -5.5119,0.44987 -8.99893,-4.16203 -3.48705,-4.61189 -7.42422,-2.47487 -6.29936,0.89969 1.12485,3.37455 2.58715,6.52447 7.19904,7.7618 4.61189,1.23734 9.89862,2.81223 9.89862,2.81223 -9.35588,7.5843 -16.73457,-0.76678 -21.82812,-5.43843 0,0 1.19275,-4.61339 -2.545579,-7.95403 -3.738346,-3.34064 -9.862915,-7.3173 -12.646774,-7.2378 -2.783829,0.0795 -8.987819,0.71574 -2.704229,4.61315 6.283592,3.89741 9.385723,5.56768 11.771892,9.54464 2.386171,3.97695 5.24965,8.66958 10.73784,11.21482 5.25175,2.4041 9.03465,4.61056 14.95309,1.90892 5.40865,-2.62477 9.78324,-5.64724 12.40803,-4.77231 2.62479,0.87493 3.89744,2.2272 3.89744,4.0566 0,1.8294 -0.2385,3.26108 2.14767,3.81785 2.38617,0.55678 12.40832,4.5338 14.87403,9.78339 2.46571,5.24956 1.5906,7.39696 1.5906,7.39696 l -1.03404,-0.0791 c 0,0 -1.19319,-6.12498 -6.92,-9.54515 -5.04259,-3.03573 -7.25017,-5.02182 -15.82797,-3.49953 0,0 -2.7e-4,-1.03398 1.27227,-3.81785 1.27262,-2.78387 1.11377,-3.42038 -0.55655,-3.2613 -1.67032,0.15907 -3.10182,1.5911 -4.45399,3.50004 -1.35216,1.90894 -3.1818,2.62477 -4.29535,4.77232 -1.11355,2.14756 -1.74976,5.88595 -1.74976,5.88595 l -0.0171,0.008 c -0.13429,0.48397 -0.28092,0.9964 -0.46044,1.58285 -1.1931,3.89741 -3.97655,6.76088 -3.10161,10.73784 0.87493,3.97695 9.70384,8.66992 10.73784,9.94255 1.03401,1.27263 0.39739,2.22707 1.35186,2.86339 0.95447,0.63631 2.62463,-0.31863 4.53357,-0.8754 0.59422,-0.12641 5.23991,1.34185 6.05493,0.0801 1.06111,-1.64274 2.06717,-0.55197 3.15949,0.13126 1.35173,0.84549 1.41394,1.84897 0.63459,3.13831 -1.27542,2.11002 -2.90266,3.39361 -3.60701,5.43016 -0.70436,2.03654 -1.77567,4.38488 -0.19689,7.92354 2.30663,5.17004 3.8976,8.11288 5.17022,8.5106 6.01213,1.88152 8.04166,3.3759 11.53315,8.43152 1.22823,1.70885 1.69662,3.93145 1.87637,5.22345 0.11045,0.18876 0.22095,0.37738 0.33073,0.5669 0.44883,-1.06834 1.45159,-3.8362 1.45159,-7.30188 0,-4.45419 -0.79543,-5.32904 -1.98851,-6.60167 -1.19308,-1.27262 -2.14767,-3.10217 -1.19321,-4.13618 0.95448,-1.034 1.27275,0.87491 2.14768,2.86339 0.87492,1.98848 1.74976,6.04511 1.74976,6.04511 0,0 0.239,0.71571 0.71624,-5.09064 0.47723,-5.80635 -4.53409,-12.96459 -4.53409,-12.96459 0,0 -4.69277,7.95356 -6.52209,8.98757 -1.8294,1.034 -5.56779,-5.09028 -5.88594,-8.27185 -0.31816,-3.18156 3.42046,-5.96553 3.42046,-5.96553 0,0 0.63597,1.74989 0.31781,2.94298 -0.31815,1.19309 -1.03396,1.43173 -0.95446,2.94297 0.0795,1.51125 2.38659,3.73836 3.65921,3.89743 1.27263,0.15908 5.24929,-5.17022 5.24929,-5.17022 0,0 -4.85164,-11.69218 -4.37441,-12.40803 0.47724,-0.71585 0.7953,-3.65869 0.7953,-3.65869 0,0 1.43175,2.06803 3.02255,5.80636 1.59077,3.73834 0.87488,7.87446 0.87488,7.87446 0,0 2.62484,-3.42029 0.0796,-12.72636 -2.54525,-9.30607 -8.1132,-8.19226 -8.1132,-8.19226 l -0.39791,6.4425 c 0,0 -1.43156,-1.03404 -3.57911,-1.98851 -2.14756,-0.95455 -3.97702,-1.03405 -3.97702,-1.03405 0,0 3.65889,-1.35219 5.01106,-1.9885 1.35216,-0.63631 2.22729,-2.30653 3.2613,-2.70423 1.03401,-0.3977 7.63567,3.34076 8.5106,4.0566 0.87491,0.71585 1.67018,5.32899 2.62464,8.43101 0.95447,3.10203 1.90893,2.70422 1.90893,2.70422 0,0 0.15929,0.87505 0.39791,3.10214 0.23862,2.2271 0.71572,26.48624 0.71572,26.48624 0,0 2.1e-4,0.63651 -0.55656,1.35237 -0.55678,0.71585 -1.27279,-0.39791 -1.27279,-0.39791 0,0 -0.31815,4.37509 0,7.55665 0.59744,5.72689 3.77866,15.17742 5.75056,15.17742 1.97189,0 5.15311,-9.45053 5.75055,-15.17742 0.31815,-3.18156 0,-7.55665 0,-7.55665 0,0 -0.71602,1.11376 -1.27279,0.39791 -0.55677,-0.71586 -0.55656,-1.35237 -0.55656,-1.35237 0,0 0.4771,-24.25914 0.71572,-26.48624 0.23862,-2.22709 0.39791,-3.10214 0.39791,-3.10214 0,0 0.95446,0.39781 1.90892,-2.70422 0.95447,-3.10202 1.74973,-7.71516 2.62465,-8.43101 0.87493,-0.71584 7.47658,-4.4543 8.51059,-4.0566 1.03401,0.3977 1.90913,2.06792 3.2613,2.70423 1.35216,0.63631 5.01106,1.9885 5.01106,1.9885 0,0 -1.82945,0.0796 -3.97701,1.03405 -2.14755,0.95447 -3.57911,1.98851 -3.57911,1.98851 l -0.39791,-6.4425 c 0,0 -5.56795,-1.11381 -8.1132,8.19226 -2.54525,9.30607 0.0796,12.72636 0.0796,12.72636 0,0 -0.7159,-4.13612 0.87488,-7.87446 1.59079,-3.73833 3.02256,-5.80636 3.02256,-5.80636 0,0 0.31806,2.94284 0.7953,3.65869 0.47723,0.71585 -4.37441,12.40803 -4.37441,12.40803 0,0 3.97666,5.3293 5.24929,5.17022 1.27262,-0.15907 3.57967,-2.38618 3.65921,-3.89743 0.0795,-1.51124 -0.63632,-1.74988 -0.95447,-2.94297 -0.31816,-1.19309 0.31781,-2.94298 0.31781,-2.94298 0,0 3.73863,2.78397 3.42047,5.96553 -0.31815,3.18157 -4.05655,9.30585 -5.88595,8.27185 -1.82933,-1.03401 -6.52208,-8.98757 -6.52208,-8.98757 0,0 -5.01132,7.15824 -4.53409,12.96459 0.47724,5.80635 0.71623,5.09064 0.71623,5.09064 0,0 0.87485,-4.05663 1.74977,-6.04511 0.87493,-1.98848 1.1932,-3.89739 2.14767,-2.86339 0.95447,1.03401 -1.2e-4,2.86356 -1.19321,4.13618 -1.19308,1.27263 -1.98851,2.14748 -1.98851,6.60167 0,3.46568 1.00277,6.23354 1.45159,7.30188 0.10978,-0.18951 0.22029,-0.37815 0.33073,-0.5669 0.17976,-1.29201 0.64814,-3.5146 1.87638,-5.22345 3.49149,-5.05562 5.52101,-6.55 11.53314,-8.43152 1.27262,-0.39771 2.8636,-3.34056 5.17023,-8.5106 1.57877,-3.53866 0.50746,-5.887 -0.19689,-7.92354 -0.70436,-2.03655 -2.33159,-3.32014 -3.60701,-5.43016 -0.77936,-1.28934 -0.71715,-2.29282 0.63458,-3.13831 1.09232,-0.68323 2.09839,-1.774 3.1595,-0.13126 0.81502,1.26175 5.46071,-0.20651 6.05493,-0.0801 1.90894,0.55677 3.5791,1.51171 4.53357,0.8754 0.95447,-0.63632 0.31784,-1.59076 1.35185,-2.86339 1.034,-1.27263 9.86292,-5.9656 10.73785,-9.94255 0.87493,-3.97696 -1.90853,-6.84043 -3.10162,-10.73784 -0.17952,-0.58645 -0.32614,-1.09888 -0.46043,-1.58285 l -0.0171,-0.008 c 0,0 -0.63621,-3.73839 -1.74976,-5.88595 -1.11355,-2.14755 -2.94318,-2.86338 -4.29535,-4.77232 -1.35216,-1.90894 -2.78367,-3.34097 -4.45399,-3.50004 -1.67032,-0.15908 -1.82918,0.47743 -0.55655,3.2613 1.27262,2.78387 1.27227,3.81785 1.27227,3.81785 -8.5778,-1.52229 -10.78538,0.4638 -15.82798,3.49953 -5.7268,3.42017 -6.91999,9.54515 -6.91999,9.54515 l -1.03404,0.0791 c 0,0 -0.87511,-2.14739 1.5906,-7.39696 2.46571,-5.24959 12.48785,-9.22661 14.87403,-9.78339 2.38617,-0.55677 2.14767,-1.98845 2.14767,-3.81785 0,-1.8294 1.27265,-3.18167 3.89744,-4.0566 2.62478,-0.87493 6.99937,2.14753 12.40802,4.77231 5.91846,2.70163 9.70135,0.49518 14.9531,-1.90892 5.48819,-2.54524 8.35167,-7.23787 10.73784,-11.21482 2.38617,-3.97696 5.4883,-5.64723 11.77189,-9.54464 6.28359,-3.89741 0.0796,-4.53365 -2.70423,-4.61315 -2.78386,-0.0795 -8.90843,3.89716 -12.64677,7.2378 -3.73833,3.34064 -2.54558,7.95403 -2.54558,7.95403 -5.09355,4.67164 -12.47224,13.02273 -21.82812,5.43843 0,0 5.28673,-1.57489 9.89862,-2.81223 4.61189,-1.23733 6.07419,-4.38725 7.19904,-7.7618 1.12486,-3.37456 -2.81232,-5.51158 -6.29936,-0.89969 -3.48704,4.6119 -8.99893,4.16203 -8.99893,4.16203 0,0 -1.01211,-0.5623 3.26233,-5.06171 7.59021,-5.07387 17.74183,-7.12686 26.78855,-8.65477 2.86341,-0.47724 9.94224,-3.2611 11.2944,-8.66976 1.35216,-5.40866 -5.16974,-0.95464 -9.06715,0.63614 -2.6326,1.07453 -5.95774,2.78052 -7.55406,3.43545 0,0 0.22166,-1.58821 7.10964,-13.51856 6.88799,-11.93034 4.46534,-2.10501 9.67332,-17.097659 3.71201,-10.686094 -1.57453,-20.809881 -3.93671,-22.722128 -0.59055,-0.478062 -1.07578,-0.68926 -1.47123,-0.685744 -1.18637,0.01056 -1.5658,1.951109 -1.5658,4.397663 0,3.262072 0.78721,11.586102 0.56224,15.523083 -0.22494,3.936984 -3.26223,12.485905 -7.3117,18.222665 -4.04946,5.73674 -12.71085,17.6599 -12.71085,17.6599 0,0 -7.64904,2.69952 -12.03596,5.06171 -4.38693,2.36218 -6.29893,6.18696 -9.44852,9.44903 -3.14959,3.26207 -8.99893,5.06171 -8.99893,5.06171 0,0 0.33745,-1.46241 0.33745,-2.81223 0,-1.34983 1.01262,-1.57482 3.26233,-5.84926 2.2497,-4.27443 6.41148,-6.97369 13.94799,-8.66097 7.53652,-1.68728 10.12372,-9.11168 11.36106,-12.26127 1.23734,-3.14957 3.48694,-5.96163 11.9233,-16.76021 8.4364,-10.798587 4.72456,-11.810881 -0.22479,-9.561176 -4.94935,2.249704 -13.83577,13.498026 -17.21032,21.484476 -3.37456,7.98645 0.56266,4.38721 -2.24947,8.77414 -2.81213,4.38692 -10.23659,6.97374 -10.23659,6.97374 0,0 2.47503,-5.06139 6.41201,-10.68566 3.93699,-5.62426 6.5242,-28.121446 4.83692,-35.095529 -1.68728,-6.974086 -5.51212,-3.824676 -7.08691,0.224793 -1.57479,4.049466 2.47498,21.597526 1.23765,26.321906 -1.23734,4.72438 -4.16235,8.43618 -4.72477,8.43618 -0.56243,0 -0.2248,-0.89969 -0.2248,-0.89969 0,0 0.11252,-3.03745 -1.34979,-6.41201 -1.46229,-3.37456 -3.59926,0.6749 -3.59926,0.6749 0,0 -0.33772,2.5875 -3.26233,13.61105 -2.92462,11.02355 -10.79882,15.07298 -10.79882,15.07298 0,0 -2.58672,12.26069 -3.48661,14.62288 -0.89988,2.36219 -3.93701,3.93683 -5.84926,5.7366 -1.91225,1.79976 -12.14841,19.68507 -13.38575,21.03489 -1.17763,1.24395 -1.93932,0.97767 -2.8484,0 -1.23734,-1.34982 -11.4735,-19.23513 -13.38575,-21.03489 -1.91225,-1.79977 -4.94937,-3.37441 -5.84925,-5.7366 -0.89989,-2.36219 -3.48661,-14.62288 -3.48661,-14.62288 0,0 -7.87421,-4.04943 -10.79882,-15.07298 -2.9246,-11.02355 -3.26234,-13.61105 -3.26234,-13.61105 0,0 -2.13696,-4.04946 -3.59926,-0.6749 -1.46231,3.37456 -1.34979,6.41201 -1.34979,6.41201 0,0 0.33764,0.89969 -0.22479,0.89969 -0.56242,0 -3.48744,-3.7118 -4.72478,-8.43618 -1.23733,-4.72438 2.81244,-22.27244 1.23765,-26.321906 -1.57479,-4.049469 -5.39963,-7.198879 -7.0869,-0.224793 -1.68728,6.974083 0.89992,29.471269 4.83691,35.095529 3.93698,5.62427 6.41201,10.68566 6.41201,10.68566 0,0 -7.42445,-2.58682 -10.23658,-6.97374 -2.81213,-4.38693 1.12508,-0.78769 -2.24948,-8.77414 -3.37455,-7.98645 -12.26096,-19.234772 -17.210312,-21.484476 -4.949351,-2.249705 -8.661193,-1.237414 -0.224793,9.561176 8.436355,10.79858 10.685955,13.61065 11.923295,16.76021 1.23734,3.14959 3.82455,10.57399 11.36107,12.26127 7.53651,1.68728 11.69828,4.38654 13.94798,8.66097 2.24971,4.27444 3.26234,4.49943 3.26234,5.84926 0,1.34982 0.33744,2.81223 0.33744,2.81223 0,0 -5.84934,-1.79964 -8.99893,-5.06171 -3.14958,-3.26207 -5.06159,-7.08685 -9.44852,-9.44903 -4.38692,-2.36219 -12.03596,-5.06171 -12.03596,-5.06171 0,0 -8.661385,-11.92316 -12.710846,-17.6599 -4.049469,-5.73676 -7.086748,-14.285681 -7.311697,-18.222665 -0.224969,-3.936981 0.56224,-12.261011 0.56224,-15.523083 0,-2.446554 -0.379436,-4.387103 -1.565796,-4.397663 z m 2.628262,68.962201 -4.772319,1.1932 3.49953,2.94298 4.294828,-1.03405 z m 161.352423,0 -3.02204,3.10213 4.29483,1.03405 3.49953,-2.94298 z m -110.34159,31.80219 c 9.55691,0.0183 11.26805,4.78575 11.26805,4.78575 0,0 -0.95433,-0.0793 -2.62465,-0.47697 -1.67032,-0.39771 -7.63607,-0.71581 -11.21533,1.03404 -3.57925,1.74987 -2.78373,3.41989 -0.71572,7.15822 2.06802,3.73834 4.0566,3.34088 4.0566,3.34088 0,0 -0.31815,0.39765 -1.90893,1.82935 -1.59078,1.4317 -2.3865,-0.47713 -2.466,-1.74976 -0.0795,-1.27262 -4.37441,-7.39697 -4.37441,-7.39697 0.81826,-4.63202 2.4809,-8.1405 7.0311,-8.51111 0.32482,-0.009 0.641,-0.014 0.94929,-0.0134 z m 59.33075,0 c 0.30829,-5.3e-4 0.62447,0.004 0.9493,0.0134 4.5502,0.3706 6.21282,3.87909 7.03109,8.51111 0,0 -4.29487,6.12434 -4.37441,7.39696 -0.0795,1.27263 -0.87522,3.18147 -2.466,1.74977 -1.59078,-1.4317 -1.90893,-1.82935 -1.90893,-1.82935 0,0 1.98858,0.39746 4.0566,-3.34088 2.06801,-3.73833 2.86353,-5.40836 -0.71572,-7.15822 -3.57925,-1.74986 -9.54501,-1.43175 -11.21533,-1.03404 -1.67032,0.3977 -2.62465,0.47697 -2.62465,0.47697 0,0 1.71114,-4.76745 11.26805,-4.78576 z m -74.86727,5.0245 c 0,0 -0.23874,2.14749 -0.23874,3.73827 0,1.59078 1.03404,3.73827 1.03404,3.73827 0,0 -2.14767,-1.27256 -3.10213,-3.73827 -0.95447,-2.46571 2.30683,-3.73827 2.30683,-3.73827 z m 90.40379,0 c 0,0 3.2613,1.27256 2.30683,3.73827 -0.95446,2.46571 -3.10213,3.73827 -3.10213,3.73827 0,0 1.03404,-2.14749 1.03404,-3.73827 0,-1.59078 -0.23874,-3.73827 -0.23874,-3.73827 z m -53.81119,1.74925 c 0.0463,-0.003 0.0749,5.3e-4 0.0749,5.3e-4 0,0 1.82917,3.26111 2.46549,4.8519 0.63631,1.59078 1.27291,4.05659 1.51153,5.01106 0.23861,0.95447 -2.6e-4,-1.8e-4 0.31781,0.63614 0.31816,0.63631 0.47763,0.6363 1.6707,1.90892 1.1931,1.27263 0.87488,2.38642 0.87488,2.38642 0,0 -0.47748,-0.63622 -1.43195,-0.71572 -0.95447,-0.0795 -1.67018,0.87489 -1.67018,0.87489 0,0 -1.74976,-5.32894 -3.6587,-10.26036 -1.67028,-4.31501 -0.47857,-4.67207 -0.15451,-4.69377 z m 17.21859,0 c 0.32406,0.0217 1.51576,0.37876 -0.15451,4.69377 -1.90894,4.93142 -3.6587,10.26035 -3.6587,10.26035 0,0 -0.71571,-0.95442 -1.67018,-0.87488 -0.95447,0.0795 -1.43195,0.71572 -1.43195,0.71572 0,0 -0.31821,-1.11379 0.87488,-2.38642 1.19308,-1.27262 1.35254,-1.27262 1.6707,-1.90893 0.31815,-0.63632 0.0792,0.31834 0.31781,-0.63613 0.23862,-0.95447 0.87523,-3.42028 1.51154,-5.01107 0.63632,-1.59078 2.46548,-4.8519 2.46548,-4.8519 0,0 0.0286,-0.004 0.0749,-5.3e-4 z m -9.58339,45.56517 c 0,0 0.28329,0.50021 0.7276,0.69247 0.04,0.0441 0.0875,0.0744 0.15089,0.0744 0.0326,0 0.0641,-0.003 0.0956,-0.007 0.0315,0.004 0.063,0.007 0.0956,0.007 0.0637,0 0.11184,-0.0304 0.15193,-0.0749 0.44369,-0.1926 0.72657,-0.69195 0.72657,-0.69195 0,0 0.44976,2.24946 0.22479,3.26182 -0.20605,0.9272 -1.04664,8.21785 -1.19889,9.54205 -0.15226,-1.3242 -0.99285,-8.61485 -1.1989,-9.54205 -0.22497,-1.01236 0.2248,-3.26182 0.2248,-3.26182 z m -19.73007,0.88625 c 0,0 -1.11312,7.87461 2.70475,12.01064 3.81788,4.13603 5.96514,3.57923 7.15822,5.72678 1.19309,2.14756 1.82934,3.57911 1.82934,3.57911 0,0 2.22748,-8.19233 -0.23823,-11.21482 -2.46571,-3.02248 -6.44283,-5.17039 -8.03361,-6.44302 -1.59078,-1.27263 -3.42047,-3.65869 -3.42047,-3.65869 z m 41.40833,0 c 0,0 -1.82968,2.38606 -3.42046,3.65869 -1.59079,1.27263 -5.56791,3.42054 -8.03362,6.44302 -2.46571,3.02249 -0.23823,11.21482 -0.23823,11.21482 0,0 0.63625,-1.43155 1.82934,-3.57911 1.19308,-2.14755 3.34035,-1.59075 7.15822,-5.72678 3.81787,-4.13603 2.70475,-12.01064 2.70475,-12.01064 z"
       sodipodi:nodetypes="cssscsscccsssccssssccsssscccccssscccssscsssssccccsssscscsscssscscscsccccsssscscscczccscscsssscsccscscscssscsscscssssccccssssscssssccssssccccssssccssssccssscccsscssssssscsscsssssssscssssscscscssccsscscscssssscsssssssscsscsssccccccccccccscssscssccsssccsscssscsscscsccscscscsscscscssssscscsssscssccscsccscsccsscssccsscssc"
       inkscape:export-xdpi="300"
       inkscape:export-ydpi="300" />
    <path
       id="path1049"
       style="fill:#000000;fill-opacity:1;stroke:none;stroke-width:2;stroke-linecap:round;stroke-linejoin:round;stroke-miterlimit:4;stroke-dasharray:none;stroke-opacity:1;paint-order:normal"
       d="m 169.27112,100.4976 -2.30868,3.99874 2.30868,4.03494 2.4331,-4.03494 z m -0.94823,7.46738 a 1.2091241,1.1368895 0 0 0 -0.0326,0.0496 l -21.38471,34.82734 c 0.0434,0.75748 0.10082,1.67622 0.16465,2.37659 0.11271,1.23733 0.22503,0.44991 1.12668,1.34979 0.31347,0.31285 0.556,0.72312 0.76165,1.16014 l 19.427,-31.44459 a 1.0997664,1.0277204 0 0 1 0.92941,-0.5147 1.0997664,1.0277204 0 0 1 0.0347,0 1.0997664,1.0277204 0 0 1 0.002,0 1.0997664,1.0277204 0 0 1 0.92941,0.5147 l 19.427,31.44459 c 0.20565,-0.43702 0.44819,-0.84729 0.76165,-1.16014 0.90166,-0.89988 1.01398,-0.11246 1.12669,-1.34979 0.0638,-0.70037 0.1213,-1.61911 0.16465,-2.37659 l -21.38475,-34.82734 a 1.2091241,1.1368895 0 0 0 -0.0326,-0.0496 l -1.01019,1.56787 z m 0.9786,12.13828 v 5.3e-4 a 1.0355746,0.96773364 0 0 0 -0.86055,0.48421 l -18.44167,29.84985 c 0.23589,1.27318 -0.1036,4.29812 0.90249,5.8043 1.12707,1.68728 4.17013,4.94904 5.86072,6.29884 0.77719,0.62054 1.57068,1.52212 2.20935,2.31976 2.6251,-2.93464 7.55914,-11.61066 10.26546,-11.61066 0.0232,0 0.0434,7.9e-4 0.0642,0.002 v 0.002 c 0.0109,-1.3e-4 0.0213,-2.1e-4 0.0316,-5.3e-4 0.0103,2.7e-4 0.0207,2.7e-4 0.0316,5.3e-4 v -0.002 c 0.0208,-7.9e-4 0.041,-0.002 0.0642,-0.002 2.70632,0 7.64036,8.67602 10.26545,11.61066 0.63868,-0.79764 1.43217,-1.69922 2.20936,-2.31976 1.69059,-1.3498 4.73365,-4.61156 5.86072,-6.29884 1.00609,-1.50618 0.6666,-4.53112 0.90248,-5.8043 l -18.44167,-29.84986 a 1.0355746,0.96773364 0 0 0 -0.86054,-0.48421 v -5.3e-4 a 1.0355746,0.96773364 0 0 0 -0.004,0 1.0355746,0.96773364 0 0 0 -0.0114,0 1.0355746,0.96773364 0 0 0 -0.0331,0 1.0355746,0.96773364 0 0 0 -0.0114,0 1.0355746,0.96773364 0 0 0 -0.004,0 z m 0.0316,7.50084 1.97429,3.23752 -1.97429,3.41323 -1.97428,-3.41323 z m -0.0316,29.08349 v 0.006 c -1.25991,0.0601 -1.55369,1.69323 -9.12997,11.25771 0.014,0.20882 0.0379,0.43009 0.0849,0.66456 0.22541,1.12485 8.11475,13.16044 8.9037,13.16044 0.0578,0 0.11545,-0.0105 0.17293,-0.0222 0.0575,0.0118 0.11518,0.0222 0.17294,0.0222 0.78894,0 8.67829,-12.03559 8.9037,-13.16044 0.047,-0.23447 0.0709,-0.45574 0.0849,-0.66456 -7.57627,-9.56448 -7.87006,-11.19766 -9.12996,-11.25771 v -0.006 c -0.011,7e-5 -0.0207,0.002 -0.0316,0.003 -0.0109,-2.7e-4 -0.0205,-0.003 -0.0316,-0.003 z m -52.94479,35.90685 -22.764588,37.07474 h 2.518985 l -1.126163,1.94665 h 49.124626 l 1.28408,-3.59978 h -44.13325 a 1.0997664,1.0277204 0 0 1 -0.95271,-1.54099 l 19.73145,-31.93758 c -0.34007,-0.44478 -0.85581,-1.0246 -1.48343,-1.40043 -0.60562,-0.36266 -1.49724,-0.49501 -2.199,-0.54261 z m 105.95275,0 c -0.70177,0.0476 -1.59338,0.17995 -2.199,0.54261 -0.62762,0.37583 -1.14336,0.95565 -1.48343,1.40043 l 19.73145,31.93758 a 1.0997664,1.0277204 0 0 1 -0.95271,1.54099 H 193.2725 l 1.28409,3.59978 h 49.12463 l -1.12617,-1.94665 h 2.51899 z m -100.80915,3.97237 -17.16328,27.78073 a 1.0355746,0.96773364 0 0 0 0.89679,1.45108 h 36.73112 c -0.40269,-1.11092 -3.39924,-9.43951 -4.13653,-13.53923 -0.78894,-4.38693 4.0573,-7.98607 4.0573,-7.98607 0,0 -0.78918,10e-6 -3.94494,-0.33745 -3.15576,-0.33745 -5.74814,0 -7.66414,0 -1.916,0 -2.36674,-2.92487 -3.04297,-4.27467 -0.67625,-1.34982 -3.60647,-2.81207 -4.73352,-2.69958 -0.36487,0.0364 -0.70515,-0.14041 -0.99983,-0.39481 z m 95.66555,0 c -0.29468,0.2544 -0.63497,0.43121 -0.99983,0.39481 -1.12705,-0.11249 -4.05728,1.34976 -4.73352,2.69958 -0.67623,1.3498 -1.12698,4.27467 -3.04297,4.27467 -1.916,0 -4.50838,-0.33745 -7.66414,0 -3.15577,0.33746 -3.94495,0.33745 -3.94495,0.33745 0,0 4.84625,3.59914 4.0573,7.98607 -0.73728,4.09972 -3.73383,12.42831 -4.13652,13.53923 h 36.73112 a 1.0355746,0.96773364 0 0 0 0.89679,-1.45108 z m -103.48192,21.56923 h 4.10442 l -2.11201,3.69124 h -4.12772 z m 107.19386,0 h 4.10442 l 2.13532,3.69124 h -4.12772 z m -130.623788,12.0897 -2.241458,3.8747 h 4.871248 l 2.191751,-3.8747 z m 153.337128,0 2.19123,3.8747 h 4.87176 l -2.24145,-3.8747 z"
       inkscape:export-xdpi="300"
       inkscape:export-ydpi="300" />
  </g>
  <g
     inkscape:label="Layer 1"
     inkscape:groupmode="layer"
     id="layer1"
     style="display:none;opacity:0.357616"
     sodipodi:insensitive="true" />
</svg>
