<?xml version="1.0" encoding="UTF-8" standalone="no"?>
<svg
   xmlns:dc="http://purl.org/dc/elements/1.1/"
   xmlns:cc="http://creativecommons.org/ns#"
   xmlns:rdf="http://www.w3.org/1999/02/22-rdf-syntax-ns#"
   xmlns:svg="http://www.w3.org/2000/svg"
   xmlns="http://www.w3.org/2000/svg"
   xmlns:xlink="http://www.w3.org/1999/xlink"
   xmlns:sodipodi="http://sodipodi.sourceforge.net/DTD/sodipodi-0.dtd"
   xmlns:inkscape="http://www.inkscape.org/namespaces/inkscape"
   inkscape:export-ydpi="300"
   inkscape:export-xdpi="300"
   inkscape:export-filename="D:\Titipan\Projects\Codes\Rhodes Wiki Indo\Icon Assets\Lee_B.png"
   width="1280"
   height="1280"
   viewBox="0 0 338.66666 338.66668"
   version="1.1"
   id="svg8"
   inkscape:version="1.0.2 (e86c870879, 2021-01-15, custom)"
   sodipodi:docname="Siracusa_Z.svg">
  <defs
     id="defs2">
    <pattern
       inkscape:collect="always"
       xlink:href="#pattern4166"
       id="pattern4174"
       patternTransform="translate(-51.833686,-17.277895)" />
    <inkscape:path-effect
       end_linecap_type="zerowidth"
       scale_width="1"
       miter_limit="4"
       linejoin_type="extrp_arc"
       start_linecap_type="zerowidth"
       interpolator_beta="0.2"
       interpolator_type="CubicBezierJohan"
       sort_points="true"
       offset_points="0,3.40217"
       lpeversion="1"
       is_visible="true"
       id="path-effect892"
       effect="powerstroke" />
    <inkscape:path-effect
       end_linecap_type="zerowidth"
       scale_width="1"
       miter_limit="4"
       linejoin_type="extrp_arc"
       start_linecap_type="zerowidth"
       interpolator_beta="0.2"
       interpolator_type="CubicBezierJohan"
       sort_points="true"
       offset_points="0,3.40217"
       lpeversion="1"
       is_visible="true"
       id="path-effect887"
       effect="powerstroke" />
    <inkscape:path-effect
       end_linecap_type="zerowidth"
       scale_width="1"
       miter_limit="4"
       linejoin_type="extrp_arc"
       start_linecap_type="zerowidth"
       interpolator_beta="0.2"
       interpolator_type="CubicBezierJohan"
       sort_points="true"
       offset_points="2.7941224,-3.4021738 | 2.7941224,-3.4021738"
       lpeversion="1"
       is_visible="true"
       id="path-effect882"
       effect="powerstroke" />
    <inkscape:path-effect
       end_linecap_type="zerowidth"
       scale_width="1"
       miter_limit="4"
       linejoin_type="extrp_arc"
       start_linecap_type="zerowidth"
       interpolator_beta="0.2"
       interpolator_type="CubicBezierJohan"
       sort_points="true"
       offset_points="0,3.01003"
       lpeversion="1"
       is_visible="true"
       id="path-effect877"
       effect="powerstroke" />
    <inkscape:path-effect
       end_linecap_type="zerowidth"
       scale_width="1"
       miter_limit="4"
       linejoin_type="extrp_arc"
       start_linecap_type="zerowidth"
       interpolator_beta="0.2"
       interpolator_type="CubicBezierJohan"
       sort_points="true"
       offset_points="0,3.01003"
       lpeversion="1"
       is_visible="true"
       id="path-effect872"
       effect="powerstroke" />
    <inkscape:path-effect
       end_linecap_type="zerowidth"
       scale_width="1"
       miter_limit="4"
       linejoin_type="extrp_arc"
       start_linecap_type="zerowidth"
       interpolator_beta="0.2"
       interpolator_type="CubicBezierJohan"
       sort_points="true"
       offset_points="11.631982,3.0100329"
       lpeversion="1"
       is_visible="true"
       id="path-effect868"
       effect="powerstroke" />
    <inkscape:path-effect
       end_linecap_type="zerowidth"
       scale_width="1"
       miter_limit="4"
       linejoin_type="extrp_arc"
       start_linecap_type="zerowidth"
       interpolator_beta="0.2"
       interpolator_type="CubicBezierJohan"
       sort_points="true"
       offset_points="156.61386,0.938298"
       lpeversion="1"
       is_visible="true"
       id="path-effect864"
       effect="powerstroke" />
    <pattern
       patternUnits="userSpaceOnUse"
       width="34.555802"
       height="34.555802"
       patternTransform="translate(697.97451,522.68951)"
       id="pattern4166">
      <circle
         r="5.0119109"
         cy="17.277901"
         cx="5.0119109"
         id="path4156"
         style="opacity:1;fill:#000000;fill-opacity:1;stroke:none;stroke-width:2.83465;stroke-miterlimit:4;stroke-dasharray:none;stroke-opacity:1" />
      <circle
         style="opacity:1;fill:#000000;fill-opacity:1;stroke:none;stroke-width:2.83465;stroke-miterlimit:4;stroke-dasharray:none;stroke-opacity:1"
         id="circle4160"
         cx="29.543892"
         cy="17.277901"
         r="5.0119109" />
      <circle
         style="opacity:1;fill:#000000;fill-opacity:1;stroke:none;stroke-width:2.83465;stroke-miterlimit:4;stroke-dasharray:none;stroke-opacity:1"
         id="circle4162"
         cx="17.277901"
         cy="29.543892"
         r="5.0119109" />
      <circle
         r="5.0119109"
         cy="5.0119109"
         cx="17.277901"
         id="circle4164"
         style="opacity:1;fill:#000000;fill-opacity:1;stroke:none;stroke-width:2.83465;stroke-miterlimit:4;stroke-dasharray:none;stroke-opacity:1" />
    </pattern>
    <pattern
       patternUnits="userSpaceOnUse"
       width="48.869282"
       height="48.869282"
       patternTransform="translate(690.81773,515.53278)"
       id="pattern4176">
      <rect
         id="rect4172"
         y="-17.277901"
         x="-51.833702"
         height="34.555801"
         width="34.555801"
         transform="rotate(-135)"
         style="display:inline;fill:url(#pattern4174);stroke:none;stroke-width:0.999999" />
    </pattern>
  </defs>
  <sodipodi:namedview
     inkscape:snap-bbox-midpoints="false"
     inkscape:snap-bbox="false"
     inkscape:snap-midpoints="true"
     inkscape:guide-bbox="true"
     showguides="true"
     inkscape:snap-global="false"
     id="base"
     pagecolor="#910000"
     bordercolor="#666666"
     borderopacity="1.0"
     inkscape:pageopacity="0"
     inkscape:pageshadow="2"
     inkscape:zoom="0.56296874"
     inkscape:cx="602.57943"
     inkscape:cy="611.55439"
     inkscape:document-units="mm"
     inkscape:current-layer="layer1"
     inkscape:document-rotation="0"
     showgrid="false"
     units="px"
     inkscape:pagecheckerboard="false" />
  <metadata
     id="metadata5">
    <rdf:RDF>
      <cc:Work
         rdf:about="">
        <dc:format>image/svg+xml</dc:format>
        <dc:type
           rdf:resource="http://purl.org/dc/dcmitype/StillImage" />
        <dc:title />
      </cc:Work>
    </rdf:RDF>
  </metadata>
  <g
     style="display:inline"
     inkscape:groupmode="layer"
     id="layer3"
     inkscape:label="Objects">
    <path
       id="path1066"
       style="fill:#000000;fill-opacity:1;stroke:none;stroke-width:7.55906;stroke-linecap:round;stroke-linejoin:round;stroke-miterlimit:4;stroke-dasharray:none;stroke-opacity:1;paint-order:normal"
       d="m 370.36328,502.63672 c 0,0 12.02602,28.86036 13.22852,37.8789 0.12503,0.93776 0.20462,2.07093 0.25976,3.30665 l 35.66211,19.08984 c -11.28932,-27.23997 -49.15039,-60.27539 -49.15039,-60.27539 z m 526.07031,5.26953 c -0.32133,-0.62 -5.52638,24.68049 -9.60351,39.82422 -1.98726,7.38121 -4.63623,15.02492 -7.07813,22.5625 8.70973,-4.33934 30.67746,-15.39108 36.66797,-18.40625 -8.30134,-20.63259 -19.9707,-42.16178 -19.9707,-43.83789 0,-0.0752 -0.005,-0.12258 -0.0156,-0.14258 z M 383.57227,562.9375 c -0.2933,8.84412 -0.56786,18.33207 0.0195,25.67578 1.20249,15.03099 19.23828,45.69531 19.23828,45.69531 0,0 2e-5,3.00648 -3.60742,11.42383 -3.60745,8.41735 -5.41016,37.27735 -5.41016,37.27735 0,0 -2.40464,-11.4241 0.60156,-19.24024 3.0062,-7.8161 -3.60742,-30.66406 -3.60742,-30.66406 l -4.20898,12.02539 c 0,0 -3.60838,-9.01919 -9.01954,-12.02539 -5.41111,-3.0062 -10.221,-0.6013 -14.42968,7.21484 -4.20868,7.8161 -1.20117,16.23438 -1.20117,16.23438 l -18.63868,1.80273 c 0,0 1.80401,1.80367 7.81641,10.82227 6.0124,9.01859 14.42864,7.21616 27.05469,6.01367 12.62604,-1.2025 13.82812,24.65039 13.82812,24.65039 l 1.20313,4.81055 4.81054,35.47265 c 0,0 -6.0133,-4.20994 -12.62695,-9.62109 -6.61364,-5.41119 -22.24542,-9.61846 -35.47265,-15.63086 -13.22729,-6.0124 -25.85352,-18.63867 -25.85352,-18.63867 0,0 25.85342,66.73657 43.89062,88.98242 18.03719,22.24592 51.10547,21.64648 51.10547,21.64648 0,0 0.60123,1.80238 3.60743,8.41602 3.00614,6.61364 10.82226,18.63867 10.82226,18.63867 l -10.82226,-3.60742 c 0,0 3.3e-4,-1.80303 -3.00586,-6.01172 -3.0062,-4.20865 -8.4176,-11.42383 -22.2461,-11.42383 -13.82853,0 -19.24034,16.8336 2.4043,27.05469 21.64463,10.22105 21.64453,-1.80273 21.64453,-1.80273 0,0 10e-4,0.60024 6.01367,1.80273 6.01244,1.20246 12.625,6.01367 12.625,6.01367 0,0 3.00748,4.2073 6.01367,12.02344 3.0062,7.8161 11.42188,15.03125 11.42188,15.03125 0,0 -18.03704,-1.20178 -28.85938,-6.01172 -10.82233,-4.80994 -40.2832,-20.4414 -40.2832,-20.4414 0,0 3.00617,10.22002 10.82227,16.23242 7.81613,6.01239 23.44922,13.82812 23.44922,13.82812 0,0 -10.22162,3.6074 -22.84766,7.21485 -12.62604,3.60744 -43.28906,16.23437 -43.28906,16.23437 0,0 12.02463,3.60673 28.85937,6.01172 16.8347,2.40495 29.46019,12.62563 46.29492,13.82812 16.83474,1.20246 25.25251,-13.22622 44.49219,-16.23242 19.23969,-3.0062 34.27148,8.41797 34.27148,8.41797 0,0 -18.63895,-9.7e-4 -30.0625,1.80274 -11.42349,1.80374 -30.0625,11.42382 -30.0625,11.42382 0,0 15.63306,4.80923 27.05665,6.01172 11.42354,1.20246 20.4423,-4.2083 29.46093,-10.2207 9.0186,-6.0124 16.23242,-4.81055 16.23242,-4.81055 0,0 8.41912,5.41206 39.6836,12.62696 31.26448,7.21485 57.71875,11.42382 57.71875,11.42382 0,0 -24.6513,3.00552 -37.27735,6.01172 -12.62599,3.0062 -44.49218,13.82813 -44.49218,13.82813 l 26.45508,10.22265 c 0,0 13.22645,-10.22131 34.87109,-15.03125 21.64467,-4.8099 58.32031,-12.02539 58.32031,-12.02539 0,0 12.62741,2.40589 46.29688,9.01953 33.66943,6.61365 39.68164,18.03711 39.68164,18.03711 l 24.04883,-10.22265 c 0,0 -12.02437,-7.21385 -24.65039,-12.625 -12.62605,-5.41119 -47.49805,-11.42383 -47.49805,-11.42383 0,0 15.03054,-1.20178 31.86523,-6.01172 16.83474,-4.8099 32.4668,-11.42383 32.4668,-11.42383 0,0 33.06828,16.83463 51.10547,21.64453 18.03723,4.80991 64.33294,-18.63799 76.95898,-24.65039 12.62604,-6.01239 26.45508,-12.62695 26.45508,-12.62695 0,0 -6.01295,-1.80435 -19.24023,-4.81055 -13.22729,-3.0062 -48.09961,-6.61328 -48.09961,-6.61328 0,0 3.60861,-1.80235 27.6582,-12.02344 24.04963,-10.22109 35.47266,-40.88476 35.47266,-40.88476 0,0 -27.05589,16.23206 -43.89063,22.8457 -16.83473,6.61365 -27.65625,32.46875 -27.65625,32.46875 0,0 -7.21578,0.59993 -16.23437,1.20117 -9.0186,0.60125 -27.05664,7.21485 -27.05664,7.21485 0,0 15.63336,-10.21998 34.87304,-23.44727 19.23969,-13.22729 41.48628,-37.87818 48.70117,-51.10547 7.2149,-13.22729 21.64454,-12.02539 21.64454,-12.02539 0,0 -1.804,-6.8e-4 3.00585,6.01172 4.80995,6.0124 19.24019,3.6088 26.45508,-12.02344 7.21489,-15.63224 -7.21578,-19.23992 -16.23437,-18.63867 -9.0186,0.60125 -12.62695,19.24024 -12.62695,19.24024 l -13.82813,1.80273 9.01953,-30.0625 21.64453,-15.63086 22.2461,-19.24023 c 22.24588,-19.23969 15.63086,-108.22266 15.63086,-108.22266 0,0 -15.63175,25.8534 -31.86524,43.89063 -16.23349,18.03719 -18.63867,40.28125 -18.63867,40.28125 0,0 -1.20281,-27.05565 -0.60156,-32.4668 0.60124,-5.41115 16.23437,-41.48438 16.23437,-41.48438 0,0 10.82222,-4.20864 18.03711,-7.21484 7.21489,-3.0062 19.8418,-21.04297 19.8418,-21.04297 l -6.61524,1.20117 c 0,0 2.40626,-9.61976 -4.80859,-18.03711 -7.21489,-8.41734 -22.84766,9.01953 -22.84766,9.01953 0,0 2.40432,-13.82865 -1.20312,-36.67578 -0.23069,-1.46104 -0.54735,-3.00694 -0.93359,-4.61914 l -48.42774,32.50196 c 4.52388,17.39879 20.06098,44.31265 23.50781,52.68359 4.2087,10.22109 2.40625,20.44141 2.40625,20.44141 l -19.84179,-29.46094 c 0,0 1.20277,-7.21448 0.60156,-13.82813 -0.60125,-6.61364 -7.81602,-13.82812 -18.03711,-13.82812 -10.22109,0 -9.01953,22.24609 -9.01953,22.24609 l -7.21485,0.59961 c 0,0 7.8164,13.22818 15.03125,16.23438 7.2149,3.0062 17.43651,1.20211 22.84766,3.00586 5.41119,1.8037 13.22688,25.25223 13.82813,36.67578 0.57667,10.95669 -8.59176,70.30957 -9.35938,75.25586 0.78692,-5.44914 2.82469,-24.81573 -3.26562,-51.20703 -7.2149,-31.26448 -36.67579,-67.3379 -36.67579,-67.3379 0,0 1.80406,22.24571 0.60157,32.4668 -1.20246,10.22109 -10.22201,27.65776 -5.41211,52.3086 4.8099,24.65087 34.27148,73.35156 34.27148,73.35156 0,0 -5.41271,7.81438 -10.22265,18.63672 -4.80991,10.8223 -21.64454,19.24023 -21.64454,19.24023 0,0 13.82844,-19.24019 14.42969,-26.45508 0.60121,-7.21489 -9.01758,-32.46679 -9.01758,-32.46679 0,0 -2.40559,9.01849 -4.81054,21.64453 -2.40495,12.62604 -1.80368,37.27767 -3.60743,41.48633 -1.80365,4.20869 -34.87109,23.44921 -34.87109,23.44921 0,0 4.80919,-8.41883 16.83399,-28.25976 12.02479,-19.84093 4.81057,-43.28966 1.20312,-55.31445 -3.60745,-12.0248 -6.01172,-44.49024 -6.01172,-44.49024 0,0 -25.25349,47.49821 -39.08203,76.95899 -13.8285,29.46077 10.2207,61.92773 10.2207,61.92773 0,0 -1.20237,1.20112 -18.03711,8.41602 -16.83473,7.21489 -38.47851,13.22851 -38.47851,13.22851 0,0 21.04422,-15.0324 30.66406,-39.08203 9.61984,-24.04959 -21.04492,-52.9082 -21.04492,-52.9082 0,0 -22.84669,58.9218 -24.65039,69.74414 -1.80374,10.8223 3.60742,25.25195 3.60742,25.25195 0,0 -57.11775,16.83399 -69.14258,16.83399 -10.50274,0 -70.8323,-10.50041 -86.67578,-13.28711 -1.12516,-3.0027 -2.61674,-7.18214 -4.11133,-11.96485 -3.0062,-9.6198 10.82191,-12.02521 17.43555,-44.49219 6.61364,-32.46693 -46.29492,-91.38867 -46.29492,-91.38867 0,0 1.80372,7.8176 3.60742,31.86719 1.80374,24.04959 -9.01789,18.6375 -9.61914,56.51563 -0.44672,28.14452 16.3505,47.96737 25.02148,56.30859 -4.25259,-1.29618 -10.20227,-3.30817 -17.80664,-6.40625 -16.23348,-6.61365 -25.85353,-12.02376 -29.46093,-19.83984 -3.60749,-7.81611 -0.60157,-30.66407 -0.60157,-30.66407 0,0 3.60676,6.0131 13.22657,-9.61914 9.61984,-15.63224 -4.20766,-24.65106 -12.625,-25.85351 -8.41739,-1.2025 -12.02539,17.43554 -12.02539,17.43554 l -6.01172,-3.00586 c 0,0 -0.002,0.60094 0.59961,6.61328 0.60124,6.0124 12.62695,17.43555 12.62695,17.43555 0,0 -1.20149,4.81079 -1.80274,16.23438 -0.60121,11.42354 3.60743,17.43554 3.60743,17.43554 L 496.625,890.4375 c 0,0 -0.6012,-0.60284 -7.21484,-6.61523 -6.61365,-6.0124 -19.8418,-18.03711 -19.8418,-18.03711 0,0 13.82906,-24.64959 22.84766,-55.91407 9.01859,-31.26447 -14.42969,-86.58007 -14.42969,-86.58007 0,0 -6.01233,12.02529 -10.82227,26.45507 -4.80994,14.42975 -10.22227,27.05524 -20.44336,46.29493 -10.22105,19.23968 10.82227,54.11328 10.82227,54.11328 0,0 -3.60738,-6.61391 -10.82227,-15.03125 -7.21485,-8.41739 -24.65039,-48.09961 -24.65039,-48.09961 0,0 6.61352,-7.81664 25.25196,-26.45508 18.63843,-18.63844 25.25226,-55.91495 25.85351,-72.14844 0.60125,-16.23348 -5.41016,-55.91601 -5.41016,-55.91601 0,0 -10.82288,18.63826 -19.24023,32.46679 -8.41739,13.82854 -23.44791,24.05005 -28.25781,44.49219 -4.80994,20.44218 1.20117,71.54883 1.20117,71.54883 0,0 -3.60611,-15.03118 -8.41602,-25.85352 -4.80994,-10.82233 -15.63281,-67.9414 -15.63281,-67.9414 0,0 -1.20216,1.20348 4.20899,-5.41016 5.41118,-6.61364 28.859,-24.04913 42.6875,-31.86523 6.08419,-3.4389 13.09566,-18.63285 19.04492,-34.57227 L 436.88477,597.9707 c -9.19699,7.27961 -20.22461,18.30078 -20.22461,18.30078 0,0 4.62065,-8.47106 5.77734,-27.79492 z m 93.21093,10.64648 c 0,0 -8.69421,5.32891 -17.53125,10.59961 l 12.4336,6.6543 c 3.11943,-10.00467 5.09765,-17.25391 5.09765,-17.25391 z m 443.56446,51.55469 c 0,0 1.2041,5.41107 3.00781,7.06445 1.80374,1.65343 2.85547,1.35352 2.85547,1.35352 l -21.04297,45.24414 -0.30078,-8.71875 z m 7.06445,11.875 h 2.55664 c 1.95417,0 1.80273,1.95508 1.80273,1.95508 l -7.51562,6.91406 z m -539.01172,22.84766 1.20313,15.03125 -4.81055,-12.92774 z"
       transform="scale(0.26458333)" />
    <path
       id="path850"
       style="fill:#000000;fill-opacity:1;stroke-width:0.499999;stroke-linecap:round;stroke-linejoin:round"
       d="m 130.4034,74.844 c 0,0 6.22717,19.269167 8.69456,22.441524 2.46739,3.172356 10.10485,8.812256 11.04481,12.102106 0.93996,3.28985 -0.58763,22.3239 1.05729,25.73124 1.64493,3.40735 15.39197,14.92203 15.62696,16.56695 0.23499,1.64493 0.23513,5.63945 0.23513,5.63945 l 6.72827,6.59391 -3.79099,-5.65392 v -7.75456 c 0,0 -12.92464,-13.5118 -13.98209,-17.38912 -1.05745,-3.87733 0.7052,-21.03176 -0.46973,-23.61665 -1.17496,-2.58488 -2.82029,-5.16987 -5.52267,-7.63726 -2.70237,-2.467384 -7.16693,-4.934362 -8.81186,-7.636739 C 139.56816,91.528553 130.4034,74.844 130.4034,74.844 Z m 43.38702,89.07518 6.72878,-6.59391 c 0,0 1.4e-4,-3.99452 0.23513,-5.63945 0.23499,-1.64492 13.98203,-13.1596 15.62696,-16.56695 1.64492,-3.40734 0.11734,-22.44139 1.0573,-25.73124 0.93996,-3.28985 8.57689,-8.92975 11.04428,-12.102106 2.46739,-3.172357 8.69456,-22.441524 8.69456,-22.441524 0,0 -9.16424,16.684553 -10.80916,19.386931 -1.64493,2.702377 -6.11001,5.169355 -8.81238,7.636739 -2.70238,2.46739 -4.34719,5.05238 -5.52214,7.63726 -1.17494,2.58489 0.58771,19.73932 -0.46974,23.61665 -1.05745,3.87732 -13.98209,17.38912 -13.98209,17.38912 v 7.75456 z M 154.48979,79.779098 c 0,0 -1.17468,7.167015 0.47025,10.691855 1.64493,3.52484 2.58462,4.112384 3.0546,6.697265 0.46998,2.584884 -0.70484,6.461872 0.23513,9.516732 0.93995,3.05486 9.28212,15.50965 9.28212,15.50965 l -2.23243,-9.75238 c 0,0 -3.52498,-4.34699 -3.75997,-6.93187 -0.23499,-2.58489 1.17503,-8.342433 0.58756,-11.044808 -0.58748,-2.70238 -7.63726,-14.686444 -7.63726,-14.686444 z m 38.60126,0 c 0,0 -7.04926,11.984064 -7.63674,14.686444 -0.58747,2.702375 0.82203,8.459918 0.58704,11.044808 -0.23499,2.58488 -3.75946,6.93187 -3.75946,6.93187 l -2.23242,9.75238 c 0,0 8.34216,-12.45479 9.28212,-15.50965 0.93996,-3.05486 -0.23537,-6.931848 0.23461,-9.516732 0.46998,-2.584881 1.41018,-3.172425 3.05511,-6.697265 1.64493,-3.52484 0.46974,-10.691855 0.46974,-10.691855 z m -66.44711,7.167004 c 0,0 1.87979,14.921718 3.28972,18.681548 1.40994,3.75983 4.46485,11.51454 4.46485,11.51454 0,0 -1.17489,-4.93488 -1.64486,-7.63726 -0.46998,-2.70238 -0.11783,-4.93458 -0.11783,-4.93458 0,0 7.4024,6.22725 9.16482,9.28212 1.76242,3.05486 6.1097,11.74915 6.1097,11.74915 0,0 -0.11775,-10.57455 -1.76268,-14.09939 -1.64493,-3.52484 -15.274,-15.978873 -15.274,-15.978873 z m 94.29347,0 -4.22971,8.577255 c 0,0 -13.62959,12.454033 -15.27452,15.978873 -1.64493,3.52484 -1.76217,14.09939 -1.76217,14.09939 0,0 4.34728,-8.69429 6.1097,-11.74915 1.76242,-3.05487 9.1643,-9.28212 9.1643,-9.28212 0,0 0.35268,2.2322 -0.1173,4.93458 -0.46997,2.70238 -1.64487,7.63726 -1.64487,7.63726 0,0 3.05491,-7.75471 4.46485,-11.51454 1.40993,-3.75983 3.28972,-18.681548 3.28972,-18.681548 z m -111.80041,8.69456 10.92698,8.811868 c 0,0 2.93769,12.80727 4.9351,15.50965 1.99741,2.70238 18.79885,14.92157 18.79885,14.92157 0,0 -9.39957,-9.39935 -13.1594,-17.154 -3.75983,-7.75465 -4.46484,-16.56694 -4.46484,-16.56694 z m 129.30735,0 -17.03668,5.522148 c 0,0 -0.70502,8.81229 -4.46485,16.56694 -3.75983,7.75465 -13.1594,17.154 -13.1594,17.154 0,0 16.80144,-12.21919 18.79885,-14.92157 1.99741,-2.70238 4.9351,-15.50965 4.9351,-15.50965 z m -125.7825,26.906368 c 0,0 6.46198,14.68661 15.86156,20.67884 9.39957,5.99223 11.74968,7.9897 11.74968,7.9897 0,0 -2.70259,-11.04445 -6.9324,-13.51184 -4.22981,-2.46739 -9.63447,-4.11239 -12.57184,-6.69727 -2.93737,-2.58488 -8.107,-8.45943 -8.107,-8.45943 z m 122.25765,0 c 0,0 -5.17014,5.87455 -8.10751,8.45943 -2.93737,2.58488 -8.34203,4.22988 -12.57185,6.69727 -4.22981,2.46739 -6.93187,13.51184 -6.93187,13.51184 0,0 2.34958,-1.99747 11.74915,-7.9897 9.39958,-5.99223 15.86208,-20.67884 15.86208,-20.67884 z m -94.52911,15.50913 3.8778,8.22482 2.46703,2.1146 0.78962,2.94659 1.55959,0.90021 2.95693,5.12165 8.32352,5.95364 c 0,0 -0.35285,-1.29274 -1.05782,-2.70268 -0.70496,-1.40994 -1.29242,-2.93729 -1.29242,-2.93729 l -5.32526,-3.07475 -2.19418,-5.14955 c 0,0 3.99479,1.29241 6.1097,2.58485 2.1149,1.29244 3.87729,2.70216 3.87729,2.70216 0,0 0.35265,4.2297 1.17512,5.52215 0.82246,1.29244 1.29243,0.93999 1.29243,0.93999 l -0.23513,1.9973 3.64215,4.93509 v -2.70267 l -1.07797,-1.86759 v -8.00158 c 0,0 -5.8542,-4.58266 -8.55658,-5.87509 -2.70238,-1.29245 -5.75696,-1.99722 -9.1643,-4.93458 -3.40735,-2.93737 -7.16752,-6.69727 -7.16752,-6.69727 z m 66.80006,0 c 0,0 -3.75966,3.7599 -7.16701,6.69727 -3.40734,2.93736 -6.46243,3.64213 -9.16481,4.93458 -2.70238,1.29243 -8.55607,5.87509 -8.55607,5.87509 v 8.00158 l -1.07849,1.86759 v 2.70267 l 3.64268,-4.93509 -0.23513,-1.9973 c 0,0 0.46996,0.35245 1.29242,-0.93999 0.82247,-1.29245 1.17513,-5.52215 1.17513,-5.52215 0,0 1.76238,-1.40972 3.87728,-2.70216 2.11491,-1.29244 6.1097,-2.58485 6.1097,-2.58485 l -2.19418,5.14955 -5.32577,3.07475 c 0,0 -0.58746,1.52735 -1.29243,2.93729 -0.70496,1.40994 -1.0573,2.70268 -1.0573,2.70268 l 8.32301,-5.95364 2.95692,-5.12165 1.56011,-0.90021 0.78962,-2.94659 2.46703,-2.1146 z m -89.12376,3.75998 c 0,0 11.04451,7.9897 11.86697,11.51454 0.82247,3.52484 0.70487,7.51944 0.70487,7.51944 l 1.64486,1.52755 c 0,0 -8.92969,-3.52491 -12.45453,-5.40483 -3.52484,-1.87991 -9.047,-4.93459 -9.047,-4.93459 0,0 17.38954,12.45433 21.61935,13.86427 4.22981,1.40994 5.87458,1.9973 5.87458,1.9973 0,0 -1.64491,-0.70469 -1.29243,-4.34702 0.35249,-3.64234 1.17501,-8.57725 -1.64486,-9.86969 -2.81987,-1.29243 -17.27181,-11.86697 -17.27181,-11.86697 z m 111.44797,0 c 0,0 -14.45194,10.57454 -17.27181,11.86697 -2.81987,1.29244 -1.99735,6.22735 -1.64486,9.86969 0.35248,3.64233 -1.29243,4.34702 -1.29243,4.34702 0,0 1.64477,-0.58736 5.87458,-1.9973 4.22981,-1.40994 21.61935,-13.86427 21.61935,-13.86427 0,0 -5.52267,3.05468 -9.04751,4.93459 -3.52484,1.87992 -12.45402,5.40483 -12.45402,5.40483 l 1.64486,-1.52755 c 0,0 -0.1176,-3.9946 0.70487,-7.51944 0.82246,-3.52484 11.86697,-11.51454 11.86697,-11.51454 z m -89.35888,19.62154 3.28972,3.28972 c 0,0 9.86942,0.46999 11.63185,3.52485 1.76241,3.05486 -2.1146,13.39453 -2.1146,13.39453 l 1.99729,5.05241 c 0,0 4.2299,3.52455 4.11241,5.63945 -0.1175,2.11491 -1.05781,4.11241 -1.05781,4.11241 l 4.9351,3.64215 2.70216,3.99511 h 3.52484 l 4.61368,-5.28754 -7.55096,1.41025 -7.16701,-4.22971 c 0,0 2.23238,-4.81744 1.29243,-7.28483 -0.93996,-2.46739 -4.4647,-5.63965 -4.22971,-9.04699 0.23498,-3.40735 6.10925,-9.047 4.46432,-12.57184 -1.64492,-3.52484 -6.3446,-1.76253 -10.33942,-2.81999 -3.99482,-1.05745 -10.10429,-2.81998 -10.10429,-2.81998 z m 33.63464,37.36309 4.61419,5.28754 h 3.52485 l 2.70216,-3.99511 4.93458,-3.64215 c 0,0 -0.9398,-1.9975 -1.0573,-4.11241 -0.11749,-2.1149 4.11241,-5.63945 4.11241,-5.63945 l 1.99729,-5.05241 c 0,0 -3.87701,-10.33967 -2.1146,-13.39453 1.76243,-3.05486 11.63185,-3.52485 11.63185,-3.52485 l 3.28972,-3.28972 c 0,0 -6.10947,1.76253 -10.10429,2.81998 -3.99482,1.05746 -8.69502,-0.70485 -10.33994,2.81999 -1.64493,3.52484 4.22986,9.16449 4.46485,12.57184 0.23499,3.40734 -3.28976,6.5796 -4.22972,9.04699 -0.93995,2.46739 1.29243,7.28483 1.29243,7.28483 l -7.16701,4.22971 z m -10.60607,-32.66312 -0.70487,9.75186 6.69726,13.98209 4.61368,1.76217 -0.61857,-4.81728 c 0,0 -2.70237,-1.29258 -4.81728,-3.75997 -2.1149,-2.46738 -3.17273,-3.87688 -3.29023,-6.69675 -0.11749,-2.81987 1.17512,-6.22753 1.17512,-6.22753 z m 10.60607,25.49612 4.61419,-1.76217 6.69674,-13.98209 -0.70486,-9.75186 -3.0546,3.99459 c 0,0 1.2921,3.40766 1.17461,6.22753 -0.1175,2.81987 -1.17482,4.22937 -3.28972,6.69675 -2.11491,2.46739 -4.81728,3.75997 -4.81728,3.75997 z m -32.92977,-24.79125 4.46484,11.04428 5.63945,2.46756 c 0,0 4.81727,-10.22229 1.29243,-11.39724 -3.52484,-1.17495 -11.39672,-2.1146 -11.39672,-2.1146 z m 65.86006,0 c 0,0 -7.8724,0.93965 -11.39724,2.1146 -3.52484,1.17495 1.29243,11.39724 1.29243,11.39724 l 5.63996,-2.46756 z m -47.64826,33.83824 -1.29242,10.80968 5.99188,5.9924 -0.82217,-4.81728 2.46703,-5.0524 -4.1119,-5.9924 z m 29.43645,0 -2.23242,0.94 -4.11241,5.9924 2.46755,5.0524 -0.82269,4.81728 5.9924,-5.9924 z m -14.71848,1.05782 -7.78609,10.80916 5.0524,24.55664 2.73369,3.28972 2.7342,-3.28972 5.0524,-24.55664 z" />
  </g>
  <g
     inkscape:label="Layer 1"
     inkscape:groupmode="layer"
     id="layer1"
     style="display:inline;opacity:0.357616"
     sodipodi:insensitive="true" />
</svg>
