<?xml version="1.0" encoding="UTF-8" standalone="no"?>
<svg
   xmlns:dc="http://purl.org/dc/elements/1.1/"
   xmlns:cc="http://creativecommons.org/ns#"
   xmlns:rdf="http://www.w3.org/1999/02/22-rdf-syntax-ns#"
   xmlns:svg="http://www.w3.org/2000/svg"
   xmlns="http://www.w3.org/2000/svg"
   xmlns:xlink="http://www.w3.org/1999/xlink"
   xmlns:sodipodi="http://sodipodi.sourceforge.net/DTD/sodipodi-0.dtd"
   xmlns:inkscape="http://www.inkscape.org/namespaces/inkscape"
   inkscape:export-ydpi="300"
   inkscape:export-xdpi="300"
   inkscape:export-filename="D:\Titipan\Projects\Codes\Rhodes Wiki Indo\Icon Assets\Lee_B.png"
   width="1280"
   height="1280"
   viewBox="0 0 338.66666 338.66668"
   version="1.1"
   id="svg8"
   inkscape:version="1.0.2 (e86c870879, 2021-01-15, custom)"
   sodipodi:docname="Sui_Z.svg">
  <defs
     id="defs2">
    <pattern
       inkscape:collect="always"
       xlink:href="#pattern4166"
       id="pattern4174"
       patternTransform="translate(-51.833686,-17.277895)" />
    <inkscape:path-effect
       end_linecap_type="zerowidth"
       scale_width="1"
       miter_limit="4"
       linejoin_type="extrp_arc"
       start_linecap_type="zerowidth"
       interpolator_beta="0.2"
       interpolator_type="CubicBezierJohan"
       sort_points="true"
       offset_points="0,3.40217"
       lpeversion="1"
       is_visible="true"
       id="path-effect892"
       effect="powerstroke" />
    <inkscape:path-effect
       end_linecap_type="zerowidth"
       scale_width="1"
       miter_limit="4"
       linejoin_type="extrp_arc"
       start_linecap_type="zerowidth"
       interpolator_beta="0.2"
       interpolator_type="CubicBezierJohan"
       sort_points="true"
       offset_points="0,3.40217"
       lpeversion="1"
       is_visible="true"
       id="path-effect887"
       effect="powerstroke" />
    <inkscape:path-effect
       end_linecap_type="zerowidth"
       scale_width="1"
       miter_limit="4"
       linejoin_type="extrp_arc"
       start_linecap_type="zerowidth"
       interpolator_beta="0.2"
       interpolator_type="CubicBezierJohan"
       sort_points="true"
       offset_points="2.7941224,-3.4021738 | 2.7941224,-3.4021738"
       lpeversion="1"
       is_visible="true"
       id="path-effect882"
       effect="powerstroke" />
    <inkscape:path-effect
       end_linecap_type="zerowidth"
       scale_width="1"
       miter_limit="4"
       linejoin_type="extrp_arc"
       start_linecap_type="zerowidth"
       interpolator_beta="0.2"
       interpolator_type="CubicBezierJohan"
       sort_points="true"
       offset_points="0,3.01003"
       lpeversion="1"
       is_visible="true"
       id="path-effect877"
       effect="powerstroke" />
    <inkscape:path-effect
       end_linecap_type="zerowidth"
       scale_width="1"
       miter_limit="4"
       linejoin_type="extrp_arc"
       start_linecap_type="zerowidth"
       interpolator_beta="0.2"
       interpolator_type="CubicBezierJohan"
       sort_points="true"
       offset_points="0,3.01003"
       lpeversion="1"
       is_visible="true"
       id="path-effect872"
       effect="powerstroke" />
    <inkscape:path-effect
       end_linecap_type="zerowidth"
       scale_width="1"
       miter_limit="4"
       linejoin_type="extrp_arc"
       start_linecap_type="zerowidth"
       interpolator_beta="0.2"
       interpolator_type="CubicBezierJohan"
       sort_points="true"
       offset_points="11.631982,3.0100329"
       lpeversion="1"
       is_visible="true"
       id="path-effect868"
       effect="powerstroke" />
    <inkscape:path-effect
       end_linecap_type="zerowidth"
       scale_width="1"
       miter_limit="4"
       linejoin_type="extrp_arc"
       start_linecap_type="zerowidth"
       interpolator_beta="0.2"
       interpolator_type="CubicBezierJohan"
       sort_points="true"
       offset_points="156.61386,0.938298"
       lpeversion="1"
       is_visible="true"
       id="path-effect864"
       effect="powerstroke" />
    <pattern
       patternUnits="userSpaceOnUse"
       width="34.555802"
       height="34.555802"
       patternTransform="translate(697.97451,522.68951)"
       id="pattern4166">
      <circle
         r="5.0119109"
         cy="17.277901"
         cx="5.0119109"
         id="path4156"
         style="opacity:1;fill:#000000;fill-opacity:1;stroke:none;stroke-width:2.83465;stroke-miterlimit:4;stroke-dasharray:none;stroke-opacity:1" />
      <circle
         style="opacity:1;fill:#000000;fill-opacity:1;stroke:none;stroke-width:2.83465;stroke-miterlimit:4;stroke-dasharray:none;stroke-opacity:1"
         id="circle4160"
         cx="29.543892"
         cy="17.277901"
         r="5.0119109" />
      <circle
         style="opacity:1;fill:#000000;fill-opacity:1;stroke:none;stroke-width:2.83465;stroke-miterlimit:4;stroke-dasharray:none;stroke-opacity:1"
         id="circle4162"
         cx="17.277901"
         cy="29.543892"
         r="5.0119109" />
      <circle
         r="5.0119109"
         cy="5.0119109"
         cx="17.277901"
         id="circle4164"
         style="opacity:1;fill:#000000;fill-opacity:1;stroke:none;stroke-width:2.83465;stroke-miterlimit:4;stroke-dasharray:none;stroke-opacity:1" />
    </pattern>
    <pattern
       patternUnits="userSpaceOnUse"
       width="48.869282"
       height="48.869282"
       patternTransform="translate(690.81773,515.53278)"
       id="pattern4176">
      <rect
         id="rect4172"
         y="-17.277901"
         x="-51.833702"
         height="34.555801"
         width="34.555801"
         transform="rotate(-135)"
         style="display:inline;fill:url(#pattern4174);stroke:none;stroke-width:0.999999" />
    </pattern>
  </defs>
  <sodipodi:namedview
     inkscape:snap-bbox-midpoints="false"
     inkscape:snap-bbox="false"
     inkscape:snap-midpoints="true"
     inkscape:guide-bbox="true"
     showguides="true"
     inkscape:snap-global="true"
     id="base"
     pagecolor="#910000"
     bordercolor="#666666"
     borderopacity="1.0"
     inkscape:pageopacity="0"
     inkscape:pageshadow="2"
     inkscape:zoom="0.41580723"
     inkscape:cx="540.68978"
     inkscape:cy="599.92419"
     inkscape:document-units="mm"
     inkscape:current-layer="layer3"
     inkscape:document-rotation="0"
     showgrid="false"
     units="px"
     inkscape:pagecheckerboard="false" />
  <metadata
     id="metadata5">
    <rdf:RDF>
      <cc:Work
         rdf:about="">
        <dc:format>image/svg+xml</dc:format>
        <dc:type
           rdf:resource="http://purl.org/dc/dcmitype/StillImage" />
        <dc:title></dc:title>
      </cc:Work>
    </rdf:RDF>
  </metadata>
  <g
     style="display:inline"
     inkscape:groupmode="layer"
     id="layer3"
     inkscape:label="Objects">
    <path
       id="path1462"
       style="fill:#000000;fill-opacity:1;stroke:none;stroke-width:7.55906;stroke-linecap:round;stroke-linejoin:round;stroke-miterlimit:4;stroke-dasharray:none;stroke-opacity:1;paint-order:normal"
       d="m 372.61914,292.80469 c 0,0 10.82202,40.88451 -4.20898,87.78125 -15.031,46.89672 -21.04297,49.90168 -21.04297,59.52148 0,9.61984 19.84047,29.46084 21.04297,43.89063 1.20245,14.42974 -2.4043,20.44336 -2.4043,20.44336 l 37.27539,14.42968 c 0,0 -10.22137,-11.42519 -11.42383,-57.7207 -1.20249,-46.29551 0.60156,-128.0625 0.60156,-128.0625 z m 537.6582,0 -19.83984,40.2832 c 0,0 1.8021,81.76699 0.59961,128.0625 -1.20246,46.29551 -11.42188,57.7207 -11.42188,57.7207 l 37.27539,-14.42968 c 0,0 -3.60675,-6.01362 -2.40429,-20.44336 1.20249,-14.42979 21.04297,-34.27079 21.04297,-43.89063 0,-9.6198 -6.01198,-12.62476 -21.04297,-59.52148 -15.03099,-46.89674 -4.20899,-87.78125 -4.20899,-87.78125 z m -332.03515,81.76758 c 0,0 13.22751,16.83521 15.03125,30.0625 1.8037,13.22725 1.20178,33.06893 6.01172,48.70117 4.8099,15.63227 18.03903,37.87746 21.64648,57.11718 3.60745,19.23965 6.61328,42.08594 6.61328,42.08594 0,0 -9.01842,-49.90153 -32.4668,-81.16601 -23.44837,-31.26452 -46.89648,-40.88477 -46.89648,-40.88477 0,0 28.25687,26.45431 26.45313,46.89649 -1.80371,20.44214 -9.01858,37.87757 -3.60743,46.29492 5.41119,8.41738 9.6211,9.01953 9.6211,9.01953 0,0 -3.00681,-0.60118 -4.81055,-10.82227 -1.80374,-10.22109 2.4043,-13.82812 2.4043,-13.82812 0,0 16.23435,6.01128 19.84179,23.44726 3.60745,17.43598 -1.80438,27.65814 6.01172,38.48047 7.81614,10.8223 19.84207,13.22653 27.65821,24.04883 7.8161,10.82234 7.81445,11.42383 7.81445,11.42383 l 1.87891,8.41601 1.8789,-8.41601 c 0,0 3.1e-4,-0.60149 7.81641,-11.42383 7.81614,-10.8223 19.84206,-13.22653 27.6582,-24.04883 7.8161,-10.82233 2.40427,-21.04449 6.01172,-38.48047 3.60745,-17.43598 19.8418,-23.44726 19.8418,-23.44726 0,0 4.20804,3.60703 2.40429,13.82812 -1.80374,10.22109 -4.81054,10.82227 -4.81054,10.82227 0,0 4.2099,-0.60215 9.62109,-9.01953 5.41115,-8.41735 -1.80372,-25.85278 -3.60742,-46.29492 -1.80374,-20.44218 26.45312,-46.89649 26.45312,-46.89649 0,0 -23.4481,9.62025 -46.89648,40.88477 -23.44838,31.26448 -32.4668,81.16601 -32.4668,81.16601 0,0 3.00584,-22.84629 6.61328,-42.08594 3.60745,-19.23972 16.83463,-41.48491 21.64454,-57.11718 4.80994,-15.63224 4.20996,-35.47392 6.01367,-48.70117 1.80374,-13.22729 15.03125,-30.0625 15.03125,-30.0625 0,0 -20.443,12.02563 -27.05664,23.44921 -6.61365,11.42355 -11.42415,38.47885 -12.02539,42.6875 -0.60125,4.2087 -13.22654,30.06117 -16.83399,38.47852 -3.60744,8.41739 -7.29101,21.57031 -7.29101,21.57031 0,0 -3.68162,-13.15292 -7.28907,-21.57031 -3.60744,-8.41735 -16.23273,-34.26982 -16.83398,-38.47852 -0.60125,-4.20865 -5.41175,-31.26395 -12.02539,-42.6875 -6.61365,-11.42358 -27.05664,-23.44921 -27.05664,-23.44921 z m -96.73633,36.53906 c 0,0 14.02929,49.74239 15.30469,68.02344 l 1.27539,18.27929 v 2.97656 l -12.75391,-8.07812 2.55078,14.03125 45.49024,27.20898 c 0,0 1.27437,-8.92857 16.15429,-1.70117 14.87993,7.2274 22.53321,14.87891 22.53321,14.87891 0,0 -6.80329,-25.0826 -11.05469,-28.05859 l -4.25,-2.97657 c 0,0 -27.2096,-9.7779 -28.91016,-12.7539 -1.70056,-2.97597 -13.60453,-47.61534 -23.38281,-68.44727 -9.7782,-20.83189 -22.95703,-23.38281 -22.95703,-23.38281 z m 319.88476,0 c 0,0 -13.17882,2.55092 -22.95703,23.38281 -9.77828,20.83193 -21.68225,65.4713 -23.38281,68.44727 -1.70056,2.976 -28.91016,12.7539 -28.91016,12.7539 l -4.25195,2.97657 c -4.2514,2.97599 -11.05273,28.05859 -11.05273,28.05859 0,0 7.65328,-7.65151 22.5332,-14.87891 14.87993,-7.2274 16.1543,1.70117 16.1543,1.70117 l 45.49023,-27.20898 2.55078,-14.03125 -12.7539,8.07812 v -2.97656 l 1.27539,-18.27929 c 1.2754,-18.28105 15.30468,-68.02344 15.30468,-68.02344 z m -387.05664,13.17969 c 0,0 -13.18097,5.95215 -14.03125,44.21484 -0.85028,38.26269 14.88086,56.11719 14.88086,56.11719 0,0 25.93353,11.47962 54.41797,19.98242 28.48445,8.50284 36.98633,21.68164 36.98633,21.68164 0,0 -0.42494,-4.67655 -7.65234,-25.93359 -7.2274,-21.25705 -29.75977,-37.41211 -29.75977,-37.41211 l 13.17969,3.40234 -5.95117,-14.88086 c 0,0 -50.59162,7.9e-4 -58.24414,-5.95117 -7.65256,-5.95196 -3.82618,-61.2207 -3.82618,-61.2207 z m 454.22852,0 c 0,0 3.82639,55.26874 -3.82617,61.2207 -7.65252,5.95196 -58.24414,5.95117 -58.24414,5.95117 l -5.95117,14.88086 13.17968,-3.40234 c 0,0 -22.53236,16.15506 -29.75976,37.41211 -7.2274,21.25704 -7.6543,25.93359 -7.6543,25.93359 0,0 8.50383,-13.1788 36.98828,-21.68164 28.48445,-8.5028 54.41797,-19.98242 54.41797,-19.98242 0,0 15.72919,-17.8545 14.87891,-56.11719 -0.85028,-38.26269 -14.0293,-44.21484 -14.0293,-44.21484 z m -382.91016,87.36523 c 0,0 27.05599,27.65618 29.46094,38.47852 2.40495,10.82233 6.01222,31.8658 32.4668,47.49804 23.22563,13.72425 28.11765,17.07741 29.0293,17.73438 -1.58188,-1.16175 -7.4611,-6.27601 -11.59376,-20.74024 -4.8099,-16.83473 -2.40487,-32.4684 -18.0371,-42.68945 -15.63224,-10.22109 -61.32618,-40.28125 -61.32618,-40.28125 z m 90.95704,103.71094 c 0.25924,0.19039 0.43164,0.30273 0.43164,0.30273 0,0 -0.3049,-0.2114 -0.43164,-0.30273 z M 797.24414,511.65625 c 0,0 -45.69393,30.06016 -61.32617,40.28125 -15.63224,10.22105 -13.22721,25.85472 -18.03711,42.68945 -4.12892,14.45118 -9.99965,19.56845 -11.58789,20.73633 0.9273,-0.66748 5.84578,-4.03457 29.02344,-17.73047 26.45457,-15.63224 30.06184,-36.67571 32.46679,-47.49804 2.40495,-10.82234 29.46094,-38.47852 29.46094,-38.47852 z m -90.95117,103.70703 c -0.1311,0.0944 -0.4375,0.30664 -0.4375,0.30664 0,0 0.17554,-0.11401 0.4375,-0.30664 z m -336.67969,-103.10742 3.60742,13.83008 c 0,0 49.3017,7.815 61.92774,27.05468 12.62604,19.23969 14.42968,23.44922 14.42968,23.44922 l 30.66211,17.43555 0.60157,-4.20898 4.20898,6.61328 c 0,0 9.6188,1.80466 12.625,5.41211 3.0062,3.60744 4.20899,5.41015 4.20899,5.41015 l -1.20118,-12.625 c 0,0 -31.26494,-37.87823 -37.27734,-43.89062 -6.0124,-6.0124 -93.79297,-38.48047 -93.79297,-38.48047 z m 543.66992,0 c 0,0 -87.78057,32.46807 -93.79297,38.48047 -6.01239,6.01239 -37.27734,43.89062 -37.27734,43.89062 l -1.20117,12.625 c 0,0 1.20083,-1.80271 4.20703,-5.41015 3.0062,-3.60745 12.62695,-5.41211 12.62695,-5.41211 l 4.20899,-6.61328 0.60156,4.20898 30.66211,-17.43555 c 0,0 1.80365,-4.20953 14.42969,-23.44922 12.62604,-19.23968 61.92773,-27.05468 61.92773,-27.05468 z m -333.14453,1.74023 c 0,0 7.65178,14.87984 4.67578,29.75977 -2.976,14.87996 -3.40039,18.28125 -3.40039,18.28125 l 23.38282,18.70508 c 0,0 -13.60485,-19.98129 -13.17969,-39.96289 0.42512,-19.98165 -11.47852,-26.78321 -11.47852,-26.78321 z m 122.61914,0 c 0,0 -11.90363,6.80156 -11.47851,26.78321 0.42516,19.9816 -13.17969,39.96289 -13.17969,39.96289 l 23.38281,-18.70508 c 0,0 -0.42439,-3.40129 -3.40039,-18.28125 -2.976,-14.87993 4.67578,-29.75977 4.67578,-29.75977 z m -154.57617,24.71485 c 0,0 16.2321,18.63859 22.8457,36.67578 6.61369,18.03723 2.40589,23.44885 9.01954,30.0625 6.61364,6.61364 16.23374,6.01167 15.03124,13.22656 -1.20249,7.21485 -4.81054,9.01953 -4.81054,9.01953 0,0 12.62687,-6.01339 30.66406,5.41016 18.03719,11.42358 20.51563,24.97265 20.51563,24.97265 l -0.99219,-30.98437 c 0,0 -8.09994,-3.00682 -12.3086,-8.41797 -4.20869,-5.41119 -3.60742,-7.8164 -3.60742,-7.8164 l 9.01758,4.20898 c 0,0 -1.80298,-8.41664 -13.22656,-16.83398 -11.42355,-8.41735 -25.25352,-10.82251 -35.47461,-22.2461 -10.22109,-11.42355 -13.22718,-23.44791 -21.64453,-28.25781 -8.41735,-4.80994 -15.0293,-9.01953 -15.0293,-9.01953 z m 93.26563,119.36718 c 0,0 2.48038,-13.54907 20.51757,-24.97265 18.03719,-11.42355 30.66407,-5.41016 30.66407,-5.41016 0,0 -3.60806,-1.80468 -4.81055,-9.01953 -1.2025,-7.21489 8.41761,-6.61292 15.03125,-13.22656 6.61364,-6.61365 2.40585,-12.02527 9.01953,-30.0625 6.61361,-18.03719 22.8457,-36.67578 22.8457,-36.67578 0,0 -6.6139,4.20959 -15.03125,9.01953 -8.41734,4.8099 -11.42344,16.83426 -21.64453,28.25781 -10.22109,11.42359 -24.04911,13.82875 -35.47265,22.2461 -11.42359,8.41734 -13.22657,16.83398 -13.22657,16.83398 l 9.01758,-4.20898 c 0,0 0.60127,2.40521 -3.60742,7.8164 -4.20866,5.41115 -12.31055,8.41797 -12.31055,8.41797 z M 370.97266,565.04883 c -17.65442,0.16521 -32.69828,5.48569 -35.93164,17.55273 -9.45434,35.28408 46.15837,46.26033 63.73242,44.49219 67.51865,-6.7931 80.56445,3.30664 80.56445,3.30664 l -1.20117,-30.0625 c 0,0 -12.02578,-1.80262 -30.96484,5.71289 -18.93907,7.51548 -50.80467,22.84716 -83.57227,-3.60742 -32.7676,-26.45458 19.8418,-33.36914 19.8418,-33.36914 0,0 -13.22784,8.41612 9.91992,15.93164 23.14775,7.51551 38.17836,-6.31133 10.2207,-15.0293 -10.48412,-3.26924 -22.01672,-5.02686 -32.60937,-4.92773 z m 540.94922,0 c -10.59266,-0.0991 -22.12331,1.65849 -32.60743,4.92773 -27.95765,8.71797 -12.92705,22.54481 10.22071,15.0293 23.14775,-7.51552 9.91992,-15.93164 9.91992,-15.93164 0,0 52.60939,6.91456 19.8418,33.36914 -32.7676,26.45458 -64.63321,11.1229 -83.57227,3.60742 -18.93906,-7.51551 -30.96484,-5.71289 -30.96484,-5.71289 l -1.20313,30.0625 c 0,0 13.04775,-10.09974 80.56641,-3.30664 17.57404,1.76814 73.18676,-9.20811 63.73242,-44.49219 -3.23336,-12.06704 -18.27918,-17.38752 -35.93359,-17.55273 z m -593.86524,20.53906 c -0.43252,-0.0143 -0.8838,-0.009 -1.35352,0.0195 -15.03099,0.90187 -54.41312,24.65045 -45.39453,46.5957 9.01871,21.94526 34.57227,8.11719 34.57227,8.11719 0,0 -27.35548,9.61976 -30.96289,-11.12304 -3.60748,-20.74277 12.0243,-35.1719 31.86523,-31.56446 19.84094,3.60745 13.82818,29.16045 35.77344,33.36914 21.94526,4.2087 28.85938,0.90235 28.85938,0.90235 0,0 -29.16027,-3.60751 -36.67579,-14.73047 -7.28061,-10.77533 -3.27556,-31.14342 -16.68359,-31.58594 z m 646.7832,0 c -13.40803,0.44252 -9.40297,20.81061 -16.68359,31.58594 -7.51551,11.12296 -36.67578,14.73047 -36.67578,14.73047 0,0 6.91411,3.30635 28.85937,-0.90235 21.94526,-4.20869 15.93251,-29.76169 35.77344,-33.36914 19.84093,-3.60744 35.47272,10.82169 31.86522,31.56446 -3.6074,20.7428 -30.96288,11.12304 -30.96288,11.12304 0,0 25.55158,13.82807 34.57028,-8.11719 9.0186,-21.94525 -30.36155,-45.69383 -45.39254,-46.5957 -0.46972,-0.0282 -0.921,-0.0338 -1.35352,-0.0195 z m -459.94922,13.54883 c 0,0 2.10546,25.2506 9.32032,37.27539 7.21489,12.02479 8.11718,18.33789 8.11718,18.33789 0,0 15.93193,2.10427 27.35547,14.42969 11.42359,12.32541 17.43555,31.26562 17.43555,31.26562 V 687.2168 c 0,0 8.71936,7.81687 13.5293,15.93359 4.8099,8.11676 6.91406,12.02539 6.91406,12.02539 l -2.40625,-26.45508 c 0,0 14.73123,8.11566 19.8418,16.23242 5.11052,8.11673 10.2207,17.13672 10.2207,17.13672 0,0 -3.00586,-9.01849 -3.00586,-21.64453 0,-12.62604 -0.60156,-17.13672 -0.60156,-17.13672 l -28.25781,-24.95117 2.40429,9.92188 c 0,0 -11.12216,-6.91453 -24.04883,-15.03125 -12.92662,-8.11677 -34.87139,-15.03069 -42.6875,-28.5586 -7.81613,-13.52791 -14.13086,-25.55273 -14.13086,-25.55273 z m 273.11329,0 c 0,0 -6.31277,12.02482 -14.12891,25.55273 -7.8161,13.52791 -29.76087,20.44183 -42.6875,28.5586 -12.92666,8.11672 -24.04883,15.03125 -24.04883,15.03125 l 2.4043,-9.92188 -28.25781,24.95117 c 0,0 -0.60157,4.51068 -0.60157,17.13672 0,12.62604 -3.00586,21.64453 -3.00586,21.64453 0,0 5.11018,-9.01999 10.22071,-17.13672 5.11056,-8.11676 19.83984,-16.23242 19.83984,-16.23242 l -2.4043,26.45508 c 0,0 2.10416,-3.90863 6.91407,-12.02539 4.80994,-8.11672 13.52929,-15.93359 13.52929,-15.93359 v 13.22851 c 0,0 6.01197,-18.94021 17.43555,-31.26562 11.42355,-12.32542 27.35547,-14.42969 27.35547,-14.42969 0,0 0.9023,-6.3131 8.11719,-18.33789 7.21485,-12.02479 9.31836,-37.27539 9.31836,-37.27539 z m -238.08985,0.29883 c 0,0 7.36521,6.76453 10.97266,15.63281 3.60744,8.86828 13.52734,17.43555 13.52734,17.43555 0,0 -6.31336,-6.91426 -7.96679,-14.58008 -1.6534,-7.66583 -16.53321,-18.48828 -16.53321,-18.48828 z m 203.06836,0 c 0,0 -14.87981,10.82245 -16.5332,18.48828 -1.65343,7.66582 -7.9668,14.58008 -7.9668,14.58008 0,0 9.9199,-8.56727 13.52735,-17.43555 3.60744,-8.86828 10.97265,-15.63281 10.97265,-15.63281 z m -258.83398,3.30859 0.60156,36.67383 c 0,0 -11.72351,6.01417 -38.7793,3.30859 -27.05582,-2.70557 -41.78685,-6.91601 -55.91601,-6.91601 -14.12913,0 -39.08008,1.5039 -39.08008,1.5039 0,0 59.82311,13.52783 83.27148,18.03711 23.44838,4.50932 53.81134,10.22037 55.31446,13.22656 1.50308,3.0062 1.80273,6.01368 1.80273,6.01368 0,0 6.31304,-5.41159 3.60742,-11.72461 -2.70557,-6.31302 -2.70508,-8.41797 -2.70508,-8.41797 l 21.34376,6.61523 c 0,0 3.60761,-17.43672 -6.91407,-37.8789 -10.52171,-20.44214 -22.54687,-20.44141 -22.54687,-20.44141 z m 314.59961,0 c 0,0 -12.02516,-7.3e-4 -22.54688,20.44141 -10.52167,20.44218 -6.91406,37.8789 -6.91406,37.8789 l 21.34375,-6.61523 c 0,0 5e-4,2.10495 -2.70508,8.41797 -2.70561,6.31302 3.60742,11.72461 3.60742,11.72461 0,0 0.29966,-3.00748 1.80274,-6.01368 1.50312,-3.00619 31.86607,-8.71724 55.31445,-13.22656 23.44838,-4.50928 83.27149,-18.03711 83.27149,-18.03711 0,0 -24.95096,-1.5039 -39.08008,-1.5039 -14.12916,0 -28.8602,4.21044 -55.91602,6.91601 -27.05578,2.70558 -38.7793,-3.30859 -38.7793,-3.30859 z m -251.13282,17.32422 c 0,0 2.97623,19.76903 15.73047,25.93359 12.75425,6.16453 27.20914,7.22701 35.07422,15.30469 7.86512,8.07768 9.56446,9.7793 9.56446,9.7793 0,0 -2.97505,-12.11702 -12.32813,-18.49414 -9.35312,-6.37712 -19.77029,-8.71506 -29.33594,-14.0293 -9.56568,-5.31428 -18.70508,-18.49414 -18.70508,-18.49414 z m 187.66602,0 c 0,0 -9.14135,13.17986 -18.70703,18.49414 -9.56565,5.31424 -19.98086,7.65218 -29.33399,14.0293 -9.35308,6.37712 -12.32812,18.49414 -12.32812,18.49414 0,0 1.69933,-1.70162 9.56445,-9.7793 7.86509,-8.07768 22.31998,-9.14016 35.07422,-15.30469 12.75424,-6.16456 15.73047,-25.93359 15.73047,-25.93359 z m -141.53906,13.39258 c 0,0 4.88957,1.7 6.80273,8.71484 1.91312,7.01484 1.06306,11.90324 4.03906,15.0918 2.97597,3.18856 3.82618,3.40234 3.82618,3.40234 0,0 1.27488,-14.45624 -4.25196,-20.4082 -5.52684,-5.952 -10.41601,-6.80078 -10.41601,-6.80078 z m 95.41211,0 c 0,0 -4.88918,0.84878 -10.41602,6.80078 -5.52684,5.95196 -4.25195,20.4082 -4.25195,20.4082 0,0 0.85021,-0.21378 3.82617,-3.40234 2.976,-3.18856 2.12594,-8.07696 4.03906,-15.0918 1.91316,-7.01484 6.80274,-8.71484 6.80274,-8.71484 z m -84.14453,2.33789 c 0,0 5.52539,8.71427 5.52539,18.70508 0,9.99084 8.20071,22.10698 19.55664,25.7207 l 11.35547,3.61523 11.35742,-3.61523 c 11.35593,-3.61372 19.55664,-15.72986 19.55664,-25.7207 0,-9.99081 5.52539,-18.70508 5.52539,-18.70508 0,0 -11.05218,-0.21357 -19.76758,13.60351 -8.7154,13.81709 -16.67187,16.79297 -16.67187,16.79297 0,0 -7.95452,-2.97588 -16.66993,-16.79297 -8.7154,-13.81708 -19.76757,-13.60351 -19.76757,-13.60351 z m -100.71875,37.28906 c 0,0 32.46545,39.68136 37.27539,57.41797 4.8099,17.73657 4.81112,30.36437 20.44336,39.68359 15.63227,9.31922 17.43486,9.61809 23.44726,18.63672 6.0124,9.0186 9.6211,13.5293 9.62109,13.5293 0,0 0.29949,-14.12949 -1.80468,-22.54688 -2.10437,-8.41734 -25.55309,-44.7934 -26.1543,-56.51757 -0.60125,-11.72417 -0.60156,-12.32422 -0.60156,-12.32422 0,0 -3.0057,3.00666 -2.70508,8.11718 0.30047,5.11057 -1.20117,7.51563 -1.20117,7.51563 0,0 -10.82256,-7.51591 -15.03125,-18.93945 -4.20869,-11.42359 -8.71875,-19.24024 -8.71875,-19.24024 z m 274.31445,0 -34.57031,15.33203 c 0,0 -4.51006,7.81665 -8.71875,19.24024 -4.2087,11.42354 -15.03125,18.93945 -15.03125,18.93945 0,0 -1.50165,-2.40506 -1.20118,-7.51563 0.30063,-5.11052 -2.70703,-8.11718 -2.70703,-8.11718 0,0 0.002,0.60005 -0.59961,12.32422 -0.60121,11.72417 -24.04993,48.10023 -26.15429,56.51757 -2.10418,8.41739 -1.80469,22.54688 -1.80469,22.54688 0,0 3.6087,-4.5107 9.62109,-13.5293 6.0124,-9.01863 7.81499,-9.3175 23.44727,-18.63672 15.63224,-9.31922 15.6315,-21.94702 20.4414,-39.68359 4.80995,-17.73661 37.27735,-57.41797 37.27735,-57.41797 z M 617.02344,679.25 c 0,0 2.85477,12.17617 5.25976,20.14258 2.40495,7.96645 1.20313,15.48242 1.20313,15.48242 l 17.96094,0.15039 17.96289,-0.15039 c 0,0 -1.20183,-7.51597 1.20312,-15.48242 2.40499,-7.96641 5.25977,-20.14258 5.25977,-20.14258 0,0 -8.94263,9.17083 -16.6836,10.82422 l -7.74218,1.65234 -7.74024,-1.65234 C 625.96607,688.42083 617.02344,679.25 617.02344,679.25 Z m -164.13867,2.85742 c 0,0 42.98773,6.01279 52.9082,18.93946 9.92046,12.92666 17.43555,52.60742 17.43555,52.60742 l 32.76757,22.54687 c 0,0 -6.91439,-5.71185 -11.12304,-18.33789 -4.2087,-12.62604 -2.4039,-14.73069 -9.01758,-29.76172 -6.61365,-15.03099 -19.24019,-33.9692 -26.45508,-38.47851 -7.21489,-4.50928 -56.51562,-7.51563 -56.51562,-7.51563 z m 377.12695,0 c 0,0 -49.30073,3.00635 -56.51563,7.51563 -7.21489,4.50931 -19.84143,23.44752 -26.45507,38.47851 -6.61369,15.03103 -4.81084,17.13568 -9.01954,29.76172 -4.20865,12.62604 -11.12304,18.33789 -11.12304,18.33789 l 32.76758,-22.54687 c 0,0 7.51703,-39.68076 17.4375,-52.60742 9.92046,-12.92667 52.9082,-18.93946 52.9082,-18.93946 z m -333.23633,44.19141 c 0,0 -55.31424,23.14736 -98.60351,17.43555 -43.28932,-5.71178 -93.79384,-23.44803 -113.63477,0.60156 -19.84093,24.04962 21.34449,57.11733 66.4375,64.63281 45.09302,7.51551 39.07901,6.31312 55.3125,14.73047 16.23349,8.41738 49.60351,39.68164 49.60351,39.68164 0,0 -26.45389,-32.76799 -60.7246,-48.09961 -34.27069,-15.33162 -56.518,-18.03717 -71.84961,-32.76758 -15.33162,-14.73037 -26.75435,-48.09843 56.21679,-27.65625 82.97118,20.44218 73.95215,19.84023 101.3086,9.61914 27.35641,-10.22109 31.86523,-12.32422 31.86523,-12.32422 0,0 -5.71139,-4.8116 -10.2207,-14.13086 -4.50932,-9.31921 -5.71094,-11.72265 -5.71094,-11.72265 z m 289.3457,0 c 0,0 -1.20162,2.40344 -5.71093,11.72265 -4.50932,9.31926 -10.22071,14.13086 -10.22071,14.13086 0,0 4.50883,2.10313 31.86524,12.32422 27.35644,10.22109 18.33742,10.82304 101.30859,-9.61914 82.97114,-20.44218 71.54841,12.92588 56.2168,27.65625 -15.33162,14.73041 -37.57893,17.43596 -71.84961,32.76758 -34.27072,15.33162 -60.72461,48.09961 -60.72461,48.09961 0,0 33.36808,-31.26426 49.60156,-39.68164 16.23349,-8.41735 10.22144,-7.21496 55.31446,-14.73047 45.09301,-7.51548 86.27842,-40.58319 66.4375,-64.63281 -19.84094,-24.04959 -70.34546,-6.31334 -113.63477,-0.60156 -43.28927,5.71181 -98.60352,-17.43555 -98.60352,-17.43555 z m -188.63867,3.9082 c 0,0 6.6e-4,16.23238 -2.4043,23.44727 -2.40495,7.21485 -4.20898,11.42382 -4.20898,11.42382 0,0 6.91422,8.71837 7.21484,18.93946 0.30048,10.22109 1.80274,15.33203 1.80274,15.33203 0,0 1.80498,-9.31979 6.01367,-15.63281 4.20866,-6.31302 5.40968,-7.5156 4.50781,-11.12305 -0.90187,-3.60741 -12.92578,-42.38672 -12.92578,-42.38672 z m 87.93164,0 c 0,0 -12.02586,38.77931 -12.92773,42.38672 -0.90187,3.60745 0.30111,4.81003 4.50976,11.12305 4.2087,6.31302 6.01368,15.63281 6.01368,15.63281 0,0 1.50226,-5.11094 1.80273,-15.33203 0.30062,-10.22109 7.21484,-18.93946 7.21484,-18.93946 0,0 -1.80403,-4.20897 -4.20898,-11.42382 -2.40495,-7.21489 -2.4043,-23.44727 -2.4043,-23.44727 z m -169.09961,25.55274 c 0,0 -39.38143,19.23895 -55.01367,20.4414 -15.63224,1.2025 -64.03125,-10.2207 -64.03125,-10.2207 0,0 41.18532,12.02455 51.70703,17.73633 10.52168,5.71177 19.53946,1.80324 38.47852,-8.11719 18.93906,-9.92047 19.54018,-11.12339 25.25195,-8.11719 5.71177,3.0062 7.81613,9.01834 -3.60742,14.12891 -11.42355,5.11052 -16.23242,8.11719 -16.23242,8.11719 0,0 17.13403,-9.61996 37.57617,-7.51563 20.44218,2.10437 30.66406,4.50977 30.66406,4.50977 0,0 -15.33184,-6.01282 -25.85351,-15.33204 -10.52172,-9.31921 -18.93946,-15.63085 -18.93946,-15.63085 z m 250.26758,0 c 0,0 -8.41774,6.31164 -18.93945,15.63085 -10.52168,9.31922 -25.85352,15.33204 -25.85352,15.33204 0,0 10.21993,-2.4054 30.66211,-4.50977 20.44214,-2.10433 37.57813,7.51563 37.57813,7.51563 0,0 -4.80888,-3.00667 -16.23242,-8.11719 -11.42355,-5.11057 -9.3192,-11.12271 -3.60743,-14.12891 5.71178,-3.0062 6.31289,-1.80328 25.25196,8.11719 18.93906,9.92043 27.95684,13.82896 38.47851,8.11719 10.52172,-5.71178 51.70703,-17.73633 51.70703,-17.73633 0,0 -48.40096,11.4232 -64.0332,10.2207 -15.63224,-1.20245 -55.01172,-20.4414 -55.01172,-20.4414 z m -144.14258,15.87109 c 0,0 -8.2896,7.01434 -13.8164,19.13086 -5.52684,12.11648 -8.29007,15.73169 -7.65235,19.13281 0.63772,3.40112 17.64207,16.5798 25.08203,26.7832 7.43997,10.20341 15.39454,23.16993 15.39454,23.16993 0,0 -3.49024,-25.93269 -3.49024,-48.67774 0,-22.74504 1.70117,-37.41406 1.70117,-37.41406 z m 19.00782,88.2168 c 0,0 7.95652,-12.96652 15.39648,-23.16993 7.43996,-10.2034 24.44431,-23.38208 25.08203,-26.7832 0.63772,-3.40112 -2.1255,-7.01633 -7.65234,-19.13281 -5.52681,-12.11652 -13.81641,-19.13086 -13.81641,-19.13086 l -17.21875,2.125 c 0,0 1.70117,14.66902 1.70117,37.41406 0,22.74505 -3.49218,48.67774 -3.49218,48.67774 z m -92.36524,-64.10547 c 0,0 15.03226,4.20716 13.22852,8.11523 -1.80371,3.90807 -4.20899,6.61524 -4.20899,6.61524 0,0 7.51508,-2.10583 17.43555,-2.70704 9.92047,-0.60124 17.73633,0 17.73633,0 l -2.10352,-2.10351 -8.71875,-8.71875 c 0,0 -3.90813,4.20999 -14.73047,2.40625 -10.8223,-1.8037 -18.63867,-3.60742 -18.63867,-3.60742 z m 184.73242,0 c 0,0 -7.81637,1.80372 -18.63867,3.60742 -10.82234,1.80374 -14.73047,-2.40625 -14.73047,-2.40625 l -8.71875,8.71875 -2.10351,2.10351 c 0,0 7.81586,-0.60124 17.73633,0 9.92046,0.60121 17.43554,2.70704 17.43554,2.70704 0,0 -2.40528,-2.70717 -4.20898,-6.61524 -1.80374,-3.90807 13.22851,-8.11523 13.22851,-8.11523 z m -242.36328,7.86133 c -4.27635,-0.063 -9.10641,1.04301 -14.51758,3.86132 -28.85952,15.031 -8.37011,68.49139 30.0625,65.23438 43.36003,-3.67457 40.28321,-45.0918 40.28321,-45.0918 0,0 -22.27946,47.43196 -50.80469,30.96289 -29.42011,-16.98572 -11.72489,-40.28174 6.01172,-37.57617 10.59156,1.61566 14.0889,3.11911 15.20312,4.07227 -1.65275,-3.94744 -9.79585,-21.22078 -26.23828,-21.46289 z m 26.23828,21.46289 c 0.20993,0.50138 0.42969,1.03711 0.42969,1.03711 0,0 0.32196,-0.39412 -0.42969,-1.03711 z m 273.75586,-21.46289 c -16.44242,0.24211 -24.58552,17.51545 -26.23828,21.46289 1.11422,-0.95316 4.61157,-2.45661 15.20313,-4.07227 17.7366,-2.70557 35.43182,20.59045 6.01172,37.57617 -28.52523,16.46907 -50.80469,-30.96289 -50.80469,-30.96289 0,0 -3.07682,41.41723 40.2832,45.0918 38.43262,3.25701 58.92203,-50.20338 30.0625,-65.23438 -5.41116,-2.81831 -10.24123,-3.92429 -14.51758,-3.86132 z m -26.23828,21.46289 c -0.75164,0.64299 -0.42969,1.03711 -0.42969,1.03711 0,0 0.21977,-0.53573 0.42969,-1.03711 z M 588.35156,810.54688 c -3.26924,-10e-6 -7.55296,0.2251 -11.61133,1.12695 -8.11676,1.80374 -14.13049,4.80991 -20.74414,3.60742 -6.61364,-1.20246 -13.52734,-3.30664 -13.52734,-3.30664 0,0 7.81555,7.81609 17.13477,7.21484 9.31921,-0.60124 17.1359,-7.21489 19.24023,0 2.10437,7.21489 -2.70508,9.61914 -2.70508,9.61914 0,0 6.01136,0.90304 12.625,-1.50195 6.61365,-2.40495 12.62695,-6.01172 12.62695,-6.01172 L 593.875,810.77148 c 0,0 -2.2542,-0.2246 -5.52344,-0.2246 z m 106.19336,0 c -3.26924,0 -5.52344,0.2246 -5.52344,0.2246 l -7.51562,10.52344 c 0,0 6.01136,3.60677 12.625,6.01172 6.61364,2.40499 12.62695,1.50195 12.62695,1.50195 0,0 -4.80944,-2.40425 -2.70508,-9.61914 2.10433,-7.21489 9.91907,-0.60124 19.23829,0 9.31921,0.60125 17.13671,-7.21484 17.13671,-7.21484 0,0 -6.91565,2.10418 -13.52929,3.30664 -6.61365,1.20249 -12.62543,-1.80368 -20.74219,-3.60742 -4.05836,-0.90185 -8.34209,-1.12696 -11.61133,-1.12695 z m -87.83594,15.28906 c 0,0 -7.22706,5.10284 -12.7539,5.95312 -5.52681,0.85028 -7.01563,1.48633 -7.01563,1.48633 0,0 31.461,15.30628 40.60157,30.61133 9.14052,15.30508 9.35351,28.05859 9.35351,28.05859 l 1.27539,-22.10742 c 0,0 -1.9136,-1.0626 -8.07812,-10.20312 -6.16456,-9.14053 -9.77752,-17.0057 -15.0918,-23.38282 -5.31424,-6.37708 -8.29102,-10.41601 -8.29102,-10.41601 z m 69.47852,0 c 0,0 -2.97677,4.03893 -8.29102,10.41601 -5.31428,6.37712 -8.92723,14.24229 -15.09179,23.38282 -6.16453,9.14052 -8.07813,10.20312 -8.07813,10.20312 l 1.27539,22.10742 c 0,0 0.213,-12.75351 9.35352,-28.05859 9.14056,-15.30505 40.59961,-30.61133 40.59961,-30.61133 0,0 -1.48687,-0.63605 -7.01367,-1.48633 -5.52684,-0.85028 -12.75391,-5.95312 -12.75391,-5.95312 z m -95.55664,24.01562 c -8.08151,-0.0652 -15.80424,1.09137 -21.32813,3.00782 -14.73036,5.11056 -32.76715,22.24522 -24.65039,38.77929 8.11673,16.53411 28.25782,10.82227 28.25782,10.82227 0,0 -23.7477,-1.80281 -23.14649,-20.14063 0.60125,-18.33781 12.62484,-35.4745 37.87695,-27.95898 25.25209,7.51551 29.7629,19.84216 21.04493,42.38867 -12.299,31.80779 36.67578,43.28906 36.67578,43.28906 0,0 -29.16083,-13.52821 -30.36328,-33.36914 -1.2025,-19.84089 21.64444,-29.76162 10.52148,-44.1914 -6.95183,-9.01859 -21.41948,-12.51833 -34.88867,-12.62696 z m 121.63476,0 c -13.46918,0.10863 -27.93684,3.60837 -34.88867,12.62696 -11.12296,14.42978 11.72398,24.35051 10.52149,44.1914 -1.20246,19.84093 -30.36328,33.36914 -30.36328,33.36914 0,0 48.97478,-11.48127 36.67578,-43.28906 -8.71797,-22.54651 -4.20912,-34.87316 21.04297,-42.38867 25.25212,-7.51552 37.27766,9.62117 37.8789,27.95898 0.60121,18.33782 -23.14843,20.14063 -23.14843,20.14063 0,0 20.14304,5.71184 28.25976,-10.82227 8.11676,-16.53407 -9.92197,-33.66873 -24.65234,-38.77929 -5.52389,-1.91645 -13.24466,-3.07299 -21.32618,-3.00782 z"
       transform="scale(0.26458333)" />
  </g>
  <g
     inkscape:label="Layer 1"
     inkscape:groupmode="layer"
     id="layer1"
     style="display:none;opacity:0.357616"
     sodipodi:insensitive="true" />
</svg>
