<?xml version="1.0" encoding="UTF-8" standalone="no"?>
<svg
   xmlns:dc="http://purl.org/dc/elements/1.1/"
   xmlns:cc="http://creativecommons.org/ns#"
   xmlns:rdf="http://www.w3.org/1999/02/22-rdf-syntax-ns#"
   xmlns:svg="http://www.w3.org/2000/svg"
   xmlns="http://www.w3.org/2000/svg"
   xmlns:xlink="http://www.w3.org/1999/xlink"
   xmlns:sodipodi="http://sodipodi.sourceforge.net/DTD/sodipodi-0.dtd"
   xmlns:inkscape="http://www.inkscape.org/namespaces/inkscape"
   inkscape:export-ydpi="300"
   inkscape:export-xdpi="300"
   inkscape:export-filename="D:\Titipan\Projects\Codes\Rhodes Wiki Indo\Icon Assets\Lee_B.png"
   width="1280"
   height="1280"
   viewBox="0 0 338.66666 338.66668"
   version="1.1"
   id="svg8"
   inkscape:version="1.0.2 (e86c870879, 2021-01-15, custom)"
   sodipodi:docname="Sweep_Z.svg">
  <defs
     id="defs2">
    <pattern
       inkscape:collect="always"
       xlink:href="#pattern4166"
       id="pattern4174"
       patternTransform="translate(-51.833686,-17.277895)" />
    <inkscape:path-effect
       end_linecap_type="zerowidth"
       scale_width="1"
       miter_limit="4"
       linejoin_type="extrp_arc"
       start_linecap_type="zerowidth"
       interpolator_beta="0.2"
       interpolator_type="CubicBezierJohan"
       sort_points="true"
       offset_points="0,3.40217"
       lpeversion="1"
       is_visible="true"
       id="path-effect892"
       effect="powerstroke" />
    <inkscape:path-effect
       end_linecap_type="zerowidth"
       scale_width="1"
       miter_limit="4"
       linejoin_type="extrp_arc"
       start_linecap_type="zerowidth"
       interpolator_beta="0.2"
       interpolator_type="CubicBezierJohan"
       sort_points="true"
       offset_points="0,3.40217"
       lpeversion="1"
       is_visible="true"
       id="path-effect887"
       effect="powerstroke" />
    <inkscape:path-effect
       end_linecap_type="zerowidth"
       scale_width="1"
       miter_limit="4"
       linejoin_type="extrp_arc"
       start_linecap_type="zerowidth"
       interpolator_beta="0.2"
       interpolator_type="CubicBezierJohan"
       sort_points="true"
       offset_points="2.7941224,-3.4021738 | 2.7941224,-3.4021738"
       lpeversion="1"
       is_visible="true"
       id="path-effect882"
       effect="powerstroke" />
    <inkscape:path-effect
       end_linecap_type="zerowidth"
       scale_width="1"
       miter_limit="4"
       linejoin_type="extrp_arc"
       start_linecap_type="zerowidth"
       interpolator_beta="0.2"
       interpolator_type="CubicBezierJohan"
       sort_points="true"
       offset_points="0,3.01003"
       lpeversion="1"
       is_visible="true"
       id="path-effect877"
       effect="powerstroke" />
    <inkscape:path-effect
       end_linecap_type="zerowidth"
       scale_width="1"
       miter_limit="4"
       linejoin_type="extrp_arc"
       start_linecap_type="zerowidth"
       interpolator_beta="0.2"
       interpolator_type="CubicBezierJohan"
       sort_points="true"
       offset_points="0,3.01003"
       lpeversion="1"
       is_visible="true"
       id="path-effect872"
       effect="powerstroke" />
    <inkscape:path-effect
       end_linecap_type="zerowidth"
       scale_width="1"
       miter_limit="4"
       linejoin_type="extrp_arc"
       start_linecap_type="zerowidth"
       interpolator_beta="0.2"
       interpolator_type="CubicBezierJohan"
       sort_points="true"
       offset_points="11.631982,3.0100329"
       lpeversion="1"
       is_visible="true"
       id="path-effect868"
       effect="powerstroke" />
    <inkscape:path-effect
       end_linecap_type="zerowidth"
       scale_width="1"
       miter_limit="4"
       linejoin_type="extrp_arc"
       start_linecap_type="zerowidth"
       interpolator_beta="0.2"
       interpolator_type="CubicBezierJohan"
       sort_points="true"
       offset_points="156.61386,0.938298"
       lpeversion="1"
       is_visible="true"
       id="path-effect864"
       effect="powerstroke" />
    <pattern
       patternUnits="userSpaceOnUse"
       width="34.555802"
       height="34.555802"
       patternTransform="translate(697.97451,522.68951)"
       id="pattern4166">
      <circle
         r="5.0119109"
         cy="17.277901"
         cx="5.0119109"
         id="path4156"
         style="opacity:1;fill:#000000;fill-opacity:1;stroke:none;stroke-width:2.83465;stroke-miterlimit:4;stroke-dasharray:none;stroke-opacity:1" />
      <circle
         style="opacity:1;fill:#000000;fill-opacity:1;stroke:none;stroke-width:2.83465;stroke-miterlimit:4;stroke-dasharray:none;stroke-opacity:1"
         id="circle4160"
         cx="29.543892"
         cy="17.277901"
         r="5.0119109" />
      <circle
         style="opacity:1;fill:#000000;fill-opacity:1;stroke:none;stroke-width:2.83465;stroke-miterlimit:4;stroke-dasharray:none;stroke-opacity:1"
         id="circle4162"
         cx="17.277901"
         cy="29.543892"
         r="5.0119109" />
      <circle
         r="5.0119109"
         cy="5.0119109"
         cx="17.277901"
         id="circle4164"
         style="opacity:1;fill:#000000;fill-opacity:1;stroke:none;stroke-width:2.83465;stroke-miterlimit:4;stroke-dasharray:none;stroke-opacity:1" />
    </pattern>
    <pattern
       patternUnits="userSpaceOnUse"
       width="48.869282"
       height="48.869282"
       patternTransform="translate(690.81773,515.53278)"
       id="pattern4176">
      <rect
         id="rect4172"
         y="-17.277901"
         x="-51.833702"
         height="34.555801"
         width="34.555801"
         transform="rotate(-135)"
         style="display:inline;fill:url(#pattern4174);stroke:none;stroke-width:0.999999" />
    </pattern>
  </defs>
  <sodipodi:namedview
     inkscape:snap-bbox-midpoints="false"
     inkscape:snap-bbox="false"
     inkscape:snap-midpoints="true"
     inkscape:guide-bbox="true"
     showguides="true"
     inkscape:snap-global="false"
     id="base"
     pagecolor="#910000"
     bordercolor="#666666"
     borderopacity="1.0"
     inkscape:pageopacity="0"
     inkscape:pageshadow="2"
     inkscape:zoom="0.43432496"
     inkscape:cx="481.34933"
     inkscape:cy="589.07636"
     inkscape:document-units="mm"
     inkscape:current-layer="layer1"
     inkscape:document-rotation="0"
     showgrid="false"
     units="px"
     inkscape:pagecheckerboard="false" />
  <metadata
     id="metadata5">
    <rdf:RDF>
      <cc:Work
         rdf:about="">
        <dc:format>image/svg+xml</dc:format>
        <dc:type
           rdf:resource="http://purl.org/dc/dcmitype/StillImage" />
        <dc:title></dc:title>
      </cc:Work>
    </rdf:RDF>
  </metadata>
  <g
     style="display:inline"
     inkscape:groupmode="layer"
     id="layer3"
     inkscape:label="Objects">
    <path
       id="path1029"
       style="fill:#000000;fill-opacity:1;stroke-width:66.1417;stroke-linecap:round;stroke-linejoin:round;stroke:none;stroke-opacity:1"
       inkscape:transform-center-x="1.9493853e-06"
       inkscape:transform-center-y="-22.339167"
       d="m 423.03516,297.48633 c -0.0495,0.0217 0.005,0.11905 0.11132,0.2539 -0.0271,-0.16918 -0.0619,-0.27557 -0.11132,-0.2539 z m 0.11132,0.2539 c 1.06032,6.60982 -14.74478,157.23787 -32.33007,316.39844 a 147.35511,147.35511 0 0 1 25.92187,-2.29883 147.35511,147.35511 0 0 1 147.35547,147.35547 147.35511,147.35511 0 0 1 -147.35547,147.35547 147.35511,147.35511 0 0 1 -57.9414,-11.87109 c -6.66484,55.68572 -11.54841,93.63374 -12.75782,96.65429 5.24071,-4.26208 146.16766,-67.01989 294.33789,-132.02929 A 147.35511,147.35511 0 0 1 603.23438,761.49805 147.35511,147.35511 0 0 1 750.58984,614.14258 147.35511,147.35511 0 0 1 897.29688,747.68555 C 947.62177,726.15334 982.08485,711.77 985.26172,711.3125 978.98258,708.91515 855.62703,619.3186 726.10156,524.14844 A 147.35511,147.35511 0 0 1 589.41992,616.44531 147.35511,147.35511 0 0 1 442.06445,469.08984 147.35511,147.35511 0 0 1 496.87891,354.41992 C 454.09066,322.35664 425.10647,300.22973 423.14648,297.74023 Z M 985.26172,711.3125 c 0.16027,0.0612 0.26942,0.085 0.27539,0.0312 0.006,-0.0536 -0.10589,-0.0557 -0.27539,-0.0312 z M 346.03906,991.33398 c -0.13282,0.10803 -0.20754,0.19067 -0.16406,0.22266 0.0434,0.032 0.10053,-0.064 0.16406,-0.22266 z"
       transform="scale(0.26458333)"
       inkscape:export-xdpi="300"
       inkscape:export-ydpi="300" />
    <path
       id="path1118"
       style="fill:#000000;fill-opacity:1;stroke:none;stroke-width:1.00157;stroke-linecap:round;stroke-linejoin:round;stroke-miterlimit:4;stroke-dasharray:none;stroke-opacity:1"
       transform="scale(0.26458333)"
       d="m 807.03516,790.41797 c -0.46756,-0.007 -0.73828,0.004 -0.73828,0.004 h -9.15821 l -6.71679,42.9414 -0.40626,1.2207 18.76368,0.52735 1.99414,-7.44727 h -8.75 c 0,0 0.4063,-7.12198 1.42383,-9.76758 1.01756,-2.64559 2.8483,-1.22075 8.75,-2.23828 5.90173,-1.01752 4.42605,0.28276 7.9375,-12.82226 3.07254,-11.4669 -9.82673,-12.37107 -13.09961,-12.41797 z m 1.29687,7.33203 c 2.23862,0 1.2207,5.08594 1.2207,5.08594 0,0 -1.01805,6.30859 -2.84961,6.30859 -1.83159,0 -0.60937,-6.51172 -0.60937,-6.51172 0,0 -3e-4,-4.88281 2.23828,-4.88281 z m -41.51611,36.42689 6.51224,-44.56811 h 18.92621 l -1.62807,9.15779 h -6.91925 l -1.01753,8.54733 h 6.91922 v 7.73329 l -8.75082,0.40702 -1.42454,10.78586 h 8.3438 l -1.01752,7.93682 z m -22.58933,0 6.51224,-44.56811 h 18.92621 l -1.62807,9.15779 h -6.91925 l -1.01753,8.54733 h 6.91922 v 7.73329 l -8.75081,0.40702 -1.42455,10.78586 h 8.3438 l -1.01752,7.93682 z m -39.88743,0 0.40702,-43.75411 h 10.37884 l -1.42454,28.28753 9.36136,-31.74716 8.75082,1.01756 0.40702,33.1717 7.93678,-35.0033 10.17535,4.68068 -9.76834,36.83486 h 1.42455 v 6.51224 h -16.89109 l -0.61055,-22.38584 -7.73329,22.38584 z m -8.75082,-6.51224 h 5.69821 v 6.71573 h -6.71573 z m -22.38584,-9.36136 h 10.98943 c 0,0 -3.25614,9.97187 0.40698,9.97187 3.66316,0 4.07018,-6.71573 2.84912,-8.75082 -1.22105,-2.03508 -12.41397,-6.91925 -12.41397,-10.58237 0,-3.66316 -1.83156,-13.22801 6.30875,-16.48411 8.14031,-3.25614 16.07709,-0.40702 17.50163,1.62807 1.42455,2.03505 1.22106,9.76834 1.22106,9.76834 h -9.56486 c 0,0 0.61051,-6.30871 -1.42454,-6.30871 -2.03508,0 -4.88417,5.29119 -2.03508,7.52976 2.84912,2.23858 10.37888,4.88417 11.19292,8.54729 0.81403,3.66316 0.20333,14.24553 -4.27367,17.70516 -4.47715,3.45963 -15.46654,4.88417 -19.33319,0.40702 -3.86664,-4.47715 -1.42458,-13.4315 -1.42458,-13.4315 z m 21.26601,-57.92791 30.79491,-6.33165 c 0,0 5.18044,13.5267 17.55598,13.5267 14.24636,0 19.66159,-9.46496 10.93652,-12.3755 -2.85037,-0.95081 -37.12661,-5.46826 -45.47286,-20.43401 -8.3463,-14.96576 0.57558,-29.64371 2.87799,-32.23393 2.30246,-2.59023 14.10237,-18.41942 39.71683,-18.41942 25.61446,0 31.94612,8.92192 33.96076,11.79995 2.0146,2.87804 8.05848,13.23893 8.05848,13.23893 l -28.20473,8.05849 c 0,0 -0.65068,-4.74656 -6.90723,-8.3463 -13.50308,-7.76904 -30.57797,7.8951 -13.23893,12.08772 2.57907,0.62363 30.21929,5.75607 32.5217,8.3463 2.30245,2.59022 10.36093,5.18045 12.66334,16.69255 2.30242,11.51213 -2.30241,27.91691 -14.67794,35.39977 -12.37554,7.4829 -21.29741,10.93652 -35.97536,10.36089 -24.7423,-1.29743 -36.22855,-9.50309 -44.60946,-31.37049 z m -35.40796,-30.07069 a 0.50083506,0.50083506 0 0 0 -0.5,0.5 v 12.4082 a 0.50083506,0.50083506 0 0 0 0.5,0.5 h 1.76562 a 0.50083506,0.50083506 0 0 0 0.5,-0.5 v -4.50195 c 0,-1.06806 0.16018,-1.76885 0.30078,-1.99414 0.18331,-0.2914 0.33334,-0.375 0.63672,-0.375 0.2812,0 0.34472,0.044 0.45508,0.27343 0.0113,0.0265 0.0685,0.2385 0.0977,0.55469 0.0302,0.31975 0.0469,0.75449 0.0469,1.29492 v 4.74805 a 0.50083506,0.50083506 0 0 0 0.5,0.5 h 1.75781 a 0.50083506,0.50083506 0 0 0 0.5,-0.5 v -5.27344 c 0,-1.02198 -0.0453,-1.74687 -0.18359,-2.26172 v -0.002 c -0.17235,-0.64093 -0.47564,-1.17987 -0.91992,-1.5664 -0.44965,-0.39122 -1.03095,-0.5879 -1.6582,-0.5879 -0.49327,0 -0.96783,0.14741 -1.38282,0.42188 -0.0574,0.0378 -0.0948,0.11978 -0.15039,0.16211 v -3.29883 a 0.50083506,0.50083506 0 0 0 -0.5,-0.5 z m -34.94336,0.002 a 0.50083506,0.50083506 0 0 0 -0.5,0.5 v 12.40625 a 0.50083506,0.50083506 0 0 0 0.5,0.5 h 3.48633 c 0.79997,0 1.48482,-0.11941 2.05273,-0.39648 a 0.50083506,0.50083506 0 0 0 0.004,0 c 0.55396,-0.27402 1.02574,-0.6843 1.40429,-1.20508 0.3857,-0.53084 0.68014,-1.21025 0.91016,-2.03906 a 0.50083506,0.50083506 0 0 0 0,-0.002 c 0.23433,-0.85058 0.34766,-1.82702 0.34766,-2.93359 0,-1.22007 -0.10596,-2.25558 -0.33008,-3.11524 -0.22035,-0.84559 -0.52822,-1.55487 -0.94336,-2.12304 -0.40324,-0.55219 -0.86629,-0.97022 -1.39649,-1.22266 -0.55052,-0.27061 -1.25446,-0.36914 -2.14843,-0.36914 z m 18.25781,0.24414 a 0.50083506,0.50083506 0 0 0 -0.32422,0.10547 l -1.76562,1.38867 a 0.50083506,0.50083506 0 0 0 -0.18946,0.39453 v 1.28516 h -0.31054 a 0.50083506,0.50083506 0 0 0 -0.5,0.5 v 1.89648 a 0.50083506,0.50083506 0 0 0 0.5,0.5 h 0.31054 v 3.41797 c 0,1.01356 0.0227,1.66848 0.11719,2.09961 0.10772,0.52388 0.33791,0.9781 0.70313,1.29883 0.37266,0.32731 0.8697,0.47852 1.40625,0.47852 0.59138,0 1.14938,-0.13834 1.63671,-0.42188 a 0.50083506,0.50083506 0 0 0 0.24805,-0.47461 l -0.12305,-1.46289 c 0.10999,0.52063 0.15494,1.08209 0.48047,1.46484 a 0.50083506,0.50083506 0 0 0 0.002,0.002 c 0.49678,0.57732 1.19634,0.89258 1.96679,0.89258 0.4712,0 0.9302,-0.12209 1.34375,-0.36133 0.15761,-0.09 0.27892,-0.26646 0.42383,-0.38672 l 0.0371,0.1582 a 0.50083506,0.50083506 0 0 0 0.48828,0.38672 h 1.74219 a 0.50083506,0.50083506 0 0 0 0.4707,-0.66797 c -0.14362,-0.40225 -0.23646,-0.77342 -0.28711,-1.11328 v -0.002 c -0.0487,-0.33562 -0.0801,-0.90364 -0.0801,-1.66797 v -0.002 l 0.0156,-2.77344 a 0.50083506,0.50083506 0 0 0 0,-0.002 c 0,-1.07532 -0.0608,-1.81901 -0.29102,-2.36133 v -0.002 c -0.209,-0.49704 -0.57578,-0.9044 -1.04882,-1.18359 -0.46058,-0.27175 -1.07214,-0.35383 -1.76368,-0.375 a 0.50083506,0.50083506 0 0 0 -0.19336,-0.041 0.50083506,0.50083506 0 0 0 -0.27929,0.0898 c -0.77223,0.0495 -1.48671,0.19764 -1.98047,0.63867 -0.55793,0.49727 -0.90624,1.25391 -1.11328,2.22461 a 0.50083506,0.50083506 0 0 0 0.37109,0.58984 l 1.59766,0.38867 a 0.50083506,0.50083506 0 0 0 0.60351,-0.36132 c 0.0994,-0.38514 0.23401,-0.59424 0.28125,-0.63672 0.0745,-0.0635 0.18896,-0.11328 0.41993,-0.11328 0.25625,0 0.40807,0.0491 0.45898,0.0801 a 0.50083506,0.50083506 0 0 0 0.0176,0.0117 c 0.0934,0.0518 0.11303,0.0819 0.1289,0.12305 a 0.50083506,0.50083506 0 0 0 0.006,0.0195 c -0.008,-0.0151 0.0163,0.26194 0.0352,0.43164 -0.28346,0.12662 -0.64815,0.27326 -1.30469,0.44141 a 0.50083506,0.50083506 0 0 0 -0.002,0 c -0.70587,0.18368 -1.24017,0.39075 -1.63672,0.68359 -0.37833,0.27931 -0.67229,0.65828 -0.87109,1.10547 -0.20183,0.45396 -0.29493,0.96829 -0.29493,1.53125 0,0.0151 0.0117,0.022 0.0117,0.0371 a 0.50083506,0.50083506 0 0 0 -0.50781,-0.0371 c -0.25058,0.1251 -0.40329,0.15493 -0.4375,0.16211 0.008,0.0151 -0.012,-0.0872 -0.0195,-0.27734 -0.008,-0.21544 -0.0156,-0.51967 -0.0156,-0.90821 v -3.12304 h 0.69921 a 0.50083506,0.50083506 0 0 0 0.5,-0.5 v -1.89649 a 0.50083506,0.50083506 0 0 0 -0.5,-0.5 h -0.69921 v -2.67383 a 0.50083506,0.50083506 0 0 0 -0.48633,-0.5 z m 52.78125,0 a 0.50083506,0.50083506 0 0 0 -0.32422,0.10547 l -1.76562,1.38867 a 0.50083506,0.50083506 0 0 0 -0.18946,0.39453 v 1.28516 h -0.30859 a 0.50083506,0.50083506 0 0 0 -0.5,0.5 v 1.89648 a 0.50083506,0.50083506 0 0 0 0.5,0.5 h 0.30859 v 3.41797 c 0,1.01356 0.0227,1.66844 0.11719,2.09961 0.10772,0.52384 0.33791,0.9781 0.70313,1.29883 0.37379,0.32806 0.87169,0.47852 1.4082,0.47852 0.59142,0 1.14804,-0.13872 1.63476,-0.42188 a 0.50083506,0.50083506 0 0 0 0.24805,-0.47461 l -0.15234,-1.8457 a 0.50083506,0.50083506 0 0 0 -0.72266,-0.40625 c -0.25058,0.1251 -0.40326,0.15493 -0.4375,0.16211 0.008,0.0151 -0.012,-0.0872 -0.0195,-0.27735 -0.008,-0.21543 -0.0137,-0.52008 -0.0137,-0.9082 v -3.12305 h 0.69922 a 0.50083506,0.50083506 0 0 0 0.5,-0.5 v -1.89648 a 0.50083506,0.50083506 0 0 0 -0.5,-0.5 h -0.69922 v -2.67383 a 0.50083506,0.50083506 0 0 0 -0.48633,-0.5 z m -68.68945,2.85352 h 0.34179 c 0.72779,0 1.2278,0.0525 1.36719,0.0918 a 0.50083506,0.50083506 0 0 0 0.004,0 c 0.24302,0.0673 0.43433,0.19503 0.61719,0.42774 a 0.50083506,0.50083506 0 0 0 0.004,0.008 c 0.17953,0.22337 0.33486,0.56389 0.43555,1.04102 a 0.50083506,0.50083506 0 0 0 0.002,0.004 c 0.10394,0.47078 0.16406,1.16997 0.16406,2.06836 0,0.86483 -0.0569,1.55056 -0.1582,2.03906 -0.10469,0.50669 -0.24347,0.85325 -0.35156,1.01172 a 0.50083506,0.50083506 0 0 0 0,0.002 c -0.12057,0.17801 -0.26114,0.29745 -0.45117,0.38476 a 0.50083506,0.50083506 0 0 0 -0.004,0.002 c -0.13493,0.0631 -0.51935,0.14062 -1.08008,0.14062 h -0.89062 z m 9.45117,0.11718 c -1.00452,0 -1.88971,0.49009 -2.50195,1.35352 a 0.50083506,0.50083506 0 0 0 -0.002,0 c -0.71229,1.00966 -1.04492,2.32289 -1.04492,3.89453 0,1.59254 0.3288,2.89163 1.04688,3.85352 0.62173,0.84344 1.57237,1.29297 2.67773,1.29297 0.81097,0 1.5514,-0.2627 2.13477,-0.7754 a 0.50083506,0.50083506 0 0 0 0.002,-0.002 c 0.59206,-0.52717 0.99337,-1.29751 1.24414,-2.26367 a 0.50083506,0.50083506 0 0 0 -0.37305,-0.61328 l -1.57031,-0.35742 h 1.55078 a 0.50083506,0.50083506 0 0 0 0.5,-0.48438 l 0.008,-0.27148 a 0.50083506,0.50083506 0 0 0 0,-0.0156 c 0,-1.79622 -0.31143,-3.2119 -1.01953,-4.22851 l -0.002,-0.002 c -0.59851,-0.86126 -1.50388,-1.33799 -2.54688,-1.36914 a 0.50083506,0.50083506 0 0 0 -0.10351,-0.0117 z m 18.84765,0 c -1.10305,0 -2.06931,0.50343 -2.74218,1.41407 -0.68221,0.92489 -0.98242,2.2046 -0.98242,3.80859 0,1.35451 0.27815,2.54868 0.85351,3.55078 0.59887,1.04308 1.62177,1.6211 2.84766,1.6211 0.95493,0 1.79816,-0.32695 2.40625,-0.96875 0.60809,-0.64165 0.97929,-1.55308 1.16797,-2.69922 a 0.50083506,0.50083506 0 0 0 -0.38282,-0.57032 l -1.73437,-0.39648 a 0.50083506,0.50083506 0 0 0 -0.60742,0.41797 c -0.0847,0.59104 -0.24101,0.95746 -0.34571,1.08203 -0.12888,0.14816 -0.23209,0.19727 -0.43554,0.19727 -0.27742,0 -0.43152,-0.0835 -0.63282,-0.41797 -0.17234,-0.28649 -0.32617,-0.97672 -0.32617,-2.00196 0,-0.91933 0.15087,-1.52937 0.31641,-1.7832 0.19616,-0.30085 0.35224,-0.38281 0.62891,-0.38281 0.21959,0 0.31181,0.0481 0.42187,0.17773 0.10998,0.12964 0.22531,0.38757 0.28125,0.80078 a 0.50083506,0.50083506 0 0 0 0.61523,0.41993 l 1.73438,-0.42188 a 0.50083506,0.50083506 0 0 0 0.37109,-0.5918 c -0.22715,-1.05422 -0.61127,-1.88014 -1.21093,-2.43554 -0.58594,-0.54751 -1.36673,-0.82032 -2.24415,-0.82032 z m 15.70508,0 c -0.50067,0 -0.98525,0.15345 -1.40625,0.44141 -0.0673,0.0461 -0.11153,0.14278 -0.17578,0.19531 a 0.50083506,0.50083506 0 0 0 -0.49609,-0.43359 h -1.6211 a 0.50083506,0.50083506 0 0 0 -0.5,0.5 l 0.002,8.98828 a 0.50083506,0.50083506 0 0 0 0.5,0.5 h 1.76562 a 0.50083506,0.50083506 0 0 0 0.5,-0.5 v -4.36719 c 0,-0.86207 0.0575,-1.47112 0.12891,-1.74218 a 0.50083506,0.50083506 0 0 0 0,-0.002 c 0.0786,-0.30312 0.19483,-0.48572 0.32031,-0.5957 0.14551,-0.12775 0.24907,-0.16406 0.38672,-0.16406 0.22639,0 0.22173,-0.004 0.29883,0.2207 0.0389,0.11414 0.11914,0.7648 0.11914,1.72461 v 4.92578 a 0.50083506,0.50083506 0 0 0 0.5,0.5 h 1.76562 a 0.50083506,0.50083506 0 0 0 0.5,-0.5 v -4.31641 c 0,-1.17426 0.16031,-1.94971 0.29297,-2.17773 a 0.50083506,0.50083506 0 0 0 0,-0.002 c 0.18066,-0.31484 0.29783,-0.375 0.51367,-0.375 0.18936,0 0.19124,0.002 0.26758,0.16211 a 0.50083506,0.50083506 0 0 0 0,0.004 c 0.0541,0.1115 0.16407,0.69741 0.16407,1.56836 v 5.13672 a 0.50083506,0.50083506 0 0 0 0.5,0.5 h 1.76562 a 0.50083506,0.50083506 0 0 0 0.5,-0.5 v -5.74609 c 0,-0.9549 -0.0779,-1.67973 -0.29297,-2.23438 -0.1954,-0.51677 -0.50333,-0.95159 -0.92187,-1.25195 -0.415,-0.3069 -0.9228,-0.45899 -1.46289,-0.45899 -0.48556,0 -0.95747,0.15608 -1.3711,0.44336 a 0.50083506,0.50083506 0 0 0 -0.004,0.002 c -0.23547,0.16592 -0.41986,0.45855 -0.62305,0.70312 -0.16365,-0.23811 -0.28687,-0.52895 -0.50586,-0.69336 -0.39889,-0.30312 -0.8913,-0.45508 -1.41016,-0.45508 z m 10.38672,0 c -1.00452,0 -1.88974,0.49005 -2.50195,1.35352 a 0.50083506,0.50083506 0 0 0 -0.002,0 c -0.71233,1.00966 -1.04493,2.32289 -1.04493,3.89453 0,1.59254 0.32881,2.89163 1.04688,3.85352 0.62173,0.84344 1.57237,1.29297 2.67773,1.29297 0.8109,0 1.55136,-0.2627 2.13477,-0.7754 a 0.50083506,0.50083506 0 0 0 0.002,-0.002 c 0.59157,-0.52671 0.99513,-1.29683 1.2461,-2.26367 a 0.50083506,0.50083506 0 0 0 -0.37305,-0.61328 l -1.57227,-0.35742 h 1.55078 a 0.50083506,0.50083506 0 0 0 0.5,-0.48438 l 0.008,-0.27148 a 0.50083506,0.50083506 0 0 0 0,-0.0156 c 0,-1.79626 -0.31144,-3.2119 -1.01953,-4.22851 l -0.002,-0.002 c -0.59733,-0.85966 -1.50054,-1.33632 -2.54101,-1.36914 a 0.50083506,0.50083506 0 0 0 -0.10938,-0.0117 z m 8.41602,0 a 0.50083506,0.50083506 0 0 0 -0.27149,0.084 c -0.43351,0.0476 -0.86447,0.13267 -1.22851,0.38476 a 0.50083506,0.50083506 0 0 0 -0.002,0.002 c -0.0748,0.0525 -0.12072,0.16256 -0.1914,0.22265 a 0.50083506,0.50083506 0 0 0 -0.5,-0.49023 h -1.63672 a 0.50083506,0.50083506 0 0 0 -0.5,0.5 v 8.98828 a 0.50083506,0.50083506 0 0 0 0.5,0.5 h 1.76562 a 0.50083506,0.50083506 0 0 0 0.5,-0.5 v -4.07031 c 0,-1.01647 0.0621,-1.71605 0.13086,-1.98047 0.0775,-0.29745 0.19421,-0.48741 0.34766,-0.62109 a 0.50083506,0.50083506 0 0 0 0.008,-0.004 c 0.16328,-0.14627 0.2952,-0.19531 0.46875,-0.19531 0.10885,0 0.1729,0.0226 0.27344,0.11523 a 0.50083506,0.50083506 0 0 0 0.004,0.004 c 0.0918,0.082 0.16886,0.20715 0.21875,0.43554 0.0438,0.2007 0.0879,0.82019 0.0879,1.72852 v 4.58789 a 0.50083506,0.50083506 0 0 0 0.5,0.5 h 1.76562 a 0.50083506,0.50083506 0 0 0 0.5,-0.5 v -5.58594 c 0,-0.90425 -0.0632,-1.60661 -0.22461,-2.15234 -0.15685,-0.55211 -0.46228,-1.02885 -0.89258,-1.38477 -0.36132,-0.30652 -0.83905,-0.40551 -1.32226,-0.46289 a 0.50083506,0.50083506 0 0 0 -0.29883,-0.10547 z m -53.24805,2.82032 c 0.18293,0 0.31297,0.0578 0.50391,0.32422 a 0.50083506,0.50083506 0 0 0 0.002,0.004 c 0.099,0.13569 0.12923,0.49455 0.18555,0.7793 h -1.39844 c 0.0499,-0.27742 0.0689,-0.61344 0.17773,-0.76953 a 0.50083506,0.50083506 0 0 0 0.002,-0.002 c 0.19011,-0.27363 0.32049,-0.33593 0.52734,-0.33593 z m 44.93945,0 c 0.18293,0 0.31293,0.0578 0.50391,0.32422 a 0.50083506,0.50083506 0 0 0 0.002,0.004 c 0.099,0.13569 0.12924,0.49455 0.18555,0.7793 h -1.39844 c 0.0499,-0.27742 0.0689,-0.61344 0.17774,-0.76953 a 0.50083506,0.50083506 0 0 0 0.002,-0.002 c 0.19011,-0.27363 0.32053,-0.33593 0.52734,-0.33593 z m -33.02539,3.26172 c -0.0189,0.46958 -0.0557,0.90348 -0.0938,1.00586 a 0.50083506,0.50083506 0 0 0 -0.004,0.0117 c -0.0575,0.16328 -0.15648,0.30237 -0.33789,0.44532 -0.17613,0.13304 -0.31143,0.17578 -0.43555,0.17578 -0.14135,0 -0.20163,-0.0301 -0.30859,-0.15821 -0.1081,-0.14135 -0.16797,-0.30614 -0.16797,-0.56054 0,-0.21241 0.0469,-0.32052 0.1289,-0.41406 0.0378,-0.0427 0.32504,-0.22678 0.82813,-0.37305 l 0.002,-0.002 c 0.16819,-0.048 0.24872,-0.0866 0.38867,-0.13086 z m -12.64257,0.30078 h 1.7207 a 0.50083506,0.50083506 0 0 0 -0.26563,0.34179 c -0.0831,0.37758 -0.20629,0.61944 -0.3125,0.74024 -0.1062,0.12057 -0.1736,0.15234 -0.33007,0.15234 -0.2264,0 -0.38708,-0.0799 -0.60157,-0.37695 0,0 -0.002,0 -0.002,0 -0.12095,-0.17235 -0.15116,-0.54293 -0.20898,-0.85742 z m 44.9414,0 h 1.7168 a 0.50083506,0.50083506 0 0 0 -0.26367,0.34179 c -0.0832,0.37758 -0.2063,0.61944 -0.3125,0.74024 -0.10621,0.12057 -0.17361,0.15234 -0.33008,0.15234 -0.22602,0 -0.38456,-0.0788 -0.59961,-0.37695 0,0 -0.002,0 -0.002,0 -0.12095,-0.17235 -0.15116,-0.54293 -0.20899,-0.85742 z"
       inkscape:export-xdpi="300"
       inkscape:export-ydpi="300" />
  </g>
  <g
     inkscape:label="Layer 1"
     inkscape:groupmode="layer"
     id="layer1"
     style="display:none;opacity:0.357616"
     sodipodi:insensitive="true" />
</svg>
