<?xml version="1.0" encoding="UTF-8" standalone="no"?>
<svg
   xmlns:dc="http://purl.org/dc/elements/1.1/"
   xmlns:cc="http://creativecommons.org/ns#"
   xmlns:rdf="http://www.w3.org/1999/02/22-rdf-syntax-ns#"
   xmlns:svg="http://www.w3.org/2000/svg"
   xmlns="http://www.w3.org/2000/svg"
   xmlns:xlink="http://www.w3.org/1999/xlink"
   xmlns:sodipodi="http://sodipodi.sourceforge.net/DTD/sodipodi-0.dtd"
   xmlns:inkscape="http://www.inkscape.org/namespaces/inkscape"
   inkscape:export-ydpi="300"
   inkscape:export-xdpi="300"
   inkscape:export-filename="D:\Titipan\Projects\Codes\Rhodes Wiki Indo\Icon Assets\Lee_B.png"
   width="1280"
   height="1280"
   viewBox="0 0 338.66666 338.66668"
   version="1.1"
   id="svg8"
   inkscape:version="1.0.2 (e86c870879, 2021-01-15, custom)"
   sodipodi:docname="UrsusStudent_Z.svg">
  <defs
     id="defs2">
    <pattern
       inkscape:collect="always"
       xlink:href="#pattern4166"
       id="pattern4174"
       patternTransform="translate(-51.833686,-17.277895)" />
    <inkscape:path-effect
       end_linecap_type="zerowidth"
       scale_width="1"
       miter_limit="4"
       linejoin_type="extrp_arc"
       start_linecap_type="zerowidth"
       interpolator_beta="0.2"
       interpolator_type="CubicBezierJohan"
       sort_points="true"
       offset_points="0,3.40217"
       lpeversion="1"
       is_visible="true"
       id="path-effect892"
       effect="powerstroke" />
    <inkscape:path-effect
       end_linecap_type="zerowidth"
       scale_width="1"
       miter_limit="4"
       linejoin_type="extrp_arc"
       start_linecap_type="zerowidth"
       interpolator_beta="0.2"
       interpolator_type="CubicBezierJohan"
       sort_points="true"
       offset_points="0,3.40217"
       lpeversion="1"
       is_visible="true"
       id="path-effect887"
       effect="powerstroke" />
    <inkscape:path-effect
       end_linecap_type="zerowidth"
       scale_width="1"
       miter_limit="4"
       linejoin_type="extrp_arc"
       start_linecap_type="zerowidth"
       interpolator_beta="0.2"
       interpolator_type="CubicBezierJohan"
       sort_points="true"
       offset_points="2.7941224,-3.4021738 | 2.7941224,-3.4021738"
       lpeversion="1"
       is_visible="true"
       id="path-effect882"
       effect="powerstroke" />
    <inkscape:path-effect
       end_linecap_type="zerowidth"
       scale_width="1"
       miter_limit="4"
       linejoin_type="extrp_arc"
       start_linecap_type="zerowidth"
       interpolator_beta="0.2"
       interpolator_type="CubicBezierJohan"
       sort_points="true"
       offset_points="0,3.01003"
       lpeversion="1"
       is_visible="true"
       id="path-effect877"
       effect="powerstroke" />
    <inkscape:path-effect
       end_linecap_type="zerowidth"
       scale_width="1"
       miter_limit="4"
       linejoin_type="extrp_arc"
       start_linecap_type="zerowidth"
       interpolator_beta="0.2"
       interpolator_type="CubicBezierJohan"
       sort_points="true"
       offset_points="0,3.01003"
       lpeversion="1"
       is_visible="true"
       id="path-effect872"
       effect="powerstroke" />
    <inkscape:path-effect
       end_linecap_type="zerowidth"
       scale_width="1"
       miter_limit="4"
       linejoin_type="extrp_arc"
       start_linecap_type="zerowidth"
       interpolator_beta="0.2"
       interpolator_type="CubicBezierJohan"
       sort_points="true"
       offset_points="11.631982,3.0100329"
       lpeversion="1"
       is_visible="true"
       id="path-effect868"
       effect="powerstroke" />
    <inkscape:path-effect
       end_linecap_type="zerowidth"
       scale_width="1"
       miter_limit="4"
       linejoin_type="extrp_arc"
       start_linecap_type="zerowidth"
       interpolator_beta="0.2"
       interpolator_type="CubicBezierJohan"
       sort_points="true"
       offset_points="156.61386,0.938298"
       lpeversion="1"
       is_visible="true"
       id="path-effect864"
       effect="powerstroke" />
    <pattern
       patternUnits="userSpaceOnUse"
       width="34.555802"
       height="34.555802"
       patternTransform="translate(697.97451,522.68951)"
       id="pattern4166">
      <circle
         r="5.0119109"
         cy="17.277901"
         cx="5.0119109"
         id="path4156"
         style="opacity:1;fill:#000000;fill-opacity:1;stroke:none;stroke-width:2.83465;stroke-miterlimit:4;stroke-dasharray:none;stroke-opacity:1" />
      <circle
         style="opacity:1;fill:#000000;fill-opacity:1;stroke:none;stroke-width:2.83465;stroke-miterlimit:4;stroke-dasharray:none;stroke-opacity:1"
         id="circle4160"
         cx="29.543892"
         cy="17.277901"
         r="5.0119109" />
      <circle
         style="opacity:1;fill:#000000;fill-opacity:1;stroke:none;stroke-width:2.83465;stroke-miterlimit:4;stroke-dasharray:none;stroke-opacity:1"
         id="circle4162"
         cx="17.277901"
         cy="29.543892"
         r="5.0119109" />
      <circle
         r="5.0119109"
         cy="5.0119109"
         cx="17.277901"
         id="circle4164"
         style="opacity:1;fill:#000000;fill-opacity:1;stroke:none;stroke-width:2.83465;stroke-miterlimit:4;stroke-dasharray:none;stroke-opacity:1" />
    </pattern>
    <pattern
       patternUnits="userSpaceOnUse"
       width="48.869282"
       height="48.869282"
       patternTransform="translate(690.81773,515.53278)"
       id="pattern4176">
      <rect
         id="rect4172"
         y="-17.277901"
         x="-51.833702"
         height="34.555801"
         width="34.555801"
         transform="rotate(-135)"
         style="display:inline;fill:url(#pattern4174);stroke:none;stroke-width:0.999999" />
    </pattern>
  </defs>
  <sodipodi:namedview
     inkscape:snap-bbox-midpoints="false"
     inkscape:snap-bbox="false"
     inkscape:snap-midpoints="true"
     inkscape:guide-bbox="true"
     showguides="true"
     inkscape:snap-global="false"
     id="base"
     pagecolor="#910000"
     bordercolor="#666666"
     borderopacity="1.0"
     inkscape:pageopacity="0"
     inkscape:pageshadow="2"
     inkscape:zoom="0.41580723"
     inkscape:cx="515.91908"
     inkscape:cy="618.07487"
     inkscape:document-units="mm"
     inkscape:current-layer="layer1"
     inkscape:document-rotation="0"
     showgrid="false"
     units="px"
     inkscape:pagecheckerboard="false" />
  <metadata
     id="metadata5">
    <rdf:RDF>
      <cc:Work
         rdf:about="">
        <dc:format>image/svg+xml</dc:format>
        <dc:type
           rdf:resource="http://purl.org/dc/dcmitype/StillImage" />
        <dc:title></dc:title>
      </cc:Work>
    </rdf:RDF>
  </metadata>
  <g
     style="display:inline"
     inkscape:groupmode="layer"
     id="layer3"
     inkscape:label="Objects">
    <path
       id="circle1329"
       style="display:inline;opacity:1;fill:#000000;fill-opacity:1;stroke:none;stroke-width:7.55909;stroke-linecap:round;stroke-linejoin:round;stroke-miterlimit:4;stroke-dasharray:none;stroke-opacity:1;paint-order:normal"
       d="m 640.26367,314.9043 a 306.10151,306.10151 0 0 0 -297.67773,234.97851 306.10151,306.10151 0 0 0 226.60156,368.84571 306.10151,306.10151 0 0 0 55.36914,7.97265 L 623.54102,908.2207 A 287.70477,287.70477 0 0 1 573.46094,900.83594 287.70477,287.70477 0 0 1 360.48047,554.15625 287.70477,287.70477 0 0 1 639.5293,333.30078 a 287.70477,287.70477 0 0 1 67.6289,7.87305 287.70477,287.70477 0 0 1 212.98242,346.67969 287.70477,287.70477 0 0 1 -264.08789,220.42382 l -5.20703,18.64649 A 306.10151,306.10151 0 0 0 938.03516,692.12891 306.10151,306.10151 0 0 0 711.43359,323.28125 306.10151,306.10151 0 0 0 640.26367,314.9043 Z m -0.43555,25.19922 A 280.9025,280.9025 0 0 0 367.0957,555.73633 280.9025,280.9025 0 0 0 575.04297,894.2207 a 280.9025,280.9025 0 0 0 48.12305,7.16211 l -4.37891,-79.70117 A 201.82629,201.82629 0 0 1 593.41602,817.30859 201.82629,201.82629 0 0 1 444.00781,574.11133 201.82629,201.82629 0 0 1 633.79883,419.28516 l 16.66601,-14 8.57813,-6.74024 c -1.57201,-3.02052 -2.07332,-6.80154 -1.4668,-11.36719 0.35369,-2.66237 1.08703,-5.02183 2.20313,-7.08203 1.11609,-2.06018 2.52643,-3.76282 4.23047,-5.10742 1.70406,-1.34459 3.65115,-2.29236 5.84179,-2.84375 2.19362,-0.57376 4.54501,-0.69421 7.05078,-0.36133 1.74509,0.23184 3.36096,0.57134 4.84961,1.01953 1.48866,0.44821 2.89032,1.04352 4.20313,1.78711 l -0.74024,5.57032 c -1.35319,-0.95388 -2.76933,-1.69865 -4.24609,-2.23633 -1.45144,-0.5571 -2.98292,-0.94226 -4.59375,-1.15625 -1.49899,-0.19913 -2.95731,-0.0967 -4.37695,0.30664 -1.3943,0.38397 -2.66695,1.04422 -3.81641,1.98437 -1.14943,0.94015 -2.11752,2.14488 -2.9043,3.61133 -0.78677,1.46643 -1.30783,3.17269 -1.5664,5.11914 -0.51063,3.84377 -0.0122,6.88583 1.47265,9.14844 l 9.08985,3.24609 0.61133,1.41797 c 1.04201,0.0573 2.07039,0.0394 3.08398,-0.0684 1.54653,-0.15874 3.06076,-0.5034 4.54297,-1.03515 l -0.7207,5.43554 c -1.56376,0.37131 -3.15216,0.58626 -4.76172,0.64649 l 7.54492,17.51367 a 201.82629,201.82629 0 0 1 2.63086,0.60937 201.82629,201.82629 0 0 1 59.7832,24.97461 l 9.76172,-1.02734 2.54688,9.33399 a 201.82629,201.82629 0 0 1 77.3164,209.91601 201.82629,201.82629 0 0 1 -155.54492,150.77149 l -23.08203,82.67968 A 280.9025,280.9025 0 0 0 913.52539,686.27344 280.9025,280.9025 0 0 0 705.57812,347.79102 a 280.9025,280.9025 0 0 0 -65.75,-7.6875 z m -11.58789,16.45117 c 0.11188,1.32689 -0.0465,2.52929 -0.47656,3.60742 -0.40756,1.07623 -1.04087,2.02386 -1.90039,2.84375 -0.8389,0.7955 -1.88312,1.43735 -3.13281,1.92773 -1.24969,0.49039 -2.65135,0.80278 -4.20313,0.9336 -1.79918,0.15166 -3.35578,0.0887 -4.66992,-0.18555 -1.31411,-0.27426 -2.41774,-0.73524 -3.31054,-1.38476 -0.87219,-0.67391 -1.54221,-1.51138 -2.01172,-2.51368 -0.46955,-1.00229 -0.7612,-2.16725 -0.87305,-3.49414 l 5.33008,-0.44922 c 0.0549,0.6522 0.18575,1.25182 0.39062,1.80078 0.20485,0.54898 0.50659,1.03367 0.9043,1.45313 0.41837,0.39507 0.951,0.69046 1.60156,0.88477 0.65056,0.19429 1.44998,0.25149 2.39453,0.17187 0.96706,-0.0815 1.75443,-0.27374 2.36328,-0.57422 0.63136,-0.30236 1.1205,-0.68304 1.4668,-1.14258 0.34439,-0.48202 0.57161,-1.01042 0.68164,-1.58593 0.11011,-0.57551 0.13696,-1.1896 0.082,-1.8418 z m 3.86719,12.82226 2.85547,33.86914 -5.87109,0.49414 -2.00977,-23.84961 -12.76562,25.09571 -5.59961,0.4707 -2.85547,-33.86914 5.87109,-0.49414 2.00977,23.84961 12.76562,-25.0957 z M 594.0332,373.5 l 7.94727,33.04883 -5.72852,1.37695 -5.5957,-23.27148 -8.82031,26.73828 -5.46485,1.3125 -7.94531,-33.04688 5.72656,-1.37695 5.59571,23.27148 8.82226,-26.73828 z m 114.20313,5.50391 c 1.6825,-0.0139 3.44078,0.25305 5.27344,0.80078 2.33542,0.698 4.31137,1.68809 5.92968,2.97265 1.64642,1.26942 2.89817,2.7971 3.75391,4.58399 0.88383,1.77174 1.35048,3.79601 1.40039,6.07226 0.0716,2.28276 -0.29231,4.76587 -1.09375,7.44727 -0.75616,2.53004 -1.8093,4.74841 -3.15625,6.6543 -1.34052,1.88427 -2.90611,3.38114 -4.69922,4.49414 -1.78663,1.09137 -3.76871,1.77287 -5.94531,2.04101 -2.17016,0.24643 -4.47638,0.004 -6.91992,-0.72656 -2.33542,-0.698 -4.32625,-1.68178 -5.97266,-2.95117 -1.61832,-1.28459 -2.86676,-2.82383 -3.74414,-4.61719 -0.85574,-1.78688 -1.31909,-3.82078 -1.39062,-6.10351 -0.0499,-2.27629 0.32885,-4.76574 1.13671,-7.46876 0.75616,-2.53004 1.80075,-4.72719 3.13477,-6.58984 1.34052,-1.88427 2.90477,-3.37151 4.69141,-4.46289 1.7931,-1.11299 3.77515,-1.79254 5.94531,-2.03906 0.54415,-0.067 1.09541,-0.10279 1.65625,-0.10742 z m -148.52344,3.23437 -8.84961,20.5332 22.49219,10.61133 -7.49219,3.05469 -21.54687,-10.88867 6.875,16.86719 -5.45508,2.22265 -12.82813,-31.47656 5.45508,-2.22266 5.86524,14.39063 8.27539,-20.15235 z m 149.61133,1.81836 c -0.7745,-0.0489 -1.51505,0.002 -2.2207,0.15625 -1.38324,0.29327 -2.62825,0.87592 -3.73633,1.74609 -1.08647,0.87663 -2.03472,1.99489 -2.8418,3.35547 -0.77901,1.34541 -1.4065,2.81777 -1.88477,4.41797 -0.60104,2.01106 -0.9117,3.83949 -0.93164,5.48242 0.002,1.64944 0.26133,3.10526 0.7793,4.36719 0.52442,1.24029 1.29208,2.29413 2.30469,3.16211 1.01906,0.84636 2.26394,1.48825 3.73437,1.92774 1.68671,0.50411 3.22227,0.60962 4.60547,0.3164 1.4113,-0.30843 2.65963,-0.90069 3.7461,-1.77734 1.10808,-0.87018 2.05302,-1.97686 2.83203,-3.32227 0.80708,-1.36058 1.45276,-2.85279 1.9375,-4.47461 0.60104,-2.01106 0.89683,-3.83119 0.88867,-5.45898 0.0202,-1.64294 -0.23119,-3.08391 -0.75586,-4.32422 -0.51797,-1.26193 -1.29721,-2.31906 -2.33789,-3.17188 -1.01259,-0.86798 -2.24452,-1.51816 -3.69336,-1.95117 -0.84334,-0.25205 -1.65129,-0.40222 -2.42578,-0.45117 z m 26.85351,3.82813 5,2.41601 -6.24804,12.92383 5.54687,2.68164 c 1.27118,-2.31846 2.53847,-4.21316 3.80078,-5.68359 1.29248,-1.48092 2.62597,-2.55436 4,-3.21875 1.38387,-0.68473 2.81766,-0.98184 4.30274,-0.89063 1.4949,0.0708 3.06505,0.50507 4.71094,1.30078 1.84909,0.89389 3.2408,1.95449 4.17578,3.1836 0.94483,1.20876 1.4842,2.6357 1.61718,4.27929 0.13304,1.64359 -0.11443,3.53003 -0.74218,5.65821 -0.62768,2.12817 -1.59396,4.54358 -2.90039,7.24609 -2.65217,5.48631 -5.41984,9.13607 -8.30274,10.95117 -2.8829,1.81508 -6.14208,1.84407 -9.77929,0.0859 -1.93039,-0.93317 -3.36001,-2.024 -4.28516,-3.27344 -0.92518,-1.24941 -1.45363,-2.6725 -1.58594,-4.26562 -0.13228,-1.59312 0.0881,-3.34076 0.6582,-5.2461 0.57013,-1.90533 1.38898,-3.99056 2.45899,-6.25586 l -5.54688,-2.68164 -6.67382,13.80664 -5,-2.41601 z m -213.97265,11.86718 2.87695,4.82813 c -1.65306,0.0915 -3.22697,0.38437 -4.71875,0.8789 -1.48394,0.4636 -2.92228,1.10981 -4.31836,1.94141 -1.29915,0.77382 -2.38102,1.7599 -3.24414,2.95703 -0.85528,1.16621 -1.4416,2.47533 -1.75976,3.92578 -0.31819,1.45049 -0.3318,2.99462 -0.0391,4.63282 0.29279,1.63822 0.94242,3.30132 1.94727,4.98828 2.10205,3.52902 4.53169,5.66594 7.28906,6.41406 2.7652,0.71718 5.67056,0.17071 8.71484,-1.64258 1.37671,-0.82006 2.61208,-1.76731 3.70704,-2.83984 1.11433,-1.08407 2.08731,-2.29429 2.91992,-3.63086 l 2.80664,4.71094 c -1.01823,1.28952 -2.15656,2.46698 -3.41406,3.53125 -1.22656,1.0721 -2.57517,2.04799 -4.04883,2.92578 -4.61488,2.74885 -8.9189,3.61687 -12.91016,2.60547 -3.97185,-1.02297 -7.38955,-3.93928 -10.2539,-8.74805 -1.37442,-2.30745 -2.26312,-4.61565 -2.66602,-6.92383 -0.4029,-2.30818 -0.35374,-4.51713 0.14844,-6.62891 0.5022,-2.11174 1.44241,-4.06389 2.81836,-5.85546 1.36438,-1.81095 3.13101,-3.36267 5.30273,-4.65625 1.51244,-0.90089 2.99193,-1.63689 4.4375,-2.20899 1.44559,-0.57209 2.91338,-0.97374 4.4043,-1.20508 z m 230.93164,1.13086 c -0.20517,-0.01 -0.40914,-0.005 -0.61328,0.0156 -0.79622,0.0915 -1.62931,0.49118 -2.49805,1.19922 -0.84843,0.7179 -1.74686,1.77624 -2.69727,3.17187 -0.93006,1.40543 -1.93126,3.21486 -3.00195,5.42969 -1.16893,2.41804 -2.01924,4.43832 -2.55273,6.06055 -0.50339,1.61169 -0.75434,2.95707 -0.75,4.03711 0.005,1.08001 0.23382,1.93096 0.68554,2.55078 0.48257,0.60928 1.13059,1.10903 1.94336,1.50195 0.87375,0.42237 1.71861,0.59328 2.53516,0.51172 0.81653,-0.0816 1.64962,-0.48136 2.49805,-1.19922 0.8484,-0.71793 1.72693,-1.78396 2.63672,-3.19922 0.93009,-1.40543 1.93128,-3.21681 3.00195,-5.43164 2.04316,-4.22649 3.13078,-7.40902 3.26367,-9.55078 0.14261,-2.16209 -0.72054,-3.69593 -2.58984,-4.59961 -0.62483,-0.30206 -1.24581,-0.46843 -1.86133,-0.49805 z m 20.63672,7.14453 c 0.87428,0.36493 1.79733,0.77716 2.76953,1.23828 0.99069,0.47411 1.97112,0.98293 2.94141,1.5254 0.97028,0.54248 1.91786,1.0956 2.84374,1.6621 0.94438,0.57946 1.82362,1.15451 2.63672,1.72461 2.18061,1.5289 3.87151,2.99159 5.07227,4.38477 1.21371,1.37471 2.03717,2.69613 2.4707,3.96484 0.43354,1.26872 0.52386,2.47492 0.27149,3.6211 -0.25235,1.14615 -0.74781,2.24745 -1.48633,3.30078 -0.5442,0.77614 -1.17262,1.43567 -1.88672,1.98242 -0.70118,0.52828 -1.47743,0.9082 -2.32813,1.13867 -0.85069,0.23055 -1.77284,0.28734 -2.76562,0.16992 -0.97434,-0.10431 -2.01831,-0.42371 -3.13281,-0.95703 0.89423,0.8475 1.6422,1.74624 2.24609,2.69336 0.61685,0.92866 1.03011,1.89214 1.23828,2.89258 0.23962,0.99492 0.26332,2.00305 0.0703,3.02539 -0.17462,1.03529 -0.61286,2.05289 -1.3125,3.05078 -0.85516,1.21966 -1.89231,2.18785 -3.11133,2.9043 -1.18758,0.71095 -2.5825,1.07 -4.18555,1.07617 -1.59007,-0.0126 -3.41125,-0.42292 -5.46484,-1.22851 -2.05357,-0.80588 -4.35606,-2.10259 -6.90625,-3.89063 -0.68375,-0.47939 -1.42213,-1.03727 -2.21485,-1.67578 -0.78717,-0.60704 -1.59181,-1.26809 -2.41406,-1.98242 -0.81671,-0.68289 -1.61048,-1.37904 -2.38281,-2.08594 -0.75936,-0.72539 -1.44968,-1.42871 -2.07227,-2.11328 l 3.14649,-4.49219 c 0.65761,0.79186 1.39183,1.596 2.19921,2.41016 0.80736,0.81416 1.61683,1.60294 2.43165,2.36719 0.81479,0.76424 1.61281,1.47582 2.39257,2.13281 0.81119,0.65144 1.54958,1.20933 2.21485,1.67578 1.57077,1.10133 2.94567,1.91324 4.12304,2.43555 1.19587,0.53528 2.22674,0.83264 3.09571,0.89062 0.90041,0.0524 1.66828,-0.0987 2.30273,-0.45312 0.64743,-0.37299 1.21201,-0.9022 1.69141,-1.58594 0.46644,-0.66527 0.76681,-1.35034 0.90234,-2.05469 0.16681,-0.70987 0.0882,-1.48229 -0.23633,-2.31641 -0.30629,-0.82119 -0.8999,-1.70501 -1.77929,-2.65234 -0.87937,-0.94735 -2.12274,-1.9841 -3.73047,-3.11133 l -6.81836,-4.78125 2.62305,-3.74218 6.79101,4.76171 c 1.40445,0.98472 2.61622,1.69568 3.63281,2.13282 1.03509,0.45009 1.93365,0.68169 2.69727,0.69336 0.76359,0.0126 1.41261,-0.16682 1.94727,-0.53711 0.53462,-0.36939 1.02892,-0.87666 1.48242,-1.52344 0.44051,-0.62831 0.70803,-1.2671 0.80468,-1.91602 0.128,-0.65443 0.0409,-1.33653 -0.26171,-2.04492 -0.28974,-0.72685 -0.81287,-1.49405 -1.57032,-2.30078 -0.75746,-0.80673 -1.79146,-1.66991 -3.10351,-2.58984 -1.44141,-1.01062 -3.09397,-2.01586 -4.95508,-3.01758 -1.86114,-1.0017 -3.78664,-1.91161 -5.77734,-2.72852 z m -284.70703,14.83789 c 0.46153,0.0153 0.92065,0.0559 1.3789,0.125 1.83612,0.24467 3.62112,0.92632 5.35547,2.04297 1.73745,1.08485 3.3739,2.55928 4.90625,4.42578 0.52987,0.64542 0.9641,1.19412 1.30469,1.64454 0.34058,0.45041 0.65148,0.88252 0.93164,1.29492 l -18.44727,15.14453 c 2.20541,2.68636 4.65299,4.13728 7.3418,4.35351 2.6745,0.19881 5.4241,-0.86164 8.25,-3.18164 0.76755,-0.63012 1.51372,-1.28631 2.23828,-1.96875 0.71025,-0.69989 1.3805,-1.39606 2.00977,-2.08789 0.62929,-0.69183 1.21656,-1.36365 1.76172,-2.01562 0.5483,-0.68374 1.03746,-1.33394 1.46679,-1.94922 l 3.07032,3.74219 c -0.95209,1.36567 -2.1273,2.79671 -3.52539,4.29492 -1.36635,1.50133 -2.88594,2.93966 -4.56055,4.31445 -2.25026,1.84741 -4.43703,3.13221 -6.56055,3.85352 -2.12351,0.72131 -4.18202,0.93659 -6.17383,0.64453 -1.98868,-0.32381 -3.92204,-1.11569 -5.80273,-2.375 -1.87754,-1.29106 -3.69035,-3.00076 -5.4375,-5.12891 -1.51801,-1.84904 -2.68887,-3.80758 -3.51172,-5.87695 -0.81973,-2.10112 -1.23129,-4.18675 -1.23633,-6.25586 -0.002,-2.10091 0.4371,-4.12626 1.31836,-6.07617 0.88124,-1.94991 2.2645,-3.69944 4.14844,-5.2461 1.83161,-1.50369 3.68866,-2.54651 5.57422,-3.13086 1.41415,-0.43827 2.81462,-0.63381 4.19922,-0.58789 z m 137.17187,2.77149 a 195.87431,195.87431 0 0 0 -176.4414,149.85742 195.87431,195.87431 0 0 0 -5.33594,42.41406 l 22.51758,-29.21093 a 176.31782,176.31782 0 0 1 1.83984,-8.66016 176.31782,176.31782 0 0 1 128.36523,-129.99414 z m -138.87305,2.57812 c -0.58393,0.0268 -1.17395,0.12289 -1.76757,0.28907 -1.20159,0.31483 -2.37801,0.94544 -3.5293,1.89062 -0.99429,0.81628 -1.74323,1.75174 -2.24805,2.80859 -0.50479,1.05686 -0.76685,2.17863 -0.78711,3.36329 -0.0202,1.18468 0.1875,2.41577 0.62305,3.69336 0.43565,1.2776 1.08867,2.53505 1.96094,3.77539 l 13.8164,-11.3418 c -0.90716,-1.21169 -1.89417,-2.18183 -2.96093,-2.91211 -1.08107,-0.74772 -2.20516,-1.22665 -3.3711,-1.4375 -0.57423,-0.11263 -1.15239,-0.15568 -1.73633,-0.12891 z m 200.14258,2.6875 10.05274,23.33985 a 176.31782,176.31782 0 0 1 23.16992,9.85351 c 5.40106,-3.2231 14.67443,-9.95048 18.04297,-12.41601 a 195.87431,195.87431 0 0 0 -51.26563,-20.77735 z m 123.42188,10.5293 c 2.17055,-0.0202 4.2897,0.42255 6.35937,1.32813 2.0857,0.88937 4.01751,2.23195 5.79492,4.02929 1.23785,1.25171 2.30832,2.50958 3.21094,3.77539 0.90263,1.26579 1.64576,2.59463 2.22852,3.98633 l -3.9961,3.95313 c -0.48592,-1.58267 -1.1479,-3.03983 -1.98632,-4.36914 -0.80653,-1.32909 -1.78121,-2.57111 -2.92383,-3.72657 -1.06328,-1.07517 -2.28097,-1.88725 -3.65039,-2.4375 -1.3375,-0.55007 -2.74798,-0.80523 -4.23242,-0.76562 -1.48443,0.0396 -2.98597,0.39832 -4.50586,1.07617 -1.5199,0.67777 -2.97887,1.70723 -4.375,3.08789 -2.92067,2.88832 -4.41277,5.75889 -4.47657,8.61524 -0.032,2.85651 1.19776,5.54496 3.68946,8.06445 1.12675,1.13937 2.34232,2.11273 3.64648,2.91797 1.32004,0.82126 2.72911,1.47576 4.22656,1.96289 l -3.89843,3.85547 c -1.49639,-0.67863 -2.91287,-1.49986 -4.24805,-2.46485 -1.33538,-0.93309 -2.6064,-2.01086 -3.8125,-3.23047 -3.77703,-3.81933 -5.65381,-7.78693 -5.63086,-11.90429 0.0388,-4.10129 2.04753,-8.11897 6.02734,-12.05469 1.90967,-1.8885 3.93628,-3.30634 6.08008,-4.25195 2.1438,-0.94562 4.3021,-1.42746 6.47266,-1.44727 z m -349.99024,2.07031 25.26953,22.73047 -3.93945,4.37891 -9.79101,-8.80664 -4.68555,5.21093 c -3.51688,3.90962 -6.82854,6.12092 -9.93359,6.63672 -3.10506,0.51578 -6.05056,-0.4788 -8.83594,-2.98437 l -6.92188,-6.22656 3.98438,-4.42969 6.34375,5.70508 c 1.00676,0.90565 1.97483,1.5344 2.90429,1.88476 0.92947,0.35039 1.87529,0.42735 2.83985,0.23242 0.96285,-0.22677 1.95204,-0.71782 2.96679,-1.4746 1.02983,-0.7736 2.14155,-1.82286 3.33399,-3.14844 l 4.2793,-4.75782 L 457,447.88086 Z m 376.34766,22.19141 c 0.65633,0.44419 1.3513,0.95759 2.08203,1.54297 0.76228,0.59039 1.52281,1.23816 2.2832,1.9414 0.76042,0.70322 1.5117,1.46953 2.25196,2.29883 0.75855,0.81608 1.46873,1.67996 2.13086,2.59375 1.20509,1.66312 2.10778,3.29554 2.70898,4.89453 0.6012,1.599 0.85867,3.12723 0.77148,4.58399 -0.0738,1.475 -0.49973,2.86907 -1.27539,4.18359 -0.77555,1.3145 -1.92967,2.52826 -3.46484,3.64063 l -18.9707,13.74609 -3.09961,-4.27734 3.62109,-2.79102 c -2.56625,-0.42598 -4.73988,-1.17719 -6.52344,-2.2539 -1.7703,-1.05845 -3.27233,-2.43707 -4.5039,-4.13672 -1.13887,-1.57173 -1.91069,-3.06061 -2.31641,-4.4668 -0.40574,-1.40616 -0.52619,-2.72667 -0.36133,-3.96094 0.19629,-1.2292 0.64304,-2.36257 1.3418,-3.39844 0.71196,-1.0176 1.6254,-1.93049 2.74023,-2.73828 2.75966,-1.99964 5.65867,-2.53846 8.69532,-1.61718 3.06814,0.92631 6.05927,3.39921 8.97265,7.41992 l 4.13086,5.70312 2.41211,-1.74804 c 1.62656,-1.17859 2.54795,-2.63922 2.76172,-4.38282 0.23206,-1.75682 -0.42718,-3.70547 -1.97656,-5.84375 -1.12562,-1.55346 -2.41102,-2.96323 -3.85742,-4.22851 -1.43312,-1.24702 -3.0524,-2.4431 -4.85742,-3.58789 z m -75.41797,1.7207 5.08594,18.64844 1.36914,13.70117 A 176.31782,176.31782 0 0 1 811.80273,661.97266 176.31782,176.31782 0 0 1 688.9375,790.48633 l -6.06055,21.71094 A 195.87431,195.87431 0 0 0 830.82422,666.51758 195.87431,195.87431 0 0 0 761.86914,467.41406 Z m -326.19922,5.53125 28.41602,18.65039 -3.23242,4.92383 -20.00977,-13.13281 11.87305,25.5293 -3.08399,4.69921 -28.41601,-18.65234 3.23242,-4.92383 20.00976,13.13282 -11.87304,-25.5293 z m 388.42383,7.85742 c -0.41398,-0.0136 -0.82631,0.0233 -1.23633,0.11133 -0.78851,0.18117 -1.56641,0.55125 -2.33398,1.10742 -0.53002,0.38405 -0.98315,0.83735 -1.35742,1.35938 -0.35599,0.5088 -0.59201,1.08491 -0.71094,1.72852 -0.10079,0.63037 -0.0503,1.31681 0.1543,2.06054 0.20434,0.74374 0.61144,1.53626 1.2207,2.37696 0.79456,1.09656 2.03135,2.11049 3.70898,3.04101 1.70913,0.93553 3.85483,1.66585 6.4375,2.19141 l 4.87891,-3.53711 -4.38867,-6.05664 c -0.86078,-1.18793 -1.72204,-2.12569 -2.58203,-2.8125 -0.86,-0.68682 -1.70707,-1.14651 -2.54297,-1.37696 -0.41794,-0.11527 -0.83407,-0.17975 -1.24805,-0.19336 z m 34.6543,12.93946 3.57422,6.95508 -10.37696,11.8789 -3.1582,3.41211 4.61133,-0.58203 15.76172,-1.39844 3.52734,6.86524 -29.25586,17.43164 -2.66211,-5.17969 18.47852,-10.48438 6.54492,-3.78124 -5.61133,0.63671 -16.63867,1.39453 -1.9668,-3.82421 10.38867,-12.22657 4.26563,-4.58984 -7.23047,3.41016 -18.90625,8.6875 -2.56836,-4.99805 z m -443.11524,11.25195 30.91211,14.13281 -2.44922,5.35743 -13.66992,-6.25 -6.46289,14.13085 13.66992,6.25196 -2.44922,5.35547 -30.91015,-14.13282 2.44922,-5.35742 12.56054,5.74414 6.46289,-14.13281 -12.5625,-5.74219 z M 866.58594,532.125 c 2.31241,0.0151 4.42963,0.43782 6.34961,1.27148 1.94139,0.82765 3.63691,2.05915 5.08593,3.69336 1.47047,1.62707 2.60729,3.65094 3.41407,6.07032 0.7711,2.31229 1.09763,4.49986 0.97656,6.5625 -0.0925,2.0769 -0.62525,3.97778 -1.5957,5.70507 -0.94189,1.74156 -2.33001,3.28758 -4.16407,4.63672 -1.82689,1.37056 -4.06776,2.49943 -6.72265,3.38477 -2.505,0.83535 -4.92398,1.24904 -7.25781,1.24219 -2.3124,-0.0151 -4.43947,-0.43717 -6.38086,-1.26368 -1.91998,-0.83479 -3.61548,-2.06434 -5.08594,-3.6914 -1.44902,-1.63422 -2.57601,-3.66073 -3.38281,-6.08008 -0.7711,-2.31231 -1.11011,-4.50708 -1.01758,-6.58398 0.12119,-2.06262 0.6638,-3.96809 1.62695,-5.7168 0.97043,-1.7273 2.36839,-3.27788 4.19531,-4.64844 1.83406,-1.34914 4.08934,-2.46885 6.76563,-3.36133 2.50499,-0.83535 4.90236,-1.24181 7.19336,-1.2207 z m 0.76562,5.83203 c -0.3796,-10e-4 -0.76584,0.0145 -1.16015,0.0449 -1.54873,0.13581 -3.11484,0.46777 -4.69922,0.9961 -1.99116,0.66401 -3.66557,1.45872 -5.02149,2.38672 -1.34878,0.94939 -2.39003,1.99928 -3.125,3.14843 -0.71357,1.14203 -1.13537,2.37756 -1.26367,3.70508 -0.10683,1.32037 0.0829,2.70816 0.56836,4.16406 0.5569,1.67 1.35173,2.98585 2.38672,3.94922 1.06356,0.97767 2.26757,1.65971 3.60937,2.04492 1.34897,0.40666 2.79698,0.54207 4.34571,0.40625 1.57727,-0.12144 3.16962,-0.45076 4.77539,-0.98632 1.99115,-0.66399 3.64917,-1.46595 4.97656,-2.40821 1.35592,-0.928 2.39192,-1.96344 3.10547,-3.10547 0.73499,-1.14915 1.15222,-2.39454 1.25195,-3.73632 0.12825,-1.32753 -0.0471,-2.7081 -0.52539,-4.14258 -0.5569,-1.67002 -1.36613,-2.99502 -2.42969,-3.97266 -1.03498,-0.96337 -2.2272,-1.64806 -3.57617,-2.05469 -1.00635,-0.28892 -2.07994,-0.43557 -3.21875,-0.43945 z m -458.41992,4.1543 c 2.04609,-0.096 4.23074,0.18805 6.55274,0.85156 0.80292,0.22954 1.47149,0.43275 2.00781,0.60938 0.53631,0.17663 1.03692,0.35522 1.50195,0.53515 l -6.55664,22.94922 c 3.34191,0.95499 6.17921,0.75586 8.51367,-0.5957 2.31277,-1.35779 3.97199,-3.79503 4.97656,-7.31055 0.27286,-0.95483 0.51296,-1.91912 0.72071,-2.89258 0.18595,-0.97963 0.3407,-1.93243 0.46484,-2.85937 0.12397,-0.92694 0.22513,-1.81382 0.30274,-2.66016 0.062,-0.87423 0.0944,-1.68531 0.0976,-2.43555 l 4.6543,1.33008 c -0.005,1.66478 -0.15614,3.50962 -0.45508,5.53711 -0.26978,2.01197 -0.70157,4.06126 -1.29687,6.14453 -0.79995,2.79942 -1.86884,5.09927 -3.20508,6.90039 -1.33624,1.80113 -2.90662,3.14824 -4.71094,4.04102 -1.81982,0.86488 -3.86189,1.31364 -6.125,1.34766 -2.2786,0.005 -4.74119,-0.36953 -7.38867,-1.125 -2.3003,-0.65731 -4.37664,-1.60395 -6.23047,-2.8379 -1.86933,-1.26183 -3.39507,-2.74248 -4.57617,-4.4414 -1.19658,-1.72684 -1.98674,-3.6411 -2.3711,-5.7461 -0.38432,-2.10502 -0.24199,-4.33014 0.42774,-6.67382 0.65111,-2.27858 1.58627,-4.19492 2.80469,-5.74805 1.21841,-1.55311 2.65941,-2.73747 4.32421,-3.55273 1.64931,-0.84319 3.5048,-1.29906 5.56641,-1.36719 z m -0.0371,5.79883 c -1.31444,-5e-5 -2.51096,0.24459 -3.58984,0.73437 -1.07266,0.46808 -2.00354,1.17834 -2.79102,2.12695 -0.80917,0.94242 -1.41687,2.12831 -1.82617,3.56055 -0.35346,1.23694 -0.43786,2.43349 -0.25195,3.58985 0.18595,1.15635 0.60648,2.22896 1.26367,3.21484 0.65721,0.98588 1.52828,1.87867 2.61328,2.68164 1.08503,0.803 2.34073,1.46627 3.76367,1.99023 l 4.91016,-17.18554 c -1.43534,-0.48058 -2.79902,-0.71907 -4.0918,-0.71289 z m 478.45899,16.17773 1.12109,6.60938 -20.72266,12.24023 -4.91797,2.58594 5.66993,1.02929 23.35937,4.10352 1.08203,6.375 -31.91015,-6.32617 c -3.24861,-0.66175 -6.08181,-1.43967 -8.5,-2.33399 -2.41442,-0.87203 -4.44862,-1.93468 -6.10352,-3.1875 -1.67718,-1.24905 -3.00095,-2.7063 -3.9707,-4.37304 -0.96975,-1.66675 -1.64163,-3.60186 -2.01563,-5.80469 -0.0983,-0.57852 -0.17547,-1.10316 -0.23242,-1.57422 -0.0569,-0.47105 -0.11001,-0.9889 -0.16016,-1.55273 l 5.27344,-0.89453 c 0.0151,0.50086 0.0486,1.04282 0.10352,1.6289 0.0315,0.58986 0.10328,1.20823 0.21289,1.85352 0.18142,1.06804 0.50438,2.03123 0.9707,2.89062 0.4702,0.88166 1.13257,1.67457 1.98438,2.37696 0.82955,0.70616 1.86447,1.34249 3.10546,1.91015 1.241,0.56764 2.71143,1.07376 4.41211,1.51758 z m -496.58985,12.99414 33.70703,4.37109 -0.75781,5.8418 -13.05859,-1.69336 -0.90235,6.94922 c -0.67638,5.21499 -2.14649,8.91643 -4.41015,11.10352 -2.26366,2.18706 -5.25335,3.03853 -8.96875,2.55664 l -9.23243,-1.19727 0.76758,-5.9082 8.45899,1.09765 c 1.34291,0.17412 2.49683,0.14147 3.46093,-0.0977 0.96411,-0.23912 1.78912,-0.71207 2.47266,-1.41992 0.66406,-0.73318 1.19767,-1.69937 1.60352,-2.89844 0.40877,-1.22147 0.72769,-2.71621 0.95703,-4.48438 l 0.82422,-6.3457 -15.67969,-2.0332 z m 502.7461,28.61914 0.3789,27.31641 -33.98633,0.47265 -0.082,-5.89062 28.8418,-0.40039 -0.2168,-15.53711 -28.83984,0.40039 -0.082,-5.89062 z m -506.91993,6.53321 30.65235,10.89453 c 3.11801,1.12665 5.80768,2.30881 8.07031,3.54492 2.2621,1.21353 4.1208,2.55912 5.57617,4.03906 1.47795,1.47943 2.57564,3.11436 3.29297,4.9043 0.71733,1.78996 1.1023,3.80135 1.15234,6.03515 0.0126,0.58666 0.0134,1.11747 0.002,1.5918 -0.0126,0.47436 -0.0347,0.99348 -0.0664,1.55859 l -5.34765,0.1211 c 0.0567,-0.49792 0.10081,-1.04124 0.13281,-1.62891 0.0547,-0.58817 0.0735,-1.20892 0.0586,-1.86328 -0.0252,-1.08304 -0.20534,-2.08391 -0.54101,-3.00195 -0.33714,-0.9406 -0.87645,-1.81998 -1.61719,-2.63867 -0.71816,-0.8192 -1.64955,-1.59991 -2.79492,-2.3418 -1.14538,-0.7419 -2.52634,-1.45642 -4.14454,-2.14258 l -33.67773,14.33398 -0.15039,-6.70117 22.28125,-9.10156 5.24219,-1.84375 -5.46094,-1.8418 -22.51562,-7.45312 z m 459.15625,25.65624 47.4043,6.66407 -0.73047,5.19726 -5.68359,-0.42383 c 2.06632,1.9999 3.42307,4.01443 4.07226,6.04297 0.67158,2.0317 0.85212,4.15458 0.54102,6.36719 -0.27026,1.92207 -0.90911,3.55299 -1.91797,4.89258 -1.00883,1.33959 -2.32024,2.39591 -3.93359,3.17187 -1.59098,0.77912 -3.45977,1.26932 -5.60743,1.46875 -2.12527,0.20259 -4.46191,0.12393 -7.00976,-0.23437 -2.99485,-0.42109 -5.55049,-1.21341 -7.66602,-2.37695 -2.11867,-1.14119 -3.8124,-2.55191 -5.08007,-4.23438 -1.26766,-1.68249 -2.12929,-3.58211 -2.58399,-5.69726 -0.4547,-2.11518 -0.51748,-4.34668 -0.1875,-6.69336 0.15093,-1.07278 0.35859,-2.1363 0.6211,-3.19336 0.25945,-1.03474 0.59931,-2.08126 1.02148,-3.13868 l -14.08008,-1.98046 z m 18.69141,8.57618 c -0.59785,1.00991 -1.11408,2.08756 -1.54883,3.23437 -0.41239,1.14996 -0.6991,2.29572 -0.85937,3.43555 -0.44309,3.15129 0.27273,5.76897 2.14453,7.85547 1.89415,2.08965 4.98622,3.43765 9.27734,4.04101 1.76562,0.24819 3.4052,0.34198 4.91797,0.28125 1.50964,-0.0383 2.82804,-0.26266 3.95703,-0.67383 1.129,-0.41106 2.04635,-1.01281 2.75,-1.80273 0.726,-0.78677 1.17212,-1.78336 1.3418,-2.99023 0.10381,-0.73754 0.0864,-1.50438 -0.0527,-2.29883 -0.11666,-0.79131 -0.39543,-1.63942 -0.83789,-2.54492 -0.42325,-0.88 -1.0289,-1.84156 -1.8164,-2.88672 -0.76828,-1.01969 -1.75087,-2.13884 -2.94727,-3.35547 z m -416.91797,9.14648 a 195.87431,195.87431 0 0 0 147.2793,155.90625 195.87431,195.87431 0 0 0 23.65625,4.13672 l -1.08985,-19.83203 A 176.31782,176.31782 0 0 1 599.3418,792.49805 176.31782,176.31782 0 0 1 475.81836,684.49023 Z m -24.06055,3.43164 1.31641,5.74219 -23.33008,5.34766 26.64258,9.10546 1.25586,5.47852 -33.12891,7.59375 -1.3164,-5.74023 23.33008,-5.34961 -26.64454,-9.10352 -1.2539,-5.47852 z m -43.39648,12.99805 c 0.60647,-0.006 1.19189,0.0598 1.75586,0.19726 1.12287,0.252 2.15125,0.74495 3.08398,1.48047 0.90568,0.71859 1.6882,1.66188 2.34961,2.83008 0.66145,1.1682 1.16571,2.51139 1.51367,4.0293 0.40343,1.7599 0.56309,3.31072 0.47657,4.65039 -0.0864,1.33964 -0.38878,2.49731 -0.90625,3.47265 -0.54441,0.95837 -1.28082,1.73975 -2.20703,2.34571 -0.92621,0.60596 -2.038,1.05792 -3.33594,1.35547 l -1.19531,-5.21485 c 0.63796,-0.14614 1.21579,-0.35848 1.73046,-0.63867 0.51468,-0.28006 0.95127,-0.64677 1.31055,-1.09961 0.33225,-0.46979 0.54768,-1.03949 0.64844,-1.71094 0.10079,-0.67142 0.0459,-1.47056 -0.16602,-2.39453 -0.21694,-0.94594 -0.51729,-1.69928 -0.90039,-2.25976 -0.38823,-0.5825 -0.83418,-1.01092 -1.33789,-1.28906 -0.5257,-0.27314 -1.08074,-0.42521 -1.66601,-0.45313 -0.58528,-0.028 -1.19798,0.0313 -1.83594,0.17773 l -1.20117,-5.24804 c 0.64897,-0.14876 1.27634,-0.2248 1.88281,-0.23047 z m 479.375,2.24805 c 1.24084,-0.0522 2.52109,0.12031 3.83984,0.51562 3.26446,0.97857 5.45267,2.95361 6.56446,5.92578 1.12693,3.00027 0.97844,6.87858 -0.44727,11.63477 l -2.02344,6.74414 2.85352,0.85547 c 1.92408,0.57678 3.64494,0.42202 5.16016,-0.4668 1.5368,-0.88234 2.68318,-2.58973 3.4414,-5.11914 0.55086,-1.83761 0.89046,-3.71335 1.01758,-5.63086 0.12069,-1.89589 0.0888,-3.90978 -0.0977,-6.03906 l 5.08985,1.52734 c 0.0456,0.79118 0.0595,1.65381 0.0391,2.58984 -0.005,0.96416 -0.058,1.96296 -0.15625,2.99415 -0.097,1.03118 -0.24947,2.09186 -0.45898,3.18359 -0.18772,1.0982 -0.44345,2.18859 -0.76758,3.26953 -0.58973,1.96735 -1.33672,3.67448 -2.24219,5.12305 -0.90545,1.44856 -1.96342,2.58124 -3.17383,3.39648 -1.21688,0.83686 -2.58424,1.34542 -4.09961,1.52735 -1.51534,0.18192 -3.18008,10e-4 -4.99609,-0.54297 l -22.44141,-6.72852 1.51563,-5.05859 4.41601,1.18359 c -1.21973,-2.29767 -1.94247,-4.4818 -2.16992,-6.55273 -0.23383,-2.04929 -0.0499,-4.07929 0.55274,-6.08985 0.55732,-1.85922 1.27164,-3.37654 2.14257,-4.55273 0.87093,-1.17619 1.84699,-2.07485 2.92774,-2.69336 1.09588,-0.59039 2.26635,-0.92232 3.51367,-0.99609 z m 0.3418,6.2871 c -0.6204,0.0262 -1.22108,0.18822 -1.80469,0.48438 -0.56199,0.30277 -1.07615,0.76095 -1.54297,1.375 -0.4668,0.61402 -0.85033,1.41764 -1.14844,2.41211 -0.38883,1.29716 -0.44329,2.89502 -0.16406,4.79297 0.29443,1.92605 1.01741,4.07411 2.16797,6.44531 l 5.77148,1.73047 2.14844,-7.16602 c 0.42124,-1.40522 0.64444,-2.65746 0.66797,-3.75781 0.0227,-1.10035 -0.12759,-2.05331 -0.45117,-2.85742 -0.32444,-0.80408 -0.80553,-1.47881 -1.44336,-2.02344 -0.62269,-0.51653 -1.38886,-0.90946 -2.29688,-1.18164 -0.62694,-0.18797 -1.26225,-0.27356 -1.90429,-0.25391 z m -428.7168,9.70508 2.13867,5.48828 -22.29883,8.69532 27.6875,5.11914 2.04297,5.23437 -31.66797,12.35157 -2.14062,-5.48829 22.30078,-8.69726 -27.6875,-5.11719 -2.04297,-5.23633 z m 413.38867,15.00391 30.29297,14.41992 c -0.68762,2.02228 -1.4372,4.04012 -2.24609,6.05469 -0.81862,2.03492 -1.77104,4.19413 -2.85743,6.47656 -1.96905,4.13687 -4.14544,6.94959 -6.52929,8.43945 -2.37317,1.51995 -4.83351,1.67341 -7.38086,0.46094 -1.73218,-0.82449 -2.9822,-2.03084 -3.75,-3.62109 -0.76782,-1.59023 -0.96697,-3.5352 -0.59766,-5.83399 -0.62863,0.90056 -1.35008,1.70756 -2.16406,2.41993 -0.8033,0.74245 -1.67408,1.3149 -2.61523,1.71679 -0.92077,0.41157 -1.88538,0.62691 -2.89454,0.64649 -1.01883,0.0401 -2.04857,-0.18685 -3.08789,-0.68164 -1.40613,-0.66928 -2.54941,-1.57685 -3.42968,-2.72071 -0.88031,-1.14388 -1.44367,-2.53694 -1.6875,-4.17773 -0.2235,-1.63109 -0.11314,-3.51561 0.33007,-5.6543 0.45375,-2.10862 1.30732,-4.47663 2.5586,-7.10547 0.82449,-1.73218 1.77382,-3.54316 2.84765,-5.43164 1.05346,-1.89815 2.1235,-3.70121 3.21094,-5.4082 z m 1.47266,7.22656 c -0.63834,0.92097 -1.22133,1.85562 -1.74805,2.80469 -0.52674,0.94909 -1.09003,2.05489 -1.6914,3.31836 -0.8633,1.81369 -1.44948,3.35873 -1.75782,4.63672 -0.31806,1.29837 -0.41348,2.39145 -0.28515,3.27734 0.11842,0.90628 0.42088,1.63744 0.90625,2.19336 0.48526,0.55589 1.09449,1.00822 1.82812,1.35742 1.58954,0.75659 3.12594,0.59985 4.60938,-0.46875 1.49414,-1.03851 2.96293,-3.0749 4.4082,-6.11133 l 3.11523,-6.54101 z m -404.64453,4.29688 4.0039,7.03125 -7.98632,22.78125 15.82617,-9.01367 2.91601,5.11914 -29.53711,16.82031 -2.91406,-5.11914 13.50195,-7.68946 -21.05859,-5.58007 -3.85156,-6.76563 21.50976,6.09961 z m 418.125,2.11914 -2.93946,6.17383 c -2.51225,5.27806 -2.24931,8.64064 0.78711,10.08593 0.71325,0.33948 1.42249,0.50199 2.12891,0.48828 0.70639,-0.0126 1.41283,-0.23888 2.12109,-0.67773 0.69859,-0.41736 1.39325,-1.08588 2.08203,-2.00781 0.69944,-0.89187 1.38741,-2.05202 2.06641,-3.47852 0.61107,-1.28385 1.11501,-2.41934 1.50977,-3.40625 0.41514,-0.97718 0.78547,-1.96335 1.10937,-2.95898 z m -27.45703,13.01367 3.875,2.9707 c -0.58324,0.69498 -1.02243,1.41951 -1.31836,2.17383 -0.29592,0.75434 -0.35378,1.60209 -0.17579,2.54297 0.19654,0.95357 0.6721,2.01709 1.42969,3.18945 0.76354,1.20371 1.91357,2.60159 3.44922,4.19531 1.53565,1.59373 3.5101,3.40495 5.92383,5.4336 2.41965,2.06002 5.3713,4.4013 8.85547,7.02344 l -11.82617,17.33984 -28.08008,-19.15039 3.31836,-4.86719 23.88476,16.29102 5.3418,-7.83203 c -3.68842,-2.84339 -6.74984,-5.42339 -9.18555,-7.74024 -2.44845,-2.2982 -4.38623,-4.38357 -5.8125,-6.25781 -1.40762,-1.86154 -2.37559,-3.54671 -2.90429,-5.05469 -0.51006,-1.49525 -0.69693,-2.8651 -0.5586,-4.10937 0.14438,-1.21293 0.57018,-2.31641 1.27539,-3.31055 0.68672,-1.00687 1.52191,-1.9531 2.50782,-2.83789 z m -373.27149,16.94922 c 1.4073,0.84807 2.71773,1.82961 3.93164,2.94336 1.21777,1.08205 2.35604,2.29875 3.41211,3.65039 3.30711,4.23274 4.70873,8.39179 4.20703,12.47851 -0.51558,4.06897 -2.97809,7.82737 -7.38867,11.27344 -2.11636,1.65357 -4.29396,2.82579 -6.5332,3.51563 -2.23925,0.68984 -4.43757,0.91834 -6.59571,0.68554 -2.15813,-0.23282 -4.21375,-0.92074 -6.16406,-2.06054 -1.9681,-1.12593 -3.72885,-2.6839 -5.28515,-4.67579 -1.08385,-1.38718 -2.00075,-2.76278 -2.75,-4.125 -0.74928,-1.36219 -1.3331,-2.76674 -1.75,-4.21679 l 4.42968,-3.46094 c 0.29851,1.62845 0.7867,3.15251 1.46485,4.57031 0.64642,1.4139 1.46826,2.76054 2.46875,4.04102 0.931,1.19158 2.04567,2.13991 3.34179,2.8457 1.26446,0.70191 2.63628,1.12059 4.11524,1.25391 1.47895,0.13329 3.01313,-0.0486 4.60156,-0.54492 1.58841,-0.49641 3.15586,-1.3497 4.70313,-2.5586 3.23678,-2.52898 5.05165,-5.20755 5.44726,-8.03711 0.36392,-2.83341 -0.54497,-5.64726 -2.72656,-8.43945 -0.98658,-1.26271 -2.07959,-2.36885 -3.28125,-3.32031 -1.21555,-0.96922 -2.53812,-1.78342 -3.96875,-2.44141 z m 352.48438,18.5039 c 2.01396,0.0615 4.03547,0.5947 6.06445,1.59766 2.03003,1.03494 4.05054,2.49315 6.06055,4.375 1.74642,1.63507 3.16211,3.42493 4.24804,5.36914 1.08702,1.97614 1.76983,3.98832 2.04492,6.03906 0.27616,2.08267 0.10354,4.14899 -0.51562,6.19727 -0.61916,2.04828 -1.76184,3.96284 -3.42773,5.74219 -1.61966,1.72994 -3.32604,3.00653 -5.11915,3.83203 -1.79313,0.82547 -3.61537,1.22032 -5.46874,1.18555 -1.85235,-0.003 -3.7109,-0.44319 -5.57618,-1.32422 -1.86424,-0.84876 -3.67853,-2.09756 -5.4414,-3.74805 -0.60959,-0.57071 -1.1133,-1.05882 -1.50977,-1.46094 -0.39647,-0.40209 -0.76018,-0.78785 -1.0918,-1.16015 l 16.3125,-17.42383 c -2.53724,-2.37546 -5.15363,-3.49404 -7.84765,-3.35742 -2.67755,0.15193 -5.2648,1.56134 -7.76367,4.23046 -0.67871,0.72494 -1.3336,1.47294 -1.96289,2.24415 -0.61279,0.78662 -1.18516,1.56398 -1.71875,2.33203 -0.53357,0.76805 -1.02897,1.51096 -1.48438,2.22851 -0.45435,0.74948 -0.8539,1.457 -1.19922,2.12305 l -3.5332,-3.30859 c 0.76566,-1.47825 1.74304,-3.05085 2.93359,-4.71876 1.15865,-1.66684 2.47817,-3.29139 3.95899,-4.87304 1.98982,-2.12536 3.99076,-3.68343 6.00195,-4.67578 2.01119,-0.99233 4.02228,-1.47482 6.03516,-1.44532 z m -313.1875,9.39258 c 2.09118,-0.002 4.02471,0.37523 5.79882,1.13086 1.77411,0.75563 3.46856,1.90372 5.08594,3.44531 0.42475,0.40487 0.8014,0.77969 1.12891,1.12305 0.32751,0.34333 0.67934,0.72451 1.05664,1.14649 l -3.68945,3.87304 c -0.3127,-0.39158 -0.66497,-0.80659 -1.0586,-1.24414 -0.37805,-0.45387 -0.80552,-0.90584 -1.2793,-1.35742 -0.78417,-0.74744 -1.62,-1.3266 -2.50781,-1.73633 -0.90416,-0.4253 -1.907,-0.66538 -3.00976,-0.71875 -1.0872,-0.0698 -2.29877,0.0387 -3.63282,0.32617 -1.33404,0.28742 -2.81498,0.76221 -4.44335,1.42383 l -13.62305,33.97071 -4.85352,-4.625 9.28516,-22.20508 2.39453,-5.01368 -5.1582,2.56641 -21.17578,10.68359 -4.67969,-4.46093 29.35547,-14.01758 c 2.99918,-1.41289 5.73616,-2.48311 8.20898,-3.21289 2.45647,-0.74535 4.72129,-1.11172 6.79688,-1.09766 z m 323.07812,2.92969 -12.2168,13.04687 c 1.05759,1.08292 2.16345,1.91719 3.31641,2.50196 1.16944,0.60019 2.34583,0.92948 3.5293,0.98633 1.16805,0.0733 2.31942,-0.13276 3.45312,-0.61719 1.15019,-0.46902 2.23388,-1.24662 3.25196,-2.33399 0.87921,-0.93911 1.50077,-1.96637 1.86328,-3.08007 0.36253,-1.1137 0.47629,-2.25838 0.34179,-3.43555 -0.13455,-1.17717 -0.50088,-2.37028 -1.09961,-3.58008 -0.5987,-1.2098 -1.41273,-2.37244 -2.43945,-3.48828 z m -34.47266,7.37109 20.98243,26.74024 -4.63477,3.63672 -8.52539,-10.86719 -12.22461,9.5918 8.52539,10.86718 -4.63281,3.63672 -20.98242,-26.74023 4.63281,-3.63672 9.2793,11.82617 12.22461,-9.59375 -9.2793,-11.82422 z m -283.86914,8.91407 c 1.59232,0.40526 3.13132,0.96615 4.61524,1.68164 1.4785,0.68404 2.91681,1.51898 4.31836,2.50781 4.38909,3.09662 6.93422,6.67505 7.63476,10.73242 0.68211,4.04437 -0.58969,8.35225 -3.8164,12.92578 -1.54832,2.19455 -3.29389,3.94649 -5.23828,5.25391 -1.94442,1.30744 -3.98385,2.16177 -6.11719,2.5625 -2.13334,0.40073 -4.29766,0.33632 -6.49414,-0.19141 -2.20949,-0.50923 -4.34863,-1.49198 -6.41406,-2.94922 -1.43847,-1.01485 -2.71332,-2.06667 -3.82422,-3.15429 -1.11091,-1.0876 -2.07449,-2.26548 -2.89258,-3.53321 l 3.24023,-4.59179 c 0.75634,1.47273 1.66381,2.7898 2.72266,3.95117 1.02743,1.16679 2.20543,2.21946 3.5332,3.15625 1.23561,0.87173 2.57477,1.45663 4.01953,1.75781 1.41335,0.30662 2.84835,0.31078 4.30274,0.0117 1.45441,-0.29969 2.86886,-0.91544 4.24609,-1.84961 1.37724,-0.9342 2.63171,-2.20418 3.76367,-3.80859 2.368,-3.35637 3.33341,-6.44638 2.89453,-9.26953 -0.47029,-2.81772 -2.1535,-5.24829 -5.04882,-7.29102 -1.30936,-0.92377 -2.67623,-1.66682 -4.10157,-2.23047 -1.44375,-0.57668 -2.94612,-0.97291 -4.50585,-1.18945 z m 256.68555,11.70703 16.67774,29.61523 -5.13282,2.89063 -11.74414,-20.85547 -1.17578,28.13281 -4.89648,2.75781 -16.67774,-29.61718 5.13086,-2.89063 11.7461,20.85547 1.17382,-28.13086 z m -204.85156,2.24023 5.25976,2.65235 -21.54882,42.74414 -4.68555,-2.36133 2.22656,-5.2461 c -2.55798,1.31372 -4.90166,1.95143 -7.03125,1.91407 -2.13974,-0.0176 -4.20603,-0.5297 -6.20117,-1.53516 -1.73317,-0.8738 -3.07145,-2.00274 -4.01562,-3.38867 -0.94416,-1.38593 -1.52603,-2.96698 -1.74219,-4.74414 -0.22627,-1.757 -0.0875,-3.68544 0.41406,-5.78321 0.49139,-2.0776 1.31634,-4.26505 2.47461,-6.5625 1.36151,-2.70049 2.933,-4.86493 4.71484,-6.49414 1.76172,-1.63935 3.6419,-2.78971 5.64258,-3.44921 2.00071,-0.65951 4.07555,-0.86464 6.22461,-0.61524 2.14907,0.24945 4.28238,0.90783 6.39844,1.97461 0.96733,0.48769 1.90963,1.02676 2.82617,1.61524 0.8964,0.57831 1.77702,1.23688 2.64258,1.97656 z m 28.03906,11.2793 c 1.92691,-0.0738 3.95162,0.23971 6.07227,0.94336 0.55695,0.18494 1.05534,0.36262 1.49804,0.5332 0.44274,0.17058 0.92597,0.36722 1.44727,0.58789 l -1.68555,5.07617 c -0.44991,-0.22072 -0.94556,-0.44427 -1.48828,-0.67187 -0.53563,-0.24895 -1.11515,-0.47731 -1.73633,-0.6836 -1.0282,-0.34121 -2.03005,-0.50648 -3.00781,-0.49804 -0.99918,0.001 -2.00925,0.21231 -3.0293,0.63476 -1.01293,0.40104 -2.06079,1.01638 -3.14453,1.84571 -1.08371,0.82933 -2.22193,1.89019 -3.41211,3.18359 l 2.17969,36.53516 -6.36133,-2.11133 -1.08203,-24.04297 0.0273,-5.55664 -3.57032,4.52344 -14.58789,18.70117 -6.13867,-2.03711 20.56445,-25.20703 c 2.10918,-2.55786 4.12605,-4.69471 6.05078,-6.41016 1.90332,-1.72256 3.79666,-3.02131 5.67969,-3.89453 1.89012,-0.89464 3.79768,-1.37724 5.72461,-1.45117 z m -47.62305,0.6875 c -1.00369,0.0568 -1.98852,0.29194 -2.95507,0.70508 -2.58764,1.12184 -4.85781,3.61695 -6.8086,7.48633 v 0.002 c -0.80267,1.59209 -1.41888,3.11439 -1.84765,4.5664 -0.44891,1.44187 -0.65912,2.76364 -0.63282,3.96485 0.0262,1.20118 0.30042,2.2614 0.82227,3.18164 0.51165,0.9404 1.31214,1.68571 2.40039,2.23437 0.66505,0.3353 1.39443,0.56374 2.19141,0.6875 0.78679,0.14388 1.68,0.1522 2.67968,0.0234 0.96935,-0.11792 2.0755,-0.38134 3.31836,-0.79101 1.21253,-0.3997 2.58832,-0.9711 4.125,-1.7129 l 7.42188,-14.7207 c -0.76415,-0.89078 -1.62024,-1.72749 -2.56641,-2.50781 -0.95634,-0.76019 -1.9468,-1.39977 -2.97461,-1.91797 -1.77598,-0.89539 -3.501,-1.29576 -5.17383,-1.20117 z m 197.63672,0.76562 -0.8789,10.82422 c -0.1401,1.741 -0.47851,3.14613 -1.01563,4.2168 -0.55836,1.0786 -1.42397,1.98398 -2.5957,2.71484 1.42606,-0.24793 2.679,-0.25071 3.75976,-0.008 1.08077,0.24391 2.02553,0.63736 2.83204,1.17774 0.79334,0.56934 1.45491,1.23669 1.98437,2.00195 0.50837,0.77319 0.91624,1.57084 1.22656,2.39453 0.52518,1.39394 0.78636,2.79139 0.78321,4.19141 -0.003,1.40003 -0.34963,2.7488 -1.04297,4.04687 -0.69274,1.29807 -1.77456,2.52503 -3.24414,3.68164 -1.4907,1.16457 -3.79806,2.33605 -6.92383,3.51367 -1.753,0.66044 -3.50912,1.24979 -5.26758,1.76758 -1.75053,0.53894 -3.48232,1.0327 -5.19336,1.48438 l -11.92187,-31.64844 5.51172,-2.07617 4.64257,12.32422 4.78321,-1.80274 c 0.7392,-0.2785 1.47152,-0.63977 2.19726,-1.08203 0.71259,-0.41318 1.31431,-0.92802 1.80469,-1.54687 0.49834,-0.59778 0.89987,-1.29176 1.20508,-2.08204 0.28407,-0.78233 0.45649,-1.70432 0.51562,-2.76367 l 0.59571,-8.97851 z m -5.64258,21.91016 c -1.18965,0.0431 -2.54448,0.34995 -4.0625,0.92187 l -5.95507,2.24415 4.00976,10.64453 c 0.94,-0.25767 1.84045,-0.52473 2.70117,-0.80078 0.86073,-0.27604 1.75627,-0.58935 2.68555,-0.93946 1.81634,-0.68429 3.15093,-1.33183 4.00586,-1.94336 0.86287,-0.59038 1.4814,-1.22105 1.85547,-1.89258 0.38203,-0.6504 0.58734,-1.3551 0.61523,-2.11328 0.008,-0.75021 -0.16473,-1.59024 -0.51562,-2.51953 -0.68432,-1.81634 -1.80984,-2.94786 -3.37695,-3.39453 -0.59559,-0.16451 -1.2491,-0.23289 -1.9629,-0.20703 z"
       transform="scale(0.26458333)"
       inkscape:export-xdpi="300"
       inkscape:export-ydpi="300" />
    <path
       id="path1352"
       style="fill:#000000;fill-opacity:1;stroke:none;stroke-width:2;stroke-linecap:round;stroke-linejoin:round;stroke-miterlimit:4;stroke-dasharray:none;stroke-opacity:1;paint-order:normal"
       d="m 167.66834,192.6436 10.65823,-8.59021 4.29511,-18.9303 19.08938,-10.02192 -3.97696,34.51995 -18.1349,13.20348 -10.65824,42.15571 -3.02248,-39.45138 z m 0.47723,-48.20067 29.1113,-21.31646 2.38617,7.15851 1.27263,21.7937 -15.58966,8.90838 -1.90894,-5.56773 1.11355,-14.63519 z m 2.06802,3.18157 9.86284,-2.06802 -2.06801,23.22541 z m -9.22653,-25.92974 15.11242,-12.24901 5.88589,15.11242 -0.15908,4.61326 -14.47611,10.34008 z m -15.90781,15.74874 11.93086,-13.99888 11.45362,31.17931 1.74986,29.58853 z m -15.43058,15.90781 11.13547,-13.20349 24.81618,49.79146 -17.33951,-11.77178 z m -2.2271,2.70433 -8.43114,11.93086 13.36257,16.54412 23.86172,9.86284 z"
       inkscape:export-xdpi="300"
       inkscape:export-ydpi="300" />
    <text
       xml:space="preserve"
       style="font-style:normal;font-weight:normal;font-size:10.5833px;line-height:1.25;font-family:sans-serif;display:none;fill:#000000;fill-opacity:1;stroke:none;stroke-width:0.264583"
       x="75.084869"
       y="295.88528"
       id="text1357"><tspan
         sodipodi:role="line"
         id="tspan1355"
         x="0"
         y="0"
         style="font-style:normal;font-variant:normal;font-weight:normal;font-stretch:normal;font-family:Consolas;-inkscape-font-specification:Consolas;stroke-width:0.264583">урсуский ученичский союз самоуправления</tspan></text>
  </g>
  <g
     inkscape:label="Layer 1"
     inkscape:groupmode="layer"
     id="layer1"
     style="display:none;opacity:0.357616"
     sodipodi:insensitive="true" />
</svg>
