<?xml version="1.0" encoding="UTF-8" standalone="no"?>
<svg
   xmlns:dc="http://purl.org/dc/elements/1.1/"
   xmlns:cc="http://creativecommons.org/ns#"
   xmlns:rdf="http://www.w3.org/1999/02/22-rdf-syntax-ns#"
   xmlns:svg="http://www.w3.org/2000/svg"
   xmlns="http://www.w3.org/2000/svg"
   xmlns:xlink="http://www.w3.org/1999/xlink"
   xmlns:sodipodi="http://sodipodi.sourceforge.net/DTD/sodipodi-0.dtd"
   xmlns:inkscape="http://www.inkscape.org/namespaces/inkscape"
   inkscape:export-ydpi="300"
   inkscape:export-xdpi="300"
   inkscape:export-filename="D:\Titipan\Projects\Codes\Rhodes Wiki Indo\Icon Assets\Lee_B.png"
   width="1280"
   height="1280"
   viewBox="0 0 338.66666 338.66668"
   version="1.1"
   id="svg8"
   inkscape:version="1.0.2 (e86c870879, 2021-01-15, custom)"
   sodipodi:docname="Victoria_Z.svg">
  <defs
     id="defs2">
    <pattern
       inkscape:collect="always"
       xlink:href="#pattern4166"
       id="pattern4174"
       patternTransform="translate(-51.833686,-17.277895)" />
    <inkscape:path-effect
       end_linecap_type="zerowidth"
       scale_width="1"
       miter_limit="4"
       linejoin_type="extrp_arc"
       start_linecap_type="zerowidth"
       interpolator_beta="0.2"
       interpolator_type="CubicBezierJohan"
       sort_points="true"
       offset_points="0,3.40217"
       lpeversion="1"
       is_visible="true"
       id="path-effect892"
       effect="powerstroke" />
    <inkscape:path-effect
       end_linecap_type="zerowidth"
       scale_width="1"
       miter_limit="4"
       linejoin_type="extrp_arc"
       start_linecap_type="zerowidth"
       interpolator_beta="0.2"
       interpolator_type="CubicBezierJohan"
       sort_points="true"
       offset_points="0,3.40217"
       lpeversion="1"
       is_visible="true"
       id="path-effect887"
       effect="powerstroke" />
    <inkscape:path-effect
       end_linecap_type="zerowidth"
       scale_width="1"
       miter_limit="4"
       linejoin_type="extrp_arc"
       start_linecap_type="zerowidth"
       interpolator_beta="0.2"
       interpolator_type="CubicBezierJohan"
       sort_points="true"
       offset_points="2.7941224,-3.4021738 | 2.7941224,-3.4021738"
       lpeversion="1"
       is_visible="true"
       id="path-effect882"
       effect="powerstroke" />
    <inkscape:path-effect
       end_linecap_type="zerowidth"
       scale_width="1"
       miter_limit="4"
       linejoin_type="extrp_arc"
       start_linecap_type="zerowidth"
       interpolator_beta="0.2"
       interpolator_type="CubicBezierJohan"
       sort_points="true"
       offset_points="0,3.01003"
       lpeversion="1"
       is_visible="true"
       id="path-effect877"
       effect="powerstroke" />
    <inkscape:path-effect
       end_linecap_type="zerowidth"
       scale_width="1"
       miter_limit="4"
       linejoin_type="extrp_arc"
       start_linecap_type="zerowidth"
       interpolator_beta="0.2"
       interpolator_type="CubicBezierJohan"
       sort_points="true"
       offset_points="0,3.01003"
       lpeversion="1"
       is_visible="true"
       id="path-effect872"
       effect="powerstroke" />
    <inkscape:path-effect
       end_linecap_type="zerowidth"
       scale_width="1"
       miter_limit="4"
       linejoin_type="extrp_arc"
       start_linecap_type="zerowidth"
       interpolator_beta="0.2"
       interpolator_type="CubicBezierJohan"
       sort_points="true"
       offset_points="11.631982,3.0100329"
       lpeversion="1"
       is_visible="true"
       id="path-effect868"
       effect="powerstroke" />
    <inkscape:path-effect
       end_linecap_type="zerowidth"
       scale_width="1"
       miter_limit="4"
       linejoin_type="extrp_arc"
       start_linecap_type="zerowidth"
       interpolator_beta="0.2"
       interpolator_type="CubicBezierJohan"
       sort_points="true"
       offset_points="156.61386,0.938298"
       lpeversion="1"
       is_visible="true"
       id="path-effect864"
       effect="powerstroke" />
    <pattern
       patternUnits="userSpaceOnUse"
       width="34.555802"
       height="34.555802"
       patternTransform="translate(697.97451,522.68951)"
       id="pattern4166">
      <circle
         r="5.0119109"
         cy="17.277901"
         cx="5.0119109"
         id="path4156"
         style="opacity:1;fill:#000000;fill-opacity:1;stroke:none;stroke-width:2.83465;stroke-miterlimit:4;stroke-dasharray:none;stroke-opacity:1" />
      <circle
         style="opacity:1;fill:#000000;fill-opacity:1;stroke:none;stroke-width:2.83465;stroke-miterlimit:4;stroke-dasharray:none;stroke-opacity:1"
         id="circle4160"
         cx="29.543892"
         cy="17.277901"
         r="5.0119109" />
      <circle
         style="opacity:1;fill:#000000;fill-opacity:1;stroke:none;stroke-width:2.83465;stroke-miterlimit:4;stroke-dasharray:none;stroke-opacity:1"
         id="circle4162"
         cx="17.277901"
         cy="29.543892"
         r="5.0119109" />
      <circle
         r="5.0119109"
         cy="5.0119109"
         cx="17.277901"
         id="circle4164"
         style="opacity:1;fill:#000000;fill-opacity:1;stroke:none;stroke-width:2.83465;stroke-miterlimit:4;stroke-dasharray:none;stroke-opacity:1" />
    </pattern>
    <pattern
       patternUnits="userSpaceOnUse"
       width="48.869282"
       height="48.869282"
       patternTransform="translate(690.81773,515.53278)"
       id="pattern4176">
      <rect
         id="rect4172"
         y="-17.277901"
         x="-51.833702"
         height="34.555801"
         width="34.555801"
         transform="rotate(-135)"
         style="display:inline;fill:url(#pattern4174);stroke:none;stroke-width:0.999999" />
    </pattern>
  </defs>
  <sodipodi:namedview
     inkscape:snap-bbox-midpoints="false"
     inkscape:snap-bbox="false"
     inkscape:snap-midpoints="true"
     inkscape:guide-bbox="true"
     showguides="true"
     inkscape:snap-global="false"
     id="base"
     pagecolor="#910000"
     bordercolor="#666666"
     borderopacity="1.0"
     inkscape:pageopacity="0"
     inkscape:pageshadow="2"
     inkscape:zoom="0.41580723"
     inkscape:cx="683.86804"
     inkscape:cy="609.57703"
     inkscape:document-units="mm"
     inkscape:current-layer="layer1"
     inkscape:document-rotation="0"
     showgrid="false"
     units="px"
     inkscape:pagecheckerboard="false">
    <sodipodi:guide
       position="169.85268,246.42879"
       orientation="1,0"
       id="guide862" />
  </sodipodi:namedview>
  <metadata
     id="metadata5">
    <rdf:RDF>
      <cc:Work
         rdf:about="">
        <dc:format>image/svg+xml</dc:format>
        <dc:type
           rdf:resource="http://purl.org/dc/dcmitype/StillImage" />
        <dc:title></dc:title>
      </cc:Work>
    </rdf:RDF>
  </metadata>
  <g
     style="display:inline"
     inkscape:groupmode="layer"
     id="layer3"
     inkscape:label="Objects">
    <path
       id="path893"
       style="fill:#000000;stroke-width:0.264999;stroke-linecap:round;stroke-linejoin:round"
       d="m 171.09001,88.863327 a 1.2935801,1.2935801 0 0 1 -1.29358,1.29358 1.2935801,1.2935801 0 0 1 -1.29358,-1.29358 1.2935801,1.2935801 0 0 1 1.29358,-1.29358 1.2935801,1.2935801 0 0 1 1.29358,1.29358 z m -2.52666,1.970403 v 1.211297 c 0,0 -1.01972,1.646703 -0.7829,2.171959 0.80649,1.788758 1.1436,3.895886 1.1436,3.895886 0,0 -2.53481,-1.294413 -3.82818,-1.025776 -0.49983,0.103812 -0.59286,0.952397 -1.1989,0.952397 h -0.95446 c -0.53355,0.673481 -0.35897,1.347065 0,2.020547 0,0 0.63191,0.15916 0.95446,0.15916 0.50976,0 0.717,1.01663 1.27227,1.11363 1.29012,0.22534 3.65921,-1.431954 3.65921,-1.431954 0,0 -0.0536,4.362694 -0.99167,5.399154 -0.28072,0.31017 0.12367,0.99876 0.41651,1.41645 -0.32931,-0.29464 -1.02517,-0.56172 -2.36419,0.21136 -3.03142,1.75019 -0.11059,4.83795 -0.11059,4.83795 0,0 -0.254,-0.1589 0.22324,-1.5906 0.47723,-1.4317 2.20934,-0.20585 2.5275,0.43046 0.31814,0.63631 1.5774,4.27588 -4.51032,4.59404 -6.08773,0.31816 -3.63948,-3.72608 -3.50935,-3.95739 0.91292,-1.62279 1.95544,1.38493 1.95544,1.38493 0,0 0.59935,-1.65739 -0.23461,-3.43545 -0.77427,-1.6508 -2.88097,0.12196 -2.88097,0.12196 0,0 0.0934,-0.98141 -0.22479,-2.09496 -0.31815,-1.11354 -2.06809,-2.38642 -2.06809,-2.38642 0,0 -1.54401,1.91685 -1.38493,3.18947 0.15908,1.27263 0.58963,2.37815 0.58963,2.37815 0,0 -2.54523,-1.90877 -2.86339,0.31832 -0.31815,2.22711 1.28209,2.85564 1.28209,2.85564 0,0 -0.2827,-2.6612 1.5813,-0.78754 0.71839,0.72211 -2.5e-4,2.81101 -1.47846,3.66851 -1.08313,0.6283 -5.31526,1.14077 -4.99711,-2.19987 0.31816,-3.34059 2.65772,-0.0372 2.65772,-0.0372 0,0 -2.7e-4,-4.77231 -2.54558,-3.81785 -2.54525,0.95447 -2.22674,2.86339 -2.22674,2.86339 0,0 -0.54312,-0.85119 -2.45205,-1.96474 -1.90894,-1.11354 -4.23902,2.53525 -4.23902,2.53525 0,0 4.15546,-0.64554 7.33702,2.05879 3.18156,2.70432 2.3766,10.41538 2.3766,10.41538 h 19.13165 V 90.83373 Z m 1.28933,0 v 35.47432 h 19.13217 c 0,0 -0.80497,-7.71106 2.37659,-10.41538 3.18156,-2.70433 7.33702,-2.05879 7.33702,-2.05879 0,0 -2.33007,-3.64879 -4.23902,-2.53525 -1.90892,1.11355 -2.45204,1.96474 -2.45204,1.96474 0,0 0.318,-1.90892 -2.22725,-2.86339 -2.54526,-0.95446 -2.54507,3.81785 -2.54507,3.81785 0,0 2.33956,-3.30338 2.65772,0.0372 0.31815,3.34064 -3.9145,2.82817 -4.99763,2.19987 -1.47821,-0.8575 -2.19634,-2.9464 -1.47794,-3.66851 1.864,-1.87366 1.58078,0.78754 1.58078,0.78754 0,0 1.60076,-0.62853 1.28261,-2.85564 -0.31816,-2.22709 -2.86339,-0.31832 -2.86339,-0.31832 0,0 0.43054,-1.10552 0.58962,-2.37815 0.15908,-1.27262 -1.38492,-3.18947 -1.38492,-3.18947 0,0 -1.74995,1.27288 -2.0681,2.38642 -0.31815,1.11355 -0.2253,2.09496 -0.2253,2.09496 0,0 -2.1067,-1.77276 -2.88097,-0.12196 -0.83396,1.77806 -0.23461,3.43545 -0.23461,3.43545 0,0 1.04252,-3.00772 1.95544,-1.38493 0.13013,0.23131 2.57838,4.27555 -3.50935,3.95739 -6.08772,-0.31816 -4.82847,-3.95773 -4.51032,-4.59404 0.31816,-0.63631 2.05027,-1.86216 2.5275,-0.43046 0.47724,1.4317 0.22324,1.5906 0.22324,1.5906 0,0 2.92083,-3.08776 -0.11059,-4.83795 -1.33833,-0.77269 -2.03415,-0.50634 -2.36368,-0.21187 0.29282,-0.41775 0.69661,-1.10589 0.416,-1.41594 -0.93807,-1.03646 -0.99116,-5.399154 -0.99116,-5.399154 0,0 2.36858,1.657294 3.6587,1.431954 0.55527,-0.097 0.76303,-1.11363 1.27279,-1.11363 0.32255,0 0.95446,-0.15916 0.95446,-0.15916 0.35897,-0.673482 0.53355,-1.347066 0,-2.020547 h -0.95446 c -0.60604,0 -0.69959,-0.848585 -1.19941,-0.952397 -1.29338,-0.268637 -3.82768,1.025776 -3.82768,1.025776 0,0 0.3366,-2.107128 1.14309,-3.895886 0.23681,-0.525256 -0.7829,-2.171959 -0.7829,-2.171959 V 90.83373 Z m -51.37257,2.942974 9.38547,29.827116 -24.97522,-25.134379 16.06672,26.327589 -30.781584,-15.90807 24.339084,20.44164 h 28.3161 v -3.02255 h -2.70423 z m 102.71827,0 -19.64635,32.531346 h -2.70422 v 3.02255 h 28.31558 l 24.33909,-20.44164 -30.78159,15.90807 16.06672,-26.327589 -24.97522,25.134379 z m -60.70895,4.085539 a 1.2373373,1.2373373 0 0 0 -1.23766,1.237134 1.2373373,1.2373373 0 0 0 1.23766,1.237653 1.2373373,1.2373373 0 0 0 1.23713,-1.237653 1.2373373,1.2373373 0 0 0 -1.23713,-1.237134 z m 18.68051,0 a 1.2373373,1.2373373 0 0 0 -1.21853,1.237134 1.2373373,1.2373373 0 0 0 1.23765,1.237653 1.2373373,1.2373373 0 0 0 1.23713,-1.237653 1.2373373,1.2373373 0 0 0 -1.23713,-1.237134 1.2373373,1.2373373 0 0 0 -0.0191,0 z m -17.55603,31.833197 -6.01824,6.01772 h -14.4539 l -7.28379,7.2838 v 14.59497 l 8.52092,22.60947 6.63681,9.67383 4.44314,-4.44314 -4.10569,-5.68079 -5.62447,-12.5982 c 0,0 2.36244,2.92468 3.93723,4.16202 1.5748,1.23733 3.59926,1.91203 3.59926,1.91203 l 17.32298,-9.98285 v -9.36429 l -2.47479,1.68724 -1.79989,-3.14968 4.27468,-2.58744 v -15.29777 h -3.26233 l -6.13038,6.13037 h -14.22962 l -4.24625,4.24625 v 11.8954 l -2.39004,-12.26075 5.96139,-5.96191 h 14.06064 l 6.1867,-6.41149 h 4.04989 v -2.47479 z m 9.4759,0 v 2.47479 h 4.04988 l 6.18671,6.41149 h 14.06064 l 5.96139,5.96191 -2.39003,12.26075 v -11.8954 l -4.24626,-4.24625 h -14.22962 l -6.13037,-6.13037 h -3.26234 v 15.29777 l 4.27468,2.58744 -1.79989,3.14968 -2.47479,-1.68724 v 9.36429 l 17.32298,9.98285 c 0,0 2.02446,-0.6747 3.59926,-1.91203 1.57479,-1.23734 3.93723,-4.16202 3.93723,-4.16202 l -5.62447,12.5982 -4.10569,5.68079 4.44314,4.44314 6.63681,-9.67383 8.52092,-22.60947 v -14.59497 l -7.28379,-7.2838 h -14.4539 l -6.01823,-6.01772 z m -9.7007,24.29671 1.91203,3.14968 -3.37447,1.79989 -2.58744,3.71192 -10.01076,1.79989 6.52415,-7.87394 4.04937,-0.22531 z m 16.89975,0 3.48712,2.36213 4.04937,0.22531 6.52415,7.87394 -10.01076,-1.79989 -2.58744,-3.71192 -3.37447,-1.79989 z m -9.9255,13.72319 -15.38304,8.88163 c 0,0 2.67227,6.07912 6.15932,9.79113 3.48704,3.71202 7.42383,6.63629 7.42383,6.63629 l -3.26233,3.48713 -5.2865,-5.17436 -4.61212,4.38732 c 0,0 4.61203,5.17395 7.98659,7.98608 3.37456,2.81213 6.97425,5.84926 6.97425,5.84926 z m 2.95176,0 v 41.84448 c 0,0 3.59918,-3.03713 6.97374,-5.84926 3.37456,-2.81213 7.98659,-7.98608 7.98659,-7.98608 l -4.6116,-4.38732 -5.28702,5.17436 -3.26233,-3.48713 c 0,0 3.93731,-2.92427 7.42435,-6.63629 3.48705,-3.71201 6.15931,-9.79113 6.15931,-9.79113 z m -2.72696,43.41957 c 0,0 -4.94923,3.26176 -11.92331,5.9614 -6.97408,2.69965 -9.78627,1.12508 -18.22266,4.27467 -8.4364,3.14959 -12.59819,10.46086 -12.59819,10.46086 l 6.97373,8.66149 c 0,0 3.26219,-6.29892 8.99893,-10.12342 5.73675,-3.8245 12.14862,-2.24999 12.14862,-2.24999 l -0.56276,3.59978 15.18564,-17.43511 z m 2.50165,0 v 3.14968 l 15.18564,17.43511 -0.56224,-3.59978 c 0,0 6.41135,-1.57451 12.1481,2.24999 5.73675,3.8245 8.99893,10.12342 8.99893,10.12342 l 6.97425,-8.66149 c 0,0 -4.1618,-7.31127 -12.5982,-10.46086 -8.43639,-3.14959 -11.24858,-1.57502 -18.22266,-4.27467 -6.97408,-2.69964 -11.92382,-5.9614 -11.92382,-5.9614 z" />
    <path
       id="path908"
       style="fill:#000000;stroke-width:0.264999;stroke-linecap:round;stroke-linejoin:round"
       d="m 249.11634,158.60089 c 0,0 10.89685,-3.73834 13.83979,-11.37409 2.94295,-7.63575 1.67033,-18.13491 1.67033,-18.13491 0,0 0.15906,10.49916 -7.7153,17.41906 -7.87436,6.9199 -8.19252,6.5222 -8.19252,6.5222 1.10906,2.98004 0.62332,3.53515 0.3977,5.56774 z m -29.83825,-27.08747 c -1.37841,-0.0139 -1.67535,0.4315 -1.67535,0.4315 0,0 2.69963,1.18155 4.10569,2.36264 1.40607,1.1811 1.79989,2.58692 1.79989,2.58692 0,0 -0.11293,-1.29345 0.39326,-1.6309 0.50618,-0.33746 0.44997,0.67461 0.39377,1.51825 -0.0563,0.84363 1.0689,1.23762 2.24999,2.58744 1.18109,1.34983 3.82457,1.8557 3.82457,1.8557 0,0 -0.61905,0.28125 -1.63142,0.33745 -1.01237,0.0562 -2.13682,-0.50592 -2.13682,-0.50592 0,0 0.28108,0.73096 1.96836,1.23714 1.68731,0.50618 1.74356,0.33744 1.74356,0.33744 0,0 0.16874,0.22514 -0.6749,0.45011 -0.84364,0.22497 -1.40611,-0.11266 -1.40611,-0.11266 0,0 0.16869,0.50634 1.34979,0.78755 1.18109,0.28121 1.79955,-0.22489 1.57458,0.39378 -0.11207,0.30817 -0.32154,0.39239 -0.50385,0.39997 0.0794,0.0282 0.15559,0.0545 0.27905,0.10594 0.67491,0.28121 1.40609,-0.44959 2.41846,-0.44959 1.01236,0 1.12499,0.50596 1.46244,1.91203 0.33746,1.40606 -0.73138,0.50633 -1.18132,1.125 -0.44994,0.61867 -0.28135,0.78711 -1.125,1.1808 -0.84363,0.3937 -0.44955,0.11291 -1.12448,0.28164 -0.6749,0.16873 -0.39374,0.8437 -1.06866,1.06867 -0.67491,0.22497 -1.46252,0.0561 -1.85622,0.56224 -0.3937,0.50619 -0.16879,0.89977 -0.73122,1.29346 -0.56242,0.3937 -1.12445,-0.1124 -2.13682,0.39377 -0.72906,0.36454 -0.98874,0.871 -1.07849,1.1281 l -0.21549,0.0532 c 0,0 -1.06864,-2.7e-4 -1.74356,-2.25 -0.67491,-2.24969 3.09351,-4.10576 3.54345,-4.83691 0.44994,-0.73115 -0.39377,-0.67495 -0.39377,-1.40611 0,-0.73115 0.78754,-0.78702 0.78754,-1.46193 0,-0.67492 -2.3058,-2.70009 -2.3058,-2.70009 0,0 0.33736,0.73119 0.61857,1.74356 0.28121,1.01237 -0.11256,0.56276 -0.73122,0.56276 -0.61867,0 -0.78736,-1.23721 -1.68724,-1.96836 -0.89989,-0.73116 -3.206,-0.39378 -3.206,-0.39378 0,0 1.06883,0.22469 1.51877,0.84336 0.44994,0.61867 -0.22497,0.89985 0,1.68724 0.22497,0.7874 0.56249,0.56239 0.73122,1.68724 0.16873,1.12486 -6e-5,0.9002 -1.06867,0.9002 -1.06861,0 -1.12479,-1.6873 -2.36213,-2.41846 -1.23734,-0.73115 -2.70009,-0.16898 -2.70009,-0.16898 0,0 0.28126,2.7e-4 1.40611,0.9002 1.12485,0.89988 -0.22492,0.39335 -0.28112,0.78704 -0.0562,0.3937 0.39385,0.28128 1.125,0.73122 0.73115,0.44994 1.51842,1.3501 1.63091,2.58744 0.11248,1.23733 -0.22494,1.68686 -1.01234,2.47426 -0.7874,0.7874 -1.29335,0.22531 -2.24948,0.22531 -0.95612,0 -0.89984,0.67471 -1.68724,1.23714 -0.7874,0.56247 -1.23747,-0.0563 -1.46244,-0.0563 -0.22497,0 0.78753,1.12489 1.79989,1.74356 1.01237,0.61867 2.75591,0.50643 2.75591,0.50643 0,0 2.02465,1.91243 3.03702,3.54345 1.01237,1.63104 -0.4501,2.75591 -0.4501,2.75591 0,0 -5.17408,5.17409 -6.35517,5.34282 -1.1811,0.16873 -1.40611,-0.61846 -1.40611,-1.57458 0,-0.95613 1.96807,-1.51858 2.81171,-2.08101 0.84364,-0.56242 1.40602,-1.9126 1.68723,-2.98121 0.28121,-1.06861 -1.23713,-1.74356 -1.23713,-1.74356 0,0 0.22513,0.50633 0.11266,1.12499 -0.1125,0.61867 -0.73105,0.3936 -1.29347,0.28112 -0.56243,-0.11249 -0.61881,-0.22502 -0.78754,-1.06866 -0.16873,-0.84365 -0.33735,-1.5744 -0.95602,-2.13683 -0.61867,-0.56243 -2.7559,0 -2.7559,0 0,0 1.01216,0.28084 1.57458,0.78704 0.56243,0.50617 0.22497,0.73121 0,1.06867 -0.22497,0.33745 -0.89984,0.22518 -1.68724,0.16898 -0.78739,-0.0562 -1.23719,-0.61857 -1.96835,-0.61857 -0.73115,0 -1.68724,1.12448 -1.68724,1.12448 0,0 0.39332,-0.056 1.12448,-0.16847 0.73115,-0.11249 0.84369,0.22462 1.06867,0.78704 0.22497,0.56243 -0.95611,1.51859 -0.67489,2.08101 0.28121,0.56243 0.9002,1.40611 0.9002,1.40611 0,0 -1.29363,1.18103 -1.40612,2.36213 -0.11249,1.18109 0.67481,2.0814 0.95602,3.71244 0.28122,1.63103 -0.16897,3.03708 -0.84388,4.10569 -0.32066,0.50771 -0.5624,0.6805 -0.7307,0.72708 l 1.23713,0.22893 c 0,0 0.28139,0.90003 -0.22479,1.46244 -0.50619,0.56243 -1.18133,0.11214 -1.18133,0.11214 0,0 1.06881,0.84372 2.53112,0.39378 1.46231,-0.44995 1.34978,-1.01234 1.34978,-1.01234 0,0 -0.56234,-0.89981 0.0563,-2.69958 0.61867,-1.79976 2.41836,-0.16891 3.03703,0.22479 0.61867,0.3937 1.63073,2.81213 1.51825,3.4308 -0.11249,0.61863 -0.16835,0.50656 -1.46193,0.56276 -1.29358,0.0562 -2.36264,-0.6749 -2.36264,-0.6749 0,0 0.16893,0.67488 1.85622,1.34979 1.68728,0.67491 2.58743,0 2.58743,0 l 0.39326,0.84336 c 0,0 -0.22457,0.22531 -2.13682,0.22531 -1.91225,0 -2.64377,-0.78755 -2.64377,-0.78755 0,0 0.33736,0.50608 0.61857,0.95602 0.28122,0.44994 1.23765,0.22479 1.23765,0.22479 0,0 -0.44983,0.16886 -0.95601,1.12499 -0.50619,0.95612 -0.33745,1.85622 -0.33745,1.85622 0,0 -2.7e-4,-0.50615 0.78703,-1.68724 0.78739,-1.1811 3.59978,-0.67532 3.59978,-0.28163 0,0.3937 0.84354,1.18139 0.61857,1.91254 -0.22497,0.73116 -2.08101,-0.67489 -2.08101,-0.67489 0,0 0.33768,0.56222 1.18132,1.23713 0.84364,0.67491 1.96843,0.50633 2.69958,1.125 0.73116,0.61867 1.01249,1.23712 1.79989,1.91203 0.7874,0.67491 1.23719,2.69959 2.3058,5.45548 1.06861,2.75589 -4.38703,1.9688 -6.24303,1.23765 -1.85601,-0.73115 -2.2499,-2.19337 -2.53111,-3.71192 -0.28121,-1.51855 0.95625,-1.23772 1.46244,-1.96887 0.50618,-0.73116 0.0563,-0.28074 -0.33744,-2.0805 -0.3937,-1.79975 -2.64325,-1.40611 -2.64325,-1.40611 0,0 0.61848,0.33734 0.89969,0.95601 0.2812,0.61867 -0.1123,1.06867 -0.56224,1.06867 -0.44994,0 -0.78736,-1.57481 -1.68724,-2.41845 -0.89989,-0.84365 -2.02468,0.89968 -2.02468,0.89968 0,0 1.06822,-0.50591 1.46192,-0.16846 0.3937,0.33746 -0.2246,0.22486 -0.78703,0.61856 -0.56242,0.3937 -0.39368,1.23714 -1.01234,1.23714 -0.61867,0 -0.90001,-0.78746 -1.79989,-1.06867 -0.89988,-0.28122 -1.91203,1.06867 -1.91203,1.06867 0,0 0.78718,0.0561 1.57458,0.61856 0.78735,0.56242 -0.0562,0.89992 0.0563,2.08101 0.11248,1.1811 1.34967,0.67487 2.3058,1.68724 0.95612,1.01237 -2.5e-4,1.35028 0.16847,2.36264 0.16873,1.01238 1.12487,0.78727 2.41845,1.96836 1.29358,1.1811 1.34993,4.4991 1.40612,5.62395 0.0563,1.12485 1.35012,1.46251 1.91254,2.19366 0.56243,0.73116 -0.61856,1.85622 -0.61856,1.85622 0,0 2.19302,-2.13731 2.13682,-3.48713 -0.0562,-1.34983 -1.63075,-2.19355 -1.18081,-3.14968 0.44994,-0.95612 2.13705,1.68737 3.31815,1.74357 1.18109,0.0562 -0.39391,-0.0561 1.57458,-0.56224 1.96849,-0.50619 2.24986,1.06822 2.19366,1.79937 -0.0563,0.73115 -0.22485,1.01259 -1.63091,1.18132 -1.40607,0.16872 -1.96835,-0.78754 -1.96835,-0.78754 0,0 -2.7e-4,0.33733 1.12448,1.29346 1.12485,0.95612 2.47478,0.61908 2.47478,0.61908 0,0 -2.1934,1.23685 -2.69958,2.41794 -0.50618,1.1811 -0.61856,4.16244 -0.61856,4.44366 0,0.28121 0.67488,-2.69998 1.34979,-4.331 0.67492,-1.63104 2.47478,-1.51826 2.47478,-1.51826 0,0 -0.3941,0.61863 -0.95653,1.68724 -0.56242,1.06861 -0.33745,2.64325 -0.33745,2.64325 0,0 0.56282,-1.3496 1.29398,-2.24948 0.73115,-0.89988 0.73094,-0.89988 1.57458,0 0.84369,0.89988 -0.28113,0.67445 0.0563,1.4056 0.33745,0.73116 1.12483,0.95625 1.01234,2.13734 -0.11248,1.1811 -2.02468,1.01234 -2.02468,1.01234 0,0 4e-5,0.0565 1.74356,0.50643 1.74352,0.4499 1.12489,-0.33738 1.74356,0.0563 0.61867,0.3937 -0.16865,2.13681 0.39378,2.81172 0.56242,0.67491 0.61849,0.56282 0.22479,1.63142 -0.3937,1.06861 -4.0496,2.4746 -5.23069,3.37448 -1.1811,0.89988 -0.89967,1.91211 -1.91203,1.6309 -1.01237,-0.28122 -0.95607,-3.43076 -2.02468,-4.78058 -1.06861,-1.34983 -3.31866,-0.78755 -3.31866,-0.78755 0,0 0.56275,0.16887 1.23765,1.12499 0.67492,0.95613 0.28112,0.95602 0.28112,0.95602 0,0 -1.29359,-0.33754 -3.09335,-0.0563 -1.79981,0.28121 -1.85622,2.02469 -1.85622,2.02469 0,0 0.33768,-0.56208 1.51877,-0.11214 1.1811,0.44994 0.50591,1.57458 0.50591,1.57458 0,0 -0.78734,-0.16865 -2.02468,0.39377 -1.23734,0.56243 -1.23713,1.91203 -1.23713,1.91203 0,0 2.41861,-1.12457 2.86856,-0.84336 0.44994,0.28122 -0.0566,1.18097 0.11214,1.63091 0.16873,0.44998 3.20588,-0.22472 4.49946,0.50643 1.29358,0.73116 1.96875,2.4746 3.26233,3.03702 1.29359,0.56243 2.30561,-0.11266 3.20549,0.22479 0.89988,0.33746 0.84369,1.68722 1.74357,2.36213 0.89988,0.67491 1.80005,2.7e-4 1.91254,0.56276 0.11248,0.56242 -0.39377,1.06815 -0.39377,1.06815 0,0 1.85604,-0.73101 2.08101,-2.3058 0.22497,-1.57479 -1.18146,-2.41853 -2.98122,-2.81223 -1.79976,-0.3937 -1.74317,-1.18078 -1.79937,-1.8557 -0.0563,-0.67491 2.92435,-4.04969 3.59926,-4.61212 0.67491,-0.56243 2.53095,-1.01214 2.41846,0.84387 -0.11248,1.85601 -2.81223,2.64325 -2.81223,2.64325 0,0 -0.4496,0.56236 3.31866,-0.73122 3.76825,-1.29358 2.13706,-5.62437 2.9807,-8.99894 0.84364,-3.37455 4.66789,-3.03675 6.01772,-6.63628 1.34982,-3.59952 3.26233,-1.63143 3.26233,-1.63143 l 2.69958,2.47479 c 0,0 -0.22518,2.3e-4 -2.53111,0.84387 -2.30595,0.84364 -2.19342,2.58689 -2.02469,3.93671 0.16873,1.34983 2.19377,2.69964 1.5751,3.76825 -0.61866,1.06861 -5.79293,-0.28112 -5.79293,-0.28112 0,0 -0.16872,0.16858 3.09335,1.96835 3.26207,1.79977 7.36743,-1.79966 6.97374,-0.28112 -0.32487,1.25306 -1.45371,2.12171 -2.50218,2.51406 1.53958,-0.41868 3.96486,0.4088 7.49257,-4.72322 1.81511,-2.64058 1.8712,-6.28334 1.8712,-6.28334 0,0 4.89323,0.0563 5.56814,1.40612 0.67491,1.34983 -3.03702,1.06866 -3.03702,1.06866 0,0 5e-5,0.11239 1.06866,0.61857 1.06861,0.50619 1.85588,0.0563 4.72426,0.39378 2.86838,0.33746 3.48713,1.29346 3.48713,1.29346 0,0 -1.18121,-2.53098 -2.13734,-4.49947 -0.95612,-1.96849 -1.63105,-2.58682 -3.09335,-3.54294 -1.46231,-0.95613 -2.9807,0.33745 -2.9807,0.33745 0,0 1.18106,0.0559 1.34979,1.12448 0.16873,1.06861 -1.12499,0.50643 -1.12499,0.50643 l -3.65559,-0.22531 c 0,0 -0.39397,-2.41801 0.16846,-2.81171 0.56242,-0.3937 1.63143,1.06866 1.63143,1.06866 0,0 0.0562,0.0562 -0.39378,-1.40611 -0.44994,-1.4623 -2.58751,-1.63094 -3.31866,-1.68724 -0.73114,-0.0562 -1.12475,-0.45044 -0.61857,-1.01286 0.50619,-0.56243 2.81224,-0.16846 2.81224,-0.16846 0,0 -0.84342,-1.01234 -2.24948,-1.34979 -1.40607,-0.33746 -2.7,0.84385 -2.98121,-0.89968 -0.28122,-1.74352 2.7559,-1.125 2.7559,-1.125 0,0 -0.78724,-0.95644 -2.9807,-1.23765 -2.19345,-0.28122 -3.03702,1.29398 -3.03702,1.29398 0,0 -0.6191,-0.67522 0.0558,-1.91255 0.67491,-1.23734 2.36265,-0.44958 2.36265,-0.44958 0,0 -0.95652,-1.46236 -1.63143,-1.74357 -0.67491,-0.28122 -1.68723,-0.11265 -1.68723,-0.11265 0,0 0.33746,-1.57495 0,-3.8809 -0.33634,-2.29834 -6.02454,-8.77318 -6.06217,-8.816 0.13346,-0.10634 0.54025,-0.45771 1.67535,-1.4764 2.19347,-1.96849 6.24308,-3.09339 11.07995,-4.83691 4.83686,-1.74352 11.02362,-9.11107 11.02362,-9.11107 0,0 -2.13724,2.02455 -5.84926,3.99304 -3.71201,1.96853 -5.84953,1.5185 -8.43669,2.02468 -2.58717,0.50619 -5.79293,2.53111 -5.79293,2.53111 0,0 3.26239,-4.10548 7.7618,-5.68027 4.4994,-1.57479 4.66814,-0.78755 9.95494,-4.5558 5.28682,-3.76826 6.97375,-17.99786 6.97375,-17.99786 0,0 -3.26163,5.90528 -7.59231,10.85463 -4.33068,4.94935 -6.52458,4.27463 -9.89914,5.62446 -3.37456,1.34982 -5.7366,3.14968 -5.7366,3.14968 2.33543,-3.62874 3.29192,-6.36407 2.08101,-10.74249 -1.30215,4.25575 -5.11954,7.65581 -8.32404,9.56169 0,0 -0.1124,-0.78743 0.0563,-2.08102 0.16872,-1.29358 2.19329,-4.72458 3.31814,-5.62446 1.12485,-0.89988 2.36213,-0.39377 2.36213,-0.39377 0,0 -0.95609,-1.29378 -1.34979,-2.53112 -0.28256,-0.88805 0.12842,-1.7105 0.38396,-2.10839 l 0.1788,-0.0284 c 0.95613,-0.89989 1.79946,-0.2814 2.19315,0.56224 0.3937,0.84364 -0.33745,1.74357 -0.33745,1.74357 0,0 -3e-5,0.16867 1.34979,-1.40612 1.34982,-1.5748 -0.33735,-3.43096 -0.61857,-3.8809 -0.28121,-0.44994 -0.5061,-1.18093 0.39378,-1.23713 0.89987,-0.0562 1.18132,1.01234 1.18132,1.01234 0,0 0.11248,-0.33768 0,-1.18132 -0.11249,-0.84364 -1.01234,-1.34979 -1.01234,-1.34979 0,0 0.50597,-0.50602 1.57458,0.11265 1.06861,0.61867 0.67489,2.13734 0.67489,2.13734 0,0 0.61857,-1.40609 0.61857,-2.41846 0,-1.01236 -1.06867,-1.74356 -1.06867,-1.74356 0,0 0.78776,-0.056 2.64377,-1.23714 1.856,-1.18108 2.86804,-4.44313 2.86804,-4.44313 0,0 -0.22473,0.95606 -2.24948,2.36213 -1.82646,1.26837 -3.45667,0.52917 -3.76101,0.37103 0.15417,-0.08 0.44418,-0.24818 1.00511,-0.59634 1.63103,-1.01237 0.84336,-2.47427 0.84336,-2.47427 0,0 -0.22486,0.84343 -0.95601,1.23713 -0.73115,0.39374 -0.28089,0.67508 -2.86805,0.45011 -2.58716,-0.22497 -3.93708,-2.98122 -5.90558,-2.98122 -1.96849,0 -2.7559,1.18132 -2.7559,1.18132 0,0 -1.12495,-1.01239 -3.14968,-2.41845 -2.02473,-1.40607 -4.61212,-0.89969 -4.61212,-0.89969 0,0 0.61862,0.39367 1.68723,1.01234 1.06861,0.61867 0.9002,1.34979 0.9002,1.34979 0,0 -0.22485,0.0563 -0.95601,0.0563 -0.73115,0 -1.01234,1.06815 -1.01234,1.06815 0,0 0.89986,0.56292 1.01234,1.01286 0.11253,0.44994 0.28096,0.56214 0.16847,1.1808 -0.11249,0.61861 -0.56248,0.0562 -1.74357,-0.0563 -1.1811,-0.11248 -1.74336,-0.73087 -2.64325,-1.51826 -0.89988,-0.7874 -1.74372,-2.75596 -1.85621,-3.48712 -0.11248,-0.73115 1.40611,-0.33745 1.40611,-0.33745 0,0 -0.61855,-0.50659 -1.29346,-0.95653 -0.67491,-0.44994 -1.96829,-0.67488 -4.33048,-1.01234 -0.44291,-0.0633 -0.81879,-0.0908 -1.13688,-0.0941 z m 25.51833,87.0846 c -0.65929,0.1793 -1.00164,0.25298 -0.6475,0.18552 0.2065,-0.0393 0.42535,-0.10238 0.6475,-0.18552 z m -38.44209,-45.43082 -0.28164,-0.0522 c 0,0 0.0957,0.10366 0.28164,0.0522 z m 24.29877,-28.61737 c -0.3544,-0.12591 -0.33951,-0.0625 -0.33951,-0.0625 0,0 0.15583,0.0702 0.33951,0.0625 z m 8.82944,-5.22707 c 0.83701,-0.0337 1.43969,0.38027 2.07946,0.60875 0.78739,0.28121 2.53111,0.16898 2.53111,0.16898 0,0 -1.79994,0.89951 -3.54346,1.12448 -1.74351,0.22497 -2.64324,-1.12448 -2.64324,-1.12448 0,0 -0.22509,-0.33744 0.95601,-0.67489 0.22146,-0.0633 0.42696,-0.0951 0.62012,-0.10284 z m 6.96908,68.47282 a 2.3464021,2.3464021 0 0 1 2.34663,2.34663 2.3464021,2.3464021 0 0 1 -2.34663,2.34663 2.3464021,2.3464021 0 0 1 -2.34611,-2.34663 2.3464021,2.3464021 0 0 1 2.34611,-2.34663 z" />
    <path
       id="path923"
       style="fill:#000000;stroke-width:0.264999;stroke-linecap:round;stroke-linejoin:round"
       d="m 89.988175,158.15422 c 0,0 -11.304765,-1.85601 -14.173139,-12.48586 -2.868372,-10.62986 -0.787395,-16.64782 -0.787395,-16.64782 0,0 0.337455,11.4735 7.030326,17.154 6.69287,5.6805 8.21142,6.01796 8.21142,6.01796 z M 104.72384,128.6831 c 0,0 -1.91218,1.23712 -2.69958,2.24947 -0.78739,1.01237 -1.12499,1.46245 -1.12499,1.46245 h -1.574585 c -1.012367,0 -2.362266,0.9002 -3.824573,0.56275 -1.46231,-0.33746 -2.137336,-1.91254 -2.137336,-1.91254 0,0 0.112289,1.23746 0.899687,2.13734 0.787394,0.89988 2.924886,1.23713 2.924886,1.23713 0,0 -1.11e-4,1.46258 -2.474785,2.92489 -2.474674,1.46231 -4.049366,-1.46245 -4.049366,-1.46245 0,0 0.112469,1.46208 0.674894,2.24948 0.562427,0.78739 2.362131,0.9002 2.362131,0.9002 0,0 -1.124667,0.89966 -0.562239,2.24948 0.562424,1.34983 1.46228,1.01265 1.01234,2.24999 -0.449942,1.23734 -2.700094,1.12448 -2.700094,1.12448 0,0 1.237618,0.67523 2.58744,0.56275 1.349825,-0.11249 1.349788,-1.12499 1.349788,-1.12499 0,0 0.225107,3.8245 1.462444,6.52415 1.23733,2.69964 5.511618,5.62423 6.411498,7.87394 0.80527,2.01319 -1.079,4.7293 -1.48673,5.28184 -1.30461,-0.91078 -2.917882,-2.08004 -4.362528,-3.25716 -3.037102,-2.47468 -4.499467,-7.31118 -4.499467,-7.31118 0,0 -0.449585,3.48672 -0.449585,5.96139 0,2.47468 2.699575,5.17436 2.699575,5.17436 0,0 -2.025102,-1.57489 -5.737116,-3.14968 -3.712012,-1.5748 -3.824124,-0.44986 -7.986078,-2.69957 -4.161951,-2.24971 -9.786482,-13.7232 -9.786482,-13.7232 0,0 0.112757,3.48693 2.924887,11.24841 2.812132,7.76148 8.998627,9.2242 14.285433,11.24893 5.286806,2.02473 7.986593,5.96139 7.986593,5.96139 0,0 -1.237726,-0.89983 -5.062225,-2.36213 -3.824496,-1.46231 -3.487039,-0.45009 -6.861595,-1.125 -3.374554,-0.6749 -8.098732,-5.0617 -8.098732,-5.0617 0,0 0.11257,0.44985 3.487126,3.71192 3.374557,3.26207 8.323913,5.62441 13.385747,7.31169 3.757816,1.25261 5.529302,2.75164 6.193936,3.44165 l -0.0801,0.6811 c -0.281294,0.22601 -0.734385,0.60685 -1.614371,1.38906 -2.024734,1.79976 -6.74946,2.58693 -6.74946,2.58693 l 7.997963,-0.86249 -0.145727,1.24127 c -0.158814,0.0991 -0.30556,0.19825 -0.427882,0.29611 -1.124852,0.89988 -1.574861,3.59968 -4.16202,7.64914 -2.587159,4.04947 -7.536296,4.387 -8.436179,3.48713 -0.899879,-0.89989 -0.337505,-2.8122 2.024685,-4.16202 2.362189,-1.34982 3.037056,-4.49927 1.687234,-5.39915 -1.349822,-0.89988 -7.986675,-0.22494 -11.473717,-1.34979 -3.487041,-1.12485 -5.174361,-6.1867 -5.174361,-6.1867 0,0 -2.6e-5,0.11254 1.012341,4.49946 1.012367,4.38692 6.299356,4.61161 6.299356,4.61161 l -1.687235,0.78755 c -1.687277,0.7874 -4.724259,-1.23714 -4.724259,-1.23714 0,0 1.911953,2.24946 4.949052,2.92437 3.037102,0.67491 7.086888,-3.03724 7.761801,-1.12499 0.67491,1.91224 -5.287076,4.04978 -2.924887,7.7618 2.362189,3.71201 7.873862,1.462 10.910962,-1.91255 1.501079,-1.66787 2.616274,-2.09714 3.361552,-2.10685 0,0 3.735693,0.0952 3.735693,4.87258 0,4.77735 -5.175399,4.84156 -5.175399,4.84156 0,0 2.806821,1.55488 4.806939,0.67954 0.6051,-0.26481 2.00086,-2.67602 2.66031,-2.04018 0.76007,0.73286 0.68999,4.6453 -0.26975,6.30762 -0.96295,1.66787 -4.507002,2.22779 -5.811019,1.29553 -1.123294,-0.80305 -0.09095,-3.0179 -0.09095,-3.0179 -0.39084,0.29312 -1.894432,1.05547 -2.542482,1.54151 -1.349822,1.01236 -1.01234,3.03702 -1.01234,3.03702 0,0 -2.137297,-2.58706 -3.824574,-4.04937 -1.687279,-1.4623 -6.861595,-1.57458 -6.861595,-1.57458 0,0 2.812536,0.7875 4.387329,2.81224 1.574794,2.02474 -1.462445,3.37447 -1.462445,3.37447 0,0 5.06154,3.03718 4.949052,3.48712 -0.112485,0.44994 -0.337412,0.56206 -1.687234,1.12448 -1.262484,0.52604 -1.624629,2.65236 -1.668116,2.93471 0.09371,-0.17342 0.559519,-0.63141 2.680456,-1.80971 2.139265,-1.18848 3.155347,-1.164 4.37596,0.0424 1.220613,1.20637 -1.417021,7.67101 -3.025653,9.40615 -1.710039,1.84451 -0.562825,4.04966 2.13682,5.9619 2.699644,1.91226 6.411981,-1.34961 8.099251,-1.57458 1.68728,-0.22497 1.68723,1.68724 1.68723,1.68724 0,0 0.44959,-0.7875 0.44959,-2.47478 0,-1.68728 -2.6992,-1.34961 -4.16151,-1.57458 -1.462305,-0.22497 -3.599948,-2.36246 -3.712433,-3.26234 -0.112485,-0.89989 1.462567,0.22494 3.599783,1.34979 2.13722,1.12485 3.93671,-0.4501 3.93671,-0.4501 0,0 -2.24961,-1.12444 -3.71192,-2.47427 -1.462301,-1.34982 0.78768,-2.13731 2.24999,-3.48712 1.46231,-1.34982 0.22496,-2.24979 0.33745,-3.14968 0.11248,-0.89988 1.01234,0.4501 1.01234,0.4501 0,0 1.01243,-0.78755 4.49947,-0.78755 3.48704,0 6.74894,4.49947 6.74894,4.49947 0,0 -0.45005,-1.46237 -2.47478,-4.49947 -2.02474,-3.0371 -3.93671,-2.47478 -3.93671,-2.47478 l 1.34978,-2.81224 c 0,0 0.3372,0.67488 3.26182,1.34979 2.92462,0.67491 4.83692,-1.12448 4.83692,-1.12448 0,0 -3.48676,-1.34974 -4.94906,-3.03702 -1.46231,-1.68728 2.24948,-4.61212 2.24948,-4.61212 0,0 -1.57491,-1.68755 -2.47479,-2.92489 -0.89989,-1.23733 0.67508,-2.13711 0.45011,-4.04936 -0.22497,-1.91224 -2.02486,-3.14965 -2.13734,-4.49947 -0.11249,-1.34983 1.57489,-0.67475 2.81223,0.4501 1.23734,1.12485 1.01234,4.38681 1.01234,4.38681 0,0 2.02466,-5.17436 3.03703,-5.17436 1.01237,0 -0.3376,0.7874 -1.46245,6.8616 -1.12485,6.0742 1.68724,7.7618 1.68724,7.7618 0,0 -0.22447,-1.91254 0.33796,-2.24999 0.56243,-0.33746 1.79969,1.91252 3.03703,2.92488 1.23734,1.01237 3.03702,0.6749 3.03702,0.6749 0,0 0.11258,3.14965 3.14968,4.16202 3.0371,1.01236 3.82417,-2.02497 6.29884,-4.61212 2.47467,-2.58716 2.36212,-0.11219 2.69957,1.91254 0.33746,2.02473 2.81224,5.96139 2.81224,5.96139 0,0 -0.44974,-2.02448 -0.89969,-3.26181 -0.44994,-1.23734 2.36229,-4.49957 2.47478,-6.97425 0.11248,-2.47467 -1.3499,-3.03685 -3.14967,-3.26182 -1.79976,-0.22497 -6.97426,2.13682 -6.97426,2.13682 0,0 0.67509,-2.81186 -0.22479,-3.93671 -0.89988,-1.12486 -2.24977,-0.9002 -4.49946,-0.9002 -2.24971,0 -5.73661,-1.91203 -5.73661,-1.91203 0,0 0.56217,0.11268 3.59927,-0.89969 3.0371,-1.01236 2.58744,-4.04988 2.58744,-4.04988 0,0 -0.67518,2.13769 -3.26234,1.68775 -2.58716,-0.44995 -1.01216,-6.52459 -1.57458,-9.56169 -0.56243,-3.0371 -3.14968,-3.82457 -3.14968,-3.82457 0,0 1.12479,0.22531 2.69958,-0.11214 1.57479,-0.33746 2.47475,-2.47477 3.82457,-3.14968 1.34983,-0.67491 3.82458,0.89969 3.82458,0.89969 0,0 -1.01248,-0.89983 -2.81223,-2.02468 -1.79977,-1.12485 -3.03703,-0.11214 -3.03703,-0.11214 0,0 0.33707,-0.56239 1.79937,-1.68724 1.46231,-1.12485 0.78788,-1.57505 1.35031,-3.59978 0.56242,-2.02473 4.27416,-3.48712 4.27416,-3.48712 0,0 -1.57456,-0.33728 -2.58693,-0.22479 -1.01235,0.11247 -1.68723,1.34978 -1.68723,1.34978 v -5.28701 c 0,-1.91225 1.01228,-3.03717 3.03702,-4.49947 2.02473,-1.46231 3.14968,2.58744 3.14968,2.58744 0,0 0.22497,-2.36209 -0.33745,-3.71192 -0.56243,-1.34982 -1.12513,-0.11264 -2.24999,-0.4501 -1.12485,-0.33745 1.91203,-0.89969 1.91203,-0.89969 0,0 -0.89982,-0.44993 -2.36213,-0.33744 -1.46231,0.11248 -1.01234,1.46192 -1.01234,1.46192 0,0 0.22518,0.33745 -1.23713,0.6749 -1.46231,0.33745 -1.46242,1.79987 -2.47479,2.47478 -1.01236,0.67491 -2.13733,0.33745 -2.13733,0.33745 0,0 0.78753,-0.45007 1.46244,-1.79989 0.67491,-1.34982 0.11264,-0.78699 0.78755,-2.81172 0.6749,-2.02473 3.59926,-3.37499 3.59926,-3.37499 0,0 -0.89967,-0.22479 -1.91203,0.11266 -1.01237,0.33746 -1.79989,1.01234 -1.79989,1.01234 0,0 -0.67474,-0.67463 0.11266,-3.93671 0.7874,-3.26207 3.48691,-1.80008 5.0617,-0.9002 1.5748,0.89988 0.89966,-0.44994 1.57458,-0.33745 0.67491,0.11248 1.125,1.34979 1.125,1.34979 0,0 0.3378,-0.89964 -0.44959,-2.24947 -0.7874,-1.34983 -2.92488,-0.89969 -2.92488,-0.89969 l 0.11265,-0.90021 c 0,0 -3.14967,-1.4e-4 -3.14967,-1.12499 0,-1.12485 2.47476,-2.58693 3.48712,-2.58693 1.01237,0 -0.22531,0.89966 -0.22531,1.91203 0,1.01237 0.56239,-0.11215 1.68724,0.22531 1.12484,0.33746 1.23765,0.6749 1.23765,0.6749 0,0 -0.22506,-4.1622 -3.48713,-3.93723 -3.26207,0.22497 -6.07437,3.59985 -7.3117,8.09925 -1.23734,4.49941 -1.23713,5.39915 -1.23713,5.39915 0,0 -1.34994,-1.12499 -2.13734,-1.12499 -0.7874,0 -0.33744,1.57509 -0.33744,1.57509 0,0 -1.01211,-2.02495 -3.26182,-4.94957 -2.2497,-2.92461 -6.07457,-2.92436 -6.07457,-2.92436 0,0 1.23778,-0.33762 3.03755,-0.45011 1.79977,-0.11249 1.79937,-0.9002 1.79937,-0.9002 0,0 -1.12461,1e-5 -2.92437,-0.33745 -1.79976,-0.33745 -2.02468,-1.79937 -2.02468,-1.79937 0,0 0.44956,-1.6e-4 1.46192,-0.11266 1.01237,-0.11247 2.36259,0.67471 4.72478,0.89969 2.36219,0.22497 4.04936,-2.81172 4.04936,-2.81172 0,0 -1.57469,1.2373 -3.71192,1.68724 -2.13721,0.44994 -1.79984,-0.56273 -3.48712,-1.23765 -1.68728,-0.67491 -2.58744,-0.67489 -2.58744,-0.67489 0,0 0.78769,-1.34978 2.24999,-1.68724 1.46231,-0.33745 3.14933,1.6874 3.59927,1.79989 0.44994,0.11248 -0.89981,-2.02481 -2.69958,-3.82457 -1.79976,-1.79976 -3.82457,-1.46244 -3.82457,-1.46244 0,0 2.6e-4,-0.11247 -0.44959,-1.01235 -0.44994,-0.89988 -1.01247,-1.34961 -2.47478,-1.57458 -1.46231,-0.22497 -1.91235,-2.6e-4 -2.81223,-1.23765 -0.89988,-1.23734 1.46244,-3.59926 1.46244,-3.59926 z m -16.291513,89.66068 c -0.04048,0.0749 -0.01913,0.10232 -0.01913,0.10232 0,0 0.01611,-0.0828 0.01913,-0.10232 z m 13.535603,-82.23684 c 1e-5,0 0.45009,0.22521 1.125,0.50642 0.67491,0.28122 1.46207,-0.0563 2.58692,0.6749 1.12486,0.73115 1.29346,1.23713 1.29346,1.23713 0,0 -2.64305,-0.0561 -3.20548,-0.22479 -0.56242,-0.16872 -1.7999,-2.19366 -1.7999,-2.19366 z" />
  </g>
  <g
     inkscape:label="Layer 1"
     inkscape:groupmode="layer"
     id="layer1"
     style="display:none;opacity:0.357616"
     sodipodi:insensitive="true" />
</svg>
