<?xml version="1.0" encoding="UTF-8" standalone="no"?>
<svg
   xmlns:dc="http://purl.org/dc/elements/1.1/"
   xmlns:cc="http://creativecommons.org/ns#"
   xmlns:rdf="http://www.w3.org/1999/02/22-rdf-syntax-ns#"
   xmlns:svg="http://www.w3.org/2000/svg"
   xmlns="http://www.w3.org/2000/svg"
   xmlns:xlink="http://www.w3.org/1999/xlink"
   xmlns:sodipodi="http://sodipodi.sourceforge.net/DTD/sodipodi-0.dtd"
   xmlns:inkscape="http://www.inkscape.org/namespaces/inkscape"
   sodipodi:docname="Yan_Z.svg"
   inkscape:version="1.0 (4035a4fb49, 2020-05-01)"
   id="svg8"
   version="1.1"
   viewBox="0 0 338.66666 338.66668"
   height="1280"
   width="1280"
   inkscape:export-filename="D:\Titipan\Projects\Codes\Rhodes Wiki Indo\Icon Assets\Lee_B.png"
   inkscape:export-xdpi="300"
   inkscape:export-ydpi="300">
  <defs
     id="defs2">
    <pattern
       patternTransform="translate(-51.833686,-17.277895)"
       id="pattern4174"
       xlink:href="#pattern4166"
       inkscape:collect="always" />
    <inkscape:path-effect
       effect="powerstroke"
       id="path-effect892"
       is_visible="true"
       lpeversion="1"
       offset_points="0,3.40217"
       sort_points="true"
       interpolator_type="CubicBezierJohan"
       interpolator_beta="0.2"
       start_linecap_type="zerowidth"
       linejoin_type="extrp_arc"
       miter_limit="4"
       scale_width="1"
       end_linecap_type="zerowidth" />
    <inkscape:path-effect
       effect="powerstroke"
       id="path-effect887"
       is_visible="true"
       lpeversion="1"
       offset_points="0,3.40217"
       sort_points="true"
       interpolator_type="CubicBezierJohan"
       interpolator_beta="0.2"
       start_linecap_type="zerowidth"
       linejoin_type="extrp_arc"
       miter_limit="4"
       scale_width="1"
       end_linecap_type="zerowidth" />
    <inkscape:path-effect
       effect="powerstroke"
       id="path-effect882"
       is_visible="true"
       lpeversion="1"
       offset_points="2.7941224,-3.4021738 | 2.7941224,-3.4021738"
       sort_points="true"
       interpolator_type="CubicBezierJohan"
       interpolator_beta="0.2"
       start_linecap_type="zerowidth"
       linejoin_type="extrp_arc"
       miter_limit="4"
       scale_width="1"
       end_linecap_type="zerowidth" />
    <inkscape:path-effect
       effect="powerstroke"
       id="path-effect877"
       is_visible="true"
       lpeversion="1"
       offset_points="0,3.01003"
       sort_points="true"
       interpolator_type="CubicBezierJohan"
       interpolator_beta="0.2"
       start_linecap_type="zerowidth"
       linejoin_type="extrp_arc"
       miter_limit="4"
       scale_width="1"
       end_linecap_type="zerowidth" />
    <inkscape:path-effect
       effect="powerstroke"
       id="path-effect872"
       is_visible="true"
       lpeversion="1"
       offset_points="0,3.01003"
       sort_points="true"
       interpolator_type="CubicBezierJohan"
       interpolator_beta="0.2"
       start_linecap_type="zerowidth"
       linejoin_type="extrp_arc"
       miter_limit="4"
       scale_width="1"
       end_linecap_type="zerowidth" />
    <inkscape:path-effect
       effect="powerstroke"
       id="path-effect868"
       is_visible="true"
       lpeversion="1"
       offset_points="11.631982,3.0100329"
       sort_points="true"
       interpolator_type="CubicBezierJohan"
       interpolator_beta="0.2"
       start_linecap_type="zerowidth"
       linejoin_type="extrp_arc"
       miter_limit="4"
       scale_width="1"
       end_linecap_type="zerowidth" />
    <inkscape:path-effect
       effect="powerstroke"
       id="path-effect864"
       is_visible="true"
       lpeversion="1"
       offset_points="156.61386,0.938298"
       sort_points="true"
       interpolator_type="CubicBezierJohan"
       interpolator_beta="0.2"
       start_linecap_type="zerowidth"
       linejoin_type="extrp_arc"
       miter_limit="4"
       scale_width="1"
       end_linecap_type="zerowidth" />
    <pattern
       id="pattern4166"
       patternTransform="translate(697.97451,522.68951)"
       height="34.555802"
       width="34.555802"
       patternUnits="userSpaceOnUse">
      <circle
         style="opacity:1;fill:#000000;fill-opacity:1;stroke:none;stroke-width:2.83465;stroke-miterlimit:4;stroke-dasharray:none;stroke-opacity:1"
         id="path4156"
         cx="5.0119109"
         cy="17.277901"
         r="5.0119109" />
      <circle
         r="5.0119109"
         cy="17.277901"
         cx="29.543892"
         id="circle4160"
         style="opacity:1;fill:#000000;fill-opacity:1;stroke:none;stroke-width:2.83465;stroke-miterlimit:4;stroke-dasharray:none;stroke-opacity:1" />
      <circle
         r="5.0119109"
         cy="29.543892"
         cx="17.277901"
         id="circle4162"
         style="opacity:1;fill:#000000;fill-opacity:1;stroke:none;stroke-width:2.83465;stroke-miterlimit:4;stroke-dasharray:none;stroke-opacity:1" />
      <circle
         style="opacity:1;fill:#000000;fill-opacity:1;stroke:none;stroke-width:2.83465;stroke-miterlimit:4;stroke-dasharray:none;stroke-opacity:1"
         id="circle4164"
         cx="17.277901"
         cy="5.0119109"
         r="5.0119109" />
    </pattern>
    <pattern
       id="pattern4176"
       patternTransform="translate(690.81773,515.53278)"
       height="48.869282"
       width="48.869282"
       patternUnits="userSpaceOnUse">
      <rect
         style="display:inline;fill:url(#pattern4174);stroke:none;stroke-width:0.999999"
         transform="rotate(-135)"
         width="34.555801"
         height="34.555801"
         x="-51.833702"
         y="-17.277901"
         id="rect4172" />
    </pattern>
  </defs>
  <sodipodi:namedview
     inkscape:pagecheckerboard="false"
     units="px"
     showgrid="false"
     inkscape:document-rotation="0"
     inkscape:current-layer="layer1"
     inkscape:document-units="mm"
     inkscape:cy="834.74052"
     inkscape:cx="922.07655"
     inkscape:zoom="0.33507752"
     inkscape:pageshadow="2"
     inkscape:pageopacity="0"
     borderopacity="1.0"
     bordercolor="#666666"
     pagecolor="#910000"
     id="base"
     inkscape:snap-global="false"
     showguides="true"
     inkscape:guide-bbox="true"
     inkscape:snap-midpoints="true"
     inkscape:snap-bbox="false"
     inkscape:snap-bbox-midpoints="false" />
  <metadata
     id="metadata5">
    <rdf:RDF>
      <cc:Work
         rdf:about="">
        <dc:format>image/svg+xml</dc:format>
        <dc:type
           rdf:resource="http://purl.org/dc/dcmitype/StillImage" />
        <dc:title></dc:title>
      </cc:Work>
    </rdf:RDF>
  </metadata>
  <g
     inkscape:label="Objects"
     id="layer3"
     inkscape:groupmode="layer"
     style="display:inline">
    <path
       transform="scale(0.26458333)"
       inkscape:export-ydpi="300"
       inkscape:export-xdpi="300"
       d="m 332.91016,271.20508 -0.7461,4.10351 33.94727,36.18555 -1.11914,10.81836 67.89648,153.69727 36.5586,12.31054 3.23046,9.62696 21.79297,28.39453 -7.87304,31.00586 37.80273,78.03515 10.14453,6.40235 34.24805,-1.66993 49.30859,47.85157 -4.91211,-13.88282 11.47657,10.36329 17.42578,-0.43165 17.42382,0.43165 11.47852,-10.36329 -4.91211,13.88282 49.30859,-47.85157 34.24805,1.66993 10.14453,-6.40235 37.80274,-78.03515 -7.87305,-31.00586 21.79297,-28.39453 3.23047,-9.62696 36.55859,-12.31054 67.89453,-153.69727 -1.11914,-10.81836 33.94727,-36.18555 -0.7461,-4.10351 -60.06054,49.24219 3.35742,7.83593 -46.25781,110.04883 -82.81641,48.86914 -16.04102,23.50195 53.71876,-17.90624 -45.88477,19.39843 -2.98438,7.08789 0.7461,6.3418 -46.63086,79.83203 -25.36719,16.78711 -25.74023,44.76563 -15.21875,5.07226 -15.21875,-5.07226 -25.74024,-44.76563 -25.36719,-16.78711 -46.63085,-79.83203 0.74609,-6.3418 -2.98438,-7.08789 -45.88476,-19.39843 53.71875,17.90624 -16.04102,-23.50195 -82.8164,-48.86914 -46.25977,-110.04883 3.35742,-7.83593 z m 234.83398,1.02148 -29.28125,88.36719 9.49805,21.63086 29.27929,-74.65234 -8.70507,-35.34571 z m 147.9043,0 -8.70508,35.34571 29.2793,74.65234 9.49609,-21.63086 -29.2793,-88.36719 z m -74.00586,0.0977 v 5.61523 l -19.99219,124.95313 8.95313,22.38281 -27.60547,65.65625 9.28906,16.64258 53.98828,-52.10742 -12.69531,-30.19141 8.95312,-22.38281 -19.99218,-124.95313 v -5.61523 l -0.44922,2.80859 z m -104.49805,98.29297 -6.06641,7.91406 22.68555,84.41016 -5.53906,6.33203 -10.81641,-46.16211 -6.33008,15.29883 5.53907,56.97851 6.0664,13.98047 -4.2207,13.7168 12.92578,7.64844 15.30078,-14.50782 14.50782,-44.84375 z m 209.89453,0 -44.05273,100.76562 14.50781,44.84375 15.30078,14.50782 12.92383,-7.64844 -4.2207,-13.7168 6.06836,-13.98047 5.53906,-56.97851 -6.33008,-15.29883 -10.81641,46.16211 -5.53906,-6.33203 22.68555,-84.41016 z m -414.06445,53.28515 43.52539,55.92188 50.64648,32.70898 0.52735,7.65039 -9.23242,1.31836 7.91406,11.08008 -12.39844,4.48438 40.88672,79.66211 8.70508,50.64648 30.07226,-24.26758 34.55469,57.24024 h 16.61914 l 56.18555,20.04882 3.16601,-5.01171 -11.08007,-9.4961 18.20117,-0.52734 7.38672,-9.23242 -1.05469,-3.95703 -10.02344,-8.70508 -20.04883,3.95703 -28.75195,-10.81641 -26.37891,-27.43359 -38.77539,-11.60547 -7.38671,-47.48242 -23.2129,-39.56641 v -16.0918 l -21.89453,-21.10351 19.51953,-2.63672 -69.90234,-39.04102 -33.23633,-39.5664 z m 618.23242,0 -24.53125,8.17774 -33.23633,39.5664 -69.90429,39.04102 19.52148,2.63672 -21.89453,21.10351 v 16.0918 l -23.21289,39.56641 -7.38672,47.48242 -38.77539,11.60547 -26.37891,27.43359 -28.75195,10.81641 -20.04883,-3.95703 -10.02344,8.70508 -1.05468,3.95703 7.38476,9.23242 18.20117,0.52734 -11.07812,9.4961 3.16601,5.01171 56.18555,-20.04882 h 16.61914 l 34.55469,-57.24024 30.07227,24.26758 8.70507,-50.64648 40.88672,-79.66211 -12.39844,-4.48438 7.91407,-11.08008 -9.23242,-1.31836 0.52734,-7.65039 50.64648,-32.70898 z m -281.73242,39.17578 -53.55859,50.99805 4.98828,8.9375 -5.96875,5.96875 8.95312,26.11328 -5.96875,5.96875 3.60938,3.60938 43.11523,-44.10742 16.54102,-29.63477 z m -88.54102,33.62891 -11.08007,24.79492 -15.82618,12.39844 23.74024,18.20117 15.03515,-6.85937 14.24415,3.42969 6.5957,-4.22071 -13.45313,-33.76367 z m 122.31641,0 -19.25586,13.98047 -13.45312,33.76367 6.59375,4.22071 14.24414,-3.42969 15.03711,6.85937 23.74023,-18.20117 -15.82617,-12.39844 z m -37.08789,29.18945 -41.5957,41.81446 6.7832,6.7832 4.47656,13.42969 h 5.81641 0.89844 5.8164 l 4.47656,-13.42969 13.42969,-13.42969 -5.96875,-5.96875 8.95313,-26.11328 z m -117.62891,14.6504 35.43946,52.22656 22.38281,21.26367 24.62109,43.27344 10.66602,3.4414 v 0.28907 l 0.44922,-0.14454 0.44922,0.14454 v -0.28907 l 10.66601,-3.4414 24.62109,-43.27344 22.38282,-21.26367 35.43945,-52.22656 -26.11328,17.90624 -19.39844,-9.69921 -40.66211,49.24218 -7.38476,2.8125 -7.38477,-2.8125 -40.66211,-49.24218 -19.39844,9.69921 z m -194.1914,118.91406 95.22656,79.40039 23.21289,4.74805 -97.59961,-80.45508 z m 575.5,0 -20.83985,3.69336 -97.59961,80.45508 23.21289,-4.74805 z M 641.64258,690.8516 v 0.0684 l -20.08594,1.51563 2.10938,3.95703 17.97656,8.29101 v 0.41407 l 0.44922,-0.20704 0.44922,0.20704 v -0.41407 l 17.97656,-8.29101 2.10937,-3.95703 -20.08593,-1.51563 v -0.0684 l -0.44922,0.0332 z m -19.03125,11.08008 -21.36719,26.90625 -8.44141,-2.63867 -2.37304,8.17773 25.85156,23.21289 1.31836,5.80274 5.53906,-1.8457 18.50391,9.55859 v 0.46484 l 0.44922,-0.23242 0.44922,0.23242 v -0.46484 l 18.5039,-9.55859 5.53906,1.8457 1.31836,-5.80274 25.85157,-23.21289 -2.375,-8.17773 -8.43946,2.63867 -21.36718,-26.90625 -19.48047,7.89063 z m -74.91602,11.60547 -74.38672,46.16211 9.23243,5.54101 57.24218,-32.70898 z m 188.79102,0 7.91406,18.99414 57.24219,32.70898 9.23242,-5.54101 z m -150.08985,9.99023 -34.13281,11.00391 -71.625,36.55859 -50.36133,-31.33593 -8.95312,0.37304 8.95312,4.47657 69.75977,63.79101 68.64062,-28.72461 18.65235,51.48047 30.2168,26.85938 -15.29493,-32.08204 6.71485,-34.32031 4.10351,12.6836 28.57227,11.21093 v 0.35352 l 0.44922,-0.17578 0.44922,0.17578 v -0.35352 l 28.57226,-11.21093 4.10352,-12.6836 6.71484,34.32031 -15.29492,32.08204 30.2168,-26.85938 18.65234,-51.48047 68.64062,28.72461 69.75977,-63.79101 8.95313,-4.47657 -8.95313,-0.37304 -50.36133,31.33593 -71.625,-36.55859 -34.13281,-11.00391 3.16992,13.24219 -27.23242,29.4707 -4.10352,-0.37304 -5.4082,6.71484 -22.12109,8.04297 -22.1211,-8.04297 -5.4082,-6.71484 -4.10352,0.37304 -27.23242,-29.4707 z m -134.71875,47.7793 -57.76757,34.55664 16.35351,1.31836 49.5918,-29.28125 z m 380.82618,0 -8.17579,6.59375 49.5918,29.28125 16.35352,-1.31836 z m -278.00196,39.51367 20.89063,39.54297 8.39258,34.87891 -30.0293,46.25781 8.76562,2.23828 51.29493,-36.37109 -7.83399,-10.25977 6.3418,-17.90625 -14.54883,-23.31445 0.55859,18.2793 -31.70898,-49.24219 z m 175.17969,0 -12.12305,4.10352 -31.70898,49.24219 0.55859,-18.2793 -14.54882,23.31445 6.34179,17.90625 -7.83398,10.25977 51.29492,36.37109 8.76562,-2.23828 -30.02929,-46.25781 8.39258,-34.87891 z m -105.98047,48.3086 -0.37305,0.74609 -0.37304,10.44531 -3.73047,9.32617 -3.35742,-5.5957 -0.93164,13.61719 14.36133,14.36133 6.15624,-13.98828 z m 36.78125,0 -11.75195,28.91211 6.15625,13.98828 14.36133,-14.36133 -0.93164,-13.61719 -3.35743,5.5957 -3.73046,-9.32617 -0.37305,-10.44531 z m -22.97851,0.74609 -5.59571,9.14062 5.22266,10.07227 z m 9.17578,0 0.37109,19.21289 5.22461,-10.07227 z"
       style="opacity:1;fill:#000000;fill-opacity:1;stroke:none;stroke-width:4.53543;stroke-miterlimit:4;stroke-dasharray:none;stroke-opacity:1"
       id="path4421" />
    <path
       transform="scale(0.26458333)"
       d="m 436.12305,947.23828 c 0.12019,9.8e-4 -6.37133,17.21641 -6.27344,17.14649 0.0151,-0.0113 -1.0024,0.0142 -1.70899,0.0293 l 2.0625,0.19727 c 1.8813,-0.0495 3.55221,-0.0924 5.17579,-0.13477 l 3.47461,-8.89648 z m 12,0 c 0.12019,9.8e-4 -6.37133,17.21641 -6.27344,17.14649 0.0151,-0.0113 -1.0024,0.0142 -1.70899,0.0293 l 2.0625,0.19727 c 1.8813,-0.0495 3.55221,-0.0924 5.17579,-0.13477 l 3.47461,-8.89648 z m 10,0 c 0.12019,9.8e-4 -6.37133,17.21641 -6.27344,17.14649 0.0151,-0.0113 -1.0024,0.0142 -1.70899,0.0293 l 2.0625,0.19727 c 1.8813,-0.0495 3.55221,-0.0924 5.17579,-0.13477 l 3.47461,-8.89648 z m 11.24414,0 c 0.12019,9.8e-4 -6.37133,17.21641 -6.27344,17.14649 0.0151,-0.0113 -1.0024,0.0142 -1.70898,0.0293 l 2.0625,0.19727 c 1.88129,-0.0495 3.55221,-0.0924 5.17578,-0.13477 l 3.47461,-8.89648 z m 10.86719,0 c 0.1202,10e-4 -6.37133,17.21641 -6.27344,17.14649 0.0148,-0.0106 -1.0024,0.0148 -1.70899,0.0293 l 2.0586,0.19727 c -4.3889,0.11586 -8.65324,0.22264 -8.63477,0.16797 0.0383,-0.11399 14.40694,11.37819 14.36914,11.26367 -0.0363,-0.11486 -5.17863,17.58548 -5.27539,17.51367 -0.0966,-0.0716 15.27449,-10.1846 15.1543,-10.18555 -0.12046,-9.8e-4 15.12366,10.35977 15.02539,10.42969 -0.098,0.0697 -4.96573,-17.67469 -5.00391,-17.56055 -0.023,0.0689 5.10603,-3.8882 9.31446,-7.11328 4.07394,3.22138 8.80716,6.9827 8.78515,6.91602 -0.0363,-0.11486 -5.17863,17.58548 -5.27539,17.51367 -0.0966,-0.0716 15.27449,-10.1846 15.1543,-10.18555 -0.12046,-9.8e-4 15.12366,10.35977 15.02539,10.42969 -0.098,0.0697 -4.96573,-17.67469 -5.00391,-17.56055 -0.023,0.0689 5.10603,-3.8882 9.31446,-7.11328 4.07394,3.22138 8.80716,6.9827 8.78515,6.91602 -0.0363,-0.11486 -5.17863,17.58548 -5.27539,17.51367 -0.0966,-0.0716 15.27449,-10.1846 15.1543,-10.18555 -0.12046,-9.8e-4 15.12366,10.35977 15.02539,10.42969 -0.098,0.0697 -4.96573,-17.67469 -5.00391,-17.56055 -0.023,0.0689 5.10604,-3.8882 9.31446,-7.11328 4.07393,3.22138 8.80716,6.9827 8.78515,6.91602 -0.0363,-0.11486 -5.17863,17.58548 -5.27539,17.51367 -0.0966,-0.0716 15.27449,-10.1846 15.1543,-10.18555 -0.12046,-9.8e-4 15.12366,10.35977 15.02539,10.42969 -0.098,0.0697 -4.96573,-17.67469 -5.00391,-17.56055 -0.023,0.0689 5.10603,-3.8882 9.31446,-7.11328 4.07393,3.22138 8.80716,6.9827 8.78515,6.91602 -0.0363,-0.11486 -5.17863,17.58548 -5.27539,17.51367 -0.0966,-0.0716 15.27449,-10.1846 15.1543,-10.18555 -0.12046,-9.8e-4 15.12366,10.35977 15.02539,10.42969 -0.098,0.0697 -4.96573,-17.67469 -5.00391,-17.56055 -0.0206,0.0617 4.1465,-3.14704 8.05469,-6.14648 3.90782,2.99916 8.07335,6.20818 8.05273,6.14648 -0.0382,-0.11414 -4.90594,17.63025 -5.0039,17.56055 -0.0983,-0.0699 15.14584,-10.43067 15.02539,-10.42969 -0.12019,9.5e-4 15.25086,10.11393 15.1543,10.18555 -0.0968,0.0718 -5.23911,-17.62853 -5.2754,-17.51367 -0.022,0.0667 4.71114,-3.69458 8.78516,-6.91602 4.20842,3.22508 9.33747,7.18217 9.31445,7.11328 -0.0382,-0.11414 -4.9059,17.63025 -5.0039,17.56055 -0.0983,-0.0699 15.14584,-10.43067 15.02539,-10.42969 -0.12019,9.5e-4 15.25086,10.11393 15.1543,10.18555 -0.0968,0.0718 -5.23911,-17.62853 -5.2754,-17.51367 -0.022,0.0667 4.71123,-3.69464 8.78516,-6.91602 4.20842,3.22508 9.33745,7.18217 9.31445,7.11328 -0.0382,-0.11414 -4.9059,17.63025 -5.0039,17.56055 -0.0983,-0.0699 15.14584,-10.43067 15.02539,-10.42969 -0.12019,9.5e-4 15.25086,10.11393 15.1543,10.18555 -0.0968,0.0718 -5.23907,-17.62853 -5.2754,-17.51367 -0.022,0.0667 4.71122,-3.69464 8.78516,-6.91602 4.20843,3.22508 9.33745,7.18217 9.31445,7.11328 -0.0382,-0.11414 -4.90594,17.63025 -5.0039,17.56055 -0.0983,-0.0699 15.14584,-10.43067 15.02539,-10.42969 -0.12019,9.5e-4 15.2509,10.11393 15.1543,10.18555 -0.0968,0.0718 -5.23911,-17.62853 -5.2754,-17.51367 -0.0378,0.11452 14.33086,-11.37766 14.36915,-11.26367 0.0185,0.0547 -4.24594,-0.0521 -8.63477,-0.16797 l 2.05859,-0.19727 c -0.70658,-0.0151 -1.7241,-0.0406 -1.70898,-0.0293 0.0979,0.0699 -6.39363,-17.14551 -6.27344,-17.14649 l -2.73047,8.3418 3.47461,8.89648 c -2.49452,-0.0649 -4.50162,-0.11389 -4.4707,-0.0918 0.0979,0.0699 -6.39366,-17.14532 -6.27344,-17.14649 0.12057,-0.001 -6.12226,17.33916 -6.02539,17.26758 0.0419,-0.031 -3.53072,0.11897 -7.42578,0.28125 8e-5,10e-5 0.01,-0.008 0.01,-0.008 0.0385,0.11414 -18.38316,-0.46457 -18.28516,-0.39453 0.0979,0.0699 -6.3937,-17.14532 -6.27344,-17.14649 0.12057,-10e-4 -6.12226,17.33916 -6.02539,17.26758 0.0419,-0.031 -3.53071,0.11897 -7.42578,0.28125 8e-5,10e-5 0.01,-0.008 0.01,-0.008 0.0385,0.11414 -18.38316,-0.46457 -18.28516,-0.39453 0.0979,0.0699 -6.3937,-17.14532 -6.27344,-17.14649 0.12057,-10e-4 -6.12226,17.33916 -6.02539,17.26758 0.0419,-0.031 -3.53072,0.11897 -7.42578,0.28125 8e-5,1e-4 0.01,-0.008 0.01,-0.008 0.0385,0.11414 -18.38316,-0.46457 -18.28516,-0.39453 0.0979,0.0699 -6.3937,-17.14532 -6.27344,-17.14649 0.12057,-10e-4 -6.12226,17.33916 -6.02539,17.26758 0.0585,-0.0432 -6.44372,0.24056 -11.74023,0.45508 -5.29638,-0.21451 -11.7968,-0.49828 -11.73828,-0.45508 0.0969,0.0716 -6.14596,-17.26879 -6.02539,-17.26758 0.12026,10e-4 -6.37133,17.21641 -6.27344,17.14649 0.098,-0.07 -18.32333,0.50867 -18.28516,0.39453 4e-5,-1.3e-4 0.01,0.008 0.01,0.008 -3.89593,-0.16232 -7.46772,-0.31221 -7.42578,-0.28125 0.0969,0.0716 -6.14596,-17.26879 -6.02539,-17.26758 0.12026,10e-4 -6.37133,17.21641 -6.27344,17.14649 0.098,-0.07 -18.32333,0.50867 -18.28516,0.39453 4e-5,-1.3e-4 0.01,0.008 0.01,0.008 -3.89594,-0.16232 -7.46772,-0.31221 -7.42578,-0.28125 0.0969,0.0716 -6.14596,-17.26879 -6.02539,-17.26758 0.12026,10e-4 -6.37133,17.21641 -6.27344,17.14649 0.098,-0.07 -18.32333,0.50867 -18.28516,0.39453 4e-5,-1.3e-4 0.01,0.008 0.01,0.008 -3.89594,-0.16232 -7.46772,-0.31221 -7.42578,-0.28125 0.0969,0.0716 -6.14596,-17.26879 -6.02539,-17.26758 0.12022,10e-4 -6.37133,17.21641 -6.27344,17.14649 0.098,-0.07 -18.32333,0.50867 -18.28516,0.39453 4e-5,-1.3e-4 0.01,0.008 0.01,0.008 -3.89593,-0.16232 -7.46772,-0.31221 -7.42578,-0.28125 0.0969,0.0716 -6.14596,-17.26879 -6.02539,-17.26758 0.12026,10e-4 -6.37133,17.21641 -6.27344,17.14649 0.0309,-0.0221 -1.97618,0.0269 -4.47071,0.0918 l 3.47266,-8.89648 z m 332.39648,0 -2.73047,8.3418 3.47461,8.89648 c 1.62357,0.0423 3.29448,0.0853 5.17578,0.13477 l 2.0625,-0.19727 c -0.70658,-0.0151 -1.7241,-0.0406 -1.70898,-0.0293 0.0979,0.0699 -6.39363,-17.14551 -6.27344,-17.14649 z m 11.24414,0 -2.73047,8.3418 3.47461,8.89648 c 1.62357,0.0423 3.29448,0.0853 5.17578,0.13477 l 2.0625,-0.19727 c -0.70658,-0.0151 -1.7241,-0.0406 -1.70898,-0.0293 0.0979,0.0699 -6.39363,-17.14551 -6.27344,-17.14649 z m 10,0 -2.73047,8.3418 3.47461,8.89648 c 1.62357,0.0423 3.29448,0.0853 5.17578,0.13477 l 2.0625,-0.19727 c -0.70658,-0.0151 -1.7241,-0.0406 -1.70898,-0.0293 0.0979,0.0699 -6.39363,-17.14551 -6.27344,-17.14649 z m 12,0 -2.73047,8.3418 3.47461,8.89648 c 1.62357,0.0423 3.29448,0.0853 5.17578,0.13477 l 2.0625,-0.19727 c -0.70658,-0.0151 -1.7241,-0.0406 -1.70898,-0.0293 0.0979,0.0699 -6.39363,-17.14551 -6.27344,-17.14649 z m -427.06641,17.4082 c -3.80129,0.0983 -7.26031,0.18119 -7.24414,0.13282 0.0382,-0.11414 14.40694,11.37819 14.36914,11.26367 -0.0378,-0.1149 -5.17863,17.58548 -5.27539,17.51367 -0.0503,-0.0378 3.96618,-2.71196 7.92969,-5.34766 l 3.31055,-12.50195 z m 12,0 c -3.80129,0.0983 -7.26031,0.18119 -7.24414,0.13282 0.0382,-0.11414 14.40694,11.37819 14.36914,11.26367 -0.0378,-0.1149 -5.17863,17.58548 -5.27539,17.51367 -0.0503,-0.0378 3.96618,-2.71196 7.92969,-5.34766 l 3.31055,-12.50195 z m 10,0 c -3.80129,0.0983 -7.26031,0.18119 -7.24414,0.13282 0.0382,-0.11414 14.40694,11.37819 14.36914,11.26367 -0.0378,-0.1149 -5.17863,17.58548 -5.27539,17.51367 -0.0503,-0.0378 3.96618,-2.71196 7.92969,-5.34766 l 3.31055,-12.50195 z m 11.24414,0 c -3.80129,0.0983 -7.26031,0.18119 -7.24414,0.13282 0.0382,-0.11414 14.40694,11.37819 14.36914,11.26367 -0.0378,-0.1149 -5.17863,17.58548 -5.27539,17.51367 -0.0503,-0.0378 3.96618,-2.71196 7.92969,-5.34766 l 3.31055,-12.50195 z m 10.86719,0 c -3.8013,0.0984 -7.26032,0.1812 -7.24414,0.13282 0.0383,-0.11399 14.40694,11.37819 14.36914,11.26367 -0.0363,-0.11486 -5.17863,17.58548 -5.27539,17.51367 -0.0504,-0.0374 3.9662,-2.71198 7.92969,-5.34766 l 3.31055,-12.50195 z m 356.1582,0 -13.08984,11.06055 3.31055,12.50195 c 3.96348,2.6357 7.97995,5.30987 7.92969,5.34766 -0.0968,0.0718 -5.2376,-17.62857 -5.2754,-17.51367 -0.0378,0.11452 14.33097,-11.37781 14.36915,-11.26367 0.0162,0.0484 -3.44285,-0.0346 -7.24415,-0.13282 z m 10.86719,0 -13.08984,11.06055 3.31055,12.50195 c 3.96351,2.6357 7.97995,5.30987 7.92968,5.34766 -0.0967,0.0718 -5.23759,-17.62857 -5.27539,-17.51367 -0.0378,0.11452 14.33097,-11.37781 14.36914,-11.26367 0.0162,0.0484 -3.44284,-0.0346 -7.24414,-0.13282 z m 11.24414,0 -13.08984,11.06055 3.31055,12.50195 c 3.96351,2.6357 7.97995,5.30987 7.92968,5.34766 -0.0967,0.0718 -5.23759,-17.62857 -5.27539,-17.51367 -0.0378,0.11452 14.33097,-11.37781 14.36914,-11.26367 0.0162,0.0484 -3.44284,-0.0346 -7.24414,-0.13282 z m 10,0 -13.08984,11.06055 3.31055,12.50195 c 3.96351,2.6357 7.97995,5.30987 7.92968,5.34766 -0.0967,0.0718 -5.23759,-17.62857 -5.27539,-17.51367 -0.0378,0.11452 14.33097,-11.37781 14.36914,-11.26367 0.0162,0.0484 -3.44284,-0.0346 -7.24414,-0.13282 z m 12,0 -13.08984,11.06055 3.31055,12.50195 c 3.96351,2.6357 7.97995,5.30987 7.92968,5.34766 -0.0967,0.0718 -5.23759,-17.62857 -5.27539,-17.51367 -0.0378,0.11452 14.33097,-11.37781 14.36914,-11.26367 0.0162,0.0484 -3.44284,-0.0346 -7.24414,-0.13282 z"
       inkscape:transform-center-y="-0.63246608"
       inkscape:transform-center-x="-0.01693371"
       style="opacity:1;fill:#000000;fill-opacity:1;stroke:none;stroke-width:4.53543;stroke-miterlimit:4;stroke-dasharray:none;stroke-opacity:1"
       id="path4545" />
  </g>
  <g
     sodipodi:insensitive="true"
     style="display:none;opacity:0.357616"
     id="layer1"
     inkscape:groupmode="layer"
     inkscape:label="Layer 1" />
</svg>
